<svg xmlns="http://www.w3.org/2000/svg">
<defs>
<font id="MacPawFixelText-ExtraBold" horiz-adv-x="564" >
  <font-face 
    font-family="MacPaw Fixel Text Extra Bold"
    font-weight="800"
    font-stretch="semi-condensed"
    units-per-em="1000"
    panose-1="0 0 0 0 0 0 0 0 0 0"
    ascent="800"
    descent="-200"
    x-height="519.999"
    cap-height="700"
    bbox="-59.999 -213.004 1168 935.001"
    underline-thickness="50"
    underline-position="-75"
    unicode-range="U+000D-U+FB04"
  />
<missing-glyph horiz-adv-x="713" 
d="M198 619c-9.33301 -0.666992 -16.9971 1.33496 -22.9971 6.00195s-9.33301 10.667 -10 18c-1.33301 8 0.666992 14.667 6 20s12.666 8.66602 21.999 9.99902c10.667 1.33301 20.167 -0.333984 28.5 -5.00098s13.166 -10.667 14.499 -18
c0.666992 -7.33301 -2.83301 -14 -10.5 -20s-16.834 -9.66699 -27.501 -11zM121.003 427.002c-13.333 -1.33301 -25.498 1.3291 -36.498 7.99609s-16.833 14.667 -17.5 24c0 4.66699 1.16699 9.33398 3.5 14.001l7.5 15c2.66699 5.33301 5.16699 11.333 7.5 18
s3.16602 14 2.49902 22s-2.66699 15 -6 21s-7 11.333 -11 16s-7.66699 9.16699 -11 13.5s-5 8.83301 -5 13.5c-0.666992 8.66699 3.66602 17 12.999 25s19.666 12.667 30.999 14s23 -1.66699 35 -9s22.333 -17.666 31 -30.999c5.33301 -8 10.333 -14 15 -18l13 -11
c4 -3.33301 7.5 -6.66602 10.5 -9.99902s4.83301 -8.33301 5.5 -15s-0.166016 -12 -2.49902 -16s-5.33301 -8.16699 -9 -12.5l-12 -14.5c-4.33301 -5.33301 -8.5 -12.666 -12.5 -21.999c-12 -28 -29.333 -43 -52 -45zM253.005 550.997
c-11.333 -1.33301 -20.833 0.670898 -28.5 6.00391s-11.834 12.666 -12.501 21.999c-1.33301 9.33301 1.5 17.166 8.5 23.499s16.167 10.166 27.5 11.499c12.667 1.33301 24.167 -0.833984 34.5 -6.50098s16.166 -12.5 17.499 -20.5
c0.666992 -8.66699 -3.66602 -16.5 -12.999 -23.5s-20.666 -11.167 -33.999 -12.5zM260.005 470.001c-11.333 -1.33301 -20.668 0.667969 -28.001 6.00098s-11.333 12.666 -12 21.999c-1.33301 9.33301 1.33398 17 8.00098 23s15.667 9.66699 27 11

<glyph glyph-name="arrowleft" unicode="&#x3c;&#x2d;" horiz-adv-x="717" 
d="M58 327v11l232 259l99 -89l-105 -111h385v-129h-385l105 -111l-99 -89z" />
    <glyph glyph-name="arrowup" unicode="&#x2f;&#x7c;\" horiz-adv-x="607" 
d="M298 638.004h11l259 -231.986l-89 -98.9941l-111 104.994v-384.977h-129v384.977l-111 -104.994l-89 98.9941z" />
    <glyph glyph-name="arrowright" unicode="&#x2d;&#x3e;" horiz-adv-x="717" 
d="M659.004 327v11l-231.986 259l-98.9941 -89l104.994 -111h-384.977v-129h384.977l-104.994 -111l98.9941 -89z" />
    <glyph glyph-name="arrowdown" unicode="\&#x7c;&#x2f;" horiz-adv-x="607" 
d="M298 26.0352h11l259 231.972l-89 98.9883l-111 -104.987v384.953h-129v-384.953l-111 104.987l-89 -98.9883z" />
    <glyph glyph-name="uni2646" unicode="TRIDENT" horiz-adv-x="786" 
d="M435 413c0 -20 2.16895 -38.167 6.50195 -54.5s10.166 -31.666 17.499 -45.999s15.5 -27.833 24.5 -40.5l27.5 -38c9.33301 4.66699 17 9.33398 23 14.001s9 10.667 9 18c0 9.33301 -5.33301 16.833 -16 22.5s-26 8.5 -46 8.5v36c0 40 4 76 12 108s21.333 61.667 40 89
s43.334 53.166 74.001 77.499s68.667 48.5 114 72.5v-680h-162c-10.667 -27.333 -26.334 -52.666 -47.001 -75.999s-46.334 -43.666 -77.001 -60.999v-61h-84v61c-30.667 17.333 -56.5 37.666 -77.5 60.999s-36.833 48.666 -47.5 75.999h-161v680
c45.333 -24 83.333 -48.167 114 -72.5s55.167 -50.166 73.5 -77.499s31.5 -57 39.5 -89s12 -68 12 -108v-36c-20 0 -35.167 -2.83301 -45.5 -8.5s-15.5 -13.167 -15.5 -22.5c0 -7.33301 2.83301 -13.333 8.5 -18s13.167 -9.33398 22.5 -14.001l27.5 38
c9 12.667 17.167 26.167 24.5 40.5s13.333 29.666 18 45.999s7 34.5 7 54.5v339h84v-339zM637.002 81v446.001c-23.333 -22 -41 -47.333 -53 -76s-19.333 -60.667 -22 -96c38 -15.333 57 -44.333 57 -87c0 -26.667 -6.66699 -46.834 -20 -60.501s-29.333 -25.167 -48 -34.5
c6.66699 -13.333 12.167 -27.5 16.5 -42.5s6.5 -31.5 6.5 -49.5h63zM212.002 81.001c0 18 2 34.499 6 49.499s9.66699 29.167 17 42.5c-18.667 9.33301 -34.667 20.833 -48 34.5s-20 33.834 -20 60.501c0 42.667 19 71.667 57 87c-5.33301 70.667 -30.333 128 -75 172v-446
h63zM350.002 200c7.33301 -4.66699 14.666 -9.83301 21.999 -15.5s14.333 -12.167 21 -19.5c6 7.33301 12.667 13.833 20 19.5s15 11.167 23 16.5c-7.33301 9.33301 -14.666 19.333 -21.999 30s-14.333 21.667 -21 33c-6.66699 -12 -13.667 -23.167 -21 -33.5z
M355.002 81.001c-4 13.333 -9.99902 24.5 -17.999 33.5s-17.667 16.833 -29 23.5c-4.66699 -9.33301 -8.33398 -18.5 -11.001 -27.5s-4 -18.833 -4 -29.5h62zM493.003 81.001c0 10.667 -1.33301 20.5 -4 29.5s-6.66699 18.167 -12 27.5
c-10.667 -6.66699 -20 -14.5 -28 -23.5s-14 -20.167 -18 -33.5h62zM359.003 0.000976562h-40c17.333 -25.333 42 -48 74 -68c31.333 20 56 42.667 74 68h-40v-26h-68v26z" />
    <glyph glyph-name="uniE000" unicode="&#x457;&#x457;" horiz-adv-x="570" 
d="M68 587c-23.333 0 -42.333 7 -57 21s-22 32.667 -22 56s7.33301 42.166 22 56.499s33.667 21.5 57 21.5c22.667 0 41.5 -7.16699 56.5 -21.5s22.5 -33.166 22.5 -56.499s-7.5 -42 -22.5 -56s-33.833 -21 -56.5 -21zM282 587c-22.667 0 -41 7 -55 21s-21 32.667 -21 56
s7 42.166 21 56.499s32.333 21.5 55 21.5c24.667 0 44.5 -7.16699 59.5 -21.5s22.5 -33.166 22.5 -56.499s-7.5 -42 -22.5 -56s-34.833 -21 -59.5 -21zM500 587c-23.333 0 -42 7 -56 21s-21 32.667 -21 56s7 42.166 21 56.499s32.667 21.5 56 21.5
c24 0 43.5 -7.16699 58.5 -21.5s22.5 -33.166 22.5 -56.499s-7.5 -42 -22.5 -56s-34.5 -21 -58.5 -21zM55 520h174v-520h-174v520zM340 520h174v-520h-174v520z" />
    <glyph glyph-name="uniE01A" unicode="MACPAWLOGO" horiz-adv-x="723" 
d="M320 654c-4.66699 -3.33301 -9.99902 -5 -15.999 -5c-8 0 -14 3.33301 -18 10c-7.33301 13.333 -3.33301 24.333 12 33c5.33301 3.33301 12 5 20 5c4 0 7.83301 -0.5 11.5 -1.5s6.16699 -3.16699 7.5 -6.5c3.33301 -5.33301 3.16602 -11.5 -0.500977 -18.5
s-9.16699 -12.5 -16.5 -16.5zM384.001 620c-6 -3.33301 -12.333 -5.00195 -19 -5.00195c-8.66699 0 -15.667 4 -21 12c-4 6.66699 -4.66699 13.334 -2 20.001s8 12.334 16 17.001c7.33301 4.66699 15.333 7 24 7c10 0 17 -3.33301 21 -10c3.33301 -6 3 -13 -1 -21
s-10 -14.667 -18 -20zM362.001 -0.00195312c-44.667 0 -86.998 8.49805 -126.998 25.498s-74.667 40.333 -104 70s-52.666 64.334 -69.999 104.001s-26 82.167 -26 127.5c0 33.333 4.83301 65.333 14.5 96s23.167 59.167 40.5 85.5s38.5 49.833 63.5 70.5
s52.833 37.334 83.5 50.001c10 4.66699 21.333 7 34 7c18 0 34.667 -5 50 -15s26.666 -23.667 33.999 -41s9.16602 -34.833 5.49902 -52.5s-11.834 -32.834 -24.501 -45.501c-5.33301 -5.33301 -11 -9.66602 -17 -12.999s-12.333 -6.66602 -19 -9.99902l-10 -5
c-23.333 -12 -41.5 -29.833 -54.5 -53.5s-19.5 -48.167 -19.5 -73.5c0 -20 3.83301 -39 11.5 -57s18 -33.5 31 -46.5s28.5 -23.333 46.5 -31s37 -11.5 57 -11.5c17.333 0 34 3 50 9s30.167 14.167 42.5 24.5s23 22.5 32 36.5s15.167 29.333 18.5 46
c1.33301 5.33301 2 10.333 2 15s0.333008 9.66699 1 15c2 25.333 10.667 46.666 26 63.999s36.666 26 63.999 26c25.333 0 46.833 -8.66699 64.5 -26s26.5 -38.666 26.5 -63.999c0 -45.333 -8.66699 -87.833 -26 -127.5s-40.666 -74.334 -69.999 -104.001
s-63.833 -53 -103.5 -70s-82.167 -25.5 -127.5 -25.5zM418.003 560.996c-6.66699 -4 -13 -6.00098 -19 -6.00098c-8.66699 0 -15.667 4 -21 12c-4 7.33301 -4.66699 14.333 -2 21s8 12.334 16 17.001c7.33301 4 15 6 23 6c10.667 0 18 -3 22 -9
c3.33301 -6 3 -13.167 -1 -21.5s-10 -14.833 -18 -19.5zM412.003 494.995c-4.66699 -3.33301 -10.333 -5 -17 -5c-8 0 -14 3.33301 -18 10c-3.33301 6 -3.83301 12 -1.5 18s7.16602 11 14.499 15c5.33301 3.33301 12 5 20 5c9.33301 0 15.333 -2.66699 18 -8
c3.33301 -5.33301 3.33301 -11.5 0 -18.5s-8.66602 -12.5 -15.999 -16.5z" />
    <glyph glyph-name="f_f" unicode="ff" horiz-adv-x="708" 
d="M82 387l-66.002 -0.000976562v107c9.33301 3.33301 20.166 6.16602 32.499 8.49902s23.5 4.16602 33.5 5.49902v24c0 58.667 13.833 104.334 41.5 137.001s67.5 49 119.5 49c9.33301 0 19.833 -0.5 31.5 -1.5s23.334 -2.5 35.001 -4.5s22.834 -4.16699 33.501 -6.5
s20 -5.16602 28 -8.49902v-126c-12.667 6 -25.667 10.333 -39 13s-25 4 -35 4c-18 0 -31.167 -4.83301 -39.5 -14.5s-12.5 -26.167 -12.5 -49.5v-14h159v22c0 58.667 13.833 104.334 41.5 137.001s67.5 49 119.5 49c19.333 0 41.333 -2 66 -6s45.334 -9 62.001 -15v-126
c-12.667 6 -25.667 10.333 -39 13s-25.333 4 -36 4c-18 0 -31 -4.83301 -39 -14.5s-12 -26.167 -12 -49.5v-14h123v-123h-112v-387h-174v387h-148v-387h-174v387z" />
    <glyph glyph-name="fi" unicode="fi" horiz-adv-x="637" 
d="M492 580c-28 0 -50.833 7.66699 -68.5 23s-26.5 35.666 -26.5 60.999c0 26 8.83301 46.833 26.5 62.5s40.5 23.5 68.5 23.5c30 0 54.167 -7.83301 72.5 -23.5s27.5 -36.5 27.5 -62.5c0 -25.333 -9.16699 -45.666 -27.5 -60.999s-42.5 -23 -72.5 -23zM82 387h-66.001v107
c9.33301 3.33301 20.166 6.16602 32.499 8.49902s23.5 4.16602 33.5 5.49902v24c0 58.667 13.833 104.334 41.5 137.001s67.5 49 119.5 49c9.33301 0 19.833 -0.5 31.5 -1.5s23.334 -2.5 35.001 -4.5s22.834 -4.16699 33.501 -6.5s20 -5.16602 28 -8.49902v-126
c-12.667 6 -25.667 10.333 -39 13s-25 4 -35 4c-19.333 0 -32.833 -5.33301 -40.5 -16s-11.5 -28.667 -11.5 -54l1 -8h325v-6h10v-504h-174v387h-151v-387h-174v387z" />
    <glyph glyph-name="fl" unicode="fl" horiz-adv-x="644" 
d="M415 559c-13.333 6.66699 -29.166 13.001 -47.499 19.001s-36.166 9 -53.499 9c-18.667 0 -32.334 -5 -41.001 -15s-13 -27.667 -13 -53v-9h108v-123h-96v-387h-174v387h-67v107c9.33301 3.33301 20.166 6.16602 32.499 8.49902s23.833 4.16602 34.5 5.49902v24
c0 58 15.667 103.5 47 136.5s78.333 49.5 141 49.5c27.333 0 54.5 -2.5 81.5 -7.5s53.333 -11.167 79 -18.5s50.667 -15.666 75 -24.999l67.5 -27v-640h-174v559z" />
    <glyph glyph-name="f_f_i" unicode="ffi" horiz-adv-x="956" 
d="M812 580c-28.667 0 -51.834 7.66699 -69.501 23s-26.5 35.666 -26.5 60.999c0 26 8.83301 46.833 26.5 62.5s40.834 23.5 69.501 23.5c30 0 54 -7.83301 72 -23.5s27 -36.5 27 -62.5c0 -25.333 -9 -45.666 -27 -60.999s-42 -23 -72 -23zM727 387l-149 -0.000976562v-387
h-174v387h-148v-387h-174v387h-66v107c9.33301 3.33301 20.166 6.16602 32.499 8.49902s23.5 4.16602 33.5 5.49902v24c0 58.667 13.833 104.334 41.5 137.001s67.5 49 119.5 49c9.33301 0 19.833 -0.5 31.5 -1.5s23.334 -2.5 35.001 -4.5s22.834 -4.16699 33.501 -6.5
s20 -5.16602 28 -8.49902v-126c-12.667 6 -25.667 10.333 -39 13s-25 4 -35 4c-18 0 -31.167 -4.83301 -39.5 -14.5s-12.5 -26.167 -12.5 -49.5v-14h159v22c0 58.667 13.833 104.334 41.5 137.001s67.5 49 119.5 49c19.333 0 40.666 -2 63.999 -6s43.333 -9 60 -15v-126
c-12.667 6 -25 10.333 -37 13s-23.333 4 -34 4c-18 0 -31 -4.83301 -39 -14.5s-12 -26.167 -12 -49.5v-14h334v-510h-174v387z" />
    <glyph glyph-name="f_f_l" unicode="ffl" horiz-adv-x="951" 
d="M82 387l-65.999 -0.000976562v107c9.33301 3.33301 20.166 6.16602 32.499 8.49902s23.5 4.16602 33.5 5.49902v24c0 58.667 13.833 104.334 41.5 137.001s67.5 49 119.5 49c9.33301 0 19.833 -0.5 31.5 -1.5s23.334 -2.5 35.001 -4.5s22.834 -4.16699 33.501 -6.5
s20 -5.16602 28 -8.49902v-126c-12.667 6 -25.667 10.333 -39 13s-25 4 -35 4c-18 0 -31.167 -4.83301 -39.5 -14.5s-12.5 -26.167 -12.5 -49.5v-14h159v22c0 58 15.667 103.5 47 136.5s78.666 49.5 141.999 49.5c27.333 0 54.333 -2.5 81 -7.5s53 -11.167 79 -18.5
s51 -15.666 75 -24.999l67 -27v-640h-174v559c-13.333 6.66699 -29 13 -47 19s-35.667 9 -53 9c-18.667 0 -32.334 -5 -41.001 -15s-13 -27.667 -13 -53v-9h107v-123h-96v-387h-174v387h-148v-387h-174v387z" />
    <glyph glyph-name=".notdef" horiz-adv-x="713" 
d="M198 619c-9.33301 -0.666992 -16.9971 1.33496 -22.9971 6.00195s-9.33301 10.667 -10 18c-1.33301 8 0.666992 14.667 6 20s12.666 8.66602 21.999 9.99902c10.667 1.33301 20.167 -0.333984 28.5 -5.00098s13.166 -10.667 14.499 -18
c0.666992 -7.33301 -2.83301 -14 -10.5 -20s-16.834 -9.66699 -27.501 -11zM121.003 427.002c-13.333 -1.33301 -25.498 1.3291 -36.498 7.99609s-16.833 14.667 -17.5 24c0 4.66699 1.16699 9.33398 3.5 14.001l7.5 15c2.66699 5.33301 5.16699 11.333 7.5 18
s3.16602 14 2.49902 22s-2.66699 15 -6 21s-7 11.333 -11 16s-7.66699 9.16699 -11 13.5s-5 8.83301 -5 13.5c-0.666992 8.66699 3.66602 17 12.999 25s19.666 12.667 30.999 14s23 -1.66699 35 -9s22.333 -17.666 31 -30.999c5.33301 -8 10.333 -14 15 -18l13 -11
c4 -3.33301 7.5 -6.66602 10.5 -9.99902s4.83301 -8.33301 5.5 -15s-0.166016 -12 -2.49902 -16s-5.33301 -8.16699 -9 -12.5l-12 -14.5c-4.33301 -5.33301 -8.5 -12.666 -12.5 -21.999c-12 -28 -29.333 -43 -52 -45zM253.005 550.997
c-11.333 -1.33301 -20.833 0.670898 -28.5 6.00391s-11.834 12.666 -12.501 21.999c-1.33301 9.33301 1.5 17.166 8.5 23.499s16.167 10.166 27.5 11.499c12.667 1.33301 24.167 -0.833984 34.5 -6.50098s16.166 -12.5 17.499 -20.5
c0.666992 -8.66699 -3.66602 -16.5 -12.999 -23.5s-20.666 -11.167 -33.999 -12.5zM260.005 470.001c-11.333 -1.33301 -20.668 0.667969 -28.001 6.00098s-11.333 12.666 -12 21.999c-1.33301 9.33301 1.33398 17 8.00098 23s15.667 9.66699 27 11
c12.667 1.33301 24 -0.666992 34 -6s15.333 -12.333 16 -21c1.33301 -8 -2.66699 -15.5 -12 -22.5s-20.333 -11.167 -33 -12.5zM217.003 401.002c-9.33301 -0.666992 -17 1.33496 -23 6.00195s-9.33301 11 -10 19c-1.33301 7.33301 0.833984 13.666 6.50098 18.999
s13.167 8.66602 22.5 9.99902c10.667 1.33301 20.167 -0.5 28.5 -5.5s12.833 -11.167 13.5 -18.5s-2.83301 -13.833 -10.5 -19.5s-16.834 -9.16699 -27.501 -10.5zM563.003 245.004c-9.33301 1.33301 -16.6689 4.66797 -22.002 10.001s-7.66602 11.666 -6.99902 18.999
c0.666992 8 4 14.333 10 19s13.667 6.66699 23 6c10.667 -1.33301 19.834 -4.83301 27.501 -10.5s11.167 -12.167 10.5 -19.5s-5.16699 -13.5 -13.5 -18.5s-17.833 -6.83301 -28.5 -5.5zM450 70.0059c-12 1.33301 -22.668 5.83398 -32.001 13.501
s-13.666 15.834 -12.999 24.501c0 4.66699 1.66699 9.16699 5 13.5l11 14c4 5 7.66699 10.5 11 16.5s5.33301 13 6 21s-0.166016 15.333 -2.49902 22s-5 12.667 -8 18s-5.66699 10.333 -8 15s-3.16602 9.33398 -2.49902 14.001c1.33301 8.66699 7.16602 16.167 17.499 22.5
s22.166 9.16602 35.499 8.49902c22.667 -0.666992 40.667 -15.334 54 -44.001c4 -9.33301 8.16699 -16.666 12.5 -21.999l12 -14.5c3.66699 -4.33301 6.5 -8.5 8.5 -12.5s2.66699 -9.33301 2 -16s-2.16699 -11.834 -4.5 -15.501s-5.5 -7.33398 -9.5 -11.001
s-8.5 -7.5 -13.5 -11.5s-10.167 -9.66699 -15.5 -17c-9.33301 -12.667 -19.833 -22.667 -31.5 -30s-23.167 -10.333 -34.5 -9zM604.999 169.007c-11.333 1.33301 -20.3359 5.00098 -27.0029 11.001s-9.66699 13.667 -9 23c1.33301 9.33301 5.83301 16.666 13.5 21.999
s17.167 7.33301 28.5 6c12.667 -1.33301 23.834 -5.5 33.501 -12.5s13.834 -14.833 12.501 -23.5c-0.666992 -8 -6.16699 -14.667 -16.5 -20s-22.166 -7.33301 -35.499 -6zM597.996 87.0078c-11.333 1.33301 -20.3311 5.16992 -26.998 11.5029
s-9.33398 14.166 -8.00098 23.499s5.5 16.666 12.5 21.999s16.167 7.33301 27.5 6c12.667 -1.33301 23.667 -5.5 33 -12.5s13.666 -14.833 12.999 -23.5c-1.33301 -8 -7 -14.833 -17 -20.5s-21.333 -7.83398 -34 -6.50098zM543.998 27.0117
c-9.33301 1.33301 -16.668 4.66895 -22.001 10.002s-7.66602 12 -6.99902 20s4.16699 14.167 10.5 18.5s14.166 6.16602 23.499 5.49902c10.667 -1.33301 19.834 -5 27.501 -11s10.834 -12.667 9.50098 -20c-0.666992 -7.33301 -5.33398 -13.333 -14.001 -18
s-18 -6.33398 -28 -5.00098z" />
    <glyph glyph-name=".null" horiz-adv-x="0" 
 />
    <glyph glyph-name=".null" horiz-adv-x="0" 
 />
    <glyph glyph-name="uni000D" unicode="&#xd;" horiz-adv-x="250" 
 />
    <glyph glyph-name="space" unicode=" " horiz-adv-x="252" 
 />
    <glyph glyph-name="exclam" unicode="!" horiz-adv-x="283" 
d="M47 478v222h188v-222l-22 -230h-145zM140 -15c-29.333 0 -53.8311 9.33301 -73.498 28s-29.5 41.334 -29.5 68.001v7c0 12.667 2.66699 24.667 8 36s12.666 21.333 21.999 30s20.166 15.5 32.499 20.5s25.833 7.5 40.5 7.5s28.334 -2.5 41.001 -7.5
s23.834 -11.833 33.501 -20.5s17.334 -18.667 23.001 -30s8.5 -23.333 8.5 -36v-7c0 -13.333 -2.83301 -25.833 -8.5 -37.5s-13.334 -21.834 -23.001 -30.501s-20.834 -15.5 -33.501 -20.5s-26.334 -7.5 -41.001 -7.5z" />
    <glyph glyph-name="quotedbl" unicode="&#x22;" horiz-adv-x="378" 
d="M18 579v121h149v-121l-21 -195h-107zM210 579v121h149v-121l-20 -195h-108z" />
    <glyph glyph-name="numbersign" unicode="#" horiz-adv-x="818" 
d="M107 147h-93v141h138l43 134h-93v141h138l44 137h173l-43 -137h123l44 137h173l-43 -137h93v-141h-138l-43 -134h93v-141h-138l-47 -147h-173l46 147h-122l-48 -147h-173zM449 288l43 134h-124l-42 -134h123z" />
    <glyph glyph-name="dollar" unicode="$" horiz-adv-x="608" 
d="M230 21c-40 6 -78.6689 16.001 -116.002 30.001s-70 30.667 -98 50l76 136c14 -10 30.333 -19.333 49 -28s38.334 -16 59.001 -22s41.667 -10.833 63 -14.5s41.333 -5.5 60 -5.5c56 0 84 12.667 84 38c0 14 -9.66699 26.333 -29 37s-52 22 -98 34
c-44 11.333 -81.5 23.666 -112.5 36.999s-56.333 28.166 -76 44.499s-34 34.5 -43 54.5s-13.5 42.333 -13.5 67c0 51.333 16.667 94.333 50 129s78.333 57.667 135 69v98h144v-95c35.333 -4.66699 69.833 -12.667 103.5 -24s64.5 -26 92.5 -44l-64 -132
c-32 17.333 -65.667 30.833 -101 40.5s-69 14.5 -101 14.5c-56 0 -84 -13.667 -84 -41c0 -10 3.5 -18.333 10.5 -25s16.333 -12.667 28 -18s25.334 -10.166 41.001 -14.499l50.5 -13.5c44.667 -10.667 82.667 -22.5 114 -35.5s57 -27.5 77 -43.5s34.5 -34 43.5 -54
s13.5 -42.667 13.5 -68c0 -55.333 -19.167 -101 -57.5 -137s-90.5 -58 -156.5 -66v-94h-144v96z" />
    <glyph glyph-name="percent" unicode="%" horiz-adv-x="820" 
d="M183 336c-22.667 0 -43.5 4.33301 -62.5 13s-35.5 20.834 -49.5 36.501s-25 34.334 -33 56.001s-12 45.5 -12 71.5v17c0 26 4 49.833 12 71.5s19 40.334 33 56.001s30.5 27.834 49.5 36.501s39.833 13 62.5 13h24c22.667 0 43.5 -4.33301 62.5 -13
s35.5 -20.834 49.5 -36.501s25 -34.334 33 -56.001s12 -45.5 12 -71.5v-17c0 -26 -4 -49.833 -12 -71.5s-19 -40.334 -33 -56.001s-30.5 -27.834 -49.5 -36.501s-39.833 -13 -62.5 -13h-24zM586 703h177l-528 -703h-177zM197 458c11.333 0 21.166 5.16699 29.499 15.5
s12.5 24.833 12.5 43.5v9c0 18.667 -4.16699 33.167 -12.5 43.5s-18.166 15.5 -29.499 15.5h-4c-11.333 0 -21.166 -5.16699 -29.499 -15.5s-12.5 -24.833 -12.5 -43.5v-9c0 -18.667 4.16699 -33.167 12.5 -43.5s18.166 -15.5 29.499 -15.5h4zM614 -8
c-22.667 0 -43.667 4.33301 -63 13s-36 20.834 -50 36.501s-25 34.334 -33 56.001s-12 45.5 -12 71.5v17c0 26 4 49.833 12 71.5s19 40.334 33 56.001s30.667 27.834 50 36.501s40.333 13 63 13h23c22.667 0 43.667 -4.33301 63 -13s36 -20.834 50 -36.501
s24.833 -34.334 32.5 -56.001s11.5 -45.5 11.5 -71.5v-17c0 -26 -3.83301 -49.833 -11.5 -71.5s-18.5 -40.334 -32.5 -56.001s-30.667 -27.834 -50 -36.501s-40.333 -13 -63 -13h-23zM628 114c11.333 0 21 5.16699 29 15.5s12 24.833 12 43.5v9c0 18.667 -4 33.167 -12 43.5
s-17.667 15.5 -29 15.5h-5c-11.333 0 -21 -5.16699 -29 -15.5s-12 -24.833 -12 -43.5v-9c0 -18.667 4 -33.167 12 -43.5s17.667 -15.5 29 -15.5h5z" />
    <glyph glyph-name="ampersand" unicode="&#x26;" horiz-adv-x="772" 
d="M309 -14c-39.333 0 -75.002 4.6709 -107.002 14.0039s-59.167 22.833 -81.5 40.5s-39.666 38.667 -51.999 63s-18.5 51.5 -18.5 81.5c0 45.333 13.167 86 39.5 122s61.166 63.333 104.499 82l-4 5c-14 15.333 -25.333 29.166 -34 41.499s-15.5 24.166 -20.5 35.499
s-8.33301 22.333 -10 33s-2.5 22 -2.5 34c0 26.667 4.83301 50.834 14.5 72.501s23.334 40.167 41.001 55.5s39 27.166 64 35.499s52.5 12.5 82.5 12.5s57.333 -4 82 -12s45.834 -19.5 63.501 -34.5s31.167 -33.167 40.5 -54.5s14 -45 14 -71
c0 -36 -9.83301 -69.5 -29.5 -100.5s-47.167 -57.167 -82.5 -78.5l100 -111c10.667 28.667 16 58.667 16 90v34h137v-62c0 -32.667 -4.33301 -63.834 -13 -93.501s-20.667 -56.834 -36 -81.501l125 -139h-196l-35 39c-28 -16.667 -59 -29.667 -93 -39s-70.333 -14 -109 -14z
M330.998 456.004c11.333 8 20.834 15.5 28.501 22.5s13.834 13.833 18.501 20.5s8 13.667 10 21s3 15.333 3 24c0 17.333 -5.5 30.833 -16.5 40.5s-25.5 14.5 -43.5 14.5c-18.667 0 -33.334 -4.83301 -44.001 -14.5s-16 -22.5 -16 -38.5c0 -8 1.5 -15.333 4.5 -22
s7.16699 -13.5 12.5 -20.5s11.666 -14.333 18.999 -22zM283.999 289.004c-26 -9.33301 -46 -21.5 -60 -36.5s-21 -33.167 -21 -54.5c0 -26 10.5 -47 31.5 -63s49.5 -24 85.5 -24c38.667 0 72 9 100 27z" />
    <glyph glyph-name="quotesingle" unicode="'" horiz-adv-x="206" 
d="M29 579v121h149v-121l-21 -195h-107z" />
    <glyph glyph-name="parenleft" unicode="(" horiz-adv-x="294" 
d="M172 -186c-50.667 68 -88.333 141.504 -113 220.504s-37 159.833 -37 242.5c0 83.333 12.5 165.166 37.5 245.499s62.5 154.833 112.5 223.5l116 -64c-32 -62.667 -55.833 -128.334 -71.5 -197.001s-23.5 -138.334 -23.5 -209.001
c0 -68.667 7.83301 -136.834 23.5 -204.501s39.5 -132.5 71.5 -194.5z" />
    <glyph glyph-name="parenright" unicode=")" horiz-adv-x="294" 
d="M6 -123c32 62 56.001 126.829 72.001 194.496s24 135.834 24 204.501c0 70.667 -8 140.334 -24 209.001s-40 134.334 -72 197.001l116 64c50 -68.667 87.5 -143.167 112.5 -223.5s37.5 -162.166 37.5 -245.499c0 -82.667 -12.333 -163.5 -37 -242.5
s-62.334 -152.5 -113.001 -220.5z" />
    <glyph glyph-name="asterisk" unicode="*" horiz-adv-x="450" 
d="M172 395l3 16l-12 -11l-87 -51l-54 92l87 50l17 6l-16 5l-88 51l54 92l86 -51l14 -12l-4 17v101h106v-100l-4 -18l14 12l86 51l54 -92l-88 -51l-16 -5l17 -6l87 -50l-54 -92l-87 51l-13 11l4 -17v-100h-106v101z" />
    <glyph glyph-name="plus" unicode="+" horiz-adv-x="594" 
d="M226 256h-184v138h184v196h141v-196h185v-138h-185v-196h-141v196z" />
    <glyph glyph-name="comma" unicode="," horiz-adv-x="269" 
d="M84 174h163l-110 -312h-130z" />
    <glyph glyph-name="hyphen" unicode="-" horiz-adv-x="450" 
d="M65 313h320v-138h-320v138z" />
    <glyph glyph-name="period" unicode="." horiz-adv-x="269" 
d="M134 -15c-14.667 0 -28.334 2.5 -41.001 7.5s-23.667 11.833 -33 20.5s-16.666 18.834 -21.999 30.501s-8 24.167 -8 37.5v7c0 12.667 2.66699 24.667 8 36s12.666 21.333 21.999 30s20.333 15.5 33 20.5s26.334 7.5 41.001 7.5s28.334 -2.5 41.001 -7.5
s23.834 -11.833 33.501 -20.5s17.167 -18.667 22.5 -30s8 -23.333 8 -36v-7c0 -13.333 -2.66699 -25.833 -8 -37.5s-12.833 -21.834 -22.5 -30.501s-20.834 -15.5 -33.501 -20.5s-26.334 -7.5 -41.001 -7.5z" />
    <glyph glyph-name="slash" unicode="/" horiz-adv-x="338" 
d="M169 720h163l-163 -831h-163z" />
    <glyph glyph-name="zero" unicode="0" horiz-adv-x="634" 
d="M317 -14c-44.667 0 -84.834 8.5 -120.501 25.5s-66.167 41.333 -91.5 73s-44.833 69.834 -58.5 114.501s-20.5 95 -20.5 151s6.83301 106.333 20.5 151s33.167 82.834 58.5 114.501s55.833 56 91.5 73s75.834 25.5 120.501 25.5s84.834 -8.5 120.501 -25.5
s66.167 -41.333 91.5 -73s44.833 -69.834 58.5 -114.501s20.5 -95 20.5 -151s-6.83301 -106.333 -20.5 -151s-33.167 -82.834 -58.5 -114.501s-55.833 -56 -91.5 -73s-75.834 -25.5 -120.501 -25.5zM317 140c37.333 0 66 18.167 86 54.5s30 88.166 30 155.499
s-10 119.166 -30 155.499s-48.667 54.5 -86 54.5s-66.166 -18.167 -86.499 -54.5s-30.5 -88.166 -30.5 -155.499s10.167 -119.166 30.5 -155.499s49.166 -54.5 86.499 -54.5z" />
    <glyph glyph-name="one" unicode="1" horiz-adv-x="406" 
d="M341 700l-0.000976562 -700.002h-169v447c-19.333 -11.333 -41.666 -20.166 -66.999 -26.499s-53 -9.5 -83 -9.5v133c50 2.66699 89.667 17.334 119 44.001s44 64 44 112h156z" />
    <glyph glyph-name="two" unicode="2" horiz-adv-x="545" 
d="M20 120c17.333 10 37.3311 23.0029 59.998 39.0029s46.167 33.833 70.5 53.5s48 41 71 64s43.667 46.333 62 70s33.166 47.667 44.499 72s17 47.833 17 70.5s-6.5 40.5 -19.5 53.5s-30.167 19.5 -51.5 19.5c-22 0 -41.667 -8.33301 -59 -25s-28 -44.334 -32 -83.001
l-171 29c4.66699 35.333 14.334 67.166 29.001 95.499s33.5 52.5 56.5 72.5s49.5 35.333 79.5 46s62.333 16 97 16c32.667 0 63.834 -4.83301 93.501 -14.5s55.834 -23.667 78.501 -42s40.667 -41 54 -68s20 -57.833 20 -92.5c0 -38 -7.33301 -73.5 -22 -106.5
s-33.667 -63.833 -57 -92.5s-49.5 -55.334 -78.5 -80.001s-57.5 -47 -85.5 -67h256v-150h-513v120z" />
    <glyph glyph-name="three" unicode="3" horiz-adv-x="584" 
d="M287 -13c-29.333 0 -58.1689 3.83398 -86.502 11.501s-54.5 19.334 -78.5 35.001s-45.167 35.167 -63.5 58.5s-32.5 50.666 -42.5 81.999l152 40c10.667 -22 25.334 -39.833 44.001 -53.5s42.667 -20.5 72 -20.5s53.5 8.83301 72.5 26.5s28.5 42.5 28.5 74.5
c0 29.333 -8.33301 52.833 -25 70.5s-39.667 26.5 -69 26.5c-19.333 0 -37.166 -2.83301 -53.499 -8.5s-30.833 -12.834 -43.5 -21.501l-51 92l162 149h-255v151h464v-120l-151 -129h3c29.333 -2 55.833 -8.66699 79.5 -20s44 -26.333 61 -45s30.167 -40.667 39.5 -66
s14 -53 14 -83c0 -40 -7.5 -75.5 -22.5 -106.5s-35.167 -57.167 -60.5 -78.5s-54.5 -37.5 -87.5 -48.5s-67.167 -16.5 -102.5 -16.5z" />
    <glyph glyph-name="four" unicode="4" horiz-adv-x="588" 
d="M335 113h-323v121l262 466h222v-448h74v-139h-74v-113h-161v113zM335 252v280h-15l-149 -266v-14h164z" />
    <glyph glyph-name="five" unicode="5" horiz-adv-x="588" 
d="M292 -13c-30 0 -59.333 3.83398 -88 11.501s-55.167 19.334 -79.5 35.001s-45.833 35.167 -64.5 58.5s-33 50.666 -43 81.999l159 39c10 -22 24.5 -39.667 43.5 -53s42.5 -20 70.5 -20c32 0 56.667 9 74 27s26 43 26 75c0 33.333 -9.83301 57.5 -29.5 72.5
s-43.167 22.5 -70.5 22.5c-22 0 -42.5 -3.83301 -61.5 -11.5s-35.5 -18.167 -49.5 -31.5l-125 44l43 362h418v-151h-292l-14 -120c36 23.333 79 35 129 35c32.667 0 62.667 -4.83301 90 -14.5s50.833 -23.834 70.5 -42.501s35 -41.667 46 -69s16.5 -58.333 16.5 -93
c0 -38 -6.5 -72.667 -19.5 -104s-31.333 -58.5 -55 -81.5s-52 -40.833 -85 -53.5s-69.5 -19 -109.5 -19z" />
    <glyph glyph-name="six" unicode="6" horiz-adv-x="617" 
d="M416 505c-20 46.667 -51.9971 70 -95.9971 70c-36.667 0 -65.834 -14.167 -87.501 -42.5s-33.834 -67.5 -36.501 -117.5c-0.666992 -3.33301 -1 -6.5 -1 -9.5v-9.5c23.333 19.333 49.833 33.833 79.5 43.5s59.5 14.5 89.5 14.5c33.333 0 64.166 -5.16699 92.499 -15.5
s52.666 -25.166 72.999 -44.499s36.333 -42.5 48 -69.5s17.5 -57.5 17.5 -91.5c0 -36 -6.83301 -69.167 -20.5 -99.5s-32.667 -56.333 -57 -78s-53.5 -38.667 -87.5 -51s-71 -18.5 -111 -18.5c-46 0 -87 8.16699 -123 24.5s-66.667 39.833 -92 70.5
s-44.666 68.167 -57.999 112.5s-20 94.833 -20 151.5c0 57.333 6.83301 108.666 20.5 153.999s33.167 84 58.5 116s56.166 56.5 92.499 73.5s77.5 25.5 123.5 25.5c62 0 115.333 -15.167 160 -45.5s76.334 -72.833 95.001 -127.5zM201.003 249
c6.66699 -36 20 -64.001 40 -84.001s46 -30 78 -30s58 9.83301 78 29.5s30 44.5 30 74.5c0 28.667 -9.83301 51.5 -29.5 68.5s-44.167 25.5 -73.5 25.5c-24.667 0 -48.167 -5.16699 -70.5 -15.5s-40.166 -25.166 -53.499 -44.499c-0.666992 -4 -0.833984 -8 -0.500977 -12
s0.833008 -8 1.5 -12z" />
    <glyph glyph-name="seven" unicode="7" horiz-adv-x="499" 
d="M305 532v13h-290v155h472v-124l-221 -576h-189z" />
    <glyph glyph-name="eight" unicode="8" horiz-adv-x="587" 
d="M293 -14c-42 0 -80.0029 5 -114.003 15s-62.833 24.167 -86.5 42.5s-42 40.333 -55 66s-19.5 54.167 -19.5 85.5c0 41.333 10.833 77.166 32.5 107.499s52.167 54.166 91.5 71.499c-31.333 15.333 -55.166 36.166 -71.499 62.499s-24.5 56.5 -24.5 90.5
c0 28.667 5.66699 54.5 17 77.5s27.833 42.667 49.5 59s47.667 28.833 78 37.5s64.5 13 102.5 13s72.333 -4.33301 103 -13s56.834 -21.167 78.501 -37.5s38.167 -36 49.5 -59s17 -48.833 17 -77.5c0 -34 -8.16699 -64.167 -24.5 -90.5s-40.166 -47.166 -71.499 -62.499
c39.333 -17.333 69.833 -41.166 91.5 -71.499s32.5 -66.166 32.5 -107.499c0 -31.333 -6.5 -59.833 -19.5 -85.5s-31.5 -47.667 -55.5 -66s-53 -32.5 -87 -42.5s-72 -15 -114 -15zM292.997 432c28.667 0 51 6.16699 67 18.5s24 30.166 24 53.499
c0 22.667 -8 40.167 -24 52.5s-38.333 18.5 -67 18.5c-28 0 -50 -6.16699 -66 -18.5s-24 -29.833 -24 -52.5c0 -23.333 8 -41.166 24 -53.499s38 -18.5 66 -18.5zM292.997 133c36 0 63.333 7.66699 82 23s28 36.333 28 63s-9.33301 47.5 -28 62.5s-46 22.5 -82 22.5
c-34.667 0 -61.667 -7.5 -81 -22.5s-29 -35.833 -29 -62.5s9.66699 -47.667 29 -63s46.333 -23 81 -23z" />
    <glyph glyph-name="nine" unicode="9" horiz-adv-x="617" 
d="M201.025 195.031c19.999 -46.6641 51.9961 -69.9922 95.9932 -69.9922c36.665 0 65.8301 14.166 87.4951 42.4971c21.665 28.332 33.8311 67.4961 36.498 117.493c0.666992 3.33301 1 6.49902 1 9.49805v9.5c-23.332 -19.332 -49.8301 -33.8311 -79.4951 -43.498
c-29.665 -9.66602 -59.4961 -14.499 -89.4941 -14.499c-33.3311 0 -64.1621 5.16602 -92.4932 15.499c-28.332 10.333 -52.6641 25.166 -72.9961 44.499c-20.332 19.332 -36.3311 42.4971 -47.9971 69.4951c-11.666 26.999 -17.499 57.4971 -17.499 91.4951
c0 35.9971 6.83301 69.1611 20.499 99.4922c13.666 30.332 32.665 56.3311 56.9961 77.9961c24.332 21.665 53.4971 38.6641 87.4951 50.9971s70.9961 18.499 110.993 18.499c45.9971 0 86.9941 -8.16602 122.991 -24.498c35.998 -16.333 66.6631 -39.832 91.9941 -70.4971
c25.332 -30.665 44.6641 -68.1631 57.9971 -112.494s19.999 -94.8281 19.999 -151.491c0 -57.3301 -6.83301 -108.66 -20.499 -153.991s-33.165 -83.9951 -58.4961 -115.993c-25.332 -31.998 -56.1641 -56.4961 -92.4951 -73.4951s-77.4951 -25.498 -123.492 -25.498
c-61.9961 0 -115.326 15.166 -159.99 45.4971s-76.3291 72.8281 -94.9941 127.491zM416.012 451.02c-6.66699 35.9971 -19.999 63.9951 -39.998 83.9941s-45.9971 29.998 -77.9951 29.998s-57.9961 -9.83301 -77.9951 -29.498s-29.998 -44.4971 -29.998 -74.4951
c0 -28.665 9.83301 -51.4971 29.498 -68.4961s44.1631 -25.498 73.4941 -25.498c24.665 0 48.1641 5.16602 70.4961 15.499s40.1641 25.165 53.4961 44.4971c0.666992 4 0.833984 8 0.500977 11.999c-0.333008 4 -0.833008 8 -1.49902 12z" />
    <glyph glyph-name="colon" unicode=":" horiz-adv-x="269" 
d="M134 -15c-14.667 0 -28.334 2.5 -41.001 7.5s-23.667 11.833 -33 20.5s-16.666 18.834 -21.999 30.501s-8 24.167 -8 37.5v7c0 12.667 2.66699 24.667 8 36s12.666 21.333 21.999 30s20.333 15.5 33 20.5s26.334 7.5 41.001 7.5s28.334 -2.5 41.001 -7.5
s23.834 -11.833 33.501 -20.5s17.167 -18.667 22.5 -30s8 -23.333 8 -36v-7c0 -13.333 -2.66699 -25.833 -8 -37.5s-12.833 -21.834 -22.5 -30.501s-20.834 -15.5 -33.501 -20.5s-26.334 -7.5 -41.001 -7.5zM134 270c-14.667 0 -28.334 2.5 -41.001 7.5
s-23.667 11.833 -33 20.5s-16.666 18.834 -21.999 30.501s-8 24.167 -8 37.5v7c0 12.667 2.66699 24.667 8 36s12.666 21.333 21.999 30s20.333 15.5 33 20.5s26.334 7.5 41.001 7.5s28.334 -2.5 41.001 -7.5s23.834 -11.833 33.501 -20.5s17.167 -18.667 22.5 -30
s8 -23.333 8 -36v-7c0 -13.333 -2.66699 -25.833 -8 -37.5s-12.833 -21.834 -22.5 -30.501s-20.834 -15.5 -33.501 -20.5s-26.334 -7.5 -41.001 -7.5z" />
    <glyph glyph-name="semicolon" unicode=";" horiz-adv-x="285" 
d="M152 270c-14.667 0 -28.334 2.5 -41.001 7.5s-23.667 11.833 -33 20.5s-16.833 18.834 -22.5 30.501s-8.5 24.167 -8.5 37.5v7c0 13.333 2.83301 25.666 8.5 36.999s13.167 21.333 22.5 30s20.333 15.5 33 20.5s26.334 7.5 41.001 7.5c14 0 27.333 -2.5 40 -7.5
s23.834 -11.833 33.501 -20.5s17.167 -18.667 22.5 -30s8 -23.666 8 -36.999v-7c0 -13.333 -2.66699 -25.833 -8 -37.5s-12.833 -21.834 -22.5 -30.501s-20.834 -15.5 -33.501 -20.5s-26 -7.5 -40 -7.5zM84 174h163l-110 -312h-130z" />
    <glyph glyph-name="less" unicode="&#x3c;" horiz-adv-x="549" 
d="M34 265v120l465 233v-154l-296 -139l296 -141v-154z" />
    <glyph glyph-name="equal" unicode="=" horiz-adv-x="604" 
d="M47 504h510v-138h-510v138zM47 284h510v-138h-510v138z" />
    <glyph glyph-name="greater" unicode="&#x3e;" horiz-adv-x="549" 
d="M50 184l296 141l-296 139v154l465 -233v-120l-465 -235v154z" />
    <glyph glyph-name="question" unicode="?" horiz-adv-x="536" 
d="M187 248l-0.00195312 35.9951c0 25.333 5.83301 49 17.5 71s30.834 44.667 57.501 68l47.5 42c15 13.333 22.5 28.333 22.5 45c0 15.333 -6.16699 27.333 -18.5 36s-28.833 13 -49.5 13c-28 0 -50.5 -7.66699 -67.5 -23s-25.833 -34.666 -26.5 -57.999l-149 22
c0 32 6.33301 61.5 19 88.5s30.334 50.333 53.001 70s49.667 34.834 81 45.501s66 16 104 16c34.667 0 66.5 -4.66699 95.5 -14s54 -22.166 75 -38.499s37.333 -35.833 49 -58.5s17.5 -47.667 17.5 -75c0 -28.667 -7 -55.167 -21 -79.5s-38.667 -50.166 -74 -77.499
l-30.5 -24c-10.333 -8 -19.833 -16.5 -28.5 -25.5s-15.667 -18.667 -21 -29s-8 -22.166 -8 -35.499v-15h-145zM264.998 -15.0049c-14 0 -27.3311 2.50195 -39.998 7.50195s-23.667 11.833 -33 20.5s-16.666 18.834 -21.999 30.501s-8 24.167 -8 37.5v7
c0 13.333 2.66699 25.666 8 36.999s12.666 21.166 21.999 29.499s20.333 15 33 20s26 7.5 40 7.5s27.5 -2.5 40.5 -7.5s24.333 -11.833 34 -20.5s17.334 -18.667 23.001 -30s8.5 -23.333 8.5 -36v-7c0 -13.333 -2.83301 -25.833 -8.5 -37.5s-13.334 -21.834 -23.001 -30.501
s-20.834 -15.5 -33.501 -20.5s-26.334 -7.5 -41.001 -7.5z" />
    <glyph glyph-name="at" unicode="@" horiz-adv-x="1006" 
d="M504 -194c-66 0 -127.496 11.6699 -184.496 35.0029s-106.5 55.5 -148.5 96.5s-75.167 89.167 -99.5 144.5s-36.5 114.666 -36.5 177.999c0 64 12.167 123.5 36.5 178.5s57.833 103 100.5 144s93 73.167 151 96.5s120.333 35 187 35c66 0 127.167 -11.333 183.5 -34
s105.166 -53.834 146.499 -93.501s73.666 -86.667 96.999 -141s35 -113.5 35 -177.5c0 -40 -5 -76 -15 -108s-24 -59.167 -42 -81.5s-40 -39.666 -66 -51.999s-55 -18.5 -87 -18.5c-33.333 0 -62 6 -86 18s-42.667 29.333 -56 52c-40.667 -46.667 -93 -70 -157 -70h-4
c-30.667 0 -59.167 5.83301 -85.5 17.5s-49 28 -68 49s-33.833 46 -44.5 75s-16 60.5 -16 94.5v26c0 34 5.33301 65.5 16 94.5s25.5 54 44.5 75s41.333 37.333 67 49s53.834 17.5 84.501 17.5h4c30 0 58.167 -5.66699 84.5 -17s49.166 -27.666 68.499 -48.999l10 29
c3.33301 10 7.33301 19.667 12 29h107v-295c0 -27.333 4 -48 12 -62s19 -21 33 -21c22.667 0 40.334 13.167 53.001 39.5s19 61.166 19 104.499c0 50 -8.5 96 -25.5 138s-40.833 78 -71.5 108s-67.334 53.333 -110.001 70s-89.334 25 -140.001 25
c-52 0 -100.167 -8.66699 -144.5 -26s-82.833 -41.333 -115.5 -72s-58.167 -66.834 -76.5 -108.501s-27.5 -87.167 -27.5 -136.5c0 -48.667 9.16699 -94.334 27.5 -137.001s43.666 -79.5 75.999 -110.5s70.666 -55.5 114.999 -73.5s92.166 -27 143.499 -27
c76.667 0 142.334 19.333 197.001 58l52 -92c-37.333 -24.667 -77.666 -43.167 -120.999 -55.5s-88.333 -18.5 -135 -18.5zM499.004 120.003c28 0 50.167 11.833 66.5 35.5s24.5 54.5 24.5 92.5v16c0 38 -8.33301 68.833 -25 92.5s-39 35.5 -67 35.5h-2
c-28 0 -50.833 -11.833 -68.5 -35.5s-26.5 -54.5 -26.5 -92.5v-16c0 -37.333 9 -68 27 -92s41 -36 69 -36h2z" />
    <glyph glyph-name="A" unicode="A" horiz-adv-x="661" 
d="M217 700h228l226 -700h-193l-36 128h-224l-36 -128h-193zM407 269l-70 239h-13l-70 -239h153z" />
    <glyph glyph-name="B" unicode="B" horiz-adv-x="648" 
d="M65 700l286 0.000976562c35.333 0 67.5 -4 96.5 -12s54 -19.5 75 -34.5s37.333 -32.833 49 -53.5s17.5 -44 17.5 -70v-13c0 -30.667 -7.16699 -58 -21.5 -82s-37.833 -44.667 -70.5 -62c40 -16.667 70.333 -39.834 91 -69.501s31 -63.5 31 -101.5v-14
c0 -28.667 -5.66699 -54.5 -17 -77.5s-27.5 -42.667 -48.5 -59s-46.5 -29 -76.5 -38s-63.333 -13.5 -100 -13.5h-312v700zM340 415.001c22 0 40.668 5.83301 56.001 17.5s23 27.167 23 46.5v12c0 18 -6.83301 32.333 -20.5 43s-31.834 16 -54.501 16h-105v-135h101z
M366.001 150.001c22 0 40.499 5.83203 55.499 17.499s22.5 26.834 22.5 45.501v12c0 20.667 -7.66699 37.167 -23 49.5s-34.666 18.5 -57.999 18.5h-124v-143h127z" />
    <glyph glyph-name="C" unicode="C" horiz-adv-x="689" 
d="M379 -14c-50.667 0 -97.168 8.6709 -139.501 26.0039s-78.666 41.666 -108.999 72.999s-54 68.666 -71 111.999s-25.5 91 -25.5 143v19c0 51.333 8.5 98.666 25.5 141.999s40.667 80.666 71 111.999s66.5 55.833 108.5 73.5s88 26.5 138 26.5h5
c58.667 0 112.334 -12.833 161.001 -38.5s88.667 -62.5 120 -110.5l-130 -101c-17.333 29.333 -37.833 52.166 -61.5 68.499s-51.167 24.5 -82.5 24.5h-9c-22.667 0 -43.667 -4.66699 -63 -14s-36 -22.666 -50 -39.999s-25 -38 -33 -62s-12 -51 -12 -81v-19
c0 -30 3.83301 -57 11.5 -81s18.5 -44.5 32.5 -61.5s30.667 -30.167 50 -39.5s40.666 -14 63.999 -14h12c31.333 0 59 8.16699 83 24.5s44.333 38.5 61 66.5l129 -100c-30.667 -48 -70 -84.833 -118 -110.5s-102 -38.5 -162 -38.5h-6z" />
    <glyph glyph-name="D" unicode="D" horiz-adv-x="708" 
d="M65 700l244 -0.000976562c55.333 0 105.5 -8 150.5 -24s83.333 -38.833 115 -68.5s56.167 -65.167 73.5 -106.5s26 -87.666 26 -138.999v-20c0 -50.667 -8.66699 -97 -26 -139s-41.833 -78 -73.5 -108s-70 -53.333 -115 -70s-95.167 -25 -150.5 -25h-244v700z
M312 155.999c55.333 0 98.166 16.833 128.499 50.5s45.5 79.167 45.5 136.5v20c0 56 -15.167 100.167 -45.5 132.5s-73.166 48.5 -128.499 48.5h-65v-388h65z" />
    <glyph glyph-name="E" unicode="E" horiz-adv-x="559" 
d="M65 700h434v-156h-253v-122h233v-146h-233v-120h263v-156h-444v700z" />
    <glyph glyph-name="F" unicode="F" horiz-adv-x="533" 
d="M65 700h424v-156h-243v-139h223v-146h-223v-259h-181v700z" />
    <glyph glyph-name="G" unicode="G" horiz-adv-x="738" 
d="M342 -12c-46.667 0 -88.9971 8.33594 -126.997 25.0029s-70.333 40.334 -97 71.001s-47.334 67.667 -62.001 111s-22 91.333 -22 144v19c0 52.667 8.33301 100.667 25 144s40.167 80.666 70.5 111.999s66.833 55.666 109.5 72.999s89.667 26 141 26h12
c58.667 0 112.834 -13.5 162.501 -40.5s91.5 -66.5 125.5 -118.5l-141 -90c-35.333 63.333 -83 95 -143 95h-12c-24.667 0 -47 -4.83301 -67 -14.5s-37 -23.334 -51 -41.001s-24.833 -38.834 -32.5 -63.501s-11.5 -51.667 -11.5 -81v-21c0 -60.667 14.667 -108.667 44 -144
s70 -53 122 -53h12c17.333 0 33.833 2.66699 49.5 8s29.167 12.333 40.5 21s20.333 18.167 27 28.5s10 20.833 10 31.5v11h-130v145h293v-386h-129c-4 6.66699 -7.83301 17.5 -11.5 32.5s-5.83398 29.5 -6.50098 43.5c-6.66699 -12 -16.334 -23.333 -29.001 -34
s-27.334 -20 -44.001 -28s-34.667 -14.333 -54 -19s-39 -7 -59 -7h-15z" />
    <glyph glyph-name="H" unicode="H" horiz-adv-x="708" 
d="M65 700h182v-268h215v268h182v-700h-182v276h-215v-276h-182v700z" />
    <glyph glyph-name="I" unicode="I" horiz-adv-x="311" 
d="M65 700h181v-700h-181v700z" />
    <glyph glyph-name="J" unicode="J" horiz-adv-x="397" 
d="M129 -16c-34.667 0 -68.667 5 -102 15v168c8 -5.33301 17.167 -9.83301 27.5 -13.5s21.5 -5.5 33.5 -5.5c23.333 0 40.5 6.5 51.5 19.5s16.5 31.167 16.5 54.5v478h182v-508c0 -70.667 -18.5 -123 -55.5 -157s-88.167 -51 -153.5 -51z" />
    <glyph glyph-name="K" unicode="K" horiz-adv-x="666" 
d="M65 700h182v-285h9l195 285h202l-244 -322l257 -378h-212l-198 320h-9v-320h-182v700z" />
    <glyph glyph-name="L" unicode="L" horiz-adv-x="511" 
d="M65 700h181v-544h237v-156h-418v700z" />
    <glyph glyph-name="M" unicode="M" horiz-adv-x="876" 
d="M65 700h252l117 -378h9l116 378h252v-700h-176v485h-9l-124 -395h-128l-124 395h-9v-485h-176v700z" />
    <glyph glyph-name="N" unicode="N" horiz-adv-x="734" 
d="M65 700h201l224 -429h4v429h175v-700h-177l-247 474h-6v-474h-174v700z" />
    <glyph glyph-name="O" unicode="O" horiz-adv-x="767" 
d="M34 360c0 53.333 8.16699 101.836 24.5 145.503s39.5 81 69.5 112s66 55 108 72s88.667 25.5 140 25.5h14c50.667 0 97 -8.66699 139 -26s78 -41.5 108 -72.5s53.333 -68.333 70 -112s25 -91.834 25 -144.501v-20c0 -52.667 -8.33301 -100.834 -25 -144.501
s-40 -81 -70 -112s-66 -55.167 -108 -72.5s-88.333 -26 -139 -26h-14c-50.667 0 -97 8.66699 -139 26s-78 41.666 -108 72.999s-53.333 68.833 -70 112.5s-25 91.5 -25 143.5v20zM222 340.003c0 -62 14.332 -110.832 42.999 -146.499s66 -53.5 112 -53.5h12
c47.333 0 85 17.667 113 53s42 84.333 42 147v20c0 62 -14 110.667 -42 146s-65.667 53 -113 53h-12c-22.667 0 -43.667 -4.66699 -63 -14s-35.666 -22.5 -48.999 -39.5s-23.833 -37.833 -31.5 -62.5s-11.5 -52.334 -11.5 -83.001v-20z" />
    <glyph glyph-name="P" unicode="P" horiz-adv-x="621" 
d="M65 700l266.001 0.000976562c39.333 0 75.166 -5.66699 107.499 -17s59.833 -27.333 82.5 -48s40.167 -45.667 52.5 -75s18.5 -62 18.5 -98v-10c0 -36.667 -6.33301 -69.834 -19 -99.501s-30.5 -55 -53.5 -76s-50.5 -37.167 -82.5 -48.5s-67.667 -17 -107 -17h-84v-211
h-181v700zM307.001 351.001c32 0 57.667 9 77 27s29 41.667 29 71v9c0 28 -9.16699 49.667 -27.5 65s-42.833 23 -73.5 23h-71v-195h66z" />
    <glyph glyph-name="Q" unicode="Q" horiz-adv-x="768" 
d="M578 -161c-18.667 -5.33301 -37.8311 -9.66309 -57.498 -12.9961s-39.834 -5 -60.501 -5c-55.333 0 -97.333 13.167 -126 39.5s-43 65.5 -43 117.5v17c-38.667 8.66699 -73.834 23 -105.501 43s-58.667 45 -81 75s-39.5 64.167 -51.5 102.5s-18 79.833 -18 124.5v20
c0 52.667 8.33301 100.667 25 144s40 80.666 70 111.999s66 55.666 108 72.999s88.333 26 139 26h14c50.667 0 97 -8.66699 139 -26s78 -41.5 108 -72.5s53.333 -68.333 70 -112s25 -91.834 25 -144.501v-20c0 -47.333 -6.66699 -91 -20 -131s-32.333 -75.333 -57 -106
s-54.334 -55.667 -89.001 -75s-73.334 -32 -116.001 -38l1 -8c1.33301 -12 5.83301 -20.333 13.5 -25s18.167 -7 31.5 -7c6 0 12.667 0.333008 20 1s14.833 1.5 22.5 2.5s14.834 2.16699 21.501 3.5s12.334 2.66602 17.001 3.99902v-122zM223.003 340.003
c0 -62.667 14.167 -111.667 42.5 -147s65.833 -53 112.5 -53h12c46.667 0 84.167 17.667 112.5 53s42.5 84.333 42.5 147v20c0 62 -14.167 110.667 -42.5 146s-65.833 53 -112.5 53h-12c-46.667 0 -84.167 -17.667 -112.5 -53s-42.5 -84 -42.5 -146v-20z" />
    <glyph glyph-name="R" unicode="R" horiz-adv-x="655" 
d="M65 700l283 0.000976562c39.333 0 74.5 -5.16699 105.5 -15.5s57.167 -25 78.5 -44s37.833 -42.333 49.5 -70s17.5 -58.5 17.5 -92.5v-10c0 -44.667 -10.167 -84.334 -30.5 -119.001s-47.833 -59.667 -82.5 -75l158 -274h-208l-122 238h-68v-238h-181v700zM313 369.001
c34 0 60.5 8.66699 79.5 26s28.5 39.333 28.5 66v8c0 26 -9.33301 46.333 -28 61s-44.667 22 -78 22h-75v-183h73z" />
    <glyph glyph-name="S" unicode="S" horiz-adv-x="590" 
d="M299 -12c-52 0 -102.5 8.16699 -151.5 24.5s-92.833 39.166 -131.5 68.499l94 146c28.667 -25.333 61.667 -44.166 99 -56.499s71.333 -18.5 102 -18.5c52 0 78 16.667 78 50c0 13.333 -4 23.833 -12 31.5s-20.5 14.834 -37.5 21.501s-38.167 13.667 -63.5 21
s-55.666 17.666 -90.999 30.999c-20 8 -38.833 17.167 -56.5 27.5s-33.334 23.333 -47.001 39s-24.5 34.167 -32.5 55.5s-12 47 -12 77s6.16699 57.833 18.5 83.5s29.333 47.667 51 66s47 32.666 76 42.999s60.167 15.5 93.5 15.5c52 0 99.167 -7.5 141.5 -22.5
s84.833 -36.833 127.5 -65.5l-93 -143c-27.333 23.333 -56.833 40.5 -88.5 51.5s-60.167 16.5 -85.5 16.5c-22.667 0 -39.334 -4.5 -50.001 -13.5s-16 -21.167 -16 -36.5c0 -12.667 4.16699 -22.834 12.5 -30.501s20 -14.5 35 -20.5s32.833 -11.667 53.5 -17
s43 -11.666 67 -18.999c23.333 -7.33301 46.333 -16 69 -26s43 -22.833 61 -38.5s32.5 -34.834 43.5 -57.501s16.5 -50 16.5 -82c0 -33.333 -6.33301 -63.666 -19 -90.999s-30.667 -50.666 -54 -69.999s-51.666 -34.333 -84.999 -45s-71 -16 -113 -16z" />
    <glyph glyph-name="T" unicode="T" horiz-adv-x="562" 
d="M190 544h-170v156h522v-156h-170v-544h-182v544z" />
    <glyph glyph-name="U" unicode="U" horiz-adv-x="702" 
d="M352 -15c-93.333 0 -165.498 23.832 -216.498 71.499s-76.5 114.834 -76.5 201.501v442h181v-435c0 -37.333 10.833 -66.166 32.5 -86.499s48.5 -30.5 80.5 -30.5c31.333 0 57.333 10.167 78 30.5s31 49.166 31 86.499v435h181v-442c0 -44.667 -6.83301 -84 -20.5 -118
s-33.334 -62.5 -59.001 -85.5s-56.334 -40.333 -92.001 -52s-75.5 -17.5 -119.5 -17.5z" />
    <glyph glyph-name="V" unicode="V" horiz-adv-x="658" 
d="M2 700h192l131 -520h9l130 520h192l-207 -700h-240z" />
    <glyph glyph-name="W" unicode="W" horiz-adv-x="933" 
d="M10 700h184l80 -490h9l111 490h145l113 -490h8l79 490h184l-146 -700h-218l-89 397h-7l-89 -397h-218z" />
    <glyph glyph-name="X" unicode="X" horiz-adv-x="667" 
d="M208 359v7l-194 334h204l110 -219h12l109 219h204l-192 -334v-6l200 -360h-205l-116 250h-12l-112 -250h-209z" />
    <glyph glyph-name="Y" unicode="Y" horiz-adv-x="643" 
d="M231 271l-240 429h208l119 -263h8l118 263h208l-239 -429v-271h-182v271z" />
    <glyph glyph-name="Z" unicode="Z" horiz-adv-x="569" 
d="M20 134l304 403v7h-286v156h505v-135l-301 -399v-10h307v-156h-529v134z" />
    <glyph glyph-name="bracketleft" unicode="[" horiz-adv-x="393" 
d="M55 720h314v-140h-154v-596h154v-140h-314v876z" />
    <glyph glyph-name="backslash" unicode="\" horiz-adv-x="322" 
d="M12 720h142l157 -831h-142z" />
    <glyph glyph-name="bracketright" unicode="]" horiz-adv-x="392" 
d="M24 -16h149v596h-149v140h312v-876h-312v140z" />
    <glyph glyph-name="asciicircum" unicode="^" horiz-adv-x="518" 
d="M199 700h120l194 -364h-151l-93 191h-20l-93 -191h-151z" />
    <glyph glyph-name="underscore" unicode="_" horiz-adv-x="510" 
d="M35 -40h440v-109h-440v109z" />
    <glyph glyph-name="grave" unicode="`" horiz-adv-x="276" 
d="M31 745h146l58 -174h-127z" />
    <glyph glyph-name="a" unicode="a" horiz-adv-x="567" 
d="M201 -12c-25.333 0 -48.6621 3.66699 -69.9951 11s-39.833 17.666 -55.5 30.999s-27.834 29.5 -36.501 48.5s-13 39.833 -13 62.5v13c0 56 23.5 98 70.5 126s120.167 42 219.5 42h35v9c0 22 -6.33301 39.5 -19 52.5s-32.334 19.5 -59.001 19.5h-4
c-23.333 0 -47.833 -3.83301 -73.5 -11.5s-52.834 -20.167 -81.501 -37.5l-63 115c31.333 19.333 67.166 34.666 107.499 45.999s81.166 17 122.499 17h11c68.667 0 122.667 -18.333 162 -55s59 -88.334 59 -155.001v-192c0 -23.333 1.66699 -45.166 5 -65.499
s7.66602 -41.833 12.999 -64.5h-160c-2.66699 8 -5.16699 16.833 -7.5 26.5s-4.16602 19.834 -5.49902 30.501c-17.333 -21.333 -39.833 -38.166 -67.5 -50.499s-57.5 -18.5 -89.5 -18.5zM249.004 114c18 0 36 4 54 12s34 19.667 48 35v69h-28
c-88.667 0 -133 -21.333 -133 -64v-5c0 -13.333 5.5 -24.5 16.5 -33.5s25.167 -13.5 42.5 -13.5z" />
    <glyph glyph-name="b" unicode="b" horiz-adv-x="628" 
d="M367 -12c-33.333 0 -63.668 5.66602 -91.001 16.999s-50.666 27.666 -69.999 48.999c-1.33301 -9.33301 -3 -18.833 -5 -28.5s-4.66699 -18.167 -8 -25.5h-138v720h174v-234c38 30.667 84 46 138 46h9c34 0 65 -6.16699 93 -18.5s51.833 -29.666 71.5 -51.999
s35 -49.333 46 -81s16.5 -66.5 16.5 -104.5v-32c0 -38 -5.5 -72.833 -16.5 -104.5s-26.333 -58.667 -46 -81s-43.5 -39.666 -71.5 -51.999s-59 -18.5 -93 -18.5h-9zM330.998 110.999c28 0 50.333 12.667 67 38s25 60 25 104v22c0 41.333 -8.33301 74 -25 98s-39 36 -67 36
h-10c-28 0 -50.333 -12 -67 -36s-25 -56.667 -25 -98v-22c0 -44 8.33301 -78.667 25 -104s39 -38 67 -38h10z" />
    <glyph glyph-name="c" unicode="c" horiz-adv-x="523" 
d="M284 -11c-38 0 -73.001 6.5 -105.001 19.5s-59.333 31 -82 54s-40.334 50.333 -53.001 82s-19 65.834 -19 102.501v29c0 36.667 6.5 70.5 19.5 101.5s30.833 57.833 53.5 80.5s49.5 40.5 80.5 53.5s64.5 19.5 100.5 19.5h9c92.667 0 166.334 -36.667 221.001 -110
l-120 -88c-15.333 25.333 -30.166 43.333 -44.499 54s-30.833 16 -49.5 16h-5c-27.333 0 -48.333 -11.333 -63 -34s-22 -56.334 -22 -101.001v-16c0 -42 8 -74.5 24 -97.5s37.333 -34.5 64 -34.5h9c34.667 0 65.667 24.333 93 73l118 -96c-26.667 -36 -58 -63 -94 -81
s-78 -27 -126 -27h-9z" />
    <glyph glyph-name="d" unicode="d" horiz-adv-x="629" 
d="M253 -12c-34 0 -65.0029 6.16797 -93.0029 18.501s-52 29.666 -72 51.999s-35.5 49.333 -46.5 81s-16.5 66.5 -16.5 104.5v32c0 38 5.5 72.833 16.5 104.5s26.5 58.667 46.5 81s44 39.666 72 51.999s59 18.5 93 18.5h8c54 0 100 -15.333 138 -46v234h174v-720h-138
c-2.66699 7.33301 -5.16699 15.833 -7.5 25.5s-4.16602 19.167 -5.49902 28.5c-19.333 -21.333 -42.666 -37.666 -69.999 -48.999s-57.666 -17 -90.999 -17h-8zM307.997 111.001c28 0 50.333 12.667 67 38s25 60 25 104v22c0 41.333 -8.33301 74 -25 98s-39 36 -67 36h-10
c-28 0 -50.5 -12 -67.5 -36s-25.5 -56.667 -25.5 -98v-22c0 -44 8.5 -78.667 25.5 -104s39.5 -38 67.5 -38h10z" />
    <glyph glyph-name="e" unicode="e" 
d="M293 -12c-40 0 -76.4971 6.33398 -109.497 19.001s-61.333 30.5 -85 53.5s-41.834 50.5 -54.501 82.5s-19 67.667 -19 107v20c0 38 6.5 73.167 19.5 105.5s31 60 54 83s50.333 41 82 54s66.5 19.5 104.5 19.5h14c35.333 0 68 -5.83301 98 -17.5s55.833 -28 77.5 -49
s38.5 -46 50.5 -75s18 -60.5 18 -94.5v-79h-351v-1c3.33301 -30 15 -53.167 35 -69.5s46 -24.5 78 -24.5h9c27.333 0 52.166 5.5 74.499 16.5s41.833 24.167 58.5 39.5l78 -111c-12.667 -10.667 -27.334 -20.834 -44.001 -30.501s-34.5 -18.167 -53.5 -25.5
s-38.333 -13 -58 -17s-39.167 -6 -58.5 -6h-18zM378.003 314.001l0.000976562 5c-0.666992 30 -8.33398 52.833 -23.001 68.5s-34 23.5 -58 23.5h-9c-24 0 -43.833 -8.33301 -59.5 -25s-26.5 -40.667 -32.5 -72h182z" />
    <glyph glyph-name="f" unicode="f" horiz-adv-x="387" 
d="M82 387h-66.001v107c9.33301 3.33301 20.166 6.16602 32.499 8.49902s23.5 4.16602 33.5 5.49902v24c0 58.667 13.833 104.334 41.5 137.001s67.5 49 119.5 49c9.33301 0 19.833 -0.5 31.5 -1.5s23.334 -2.5 35.001 -4.5s22.834 -4.16699 33.501 -6.5
s20 -5.16602 28 -8.49902v-126c-12.667 6 -25.667 10.333 -39 13s-25 4 -35 4c-19.333 0 -32.833 -5.33301 -40.5 -16s-11.5 -28.667 -11.5 -54l1 -8h122v-123h-112v-387h-174v387z" />
    <glyph glyph-name="g" unicode="g" horiz-adv-x="558" 
d="M22 344c0 27.333 6.00098 52.3311 18.001 74.998s28.5 42.5 49.5 59.5s45.833 30.167 74.5 39.5s59.667 14 93 14h36c21.333 0 42 -2 62 -6c5.33301 18 10.833 33 16.5 45s11.167 21.667 16.5 29h146l-64 -129c18 -16.667 32.167 -35.667 42.5 -57
s15.5 -44.666 15.5 -69.999v-10c0 -26.667 -6 -51.5 -18 -74.5s-28.5 -42.833 -49.5 -59.5s-45.833 -29.834 -74.5 -39.501s-59.667 -14.5 -93 -14.5h-8c-3.33301 0 -6.83301 0.166992 -10.5 0.5s-7.16699 0.5 -10.5 0.5v-46c6.66699 0.666992 12.5 1 17.5 1h18.5h12
c34 0 65.333 -3.66699 94 -11s53.5 -17.666 74.5 -30.999s37.333 -29.333 49 -48s17.5 -39 17.5 -61v-10c0 -22.667 -6 -43.334 -18 -62.001s-28.667 -34.834 -50 -48.501s-46.5 -24.334 -75.5 -32.001s-60.5 -11.5 -94.5 -11.5h-51c-34 0 -65.5 3.83301 -94.5 11.5
s-54.167 18.334 -75.5 32.001s-38 29.834 -50 48.501s-18 39.334 -18 62.001v15c0 30 10.333 56.833 31 80.5s49 41.834 85 54.501v80c-34.667 16 -62.334 38.167 -83.001 66.5s-31 60.5 -31 96.5v10zM191.001 325.998c0 -22 7.83301 -39.499 23.5 -52.499
s33.5 -19.5 53.5 -19.5h15c19.333 0 37 6.66699 53 20s24 30.666 24 51.999v15c0 22 -8 39.5 -24 52.5s-33.667 19.5 -53 19.5h-15c-20 0 -37.833 -6.5 -53.5 -19.5s-23.5 -30.5 -23.5 -52.5v-15zM192.001 -50.001c0 -12 6.66699 -22.498 20 -31.498
s31.666 -13.5 54.999 -13.5h36c23.333 0 42.166 4.66699 56.499 14s21.5 19.666 21.5 30.999v12c0 11.333 -7.16699 21.666 -21.5 30.999s-33.166 14 -56.499 14h-36c-23.333 0 -41.666 -4.5 -54.999 -13.5s-20 -19.5 -20 -31.5v-12z" />
    <glyph glyph-name="h" unicode="h" horiz-adv-x="619" 
d="M55 720l174 0.000976562v-255c22 21.333 47.333 37.833 76 49.5s59 17.5 91 17.5c56 0 99.333 -17.5 130 -52.5s46 -83.833 46 -146.5v-333h-174v294c0 33.333 -6 57.666 -18 72.999s-31 23 -57 23c-30.667 0 -54 -9.16699 -70 -27.5s-24 -44.833 -24 -79.5v-283h-174
v720z" />
    <glyph glyph-name="i" unicode="i" horiz-adv-x="285" 
d="M140 580c-28 0 -50.833 7.66699 -68.5 23s-26.5 35.666 -26.5 60.999c0 26 8.83301 46.833 26.5 62.5s40.5 23.5 68.5 23.5c30 0 54.167 -7.83301 72.5 -23.5s27.5 -36.5 27.5 -62.5c0 -25.333 -9.16699 -45.666 -27.5 -60.999s-42.5 -23 -72.5 -23zM55 520h174v-520
h-174v520z" />
    <glyph glyph-name="j" unicode="j" horiz-adv-x="292" 
d="M147 580c-29.333 0 -53 7.66699 -71 23s-27 35.666 -27 60.999c0 26 9 46.833 27 62.5s41.667 23.5 71 23.5c30 0 54.167 -7.83301 72.5 -23.5s27.5 -36.5 27.5 -62.5c0 -25.333 -9.16699 -45.666 -27.5 -60.999s-42.5 -23 -72.5 -23zM65 -211
c-16 0 -33.334 1.33203 -52.001 3.99902s-36.667 7.33398 -54 14.001v140c8.66699 -3.33301 16.834 -6 24.501 -8s16.167 -3 25.5 -3c18.667 0 32 5 40 15s12 27 12 51v518h174v-540c0 -60.667 -14.333 -107.667 -43 -141s-71 -50 -127 -50z" />
    <glyph glyph-name="k" unicode="k" horiz-adv-x="581" 
d="M55 720h174v-410h12l151 210h185l-191 -238l190 -282h-197l-138 235h-12v-235h-174v720z" />
    <glyph glyph-name="l" unicode="l" horiz-adv-x="285" 
d="M55 720h174v-720h-174v720z" />
    <glyph glyph-name="m" unicode="m" horiz-adv-x="903" 
d="M56 520l137.999 -0.00195312c3.33301 -9.33301 6.33301 -21.166 9 -35.499s4.66699 -27.166 6 -38.499c20.667 26 45.334 46.833 74.001 62.5s59.667 23.5 93 23.5h3c34 0 62.833 -7.5 86.5 -22.5s42.167 -36.5 55.5 -64.5c21.333 26.667 46.333 48 75 64s60 24 94 24h3
c52 0 92.167 -17.333 120.5 -52s42.5 -83.667 42.5 -147v-333h-174v302c0 33.333 -4.83301 56.333 -14.5 69s-25.167 19 -46.5 19h-1c-23.333 0 -42 -9.16699 -56 -27.5s-21 -44.833 -21 -79.5v-284h-174v302c0 32.667 -4.83301 55.5 -14.5 68.5s-25.167 19.5 -46.5 19.5h-2
c-23.333 0 -41.833 -9 -55.5 -27s-20.5 -44.667 -20.5 -80v-283h-174v520z" />
    <glyph glyph-name="n" unicode="n" horiz-adv-x="620" 
d="M56 520h138.001c3.33301 -10.667 6.66602 -23.667 9.99902 -39s5.33301 -28.666 6 -39.999c22 28 48.833 50.167 80.5 66.5s66.167 24.5 103.5 24.5h4c55.333 0 98.333 -17.333 129 -52s46 -83.667 46 -147v-333h-174v294c0 33.333 -6 57.666 -18 72.999
s-30.333 23 -55 23h-4c-28 0 -50.333 -10.667 -67 -32s-25 -49 -25 -83v-275h-174v520z" />
    <glyph glyph-name="o" unicode="o" horiz-adv-x="604" 
d="M297 -12c-40 0 -76.667 6.33301 -110 19s-62 30.167 -86 52.5s-42.667 49.166 -56 80.499s-20 66 -20 104v32c0 38 6.66699 72.667 20 104s32 58.166 56 80.499s52.667 39.833 86 52.5s70 19 110 19h10c40 0 76.667 -6.33301 110 -19s62 -30.167 86 -52.5
s42.667 -49.166 56 -80.499s20 -66 20 -104v-32c0 -38 -6.66699 -72.667 -20 -104s-32 -58.166 -56 -80.499s-52.667 -39.833 -86 -52.5s-70 -19 -110 -19h-10zM307 111c28 0 50.333 12.667 67 38s25 60 25 104v22c0 41.333 -8.33301 74 -25 98s-39 36 -67 36h-10
c-28 0 -50.333 -12 -67 -36s-25 -56.667 -25 -98v-22c0 -44 8.33301 -78.667 25 -104s39 -38 67 -38h10z" />
    <glyph glyph-name="p" unicode="p" horiz-adv-x="628" 
d="M55 520l138.003 -0.00195312c2.66699 -7.33301 5.16699 -16 7.5 -26s4.16602 -19.667 5.49902 -29c19.333 21.333 42.666 37.833 69.999 49.5s57.666 17.5 90.999 17.5h8c34 0 65 -6.16699 93 -18.5s52 -29.666 72 -51.999s35.5 -49.333 46.5 -81s16.5 -66.5 16.5 -104.5
v-32c0 -38 -5.5 -72.833 -16.5 -104.5s-26.5 -58.667 -46.5 -81s-44 -39.666 -72 -51.999s-59 -18.5 -93 -18.5h-8c-54 0 -100 15.333 -138 46v-234h-174v720zM331.003 110.998c28 0 50.333 12.667 67 38s25 60 25 104v22c0 41.333 -8.33301 74 -25 98s-39 36 -67 36h-10
c-28 0 -50.5 -12 -67.5 -36s-25.5 -56.667 -25.5 -98v-22c0 -44 8.5 -78.667 25.5 -104s39.5 -38 67.5 -38h10z" />
    <glyph glyph-name="q" unicode="q" horiz-adv-x="629" 
d="M400 34c-38 -30.667 -83.998 -45.998 -137.998 -45.998h-9c-34 0 -65 6.16699 -93 18.5s-52 29.666 -72 51.999s-35.5 49.333 -46.5 81s-16.5 66.5 -16.5 104.5v32c0 38 5.5 72.833 16.5 104.5s26.5 58.667 46.5 81s44 39.666 72 51.999s59 18.5 93 18.5h9
c33.333 0 63.5 -5.83301 90.5 -17.5s50.167 -28.167 69.5 -49.5c1.33301 10 3.16602 19.833 5.49902 29.5s5.16602 18.167 8.49902 25.5h138v-720h-174v234zM308.002 111.002c28 0 50.333 12.667 67 38s25 60 25 104v22c0 41.333 -8.33301 74 -25 98s-39 36 -67 36h-10
c-28 0 -50.333 -12 -67 -36s-25 -56.667 -25 -98v-22c0 -44 8.33301 -78.667 25 -104s39 -38 67 -38h10z" />
    <glyph glyph-name="r" unicode="r" horiz-adv-x="395" 
d="M55 520l137.999 0.000976562c3.33301 -10 6.5 -22.167 9.5 -36.5s4.83301 -26.833 5.5 -37.5c19.333 23.333 42.333 41.5 69 54.5s56.334 19.5 89.001 19.5h15v-161c-5.33301 2 -12.333 3.5 -21 4.5s-17 1.5 -25 1.5c-33.333 0 -59.333 -8.33301 -78 -25
s-28 -39.334 -28 -68.001v-272h-174v520z" />
    <glyph glyph-name="s" unicode="s" horiz-adv-x="491" 
d="M269 -13c-49.333 0 -94.8311 5.99805 -136.498 17.998s-80.834 29.667 -117.501 53l79 123c9.33301 -8.66699 20.666 -16.667 33.999 -24s27.5 -13.833 42.5 -19.5s30.167 -10 45.5 -13s30 -4.5 44 -4.5c36 0 54 12 54 36c0 10 -3.33301 17.167 -10 21.5
s-16.834 8.5 -30.501 12.5s-31.167 8.66699 -52.5 14s-47 13.666 -77 24.999c-14.667 5.33301 -28.667 11.833 -42 19.5s-25 17 -35 28s-18 24 -24 39s-9 32.833 -9 53.5c0 50.667 18.167 90.667 54.5 120s85.833 44 148.5 44c38.667 0 76.5 -6 113.5 -18
s70.5 -28.667 100.5 -50l-81 -114c-18 15.333 -39.5 27.666 -64.5 36.999s-49.5 14 -73.5 14c-31.333 0 -47 -10.667 -47 -32c0 -8.66699 3.16699 -15.667 9.5 -21s14.666 -10 24.999 -14s22.5 -7.5 36.5 -10.5s28.667 -6.5 44 -10.5c20 -4.66699 40.333 -10.667 61 -18
s39.334 -17.166 56.001 -29.499s30.334 -27.666 41.001 -45.999s16 -41.166 16 -68.499c0 -24.667 -4.83301 -47.167 -14.5 -67.5s-23.5 -37.666 -41.5 -51.999s-39.667 -25.5 -65 -33.5s-53.333 -12 -84 -12z" />
    <glyph glyph-name="t" unicode="t" horiz-adv-x="404" 
d="M247 -8c-24 0 -46.165 3.50098 -66.498 10.501s-37.833 17.833 -52.5 32.5s-26.167 33.334 -34.5 56.001s-12.5 49.667 -12.5 81v218h-68v114c9.33301 3.33301 20.166 6.16602 32.499 8.49902s24.166 4.16602 35.499 5.49902v122l172 20v-140h131v-130h-132v-185
c0 -25.333 4.5 -43.333 13.5 -54s22.167 -16 39.5 -16c11.333 0 25 1.33301 41 4s28.667 5 38 7v-129c-19.333 -8.66699 -42 -15 -68 -19s-49 -6 -69 -6z" />
    <glyph glyph-name="u" unicode="u" horiz-adv-x="613" 
d="M221 -12c-55.333 0 -98.167 17.333 -128.5 52s-45.5 83.667 -45.5 147v333h174v-294c0 -64 24 -96 72 -96h2c28 0 49.833 10.667 65.5 32s23.5 49 23.5 83v275h174v-520h-138c-3.33301 10 -6.5 22.5 -9.5 37.5s-4.83301 28.5 -5.5 40.5c-22 -28 -48.5 -50 -79.5 -66
s-64.833 -24 -101.5 -24h-3z" />
    <glyph glyph-name="v" unicode="v" horiz-adv-x="547" 
d="M0 520h181l88 -375h10l87 375h181l-166 -520h-215z" />
    <glyph glyph-name="w" unicode="w" horiz-adv-x="796" 
d="M11 520h171l49 -338h10l83 338h148l83 -338h10l48 338h172l-109 -520h-191l-85 310h-4l-85 -310h-191z" />
    <glyph glyph-name="x" unicode="x" horiz-adv-x="566" 
d="M170 269v4l-159 247h188l83 -158h6l82 158h185l-158 -247v-4l165 -269h-188l-90 176h-6l-89 -176h-185z" />
    <glyph glyph-name="y" unicode="y" horiz-adv-x="560" 
d="M163 -206c-18.667 0 -37.834 1.49902 -57.501 4.49902s-37.5 8.16699 -53.5 15.5v145c10.667 -7.33301 22.834 -13.333 36.501 -18s28.167 -7 43.5 -7s29.833 3.5 43.5 10.5s25.167 18.5 34.5 34.5l-208 541h178l116 -364h7l85 364h173l-172 -549
c-18 -57.333 -45.667 -101.166 -83 -131.499s-85 -45.5 -143 -45.5z" />
    <glyph glyph-name="z" unicode="z" horiz-adv-x="484" 
d="M19 119l233 265v6h-220v130h422v-119l-232 -265v-6h241v-130h-444v119z" />
    <glyph glyph-name="braceleft" unicode="{" horiz-adv-x="412" 
d="M239 -156c-38.667 0 -70.834 11.1689 -96.501 33.502s-38.5 53.5 -38.5 93.5v174c0 23.333 -6.83301 42 -20.5 56s-33.5 21 -59.5 21v120c26 0 45.833 7 59.5 21s20.5 32.667 20.5 56v174c0 40 12.833 71.167 38.5 93.5s57.834 33.5 96.501 33.5h149v-140h-53
c-26.667 0 -45.334 -5.83301 -56.001 -17.5s-16 -31.834 -16 -60.501v-119c0 -28 -7.5 -50.833 -22.5 -68.5s-35.167 -26.5 -60.5 -26.5v-12c25.333 0 45.5 -8.83301 60.5 -26.5s22.5 -40.5 22.5 -68.5v-119c0 -28.667 5.33301 -48.834 16 -60.501
s29.334 -17.5 56.001 -17.5h53v-140h-149z" />
    <glyph glyph-name="bar" unicode="|" horiz-adv-x="268" 
d="M55 720h159v-910h-159v910z" />
    <glyph glyph-name="braceright" unicode="}" horiz-adv-x="412" 
d="M24 -16l52 -0.00195312c27.333 0 46.166 5.83301 56.499 17.5s15.5 31.834 15.5 60.501v119c0 28 7.5 50.833 22.5 68.5s35.167 26.5 60.5 26.5v12c-25.333 0 -45.5 8.83301 -60.5 26.5s-22.5 40.5 -22.5 68.5v119c0 28.667 -5.16699 48.834 -15.5 60.501
s-29.166 17.5 -56.499 17.5h-52v140h148c39.333 0 71.833 -11.167 97.5 -33.5s38.5 -53.5 38.5 -93.5v-174c0 -23.333 6.83301 -42 20.5 -56s33.5 -21 59.5 -21v-120c-26 0 -45.833 -7 -59.5 -21s-20.5 -32.667 -20.5 -56v-174c0 -40 -12.833 -71.167 -38.5 -93.5
s-58.167 -33.5 -97.5 -33.5h-148v140z" />
    <glyph glyph-name="asciitilde" unicode="~" horiz-adv-x="560" 
d="M384 236c-18.667 0 -36.168 2.83203 -52.501 8.49902s-32.166 12 -47.499 19s-30.5 13.333 -45.5 19s-30.167 8.5 -45.5 8.5c-17.333 0 -33.833 -4.16699 -49.5 -12.5s-28.167 -20.166 -37.5 -35.499l-66 92c15.333 24.667 35.5 44 60.5 58s51.833 21 80.5 21
c19.333 0 37.333 -2.83301 54 -8.5s32.667 -12 48 -19s30.333 -13.333 45 -19s29.667 -8.5 45 -8.5c18 0 34.5 4.33301 49.5 13s25.167 20 30.5 34l67 -91c-13.333 -23.333 -32.333 -42.333 -57 -57s-51 -22 -79 -22z" />
    <glyph glyph-name="exclamdown" unicode="&#xa1;" horiz-adv-x="283" 
d="M141 335c-14 0 -27.333 2.5 -40 7.5s-23.834 11.833 -33.501 20.5s-17.167 18.667 -22.5 30s-8 23.333 -8 36v7c0 13.333 2.66699 25.833 8 37.5s12.833 21.834 22.5 30.501s20.834 15.5 33.501 20.5s26 7.5 40 7.5c14.667 0 28.334 -2.5 41.001 -7.5
s23.834 -11.833 33.501 -20.5s17.167 -18.834 22.5 -30.501s8 -24.167 8 -37.5v-7c0 -12.667 -2.66699 -24.667 -8 -36s-12.833 -21.333 -22.5 -30s-20.834 -15.5 -33.501 -20.5s-26.334 -7.5 -41.001 -7.5zM47 39l21 230h145l22 -230v-229h-188v229z" />
    <glyph glyph-name="cent" unicode="&#xa2;" horiz-adv-x="510" 
d="M98 -88l31.9971 120.996c-33.333 22.667 -59.166 53.334 -77.499 92.001s-27.5 83.667 -27.5 135v2c0 36.667 4.83301 70.334 14.5 101.001s23.5 57.5 41.5 80.5s39.5 41.833 64.5 56.5s52.833 24 83.5 28c4 0 9.33301 0.666992 16 2h3l34 126l138 -33l-31 -117
c18.667 -9.33301 36.334 -20.666 53.001 -33.999s31.667 -29 45 -47l-107 -90c-7.33301 16.667 -18.166 29.334 -32.499 38.001s-30.833 13 -49.5 13h-4c-29.333 0 -52.666 -11.167 -69.999 -33.5s-26 -52.166 -26 -89.499v-2c0 -38 8.66699 -68.667 26 -92s41 -35 71 -35h5
c19.333 0 36.666 5.16699 51.999 15.5s28.333 25.166 39 44.499l109 -95c-25.333 -36 -57 -63.333 -95 -82s-79.667 -28 -125 -28h-10h-4l-30 -112z" />
    <glyph glyph-name="sterling" unicode="&#xa3;" horiz-adv-x="512" 
d="M27 137c5.33301 2 11.332 3.83301 17.999 5.5s13.667 3.16699 21 4.5v147h-37v113h37v84c0 33.333 5.33301 63.666 16 90.999s25.5 50.833 44.5 70.5s42 34.834 69 45.501s56.833 16 89.5 16c40 0 77.333 -8.5 112 -25.5s65.667 -43.833 93 -80.5l-125 -91
c-10.667 29.333 -31.667 44 -63 44c-17.333 0 -32.166 -5.5 -44.499 -16.5s-18.5 -28.167 -18.5 -51.5v-86h137v-113h-137v-140h253v-154h-465v137z" />
    <glyph glyph-name="currency" unicode="&#xa4;" horiz-adv-x="560" 
d="M342 163c-18 -6 -37.998 -9 -59.998 -9c-12 0 -23.5 0.833008 -34.5 2.5s-21.167 4.5 -30.5 8.5l-69 -69l-97 97l71 70c-7.33301 20 -11 40.667 -11 62c0 22.667 3.33301 43 10 61l-78 77l99 99l77 -77c20 7.33301 41 11 63 11c11.333 0 22.166 -0.833008 32.499 -2.5
s20.166 -4.16699 29.499 -7.5l68 68l97 -97l-67 -67c7.33301 -20 11 -41.667 11 -65c0 -11.333 -0.833008 -22.5 -2.5 -33.5s-4.16699 -21.167 -7.5 -30.5l74 -74l-99 -99zM283.002 261c18.667 0 33.667 5.83301 45 17.5s17 27.167 17 46.5s-5.66699 34.833 -17 46.5
s-26.333 17.5 -45 17.5c-19.333 0 -34.833 -5.83301 -46.5 -17.5s-17.5 -27.167 -17.5 -46.5s5.83301 -34.833 17.5 -46.5s27.167 -17.5 46.5 -17.5z" />
    <glyph glyph-name="yen" unicode="&#xa5;" horiz-adv-x="643" 
d="M47 238h184v33l-17 30h-167v113h104l-160 286h208l119 -263h8l118 263h208l-159 -286h104v-113h-167l-17 -30v-33h184v-113h-184v-125h-182v125h-184v113z" />
    <glyph glyph-name="brokenbar" unicode="&#xa6;" horiz-adv-x="252" 
d="M55 720h143v-380h-143v380zM55 200h143v-390h-143v390z" />
    <glyph glyph-name="section" unicode="&#xa7;" horiz-adv-x="529" 
d="M255 713c43.333 0 82.834 -5.83398 118.501 -17.501s67.834 -28.5 96.501 -50.5l-81 -115c-13.333 15.333 -30.833 28 -52.5 38s-45.834 15 -72.501 15c-19.333 0 -35.833 -5.33301 -49.5 -16s-20.5 -23.667 -20.5 -39c0 -12 3 -22.167 9 -30.5s14.5 -15.5 25.5 -21.5
s24.167 -11.333 39.5 -16s32 -9 50 -13c23.333 -5.33301 46.333 -12.5 69 -21.5s43 -20.5 61 -34.5s32.667 -30.833 44 -50.5s17 -43.167 17 -70.5c0 -33.333 -8.5 -63 -25.5 -89s-40.5 -46.667 -70.5 -62c20.667 -16 36.667 -35.167 48 -57.5s17 -48.5 17 -78.5
c0 -29.333 -5.66699 -55.166 -17 -77.499s-26.5 -41.333 -45.5 -57s-41.333 -27.5 -67 -35.5s-52.5 -12 -80.5 -12c-43.333 0 -82.833 5.83301 -118.5 17.5s-67.834 28.5 -96.501 50.5l81 115c13.333 -15.333 30.833 -28 52.5 -38s45.834 -15 72.501 -15
c20 0 36.833 5.5 50.5 16.5s20.5 24.167 20.5 39.5c0 23.333 -11.333 40.333 -34 51s-52.334 20.334 -89.001 29.001c-23.333 5.33301 -46.333 12.5 -69 21.5s-43 20.5 -61 34.5s-32.667 31 -44 51s-17 43.667 -17 71c0 33.333 8.5 62.833 25.5 88.5s40.5 46.167 70.5 61.5
c-21.333 16 -37.5 35.167 -48.5 57.5s-16.5 48.5 -16.5 78.5c0 29.333 5.66699 55.166 17 77.499s26.5 41.333 45.5 57s41 27.5 66 35.5s51.5 12 79.5 12zM286.001 171.999c22.667 4 41.167 12.167 55.5 24.5s21.5 28.166 21.5 47.499c0 24.667 -8.5 43.5 -25.5 56.5
s-43.5 25.167 -79.5 36.5c-1.33301 0 -2.16602 0.166992 -2.49902 0.5s-1.16602 0.5 -2.49902 0.5l-10 3c-0.666992 0.666992 -1.33398 1 -2.00098 1s-1.33398 0.333008 -2.00098 1c-22.667 -4 -41.167 -12.333 -55.5 -25s-21.5 -28.667 -21.5 -48
c0 -23.333 7.66699 -41.5 23 -54.5s39 -24.5 71 -34.5c5.33301 -2 10.333 -3.66699 15 -5s9.66699 -2.66602 15 -3.99902z" />
    <glyph glyph-name="dieresis" unicode="&#xa8;" horiz-adv-x="477" 
d="M350 588c-25.333 0 -45.5 6.83301 -60.5 20.5s-22.5 32.167 -22.5 55.5s7.5 42 22.5 56s35.167 21 60.5 21s46 -7 62 -21s24 -32.667 24 -56s-8 -41.833 -24 -55.5s-36.667 -20.5 -62 -20.5zM126 588c-25.333 0 -45.833 6.83301 -61.5 20.5s-23.5 32.167 -23.5 55.5
s7.83301 42 23.5 56s36.167 21 61.5 21c23.333 0 43.166 -7 59.499 -21s24.5 -32.667 24.5 -56s-8.16699 -41.833 -24.5 -55.5s-36.166 -20.5 -59.499 -20.5z" />
    <glyph glyph-name="copyright" unicode="&#xa9;" horiz-adv-x="789" 
d="M395 -10c-52 0 -99.999 9.00098 -143.999 27.001s-82 43 -114 75s-57 70 -75 114s-27 92 -27 144c0 51.333 9.16699 98.833 27.5 142.5s43.666 81.667 75.999 114s70.5 57.666 114.5 75.999s91.333 27.5 142 27.5c52 0 100 -9 144 -27s82 -43 114 -75s57 -70 75 -114
s27 -92 27 -144s-9 -100 -27 -144s-43 -82 -75 -114s-70 -57 -114 -75s-92 -27 -144 -27zM395.001 100.001c36 0 69.167 6.33301 99.5 19s56.666 30 78.999 52s39.666 48.333 51.999 79s18.5 64 18.5 100s-6.16699 69.333 -18.5 100s-29.666 57 -51.999 79
s-48.666 39.333 -78.999 52s-63.5 19 -99.5 19s-69.333 -6.33301 -100 -19s-57.167 -30 -79.5 -52s-39.833 -48.333 -52.5 -79s-19 -64 -19 -100s6.33301 -69.333 19 -100s30.167 -57 52.5 -79s48.833 -39.333 79.5 -52s64 -19 100 -19zM399.001 167.001
c-26.667 0 -51.3311 4.83203 -73.998 14.499s-42.334 22.834 -59.001 39.501s-29.667 36.667 -39 60s-14 48.333 -14 75c0 27.333 4.5 52.333 13.5 75s21.667 42.167 38 58.5s35.666 29.166 57.999 38.499s46.5 14 72.5 14c33.333 0 64 -7.16699 92 -21.5
s49 -33.833 63 -58.5l-91 -58c-9.33301 25.333 -27.333 38 -54 38c-21.333 0 -38 -7.66699 -50 -23s-18 -36.666 -18 -63.999c0 -28 5.83301 -49.667 17.5 -65s27.834 -23 48.501 -23c13.333 0 25.833 3.83301 37.5 11.5s20.5 18.167 26.5 31.5l88 -65
c-16 -24 -37.833 -43 -65.5 -57s-57.834 -21 -90.501 -21z" />
    <glyph glyph-name="ordfeminine" unicode="&#xaa;" horiz-adv-x="286" 
d="M100 448c-24 0 -43.3311 6.66406 -57.998 19.9971s-22 31 -22 53v6c0 52.667 44.667 79 134 79h18c-1.33301 10.667 -5 17.834 -11 21.501s-14.667 5.5 -26 5.5h-2c-10 0 -21.333 -2 -34 -6s-25 -9.66699 -37 -17l-30 64c17.333 10.667 35.833 18.5 55.5 23.5
s39.167 7.5 58.5 7.5h6c32 0 57.5 -8.66699 76.5 -26s28.5 -42 28.5 -74v-90c0 -11.333 0.666992 -21.666 2 -30.999s3.66602 -19.666 6.99902 -30.999h-86c-2.66699 6.66699 -4.66699 15 -6 25c-22.667 -20 -47.334 -30 -74.001 -30zM134.002 512.997
c7.33301 0 14.5 1.83301 21.5 5.5s12.5 8.16699 16.5 13.5v23h-8c-16.667 0 -29.667 -2 -39 -6s-14 -9.66699 -14 -17v-2c0 -11.333 7.66699 -17 23 -17zM37.002 400.997h224v-95h-224v95z" />
    <glyph glyph-name="guillemotleft" unicode="&#xab;" horiz-adv-x="642" 
d="M297 269v10l140 199h180l-139 -198v-12l139 -198h-180zM35 269v10l141 199h180l-139 -198v-12l139 -198h-180z" />
    <glyph glyph-name="registered" unicode="&#xae;" horiz-adv-x="789" 
d="M395 -10c-52 0 -99.999 9.00098 -143.999 27.001s-82 43 -114 75s-57 70 -75 114s-27 92 -27 144c0 51.333 9.16699 98.833 27.5 142.5s43.666 81.667 75.999 114s70.5 57.666 114.5 75.999s91.333 27.5 142 27.5c52 0 100 -9 144 -27s82 -43 114 -75s57 -70 75 -114
s27 -92 27 -144s-9 -100 -27 -144s-43 -82 -75 -114s-70 -57 -114 -75s-92 -27 -144 -27zM395.001 100.001c36 0 69.167 6.33301 99.5 19s56.666 30 78.999 52s39.666 48.333 51.999 79s18.5 64 18.5 100s-6.16699 69.333 -18.5 100s-29.666 57 -51.999 79
s-48.666 39.333 -78.999 52s-63.5 19 -99.5 19s-69.333 -6.33301 -100 -19s-57.167 -30 -79.5 -52s-39.833 -48.333 -52.5 -79s-19 -64 -19 -100s6.33301 -69.333 19 -100s30.167 -57 52.5 -79s48.833 -39.333 79.5 -52s64 -19 100 -19zM256.001 529.001h151
c38 0 67.833 -11 89.5 -33s32.5 -51.667 32.5 -89c0 -43.333 -13.667 -76 -41 -98l65 -123h-109l-46 99h-40v-99h-102v343zM399.001 373.001c10 0 17.667 3 23 9s8 13.667 8 23c0 20 -10.333 30 -31 30h-41v-62h41z" />
    <glyph glyph-name="macron" unicode="&#xaf;" horiz-adv-x="394" 
d="M41 728h312v-120h-312v120z" />
    <glyph glyph-name="degree" unicode="&#xb0;" horiz-adv-x="382" 
d="M191 396c-22.667 0 -43.667 3.66699 -63 11s-35.833 17.833 -49.5 31.5s-24.334 30.167 -32.001 49.5s-11.5 40.666 -11.5 63.999s3.83301 44.666 11.5 63.999s18.334 35.833 32.001 49.5s30.167 24.167 49.5 31.5s40.333 11 63 11
c47.333 0 85.166 -14.167 113.499 -42.5s42.5 -66.166 42.5 -113.499s-14.167 -85.166 -42.5 -113.499s-66.166 -42.5 -113.499 -42.5zM192 503c14 0 25.333 4.5 34 13.5s13 20.833 13 35.5s-4.33301 26.5 -13 35.5s-20 13.5 -34 13.5c-14.667 0 -26.5 -4.5 -35.5 -13.5
s-13.5 -20.833 -13.5 -35.5s4.5 -26.5 13.5 -35.5s20.833 -13.5 35.5 -13.5z" />
    <glyph glyph-name="plusminus" unicode="&#xb1;" horiz-adv-x="612" 
d="M235 330h-184v138h184v162h141v-162h185v-138h-185v-152h-141v152zM561 138v-138h-510v138h510z" />
    <glyph glyph-name="twosuperior" unicode="&#xb2;" horiz-adv-x="354" 
d="M15 387c28 15.333 53.333 31.001 76 47.001s42 31.833 58 47.5s28.5 30.667 37.5 45s13.5 27.5 13.5 39.5c0 10 -3 18.167 -9 24.5s-13.667 9.5 -23 9.5c-10.667 0 -19.667 -3.83301 -27 -11.5s-11.666 -18.167 -12.999 -31.5l-118 20c5.33301 42 22 74.667 50 98
s64.667 35 110 35s81.666 -11.5 108.999 -34.5s41 -53.5 41 -91.5c0 -28.667 -8.5 -57.834 -25.5 -87.501s-41.167 -58.167 -72.5 -85.5h117v-105h-324v81z" />
    <glyph glyph-name="threesuperior" unicode="&#xb3;" horiz-adv-x="368" 
d="M186 296c-41.333 0 -77.167 8.16797 -107.5 24.501s-53.166 39.5 -68.499 69.5l96 64c14.667 -30.667 38.667 -46 72 -46c15.333 0 28 3.66699 38 11s15 17 15 29s-5.16699 21.667 -15.5 29s-23.833 11 -40.5 11c-18.667 0 -37.334 -4.33301 -56.001 -13l-35 54l88 66
h-136v105h290v-81l-76 -67c32 -6.66699 57.167 -20.834 75.5 -42.501s27.5 -48.5 27.5 -80.5c0 -40.667 -15.167 -73 -45.5 -97s-70.833 -36 -121.5 -36z" />
    <glyph glyph-name="acute" unicode="&#xb4;" horiz-adv-x="277" 
d="M42 574l58 173h146l-77 -173h-127z" />
    <glyph glyph-name="paragraph" unicode="&#xb6;" horiz-adv-x="601" 
d="M274 230c-36.667 0 -70 5.66895 -100 17.002s-55.833 27.166 -77.5 47.499s-38.334 45 -50.001 74s-17.5 61.167 -17.5 96.5s5.83301 67.5 17.5 96.5s28.334 53.667 50.001 74s47.5 36.166 77.5 47.499s63.333 17 100 17h262v-146h-100v-689h-162v365z" />
    <glyph glyph-name="periodcentered" unicode="&#xb7;" horiz-adv-x="251" 
d="M123 211c-28.667 0 -52 7.66699 -70 23s-27 35.666 -27 60.999s9 46 27 62s41.333 24 70 24c30 0 54.333 -8 73 -24s28 -36.667 28 -62s-9.33301 -45.666 -28 -60.999s-43 -23 -73 -23z" />
    <glyph glyph-name="cedilla" unicode="&#xb8;" horiz-adv-x="244" 
d="M97 -190c-9.33301 0 -18.999 0.5 -28.999 1.5s-20.333 2.83301 -31 5.5l9 84c3.33301 -1.33301 7.16602 -2.66602 11.499 -3.99902s8.83301 -2 13.5 -2c11.333 0 19.166 2 23.499 6s6.5 8.66699 6.5 14c0 6.66699 -2.66699 12.5 -8 17.5s-16.666 7.5 -33.999 7.5l26 60
h91l-12 -25c17.333 -6.66699 30.5 -16.334 39.5 -29.001s13.5 -27 13.5 -43c0 -11.333 -2.5 -22.5 -7.5 -33.5s-12.5 -21 -22.5 -30s-22.5 -16.167 -37.5 -21.5s-32.5 -8 -52.5 -8z" />
    <glyph glyph-name="onesuperior" unicode="&#xb9;" horiz-adv-x="308" 
d="M21 596c36.667 0 67.166 9.66699 91.499 29s36.5 44.333 36.5 75h118v-394h-125v205c-17.333 -10 -36.166 -17.5 -56.499 -22.5s-41.833 -6.83301 -64.5 -5.5v113z" />
    <glyph glyph-name="ordmasculine" unicode="&#xba;" horiz-adv-x="335" 
d="M159 424c-40.667 0 -74 12.5 -100 37.5s-39 58.167 -39 99.5v8c0 41.333 13 74.333 39 99s59.333 37 100 37h16c40.667 0 73.834 -12.333 99.501 -37s38.5 -57.667 38.5 -99v-8c0 -41.333 -12.833 -74.5 -38.5 -99.5s-58.834 -37.5 -99.501 -37.5h-16zM170 511
c14.667 0 26.667 4.66699 36 14s14 21.666 14 36.999v6c0 16 -4.66699 28.333 -14 37s-21.333 13 -36 13h-5c-15.333 0 -27.833 -4.33301 -37.5 -13s-14.5 -21 -14.5 -37v-6c0 -15.333 4.83301 -27.666 14.5 -36.999s22.167 -14 37.5 -14h5zM38 383h257v-95h-257v95z" />
    <glyph glyph-name="guillemotright" unicode="&#xbb;" horiz-adv-x="641" 
d="M425 268v12l-139 198h180l140 -199v-10l-140 -199h-180zM164 268v12l-139 198h180l140 -199v-10l-140 -199h-180z" />
    <glyph glyph-name="onequarter" unicode="&#xbc;" horiz-adv-x="766" 
d="M103 544c-18 -6 -37.333 -8.99902 -58 -8.99902h-15v88l14 1c22 1.33301 38.5 7.66602 49.5 18.999s16.5 26.333 16.5 45v12h106v-365h-113v209zM541 700.001h161l-528 -700h-161zM366 121.001l150 238h134v-219h37v-92h-37v-54h-109v54h-175v73zM541 140.001v82l-48 -82
h48z" />
    <glyph glyph-name="onehalf" unicode="&#xbd;" horiz-adv-x="780" 
d="M103 544c-18 -6 -37.333 -8.99902 -58 -8.99902h-15v88l14 1c22 1.33301 38.5 7.66602 49.5 18.999s16.5 26.333 16.5 45v12h106v-365h-113v209zM541 700.001h161l-528 -700h-161zM433 75.001l6.00098 4c15.333 9.33301 32 20.666 50 33.999s34.833 27.666 50.5 42.999
s28.667 31.166 39 47.499s15.5 31.5 15.5 45.5c0 8.66699 -2 14.667 -6 18s-9 5 -15 5c-10.667 0 -17.834 -4.83301 -21.501 -14.5s-6.16699 -18.5 -7.5 -26.5l-2 -13l-114 20l1 10c2 14.667 6.33301 29.334 13 44.001s16 27.834 28 39.501s26.5 21.167 43.5 28.5
s36.833 11 59.5 11c22 0 41.5 -3.16699 58.5 -9.5s31.333 -15 43 -26s20.5 -23.667 26.5 -38s9 -29.166 9 -44.499c0 -32 -9.66699 -61 -29 -87s-42.333 -49 -69 -69h104v-98h-283v76z" />
    <glyph glyph-name="threequarters" unicode="&#xbe;" horiz-adv-x="819" 
d="M176 329c-40 0 -72.999 9.5 -98.999 28.5s-42.667 42.5 -50 70.5l-3 12l104 22l5 -11c8 -16 20.333 -24 37 -24c26 0 39 12.333 39 37c0 23.333 -12 35 -36 35c-9.33301 0 -17.333 -0.833008 -24 -2.5s-13.667 -5.16699 -21 -10.5l-41 57l65 59h-108v98h259v-76l-62 -51
c14.667 -3.33301 27.167 -8.83301 37.5 -16.5s19 -16.667 26 -27s12.167 -21.333 15.5 -33s5 -23.167 5 -34.5c0 -16.667 -3.16699 -33 -9.5 -49s-15.833 -30.167 -28.5 -42.5s-28.334 -22.333 -47.001 -30s-40 -11.5 -64 -11.5zM594.001 700h161l-528 -700h-161z
M419.001 121l150 238h134v-219h37v-92h-37v-54h-109v54h-175v73zM594.001 140v82l-48 -82h48z" />
    <glyph glyph-name="questiondown" unicode="&#xbf;" horiz-adv-x="535" 
d="M270 335c-14 0 -27.5039 2.50098 -40.5039 7.50098s-24.333 11.833 -34 20.5s-17.334 18.667 -23.001 30s-8.5 23.333 -8.5 36v7c0 13.333 2.83301 25.833 8.5 37.5s13.334 21.834 23.001 30.501s20.834 15.5 33.501 20.5s26.334 7.5 41.001 7.5
c29.333 0 53.833 -9.33301 73.5 -28s29.5 -41.334 29.5 -68.001v-7c0 -12.667 -2.66699 -24.834 -8 -36.501s-12.666 -21.667 -21.999 -30s-20.166 -15 -32.499 -20s-25.833 -7.5 -40.5 -7.5zM256.996 -204.999c-34.667 0 -66.4951 4.50488 -95.4951 13.5049
s-53.833 21.833 -74.5 38.5s-36.834 36.167 -48.501 58.5s-17.5 47.166 -17.5 74.499c0 29.333 7.16699 56.166 21.5 80.499s38.833 50.5 73.5 78.5l30.5 24.5c10.333 8.33301 19.833 17 28.5 26s15.667 18.667 21 29s8 22.166 8 35.499v15h145
c0 -20 -0.833008 -37.833 -2.5 -53.5s-5.33398 -30.167 -11.001 -43.5s-13.334 -26.333 -23.001 -39s-22.5 -26.334 -38.5 -41.001l-24.5 -21.5c-8.33301 -7 -15.833 -14 -22.5 -21s-12.167 -14.167 -16.5 -21.5s-6.5 -15.333 -6.5 -24
c0 -15.333 6.16699 -27.166 18.5 -35.499s28.833 -12.5 49.5 -12.5c28 0 50.667 7.66699 68 23s26 34.666 26 57.999l149 -22c0 -32 -6.33301 -61.5 -19 -88.5s-30.334 -50.333 -53.001 -70s-49.834 -34.834 -81.501 -45.501s-66.5 -16 -104.5 -16z" />
    <glyph glyph-name="Agrave" unicode="&#xc0;" horiz-adv-x="661" 
d="M217 700h228l226 -700h-193l-36 128h-224l-36 -128h-193zM407 269l-70 239h-13l-70 -239h153zM179 912h161l68 -158h-147z" />
    <glyph glyph-name="Aacute" unicode="&#xc1;" horiz-adv-x="661" 
d="M217 700h228l226 -700h-193l-36 128h-224l-36 -128h-193zM407 269l-70 239h-13l-70 -239h153zM391 759h-131l59 158h158z" />
    <glyph glyph-name="Acircumflex" unicode="&#xc2;" horiz-adv-x="661" 
d="M217 700h228l226 -700h-193l-36 128h-224l-36 -128h-193zM407 269l-70 239h-13l-70 -239h153zM237 900h186l104 -131h-144l-44 49h-18l-44 -49h-144z" />
    <glyph glyph-name="Atilde" unicode="&#xc3;" horiz-adv-x="661" 
d="M217 700h228l226 -700h-193l-36 128h-224l-36 -128h-193zM407 269l-70 239h-13l-70 -239h153zM118 841c12 25.333 29.998 45.333 53.998 60s50 22 78 22c14.667 0 28.834 -2 42.501 -6s30.834 -10.667 51.501 -20c13.333 -6 26.166 -11.167 38.499 -15.5
s25.5 -6.5 39.5 -6.5c30.667 0 54.667 12.333 72 37l49 -73c-13.333 -25.333 -31.833 -45.333 -55.5 -60s-49.167 -22 -76.5 -22c-13.333 0 -27.166 2.16699 -41.499 6.5s-33.166 11.833 -56.499 22.5c-14.667 6 -27.834 10.667 -39.501 14s-23.167 5 -34.5 5
c-33.333 0 -57.333 -12.333 -72 -37z" />
    <glyph glyph-name="Adieresis" unicode="&#xc4;" horiz-adv-x="660" 
d="M217 756c-25.333 0 -45.5 6.83301 -60.5 20.5s-22.5 32.167 -22.5 55.5s7.5 42 22.5 56s35.167 21 60.5 21c24.667 0 45.167 -7 61.5 -21s24.5 -32.667 24.5 -56s-8.16699 -41.833 -24.5 -55.5s-36.833 -20.5 -61.5 -20.5zM438 756c-25.333 0 -45.333 6.83301 -60 20.5
s-22 32.167 -22 55.5s7.33301 42 22 56s34.667 21 60 21s46.166 -7 62.499 -21s24.5 -32.667 24.5 -56s-8.16699 -41.833 -24.5 -55.5s-37.166 -20.5 -62.499 -20.5zM217 700h228l226 -700h-193l-36 128h-224l-36 -128h-193zM407 269l-70 239h-13l-70 -239h153z" />
    <glyph glyph-name="Aring" unicode="&#xc5;" horiz-adv-x="661" 
d="M217 700h228l226 -700h-193l-36 128h-224l-36 -128h-193zM407 269l-70 239h-13l-70 -239h153zM332 732c-36 0 -65.167 9.33301 -87.5 28s-33.5 42 -33.5 70c0 32 11.167 57.5 33.5 76.5s51.5 28.5 87.5 28.5c34 0 61.833 -9.5 83.5 -28.5s32.5 -44.5 32.5 -76.5
c0 -28 -10.667 -51.333 -32 -70s-49.333 -28 -84 -28zM330 800c11.333 0 20.5 3.16699 27.5 9.5s10.5 14.166 10.5 23.499c0 10 -3.5 18.333 -10.5 25s-16.167 10 -27.5 10s-20.5 -3.33301 -27.5 -10s-10.5 -15 -10.5 -25c0 -9.33301 3.5 -17.166 10.5 -23.499
s16.167 -9.5 27.5 -9.5z" />
    <glyph glyph-name="AE" unicode="&#xc6;" horiz-adv-x="858" 
d="M220 700h579v-156h-245v-122h225v-146h-225v-120h255v-156h-426v128h-162l-38 -128h-193zM383 269v275h-43l-81 -275h124z" />
    <glyph glyph-name="Ccedilla" unicode="&#xc7;" horiz-adv-x="689" 
d="M379 -14c-50.667 0 -97.168 8.6709 -139.501 26.0039s-78.666 41.666 -108.999 72.999s-54 68.666 -71 111.999s-25.5 91 -25.5 143v19c0 51.333 8.5 98.666 25.5 141.999s40.667 80.666 71 111.999s66.5 55.833 108.5 73.5s88 26.5 138 26.5h5
c58.667 0 112.334 -12.833 161.001 -38.5s88.667 -62.5 120 -110.5l-130 -101c-17.333 29.333 -37.833 52.166 -61.5 68.499s-51.167 24.5 -82.5 24.5h-9c-22.667 0 -43.667 -4.66699 -63 -14s-36 -22.666 -50 -39.999s-25 -38 -33 -62s-12 -51 -12 -81v-19
c0 -30 3.83301 -57 11.5 -81s18.5 -44.5 32.5 -61.5s30.667 -30.167 50 -39.5s40.666 -14 63.999 -14h12c31.333 0 59 8.16699 83 24.5s44.333 38.5 61 66.5l129 -100c-30.667 -48 -70 -84.833 -118 -110.5s-102 -38.5 -162 -38.5h-6zM327.999 -189.996
c-9.33301 0 -18.999 0.5 -28.999 1.5s-20.333 2.83301 -31 5.5l9 84c3.33301 -1.33301 7.16602 -2.66602 11.499 -3.99902s8.83301 -2 13.5 -2c11.333 0 19.166 2 23.499 6s6.5 8.66699 6.5 14c0 6.66699 -2.66699 12.5 -8 17.5s-16.666 7.5 -33.999 7.5l26 60h91l-12 -25
c17.333 -6.66699 30.5 -16.334 39.5 -29.001s13.5 -27 13.5 -43c0 -11.333 -2.5 -22.5 -7.5 -33.5s-12.5 -21 -22.5 -30s-22.5 -16.167 -37.5 -21.5s-32.5 -8 -52.5 -8z" />
    <glyph glyph-name="Egrave" unicode="&#xc8;" horiz-adv-x="559" 
d="M65 700h434v-156h-253v-122h233v-146h-233v-120h263v-156h-444v700zM136 912h161l68 -158h-147z" />
    <glyph glyph-name="Eacute" unicode="&#xc9;" horiz-adv-x="559" 
d="M65 700h434v-156h-253v-122h233v-146h-233v-120h263v-156h-444v700zM349 759h-131l59 158h158z" />
    <glyph glyph-name="Ecircumflex" unicode="&#xca;" horiz-adv-x="559" 
d="M65 700h434v-156h-253v-122h233v-146h-233v-120h263v-156h-444v700zM195 900h186l104 -131h-144l-44 49h-18l-44 -49h-144z" />
    <glyph glyph-name="Edieresis" unicode="&#xcb;" horiz-adv-x="559" 
d="M65 700h434v-156h-253v-122h233v-146h-233v-120h263v-156h-444v700zM194 753c-22.667 0 -40.834 7 -54.501 21s-20.5 32.667 -20.5 56c0 24 6.83301 43.333 20.5 58s31.834 22 54.501 22c22 0 40.5 -7.33301 55.5 -22s22.5 -34 22.5 -58c0 -23.333 -7.5 -42 -22.5 -56
s-33.5 -21 -55.5 -21zM379 753c-22.667 0 -40.667 7 -54 21s-20 32.667 -20 56c0 24 6.66699 43.333 20 58s31.333 22 54 22c23.333 0 42.333 -7.33301 57 -22s22 -34 22 -58c0 -23.333 -7.33301 -42 -22 -56s-33.667 -21 -57 -21z" />
    <glyph glyph-name="Igrave" unicode="&#xcc;" horiz-adv-x="311" 
d="M65 700h181v-700h-181v700zM4 912h161l68 -158h-147z" />
    <glyph glyph-name="Iacute" unicode="&#xcd;" horiz-adv-x="311" 
d="M65 700h181v-700h-181v700zM217 759h-131l59 158h158z" />
    <glyph glyph-name="Icircumflex" unicode="&#xce;" horiz-adv-x="311" 
d="M65 700h181v-700h-181v700zM63 900h186l104 -131h-144l-44 49h-18l-44 -49h-144z" />
    <glyph glyph-name="Idieresis" unicode="&#xcf;" horiz-adv-x="311" 
d="M65 700h181v-700h-181v700zM62 753c-22.667 0 -40.834 7 -54.501 21s-20.5 32.667 -20.5 56c0 24 6.83301 43.333 20.5 58s31.834 22 54.501 22c22 0 40.5 -7.33301 55.5 -22s22.5 -34 22.5 -58c0 -23.333 -7.5 -42 -22.5 -56s-33.5 -21 -55.5 -21zM247 753
c-22.667 0 -40.667 7 -54 21s-20 32.667 -20 56c0 24 6.66699 43.333 20 58s31.333 22 54 22c23.333 0 42.333 -7.33301 57 -22s22 -34 22 -58c0 -23.333 -7.33301 -42 -22 -56s-33.667 -21 -57 -21z" />
    <glyph glyph-name="Eth" unicode="&#xd0;" horiz-adv-x="724" 
d="M80 276l-61 -0.000976562v156h61v268h244c55.333 0 105.5 -8 150.5 -24s83.333 -38.833 115 -68.5s56.167 -65.167 73.5 -106.5s26 -87.666 26 -138.999v-20c0 -50.667 -8.66699 -97 -26 -139s-41.833 -78 -73.5 -108s-70 -53.333 -115 -70s-95.167 -25 -150.5 -25h-244
v276zM327 155.999c54.667 0 97.332 16.833 127.999 50.5s46 79.167 46 136.5v20c0 56 -15.167 100.167 -45.5 132.5s-73.166 48.5 -128.499 48.5h-65v-112h107v-156h-107v-120h65z" />
    <glyph glyph-name="Ntilde" unicode="&#xd1;" horiz-adv-x="734" 
d="M65 700h201l224 -429h4v429h175v-700h-177l-247 474h-6v-474h-174v700zM154 839c12 25.333 29.998 45.333 53.998 60s50 22 78 22c14.667 0 28.834 -2 42.501 -6s30.834 -10.667 51.501 -20c13.333 -6 26.166 -11.167 38.499 -15.5s25.5 -6.5 39.5 -6.5
c30.667 0 54.667 12.333 72 37l49 -73c-13.333 -25.333 -31.833 -45.333 -55.5 -60s-49.167 -22 -76.5 -22c-13.333 0 -27.166 2.16699 -41.499 6.5s-33.166 11.833 -56.499 22.5c-14.667 6 -27.834 10.667 -39.501 14s-23.167 5 -34.5 5c-33.333 0 -57.333 -12.333 -72 -37
z" />
    <glyph glyph-name="Ograve" unicode="&#xd2;" horiz-adv-x="767" 
d="M34 360c0 53.333 8.16699 101.836 24.5 145.503s39.5 81 69.5 112s66 55 108 72s88.667 25.5 140 25.5h14c50.667 0 97 -8.66699 139 -26s78 -41.5 108 -72.5s53.333 -68.333 70 -112s25 -91.834 25 -144.501v-20c0 -52.667 -8.33301 -100.834 -25 -144.501
s-40 -81 -70 -112s-66 -55.167 -108 -72.5s-88.333 -26 -139 -26h-14c-50.667 0 -97 8.66699 -139 26s-78 41.666 -108 72.999s-53.333 68.833 -70 112.5s-25 91.5 -25 143.5v20zM222 340.003c0 -62 14.332 -110.832 42.999 -146.499s66 -53.5 112 -53.5h12
c47.333 0 85 17.667 113 53s42 84.333 42 147v20c0 62 -14 110.667 -42 146s-65.667 53 -113 53h-12c-22.667 0 -43.667 -4.66699 -63 -14s-35.666 -22.5 -48.999 -39.5s-23.833 -37.833 -31.5 -62.5s-11.5 -52.334 -11.5 -83.001v-20zM230.999 912.004h161l68 -158h-147z
" />
    <glyph glyph-name="Oacute" unicode="&#xd3;" horiz-adv-x="767" 
d="M34 360c0 53.333 8.16699 101.836 24.5 145.503s39.5 81 69.5 112s66 55 108 72s88.667 25.5 140 25.5h14c50.667 0 97 -8.66699 139 -26s78 -41.5 108 -72.5s53.333 -68.333 70 -112s25 -91.834 25 -144.501v-20c0 -52.667 -8.33301 -100.834 -25 -144.501
s-40 -81 -70 -112s-66 -55.167 -108 -72.5s-88.333 -26 -139 -26h-14c-50.667 0 -97 8.66699 -139 26s-78 41.666 -108 72.999s-53.333 68.833 -70 112.5s-25 91.5 -25 143.5v20zM222 340.003c0 -62 14.332 -110.832 42.999 -146.499s66 -53.5 112 -53.5h12
c47.333 0 85 17.667 113 53s42 84.333 42 147v20c0 62 -14 110.667 -42 146s-65.667 53 -113 53h-12c-22.667 0 -43.667 -4.66699 -63 -14s-35.666 -22.5 -48.999 -39.5s-23.833 -37.833 -31.5 -62.5s-11.5 -52.334 -11.5 -83.001v-20zM443.999 759.004h-131l59 158h158z
" />
    <glyph glyph-name="Ocircumflex" unicode="&#xd4;" horiz-adv-x="767" 
d="M34 360c0 53.333 8.16699 101.836 24.5 145.503s39.5 81 69.5 112s66 55 108 72s88.667 25.5 140 25.5h14c50.667 0 97 -8.66699 139 -26s78 -41.5 108 -72.5s53.333 -68.333 70 -112s25 -91.834 25 -144.501v-20c0 -52.667 -8.33301 -100.834 -25 -144.501
s-40 -81 -70 -112s-66 -55.167 -108 -72.5s-88.333 -26 -139 -26h-14c-50.667 0 -97 8.66699 -139 26s-78 41.666 -108 72.999s-53.333 68.833 -70 112.5s-25 91.5 -25 143.5v20zM222 340.003c0 -62 14.332 -110.832 42.999 -146.499s66 -53.5 112 -53.5h12
c47.333 0 85 17.667 113 53s42 84.333 42 147v20c0 62 -14 110.667 -42 146s-65.667 53 -113 53h-12c-22.667 0 -43.667 -4.66699 -63 -14s-35.666 -22.5 -48.999 -39.5s-23.833 -37.833 -31.5 -62.5s-11.5 -52.334 -11.5 -83.001v-20zM289.999 900.004h186l104 -131h-144
l-44 49h-18l-44 -49h-144z" />
    <glyph glyph-name="Otilde" unicode="&#xd5;" horiz-adv-x="767" 
d="M34 360c0 53.333 8.16699 101.836 24.5 145.503s39.5 81 69.5 112s66 55 108 72s88.667 25.5 140 25.5h14c50.667 0 97 -8.66699 139 -26s78 -41.5 108 -72.5s53.333 -68.333 70 -112s25 -91.834 25 -144.501v-20c0 -52.667 -8.33301 -100.834 -25 -144.501
s-40 -81 -70 -112s-66 -55.167 -108 -72.5s-88.333 -26 -139 -26h-14c-50.667 0 -97 8.66699 -139 26s-78 41.666 -108 72.999s-53.333 68.833 -70 112.5s-25 91.5 -25 143.5v20zM222 340.003c0 -62 14.332 -110.832 42.999 -146.499s66 -53.5 112 -53.5h12
c47.333 0 85 17.667 113 53s42 84.333 42 147v20c0 62 -14 110.667 -42 146s-65.667 53 -113 53h-12c-22.667 0 -43.667 -4.66699 -63 -14s-35.666 -22.5 -48.999 -39.5s-23.833 -37.833 -31.5 -62.5s-11.5 -52.334 -11.5 -83.001v-20zM170.999 841.004
c12 25.333 29.998 45.333 53.998 60s50 22 78 22c14.667 0 28.834 -2 42.501 -6s30.834 -10.667 51.501 -20c13.333 -6 26.166 -11.167 38.499 -15.5s25.5 -6.5 39.5 -6.5c30.667 0 54.667 12.333 72 37l49 -73c-13.333 -25.333 -31.833 -45.333 -55.5 -60
s-49.167 -22 -76.5 -22c-13.333 0 -27.166 2.16699 -41.499 6.5s-33.166 11.833 -56.499 22.5c-14.667 6 -27.834 10.667 -39.501 14s-23.167 5 -34.5 5c-33.333 0 -57.333 -12.333 -72 -37z" />
    <glyph glyph-name="Odieresis" unicode="&#xd6;" horiz-adv-x="768" 
d="M272 756c-24.667 0 -44.667 6.83301 -60 20.5s-23 32.167 -23 55.5s7.66699 42 23 56s35.333 21 60 21s45.167 -7 61.5 -21s24.5 -32.667 24.5 -56s-8.16699 -41.833 -24.5 -55.5s-36.833 -20.5 -61.5 -20.5zM493 756c-25.333 0 -45.5 6.83301 -60.5 20.5
s-22.5 32.167 -22.5 55.5s7.5 42 22.5 56s35.167 21 60.5 21s46 -7 62 -21s24 -32.667 24 -56s-8 -41.833 -24 -55.5s-36.667 -20.5 -62 -20.5zM35 360c0 53.333 8.16699 101.836 24.5 145.503s39.5 81 69.5 112s66 55 108 72s88.667 25.5 140 25.5h14
c50.667 0 97 -8.66699 139 -26s78 -41.5 108 -72.5s53.333 -68.333 70 -112s25 -91.834 25 -144.501v-20c0 -52.667 -8.33301 -100.834 -25 -144.501s-40 -81 -70 -112s-66 -55.167 -108 -72.5s-88.333 -26 -139 -26h-14c-50.667 0 -97 8.66699 -139 26
s-78 41.666 -108 72.999s-53.333 68.833 -70 112.5s-25 91.5 -25 143.5v20zM223 340.003c0 -62 14.332 -110.832 42.999 -146.499s66 -53.5 112 -53.5h12c47.333 0 85 17.667 113 53s42 84.333 42 147v20c0 62 -14 110.667 -42 146s-65.667 53 -113 53h-12
c-22.667 0 -43.667 -4.66699 -63 -14s-35.666 -22.5 -48.999 -39.5s-23.833 -37.833 -31.5 -62.5s-11.5 -52.334 -11.5 -83.001v-20z" />
    <glyph glyph-name="multiply" unicode="&#xd7;" horiz-adv-x="542" 
d="M42 193l132 132l-132 132l98 97l131 -132l132 132l97 -97l-131 -132l131 -132l-97 -97l-132 132l-131 -132z" />
    <glyph glyph-name="Oslash" unicode="&#xd8;" horiz-adv-x="767" 
d="M157 59c-38.667 31.333 -68.668 71.001 -90.001 119.001s-32 102 -32 162v20c0 53.333 8.16699 101.833 24.5 145.5s39.5 81 69.5 112s66 55 108 72s88.667 25.5 140 25.5h14c43.333 0 83.333 -6 120 -18l21 38h129l-51 -93c38.667 -31.333 68.834 -71 90.501 -119
s32.5 -102.333 32.5 -163v-20c0 -52.667 -8.33301 -100.834 -25 -144.501s-40 -81 -70 -112s-66 -55.167 -108 -72.5s-88.333 -26 -139 -26h-14c-44.667 0 -85 6.33301 -121 19l-22 -40h-128zM214.999 340.001c0 -28 2.83301 -53.5 8.5 -76.5s13.5 -43.167 23.5 -60.5
l201 360c-18.667 7.33301 -38 11 -58 11h-12c-24 0 -46 -4.83301 -66 -14.5s-37.167 -23.667 -51.5 -42s-25.5 -40.5 -33.5 -66.5s-12 -55.667 -12 -89v-22zM317.999 138.001c18 -8 37.999 -12 59.999 -12h12c48.667 0 87.834 19 117.501 57s44.5 90.333 44.5 157v22
c0 28 -2.83301 53.333 -8.5 76s-13.5 42.667 -23.5 60z" />
    <glyph glyph-name="Ugrave" unicode="&#xd9;" horiz-adv-x="702" 
d="M352 -15c-93.333 0 -165.498 23.832 -216.498 71.499s-76.5 114.834 -76.5 201.501v442h181v-435c0 -37.333 10.833 -66.166 32.5 -86.499s48.5 -30.5 80.5 -30.5c31.333 0 57.333 10.167 78 30.5s31 49.166 31 86.499v435h181v-442c0 -44.667 -6.83301 -84 -20.5 -118
s-33.334 -62.5 -59.001 -85.5s-56.334 -40.333 -92.001 -52s-75.5 -17.5 -119.5 -17.5zM200.002 911.999h161l68 -158h-147z" />
    <glyph glyph-name="Uacute" unicode="&#xda;" horiz-adv-x="702" 
d="M352 -15c-93.333 0 -165.498 23.832 -216.498 71.499s-76.5 114.834 -76.5 201.501v442h181v-435c0 -37.333 10.833 -66.166 32.5 -86.499s48.5 -30.5 80.5 -30.5c31.333 0 57.333 10.167 78 30.5s31 49.166 31 86.499v435h181v-442c0 -44.667 -6.83301 -84 -20.5 -118
s-33.334 -62.5 -59.001 -85.5s-56.334 -40.333 -92.001 -52s-75.5 -17.5 -119.5 -17.5zM413.002 758.999h-131l59 158h158z" />
    <glyph glyph-name="Ucircumflex" unicode="&#xdb;" horiz-adv-x="702" 
d="M352 -15c-93.333 0 -165.498 23.832 -216.498 71.499s-76.5 114.834 -76.5 201.501v442h181v-435c0 -37.333 10.833 -66.166 32.5 -86.499s48.5 -30.5 80.5 -30.5c31.333 0 57.333 10.167 78 30.5s31 49.166 31 86.499v435h181v-442c0 -44.667 -6.83301 -84 -20.5 -118
s-33.334 -62.5 -59.001 -85.5s-56.334 -40.333 -92.001 -52s-75.5 -17.5 -119.5 -17.5zM259.002 899.999h186l104 -131h-144l-44 49h-18l-44 -49h-144z" />
    <glyph glyph-name="Udieresis" unicode="&#xdc;" horiz-adv-x="691" 
d="M234 756c-24.667 0 -44.667 6.83301 -60 20.5s-23 32.167 -23 55.5s7.66699 42 23 56s35.333 21 60 21s45.167 -7 61.5 -21s24.5 -32.667 24.5 -56s-8.16699 -41.833 -24.5 -55.5s-36.833 -20.5 -61.5 -20.5zM456 756c-25.333 0 -45.5 6.83301 -60.5 20.5
s-22.5 32.167 -22.5 55.5s7.5 42 22.5 56s35.167 21 60.5 21s46 -7 62 -21s24 -32.667 24 -56s-8 -41.833 -24 -55.5s-36.667 -20.5 -62 -20.5zM346 -15c-93.333 0 -165.499 23.832 -216.499 71.499s-76.5 114.834 -76.5 201.501v442h182v-435
c0 -37.333 10.667 -66.166 32 -86.499s48 -30.5 80 -30.5c31.333 0 57.333 10.167 78 30.5s31 49.166 31 86.499v435h182v-442c0 -44.667 -6.83301 -84 -20.5 -118s-33.334 -62.5 -59.001 -85.5s-56.5 -40.333 -92.5 -52s-76 -17.5 -120 -17.5z" />
    <glyph glyph-name="Yacute" unicode="&#xdd;" horiz-adv-x="643" 
d="M231 271l-240 429h208l119 -263h8l118 263h208l-239 -429v-271h-182v271zM383 759h-131l59 158h158z" />
    <glyph glyph-name="Thorn" unicode="&#xde;" horiz-adv-x="621" 
d="M65 700h181v-89h85c39.333 0 75 -5.66699 107 -17s59.5 -27.333 82.5 -48s40.667 -45.5 53 -74.5s18.5 -61.5 18.5 -97.5v-10c0 -36 -6.33301 -68.833 -19 -98.5s-30.5 -55 -53.5 -76s-50.5 -37.333 -82.5 -49s-67.667 -17.5 -107 -17.5h-84v-123h-181v700zM304 269
c32.667 0 59 8.83301 79 26.5s30 41.167 30 70.5v11c0 26.667 -9.33301 48 -28 64s-43.667 24 -75 24h-70v-196h64z" />
    <glyph glyph-name="germandbls" unicode="&#xdf;" horiz-adv-x="605" 
d="M378 -13c-20.667 0 -41.167 2.33398 -61.5 7.00098s-37.833 10.667 -52.5 18v129c7.33301 -3.33301 16 -6 26 -8s19.667 -3 29 -3c26 0 47.167 8.66699 63.5 26s24.5 40.666 24.5 69.999c0 28.667 -7.66699 51.667 -23 69s-35.666 26 -60.999 26h-49v101h41
c19.333 0 34.833 8.16699 46.5 24.5s17.5 36.166 17.5 59.499c0 24.667 -6.83301 44.5 -20.5 59.5s-31.834 22.5 -54.501 22.5c-24 0 -43.333 -7.83301 -58 -23.5s-22 -37.167 -22 -64.5v-500h-174v509c0 31.333 6 59.833 18 85.5s29 47.667 51 66s48.5 32.5 79.5 42.5
s65.5 15 103.5 15c36.667 0 70 -4.66699 100 -14s55.833 -22.5 77.5 -39.5s38.334 -37.5 50.001 -61.5s17.5 -50.667 17.5 -80c0 -28.667 -5.5 -54.667 -16.5 -78s-26.5 -43 -46.5 -59c30 -19.333 53.167 -45 69.5 -77s24.5 -69 24.5 -111c0 -31.333 -4.66699 -60 -14 -86
s-22.833 -48.167 -40.5 -66.5s-38.834 -32.666 -63.501 -42.999s-52 -15.5 -82 -15.5z" />
    <glyph glyph-name="agrave" unicode="&#xe0;" horiz-adv-x="567" 
d="M201 -12c-25.333 0 -48.6621 3.66699 -69.9951 11s-39.833 17.666 -55.5 30.999s-27.834 29.5 -36.501 48.5s-13 39.833 -13 62.5v13c0 56 23.5 98 70.5 126s120.167 42 219.5 42h35v9c0 22 -6.33301 39.5 -19 52.5s-32.334 19.5 -59.001 19.5h-4
c-23.333 0 -47.833 -3.83301 -73.5 -11.5s-52.834 -20.167 -81.501 -37.5l-63 115c31.333 19.333 67.166 34.666 107.499 45.999s81.166 17 122.499 17h11c68.667 0 122.667 -18.333 162 -55s59 -88.334 59 -155.001v-192c0 -23.333 1.66699 -45.166 5 -65.499
s7.66602 -41.833 12.999 -64.5h-160c-2.66699 8 -5.16699 16.833 -7.5 26.5s-4.16602 19.834 -5.49902 30.501c-17.333 -21.333 -39.833 -38.166 -67.5 -50.499s-57.5 -18.5 -89.5 -18.5zM249.004 114c18 0 36 4 54 12s34 19.667 48 35v69h-28
c-88.667 0 -133 -21.333 -133 -64v-5c0 -13.333 5.5 -24.5 16.5 -33.5s25.167 -13.5 42.5 -13.5zM149.004 748h146l58 -174h-127z" />
    <glyph glyph-name="aacute" unicode="&#xe1;" horiz-adv-x="567" 
d="M201 -12c-25.333 0 -48.6621 3.66699 -69.9951 11s-39.833 17.666 -55.5 30.999s-27.834 29.5 -36.501 48.5s-13 39.833 -13 62.5v13c0 56 23.5 98 70.5 126s120.167 42 219.5 42h35v9c0 22 -6.33301 39.5 -19 52.5s-32.334 19.5 -59.001 19.5h-4
c-23.333 0 -47.833 -3.83301 -73.5 -11.5s-52.834 -20.167 -81.501 -37.5l-63 115c31.333 19.333 67.166 34.666 107.499 45.999s81.166 17 122.499 17h11c68.667 0 122.667 -18.333 162 -55s59 -88.334 59 -155.001v-192c0 -23.333 1.66699 -45.166 5 -65.499
s7.66602 -41.833 12.999 -64.5h-160c-2.66699 8 -5.16699 16.833 -7.5 26.5s-4.16602 19.834 -5.49902 30.501c-17.333 -21.333 -39.833 -38.166 -67.5 -50.499s-57.5 -18.5 -89.5 -18.5zM249.004 114c18 0 36 4 54 12s34 19.667 48 35v69h-28
c-88.667 0 -133 -21.333 -133 -64v-5c0 -13.333 5.5 -24.5 16.5 -33.5s25.167 -13.5 42.5 -13.5zM206.004 574l58 173h146l-77 -173h-127z" />
    <glyph glyph-name="acircumflex" unicode="&#xe2;" horiz-adv-x="567" 
d="M201 -12c-25.333 0 -48.6621 3.66699 -69.9951 11s-39.833 17.666 -55.5 30.999s-27.834 29.5 -36.501 48.5s-13 39.833 -13 62.5v13c0 56 23.5 98 70.5 126s120.167 42 219.5 42h35v9c0 22 -6.33301 39.5 -19 52.5s-32.334 19.5 -59.001 19.5h-4
c-23.333 0 -47.833 -3.83301 -73.5 -11.5s-52.834 -20.167 -81.501 -37.5l-63 115c31.333 19.333 67.166 34.666 107.499 45.999s81.166 17 122.499 17h11c68.667 0 122.667 -18.333 162 -55s59 -88.334 59 -155.001v-192c0 -23.333 1.66699 -45.166 5 -65.499
s7.66602 -41.833 12.999 -64.5h-160c-2.66699 8 -5.16699 16.833 -7.5 26.5s-4.16602 19.834 -5.49902 30.501c-17.333 -21.333 -39.833 -38.166 -67.5 -50.499s-57.5 -18.5 -89.5 -18.5zM249.004 114c18 0 36 4 54 12s34 19.667 48 35v69h-28
c-88.667 0 -133 -21.333 -133 -64v-5c0 -13.333 5.5 -24.5 16.5 -33.5s25.167 -13.5 42.5 -13.5zM337.004 585l-49 53h-18l-48 -53h-142l106 135h187l106 -135h-142z" />
    <glyph glyph-name="atilde" unicode="&#xe3;" horiz-adv-x="567" 
d="M201 -12c-25.333 0 -48.6621 3.66699 -69.9951 11s-39.833 17.666 -55.5 30.999s-27.834 29.5 -36.501 48.5s-13 39.833 -13 62.5v13c0 56 23.5 98 70.5 126s120.167 42 219.5 42h35v9c0 22 -6.33301 39.5 -19 52.5s-32.334 19.5 -59.001 19.5h-4
c-23.333 0 -47.833 -3.83301 -73.5 -11.5s-52.834 -20.167 -81.501 -37.5l-63 115c31.333 19.333 67.166 34.666 107.499 45.999s81.166 17 122.499 17h11c68.667 0 122.667 -18.333 162 -55s59 -88.334 59 -155.001v-192c0 -23.333 1.66699 -45.166 5 -65.499
s7.66602 -41.833 12.999 -64.5h-160c-2.66699 8 -5.16699 16.833 -7.5 26.5s-4.16602 19.834 -5.49902 30.501c-17.333 -21.333 -39.833 -38.166 -67.5 -50.499s-57.5 -18.5 -89.5 -18.5zM249.004 114c18 0 36 4 54 12s34 19.667 48 35v69h-28
c-88.667 0 -133 -21.333 -133 -64v-5c0 -13.333 5.5 -24.5 16.5 -33.5s25.167 -13.5 42.5 -13.5zM64.0039 662c12.667 25.333 30.835 45.333 54.502 60s49.5 22 77.5 22c14.667 0 29 -2 43 -6s31 -10.333 51 -19c13.333 -6 26.166 -11.333 38.499 -16s25.5 -7 39.5 -7
c31.333 0 55.333 12.333 72 37l50 -73c-14 -25.333 -32.667 -45.333 -56 -60s-49 -22 -77 -22c-13.333 0 -27 2.16699 -41 6.5s-33 11.833 -57 22.5c-14.667 6.66699 -27.834 11.667 -39.501 15s-23.167 5 -34.5 5c-32 0 -56 -12.667 -72 -38z" />
    <glyph glyph-name="adieresis" unicode="&#xe4;" horiz-adv-x="567" 
d="M201 -12c-25.333 0 -48.6621 3.66699 -69.9951 11s-39.833 17.666 -55.5 30.999s-27.834 29.5 -36.501 48.5s-13 39.833 -13 62.5v13c0 56 23.5 98 70.5 126s120.167 42 219.5 42h35v9c0 22 -6.33301 39.5 -19 52.5s-32.334 19.5 -59.001 19.5h-4
c-23.333 0 -47.833 -3.83301 -73.5 -11.5s-52.834 -20.167 -81.501 -37.5l-63 115c31.333 19.333 67.166 34.666 107.499 45.999s81.166 17 122.499 17h11c68.667 0 122.667 -18.333 162 -55s59 -88.334 59 -155.001v-192c0 -23.333 1.66699 -45.166 5 -65.499
s7.66602 -41.833 12.999 -64.5h-160c-2.66699 8 -5.16699 16.833 -7.5 26.5s-4.16602 19.834 -5.49902 30.501c-17.333 -21.333 -39.833 -38.166 -67.5 -50.499s-57.5 -18.5 -89.5 -18.5zM249.004 114c18 0 36 4 54 12s34 19.667 48 35v69h-28
c-88.667 0 -133 -21.333 -133 -64v-5c0 -13.333 5.5 -24.5 16.5 -33.5s25.167 -13.5 42.5 -13.5zM390.004 591c-25.333 0 -45.5 6.83301 -60.5 20.5s-22.5 32.167 -22.5 55.5s7.5 42 22.5 56s35.167 21 60.5 21s46 -7 62 -21s24 -32.667 24 -56s-8 -41.833 -24 -55.5
s-36.667 -20.5 -62 -20.5zM166.004 591c-25.333 0 -45.833 6.83301 -61.5 20.5s-23.5 32.167 -23.5 55.5s7.83301 42 23.5 56s36.167 21 61.5 21c23.333 0 43.166 -7 59.499 -21s24.5 -32.667 24.5 -56s-8.16699 -41.833 -24.5 -55.5s-36.166 -20.5 -59.499 -20.5z" />
    <glyph glyph-name="aring" unicode="&#xe5;" horiz-adv-x="567" 
d="M201 -12c-25.333 0 -48.6621 3.66699 -69.9951 11s-39.833 17.666 -55.5 30.999s-27.834 29.5 -36.501 48.5s-13 39.833 -13 62.5v13c0 56 23.5 98 70.5 126s120.167 42 219.5 42h35v9c0 22 -6.33301 39.5 -19 52.5s-32.334 19.5 -59.001 19.5h-4
c-23.333 0 -47.833 -3.83301 -73.5 -11.5s-52.834 -20.167 -81.501 -37.5l-63 115c31.333 19.333 67.166 34.666 107.499 45.999s81.166 17 122.499 17h11c68.667 0 122.667 -18.333 162 -55s59 -88.334 59 -155.001v-192c0 -23.333 1.66699 -45.166 5 -65.499
s7.66602 -41.833 12.999 -64.5h-160c-2.66699 8 -5.16699 16.833 -7.5 26.5s-4.16602 19.834 -5.49902 30.501c-17.333 -21.333 -39.833 -38.166 -67.5 -50.499s-57.5 -18.5 -89.5 -18.5zM249.004 114c18 0 36 4 54 12s34 19.667 48 35v69h-28
c-88.667 0 -133 -21.333 -133 -64v-5c0 -13.333 5.5 -24.5 16.5 -33.5s25.167 -13.5 42.5 -13.5zM279.004 573c-36 0 -65 9.16699 -87 27.5s-33 41.833 -33 70.5c0 32 11 57.5 33 76.5s51 28.5 87 28.5c34 0 61.833 -9.5 83.5 -28.5s32.5 -44.5 32.5 -76.5
c0 -28.667 -10.667 -52.167 -32 -70.5s-49.333 -27.5 -84 -27.5zM278.004 640c11.333 0 20.333 3.16699 27 9.5s10 14.166 10 23.499c0 10 -3.33301 18.5 -10 25.5s-15.667 10.5 -27 10.5s-20.666 -3.5 -27.999 -10.5s-11 -15.5 -11 -25.5
c0 -9.33301 3.66699 -17.166 11 -23.499s16.666 -9.5 27.999 -9.5z" />
    <glyph glyph-name="ae" unicode="&#xe6;" horiz-adv-x="866" 
d="M197 -12c-24.667 0 -47.499 3.66602 -68.499 10.999s-39.167 17.833 -54.5 31.5s-27.166 30.334 -35.499 50.001s-12.5 41.834 -12.5 66.501c0 114 94.667 171 284 171h34c0 28 -5.66699 49 -17 63s-32.333 21 -63 21c-22 0 -45.5 -3.83301 -70.5 -11.5
s-51.5 -20.167 -79.5 -37.5l-63 116c30 20 64.5 35.5 103.5 46.5s78.833 16.5 119.5 16.5c28.667 0 56 -3.83301 82 -11.5s49.667 -21.834 71 -42.501c21.333 16.667 45.666 29.834 72.999 39.501s57 14.5 89 14.5h12c35.333 0 68 -5.83301 98 -17.5s55.833 -28 77.5 -49
s38.5 -46 50.5 -75s18 -60.5 18 -94.5v-79h-348c3.33301 -30 15 -53.333 35 -70s45.667 -25 77 -25h7c25.333 0 49.833 5.33301 73.5 16s43.5 24 59.5 40l78 -111c-12 -10.667 -26.5 -20.834 -43.5 -30.501s-35 -18.167 -54 -25.5s-38.5 -13 -58.5 -17s-39.333 -6 -58 -6
h-17c-41.333 0 -78.5 6.83301 -111.5 20.5s-61.167 32.834 -84.5 57.501c-33.333 -30.667 -66.833 -51.334 -100.5 -62.001s-67.834 -16 -102.501 -16zM681.001 313.999v4c-0.666992 30 -8.5 53 -23.5 69s-34.167 24 -57.5 24h-7c-24 0 -43.833 -8.33301 -59.5 -25
s-26.5 -40.667 -32.5 -72h180zM346.001 161.999c-3.33301 8 -6.00098 18.334 -8.00098 31.001s-3 23.667 -3 33h-17c-42.667 0 -74.667 -5.66699 -96 -17s-32 -27 -32 -47c0 -14 5.33301 -25.5 16 -34.5s24.667 -13.5 42 -13.5c16.667 0 33.834 4.16699 51.501 12.5
s33.167 20.166 46.5 35.499z" />
    <glyph glyph-name="ccedilla" unicode="&#xe7;" horiz-adv-x="523" 
d="M284 -11c-38 0 -73.001 6.5 -105.001 19.5s-59.333 31 -82 54s-40.334 50.333 -53.001 82s-19 65.834 -19 102.501v29c0 36.667 6.5 70.5 19.5 101.5s30.833 57.833 53.5 80.5s49.5 40.5 80.5 53.5s64.5 19.5 100.5 19.5h9c92.667 0 166.334 -36.667 221.001 -110
l-120 -88c-15.333 25.333 -30.166 43.333 -44.499 54s-30.833 16 -49.5 16h-5c-27.333 0 -48.333 -11.333 -63 -34s-22 -56.334 -22 -101.001v-16c0 -42 8 -74.5 24 -97.5s37.333 -34.5 64 -34.5h9c34.667 0 65.667 24.333 93 73l118 -96c-26.667 -36 -58 -63 -94 -81
s-78 -27 -126 -27h-9zM241.999 -190c-9.33301 0 -18.999 0.5 -28.999 1.5s-20.333 2.83301 -31 5.5l9 84c3.33301 -1.33301 7.16602 -2.66602 11.499 -3.99902s8.83301 -2 13.5 -2c11.333 0 19.166 2 23.499 6s6.5 8.66699 6.5 14c0 6.66699 -2.66699 12.5 -8 17.5
s-16.666 7.5 -33.999 7.5l26 60h91l-12 -25c17.333 -6.66699 30.5 -16.334 39.5 -29.001s13.5 -27 13.5 -43c0 -11.333 -2.5 -22.5 -7.5 -33.5s-12.5 -21 -22.5 -30s-22.5 -16.167 -37.5 -21.5s-32.5 -8 -52.5 -8z" />
    <glyph glyph-name="egrave" unicode="&#xe8;" 
d="M293 -12c-40 0 -76.4971 6.33398 -109.497 19.001s-61.333 30.5 -85 53.5s-41.834 50.5 -54.501 82.5s-19 67.667 -19 107v20c0 38 6.5 73.167 19.5 105.5s31 60 54 83s50.333 41 82 54s66.5 19.5 104.5 19.5h14c35.333 0 68 -5.83301 98 -17.5s55.833 -28 77.5 -49
s38.5 -46 50.5 -75s18 -60.5 18 -94.5v-79h-351v-1c3.33301 -30 15 -53.167 35 -69.5s46 -24.5 78 -24.5h9c27.333 0 52.166 5.5 74.499 16.5s41.833 24.167 58.5 39.5l78 -111c-12.667 -10.667 -27.334 -20.834 -44.001 -30.501s-34.5 -18.167 -53.5 -25.5
s-38.333 -13 -58 -17s-39.167 -6 -58.5 -6h-18zM378.003 314.001l0.000976562 5c-0.666992 30 -8.33398 52.833 -23.001 68.5s-34 23.5 -58 23.5h-9c-24 0 -43.833 -8.33301 -59.5 -25s-26.5 -40.667 -32.5 -72h182zM163.004 748.001h146l58 -174h-127z" />
    <glyph glyph-name="eacute" unicode="&#xe9;" 
d="M293 -12c-40 0 -76.4971 6.33398 -109.497 19.001s-61.333 30.5 -85 53.5s-41.834 50.5 -54.501 82.5s-19 67.667 -19 107v20c0 38 6.5 73.167 19.5 105.5s31 60 54 83s50.333 41 82 54s66.5 19.5 104.5 19.5h14c35.333 0 68 -5.83301 98 -17.5s55.833 -28 77.5 -49
s38.5 -46 50.5 -75s18 -60.5 18 -94.5v-79h-351v-1c3.33301 -30 15 -53.167 35 -69.5s46 -24.5 78 -24.5h9c27.333 0 52.166 5.5 74.499 16.5s41.833 24.167 58.5 39.5l78 -111c-12.667 -10.667 -27.334 -20.834 -44.001 -30.501s-34.5 -18.167 -53.5 -25.5
s-38.333 -13 -58 -17s-39.167 -6 -58.5 -6h-18zM378.003 314.001l0.000976562 5c-0.666992 30 -8.33398 52.833 -23.001 68.5s-34 23.5 -58 23.5h-9c-24 0 -43.833 -8.33301 -59.5 -25s-26.5 -40.667 -32.5 -72h182zM221.004 574.001l58 173h146l-77 -173h-127z" />
    <glyph glyph-name="ecircumflex" unicode="&#xea;" 
d="M293 -12c-40 0 -76.4971 6.33398 -109.497 19.001s-61.333 30.5 -85 53.5s-41.834 50.5 -54.501 82.5s-19 67.667 -19 107v20c0 38 6.5 73.167 19.5 105.5s31 60 54 83s50.333 41 82 54s66.5 19.5 104.5 19.5h14c35.333 0 68 -5.83301 98 -17.5s55.833 -28 77.5 -49
s38.5 -46 50.5 -75s18 -60.5 18 -94.5v-79h-351v-1c3.33301 -30 15 -53.167 35 -69.5s46 -24.5 78 -24.5h9c27.333 0 52.166 5.5 74.499 16.5s41.833 24.167 58.5 39.5l78 -111c-12.667 -10.667 -27.334 -20.834 -44.001 -30.501s-34.5 -18.167 -53.5 -25.5
s-38.333 -13 -58 -17s-39.167 -6 -58.5 -6h-18zM378.003 314.001l0.000976562 5c-0.666992 30 -8.33398 52.833 -23.001 68.5s-34 23.5 -58 23.5h-9c-24 0 -43.833 -8.33301 -59.5 -25s-26.5 -40.667 -32.5 -72h182zM351.004 585.001l-49 53h-18l-48 -53h-142l106 135h187
l106 -135h-142z" />
    <glyph glyph-name="edieresis" unicode="&#xeb;" 
d="M293 -12c-40 0 -76.4971 6.33398 -109.497 19.001s-61.333 30.5 -85 53.5s-41.834 50.5 -54.501 82.5s-19 67.667 -19 107v20c0 38 6.5 73.167 19.5 105.5s31 60 54 83s50.333 41 82 54s66.5 19.5 104.5 19.5h14c35.333 0 68 -5.83301 98 -17.5s55.833 -28 77.5 -49
s38.5 -46 50.5 -75s18 -60.5 18 -94.5v-79h-351v-1c3.33301 -30 15 -53.167 35 -69.5s46 -24.5 78 -24.5h9c27.333 0 52.166 5.5 74.499 16.5s41.833 24.167 58.5 39.5l78 -111c-12.667 -10.667 -27.334 -20.834 -44.001 -30.501s-34.5 -18.167 -53.5 -25.5
s-38.333 -13 -58 -17s-39.167 -6 -58.5 -6h-18zM378.003 314.001l0.000976562 5c-0.666992 30 -8.33398 52.833 -23.001 68.5s-34 23.5 -58 23.5h-9c-24 0 -43.833 -8.33301 -59.5 -25s-26.5 -40.667 -32.5 -72h182zM405.004 591.001c-25.333 0 -45.5 6.83301 -60.5 20.5
s-22.5 32.167 -22.5 55.5s7.5 42 22.5 56s35.167 21 60.5 21s46 -7 62 -21s24 -32.667 24 -56s-8 -41.833 -24 -55.5s-36.667 -20.5 -62 -20.5zM181.004 591.001c-25.333 0 -45.833 6.83301 -61.5 20.5s-23.5 32.167 -23.5 55.5s7.83301 42 23.5 56s36.167 21 61.5 21
c23.333 0 43.166 -7 59.499 -21s24.5 -32.667 24.5 -56s-8.16699 -41.833 -24.5 -55.5s-36.166 -20.5 -59.499 -20.5z" />
    <glyph glyph-name="igrave" unicode="&#xec;" horiz-adv-x="285" 
d="M55 520h174v-520h-174v520zM12 745h146l58 -174h-127z" />
    <glyph glyph-name="iacute" unicode="&#xed;" horiz-adv-x="285" 
d="M55 520h174v-520h-174v520zM70 571l58 173h146l-77 -173h-127z" />
    <glyph glyph-name="icircumflex" unicode="&#xee;" horiz-adv-x="285" 
d="M188 585l-36 53h-18l-37 -53h-139l94 135h181l94 -135h-139zM55 520h174v-520h-174v520z" />
    <glyph glyph-name="idieresis" unicode="&#xef;" horiz-adv-x="285" 
d="M228 587c-22.667 0 -40.667 7 -54 21s-20 32.667 -20 56s6.66699 42.166 20 56.499s31.333 21.5 54 21.5c22 0 40.167 -7.16699 54.5 -21.5s21.5 -33.166 21.5 -56.499s-7.16699 -42 -21.5 -56s-32.5 -21 -54.5 -21zM56 587c-22.667 0 -40.834 7 -54.501 21
s-20.5 32.667 -20.5 56s6.83301 42.166 20.5 56.499s31.834 21.5 54.501 21.5c21.333 0 39.166 -7.16699 53.499 -21.5s21.5 -33.166 21.5 -56.499s-7.16699 -42 -21.5 -56s-32.166 -21 -53.499 -21zM55 520h174v-520h-174v520z" />
    <glyph glyph-name="eth" unicode="&#xf0;" horiz-adv-x="595" 
d="M129 582l91.001 44c-13.333 8.66699 -27.166 17.167 -41.499 25.5s-29.5 16.166 -45.5 23.499l71 82c50 -20.667 95.667 -44.667 137 -72l119 58l41 -79l-83 -40c46 -44 82.833 -94.667 110.5 -152s41.5 -122.333 41.5 -195v-22c0 -40 -6.66699 -76.5 -20 -109.5
s-32 -61.167 -56 -84.5s-52.333 -41.333 -85 -54s-68.334 -19 -107.001 -19h-9c-38.667 0 -74.334 6.16699 -107.001 18.5s-61 29.5 -85 51.5s-42.667 48 -56 78s-20 63 -20 99v20c0 36 6.33301 69 19 99s29.5 56 50.5 78s45.667 39.167 74 51.5s57.833 18.5 88.5 18.5h10
c36 0 68.667 -7.66699 98 -23c-18.667 30.667 -41.667 59.334 -69 86.001l-128 -61zM303.001 111c27.333 0 49.5 12 66.5 36s25.5 55.667 25.5 95v10c0 38.667 -8.5 70.167 -25.5 94.5s-39.167 36.5 -66.5 36.5h-6c-27.333 0 -49.333 -12.167 -66 -36.5
s-25 -55.833 -25 -94.5v-10c0 -39.333 8.33301 -71 25 -95s38.667 -36 66 -36h6z" />
    <glyph glyph-name="ntilde" unicode="&#xf1;" horiz-adv-x="620" 
d="M56 520h138.001c3.33301 -10.667 6.66602 -23.667 9.99902 -39s5.33301 -28.666 6 -39.999c22 28 48.833 50.167 80.5 66.5s66.167 24.5 103.5 24.5h4c55.333 0 98.333 -17.333 129 -52s46 -83.667 46 -147v-333h-174v294c0 33.333 -6 57.666 -18 72.999
s-30.333 23 -55 23h-4c-28 0 -50.333 -10.667 -67 -32s-25 -49 -25 -83v-275h-174v520zM96.001 662c12.667 25.333 30.835 45.333 54.502 60s49.5 22 77.5 22c14.667 0 29 -2 43 -6s31 -10.333 51 -19c13.333 -6 26.166 -11.333 38.499 -16s25.5 -7 39.5 -7
c31.333 0 55.333 12.333 72 37l50 -73c-14 -25.333 -32.667 -45.333 -56 -60s-49 -22 -77 -22c-13.333 0 -27 2.16699 -41 6.5s-33 11.833 -57 22.5c-14.667 6.66699 -27.834 11.667 -39.501 15s-23.167 5 -34.5 5c-32 0 -56 -12.667 -72 -38z" />
    <glyph glyph-name="ograve" unicode="&#xf2;" horiz-adv-x="604" 
d="M297 -12c-40 0 -76.667 6.33301 -110 19s-62 30.167 -86 52.5s-42.667 49.166 -56 80.499s-20 66 -20 104v32c0 38 6.66699 72.667 20 104s32 58.166 56 80.499s52.667 39.833 86 52.5s70 19 110 19h10c40 0 76.667 -6.33301 110 -19s62 -30.167 86 -52.5
s42.667 -49.166 56 -80.499s20 -66 20 -104v-32c0 -38 -6.66699 -72.667 -20 -104s-32 -58.166 -56 -80.499s-52.667 -39.833 -86 -52.5s-70 -19 -110 -19h-10zM307 111c28 0 50.333 12.667 67 38s25 60 25 104v22c0 41.333 -8.33301 74 -25 98s-39 36 -67 36h-10
c-28 0 -50.333 -12 -67 -36s-25 -56.667 -25 -98v-22c0 -44 8.33301 -78.667 25 -104s39 -38 67 -38h10zM171 748h146l58 -174h-127z" />
    <glyph glyph-name="oacute" unicode="&#xf3;" horiz-adv-x="604" 
d="M297 -12c-40 0 -76.667 6.33301 -110 19s-62 30.167 -86 52.5s-42.667 49.166 -56 80.499s-20 66 -20 104v32c0 38 6.66699 72.667 20 104s32 58.166 56 80.499s52.667 39.833 86 52.5s70 19 110 19h10c40 0 76.667 -6.33301 110 -19s62 -30.167 86 -52.5
s42.667 -49.166 56 -80.499s20 -66 20 -104v-32c0 -38 -6.66699 -72.667 -20 -104s-32 -58.166 -56 -80.499s-52.667 -39.833 -86 -52.5s-70 -19 -110 -19h-10zM307 111c28 0 50.333 12.667 67 38s25 60 25 104v22c0 41.333 -8.33301 74 -25 98s-39 36 -67 36h-10
c-28 0 -50.333 -12 -67 -36s-25 -56.667 -25 -98v-22c0 -44 8.33301 -78.667 25 -104s39 -38 67 -38h10zM229 574l58 173h146l-77 -173h-127z" />
    <glyph glyph-name="ocircumflex" unicode="&#xf4;" horiz-adv-x="604" 
d="M297 -12c-40 0 -76.667 6.33301 -110 19s-62 30.167 -86 52.5s-42.667 49.166 -56 80.499s-20 66 -20 104v32c0 38 6.66699 72.667 20 104s32 58.166 56 80.499s52.667 39.833 86 52.5s70 19 110 19h10c40 0 76.667 -6.33301 110 -19s62 -30.167 86 -52.5
s42.667 -49.166 56 -80.499s20 -66 20 -104v-32c0 -38 -6.66699 -72.667 -20 -104s-32 -58.166 -56 -80.499s-52.667 -39.833 -86 -52.5s-70 -19 -110 -19h-10zM307 111c28 0 50.333 12.667 67 38s25 60 25 104v22c0 41.333 -8.33301 74 -25 98s-39 36 -67 36h-10
c-28 0 -50.333 -12 -67 -36s-25 -56.667 -25 -98v-22c0 -44 8.33301 -78.667 25 -104s39 -38 67 -38h10zM360 585l-49 53h-18l-48 -53h-142l106 135h187l106 -135h-142z" />
    <glyph glyph-name="otilde" unicode="&#xf5;" horiz-adv-x="604" 
d="M297 -12c-40 0 -76.667 6.33301 -110 19s-62 30.167 -86 52.5s-42.667 49.166 -56 80.499s-20 66 -20 104v32c0 38 6.66699 72.667 20 104s32 58.166 56 80.499s52.667 39.833 86 52.5s70 19 110 19h10c40 0 76.667 -6.33301 110 -19s62 -30.167 86 -52.5
s42.667 -49.166 56 -80.499s20 -66 20 -104v-32c0 -38 -6.66699 -72.667 -20 -104s-32 -58.166 -56 -80.499s-52.667 -39.833 -86 -52.5s-70 -19 -110 -19h-10zM307 111c28 0 50.333 12.667 67 38s25 60 25 104v22c0 41.333 -8.33301 74 -25 98s-39 36 -67 36h-10
c-28 0 -50.333 -12 -67 -36s-25 -56.667 -25 -98v-22c0 -44 8.33301 -78.667 25 -104s39 -38 67 -38h10zM87 662c12.667 25.333 30.835 45.333 54.502 60s49.5 22 77.5 22c14.667 0 29 -2 43 -6s31 -10.333 51 -19c13.333 -6 26.166 -11.333 38.499 -16s25.5 -7 39.5 -7
c31.333 0 55.333 12.333 72 37l50 -73c-14 -25.333 -32.667 -45.333 -56 -60s-49 -22 -77 -22c-13.333 0 -27 2.16699 -41 6.5s-33 11.833 -57 22.5c-14.667 6.66699 -27.834 11.667 -39.501 15s-23.167 5 -34.5 5c-32 0 -56 -12.667 -72 -38z" />
    <glyph glyph-name="odieresis" unicode="&#xf6;" horiz-adv-x="604" 
d="M297 -12c-40 0 -76.667 6.33301 -110 19s-62 30.167 -86 52.5s-42.667 49.166 -56 80.499s-20 66 -20 104v32c0 38 6.66699 72.667 20 104s32 58.166 56 80.499s52.667 39.833 86 52.5s70 19 110 19h10c40 0 76.667 -6.33301 110 -19s62 -30.167 86 -52.5
s42.667 -49.166 56 -80.499s20 -66 20 -104v-32c0 -38 -6.66699 -72.667 -20 -104s-32 -58.166 -56 -80.499s-52.667 -39.833 -86 -52.5s-70 -19 -110 -19h-10zM307 111c28 0 50.333 12.667 67 38s25 60 25 104v22c0 41.333 -8.33301 74 -25 98s-39 36 -67 36h-10
c-28 0 -50.333 -12 -67 -36s-25 -56.667 -25 -98v-22c0 -44 8.33301 -78.667 25 -104s39 -38 67 -38h10zM413 591c-25.333 0 -45.5 6.83301 -60.5 20.5s-22.5 32.167 -22.5 55.5s7.5 42 22.5 56s35.167 21 60.5 21s46 -7 62 -21s24 -32.667 24 -56s-8 -41.833 -24 -55.5
s-36.667 -20.5 -62 -20.5zM189 591c-25.333 0 -45.833 6.83301 -61.5 20.5s-23.5 32.167 -23.5 55.5s7.83301 42 23.5 56s36.167 21 61.5 21c23.333 0 43.166 -7 59.499 -21s24.5 -32.667 24.5 -56s-8.16699 -41.833 -24.5 -55.5s-36.166 -20.5 -59.499 -20.5z" />
    <glyph glyph-name="divide" unicode="&#xf7;" horiz-adv-x="594" 
d="M296 440c-24.667 0 -45.334 8.16699 -62.001 24.5s-25 35.833 -25 58.5v4c0 23.333 8.33301 42.666 25 57.999s37.334 23 62.001 23c24 0 44.667 -7.66699 62 -23s26 -34.666 26 -57.999v-4c0 -11.333 -2.33301 -22 -7 -32s-11 -18.833 -19 -26.5
s-17.333 -13.667 -28 -18s-22 -6.5 -34 -6.5zM42 394h510v-138h-510v138zM296 40c-24.667 0 -45.334 8.16699 -62.001 24.5s-25 36.166 -25 59.499v4c0 23.333 8.33301 42.833 25 58.5s37.334 23.5 62.001 23.5c12 0 23.333 -2.16699 34 -6.5s20.167 -10.166 28.5 -17.499
s14.833 -16 19.5 -26s7 -20.667 7 -32v-4c0 -12 -2.33301 -23 -7 -33s-11.167 -18.833 -19.5 -26.5s-17.833 -13.667 -28.5 -18s-22 -6.5 -34 -6.5z" />
    <glyph glyph-name="oslash" unicode="&#xf8;" horiz-adv-x="604" 
d="M112 49c-28 23.333 -49.499 51.501 -64.499 84.501s-22.5 69.833 -22.5 110.5v32c0 38 6.66699 72.667 20 104s32 58.166 56 80.499s52.667 39.833 86 52.5s70 19 110 19h10c35.333 0 67 -4.33301 95 -13l24 41h120l-52 -90c27.333 -23.333 48.333 -51.333 63 -84
s22 -69.334 22 -110.001v-32c0 -38 -6.66699 -72.667 -20 -104s-32 -58.166 -56 -80.499s-52.667 -39.833 -86 -52.5s-70 -19 -110 -19h-10c-16.667 0 -32.834 1 -48.501 3s-30.5 5.33301 -44.5 10l-27 -43h-118zM348.001 407.001c-12.667 5.33301 -26 8 -40 8h-12
c-32.667 0 -58.667 -12.5 -78 -37.5s-29 -59.167 -29 -102.5v-22c0 -30.667 4.33301 -56.667 13 -78zM308.001 105.001c32.667 0 58.667 13.167 78 39.5s29 62.5 29 108.5v22c0 27.333 -4 51 -12 71l-146 -233c12 -5.33301 25 -8 39 -8h12z" />
    <glyph glyph-name="ugrave" unicode="&#xf9;" horiz-adv-x="613" 
d="M221 -12c-55.333 0 -98.167 17.333 -128.5 52s-45.5 83.667 -45.5 147v333h174v-294c0 -64 24 -96 72 -96h2c28 0 49.833 10.667 65.5 32s23.5 49 23.5 83v275h174v-520h-138c-3.33301 10 -6.5 22.5 -9.5 37.5s-4.83301 28.5 -5.5 40.5c-22 -28 -48.5 -50 -79.5 -66
s-64.833 -24 -101.5 -24h-3zM170.999 748h146l58 -174h-127z" />
    <glyph glyph-name="uacute" unicode="&#xfa;" horiz-adv-x="613" 
d="M221 -12c-55.333 0 -98.167 17.333 -128.5 52s-45.5 83.667 -45.5 147v333h174v-294c0 -64 24 -96 72 -96h2c28 0 49.833 10.667 65.5 32s23.5 49 23.5 83v275h174v-520h-138c-3.33301 10 -6.5 22.5 -9.5 37.5s-4.83301 28.5 -5.5 40.5c-22 -28 -48.5 -50 -79.5 -66
s-64.833 -24 -101.5 -24h-3zM228.999 574l58 173h146l-77 -173h-127z" />
    <glyph glyph-name="ucircumflex" unicode="&#xfb;" horiz-adv-x="613" 
d="M221 -12c-55.333 0 -98.167 17.333 -128.5 52s-45.5 83.667 -45.5 147v333h174v-294c0 -64 24 -96 72 -96h2c28 0 49.833 10.667 65.5 32s23.5 49 23.5 83v275h174v-520h-138c-3.33301 10 -6.5 22.5 -9.5 37.5s-4.83301 28.5 -5.5 40.5c-22 -28 -48.5 -50 -79.5 -66
s-64.833 -24 -101.5 -24h-3zM358.999 585l-49 53h-18l-48 -53h-142l106 135h187l106 -135h-142z" />
    <glyph glyph-name="udieresis" unicode="&#xfc;" horiz-adv-x="613" 
d="M221 -12c-55.333 0 -98.167 17.333 -128.5 52s-45.5 83.667 -45.5 147v333h174v-294c0 -64 24 -96 72 -96h2c28 0 49.833 10.667 65.5 32s23.5 49 23.5 83v275h174v-520h-138c-3.33301 10 -6.5 22.5 -9.5 37.5s-4.83301 28.5 -5.5 40.5c-22 -28 -48.5 -50 -79.5 -66
s-64.833 -24 -101.5 -24h-3zM412.999 591c-25.333 0 -45.5 6.83301 -60.5 20.5s-22.5 32.167 -22.5 55.5s7.5 42 22.5 56s35.167 21 60.5 21s46 -7 62 -21s24 -32.667 24 -56s-8 -41.833 -24 -55.5s-36.667 -20.5 -62 -20.5zM188.999 591
c-25.333 0 -45.833 6.83301 -61.5 20.5s-23.5 32.167 -23.5 55.5s7.83301 42 23.5 56s36.167 21 61.5 21c23.333 0 43.166 -7 59.499 -21s24.5 -32.667 24.5 -56s-8.16699 -41.833 -24.5 -55.5s-36.166 -20.5 -59.499 -20.5z" />
    <glyph glyph-name="yacute" unicode="&#xfd;" horiz-adv-x="560" 
d="M163 -206c-18.667 0 -37.834 1.49902 -57.501 4.49902s-37.5 8.16699 -53.5 15.5v145c10.667 -7.33301 22.834 -13.333 36.501 -18s28.167 -7 43.5 -7s29.833 3.5 43.5 10.5s25.167 18.5 34.5 34.5l-208 541h178l116 -364h7l85 364h173l-172 -549
c-18 -57.333 -45.667 -101.166 -83 -131.499s-85 -45.5 -143 -45.5zM213 573.999l58 173h146l-77 -173h-127z" />
    <glyph glyph-name="thorn" unicode="&#xfe;" horiz-adv-x="638" 
d="M55 720h174v-239c19.333 16 40.833 28.5 64.5 37.5s49.5 13.5 77.5 13.5h10c33.333 0 64.166 -6.5 92.499 -19.5s52.833 -31 73.5 -54s36.834 -50.167 48.501 -81.5s17.5 -65 17.5 -101v-32c0 -36 -5.83301 -69.667 -17.5 -101s-27.834 -58.5 -48.501 -81.5
s-45.167 -41 -73.5 -54s-59.166 -19.5 -92.499 -19.5h-10c-28 0 -53.833 4.5 -77.5 13.5s-45.167 21.5 -64.5 37.5v-229h-174v910zM337 123c29.333 0 52.666 11.833 69.999 35.5s26 54.167 26 91.5v20c0 37.333 -8.66699 67.833 -26 91.5s-40.666 35.5 -69.999 35.5h-11
c-28.667 0 -52 -11.833 -70 -35.5s-27 -54.167 -27 -91.5v-20c0 -37.333 9 -67.833 27 -91.5s41.333 -35.5 70 -35.5h11z" />
    <glyph glyph-name="ydieresis" unicode="&#xff;" horiz-adv-x="560" 
d="M163 -206c-18.667 0 -37.834 1.49902 -57.501 4.49902s-37.5 8.16699 -53.5 15.5v145c10.667 -7.33301 22.834 -13.333 36.501 -18s28.167 -7 43.5 -7s29.833 3.5 43.5 10.5s25.167 18.5 34.5 34.5l-208 541h178l116 -364h7l85 364h173l-172 -549
c-18 -57.333 -45.667 -101.166 -83 -131.499s-85 -45.5 -143 -45.5zM397 590.999c-25.333 0 -45.5 6.83301 -60.5 20.5s-22.5 32.167 -22.5 55.5s7.5 42 22.5 56s35.167 21 60.5 21s46 -7 62 -21s24 -32.667 24 -56s-8 -41.833 -24 -55.5s-36.667 -20.5 -62 -20.5z
M173 590.999c-25.333 0 -45.833 6.83301 -61.5 20.5s-23.5 32.167 -23.5 55.5s7.83301 42 23.5 56s36.167 21 61.5 21c23.333 0 43.166 -7 59.499 -21s24.5 -32.667 24.5 -56s-8.16699 -41.833 -24.5 -55.5s-36.166 -20.5 -59.499 -20.5z" />
    <glyph glyph-name="Amacron" unicode="&#x100;" horiz-adv-x="661" 
d="M217 700h228l226 -700h-193l-36 128h-224l-36 -128h-193zM407 269l-70 239h-13l-70 -239h153zM175 892h312v-112h-312v112z" />
    <glyph glyph-name="amacron" unicode="&#x101;" horiz-adv-x="567" 
d="M201 -12c-25.333 0 -48.6621 3.66699 -69.9951 11s-39.833 17.666 -55.5 30.999s-27.834 29.5 -36.501 48.5s-13 39.833 -13 62.5v13c0 56 23.5 98 70.5 126s120.167 42 219.5 42h35v9c0 22 -6.33301 39.5 -19 52.5s-32.334 19.5 -59.001 19.5h-4
c-23.333 0 -47.833 -3.83301 -73.5 -11.5s-52.834 -20.167 -81.501 -37.5l-63 115c31.333 19.333 67.166 34.666 107.499 45.999s81.166 17 122.499 17h11c68.667 0 122.667 -18.333 162 -55s59 -88.334 59 -155.001v-192c0 -23.333 1.66699 -45.166 5 -65.499
s7.66602 -41.833 12.999 -64.5h-160c-2.66699 8 -5.16699 16.833 -7.5 26.5s-4.16602 19.834 -5.49902 30.501c-17.333 -21.333 -39.833 -38.166 -67.5 -50.499s-57.5 -18.5 -89.5 -18.5zM249.004 114c18 0 36 4 54 12s34 19.667 48 35v69h-28
c-88.667 0 -133 -21.333 -133 -64v-5c0 -13.333 5.5 -24.5 16.5 -33.5s25.167 -13.5 42.5 -13.5zM124.004 731h312v-120h-312v120z" />
    <glyph glyph-name="Abreve" unicode="&#x102;" horiz-adv-x="661" 
d="M217 700h228l226 -700h-193l-36 128h-224l-36 -128h-193zM407 269l-70 239h-13l-70 -239h153zM286 900c0 -13.333 3.66699 -24 11 -32s18.333 -12 33 -12s25.667 4 33 12s11 18.667 11 32h135c0 -44.667 -16.167 -80.667 -48.5 -108s-75.833 -41 -130.5 -41
c-55.333 0 -99 13.667 -131 41s-48 63.333 -48 108h135z" />
    <glyph glyph-name="abreve" unicode="&#x103;" horiz-adv-x="567" 
d="M201 -12c-25.333 0 -48.6621 3.66699 -69.9951 11s-39.833 17.666 -55.5 30.999s-27.834 29.5 -36.501 48.5s-13 39.833 -13 62.5v13c0 56 23.5 98 70.5 126s120.167 42 219.5 42h35v9c0 22 -6.33301 39.5 -19 52.5s-32.334 19.5 -59.001 19.5h-4
c-23.333 0 -47.833 -3.83301 -73.5 -11.5s-52.834 -20.167 -81.501 -37.5l-63 115c31.333 19.333 67.166 34.666 107.499 45.999s81.166 17 122.499 17h11c68.667 0 122.667 -18.333 162 -55s59 -88.334 59 -155.001v-192c0 -23.333 1.66699 -45.166 5 -65.499
s7.66602 -41.833 12.999 -64.5h-160c-2.66699 8 -5.16699 16.833 -7.5 26.5s-4.16602 19.834 -5.49902 30.501c-17.333 -21.333 -39.833 -38.166 -67.5 -50.499s-57.5 -18.5 -89.5 -18.5zM249.004 114c18 0 36 4 54 12s34 19.667 48 35v69h-28
c-88.667 0 -133 -21.333 -133 -64v-5c0 -13.333 5.5 -24.5 16.5 -33.5s25.167 -13.5 42.5 -13.5zM234.004 720c0 -13.333 3.66699 -24 11 -32s18.333 -12 33 -12s25.667 4 33 12s11 18.667 11 32h135c0 -44.667 -16 -80.667 -48 -108s-75.667 -41 -131 -41
c-54.667 0 -98.167 13.667 -130.5 41s-48.5 63.333 -48.5 108h135z" />
    <glyph glyph-name="Aogonek" unicode="&#x104;" horiz-adv-x="661" 
d="M217 700h228l226 -700h-193l-36 128h-224l-36 -128h-193zM407 269l-70 239h-13l-70 -239h153zM624 -190c-32 0 -57.334 7.66797 -76.001 23.001s-28 37.333 -28 66c0 28 8.5 54.667 25.5 80s39.5 46.666 67.5 63.999l58 -43c-15.333 -15.333 -26.166 -29.5 -32.499 -42.5
s-9.5 -25.167 -9.5 -36.5c0 -17.333 7.33301 -26 22 -26c8 0 14.667 2 20 6v-84c-16 -4.66699 -31.667 -7 -47 -7z" />
    <glyph glyph-name="aogonek" unicode="&#x105;" horiz-adv-x="567" 
d="M201 -12c-25.333 0 -48.6621 3.66699 -69.9951 11s-39.833 17.666 -55.5 30.999s-27.834 29.5 -36.501 48.5s-13 39.833 -13 62.5v13c0 56 23.5 98 70.5 126s120.167 42 219.5 42h35v9c0 22 -6.33301 39.5 -19 52.5s-32.334 19.5 -59.001 19.5h-4
c-23.333 0 -47.833 -3.83301 -73.5 -11.5s-52.834 -20.167 -81.501 -37.5l-63 115c31.333 19.333 67.166 34.666 107.499 45.999s81.166 17 122.499 17h11c68.667 0 122.667 -18.333 162 -55s59 -88.334 59 -155.001v-192c0 -23.333 1.66699 -45.166 5 -65.499
s7.66602 -41.833 12.999 -64.5h-160c-2.66699 8 -5.16699 16.833 -7.5 26.5s-4.16602 19.834 -5.49902 30.501c-17.333 -21.333 -39.833 -38.166 -67.5 -50.499s-57.5 -18.5 -89.5 -18.5zM249.004 114c18 0 36 4 54 12s34 19.667 48 35v69h-28
c-88.667 0 -133 -21.333 -133 -64v-5c0 -13.333 5.5 -24.5 16.5 -33.5s25.167 -13.5 42.5 -13.5zM484.004 -190c-32 0 -57.334 7.66797 -76.001 23.001s-28 37.333 -28 66c0 28 8.5 54.667 25.5 80s39.5 46.666 67.5 63.999l58 -43
c-15.333 -15.333 -26.166 -29.5 -32.499 -42.5s-9.5 -25.167 -9.5 -36.5c0 -17.333 7.33301 -26 22 -26c8 0 14.667 2 20 6v-84c-16 -4.66699 -31.667 -7 -47 -7z" />
    <glyph glyph-name="Cacute" unicode="&#x106;" horiz-adv-x="689" 
d="M379 -14c-50.667 0 -97.168 8.6709 -139.501 26.0039s-78.666 41.666 -108.999 72.999s-54 68.666 -71 111.999s-25.5 91 -25.5 143v19c0 51.333 8.5 98.666 25.5 141.999s40.667 80.666 71 111.999s66.5 55.833 108.5 73.5s88 26.5 138 26.5h5
c58.667 0 112.334 -12.833 161.001 -38.5s88.667 -62.5 120 -110.5l-130 -101c-17.333 29.333 -37.833 52.166 -61.5 68.499s-51.167 24.5 -82.5 24.5h-9c-22.667 0 -43.667 -4.66699 -63 -14s-36 -22.666 -50 -39.999s-25 -38 -33 -62s-12 -51 -12 -81v-19
c0 -30 3.83301 -57 11.5 -81s18.5 -44.5 32.5 -61.5s30.667 -30.167 50 -39.5s40.666 -14 63.999 -14h12c31.333 0 59 8.16699 83 24.5s44.333 38.5 61 66.5l129 -100c-30.667 -48 -70 -84.833 -118 -110.5s-102 -38.5 -162 -38.5h-6zM442.999 759.004h-131l59 158h158z" />
    <glyph glyph-name="cacute" unicode="&#x107;" horiz-adv-x="523" 
d="M284 -11c-38 0 -73.001 6.5 -105.001 19.5s-59.333 31 -82 54s-40.334 50.333 -53.001 82s-19 65.834 -19 102.501v29c0 36.667 6.5 70.5 19.5 101.5s30.833 57.833 53.5 80.5s49.5 40.5 80.5 53.5s64.5 19.5 100.5 19.5h9c92.667 0 166.334 -36.667 221.001 -110
l-120 -88c-15.333 25.333 -30.166 43.333 -44.499 54s-30.833 16 -49.5 16h-5c-27.333 0 -48.333 -11.333 -63 -34s-22 -56.334 -22 -101.001v-16c0 -42 8 -74.5 24 -97.5s37.333 -34.5 64 -34.5h9c34.667 0 65.667 24.333 93 73l118 -96c-26.667 -36 -58 -63 -94 -81
s-78 -27 -126 -27h-9zM211.999 574l58 173h146l-77 -173h-127z" />
    <glyph glyph-name="Ccircumflex" unicode="&#x108;" horiz-adv-x="689" 
d="M379 -14c-50.667 0 -97.168 8.6709 -139.501 26.0039s-78.666 41.666 -108.999 72.999s-54 68.666 -71 111.999s-25.5 91 -25.5 143v19c0 51.333 8.5 98.666 25.5 141.999s40.667 80.666 71 111.999s66.5 55.833 108.5 73.5s88 26.5 138 26.5h5
c58.667 0 112.334 -12.833 161.001 -38.5s88.667 -62.5 120 -110.5l-130 -101c-17.333 29.333 -37.833 52.166 -61.5 68.499s-51.167 24.5 -82.5 24.5h-9c-22.667 0 -43.667 -4.66699 -63 -14s-36 -22.666 -50 -39.999s-25 -38 -33 -62s-12 -51 -12 -81v-19
c0 -30 3.83301 -57 11.5 -81s18.5 -44.5 32.5 -61.5s30.667 -30.167 50 -39.5s40.666 -14 63.999 -14h12c31.333 0 59 8.16699 83 24.5s44.333 38.5 61 66.5l129 -100c-30.667 -48 -70 -84.833 -118 -110.5s-102 -38.5 -162 -38.5h-6zM288.999 900.004h186l104 -131h-144
l-44 49h-18l-44 -49h-144z" />
    <glyph glyph-name="ccircumflex" unicode="&#x109;" horiz-adv-x="523" 
d="M284 -11c-38 0 -73.001 6.5 -105.001 19.5s-59.333 31 -82 54s-40.334 50.333 -53.001 82s-19 65.834 -19 102.501v29c0 36.667 6.5 70.5 19.5 101.5s30.833 57.833 53.5 80.5s49.5 40.5 80.5 53.5s64.5 19.5 100.5 19.5h9c92.667 0 166.334 -36.667 221.001 -110
l-120 -88c-15.333 25.333 -30.166 43.333 -44.499 54s-30.833 16 -49.5 16h-5c-27.333 0 -48.333 -11.333 -63 -34s-22 -56.334 -22 -101.001v-16c0 -42 8 -74.5 24 -97.5s37.333 -34.5 64 -34.5h9c34.667 0 65.667 24.333 93 73l118 -96c-26.667 -36 -58 -63 -94 -81
s-78 -27 -126 -27h-9zM341.999 585l-49 53h-18l-48 -53h-142l106 135h187l106 -135h-142z" />
    <glyph glyph-name="Cdotaccent" unicode="&#x10a;" horiz-adv-x="689" 
d="M379 -14c-50.667 0 -97.168 8.6709 -139.501 26.0039s-78.666 41.666 -108.999 72.999s-54 68.666 -71 111.999s-25.5 91 -25.5 143v19c0 51.333 8.5 98.666 25.5 141.999s40.667 80.666 71 111.999s66.5 55.833 108.5 73.5s88 26.5 138 26.5h5
c58.667 0 112.334 -12.833 161.001 -38.5s88.667 -62.5 120 -110.5l-130 -101c-17.333 29.333 -37.833 52.166 -61.5 68.499s-51.167 24.5 -82.5 24.5h-9c-22.667 0 -43.667 -4.66699 -63 -14s-36 -22.666 -50 -39.999s-25 -38 -33 -62s-12 -51 -12 -81v-19
c0 -30 3.83301 -57 11.5 -81s18.5 -44.5 32.5 -61.5s30.667 -30.167 50 -39.5s40.666 -14 63.999 -14h12c31.333 0 59 8.16699 83 24.5s44.333 38.5 61 66.5l129 -100c-30.667 -48 -70 -84.833 -118 -110.5s-102 -38.5 -162 -38.5h-6zM380.999 758.004
c-28.667 0 -51.667 7.66699 -69 23s-26 35.333 -26 60c0 25.333 8.66699 45.666 26 60.999s40.333 23 69 23c30 0 54 -7.66699 72 -23s27 -35.666 27 -60.999c0 -24.667 -9 -44.667 -27 -60s-42 -23 -72 -23z" />
    <glyph glyph-name="cdotaccent" unicode="&#x10b;" horiz-adv-x="523" 
d="M284 -11c-38 0 -73.001 6.5 -105.001 19.5s-59.333 31 -82 54s-40.334 50.333 -53.001 82s-19 65.834 -19 102.501v29c0 36.667 6.5 70.5 19.5 101.5s30.833 57.833 53.5 80.5s49.5 40.5 80.5 53.5s64.5 19.5 100.5 19.5h9c92.667 0 166.334 -36.667 221.001 -110
l-120 -88c-15.333 25.333 -30.166 43.333 -44.499 54s-30.833 16 -49.5 16h-5c-27.333 0 -48.333 -11.333 -63 -34s-22 -56.334 -22 -101.001v-16c0 -42 8 -74.5 24 -97.5s37.333 -34.5 64 -34.5h9c34.667 0 65.667 24.333 93 73l118 -96c-26.667 -36 -58 -63 -94 -81
s-78 -27 -126 -27h-9zM284.999 583c-29.333 0 -52.833 7.66699 -70.5 23s-26.5 35.666 -26.5 60.999c0 26 8.83301 46.833 26.5 62.5s41.167 23.5 70.5 23.5c30 0 54.333 -7.83301 73 -23.5s28 -36.5 28 -62.5c0 -25.333 -9.33301 -45.666 -28 -60.999s-43 -23 -73 -23z" />
    <glyph glyph-name="Ccaron" unicode="&#x10c;" horiz-adv-x="689" 
d="M379 -14c-50.667 0 -97.168 8.6709 -139.501 26.0039s-78.666 41.666 -108.999 72.999s-54 68.666 -71 111.999s-25.5 91 -25.5 143v19c0 51.333 8.5 98.666 25.5 141.999s40.667 80.666 71 111.999s66.5 55.833 108.5 73.5s88 26.5 138 26.5h5
c58.667 0 112.334 -12.833 161.001 -38.5s88.667 -62.5 120 -110.5l-130 -101c-17.333 29.333 -37.833 52.166 -61.5 68.499s-51.167 24.5 -82.5 24.5h-9c-22.667 0 -43.667 -4.66699 -63 -14s-36 -22.666 -50 -39.999s-25 -38 -33 -62s-12 -51 -12 -81v-19
c0 -30 3.83301 -57 11.5 -81s18.5 -44.5 32.5 -61.5s30.667 -30.167 50 -39.5s40.666 -14 63.999 -14h12c31.333 0 59 8.16699 83 24.5s44.333 38.5 61 66.5l129 -100c-30.667 -48 -70 -84.833 -118 -110.5s-102 -38.5 -162 -38.5h-6zM185.999 900.004h144l44 -48h18l44 48
h144l-104 -131h-186z" />
    <glyph glyph-name="ccaron" unicode="&#x10d;" horiz-adv-x="523" 
d="M284 -11c-38 0 -73.001 6.5 -105.001 19.5s-59.333 31 -82 54s-40.334 50.333 -53.001 82s-19 65.834 -19 102.501v29c0 36.667 6.5 70.5 19.5 101.5s30.833 57.833 53.5 80.5s49.5 40.5 80.5 53.5s64.5 19.5 100.5 19.5h9c92.667 0 166.334 -36.667 221.001 -110
l-120 -88c-15.333 25.333 -30.166 43.333 -44.499 54s-30.833 16 -49.5 16h-5c-27.333 0 -48.333 -11.333 -63 -34s-22 -56.334 -22 -101.001v-16c0 -42 8 -74.5 24 -97.5s37.333 -34.5 64 -34.5h9c34.667 0 65.667 24.333 93 73l118 -96c-26.667 -36 -58 -63 -94 -81
s-78 -27 -126 -27h-9zM67.999 720h142l48 -52h18l49 52h142l-106 -135h-187z" />
    <glyph glyph-name="Dcaron" unicode="&#x10e;" horiz-adv-x="708" 
d="M65 700l244 -0.000976562c55.333 0 105.5 -8 150.5 -24s83.333 -38.833 115 -68.5s56.167 -65.167 73.5 -106.5s26 -87.666 26 -138.999v-20c0 -50.667 -8.66699 -97 -26 -139s-41.833 -78 -73.5 -108s-70 -53.333 -115 -70s-95.167 -25 -150.5 -25h-244v700z
M312 155.999c55.333 0 98.166 16.833 128.499 50.5s45.5 79.167 45.5 136.5v20c0 56 -15.167 100.167 -45.5 132.5s-73.166 48.5 -128.499 48.5h-65v-388h65zM143 896.999h144l44 -48h18l44 48h144l-104 -131h-186z" />
    <glyph glyph-name="dcaron" unicode="&#x10f;" horiz-adv-x="671" 
d="M253 -12c-34 0 -65.0029 6.16797 -93.0029 18.501s-52 29.666 -72 51.999s-35.5 49.333 -46.5 81s-16.5 66.5 -16.5 104.5v32c0 38 5.5 72.833 16.5 104.5s26.5 58.667 46.5 81s44 39.666 72 51.999s59 18.5 93 18.5h8c54 0 100 -15.333 138 -46v234h174v-720h-138
c-2.66699 7.33301 -5.16699 15.833 -7.5 25.5s-4.16602 19.167 -5.49902 28.5c-19.333 -21.333 -42.666 -37.666 -69.999 -48.999s-57.666 -17 -90.999 -17h-8zM307.997 111.001c28 0 50.333 12.667 67 38s25 60 25 104v22c0 41.333 -8.33301 74 -25 98s-39 36 -67 36h-10
c-28 0 -50.5 -12 -67.5 -36s-25.5 -56.667 -25.5 -98v-22c0 -44 8.5 -78.667 25.5 -104s39.5 -38 67.5 -38h10zM638.997 720.001h138l-40 -176h-104z" />
    <glyph glyph-name="Dcroat" unicode="&#x110;" horiz-adv-x="724" 
d="M80 276l-61 -0.000976562v156h61v268h244c55.333 0 105.5 -8 150.5 -24s83.333 -38.833 115 -68.5s56.167 -65.167 73.5 -106.5s26 -87.666 26 -138.999v-20c0 -50.667 -8.66699 -97 -26 -139s-41.833 -78 -73.5 -108s-70 -53.333 -115 -70s-95.167 -25 -150.5 -25h-244
v276zM327 155.999c54.667 0 97.332 16.833 127.999 50.5s46 79.167 46 136.5v20c0 56 -15.167 100.167 -45.5 132.5s-73.166 48.5 -128.499 48.5h-65v-112h107v-156h-107v-120h65z" />
    <glyph glyph-name="dcroat" unicode="&#x111;" horiz-adv-x="631" 
d="M253 -12c-34 0 -65.002 6.16797 -93.002 18.501s-52 29.666 -72 51.999s-35.5 49.333 -46.5 81s-16.5 66.5 -16.5 104.5v32c0 38 5.5 72.833 16.5 104.5s26.5 58.667 46.5 81s44 39.666 72 51.999s59 18.5 93 18.5h9c28 0 54 -4.33301 78 -13s45.333 -20.667 64 -36v87
h-119v110h119v40h170v-40h54v-110h-54v-570h-139c-3.33301 7.33301 -6 15.833 -8 25.5s-3.66699 19.167 -5 28.5c-19.333 -21.333 -42.666 -37.666 -69.999 -48.999s-57.666 -17 -90.999 -17h-8zM306.998 123.001c28.667 0 51.334 11.333 68.001 34s25 53.667 25 93v20
c0 39.333 -8.33301 70.333 -25 93s-39.334 34 -68.001 34h-10c-28.667 0 -51 -11.333 -67 -34s-24 -53.667 -24 -93v-20c0 -39.333 8 -70.333 24 -93s38.333 -34 67 -34h10z" />
    <glyph glyph-name="Emacron" unicode="&#x112;" horiz-adv-x="559" 
d="M65 700h434v-156h-253v-122h233v-146h-233v-120h263v-156h-444v700zM132 892h312v-112h-312v112z" />
    <glyph glyph-name="emacron" unicode="&#x113;" 
d="M293 -12c-40 0 -76.4971 6.33398 -109.497 19.001s-61.333 30.5 -85 53.5s-41.834 50.5 -54.501 82.5s-19 67.667 -19 107v20c0 38 6.5 73.167 19.5 105.5s31 60 54 83s50.333 41 82 54s66.5 19.5 104.5 19.5h14c35.333 0 68 -5.83301 98 -17.5s55.833 -28 77.5 -49
s38.5 -46 50.5 -75s18 -60.5 18 -94.5v-79h-351v-1c3.33301 -30 15 -53.167 35 -69.5s46 -24.5 78 -24.5h9c27.333 0 52.166 5.5 74.499 16.5s41.833 24.167 58.5 39.5l78 -111c-12.667 -10.667 -27.334 -20.834 -44.001 -30.501s-34.5 -18.167 -53.5 -25.5
s-38.333 -13 -58 -17s-39.167 -6 -58.5 -6h-18zM378.003 314.001l0.000976562 5c-0.666992 30 -8.33398 52.833 -23.001 68.5s-34 23.5 -58 23.5h-9c-24 0 -43.833 -8.33301 -59.5 -25s-26.5 -40.667 -32.5 -72h182zM138.004 731.001h312v-120h-312v120z" />
    <glyph glyph-name="Ebreve" unicode="&#x114;" horiz-adv-x="559" 
d="M65 700h434v-156h-253v-122h233v-146h-233v-120h263v-156h-444v700zM244 900c0 -13.333 3.66699 -24 11 -32s18.333 -12 33 -12s25.667 4 33 12s11 18.667 11 32h135c0 -44.667 -16.167 -80.667 -48.5 -108s-75.833 -41 -130.5 -41c-55.333 0 -99 13.667 -131 41
s-48 63.333 -48 108h135z" />
    <glyph glyph-name="ebreve" unicode="&#x115;" 
d="M293 -12c-40 0 -76.4971 6.33398 -109.497 19.001s-61.333 30.5 -85 53.5s-41.834 50.5 -54.501 82.5s-19 67.667 -19 107v20c0 38 6.5 73.167 19.5 105.5s31 60 54 83s50.333 41 82 54s66.5 19.5 104.5 19.5h14c35.333 0 68 -5.83301 98 -17.5s55.833 -28 77.5 -49
s38.5 -46 50.5 -75s18 -60.5 18 -94.5v-79h-351v-1c3.33301 -30 15 -53.167 35 -69.5s46 -24.5 78 -24.5h9c27.333 0 52.166 5.5 74.499 16.5s41.833 24.167 58.5 39.5l78 -111c-12.667 -10.667 -27.334 -20.834 -44.001 -30.501s-34.5 -18.167 -53.5 -25.5
s-38.333 -13 -58 -17s-39.167 -6 -58.5 -6h-18zM378.003 314.001l0.000976562 5c-0.666992 30 -8.33398 52.833 -23.001 68.5s-34 23.5 -58 23.5h-9c-24 0 -43.833 -8.33301 -59.5 -25s-26.5 -40.667 -32.5 -72h182zM248.004 720.001c0 -13.333 3.66699 -24 11 -32
s18.333 -12 33 -12s25.667 4 33 12s11 18.667 11 32h135c0 -44.667 -16 -80.667 -48 -108s-75.667 -41 -131 -41c-54.667 0 -98.167 13.667 -130.5 41s-48.5 63.333 -48.5 108h135z" />
    <glyph glyph-name="Edotaccent" unicode="&#x116;" horiz-adv-x="559" 
d="M65 700h434v-156h-253v-122h233v-146h-233v-120h263v-156h-444v700zM286 758c-28.667 0 -51.667 7.66699 -69 23s-26 35.333 -26 60c0 25.333 8.66699 45.666 26 60.999s40.333 23 69 23c30 0 54 -7.66699 72 -23s27 -35.666 27 -60.999c0 -24.667 -9 -44.667 -27 -60
s-42 -23 -72 -23z" />
    <glyph glyph-name="edotaccent" unicode="&#x117;" 
d="M293 -12c-40 0 -76.4971 6.33398 -109.497 19.001s-61.333 30.5 -85 53.5s-41.834 50.5 -54.501 82.5s-19 67.667 -19 107v20c0 38 6.5 73.167 19.5 105.5s31 60 54 83s50.333 41 82 54s66.5 19.5 104.5 19.5h14c35.333 0 68 -5.83301 98 -17.5s55.833 -28 77.5 -49
s38.5 -46 50.5 -75s18 -60.5 18 -94.5v-79h-351v-1c3.33301 -30 15 -53.167 35 -69.5s46 -24.5 78 -24.5h9c27.333 0 52.166 5.5 74.499 16.5s41.833 24.167 58.5 39.5l78 -111c-12.667 -10.667 -27.334 -20.834 -44.001 -30.501s-34.5 -18.167 -53.5 -25.5
s-38.333 -13 -58 -17s-39.167 -6 -58.5 -6h-18zM378.003 314.001l0.000976562 5c-0.666992 30 -8.33398 52.833 -23.001 68.5s-34 23.5 -58 23.5h-9c-24 0 -43.833 -8.33301 -59.5 -25s-26.5 -40.667 -32.5 -72h182zM294.004 583.001c-29.333 0 -52.833 7.66699 -70.5 23
s-26.5 35.666 -26.5 60.999c0 26 8.83301 46.833 26.5 62.5s41.167 23.5 70.5 23.5c30 0 54.333 -7.83301 73 -23.5s28 -36.5 28 -62.5c0 -25.333 -9.33301 -45.666 -28 -60.999s-43 -23 -73 -23z" />
    <glyph glyph-name="Eogonek" unicode="&#x118;" horiz-adv-x="559" 
d="M65 700h434v-156h-253v-122h233v-146h-233v-120h263v-156h-444v700zM463 -190c-32 0 -57.334 7.66797 -76.001 23.001s-28 37.333 -28 66c0 28 8.5 54.667 25.5 80s39.5 46.666 67.5 63.999l58 -43c-15.333 -15.333 -26.166 -29.5 -32.499 -42.5s-9.5 -25.167 -9.5 -36.5
c0 -17.333 7.33301 -26 22 -26c8 0 14.667 2 20 6v-84c-16 -4.66699 -31.667 -7 -47 -7z" />
    <glyph glyph-name="eogonek" unicode="&#x119;" 
d="M525 67c-26 -23.333 -57.998 -42 -95.998 -56h1c-22.667 -7.33301 -42.334 -17.833 -59.001 -31.5s-25 -31.167 -25 -52.5c0 -10.667 2.16699 -18.667 6.5 -24s10.166 -8 17.499 -8c3.33301 0 6.83301 0.666992 10.5 2s6.83398 2.66602 9.50098 3.99902v-84
c-16 -4.66699 -31.667 -7 -47 -7c-32 0 -57.333 7.66699 -76 23s-28 37.333 -28 66c0 30 11 59.667 33 89c-37.333 2 -71.166 9.83301 -101.499 23.5s-56.333 31.834 -78 54.501s-38.334 49.5 -50.001 80.5s-17.5 65.5 -17.5 103.5v20c0 38 6.5 73.167 19.5 105.5
s31 60 54 83s50.333 41 82 54s66.5 19.5 104.5 19.5h14c35.333 0 68 -5.83301 98 -17.5s55.833 -28 77.5 -49s38.5 -46 50.5 -75s18 -60.5 18 -94.5v-79h-351c3.33301 -30 15 -53.333 35 -70s46 -25 78 -25h9c27.333 0 52.166 5.5 74.499 16.5s41.833 24.167 58.5 39.5z
M378.002 314l0.000976562 5c-0.666992 30 -8.33398 52.833 -23.001 68.5s-34 23.5 -58 23.5h-9c-24 0 -43.833 -8.33301 -59.5 -25s-26.5 -40.667 -32.5 -72h182z" />
    <glyph glyph-name="Ecaron" unicode="&#x11a;" horiz-adv-x="559" 
d="M65 700h434v-156h-253v-122h233v-146h-233v-120h263v-156h-444v700zM92 900h144l44 -48h18l44 48h144l-104 -131h-186z" />
    <glyph glyph-name="ecaron" unicode="&#x11b;" 
d="M293 -12c-40 0 -76.4971 6.33398 -109.497 19.001s-61.333 30.5 -85 53.5s-41.834 50.5 -54.501 82.5s-19 67.667 -19 107v20c0 38 6.5 73.167 19.5 105.5s31 60 54 83s50.333 41 82 54s66.5 19.5 104.5 19.5h14c35.333 0 68 -5.83301 98 -17.5s55.833 -28 77.5 -49
s38.5 -46 50.5 -75s18 -60.5 18 -94.5v-79h-351v-1c3.33301 -30 15 -53.167 35 -69.5s46 -24.5 78 -24.5h9c27.333 0 52.166 5.5 74.499 16.5s41.833 24.167 58.5 39.5l78 -111c-12.667 -10.667 -27.334 -20.834 -44.001 -30.501s-34.5 -18.167 -53.5 -25.5
s-38.333 -13 -58 -17s-39.167 -6 -58.5 -6h-18zM378.003 314.001l0.000976562 5c-0.666992 30 -8.33398 52.833 -23.001 68.5s-34 23.5 -58 23.5h-9c-24 0 -43.833 -8.33301 -59.5 -25s-26.5 -40.667 -32.5 -72h182zM85.0039 720.001h142l48 -52h18l49 52h142l-106 -135
h-187z" />
    <glyph glyph-name="Gcircumflex" unicode="&#x11c;" horiz-adv-x="738" 
d="M342 -12c-46.667 0 -88.9971 8.33594 -126.997 25.0029s-70.333 40.334 -97 71.001s-47.334 67.667 -62.001 111s-22 91.333 -22 144v19c0 52.667 8.33301 100.667 25 144s40.167 80.666 70.5 111.999s66.833 55.666 109.5 72.999s89.667 26 141 26h12
c58.667 0 112.834 -13.5 162.501 -40.5s91.5 -66.5 125.5 -118.5l-141 -90c-35.333 63.333 -83 95 -143 95h-12c-24.667 0 -47 -4.83301 -67 -14.5s-37 -23.334 -51 -41.001s-24.833 -38.834 -32.5 -63.501s-11.5 -51.667 -11.5 -81v-21c0 -60.667 14.667 -108.667 44 -144
s70 -53 122 -53h12c17.333 0 33.833 2.66699 49.5 8s29.167 12.333 40.5 21s20.333 18.167 27 28.5s10 20.833 10 31.5v11h-130v145h293v-386h-129c-4 6.66699 -7.83301 17.5 -11.5 32.5s-5.83398 29.5 -6.50098 43.5c-6.66699 -12 -16.334 -23.333 -29.001 -34
s-27.334 -20 -44.001 -28s-34.667 -14.333 -54 -19s-39 -7 -59 -7h-15zM303.003 900.003h186l104 -131h-144l-44 49h-18l-44 -49h-144z" />
    <glyph glyph-name="gcircumflex" unicode="&#x11d;" horiz-adv-x="557" 
d="M326 593l-42 45h-18l-43 -45h-142l100 127h187l100 -127h-142zM22 344c0 27.333 6 52.334 18 75.001s28.5 42.5 49.5 59.5s45.833 30.167 74.5 39.5s59.667 14 93 14h36c32 0 61.333 -4 88 -12c3.33301 10 6.83301 19.167 10.5 27.5s7.83398 15.833 12.501 22.5h153
l-65 -123c24 -30 36 -64.333 36 -103v-10c0 -26.667 -6 -51.5 -18 -74.5s-28.5 -42.833 -49.5 -59.5s-45.833 -29.834 -74.5 -39.501s-59.667 -14.5 -93 -14.5h-29v-44h48c34 0 65.333 -3.66699 94 -11s53.5 -17.666 74.5 -30.999s37.333 -29.333 49 -48s17.5 -39 17.5 -61
v-10c0 -22.667 -6 -43.334 -18 -62.001s-28.667 -34.834 -50 -48.501s-46.5 -24.334 -75.5 -32.001s-60.5 -11.5 -94.5 -11.5h-51c-34 0 -65.5 3.83301 -94.5 11.5s-54.167 18.334 -75.5 32.001s-38 29.834 -50 48.501s-18 39.334 -18 62.001v15c0 30 10.5 56.667 31.5 80
s49.167 41.333 84.5 54v82c-34.667 15.333 -62.334 37.166 -83.001 65.499s-31 60.5 -31 96.5v10zM191 326.001c0 -22 7.83301 -39.499 23.5 -52.499s33.5 -19.5 53.5 -19.5h15c19.333 0 37 6.66699 53 20s24 30.666 24 51.999v15c0 22 -8 39.5 -24 52.5
s-33.667 19.5 -53 19.5h-15c-20 0 -37.833 -6.5 -53.5 -19.5s-23.5 -30.5 -23.5 -52.5v-15zM192 -49.998c0 -12 6.66699 -22.498 20 -31.498s31.666 -13.5 54.999 -13.5h36c23.333 0 42.166 4.66699 56.499 14s21.5 19.666 21.5 30.999v12
c0 11.333 -7.16699 21.666 -21.5 30.999s-33.166 14 -56.499 14h-36c-23.333 0 -41.666 -4.5 -54.999 -13.5s-20 -19.5 -20 -31.5v-12z" />
    <glyph glyph-name="Gbreve" unicode="&#x11e;" horiz-adv-x="738" 
d="M342 -12c-46.667 0 -88.9971 8.33594 -126.997 25.0029s-70.333 40.334 -97 71.001s-47.334 67.667 -62.001 111s-22 91.333 -22 144v19c0 52.667 8.33301 100.667 25 144s40.167 80.666 70.5 111.999s66.833 55.666 109.5 72.999s89.667 26 141 26h12
c58.667 0 112.834 -13.5 162.501 -40.5s91.5 -66.5 125.5 -118.5l-141 -90c-35.333 63.333 -83 95 -143 95h-12c-24.667 0 -47 -4.83301 -67 -14.5s-37 -23.334 -51 -41.001s-24.833 -38.834 -32.5 -63.501s-11.5 -51.667 -11.5 -81v-21c0 -60.667 14.667 -108.667 44 -144
s70 -53 122 -53h12c17.333 0 33.833 2.66699 49.5 8s29.167 12.333 40.5 21s20.333 18.167 27 28.5s10 20.833 10 31.5v11h-130v145h293v-386h-129c-4 6.66699 -7.83301 17.5 -11.5 32.5s-5.83398 29.5 -6.50098 43.5c-6.66699 -12 -16.334 -23.333 -29.001 -34
s-27.334 -20 -44.001 -28s-34.667 -14.333 -54 -19s-39 -7 -59 -7h-15zM352.003 900.003c0 -13.333 3.66699 -24 11 -32s18.333 -12 33 -12s25.667 4 33 12s11 18.667 11 32h135c0 -44.667 -16.167 -80.667 -48.5 -108s-75.833 -41 -130.5 -41c-55.333 0 -99 13.667 -131 41
s-48 63.333 -48 108h135z" />
    <glyph glyph-name="gbreve" unicode="&#x11f;" horiz-adv-x="557" 
d="M232 720c0 -13.333 3.66699 -23.833 11 -31.5s18 -11.5 32 -11.5s24.667 3.83301 32 11.5s11 18.167 11 31.5h135c0 -44.667 -16 -80.5 -48 -107.5s-75.333 -40.5 -130 -40.5s-98 13.5 -130 40.5s-48 62.833 -48 107.5h135zM22 344
c0 27.333 6.00098 52.334 18.001 75.001s28.5 42.5 49.5 59.5s45.833 30.167 74.5 39.5s59.667 14 93 14h36c32 0 61.333 -4 88 -12c4 11.333 7.83301 21.333 11.5 30s8.16699 16.667 13.5 24h152l-66 -127c24 -30 36 -64.333 36 -103v-10c0 -26.667 -6 -51.5 -18 -74.5
s-28.5 -42.833 -49.5 -59.5s-45.833 -29.834 -74.5 -39.501s-59.667 -14.5 -93 -14.5h-29v-44h48c34 0 65.333 -3.66699 94 -11s53.5 -17.666 74.5 -30.999s37.333 -29.333 49 -48s17.5 -39 17.5 -61v-10c0 -22.667 -6 -43.334 -18 -62.001s-28.667 -34.834 -50 -48.501
s-46.5 -24.334 -75.5 -32.001s-60.5 -11.5 -94.5 -11.5h-51c-34 0 -65.5 3.83301 -94.5 11.5s-54.167 18.334 -75.5 32.001s-38 29.834 -50 48.501s-18 39.334 -18 62.001v15c0 30 10.5 56.667 31.5 80s49.167 41.333 84.5 54v82
c-34.667 15.333 -62.334 37.166 -83.001 65.499s-31 60.5 -31 96.5v10zM191.001 326.001c0 -22 7.83301 -39.499 23.5 -52.499s33.5 -19.5 53.5 -19.5h15c19.333 0 37 6.66699 53 20s24 30.666 24 51.999v15c0 22 -8 39.5 -24 52.5s-33.667 19.5 -53 19.5h-15
c-20 0 -37.833 -6.5 -53.5 -19.5s-23.5 -30.5 -23.5 -52.5v-15zM192.001 -49.998c0 -12 6.66699 -22.498 20 -31.498s31.666 -13.5 54.999 -13.5h36c23.333 0 42.166 4.66699 56.499 14s21.5 19.666 21.5 30.999v12c0 11.333 -7.16699 21.666 -21.5 30.999
s-33.166 14 -56.499 14h-36c-23.333 0 -41.666 -4.5 -54.999 -13.5s-20 -19.5 -20 -31.5v-12z" />
    <glyph glyph-name="Gdotaccent" unicode="&#x120;" horiz-adv-x="738" 
d="M342 -12c-46.667 0 -88.9971 8.33594 -126.997 25.0029s-70.333 40.334 -97 71.001s-47.334 67.667 -62.001 111s-22 91.333 -22 144v19c0 52.667 8.33301 100.667 25 144s40.167 80.666 70.5 111.999s66.833 55.666 109.5 72.999s89.667 26 141 26h12
c58.667 0 112.834 -13.5 162.501 -40.5s91.5 -66.5 125.5 -118.5l-141 -90c-35.333 63.333 -83 95 -143 95h-12c-24.667 0 -47 -4.83301 -67 -14.5s-37 -23.334 -51 -41.001s-24.833 -38.834 -32.5 -63.501s-11.5 -51.667 -11.5 -81v-21c0 -60.667 14.667 -108.667 44 -144
s70 -53 122 -53h12c17.333 0 33.833 2.66699 49.5 8s29.167 12.333 40.5 21s20.333 18.167 27 28.5s10 20.833 10 31.5v11h-130v145h293v-386h-129c-4 6.66699 -7.83301 17.5 -11.5 32.5s-5.83398 29.5 -6.50098 43.5c-6.66699 -12 -16.334 -23.333 -29.001 -34
s-27.334 -20 -44.001 -28s-34.667 -14.333 -54 -19s-39 -7 -59 -7h-15zM394.003 758.003c-28.667 0 -51.667 7.66699 -69 23s-26 35.333 -26 60c0 25.333 8.66699 45.666 26 60.999s40.333 23 69 23c30 0 54 -7.66699 72 -23s27 -35.666 27 -60.999
c0 -24.667 -9 -44.667 -27 -60s-42 -23 -72 -23z" />
    <glyph glyph-name="gdotaccent" unicode="&#x121;" horiz-adv-x="557" 
d="M275 585c-29.333 0 -53 7.66699 -71 23s-27 35.666 -27 60.999s9 46 27 62s41.667 24 71 24c30 0 54.167 -8 72.5 -24s27.5 -36.667 27.5 -62s-9.16699 -45.666 -27.5 -60.999s-42.5 -23 -72.5 -23zM22 344c0 27.333 6.00098 52.334 18.001 75.001s28.5 42.5 49.5 59.5
s45.833 30.167 74.5 39.5s59.667 14 93 14h36c32 0 61.333 -4 88 -12c4 11.333 7.83301 21.333 11.5 30s8.16699 16.667 13.5 24h152l-66 -127c24 -30 36 -64.333 36 -103v-10c0 -26.667 -6 -51.5 -18 -74.5s-28.5 -42.833 -49.5 -59.5s-45.833 -29.834 -74.5 -39.501
s-59.667 -14.5 -93 -14.5h-29v-44h48c34 0 65.333 -3.66699 94 -11s53.5 -17.666 74.5 -30.999s37.333 -29.333 49 -48s17.5 -39 17.5 -61v-10c0 -22.667 -6 -43.334 -18 -62.001s-28.667 -34.834 -50 -48.501s-46.5 -24.334 -75.5 -32.001s-60.5 -11.5 -94.5 -11.5h-51
c-34 0 -65.5 3.83301 -94.5 11.5s-54.167 18.334 -75.5 32.001s-38 29.834 -50 48.501s-18 39.334 -18 62.001v15c0 30 10.5 56.667 31.5 80s49.167 41.333 84.5 54v82c-34.667 15.333 -62.334 37.166 -83.001 65.499s-31 60.5 -31 96.5v10zM191.001 326.001
c0 -22 7.83301 -39.499 23.5 -52.499s33.5 -19.5 53.5 -19.5h15c19.333 0 37 6.66699 53 20s24 30.666 24 51.999v15c0 22 -8 39.5 -24 52.5s-33.667 19.5 -53 19.5h-15c-20 0 -37.833 -6.5 -53.5 -19.5s-23.5 -30.5 -23.5 -52.5v-15zM192.001 -49.998
c0 -12 6.66699 -22.498 20 -31.498s31.666 -13.5 54.999 -13.5h36c23.333 0 42.166 4.66699 56.499 14s21.5 19.666 21.5 30.999v12c0 11.333 -7.16699 21.666 -21.5 30.999s-33.166 14 -56.499 14h-36c-23.333 0 -41.666 -4.5 -54.999 -13.5s-20 -19.5 -20 -31.5v-12z" />
    <glyph glyph-name="uni0122" unicode="&#x122;" horiz-adv-x="738" 
d="M342 -12c-46.667 0 -88.9971 8.33594 -126.997 25.0029s-70.333 40.334 -97 71.001s-47.334 67.667 -62.001 111s-22 91.333 -22 144v19c0 52.667 8.33301 100.667 25 144s40.167 80.666 70.5 111.999s66.833 55.666 109.5 72.999s89.667 26 141 26h12
c58.667 0 112.834 -13.5 162.501 -40.5s91.5 -66.5 125.5 -118.5l-141 -90c-35.333 63.333 -83 95 -143 95h-12c-24.667 0 -47 -4.83301 -67 -14.5s-37 -23.334 -51 -41.001s-24.833 -38.834 -32.5 -63.501s-11.5 -51.667 -11.5 -81v-21c0 -60.667 14.667 -108.667 44 -144
s70 -53 122 -53h12c17.333 0 33.833 2.66699 49.5 8s29.167 12.333 40.5 21s20.333 18.167 27 28.5s10 20.833 10 31.5v11h-130v145h293v-386h-129c-4 6.66699 -7.83301 17.5 -11.5 32.5s-5.83398 29.5 -6.50098 43.5c-6.66699 -12 -16.334 -23.333 -29.001 -34
s-27.334 -20 -44.001 -28s-34.667 -14.333 -54 -19s-39 -7 -59 -7h-15zM296.003 -51.9971h143l-66 -159h-112z" />
    <glyph glyph-name="uni0123" unicode="&#x123;" horiz-adv-x="557" 
d="M332 726c-9.33301 -4.66699 -16.668 -10.8301 -22.001 -18.4971s-8.66602 -15.834 -9.99902 -24.501c14.667 -3.33301 25.5 -10.166 32.5 -20.499s10.5 -22.166 10.5 -35.499c0 -16.667 -5.5 -31.334 -16.5 -44.001s-28.5 -19 -52.5 -19
c-24.667 0 -43.334 7.16699 -56.001 21.5s-19 32.166 -19 53.499c0 10.667 1.66699 22 5 34s8.5 23.667 15.5 35s15.833 22.166 26.5 32.499s23.334 19.166 38.001 26.499zM21.998 344.004c0 27.333 6.00098 52.334 18.001 75.001s28.5 42.5 49.5 59.5
s45.833 30.167 74.5 39.5s59.667 14 93 14h36c32 0 61.333 -4 88 -12c4 11.333 7.83301 21.333 11.5 30s8.16699 16.667 13.5 24h152l-66 -127c24 -30 36 -64.333 36 -103v-10c0 -26.667 -6 -51.5 -18 -74.5s-28.5 -42.833 -49.5 -59.5s-45.833 -29.834 -74.5 -39.501
s-59.667 -14.5 -93 -14.5h-29v-44h48c34 0 65.333 -3.66699 94 -11s53.5 -17.666 74.5 -30.999s37.333 -29.333 49 -48s17.5 -39 17.5 -61v-10c0 -22.667 -6 -43.334 -18 -62.001s-28.667 -34.834 -50 -48.501s-46.5 -24.334 -75.5 -32.001s-60.5 -11.5 -94.5 -11.5h-51
c-34 0 -65.5 3.83301 -94.5 11.5s-54.167 18.334 -75.5 32.001s-38 29.834 -50 48.501s-18 39.334 -18 62.001v15c0 30 10.5 56.667 31.5 80s49.167 41.333 84.5 54v82c-34.667 15.333 -62.334 37.166 -83.001 65.499s-31 60.5 -31 96.5v10zM190.999 326.005
c0 -22 7.83301 -39.499 23.5 -52.499s33.5 -19.5 53.5 -19.5h15c19.333 0 37 6.66699 53 20s24 30.666 24 51.999v15c0 22 -8 39.5 -24 52.5s-33.667 19.5 -53 19.5h-15c-20 0 -37.833 -6.5 -53.5 -19.5s-23.5 -30.5 -23.5 -52.5v-15zM191.999 -49.9941
c0 -12 6.66699 -22.498 20 -31.498s31.666 -13.5 54.999 -13.5h36c23.333 0 42.166 4.66699 56.499 14s21.5 19.666 21.5 30.999v12c0 11.333 -7.16699 21.666 -21.5 30.999s-33.166 14 -56.499 14h-36c-23.333 0 -41.666 -4.5 -54.999 -13.5s-20 -19.5 -20 -31.5v-12z" />
    <glyph glyph-name="Hcircumflex" unicode="&#x124;" horiz-adv-x="708" 
d="M65 700h182v-268h215v268h182v-700h-182v276h-215v-276h-182v700zM262 897h186l104 -131h-144l-44 49h-18l-44 -49h-144z" />
    <glyph glyph-name="hcircumflex" unicode="&#x125;" horiz-adv-x="619" 
d="M191 765l-39 53h-18l-39 -53h-139l96 135h182l96 -135h-139zM55 720l174 0.000976562v-255c22 21.333 47.333 37.833 76 49.5s59 17.5 91 17.5c56 0 99.333 -17.5 130 -52.5s46 -83.833 46 -146.5v-333h-174v294c0 33.333 -6 57.666 -18 72.999s-31 23 -57 23
c-30.667 0 -54 -9.16699 -70 -27.5s-24 -44.833 -24 -79.5v-283h-174v720z" />
    <glyph glyph-name="Hbar" unicode="&#x126;" horiz-adv-x="708" 
d="M65 700h182v-70h215v70h182v-700h-182v276h-215v-276h-182v700zM462 432v78h-215v-78h215z" />
    <glyph glyph-name="hbar" unicode="&#x127;" horiz-adv-x="624" 
d="M60 566h-56.999v110h57v44h174v-44h114v-110h-114v-105c21.333 18.667 45.5 33.167 72.5 43.5s56.167 15.5 87.5 15.5h2c57.333 0 101.833 -17.333 133.5 -52s47.5 -83.667 47.5 -147v-321h-174v282c0 36 -6.33301 61 -19 75s-31.334 21 -56.001 21h-1
c-30 0 -53 -7.83301 -69 -23.5s-24 -41.5 -24 -77.5v-277h-174v566z" />
    <glyph glyph-name="Itilde" unicode="&#x128;" horiz-adv-x="311" 
d="M65 700h181v-700h-181v700zM-57 841c12 25.333 29.998 45.333 53.998 60s50 22 78 22c14.667 0 28.834 -2 42.501 -6s30.834 -10.667 51.501 -20c13.333 -6 26.166 -11.167 38.499 -15.5s25.5 -6.5 39.5 -6.5c30.667 0 54.667 12.333 72 37l49 -73
c-13.333 -25.333 -31.833 -45.333 -55.5 -60s-49.167 -22 -76.5 -22c-13.333 0 -27.166 2.16699 -41.499 6.5s-33.166 11.833 -56.499 22.5c-14.667 6 -27.834 10.667 -39.501 14s-23.167 5 -34.5 5c-33.333 0 -57.333 -12.333 -72 -37z" />
    <glyph glyph-name="itilde" unicode="&#x129;" horiz-adv-x="285" 
d="M225 579c-18 0 -34.166 2.33301 -48.499 7s-27.833 9.66699 -40.5 15c-11.333 4.66699 -22.166 8.66699 -32.499 12s-21.5 5 -33.5 5c-15.333 0 -28.833 -3.16699 -40.5 -9.5s-20.834 -15.5 -27.501 -27.5l-62 87c13.333 20.667 30.333 36.334 51 47.001s44 16 70 16
c18.667 0 35.167 -2.33301 49.5 -7s27.833 -9.66699 40.5 -15c11.333 -4.66699 22.166 -8.66699 32.499 -12s21.166 -5 32.499 -5c14 0 26.833 3.16699 38.5 9.5s20.834 15.5 27.501 27.5l63 -87c-13.333 -20.667 -30.333 -36.334 -51 -47.001s-43.667 -16 -69 -16z
M55.001 520h174v-520h-174v520z" />
    <glyph glyph-name="Imacron" unicode="&#x12a;" horiz-adv-x="311" 
d="M65 700h181v-700h-181v700zM0 892h312v-112h-312v112z" />
    <glyph glyph-name="imacron" unicode="&#x12b;" horiz-adv-x="286" 
d="M5 716h276v-120h-276v120zM56 520h174v-520h-174v520z" />
    <glyph glyph-name="Ibreve" unicode="&#x12c;" horiz-adv-x="311" 
d="M65 700h181v-700h-181v700zM112 900c0 -13.333 3.66699 -24 11 -32s18.333 -12 33 -12s25.667 4 33 12s11 18.667 11 32h135c0 -44.667 -16.167 -80.667 -48.5 -108s-75.833 -41 -130.5 -41c-55.333 0 -99 13.667 -131 41s-48 63.333 -48 108h135z" />
    <glyph glyph-name="ibreve" unicode="&#x12d;" horiz-adv-x="291" 
d="M146 677c11.333 0 19.832 3.83301 25.499 11.5s8.5 18.167 8.5 31.5h134c0.666992 -44.667 -14.166 -80.5 -44.499 -107.5s-71.5 -40.5 -123.5 -40.5c-26 0 -49.333 3.5 -70 10.5s-38.5 17 -53.5 30s-26.333 28.667 -34 47s-11.5 38.5 -11.5 60.5h134
c0 -13.333 3 -23.833 9 -31.5s14.667 -11.5 26 -11.5zM58.999 520h174v-520h-174v520z" />
    <glyph glyph-name="Iogonek" unicode="&#x12e;" horiz-adv-x="311" 
d="M65 700h181v-700h-181v700zM200 -190c-32 0 -57.334 7.66797 -76.001 23.001s-28 37.333 -28 66c0 28 8.5 54.667 25.5 80s39.5 46.666 67.5 63.999l58 -43c-15.333 -15.333 -26.166 -29.5 -32.499 -42.5s-9.5 -25.167 -9.5 -36.5c0 -17.333 7.33301 -26 22 -26
c8 0 14.667 2 20 6v-84c-16 -4.66699 -31.667 -7 -47 -7z" />
    <glyph glyph-name="iogonek" unicode="&#x12f;" horiz-adv-x="285" 
d="M140 580c-28 0 -50.833 7.66699 -68.5 23s-26.5 35.666 -26.5 60.999c0 26 8.83301 46.833 26.5 62.5s40.5 23.5 68.5 23.5c30 0 54.167 -7.83301 72.5 -23.5s27.5 -36.5 27.5 -62.5c0 -25.333 -9.16699 -45.666 -27.5 -60.999s-42.5 -23 -72.5 -23zM55 520h174v-520
h-174v520zM183 -190c-32 0 -57.334 7.66797 -76.001 23.001s-28 37.333 -28 66c0 28 8.5 54.667 25.5 80s39.5 46.666 67.5 63.999l58 -43c-15.333 -15.333 -26.166 -29.5 -32.499 -42.5s-9.5 -25.167 -9.5 -36.5c0 -17.333 7.33301 -26 22 -26c8 0 14.667 2 20 6v-84
c-16 -4.66699 -31.667 -7 -47 -7z" />
    <glyph glyph-name="Idotaccent" unicode="&#x130;" horiz-adv-x="311" 
d="M65 700h181v-700h-181v700zM154 758c-28.667 0 -51.667 7.66699 -69 23s-26 35.333 -26 60c0 25.333 8.66699 45.666 26 60.999s40.333 23 69 23c30 0 54 -7.66699 72 -23s27 -35.666 27 -60.999c0 -24.667 -9 -44.667 -27 -60s-42 -23 -72 -23z" />
    <glyph glyph-name="dotlessi" unicode="&#x131;" horiz-adv-x="285" 
d="M55 520h174v-520h-174v520z" />
    <glyph glyph-name="IJ" unicode="&#x132;" horiz-adv-x="646" 
d="M404 -16c-36 0 -70.667 5 -104 15v169c7.33301 -6 16 -10.833 26 -14.5s21 -5.5 33 -5.5c21.333 0 37 6.5 47 19.5s15 31.167 15 54.5v478h182v-508c0 -70.667 -17.667 -123 -53 -157s-84 -51 -146 -51zM63 700h182v-700h-182v700z" />
    <glyph glyph-name="ij" unicode="&#x133;" horiz-adv-x="562" 
d="M142 580c-29.333 0 -52.833 7.66699 -70.5 23s-26.5 35.666 -26.5 60.999c0 26 8.83301 46.833 26.5 62.5s41.167 23.5 70.5 23.5c30 0 54.333 -7.83301 73 -23.5s28 -36.5 28 -62.5c0 -25.333 -9.33301 -45.666 -28 -60.999s-43 -23 -73 -23zM416 580
c-29.333 0 -52.833 7.66699 -70.5 23s-26.5 35.666 -26.5 60.999c0 26 8.83301 46.833 26.5 62.5s41.167 23.5 70.5 23.5c30 0 54.333 -7.83301 73 -23.5s28 -36.5 28 -62.5c0 -25.333 -9.33301 -45.666 -28 -60.999s-43 -23 -73 -23zM339 -197
c-36.667 0 -72.999 6 -108.999 18v141c17.333 -8 33.666 -12 48.999 -12c18.667 0 32 4.83301 40 14.5s12 26.5 12 50.5v505h174v-527c0 -60.667 -14.167 -107.5 -42.5 -140.5s-69.5 -49.5 -123.5 -49.5zM57.001 520h174v-520h-174v520z" />
    <glyph glyph-name="Jcircumflex" unicode="&#x134;" horiz-adv-x="397" 
d="M129 -16c-34.667 0 -68.667 5 -102 15v168c8 -5.33301 17.167 -9.83301 27.5 -13.5s21.5 -5.5 33.5 -5.5c23.333 0 40.5 6.5 51.5 19.5s16.5 31.167 16.5 54.5v478h182v-508c0 -70.667 -18.5 -123 -55.5 -157s-88.167 -51 -153.5 -51zM154 899h186l104 -131h-144l-44 49
h-18l-44 -49h-144z" />
    <glyph glyph-name="jcircumflex" unicode="&#x135;" horiz-adv-x="279" 
d="M182 585l-37 53h-18l-36 -53h-139l94 135h181l94 -135h-139zM58 -197c-18 0 -36.333 1.5 -55 4.5s-36.667 7.5 -54 13.5v141c16 -8 32.333 -12 49 -12c18.667 0 32 4.83301 40 14.5s12 26.5 12 50.5v505h174v-527c0 -60.667 -14.167 -107.5 -42.5 -140.5
s-69.5 -49.5 -123.5 -49.5z" />
    <glyph glyph-name="uni0136" unicode="&#x136;" horiz-adv-x="666" 
d="M65 700h182v-285h9l195 285h202l-244 -322l257 -378h-212l-198 320h-9v-320h-182v700zM275 -42h143l-66 -159h-112z" />
    <glyph glyph-name="uni0137" unicode="&#x137;" horiz-adv-x="581" 
d="M55 720h174v-410h12l151 210h185l-191 -238l190 -282h-197l-138 235h-12v-235h-174v720zM235 -42h143l-66 -159h-112z" />
    <glyph glyph-name="kgreenlandic" unicode="&#x138;" horiz-adv-x="581" 
d="M55 520h174v-210h12l151 210h185l-191 -238l190 -282h-197l-138 235h-12v-235h-174v520z" />
    <glyph glyph-name="Lacute" unicode="&#x139;" horiz-adv-x="511" 
d="M65 700h181v-544h237v-156h-418v700zM217 756h-131l59 158h158z" />
    <glyph glyph-name="lacute" unicode="&#x13a;" horiz-adv-x="285" 
d="M55 720h174v-720h-174v720zM202 760h-131l59 158h158z" />
    <glyph glyph-name="uni013B" unicode="&#x13b;" horiz-adv-x="511" 
d="M65 700h181v-544h237v-156h-418v700zM208 -42h143l-66 -159h-112z" />
    <glyph glyph-name="uni013C" unicode="&#x13c;" horiz-adv-x="285" 
d="M55 720h174v-720h-174v720zM76 -42h143l-66 -159h-112z" />
    <glyph glyph-name="Lcaron" unicode="&#x13d;" horiz-adv-x="511" 
d="M65 700h181v-544h237v-156h-418v700zM340 700h138l-40 -176h-104z" />
    <glyph glyph-name="lcaron" unicode="&#x13e;" horiz-adv-x="327" 
d="M55 720h174v-720h-174v720zM294 720h138l-40 -176h-104z" />
    <glyph glyph-name="Ldot" unicode="&#x13f;" horiz-adv-x="536" 
d="M65 700h181v-544h237v-156h-418v700zM398 288c-28.667 0 -52 7.66699 -70 23s-27 35.666 -27 60.999s9 46 27 62s41.333 24 70 24c30 0 54.5 -8 73.5 -24s28.5 -36.667 28.5 -62s-9.5 -45.666 -28.5 -60.999s-43.5 -23 -73.5 -23z" />
    <glyph glyph-name="ldot" unicode="&#x140;" horiz-adv-x="474" 
d="M50 720h174v-720h-174v720zM372 288c-28.667 0 -52 7.66699 -70 23s-27 35.666 -27 60.999s9 46 27 62s41.333 24 70 24c30 0 54.5 -8 73.5 -24s28.5 -36.667 28.5 -62s-9.5 -45.666 -28.5 -60.999s-43.5 -23 -73.5 -23z" />
    <glyph glyph-name="Lslash" unicode="&#x141;" horiz-adv-x="527" 
d="M17 386l64 23v291h181v-224l119 43v-130l-119 -43v-190h237v-156h-418v279l-64 -23v130z" />
    <glyph glyph-name="lslash" unicode="&#x142;" horiz-adv-x="378" 
d="M27 363l75 34v323h174v-243l75 35v-121l-75 -35v-356h-174v276l-75 -34v121z" />
    <glyph glyph-name="Nacute" unicode="&#x143;" horiz-adv-x="734" 
d="M65 700h201l224 -429h4v429h175v-700h-177l-247 474h-6v-474h-174v700zM428 756h-131l59 158h158z" />
    <glyph glyph-name="nacute" unicode="&#x144;" horiz-adv-x="620" 
d="M56 520h138.001c3.33301 -10.667 6.66602 -23.667 9.99902 -39s5.33301 -28.666 6 -39.999c22 28 48.833 50.167 80.5 66.5s66.167 24.5 103.5 24.5h4c55.333 0 98.333 -17.333 129 -52s46 -83.667 46 -147v-333h-174v294c0 33.333 -6 57.666 -18 72.999
s-30.333 23 -55 23h-4c-28 0 -50.333 -10.667 -67 -32s-25 -49 -25 -83v-275h-174v520zM238.001 574l58 173h146l-77 -173h-127z" />
    <glyph glyph-name="uni0145" unicode="&#x145;" horiz-adv-x="734" 
d="M65 700h201l224 -429h4v429h175v-700h-177l-247 474h-6v-474h-174v700zM301 -42h143l-66 -159h-112z" />
    <glyph glyph-name="uni0146" unicode="&#x146;" horiz-adv-x="620" 
d="M56 520h138.001c3.33301 -10.667 6.66602 -23.667 9.99902 -39s5.33301 -28.666 6 -39.999c22 28 48.833 50.167 80.5 66.5s66.167 24.5 103.5 24.5h4c55.333 0 98.333 -17.333 129 -52s46 -83.667 46 -147v-333h-174v294c0 33.333 -6 57.666 -18 72.999
s-30.333 23 -55 23h-4c-28 0 -50.333 -10.667 -67 -32s-25 -49 -25 -83v-275h-174v520zM248.001 -42h143l-66 -159h-112z" />
    <glyph glyph-name="Ncaron" unicode="&#x147;" horiz-adv-x="734" 
d="M65 700h201l224 -429h4v429h175v-700h-177l-247 474h-6v-474h-174v700zM171 898h144l44 -48h18l44 48h144l-104 -131h-186z" />
    <glyph glyph-name="ncaron" unicode="&#x148;" horiz-adv-x="620" 
d="M56 520h138.001c3.33301 -10.667 6.66602 -23.667 9.99902 -39s5.33301 -28.666 6 -39.999c22 28 48.833 50.167 80.5 66.5s66.167 24.5 103.5 24.5h4c55.333 0 98.333 -17.333 129 -52s46 -83.667 46 -147v-333h-174v294c0 33.333 -6 57.666 -18 72.999
s-30.333 23 -55 23h-4c-28 0 -50.333 -10.667 -67 -32s-25 -49 -25 -83v-275h-174v520zM112.001 720h142l48 -52h18l49 52h142l-106 -135h-187z" />
    <glyph glyph-name="napostrophe" unicode="&#x149;" horiz-adv-x="824" 
d="M260 520h138.001c3.33301 -10.667 6.66602 -23.667 9.99902 -39s5.33301 -28.666 6 -39.999c22 28 48.833 50.167 80.5 66.5s66.167 24.5 103.5 24.5h4c55.333 0 98.333 -17.333 129 -52s46 -83.667 46 -147v-333h-174v294c0 33.333 -6 57.666 -18 72.999
s-30.333 23 -55 23h-4c-28 0 -50.333 -10.667 -67 -32s-25 -49 -25 -83v-275h-174v520zM122.001 700h161l-115 -316h-131z" />
    <glyph glyph-name="Eng" unicode="&#x14a;" horiz-adv-x="734" 
d="M472 -198c-18.667 0 -36.5 1.16797 -53.5 3.50098s-33.833 6.16602 -50.5 11.499v169c8 -6 16.833 -10.833 26.5 -14.5s20.5 -5.5 32.5 -5.5c17.333 0 30.833 4.66699 40.5 14s16.167 21.666 19.5 36.999l-233 414h-9v-431h-182v700h202l215 -386h9v386h182v-700
c0 -67.333 -18.167 -117.166 -54.5 -149.499s-84.5 -48.5 -144.5 -48.5z" />
    <glyph glyph-name="eng" unicode="&#x14b;" horiz-adv-x="629" 
d="M407 -197c-37.333 0 -73.666 6 -108.999 18v141c17.333 -8 33.666 -12 48.999 -12c19.333 0 32.833 4.83301 40.5 14.5s11.5 26.5 11.5 50.5v279c0 33.333 -6.16699 57.666 -18.5 72.999s-31.166 23 -56.499 23h-2c-28 0 -50.333 -10.667 -67 -32s-25 -49 -25 -83v-275
h-174v520h138c3.33301 -10.667 6.66602 -23.667 9.99902 -39s5.33301 -28.666 6 -39.999c22 28 48.833 50.167 80.5 66.5s66.167 24.5 103.5 24.5h3c56 0 99.333 -17.333 130 -52s46 -83.667 46 -147v-340c0 -60.667 -14.167 -107.5 -42.5 -140.5s-69.5 -49.5 -123.5 -49.5z
" />
    <glyph glyph-name="Omacron" unicode="&#x14c;" horiz-adv-x="767" 
d="M34 360c0 53.333 8.16699 101.836 24.5 145.503s39.5 81 69.5 112s66 55 108 72s88.667 25.5 140 25.5h14c50.667 0 97 -8.66699 139 -26s78 -41.5 108 -72.5s53.333 -68.333 70 -112s25 -91.834 25 -144.501v-20c0 -52.667 -8.33301 -100.834 -25 -144.501
s-40 -81 -70 -112s-66 -55.167 -108 -72.5s-88.333 -26 -139 -26h-14c-50.667 0 -97 8.66699 -139 26s-78 41.666 -108 72.999s-53.333 68.833 -70 112.5s-25 91.5 -25 143.5v20zM222 340.003c0 -62 14.332 -110.832 42.999 -146.499s66 -53.5 112 -53.5h12
c47.333 0 85 17.667 113 53s42 84.333 42 147v20c0 62 -14 110.667 -42 146s-65.667 53 -113 53h-12c-22.667 0 -43.667 -4.66699 -63 -14s-35.666 -22.5 -48.999 -39.5s-23.833 -37.833 -31.5 -62.5s-11.5 -52.334 -11.5 -83.001v-20zM227.999 892.004h312v-112h-312v112z
" />
    <glyph glyph-name="omacron" unicode="&#x14d;" horiz-adv-x="604" 
d="M297 -12c-40 0 -76.667 6.33301 -110 19s-62 30.167 -86 52.5s-42.667 49.166 -56 80.499s-20 66 -20 104v32c0 38 6.66699 72.667 20 104s32 58.166 56 80.499s52.667 39.833 86 52.5s70 19 110 19h10c40 0 76.667 -6.33301 110 -19s62 -30.167 86 -52.5
s42.667 -49.166 56 -80.499s20 -66 20 -104v-32c0 -38 -6.66699 -72.667 -20 -104s-32 -58.166 -56 -80.499s-52.667 -39.833 -86 -52.5s-70 -19 -110 -19h-10zM307 111c28 0 50.333 12.667 67 38s25 60 25 104v22c0 41.333 -8.33301 74 -25 98s-39 36 -67 36h-10
c-28 0 -50.333 -12 -67 -36s-25 -56.667 -25 -98v-22c0 -44 8.33301 -78.667 25 -104s39 -38 67 -38h10zM147 731h312v-120h-312v120z" />
    <glyph glyph-name="Obreve" unicode="&#x14e;" horiz-adv-x="767" 
d="M34 360c0 53.333 8.16699 101.836 24.5 145.503s39.5 81 69.5 112s66 55 108 72s88.667 25.5 140 25.5h14c50.667 0 97 -8.66699 139 -26s78 -41.5 108 -72.5s53.333 -68.333 70 -112s25 -91.834 25 -144.501v-20c0 -52.667 -8.33301 -100.834 -25 -144.501
s-40 -81 -70 -112s-66 -55.167 -108 -72.5s-88.333 -26 -139 -26h-14c-50.667 0 -97 8.66699 -139 26s-78 41.666 -108 72.999s-53.333 68.833 -70 112.5s-25 91.5 -25 143.5v20zM222 340.003c0 -62 14.332 -110.832 42.999 -146.499s66 -53.5 112 -53.5h12
c47.333 0 85 17.667 113 53s42 84.333 42 147v20c0 62 -14 110.667 -42 146s-65.667 53 -113 53h-12c-22.667 0 -43.667 -4.66699 -63 -14s-35.666 -22.5 -48.999 -39.5s-23.833 -37.833 -31.5 -62.5s-11.5 -52.334 -11.5 -83.001v-20zM338.999 900.004
c0 -13.333 3.66699 -24 11 -32s18.333 -12 33 -12s25.667 4 33 12s11 18.667 11 32h135c0 -44.667 -16.167 -80.667 -48.5 -108s-75.833 -41 -130.5 -41c-55.333 0 -99 13.667 -131 41s-48 63.333 -48 108h135z" />
    <glyph glyph-name="obreve" unicode="&#x14f;" horiz-adv-x="604" 
d="M297 -12c-40 0 -76.667 6.33301 -110 19s-62 30.167 -86 52.5s-42.667 49.166 -56 80.499s-20 66 -20 104v32c0 38 6.66699 72.667 20 104s32 58.166 56 80.499s52.667 39.833 86 52.5s70 19 110 19h10c40 0 76.667 -6.33301 110 -19s62 -30.167 86 -52.5
s42.667 -49.166 56 -80.499s20 -66 20 -104v-32c0 -38 -6.66699 -72.667 -20 -104s-32 -58.166 -56 -80.499s-52.667 -39.833 -86 -52.5s-70 -19 -110 -19h-10zM307 111c28 0 50.333 12.667 67 38s25 60 25 104v22c0 41.333 -8.33301 74 -25 98s-39 36 -67 36h-10
c-28 0 -50.333 -12 -67 -36s-25 -56.667 -25 -98v-22c0 -44 8.33301 -78.667 25 -104s39 -38 67 -38h10zM256 720c0 -13.333 3.66699 -24 11 -32s18.333 -12 33 -12s25.667 4 33 12s11 18.667 11 32h135c0 -44.667 -16 -80.667 -48 -108s-75.667 -41 -131 -41
c-54.667 0 -98.167 13.667 -130.5 41s-48.5 63.333 -48.5 108h135z" />
    <glyph glyph-name="Ohungarumlaut" unicode="&#x150;" horiz-adv-x="767" 
d="M34 360c0 53.333 8.16699 101.836 24.5 145.503s39.5 81 69.5 112s66 55 108 72s88.667 25.5 140 25.5h14c50.667 0 97 -8.66699 139 -26s78 -41.5 108 -72.5s53.333 -68.333 70 -112s25 -91.834 25 -144.501v-20c0 -52.667 -8.33301 -100.834 -25 -144.501
s-40 -81 -70 -112s-66 -55.167 -108 -72.5s-88.333 -26 -139 -26h-14c-50.667 0 -97 8.66699 -139 26s-78 41.666 -108 72.999s-53.333 68.833 -70 112.5s-25 91.5 -25 143.5v20zM222 340.003c0 -62 14.332 -110.832 42.999 -146.499s66 -53.5 112 -53.5h12
c47.333 0 85 17.667 113 53s42 84.333 42 147v20c0 62 -14 110.667 -42 146s-65.667 53 -113 53h-12c-22.667 0 -43.667 -4.66699 -63 -14s-35.666 -22.5 -48.999 -39.5s-23.833 -37.833 -31.5 -62.5s-11.5 -52.334 -11.5 -83.001v-20zM213.999 754.004l59 158h158l-79 -158
h-138zM415.999 754.004l59 158h158l-78 -158h-139z" />
    <glyph glyph-name="ohungarumlaut" unicode="&#x151;" horiz-adv-x="604" 
d="M297 -12c-40 0 -76.667 6.33301 -110 19s-62 30.167 -86 52.5s-42.667 49.166 -56 80.499s-20 66 -20 104v32c0 38 6.66699 72.667 20 104s32 58.166 56 80.499s52.667 39.833 86 52.5s70 19 110 19h10c40 0 76.667 -6.33301 110 -19s62 -30.167 86 -52.5
s42.667 -49.166 56 -80.499s20 -66 20 -104v-32c0 -38 -6.66699 -72.667 -20 -104s-32 -58.166 -56 -80.499s-52.667 -39.833 -86 -52.5s-70 -19 -110 -19h-10zM307 111c28 0 50.333 12.667 67 38s25 60 25 104v22c0 41.333 -8.33301 74 -25 98s-39 36 -67 36h-10
c-28 0 -50.333 -12 -67 -36s-25 -56.667 -25 -98v-22c0 -44 8.33301 -78.667 25 -104s39 -38 67 -38h10zM190 748h146l-67 -174h-127zM387 748h146l-67 -174h-127z" />
    <glyph glyph-name="OE" unicode="&#x152;" horiz-adv-x="985" 
d="M926 700l-0.000976562 -147.999h-241v-130h221v-146h-221v-128h251v-148h-425c-34 -10 -71 -15 -111 -15h-14c-52 0 -99.5 8.66699 -142.5 26s-80 41.666 -111 72.999s-55 68.833 -72 112.5s-25.5 91.5 -25.5 143.5v20c0 53.333 8.33301 101.833 25 145.5
s40.334 81 71.001 112s67.667 55 111 72s91.333 25.5 144 25.5h14c41.333 0 78.333 -5.33301 111 -16v1h415zM510.999 505.001c-24 36 -61.332 54 -111.999 54h-12c-49.333 0 -89 -17.667 -119 -53s-45 -84 -45 -146v-20c0 -62.667 15 -111.667 45 -147s69.667 -53 119 -53
h12c49.333 0 86.666 15.333 111.999 46v319z" />
    <glyph glyph-name="oe" unicode="&#x153;" horiz-adv-x="935" 
d="M672 -12c-38 0 -72.667 6.16992 -104 18.5029s-58 30.166 -80 53.499c-23.333 -23.333 -50.833 -41.166 -82.5 -53.499s-67.167 -18.5 -106.5 -18.5h-9c-38.667 0 -74.334 6.33301 -107.001 19s-60.667 30.167 -84 52.5s-41.5 49.166 -54.5 80.499s-19.5 66 -19.5 104v32
c0 38 6.5 72.667 19.5 104s31.167 58.166 54.5 80.499s51.333 39.833 84 52.5s68.334 19 107.001 19h9c39.333 0 75.166 -6.33301 107.499 -19s60.166 -30.667 83.499 -54c21.333 23.333 47 41.333 77 54s63 19 99 19h11c34.667 0 66.5 -5.83301 95.5 -17.5s54 -28 75 -49
s37.333 -46 49 -75s17.5 -60.5 17.5 -94.5v-79h-349c4 -30 15.833 -53.333 35.5 -70s45.167 -25 76.5 -25h7c26.667 0 51.5 5.5 74.5 16.5s42.833 24.167 59.5 39.5l78 -111c-12 -10.667 -26.167 -20.834 -42.5 -30.501s-33.666 -18.167 -51.999 -25.5
s-37.166 -13 -56.499 -17s-38 -6 -56 -6h-17zM750 314.003l-0.00195312 5c-0.666992 30 -8.66699 52.833 -24 68.5s-34.666 23.5 -57.999 23.5h-5c-23.333 0 -43.166 -8.33301 -59.499 -25s-27.5 -40.667 -33.5 -72h180zM306.998 111.003c28 0 50.667 12.667 68 38
s26 60 26 104v22c0 41.333 -8.66699 74 -26 98s-40 36 -68 36h-8c-28.667 0 -51.5 -12 -68.5 -36s-25.5 -56.667 -25.5 -98v-22c0 -44 8.5 -78.667 25.5 -104s39.833 -38 68.5 -38h8z" />
    <glyph glyph-name="Racute" unicode="&#x154;" horiz-adv-x="655" 
d="M65 700l283 0.000976562c39.333 0 74.5 -5.16699 105.5 -15.5s57.167 -25 78.5 -44s37.833 -42.333 49.5 -70s17.5 -58.5 17.5 -92.5v-10c0 -44.667 -10.167 -84.334 -30.5 -119.001s-47.833 -59.667 -82.5 -75l158 -274h-208l-122 238h-68v-238h-181v700zM313 369.001
c34 0 60.5 8.66699 79.5 26s28.5 39.333 28.5 66v8c0 26 -9.33301 46.333 -28 61s-44.667 22 -78 22h-75v-183h73zM378 759.001h-131l59 158h158z" />
    <glyph glyph-name="racute" unicode="&#x155;" horiz-adv-x="395" 
d="M55 520l137.999 0.000976562c3.33301 -10 6.5 -22.167 9.5 -36.5s4.83301 -26.833 5.5 -37.5c19.333 23.333 42.333 41.5 69 54.5s56.334 19.5 89.001 19.5h15v-161c-5.33301 2 -12.333 3.5 -21 4.5s-17 1.5 -25 1.5c-33.333 0 -59.333 -8.33301 -78 -25
s-28 -39.334 -28 -68.001v-272h-174v520zM157.999 572.001l58 173h146l-77 -173h-127z" />
    <glyph glyph-name="uni0156" unicode="&#x156;" horiz-adv-x="655" 
d="M65 700l283 0.000976562c39.333 0 74.5 -5.16699 105.5 -15.5s57.167 -25 78.5 -44s37.833 -42.333 49.5 -70s17.5 -58.5 17.5 -92.5v-10c0 -44.667 -10.167 -84.334 -30.5 -119.001s-47.833 -59.667 -82.5 -75l158 -274h-208l-122 238h-68v-238h-181v700zM313 369.001
c34 0 60.5 8.66699 79.5 26s28.5 39.333 28.5 66v8c0 26 -9.33301 46.333 -28 61s-44.667 22 -78 22h-75v-183h73zM271 -41.999h143l-66 -159h-112z" />
    <glyph glyph-name="uni0157" unicode="&#x157;" horiz-adv-x="395" 
d="M55 520l137.999 0.000976562c3.33301 -10 6.5 -22.167 9.5 -36.5s4.83301 -26.833 5.5 -37.5c19.333 23.333 42.333 41.5 69 54.5s56.334 19.5 89.001 19.5h15v-161c-5.33301 2 -12.333 3.5 -21 4.5s-17 1.5 -25 1.5c-33.333 0 -59.333 -8.33301 -78 -25
s-28 -39.334 -28 -68.001v-272h-174v520zM75.999 -41.999h143l-66 -159h-112z" />
    <glyph glyph-name="Rcaron" unicode="&#x158;" horiz-adv-x="655" 
d="M65 700l283 0.000976562c39.333 0 74.5 -5.16699 105.5 -15.5s57.167 -25 78.5 -44s37.833 -42.333 49.5 -70s17.5 -58.5 17.5 -92.5v-10c0 -44.667 -10.167 -84.334 -30.5 -119.001s-47.833 -59.667 -82.5 -75l158 -274h-208l-122 238h-68v-238h-181v700zM313 369.001
c34 0 60.5 8.66699 79.5 26s28.5 39.333 28.5 66v8c0 26 -9.33301 46.333 -28 61s-44.667 22 -78 22h-75v-183h73zM121 900.001h144l44 -48h18l44 48h144l-104 -131h-186z" />
    <glyph glyph-name="rcaron" unicode="&#x159;" horiz-adv-x="395" 
d="M55 520l137.999 0.000976562c3.33301 -10 6.5 -22.167 9.5 -36.5s4.83301 -26.833 5.5 -37.5c19.333 23.333 42.333 41.5 69 54.5s56.334 19.5 89.001 19.5h15v-161c-5.33301 2 -12.333 3.5 -21 4.5s-17 1.5 -25 1.5c-33.333 0 -59.333 -8.33301 -78 -25
s-28 -39.334 -28 -68.001v-272h-174v520zM3.99902 720.001h142l48 -52h18l49 52h142l-106 -135h-187z" />
    <glyph glyph-name="Sacute" unicode="&#x15a;" horiz-adv-x="590" 
d="M299 -12c-52 0 -102.5 8.16699 -151.5 24.5s-92.833 39.166 -131.5 68.499l94 146c28.667 -25.333 61.667 -44.166 99 -56.499s71.333 -18.5 102 -18.5c52 0 78 16.667 78 50c0 13.333 -4 23.833 -12 31.5s-20.5 14.834 -37.5 21.501s-38.167 13.667 -63.5 21
s-55.666 17.666 -90.999 30.999c-20 8 -38.833 17.167 -56.5 27.5s-33.334 23.333 -47.001 39s-24.5 34.167 -32.5 55.5s-12 47 -12 77s6.16699 57.833 18.5 83.5s29.333 47.667 51 66s47 32.666 76 42.999s60.167 15.5 93.5 15.5c52 0 99.167 -7.5 141.5 -22.5
s84.833 -36.833 127.5 -65.5l-93 -143c-27.333 23.333 -56.833 40.5 -88.5 51.5s-60.167 16.5 -85.5 16.5c-22.667 0 -39.334 -4.5 -50.001 -13.5s-16 -21.167 -16 -36.5c0 -12.667 4.16699 -22.834 12.5 -30.501s20 -14.5 35 -20.5s32.833 -11.667 53.5 -17
s43 -11.666 67 -18.999c23.333 -7.33301 46.333 -16 69 -26s43 -22.833 61 -38.5s32.5 -34.834 43.5 -57.501s16.5 -50 16.5 -82c0 -33.333 -6.33301 -63.666 -19 -90.999s-30.667 -50.666 -54 -69.999s-51.666 -34.333 -84.999 -45s-71 -16 -113 -16zM351 759h-131l59 158
h158z" />
    <glyph glyph-name="sacute" unicode="&#x15b;" horiz-adv-x="491" 
d="M269 -13c-49.333 0 -94.8311 5.99805 -136.498 17.998s-80.834 29.667 -117.501 53l79 123c9.33301 -8.66699 20.666 -16.667 33.999 -24s27.5 -13.833 42.5 -19.5s30.167 -10 45.5 -13s30 -4.5 44 -4.5c36 0 54 12 54 36c0 10 -3.33301 17.167 -10 21.5
s-16.834 8.5 -30.501 12.5s-31.167 8.66699 -52.5 14s-47 13.666 -77 24.999c-14.667 5.33301 -28.667 11.833 -42 19.5s-25 17 -35 28s-18 24 -24 39s-9 32.833 -9 53.5c0 50.667 18.167 90.667 54.5 120s85.833 44 148.5 44c38.667 0 76.5 -6 113.5 -18
s70.5 -28.667 100.5 -50l-81 -114c-18 15.333 -39.5 27.666 -64.5 36.999s-49.5 14 -73.5 14c-31.333 0 -47 -10.667 -47 -32c0 -8.66699 3.16699 -15.667 9.5 -21s14.666 -10 24.999 -14s22.5 -7.5 36.5 -10.5s28.667 -6.5 44 -10.5c20 -4.66699 40.333 -10.667 61 -18
s39.334 -17.166 56.001 -29.499s30.334 -27.666 41.001 -45.999s16 -41.166 16 -68.499c0 -24.667 -4.83301 -47.167 -14.5 -67.5s-23.5 -37.666 -41.5 -51.999s-39.667 -25.5 -65 -33.5s-53.333 -12 -84 -12zM168.002 573.998l58 173h146l-77 -173h-127z" />
    <glyph glyph-name="Scircumflex" unicode="&#x15c;" horiz-adv-x="590" 
d="M299 -12c-52 0 -102.5 8.16699 -151.5 24.5s-92.833 39.166 -131.5 68.499l94 146c28.667 -25.333 61.667 -44.166 99 -56.499s71.333 -18.5 102 -18.5c52 0 78 16.667 78 50c0 13.333 -4 23.833 -12 31.5s-20.5 14.834 -37.5 21.501s-38.167 13.667 -63.5 21
s-55.666 17.666 -90.999 30.999c-20 8 -38.833 17.167 -56.5 27.5s-33.334 23.333 -47.001 39s-24.5 34.167 -32.5 55.5s-12 47 -12 77s6.16699 57.833 18.5 83.5s29.333 47.667 51 66s47 32.666 76 42.999s60.167 15.5 93.5 15.5c52 0 99.167 -7.5 141.5 -22.5
s84.833 -36.833 127.5 -65.5l-93 -143c-27.333 23.333 -56.833 40.5 -88.5 51.5s-60.167 16.5 -85.5 16.5c-22.667 0 -39.334 -4.5 -50.001 -13.5s-16 -21.167 -16 -36.5c0 -12.667 4.16699 -22.834 12.5 -30.501s20 -14.5 35 -20.5s32.833 -11.667 53.5 -17
s43 -11.666 67 -18.999c23.333 -7.33301 46.333 -16 69 -26s43 -22.833 61 -38.5s32.5 -34.834 43.5 -57.501s16.5 -50 16.5 -82c0 -33.333 -6.33301 -63.666 -19 -90.999s-30.667 -50.666 -54 -69.999s-51.666 -34.333 -84.999 -45s-71 -16 -113 -16zM197 900h186l104 -131
h-144l-44 49h-18l-44 -49h-144z" />
    <glyph glyph-name="scircumflex" unicode="&#x15d;" horiz-adv-x="491" 
d="M269 -13c-49.333 0 -94.8311 5.99805 -136.498 17.998s-80.834 29.667 -117.501 53l79 123c9.33301 -8.66699 20.666 -16.667 33.999 -24s27.5 -13.833 42.5 -19.5s30.167 -10 45.5 -13s30 -4.5 44 -4.5c36 0 54 12 54 36c0 10 -3.33301 17.167 -10 21.5
s-16.834 8.5 -30.501 12.5s-31.167 8.66699 -52.5 14s-47 13.666 -77 24.999c-14.667 5.33301 -28.667 11.833 -42 19.5s-25 17 -35 28s-18 24 -24 39s-9 32.833 -9 53.5c0 50.667 18.167 90.667 54.5 120s85.833 44 148.5 44c38.667 0 76.5 -6 113.5 -18
s70.5 -28.667 100.5 -50l-81 -114c-18 15.333 -39.5 27.666 -64.5 36.999s-49.5 14 -73.5 14c-31.333 0 -47 -10.667 -47 -32c0 -8.66699 3.16699 -15.667 9.5 -21s14.666 -10 24.999 -14s22.5 -7.5 36.5 -10.5s28.667 -6.5 44 -10.5c20 -4.66699 40.333 -10.667 61 -18
s39.334 -17.166 56.001 -29.499s30.334 -27.666 41.001 -45.999s16 -41.166 16 -68.499c0 -24.667 -4.83301 -47.167 -14.5 -67.5s-23.5 -37.666 -41.5 -51.999s-39.667 -25.5 -65 -33.5s-53.333 -12 -84 -12zM299.002 584.998l-49 53h-18l-48 -53h-142l106 135h187
l106 -135h-142z" />
    <glyph glyph-name="Scedilla" unicode="&#x15e;" horiz-adv-x="590" 
d="M299 -12c-52 0 -102.5 8.16699 -151.5 24.5s-92.833 39.166 -131.5 68.499l94 146c28.667 -25.333 61.667 -44.166 99 -56.499s71.333 -18.5 102 -18.5c52 0 78 16.667 78 50c0 13.333 -4 23.833 -12 31.5s-20.5 14.834 -37.5 21.501s-38.167 13.667 -63.5 21
s-55.666 17.666 -90.999 30.999c-20 8 -38.833 17.167 -56.5 27.5s-33.334 23.333 -47.001 39s-24.5 34.167 -32.5 55.5s-12 47 -12 77s6.16699 57.833 18.5 83.5s29.333 47.667 51 66s47 32.666 76 42.999s60.167 15.5 93.5 15.5c52 0 99.167 -7.5 141.5 -22.5
s84.833 -36.833 127.5 -65.5l-93 -143c-27.333 23.333 -56.833 40.5 -88.5 51.5s-60.167 16.5 -85.5 16.5c-22.667 0 -39.334 -4.5 -50.001 -13.5s-16 -21.167 -16 -36.5c0 -12.667 4.16699 -22.834 12.5 -30.501s20 -14.5 35 -20.5s32.833 -11.667 53.5 -17
s43 -11.666 67 -18.999c23.333 -7.33301 46.333 -16 69 -26s43 -22.833 61 -38.5s32.5 -34.834 43.5 -57.501s16.5 -50 16.5 -82c0 -33.333 -6.33301 -63.666 -19 -90.999s-30.667 -50.666 -54 -69.999s-51.666 -34.333 -84.999 -45s-71 -16 -113 -16zM254 -190
c-9.33301 0 -18.999 0.5 -28.999 1.5s-20.333 2.83301 -31 5.5l9 84c3.33301 -1.33301 7.16602 -2.66602 11.499 -3.99902s8.83301 -2 13.5 -2c11.333 0 19.166 2 23.499 6s6.5 8.66699 6.5 14c0 6.66699 -2.66699 12.5 -8 17.5s-16.666 7.5 -33.999 7.5l26 60h91l-12 -25
c17.333 -6.66699 30.5 -16.334 39.5 -29.001s13.5 -27 13.5 -43c0 -11.333 -2.5 -22.5 -7.5 -33.5s-12.5 -21 -22.5 -30s-22.5 -16.167 -37.5 -21.5s-32.5 -8 -52.5 -8z" />
    <glyph glyph-name="scedilla" unicode="&#x15f;" horiz-adv-x="491" 
d="M269 -13c-49.333 0 -94.8311 5.99805 -136.498 17.998s-80.834 29.667 -117.501 53l79 123c9.33301 -8.66699 20.666 -16.667 33.999 -24s27.5 -13.833 42.5 -19.5s30.167 -10 45.5 -13s30 -4.5 44 -4.5c36 0 54 12 54 36c0 10 -3.33301 17.167 -10 21.5
s-16.834 8.5 -30.501 12.5s-31.167 8.66699 -52.5 14s-47 13.666 -77 24.999c-14.667 5.33301 -28.667 11.833 -42 19.5s-25 17 -35 28s-18 24 -24 39s-9 32.833 -9 53.5c0 50.667 18.167 90.667 54.5 120s85.833 44 148.5 44c38.667 0 76.5 -6 113.5 -18
s70.5 -28.667 100.5 -50l-81 -114c-18 15.333 -39.5 27.666 -64.5 36.999s-49.5 14 -73.5 14c-31.333 0 -47 -10.667 -47 -32c0 -8.66699 3.16699 -15.667 9.5 -21s14.666 -10 24.999 -14s22.5 -7.5 36.5 -10.5s28.667 -6.5 44 -10.5c20 -4.66699 40.333 -10.667 61 -18
s39.334 -17.166 56.001 -29.499s30.334 -27.666 41.001 -45.999s16 -41.166 16 -68.499c0 -24.667 -4.83301 -47.167 -14.5 -67.5s-23.5 -37.666 -41.5 -51.999s-39.667 -25.5 -65 -33.5s-53.333 -12 -84 -12zM221.002 -190.002c-9.33301 0 -18.999 0.5 -28.999 1.5
s-20.333 2.83301 -31 5.5l9 84c3.33301 -1.33301 7.16602 -2.66602 11.499 -3.99902s8.83301 -2 13.5 -2c11.333 0 19.166 2 23.499 6s6.5 8.66699 6.5 14c0 6.66699 -2.66699 12.5 -8 17.5s-16.666 7.5 -33.999 7.5l26 60h91l-12 -25
c17.333 -6.66699 30.5 -16.334 39.5 -29.001s13.5 -27 13.5 -43c0 -11.333 -2.5 -22.5 -7.5 -33.5s-12.5 -21 -22.5 -30s-22.5 -16.167 -37.5 -21.5s-32.5 -8 -52.5 -8z" />
    <glyph glyph-name="Scaron" unicode="&#x160;" horiz-adv-x="590" 
d="M299 -12c-52 0 -102.5 8.16699 -151.5 24.5s-92.833 39.166 -131.5 68.499l94 146c28.667 -25.333 61.667 -44.166 99 -56.499s71.333 -18.5 102 -18.5c52 0 78 16.667 78 50c0 13.333 -4 23.833 -12 31.5s-20.5 14.834 -37.5 21.501s-38.167 13.667 -63.5 21
s-55.666 17.666 -90.999 30.999c-20 8 -38.833 17.167 -56.5 27.5s-33.334 23.333 -47.001 39s-24.5 34.167 -32.5 55.5s-12 47 -12 77s6.16699 57.833 18.5 83.5s29.333 47.667 51 66s47 32.666 76 42.999s60.167 15.5 93.5 15.5c52 0 99.167 -7.5 141.5 -22.5
s84.833 -36.833 127.5 -65.5l-93 -143c-27.333 23.333 -56.833 40.5 -88.5 51.5s-60.167 16.5 -85.5 16.5c-22.667 0 -39.334 -4.5 -50.001 -13.5s-16 -21.167 -16 -36.5c0 -12.667 4.16699 -22.834 12.5 -30.501s20 -14.5 35 -20.5s32.833 -11.667 53.5 -17
s43 -11.666 67 -18.999c23.333 -7.33301 46.333 -16 69 -26s43 -22.833 61 -38.5s32.5 -34.834 43.5 -57.501s16.5 -50 16.5 -82c0 -33.333 -6.33301 -63.666 -19 -90.999s-30.667 -50.666 -54 -69.999s-51.666 -34.333 -84.999 -45s-71 -16 -113 -16zM94 900h144l44 -48h18
l44 48h144l-104 -131h-186z" />
    <glyph glyph-name="scaron" unicode="&#x161;" horiz-adv-x="491" 
d="M269 -13c-49.333 0 -94.8311 5.99805 -136.498 17.998s-80.834 29.667 -117.501 53l79 123c9.33301 -8.66699 20.666 -16.667 33.999 -24s27.5 -13.833 42.5 -19.5s30.167 -10 45.5 -13s30 -4.5 44 -4.5c36 0 54 12 54 36c0 10 -3.33301 17.167 -10 21.5
s-16.834 8.5 -30.501 12.5s-31.167 8.66699 -52.5 14s-47 13.666 -77 24.999c-14.667 5.33301 -28.667 11.833 -42 19.5s-25 17 -35 28s-18 24 -24 39s-9 32.833 -9 53.5c0 50.667 18.167 90.667 54.5 120s85.833 44 148.5 44c38.667 0 76.5 -6 113.5 -18
s70.5 -28.667 100.5 -50l-81 -114c-18 15.333 -39.5 27.666 -64.5 36.999s-49.5 14 -73.5 14c-31.333 0 -47 -10.667 -47 -32c0 -8.66699 3.16699 -15.667 9.5 -21s14.666 -10 24.999 -14s22.5 -7.5 36.5 -10.5s28.667 -6.5 44 -10.5c20 -4.66699 40.333 -10.667 61 -18
s39.334 -17.166 56.001 -29.499s30.334 -27.666 41.001 -45.999s16 -41.166 16 -68.499c0 -24.667 -4.83301 -47.167 -14.5 -67.5s-23.5 -37.666 -41.5 -51.999s-39.667 -25.5 -65 -33.5s-53.333 -12 -84 -12zM45.002 719.998h142l48 -52h18l49 52h142l-106 -135h-187z" />
    <glyph glyph-name="uni0162" unicode="&#x162;" horiz-adv-x="562" 
d="M190 544h-170v156h522v-156h-170v-544h-182v544zM240 -190c-9.33301 0 -18.999 0.5 -28.999 1.5s-20.333 2.83301 -31 5.5l9 84c3.33301 -1.33301 7.16602 -2.66602 11.499 -3.99902s8.83301 -2 13.5 -2c11.333 0 19.166 2 23.499 6s6.5 8.66699 6.5 14
c0 6.66699 -2.66699 12.5 -8 17.5s-16.666 7.5 -33.999 7.5l26 60h91l-12 -25c17.333 -6.66699 30.5 -16.334 39.5 -29.001s13.5 -27 13.5 -43c0 -11.333 -2.5 -22.5 -7.5 -33.5s-12.5 -21 -22.5 -30s-22.5 -16.167 -37.5 -21.5s-32.5 -8 -52.5 -8z" />
    <glyph glyph-name="uni0163" unicode="&#x163;" horiz-adv-x="404" 
d="M247 -8c-24 0 -46.165 3.50098 -66.498 10.501s-37.833 17.833 -52.5 32.5s-26.167 33.334 -34.5 56.001s-12.5 49.667 -12.5 81v218h-68v114c9.33301 3.33301 20.166 6.16602 32.499 8.49902s24.166 4.16602 35.499 5.49902v122l172 20v-140h131v-130h-132v-185
c0 -25.333 4.5 -43.333 13.5 -54s22.167 -16 39.5 -16c11.333 0 25 1.33301 41 4s28.667 5 38 7v-129c-19.333 -8.66699 -42 -15 -68 -19s-49 -6 -69 -6zM204.002 -189.999c-9.33301 0 -18.999 0.5 -28.999 1.5s-20.333 2.83301 -31 5.5l9 84
c3.33301 -1.33301 7.16602 -2.66602 11.499 -3.99902s8.83301 -2 13.5 -2c11.333 0 19.166 2 23.499 6s6.5 8.66699 6.5 14c0 6.66699 -2.66699 12.5 -8 17.5s-16.666 7.5 -33.999 7.5l26 60h91l-12 -25c17.333 -6.66699 30.5 -16.334 39.5 -29.001s13.5 -27 13.5 -43
c0 -11.333 -2.5 -22.5 -7.5 -33.5s-12.5 -21 -22.5 -30s-22.5 -16.167 -37.5 -21.5s-32.5 -8 -52.5 -8z" />
    <glyph glyph-name="Tcaron" unicode="&#x164;" horiz-adv-x="562" 
d="M190 544h-170v156h522v-156h-170v-544h-182v544zM85 900h144l44 -48h18l44 48h144l-104 -131h-186z" />
    <glyph glyph-name="tcaron" unicode="&#x165;" horiz-adv-x="424" 
d="M247 -8c-24 0 -46.165 3.50098 -66.498 10.501s-37.833 17.833 -52.5 32.5s-26.167 33.334 -34.5 56.001s-12.5 49.667 -12.5 81v218h-68v114c9.33301 3.33301 20.166 6.16602 32.499 8.49902s24.166 4.16602 35.499 5.49902v122l172 20v-140h131v-130h-132v-185
c0 -25.333 4.5 -43.333 13.5 -54s22.167 -16 39.5 -16c11.333 0 25 1.33301 41 4s28.667 5 38 7v-129c-19.333 -8.66699 -42 -15 -68 -19s-49 -6 -69 -6zM327.002 724.001h138l-40 -176h-104z" />
    <glyph glyph-name="Tbar" unicode="&#x166;" horiz-adv-x="562" 
d="M90 405h100v139h-170v156h522v-156h-170v-139h100v-120h-100v-285h-182v285h-100v120z" />
    <glyph glyph-name="tbar" unicode="&#x167;" horiz-adv-x="402" 
d="M17 330l57.002 0.000976562v60h-68v114c9.33301 3.33301 20.166 6.16602 32.499 8.49902s24.166 4.16602 35.499 5.49902v122l172 20v-140h131v-130h-132v-60h112v-110h-112v-15c0 -25.333 4.5 -43.333 13.5 -54s22.167 -16 39.5 -16c11.333 0 25 1.33301 41 4
s28.667 5 38 7v-129c-19.333 -8.66699 -42 -15 -68 -19s-49 -6 -69 -6c-24 0 -46.167 3.5 -66.5 10.5s-37.833 17.833 -52.5 32.5s-26.167 33.334 -34.5 56.001s-12.5 49.667 -12.5 81v48h-57v110z" />
    <glyph glyph-name="Utilde" unicode="&#x168;" horiz-adv-x="702" 
d="M352 -15c-93.333 0 -165.498 23.832 -216.498 71.499s-76.5 114.834 -76.5 201.501v442h181v-435c0 -37.333 10.833 -66.166 32.5 -86.499s48.5 -30.5 80.5 -30.5c31.333 0 57.333 10.167 78 30.5s31 49.166 31 86.499v435h181v-442c0 -44.667 -6.83301 -84 -20.5 -118
s-33.334 -62.5 -59.001 -85.5s-56.334 -40.333 -92.001 -52s-75.5 -17.5 -119.5 -17.5zM139.002 840.999c12 25.333 29.998 45.333 53.998 60s50 22 78 22c14.667 0 28.834 -2 42.501 -6s30.834 -10.667 51.501 -20c13.333 -6 26.166 -11.167 38.499 -15.5
s25.5 -6.5 39.5 -6.5c30.667 0 54.667 12.333 72 37l49 -73c-13.333 -25.333 -31.833 -45.333 -55.5 -60s-49.167 -22 -76.5 -22c-13.333 0 -27.166 2.16699 -41.499 6.5s-33.166 11.833 -56.499 22.5c-14.667 6 -27.834 10.667 -39.501 14s-23.167 5 -34.5 5
c-33.333 0 -57.333 -12.333 -72 -37z" />
    <glyph glyph-name="utilde" unicode="&#x169;" horiz-adv-x="613" 
d="M221 -12c-55.333 0 -98.167 17.333 -128.5 52s-45.5 83.667 -45.5 147v333h174v-294c0 -64 24 -96 72 -96h2c28 0 49.833 10.667 65.5 32s23.5 49 23.5 83v275h174v-520h-138c-3.33301 10 -6.5 22.5 -9.5 37.5s-4.83301 28.5 -5.5 40.5c-22 -28 -48.5 -50 -79.5 -66
s-64.833 -24 -101.5 -24h-3zM85.999 662c12.667 25.333 30.835 45.333 54.502 60s49.5 22 77.5 22c14.667 0 29 -2 43 -6s31 -10.333 51 -19c13.333 -6 26.166 -11.333 38.499 -16s25.5 -7 39.5 -7c31.333 0 55.333 12.333 72 37l50 -73
c-14 -25.333 -32.667 -45.333 -56 -60s-49 -22 -77 -22c-13.333 0 -27 2.16699 -41 6.5s-33 11.833 -57 22.5c-14.667 6.66699 -27.834 11.667 -39.501 15s-23.167 5 -34.5 5c-32 0 -56 -12.667 -72 -38z" />
    <glyph glyph-name="Umacron" unicode="&#x16a;" horiz-adv-x="702" 
d="M352 -15c-93.333 0 -165.498 23.832 -216.498 71.499s-76.5 114.834 -76.5 201.501v442h181v-435c0 -37.333 10.833 -66.166 32.5 -86.499s48.5 -30.5 80.5 -30.5c31.333 0 57.333 10.167 78 30.5s31 49.166 31 86.499v435h181v-442c0 -44.667 -6.83301 -84 -20.5 -118
s-33.334 -62.5 -59.001 -85.5s-56.334 -40.333 -92.001 -52s-75.5 -17.5 -119.5 -17.5zM196.002 891.999h312v-112h-312v112z" />
    <glyph glyph-name="umacron" unicode="&#x16b;" horiz-adv-x="613" 
d="M221 -12c-55.333 0 -98.167 17.333 -128.5 52s-45.5 83.667 -45.5 147v333h174v-294c0 -64 24 -96 72 -96h2c28 0 49.833 10.667 65.5 32s23.5 49 23.5 83v275h174v-520h-138c-3.33301 10 -6.5 22.5 -9.5 37.5s-4.83301 28.5 -5.5 40.5c-22 -28 -48.5 -50 -79.5 -66
s-64.833 -24 -101.5 -24h-3zM145.999 731h312v-120h-312v120z" />
    <glyph glyph-name="Ubreve" unicode="&#x16c;" horiz-adv-x="702" 
d="M352 -15c-93.333 0 -165.498 23.832 -216.498 71.499s-76.5 114.834 -76.5 201.501v442h181v-435c0 -37.333 10.833 -66.166 32.5 -86.499s48.5 -30.5 80.5 -30.5c31.333 0 57.333 10.167 78 30.5s31 49.166 31 86.499v435h181v-442c0 -44.667 -6.83301 -84 -20.5 -118
s-33.334 -62.5 -59.001 -85.5s-56.334 -40.333 -92.001 -52s-75.5 -17.5 -119.5 -17.5zM308.002 899.999c0 -13.333 3.66699 -24 11 -32s18.333 -12 33 -12s25.667 4 33 12s11 18.667 11 32h135c0 -44.667 -16.167 -80.667 -48.5 -108s-75.833 -41 -130.5 -41
c-55.333 0 -99 13.667 -131 41s-48 63.333 -48 108h135z" />
    <glyph glyph-name="ubreve" unicode="&#x16d;" horiz-adv-x="613" 
d="M221 -12c-55.333 0 -98.167 17.333 -128.5 52s-45.5 83.667 -45.5 147v333h174v-294c0 -64 24 -96 72 -96h2c28 0 49.833 10.667 65.5 32s23.5 49 23.5 83v275h174v-520h-138c-3.33301 10 -6.5 22.5 -9.5 37.5s-4.83301 28.5 -5.5 40.5c-22 -28 -48.5 -50 -79.5 -66
s-64.833 -24 -101.5 -24h-3zM255.999 720c0 -13.333 3.66699 -24 11 -32s18.333 -12 33 -12s25.667 4 33 12s11 18.667 11 32h135c0 -44.667 -16 -80.667 -48 -108s-75.667 -41 -131 -41c-54.667 0 -98.167 13.667 -130.5 41s-48.5 63.333 -48.5 108h135z" />
    <glyph glyph-name="Uring" unicode="&#x16e;" horiz-adv-x="702" 
d="M352 -15c-93.333 0 -165.498 23.832 -216.498 71.499s-76.5 114.834 -76.5 201.501v442h181v-435c0 -37.333 10.833 -66.166 32.5 -86.499s48.5 -30.5 80.5 -30.5c31.333 0 57.333 10.167 78 30.5s31 49.166 31 86.499v435h181v-442c0 -44.667 -6.83301 -84 -20.5 -118
s-33.334 -62.5 -59.001 -85.5s-56.334 -40.333 -92.001 -52s-75.5 -17.5 -119.5 -17.5zM354.002 731.999c-36 0 -65.167 9.33301 -87.5 28s-33.5 42 -33.5 70c0 32 11.167 57.5 33.5 76.5s51.5 28.5 87.5 28.5c34 0 61.833 -9.5 83.5 -28.5s32.5 -44.5 32.5 -76.5
c0 -28 -10.667 -51.333 -32 -70s-49.333 -28 -84 -28zM352.002 799.999c11.333 0 20.5 3.16699 27.5 9.5s10.5 14.166 10.5 23.499c0 10 -3.5 18.333 -10.5 25s-16.167 10 -27.5 10s-20.5 -3.33301 -27.5 -10s-10.5 -15 -10.5 -25c0 -9.33301 3.5 -17.166 10.5 -23.499
s16.167 -9.5 27.5 -9.5z" />
    <glyph glyph-name="uring" unicode="&#x16f;" horiz-adv-x="613" 
d="M221 -12c-55.333 0 -98.167 17.333 -128.5 52s-45.5 83.667 -45.5 147v333h174v-294c0 -64 24 -96 72 -96h2c28 0 49.833 10.667 65.5 32s23.5 49 23.5 83v275h174v-520h-138c-3.33301 10 -6.5 22.5 -9.5 37.5s-4.83301 28.5 -5.5 40.5c-22 -28 -48.5 -50 -79.5 -66
s-64.833 -24 -101.5 -24h-3zM301.999 573c-36 0 -65 9.16699 -87 27.5s-33 41.833 -33 70.5c0 32 11 57.5 33 76.5s51 28.5 87 28.5c34 0 61.833 -9.5 83.5 -28.5s32.5 -44.5 32.5 -76.5c0 -28.667 -10.667 -52.167 -32 -70.5s-49.333 -27.5 -84 -27.5zM300.999 640
c11.333 0 20.333 3.16699 27 9.5s10 14.166 10 23.499c0 10 -3.33301 18.5 -10 25.5s-15.667 10.5 -27 10.5s-20.666 -3.5 -27.999 -10.5s-11 -15.5 -11 -25.5c0 -9.33301 3.66699 -17.166 11 -23.499s16.666 -9.5 27.999 -9.5z" />
    <glyph glyph-name="Uhungarumlaut" unicode="&#x170;" horiz-adv-x="702" 
d="M352 -15c-93.333 0 -165.498 23.832 -216.498 71.499s-76.5 114.834 -76.5 201.501v442h181v-435c0 -37.333 10.833 -66.166 32.5 -86.499s48.5 -30.5 80.5 -30.5c31.333 0 57.333 10.167 78 30.5s31 49.166 31 86.499v435h181v-442c0 -44.667 -6.83301 -84 -20.5 -118
s-33.334 -62.5 -59.001 -85.5s-56.334 -40.333 -92.001 -52s-75.5 -17.5 -119.5 -17.5zM183.002 753.999l59 158h158l-79 -158h-138zM385.002 753.999l59 158h158l-78 -158h-139z" />
    <glyph glyph-name="uhungarumlaut" unicode="&#x171;" horiz-adv-x="613" 
d="M221 -12c-55.333 0 -98.167 17.333 -128.5 52s-45.5 83.667 -45.5 147v333h174v-294c0 -64 24 -96 72 -96h2c28 0 49.833 10.667 65.5 32s23.5 49 23.5 83v275h174v-520h-138c-3.33301 10 -6.5 22.5 -9.5 37.5s-4.83301 28.5 -5.5 40.5c-22 -28 -48.5 -50 -79.5 -66
s-64.833 -24 -101.5 -24h-3zM188.999 748h146l-67 -174h-127zM385.999 748h146l-67 -174h-127z" />
    <glyph glyph-name="Uogonek" unicode="&#x172;" horiz-adv-x="702" 
d="M432 -183c-16 -4.66699 -31.667 -6.99805 -47 -6.99805c-32 0 -57.333 7.33301 -76 22s-28 35.667 -28 63c0 32 12.333 62.333 37 91c-82.667 6 -146.5 32.667 -191.5 80s-67.5 111.333 -67.5 192v442h181v-435c0 -37.333 10.833 -66.166 32.5 -86.499
s48.5 -30.5 80.5 -30.5c31.333 0 57.333 10.167 78 30.5s31 49.166 31 86.499v435h181v-442c0 -70.667 -16.667 -127.834 -50 -171.501s-79.333 -73.5 -138 -89.5c-18.667 -7.33301 -34.5 -16.833 -47.5 -28.5s-19.5 -26.167 -19.5 -43.5c0 -10 2.16699 -17.5 6.5 -22.5
s10.166 -7.5 17.499 -7.5c3.33301 0 6.83301 0.666992 10.5 2s6.83398 2.66602 9.50098 3.99902v-84z" />
    <glyph glyph-name="uogonek" unicode="&#x173;" horiz-adv-x="613" 
d="M221 -12c-55.333 0 -98.167 17.333 -128.5 52s-45.5 83.667 -45.5 147v333h174v-294c0 -64 24 -96 72 -96h2c28 0 49.833 10.667 65.5 32s23.5 49 23.5 83v275h174v-520h-138c-3.33301 10 -6.5 22.5 -9.5 37.5s-4.83301 28.5 -5.5 40.5c-22 -28 -48.5 -50 -79.5 -66
s-64.833 -24 -101.5 -24h-3zM510.999 -190c-32 0 -57.334 7.66797 -76.001 23.001s-28 37.333 -28 66c0 28 8.5 54.667 25.5 80s39.5 46.666 67.5 63.999l58 -43c-15.333 -15.333 -26.166 -29.5 -32.499 -42.5s-9.5 -25.167 -9.5 -36.5c0 -17.333 7.33301 -26 22 -26
c8 0 14.667 2 20 6v-84c-16 -4.66699 -31.667 -7 -47 -7z" />
    <glyph glyph-name="Wcircumflex" unicode="&#x174;" horiz-adv-x="933" 
d="M10 700h184l80 -490h9l111 490h145l113 -490h8l79 490h184l-146 -700h-218l-89 397h-7l-89 -397h-218zM374 900h186l104 -131h-144l-44 49h-18l-44 -49h-144z" />
    <glyph glyph-name="wcircumflex" unicode="&#x175;" horiz-adv-x="796" 
d="M11 520h171l49 -338h10l83 338h148l83 -338h10l48 338h172l-109 -520h-191l-85 310h-4l-85 -310h-191zM456 585l-49 53h-18l-48 -53h-142l106 135h187l106 -135h-142z" />
    <glyph glyph-name="Ycircumflex" unicode="&#x176;" horiz-adv-x="643" 
d="M231 271l-240 429h208l119 -263h8l118 263h208l-239 -429v-271h-182v271zM229 900h186l104 -131h-144l-44 49h-18l-44 -49h-144z" />
    <glyph glyph-name="ycircumflex" unicode="&#x177;" horiz-adv-x="560" 
d="M163 -206c-18.667 0 -37.834 1.49902 -57.501 4.49902s-37.5 8.16699 -53.5 15.5v145c10.667 -7.33301 22.834 -13.333 36.501 -18s28.167 -7 43.5 -7s29.833 3.5 43.5 10.5s25.167 18.5 34.5 34.5l-208 541h178l116 -364h7l85 364h173l-172 -549
c-18 -57.333 -45.667 -101.166 -83 -131.499s-85 -45.5 -143 -45.5zM344 584.999l-49 53h-18l-48 -53h-142l106 135h187l106 -135h-142z" />
    <glyph glyph-name="Ydieresis" unicode="&#x178;" horiz-adv-x="643" 
d="M231 271l-240 429h208l119 -263h8l118 263h208l-239 -429v-271h-182v271zM228 753c-22.667 0 -40.834 7 -54.501 21s-20.5 32.667 -20.5 56c0 24 6.83301 43.333 20.5 58s31.834 22 54.501 22c22 0 40.5 -7.33301 55.5 -22s22.5 -34 22.5 -58
c0 -23.333 -7.5 -42 -22.5 -56s-33.5 -21 -55.5 -21zM413 753c-22.667 0 -40.667 7 -54 21s-20 32.667 -20 56c0 24 6.66699 43.333 20 58s31.333 22 54 22c23.333 0 42.333 -7.33301 57 -22s22 -34 22 -58c0 -23.333 -7.33301 -42 -22 -56s-33.667 -21 -57 -21z" />
    <glyph glyph-name="Zacute" unicode="&#x179;" horiz-adv-x="569" 
d="M20 134l304 403v7h-286v156h505v-135l-301 -399v-10h307v-156h-529v134zM347 756h-131l59 158h158z" />
    <glyph glyph-name="zacute" unicode="&#x17a;" horiz-adv-x="484" 
d="M19 119l233 265v6h-220v130h422v-119l-232 -265v-6h241v-130h-444v119zM168 574l58 173h146l-77 -173h-127z" />
    <glyph glyph-name="Zdotaccent" unicode="&#x17b;" horiz-adv-x="569" 
d="M20 134l304 403v7h-286v156h505v-135l-301 -399v-10h307v-156h-529v134zM284 755c-28.667 0 -51.667 7.66699 -69 23s-26 35.333 -26 60c0 25.333 8.66699 45.666 26 60.999s40.333 23 69 23c30 0 54 -7.66699 72 -23s27 -35.666 27 -60.999
c0 -24.667 -9 -44.667 -27 -60s-42 -23 -72 -23z" />
    <glyph glyph-name="zdotaccent" unicode="&#x17c;" horiz-adv-x="484" 
d="M19 119l233 265v6h-220v130h422v-119l-232 -265v-6h241v-130h-444v119zM242 583c-29.333 0 -52.833 7.66699 -70.5 23s-26.5 35.666 -26.5 60.999c0 26 8.83301 46.833 26.5 62.5s41.167 23.5 70.5 23.5c30 0 54.333 -7.83301 73 -23.5s28 -36.5 28 -62.5
c0 -25.333 -9.33301 -45.666 -28 -60.999s-43 -23 -73 -23z" />
    <glyph glyph-name="Zcaron" unicode="&#x17d;" horiz-adv-x="569" 
d="M20 134l304 403v7h-286v156h505v-135l-301 -399v-10h307v-156h-529v134zM89 897h144l44 -48h18l44 48h144l-104 -131h-186z" />
    <glyph glyph-name="zcaron" unicode="&#x17e;" horiz-adv-x="484" 
d="M19 119l233 265v6h-220v130h422v-119l-232 -265v-6h241v-130h-444v119zM43 720h142l48 -52h18l49 52h142l-106 -135h-187z" />
    <glyph glyph-name="longs" unicode="&#x17f;" horiz-adv-x="302" 
d="M56 532c0 58.667 13.8311 104.333 41.498 137s67.5 49 119.5 49c19.333 0 41.333 -2 66 -6s45.334 -9 62.001 -15v-126c-12 6 -24 10.333 -36 13s-22.333 4 -31 4c-17.333 0 -29.666 -5.33301 -36.999 -16s-11 -28.667 -11 -54v-518h-174v532z" />
    <glyph glyph-name="uni018F" unicode="&#x18f;" horiz-adv-x="742" 
d="M523 411c-9.33301 44.667 -27.501 80.3301 -54.501 106.997s-61.167 40 -102.5 40h-15c-33.333 0 -63.5 -7.83301 -90.5 -23.5s-50.5 -37.834 -70.5 -66.501l-123 105c36.667 45.333 80.334 80 131.001 104s108.334 36 173.001 36h5c46 0 89.167 -8.83301 129.5 -26.5
s75.5 -42.167 105.5 -73.5s53.5 -68.666 70.5 -111.999s25.5 -90.666 25.5 -141.999v-19c0 -52 -8.33301 -99.667 -25 -143s-39.834 -80.666 -69.501 -111.999s-65.167 -55.666 -106.5 -72.999s-86.666 -26 -135.999 -26h-4c-48.667 0 -93.5 8.5 -134.5 25.5
s-76.5 41 -106.5 72s-53.333 67.833 -70 110.5s-25.334 89.667 -26.001 141v76h494zM214.999 285.996c5.33301 -48 21 -85.167 47 -111.5s60 -39.5 102 -39.5h13c42 0 76 13.167 102 39.5s41.667 63.5 47 111.5h-311z" />
    <glyph glyph-name="florin" unicode="&#x192;" horiz-adv-x="387" 
d="M91 -197c-18 0 -36.5039 1.49902 -55.5039 4.49902s-37.167 7.5 -54.5 13.5v141c8.66699 -4 16.834 -7 24.501 -9s16.167 -3 25.5 -3c18.667 0 31.834 4.83301 39.501 14.5s11.5 26.5 11.5 50.5v372h-66v107c9.33301 3.33301 20.166 6.16602 32.499 8.49902
s23.5 4.16602 33.5 5.49902v24c0 58.667 13.833 104.334 41.5 137.001s67.5 49 119.5 49c9.33301 0 19.833 -0.5 31.5 -1.5s23.334 -2.5 35.001 -4.5s22.834 -4.16699 33.501 -6.5s20 -5.16602 28 -8.49902v-126c-12.667 6 -25.667 10.333 -39 13s-25 4 -35 4
c-19.333 0 -32.833 -5.16699 -40.5 -15.5s-11.5 -27.166 -11.5 -50.499v-12h123v-123h-112v-397c0 -60 -14.167 -106.167 -42.5 -138.5s-69.166 -48.5 -122.499 -48.5z" />
    <glyph glyph-name="uni01CD" unicode="&#x1cd;" horiz-adv-x="661" 
d="M217 700h228l226 -700h-193l-36 128h-224l-36 -128h-193zM407 269l-70 239h-13l-70 -239h153zM134 900h144l44 -48h18l44 48h144l-104 -131h-186z" />
    <glyph glyph-name="uni01CE" unicode="&#x1ce;" horiz-adv-x="567" 
d="M201 -12c-25.333 0 -48.6621 3.66699 -69.9951 11s-39.833 17.666 -55.5 30.999s-27.834 29.5 -36.501 48.5s-13 39.833 -13 62.5v13c0 56 23.5 98 70.5 126s120.167 42 219.5 42h35v9c0 22 -6.33301 39.5 -19 52.5s-32.334 19.5 -59.001 19.5h-4
c-23.333 0 -47.833 -3.83301 -73.5 -11.5s-52.834 -20.167 -81.501 -37.5l-63 115c31.333 19.333 67.166 34.666 107.499 45.999s81.166 17 122.499 17h11c68.667 0 122.667 -18.333 162 -55s59 -88.334 59 -155.001v-192c0 -23.333 1.66699 -45.166 5 -65.499
s7.66602 -41.833 12.999 -64.5h-160c-2.66699 8 -5.16699 16.833 -7.5 26.5s-4.16602 19.834 -5.49902 30.501c-17.333 -21.333 -39.833 -38.166 -67.5 -50.499s-57.5 -18.5 -89.5 -18.5zM249.004 114c18 0 36 4 54 12s34 19.667 48 35v69h-28
c-88.667 0 -133 -21.333 -133 -64v-5c0 -13.333 5.5 -24.5 16.5 -33.5s25.167 -13.5 42.5 -13.5zM85.0039 720h142l48 -52h18l49 52h142l-106 -135h-187z" />
    <glyph glyph-name="uni01DD" unicode="&#x1dd;" 
d="M271 531c40 0 76.4971 -6.33105 109.497 -18.998s61.333 -30.5 85 -53.5s41.834 -50.5 54.501 -82.5s19 -67.667 19 -107v-20c0 -38 -6.33301 -73.167 -19 -105.5s-30.5 -60 -53.5 -83s-50.5 -41 -82.5 -54s-67 -19.5 -105 -19.5h-14c-35.333 0 -68 6 -98 18
s-55.833 28.5 -77.5 49.5s-38.5 45.833 -50.5 74.5s-18 60 -18 94v79h351v1c-3.33301 30 -15 53.167 -35 69.5s-46 24.5 -78 24.5h-9c-27.333 0 -52.166 -5.5 -74.499 -16.5s-41.833 -24.167 -58.5 -39.5l-78 111c12.667 11.333 27.334 21.666 44.001 30.999
s34.5 17.666 53.5 24.999s38.5 13 58.5 17s39.333 6 58 6h18zM185.997 205.002l-0.000976562 -5c0.666992 -30 8.33398 -52.833 23.001 -68.5s34 -23.5 58 -23.5h9c24 0 43.833 8.33301 59.5 25s26.5 40.667 32.5 72h-182z" />
    <glyph glyph-name="uni01F4" unicode="&#x1f4;" horiz-adv-x="746" 
d="M318 747l67 158h162l-90 -172zM343 -12c-46.667 0 -88.9961 8.33203 -126.996 24.999s-70.333 40.334 -97 71.001s-47.334 67.667 -62.001 111s-22 91.333 -22 144v19c0 52.667 8.5 100.834 25.5 144.501s40.667 81.167 71 112.5s66.833 55.666 109.5 72.999
s89.667 26 141 26h13c58.667 0 112.667 -13.667 162 -41s90.666 -67 123.999 -119l-141 -90c-35.333 58 -82.666 87 -141.999 87h-12c-24 0 -46 -4.66699 -66 -14s-37.167 -22.5 -51.5 -39.5s-25.5 -37.333 -33.5 -61s-12 -49.5 -12 -77.5v-20
c0 -58.667 14.833 -105 44.5 -139s70.167 -51 121.5 -51h12c17.333 0 33.833 2.33301 49.5 7s29.167 11 40.5 19s20.333 16.833 27 26.5s10 19.5 10 29.5v10h-130v145h293v-386h-129c-4 6.66699 -7.83301 17.5 -11.5 32.5s-5.83398 29.5 -6.50098 43.5
c-6.66699 -12 -16.334 -23.333 -29.001 -34s-27.334 -20 -44.001 -28s-34.667 -14.333 -54 -19s-39 -7 -59 -7h-15z" />
    <glyph glyph-name="uni01F5" unicode="&#x1f5;" horiz-adv-x="557" 
d="M190 576l58 174h146l-76 -174h-128zM22 344c0 27.333 6.00098 52.334 18.001 75.001s28.5 42.5 49.5 59.5s45.833 30.167 74.5 39.5s59.667 14 93 14h36c32 0 61.333 -4 88 -12c4 11.333 7.83301 21.333 11.5 30s8.16699 16.667 13.5 24h152l-66 -127
c24 -30 36 -64.333 36 -103v-10c0 -26.667 -6 -51.5 -18 -74.5s-28.5 -42.833 -49.5 -59.5s-45.833 -29.834 -74.5 -39.501s-59.667 -14.5 -93 -14.5h-29v-44h48c34 0 65.333 -3.66699 94 -11s53.5 -17.666 74.5 -30.999s37.333 -29.333 49 -48s17.5 -39 17.5 -61v-10
c0 -22.667 -6 -43.334 -18 -62.001s-28.667 -34.834 -50 -48.501s-46.5 -24.334 -75.5 -32.001s-60.5 -11.5 -94.5 -11.5h-51c-34 0 -65.5 3.83301 -94.5 11.5s-54.167 18.334 -75.5 32.001s-38 29.834 -50 48.501s-18 39.334 -18 62.001v15c0 30 10.5 56.667 31.5 80
s49.167 41.333 84.5 54v82c-34.667 15.333 -62.334 37.166 -83.001 65.499s-31 60.5 -31 96.5v10zM191.001 326.001c0 -22 7.83301 -39.499 23.5 -52.499s33.5 -19.5 53.5 -19.5h15c19.333 0 37 6.66699 53 20s24 30.666 24 51.999v15c0 22 -8 39.5 -24 52.5
s-33.667 19.5 -53 19.5h-15c-20 0 -37.833 -6.5 -53.5 -19.5s-23.5 -30.5 -23.5 -52.5v-15zM192.001 -49.998c0 -12 6.66699 -22.498 20 -31.498s31.666 -13.5 54.999 -13.5h36c23.333 0 42.166 4.66699 56.499 14s21.5 19.666 21.5 30.999v12
c0 11.333 -7.16699 21.666 -21.5 30.999s-33.166 14 -56.499 14h-36c-23.333 0 -41.666 -4.5 -54.999 -13.5s-20 -19.5 -20 -31.5v-12z" />
    <glyph glyph-name="AEacute" unicode="&#x1fc;" horiz-adv-x="858" 
d="M220 700h579v-156h-245v-122h225v-146h-225v-120h255v-156h-426v128h-162l-38 -128h-193zM383 269v275h-43l-81 -275h124zM530 739h-131l59 158h158z" />
    <glyph glyph-name="aeacute" unicode="&#x1fd;" horiz-adv-x="866" 
d="M197 -12c-24.667 0 -47.499 3.66602 -68.499 10.999s-39.167 17.833 -54.5 31.5s-27.166 30.334 -35.499 50.001s-12.5 41.834 -12.5 66.501c0 114 94.667 171 284 171h34c0 28 -5.66699 49 -17 63s-32.333 21 -63 21c-22 0 -45.5 -3.83301 -70.5 -11.5
s-51.5 -20.167 -79.5 -37.5l-63 116c30 20 64.5 35.5 103.5 46.5s78.833 16.5 119.5 16.5c28.667 0 56 -3.83301 82 -11.5s49.667 -21.834 71 -42.501c21.333 16.667 45.666 29.834 72.999 39.501s57 14.5 89 14.5h12c35.333 0 68 -5.83301 98 -17.5s55.833 -28 77.5 -49
s38.5 -46 50.5 -75s18 -60.5 18 -94.5v-79h-348c3.33301 -30 15 -53.333 35 -70s45.667 -25 77 -25h7c25.333 0 49.833 5.33301 73.5 16s43.5 24 59.5 40l78 -111c-12 -10.667 -26.5 -20.834 -43.5 -30.501s-35 -18.167 -54 -25.5s-38.5 -13 -58.5 -17s-39.333 -6 -58 -6
h-17c-41.333 0 -78.5 6.83301 -111.5 20.5s-61.167 32.834 -84.5 57.501c-33.333 -30.667 -66.833 -51.334 -100.5 -62.001s-67.834 -16 -102.501 -16zM681.001 313.999v4c-0.666992 30 -8.5 53 -23.5 69s-34.167 24 -57.5 24h-7c-24 0 -43.833 -8.33301 -59.5 -25
s-26.5 -40.667 -32.5 -72h180zM346.001 161.999c-3.33301 8 -6.00098 18.334 -8.00098 31.001s-3 23.667 -3 33h-17c-42.667 0 -74.667 -5.66699 -96 -17s-32 -27 -32 -47c0 -14 5.33301 -25.5 16 -34.5s24.667 -13.5 42 -13.5c16.667 0 33.834 4.16699 51.501 12.5
s33.167 20.166 46.5 35.499zM368 554l58 173h146l-77 -173h-127z" />
    <glyph glyph-name="Oslashacute" unicode="&#x1fe;" horiz-adv-x="767" 
d="M157 59c-38.667 31.333 -68.668 71.001 -90.001 119.001s-32 102 -32 162v20c0 53.333 8.16699 101.833 24.5 145.5s39.5 81 69.5 112s66 55 108 72s88.667 25.5 140 25.5h14c43.333 0 83.333 -6 120 -18l21 38h129l-51 -93c38.667 -31.333 68.834 -71 90.501 -119
s32.5 -102.333 32.5 -163v-20c0 -52.667 -8.33301 -100.834 -25 -144.501s-40 -81 -70 -112s-66 -55.167 -108 -72.5s-88.333 -26 -139 -26h-14c-44.667 0 -85 6.33301 -121 19l-22 -40h-128zM214.999 340.001c0 -28 2.83301 -53.5 8.5 -76.5s13.5 -43.167 23.5 -60.5
l201 360c-18.667 7.33301 -38 11 -58 11h-12c-24 0 -46 -4.83301 -66 -14.5s-37.167 -23.667 -51.5 -42s-25.5 -40.5 -33.5 -66.5s-12 -55.667 -12 -89v-22zM317.999 138.001c18 -8 37.999 -12 59.999 -12h12c48.667 0 87.834 19 117.501 57s44.5 90.333 44.5 157v22
c0 28 -2.83301 53.333 -8.5 76s-13.5 42.667 -23.5 60zM448.998 756.001h-131l59 158h158z" />
    <glyph glyph-name="oslashacute" unicode="&#x1ff;" horiz-adv-x="604" 
d="M112 49c-28 23.333 -49.499 51.501 -64.499 84.501s-22.5 69.833 -22.5 110.5v32c0 38 6.66699 72.667 20 104s32 58.166 56 80.499s52.667 39.833 86 52.5s70 19 110 19h10c35.333 0 67 -4.33301 95 -13l24 41h120l-52 -90c27.333 -23.333 48.333 -51.333 63 -84
s22 -69.334 22 -110.001v-32c0 -38 -6.66699 -72.667 -20 -104s-32 -58.166 -56 -80.499s-52.667 -39.833 -86 -52.5s-70 -19 -110 -19h-10c-16.667 0 -32.834 1 -48.501 3s-30.5 5.33301 -44.5 10l-27 -43h-118zM348.001 407.001c-12.667 5.33301 -26 8 -40 8h-12
c-32.667 0 -58.667 -12.5 -78 -37.5s-29 -59.167 -29 -102.5v-22c0 -30.667 4.33301 -56.667 13 -78zM308.001 105.001c32.667 0 58.667 13.167 78 39.5s29 62.5 29 108.5v22c0 27.333 -4 51 -12 71l-146 -233c12 -5.33301 25 -8 39 -8h12zM229.001 573.001l58 173h146
l-77 -173h-127z" />
    <glyph glyph-name="uni0218" unicode="&#x218;" horiz-adv-x="590" 
d="M299 -12c-52 0 -102.5 8.16699 -151.5 24.5s-92.833 39.166 -131.5 68.499l94 146c28.667 -25.333 61.667 -44.166 99 -56.499s71.333 -18.5 102 -18.5c52 0 78 16.667 78 50c0 13.333 -4 23.833 -12 31.5s-20.5 14.834 -37.5 21.501s-38.167 13.667 -63.5 21
s-55.666 17.666 -90.999 30.999c-20 8 -38.833 17.167 -56.5 27.5s-33.334 23.333 -47.001 39s-24.5 34.167 -32.5 55.5s-12 47 -12 77s6.16699 57.833 18.5 83.5s29.333 47.667 51 66s47 32.666 76 42.999s60.167 15.5 93.5 15.5c52 0 99.167 -7.5 141.5 -22.5
s84.833 -36.833 127.5 -65.5l-93 -143c-27.333 23.333 -56.833 40.5 -88.5 51.5s-60.167 16.5 -85.5 16.5c-22.667 0 -39.334 -4.5 -50.001 -13.5s-16 -21.167 -16 -36.5c0 -12.667 4.16699 -22.834 12.5 -30.501s20 -14.5 35 -20.5s32.833 -11.667 53.5 -17
s43 -11.666 67 -18.999c23.333 -7.33301 46.333 -16 69 -26s43 -22.833 61 -38.5s32.5 -34.834 43.5 -57.501s16.5 -50 16.5 -82c0 -33.333 -6.33301 -63.666 -19 -90.999s-30.667 -50.666 -54 -69.999s-51.666 -34.333 -84.999 -45s-71 -16 -113 -16zM231 -42h143l-66 -159
h-112z" />
    <glyph glyph-name="uni0219" unicode="&#x219;" horiz-adv-x="491" 
d="M269 -13c-49.333 0 -94.8311 5.99805 -136.498 17.998s-80.834 29.667 -117.501 53l79 123c9.33301 -8.66699 20.666 -16.667 33.999 -24s27.5 -13.833 42.5 -19.5s30.167 -10 45.5 -13s30 -4.5 44 -4.5c36 0 54 12 54 36c0 10 -3.33301 17.167 -10 21.5
s-16.834 8.5 -30.501 12.5s-31.167 8.66699 -52.5 14s-47 13.666 -77 24.999c-14.667 5.33301 -28.667 11.833 -42 19.5s-25 17 -35 28s-18 24 -24 39s-9 32.833 -9 53.5c0 50.667 18.167 90.667 54.5 120s85.833 44 148.5 44c38.667 0 76.5 -6 113.5 -18
s70.5 -28.667 100.5 -50l-81 -114c-18 15.333 -39.5 27.666 -64.5 36.999s-49.5 14 -73.5 14c-31.333 0 -47 -10.667 -47 -32c0 -8.66699 3.16699 -15.667 9.5 -21s14.666 -10 24.999 -14s22.5 -7.5 36.5 -10.5s28.667 -6.5 44 -10.5c20 -4.66699 40.333 -10.667 61 -18
s39.334 -17.166 56.001 -29.499s30.334 -27.666 41.001 -45.999s16 -41.166 16 -68.499c0 -24.667 -4.83301 -47.167 -14.5 -67.5s-23.5 -37.666 -41.5 -51.999s-39.667 -25.5 -65 -33.5s-53.333 -12 -84 -12zM189.002 -42.002h143l-66 -159h-112z" />
    <glyph glyph-name="uni021A" unicode="&#x21a;" horiz-adv-x="562" 
d="M190 544h-170v156h522v-156h-170v-544h-182v544zM215 -42h143l-66 -159h-112z" />
    <glyph glyph-name="uni021B" unicode="&#x21b;" horiz-adv-x="404" 
d="M247 -8c-24 0 -46.165 3.50098 -66.498 10.501s-37.833 17.833 -52.5 32.5s-26.167 33.334 -34.5 56.001s-12.5 49.667 -12.5 81v218h-68v114c9.33301 3.33301 20.166 6.16602 32.499 8.49902s24.166 4.16602 35.499 5.49902v122l172 20v-140h131v-130h-132v-185
c0 -25.333 4.5 -43.333 13.5 -54s22.167 -16 39.5 -16c11.333 0 25 1.33301 41 4s28.667 5 38 7v-129c-19.333 -8.66699 -42 -15 -68 -19s-49 -6 -69 -6zM181.002 -41.999h143l-66 -159h-112z" />
    <glyph glyph-name="uni0237" unicode="&#x237;" horiz-adv-x="279" 
d="M58 -197c-18 0 -36.333 1.5 -55 4.5s-36.667 7.5 -54 13.5v141c16 -8 32.333 -12 49 -12c18.667 0 32 4.83301 40 14.5s12 26.5 12 50.5v505h174v-527c0 -60.667 -14.167 -107.5 -42.5 -140.5s-69.5 -49.5 -123.5 -49.5z" />
    <glyph glyph-name="circumflex" unicode="&#x2c6;" horiz-adv-x="411" 
d="M263 585l-49 53h-18l-48 -53h-142l106 135h187l106 -135h-142z" />
    <glyph glyph-name="caron" unicode="&#x2c7;" horiz-adv-x="411" 
d="M6 720h142l48 -52h18l49 52h142l-106 -135h-187z" />
    <glyph glyph-name="breve" unicode="&#x2d8;" horiz-adv-x="372" 
d="M142 720c0 -13.333 3.66699 -24 11 -32s18.333 -12 33 -12s25.667 4 33 12s11 18.667 11 32h135c0 -44.667 -16 -80.667 -48 -108s-75.667 -41 -131 -41c-54.667 0 -98.167 13.667 -130.5 41s-48.5 63.333 -48.5 108h135z" />
    <glyph glyph-name="dotaccent" unicode="&#x2d9;" horiz-adv-x="276" 
d="M136 580c-29.333 0 -52.833 7.66699 -70.5 23s-26.5 35.666 -26.5 60.999c0 26 8.83301 46.833 26.5 62.5s41.167 23.5 70.5 23.5c30 0 54.333 -7.83301 73 -23.5s28 -36.5 28 -62.5c0 -25.333 -9.33301 -45.666 -28 -60.999s-43 -23 -73 -23z" />
    <glyph glyph-name="ring" unicode="&#x2da;" horiz-adv-x="262" 
d="M131 570c-36 0 -65 9.16699 -87 27.5s-33 41.833 -33 70.5c0 32 11 57.5 33 76.5s51 28.5 87 28.5c34 0 61.833 -9.5 83.5 -28.5s32.5 -44.5 32.5 -76.5c0 -28.667 -10.667 -52.167 -32 -70.5s-49.333 -27.5 -84 -27.5zM130 637c11.333 0 20.333 3.16699 27 9.5
s10 14.166 10 23.499c0 10 -3.33301 18.5 -10 25.5s-15.667 10.5 -27 10.5s-20.666 -3.5 -27.999 -10.5s-11 -15.5 -11 -25.5c0 -9.33301 3.66699 -17.166 11 -23.499s16.666 -9.5 27.999 -9.5z" />
    <glyph glyph-name="ogonek" unicode="&#x2db;" horiz-adv-x="227" 
d="M139 -190c-32 0 -57.334 7.66797 -76.001 23.001s-28 37.333 -28 66c0 28 8.5 54.667 25.5 80s39.5 46.666 67.5 63.999l58 -43c-15.333 -15.333 -26.166 -29.5 -32.499 -42.5s-9.5 -25.167 -9.5 -36.5c0 -17.333 7.33301 -26 22 -26c8 0 14.667 2 20 6v-84
c-16 -4.66699 -31.667 -7 -47 -7z" />
    <glyph glyph-name="tilde" unicode="&#x2dc;" horiz-adv-x="479" 
d="M26 660c12.667 25.333 30.835 45.333 54.502 60s49.5 22 77.5 22c14.667 0 29 -2 43 -6s31 -10.333 51 -19c13.333 -6 26.166 -11.333 38.499 -16s25.5 -7 39.5 -7c31.333 0 55.333 12.333 72 37l50 -73c-14 -25.333 -32.667 -45.333 -56 -60s-49 -22 -77 -22
c-13.333 0 -27 2.16699 -41 6.5s-33 11.833 -57 22.5c-14.667 6.66699 -27.834 11.667 -39.501 15s-23.167 5 -34.5 5c-32 0 -56 -12.667 -72 -38z" />
    <glyph glyph-name="hungarumlaut" unicode="&#x2dd;" 
d="M90 745h146l-67 -174h-127zM287 745h146l-67 -174h-127z" />
    </font>
</defs>
</svg>
