<svg xmlns="http://www.w3.org/2000/svg">
<defs>
<font id="MacPawFixelText-SemiBold" horiz-adv-x="601" >
  <font-face 
    font-family="MacPaw Fixel Text Semi Bold"
    font-weight="600"
    font-stretch="semi-condensed"
    units-per-em="1000"
    panose-1="0 0 0 0 0 0 0 0 0 0"
    ascent="800"
    descent="-200"
    x-height="520"
    cap-height="700"
    bbox="-49 -209.001 1152 930"
    underline-thickness="50"
    underline-position="-75"
    unicode-range="U+000D-U+FB04"
  />
<missing-glyph horiz-adv-x="713" 
d="M198 619c-9.33301 -0.666992 -16.9971 1.33496 -22.9971 6.00195s-9.33301 10.667 -10 18c-1.33301 8 0.666992 14.667 6 20s12.666 8.66602 21.999 9.99902c10.667 1.33301 20.167 -0.333984 28.5 -5.00098s13.166 -10.667 14.499 -18
c0.666992 -7.33301 -2.83301 -14 -10.5 -20s-16.834 -9.66699 -27.501 -11zM121.003 427.002c-13.333 -1.33301 -25.498 1.3291 -36.498 7.99609s-16.833 14.667 -17.5 24c0 4.66699 1.16699 9.33398 3.5 14.001l7.5 15c2.66699 5.33301 5.16699 11.333 7.5 18
s3.16602 14 2.49902 22s-2.66699 15 -6 21s-7 11.333 -11 16s-7.66699 9.16699 -11 13.5s-5 8.83301 -5 13.5c-0.666992 8.66699 3.66602 17 12.999 25s19.666 12.667 30.999 14s23 -1.66699 35 -9s22.333 -17.666 31 -30.999c5.33301 -8 10.333 -14 15 -18l13 -11
c4 -3.33301 7.5 -6.66602 10.5 -9.99902s4.83301 -8.33301 5.5 -15s-0.166016 -12 -2.49902 -16s-5.33301 -8.16699 -9 -12.5l-12 -14.5c-4.33301 -5.33301 -8.5 -12.666 -12.5 -21.999c-12 -28 -29.333 -43 -52 -45zM253.005 550.997
c-11.333 -1.33301 -20.833 0.670898 -28.5 6.00391s-11.834 12.666 -12.501 21.999c-1.33301 9.33301 1.5 17.166 8.5 23.499s16.167 10.166 27.5 11.499c12.667 1.33301 24.167 -0.833984 34.5 -6.50098s16.166 -12.5 17.499 -20.5
c0.666992 -8.66699 -3.66602 -16.5 -12.999 -23.5s-20.666 -11.167 -33.999 -12.5zM260.005 470.001c-11.333 -1.33301 -20.668 0.667969 -28.001 6.00098s-11.333 12.666 -12 21.999c-1.33301 9.33301 1.33398 17 8.00098 23s15.667 9.66699 27 11

<glyph glyph-name="arrowleft" unicode="&#x3c;&#x2d;" horiz-adv-x="678" 
d="M54 329v8l221 234l72 -68l-121 -121h408v-97h-408l121 -121l-72 -69z" />
    <glyph glyph-name="arrowup" unicode="&#x2f;&#x7c;\" horiz-adv-x="550" 
d="M271 623.003h8l234 -220.986l-68 -71.9951l-121 120.992v-407.975h-97v407.975l-121 -120.992l-69 71.9951z" />
    <glyph glyph-name="arrowright" unicode="&#x2d;&#x3e;" horiz-adv-x="678" 
d="M624.003 329v8l-220.986 234l-71.9951 -68l120.992 -121h-407.975v-97h407.975l-120.992 -121l71.9951 -69z" />
    <glyph glyph-name="arrowdown" unicode="\&#x7c;&#x2f;" horiz-adv-x="550" 
d="M271 42.0352h8l234 220.973l-68 71.9912l-121 -120.985v407.95h-97v-407.95l-121 120.985l-69 -71.9912z" />
    <glyph glyph-name="uni2646" unicode="TRIDENT" horiz-adv-x="793" 
d="M432 410c0 -22 2.5 -41.665 7.5 -58.998s11.333 -33.333 19 -48s16.334 -28.334 26.001 -41.001l28.5 -38c11.333 5.33301 20.666 10.666 27.999 15.999s11 12.333 11 21c0 11.333 -6.16699 20.5 -18.5 27.5s-29.5 10.5 -51.5 10.5v19c0 40 4 76.5 12 109.5
s21 63.5 39 91.5s41.5 54.5 70.5 79.5s64.5 49.5 106.5 73.5v-672h-159c-21.333 -51.333 -61 -96 -119 -134v-60h-72v60c-58 38.667 -97.333 83.334 -118 134.001h-160v672c42 -24 77.667 -48.5 107 -73.5s53 -51.5 71 -79.5s31 -58.5 39 -91.5s12 -69.5 12 -109.5v-19
c-22 0 -39.333 -3.5 -52 -10.5s-19 -16.167 -19 -27.5c0 -8.66699 3.66699 -15.834 11 -21.501s16.666 -11.167 27.999 -16.5l28.5 38.5c9.66699 13 18.334 26.833 26.001 41.5s14 30.667 19 48s7.5 37 7.5 59v326h72v-326zM638 70.002l-0.00195312 465
c-25.333 -23.333 -44.666 -49.833 -57.999 -79.5s-22.333 -64.5 -27 -104.5c44.667 -12.667 67 -42 67 -88c0 -26 -7.16699 -45.833 -21.5 -59.5s-31.166 -25.167 -50.499 -34.5c8.66699 -17.333 14 -33.5 16 -48.5s3 -31.833 3 -50.5h71zM225.998 70.002
c0 19.333 0.833008 36.167 2.5 50.5s7.16699 30.5 16.5 48.5c-19.333 9.33301 -36.333 20.833 -51 34.5s-22 33.5 -22 59.5c0 23.333 6 42.333 18 57s28.667 25 50 31c-4.66699 40 -13.667 74.833 -27 104.5s-33 56.167 -59 79.5v-465h72zM343.998 193.003
c9.33301 -5.33301 18.5 -11.5 27.5 -18.5s17.167 -15.5 24.5 -25.5c7.33301 10 15.5 18.5 24.5 25.5s18.167 13.167 27.5 18.5l-26.5 36c-9 12.667 -17.5 26.334 -25.5 41.001c-7.33301 -14.667 -15.5 -28.334 -24.5 -41.001s-18.167 -24.667 -27.5 -36zM360.998 70.0029
c-3.33301 16.667 -9.83301 30.334 -19.5 41.001s-20.834 19.667 -33.501 27c-3.33301 -8.66699 -6.16602 -17.334 -8.49902 -26.001s-3.5 -18 -3.5 -28c0 -6 0.333008 -10.667 1 -14h64zM495.998 70.0029c0.666992 3.33301 1 8 1 14c0 10 -1.16699 19.333 -3.5 28
s-5.5 17.334 -9.5 26.001c-12.667 -7.33301 -23.667 -16.333 -33 -27s-16 -24.334 -20 -41.001h65zM363.998 0.00292969h-40c8.66699 -12.667 19 -25 31 -37s25.667 -23.667 41 -35c30.667 22 55 46 73 72h-41v-28h-64v28z" />
    <glyph glyph-name="uniE000" unicode="&#x457;&#x457;" horiz-adv-x="529" 
d="M61 606c-18 0 -32.833 5.66699 -44.5 17s-17.5 26 -17.5 44c0 18.667 5.83301 33.667 17.5 45s26.5 17 44.5 17c17.333 0 32 -5.66699 44 -17s18 -26.333 18 -45c0 -18 -6 -32.667 -18 -44s-26.667 -17 -44 -17zM263 606c-17.333 0 -31.666 5.66699 -42.999 17
s-17 26 -17 44s5.66699 32.833 17 44.5s25.666 17.5 42.999 17.5c18.667 0 34 -5.83301 46 -17.5s18 -26.5 18 -44.5s-6 -32.667 -18 -44s-27.333 -17 -46 -17zM467 606c-18 0 -32.667 5.66699 -44 17s-17 26 -17 44c0 18.667 5.66699 33.667 17 45s26 17 44 17
s33 -5.66699 45 -17s18 -26.333 18 -45c0 -18 -6 -32.667 -18 -44s-27 -17 -45 -17zM70 520h124v-520h-124v520zM335 520h124v-520h-124v520z" />
    <glyph glyph-name="uniE01A" unicode="MACPAWLOGO" horiz-adv-x="734" 
d="M325 654c-4.66699 -3.33301 -9.99902 -5 -15.999 -5c-8 0 -14 3.33301 -18 10c-7.33301 13.333 -3.33301 24.333 12 33c5.33301 3.33301 12 5 20 5c4 0 7.83301 -0.5 11.5 -1.5s6.16699 -3.16699 7.5 -6.5c3.33301 -5.33301 3.16602 -11.5 -0.500977 -18.5
s-9.16699 -12.5 -16.5 -16.5zM389.001 620c-6 -3.33301 -12.333 -5.00195 -19 -5.00195c-8.66699 0 -15.667 4 -21 12c-4 6.66699 -4.66699 13.334 -2 20.001s8 12.334 16 17.001c7.33301 4.66699 15.333 7 24 7c10 0 17 -3.33301 21 -10c3.33301 -6 3 -13 -1 -21
s-10 -14.667 -18 -20zM367.001 -0.00195312c-44.667 0 -86.9961 8.5 -126.996 25.5s-74.667 40.333 -104 70s-52.666 64.334 -69.999 104.001s-26 82.167 -26 127.5c0 33.333 4.83301 65.333 14.5 96s23.167 59.167 40.5 85.5s38.5 49.833 63.5 70.5
s52.833 37.334 83.5 50.001c10 4.66699 21.333 7 34 7c18 0 34.667 -5 50 -15s26.666 -23.667 33.999 -41s9.16602 -34.833 5.49902 -52.5s-11.834 -32.834 -24.501 -45.501c-4 -4 -8.33301 -7.5 -13 -10.5s-10.334 -6.16699 -17.001 -9.5
c-2.66699 -1.33301 -4.33398 -2.33301 -5.00098 -3l-11 -5c-23.333 -12 -41.5 -29.833 -54.5 -53.5s-19.5 -48.167 -19.5 -73.5c0 -20 3.83301 -39 11.5 -57s18 -33.5 31 -46.5s28.5 -23.333 46.5 -31s37 -11.5 57 -11.5c17.333 0 34 3 50 9s30.167 14.167 42.5 24.5
s23 22.5 32 36.5s15.167 29.333 18.5 46c1.33301 5.33301 2 10.333 2 15s0.333008 9.66699 1 15c2 25.333 10.667 46.666 26 63.999s36.666 26 63.999 26c25.333 0 46.833 -8.66699 64.5 -26s26.5 -38.666 26.5 -63.999c0 -45.333 -8.66699 -87.833 -26 -127.5
s-40.666 -74.334 -69.999 -104.001s-63.833 -53 -103.5 -70s-82.167 -25.5 -127.5 -25.5zM423.005 560.998c-6.66699 -4 -13 -6.00098 -19 -6.00098c-8.66699 0 -15.667 4 -21 12c-4 7.33301 -4.66699 14.333 -2 21s8 12.334 16 17.001c7.33301 4 15 6 23 6
c10.667 0 18 -3 22 -9c3.33301 -6 3 -13.167 -1 -21.5s-10 -14.833 -18 -19.5zM417.005 494.997c-4.66699 -3.33301 -10.333 -5 -17 -5c-8 0 -14 3.33301 -18 10c-3.33301 6 -3.83301 12 -1.5 18s7.16602 11 14.499 15c5.33301 3.33301 12 5 20 5
c9.33301 0 15.333 -2.66699 18 -8c3.33301 -5.33301 3.33301 -11.5 0 -18.5s-8.66602 -12.5 -15.999 -16.5z" />
    <glyph glyph-name="f_f" unicode="ff" horiz-adv-x="649" 
d="M85 418l-63.001 0.00195312v80c9.33301 3.33301 19.666 6.33301 30.999 9s22 4.66699 32 6v34c0 54 13 96 39 126s62 45 108 45c16.667 0 35.334 -1.83301 56.001 -5.5s38 -8.83398 52 -15.501v-97c-12.667 6 -25.167 10.333 -37.5 13s-24.5 4 -36.5 4
c-21.333 0 -37 -5.66699 -47 -17s-15 -31 -15 -59v-26h173v32c0 54 12.833 96 38.5 126s61.5 45 107.5 45c16.667 0 35.334 -1.83301 56.001 -5.5s38.334 -8.83398 53.001 -15.501v-97c-12.667 6 -25.334 10.333 -38.001 13s-25 4 -37 4c-21.333 0 -37 -5.66699 -47 -17
s-15 -31 -15 -59v-26h132v-97h-126v-418h-124v418h-168v-418h-124v418z" />
    <glyph glyph-name="fi" unicode="fi" horiz-adv-x="572" 
d="M439 601c-21.333 0 -38.666 6.16699 -51.999 18.5s-20 28.166 -20 47.499c0 20 6.66699 36.333 20 49s30.666 19 51.999 19c22 0 39.833 -6.33301 53.5 -19s20.5 -29 20.5 -49c0 -19.333 -6.83301 -35.166 -20.5 -47.499s-31.5 -18.5 -53.5 -18.5zM85 418
l-63 0.000976562v80c9.33301 3.33301 19.666 6.33301 30.999 9s22 4.66699 32 6v34c0 54 13 96 39 126s62 45 108 45c16.667 0 35.334 -1.83301 56.001 -5.5s38 -8.83398 52 -15.501v-97c-12.667 6 -25.167 10.333 -37.5 13s-24.5 4 -36.5 4
c-21.333 0 -37 -5.83301 -47 -17.5s-15 -32.167 -15 -61.5v-23h268v-3h30v-512h-124v418h-169v-418h-124v418z" />
    <glyph glyph-name="fl" unicode="fl" horiz-adv-x="576" 
d="M382 588c-12.667 7.33301 -28.499 14 -47.499 20s-38.5 9 -58.5 9c-21.333 0 -37.5 -5.83301 -48.5 -17.5s-16.5 -32.167 -16.5 -61.5v-23h124v-97h-118v-418h-124v418h-63v80c8.66699 3.33301 18.667 6.33301 30 9s22.333 4.66699 33 6v34c0 54 14.167 96 42.5 126
s68.833 45 121.5 45c23.333 0 46.333 -2.16699 69 -6.5s44.667 -9.83301 66 -16.5s41.666 -14 60.999 -22s37 -15.667 53 -23v-650h-124v588z" />
    <glyph glyph-name="f_f_i" unicode="ffi" horiz-adv-x="863" 
d="M729 601c-21.333 0 -38.666 6.16699 -51.999 18.5s-20 28.166 -20 47.499c0 20 6.66699 36.333 20 49s30.666 19 51.999 19c22 0 40 -6.33301 54 -19s21 -29 21 -49c0 -19.333 -7 -35.166 -21 -47.499s-32 -18.5 -54 -18.5zM668 418l-167.001 0.00195312v-418h-124v418
h-168v-418h-124v418h-63v80c9.33301 3.33301 19.666 6.33301 30.999 9s22 4.66699 32 6v34c0 54 13 96 39 126s62 45 108 45c16.667 0 35.334 -1.83301 56.001 -5.5s38 -8.83398 52 -15.501v-97c-12.667 6 -25.167 10.333 -37.5 13s-24.5 4 -36.5 4
c-21.333 0 -37 -5.66699 -47 -17s-15 -31 -15 -59v-26h173v32c0 54 12.833 96 38.5 126s61.5 45 107.5 45c16.667 0 35 -1.83301 55 -5.5s37.333 -8.83398 52 -15.501v-97c-23.333 11.333 -47.666 17 -72.999 17c-21.333 0 -37 -5.66699 -47 -17s-15 -31 -15 -59v-26h297
v-515h-124v418z" />
    <glyph glyph-name="f_f_l" unicode="ffl" horiz-adv-x="860" 
d="M85 418l-62.999 0.000976562v80c9.33301 3.33301 19.666 6.33301 30.999 9s22 4.66699 32 6v34c0 54 13 96 39 126s62 45 108 45c16.667 0 35.334 -1.83301 56.001 -5.5s38 -8.83398 52 -15.501v-97c-12.667 6 -25.167 10.333 -37.5 13s-24.5 4 -36.5 4
c-21.333 0 -37 -5.66699 -47 -17s-15 -31 -15 -59v-26h173v32c0 54 14.167 96 42.5 126s68.5 45 120.5 45c23.333 0 46.5 -2.16699 69.5 -6.5s45.167 -9.83301 66.5 -16.5s41.666 -14 60.999 -22s37 -15.667 53 -23v-650h-124v588c-13.333 7.33301 -29.333 14 -48 20
s-38 9 -58 9c-21.333 0 -37.5 -5.83301 -48.5 -17.5s-16.5 -32.167 -16.5 -61.5v-23h124v-97h-118v-418h-124v418h-168v-418h-124v418z" />
    <glyph glyph-name=".notdef" horiz-adv-x="713" 
d="M198 619c-9.33301 -0.666992 -16.9971 1.33496 -22.9971 6.00195s-9.33301 10.667 -10 18c-1.33301 8 0.666992 14.667 6 20s12.666 8.66602 21.999 9.99902c10.667 1.33301 20.167 -0.333984 28.5 -5.00098s13.166 -10.667 14.499 -18
c0.666992 -7.33301 -2.83301 -14 -10.5 -20s-16.834 -9.66699 -27.501 -11zM121.003 427.002c-13.333 -1.33301 -25.498 1.3291 -36.498 7.99609s-16.833 14.667 -17.5 24c0 4.66699 1.16699 9.33398 3.5 14.001l7.5 15c2.66699 5.33301 5.16699 11.333 7.5 18
s3.16602 14 2.49902 22s-2.66699 15 -6 21s-7 11.333 -11 16s-7.66699 9.16699 -11 13.5s-5 8.83301 -5 13.5c-0.666992 8.66699 3.66602 17 12.999 25s19.666 12.667 30.999 14s23 -1.66699 35 -9s22.333 -17.666 31 -30.999c5.33301 -8 10.333 -14 15 -18l13 -11
c4 -3.33301 7.5 -6.66602 10.5 -9.99902s4.83301 -8.33301 5.5 -15s-0.166016 -12 -2.49902 -16s-5.33301 -8.16699 -9 -12.5l-12 -14.5c-4.33301 -5.33301 -8.5 -12.666 -12.5 -21.999c-12 -28 -29.333 -43 -52 -45zM253.005 550.997
c-11.333 -1.33301 -20.833 0.670898 -28.5 6.00391s-11.834 12.666 -12.501 21.999c-1.33301 9.33301 1.5 17.166 8.5 23.499s16.167 10.166 27.5 11.499c12.667 1.33301 24.167 -0.833984 34.5 -6.50098s16.166 -12.5 17.499 -20.5
c0.666992 -8.66699 -3.66602 -16.5 -12.999 -23.5s-20.666 -11.167 -33.999 -12.5zM260.005 470.001c-11.333 -1.33301 -20.668 0.667969 -28.001 6.00098s-11.333 12.666 -12 21.999c-1.33301 9.33301 1.33398 17 8.00098 23s15.667 9.66699 27 11
c12.667 1.33301 24 -0.666992 34 -6s15.333 -12.333 16 -21c1.33301 -8 -2.66699 -15.5 -12 -22.5s-20.333 -11.167 -33 -12.5zM217.003 401.002c-9.33301 -0.666992 -17 1.33496 -23 6.00195s-9.33301 11 -10 19c-1.33301 7.33301 0.833984 13.666 6.50098 18.999
s13.167 8.66602 22.5 9.99902c10.667 1.33301 20.167 -0.5 28.5 -5.5s12.833 -11.167 13.5 -18.5s-2.83301 -13.833 -10.5 -19.5s-16.834 -9.16699 -27.501 -10.5zM563.003 245.004c-9.33301 1.33301 -16.6689 4.66797 -22.002 10.001s-7.66602 11.666 -6.99902 18.999
c0.666992 8 4 14.333 10 19s13.667 6.66699 23 6c10.667 -1.33301 19.834 -4.83301 27.501 -10.5s11.167 -12.167 10.5 -19.5s-5.16699 -13.5 -13.5 -18.5s-17.833 -6.83301 -28.5 -5.5zM450 70.0059c-12 1.33301 -22.668 5.83398 -32.001 13.501
s-13.666 15.834 -12.999 24.501c0 4.66699 1.66699 9.16699 5 13.5l11 14c4 5 7.66699 10.5 11 16.5s5.33301 13 6 21s-0.166016 15.333 -2.49902 22s-5 12.667 -8 18s-5.66699 10.333 -8 15s-3.16602 9.33398 -2.49902 14.001c1.33301 8.66699 7.16602 16.167 17.499 22.5
s22.166 9.16602 35.499 8.49902c22.667 -0.666992 40.667 -15.334 54 -44.001c4 -9.33301 8.16699 -16.666 12.5 -21.999l12 -14.5c3.66699 -4.33301 6.5 -8.5 8.5 -12.5s2.66699 -9.33301 2 -16s-2.16699 -11.834 -4.5 -15.501s-5.5 -7.33398 -9.5 -11.001
s-8.5 -7.5 -13.5 -11.5s-10.167 -9.66699 -15.5 -17c-9.33301 -12.667 -19.833 -22.667 -31.5 -30s-23.167 -10.333 -34.5 -9zM604.999 169.007c-11.333 1.33301 -20.3359 5.00098 -27.0029 11.001s-9.66699 13.667 -9 23c1.33301 9.33301 5.83301 16.666 13.5 21.999
s17.167 7.33301 28.5 6c12.667 -1.33301 23.834 -5.5 33.501 -12.5s13.834 -14.833 12.501 -23.5c-0.666992 -8 -6.16699 -14.667 -16.5 -20s-22.166 -7.33301 -35.499 -6zM597.996 87.0078c-11.333 1.33301 -20.3311 5.16992 -26.998 11.5029
s-9.33398 14.166 -8.00098 23.499s5.5 16.666 12.5 21.999s16.167 7.33301 27.5 6c12.667 -1.33301 23.667 -5.5 33 -12.5s13.666 -14.833 12.999 -23.5c-1.33301 -8 -7 -14.833 -17 -20.5s-21.333 -7.83398 -34 -6.50098zM543.998 27.0117
c-9.33301 1.33301 -16.668 4.66895 -22.001 10.002s-7.66602 12 -6.99902 20s4.16699 14.167 10.5 18.5s14.166 6.16602 23.499 5.49902c10.667 -1.33301 19.834 -5 27.501 -11s10.834 -12.667 9.50098 -20c-0.666992 -7.33301 -5.33398 -13.333 -14.001 -18
s-18 -6.33398 -28 -5.00098z" />
    <glyph glyph-name=".null" horiz-adv-x="0" 
 />
    <glyph glyph-name=".null" horiz-adv-x="0" 
 />
    <glyph glyph-name="uni000D" unicode="&#xd;" horiz-adv-x="250" 
 />
    <glyph glyph-name="space" unicode=" " horiz-adv-x="266" 
 />
    <glyph glyph-name="exclam" unicode="!" horiz-adv-x="276" 
d="M70 466v234h136v-234l-16 -246h-105zM137 -12c-22 0 -40.667 7.16699 -56 21.5s-23 31.833 -23 52.5v5c0 20 7.66699 37.167 23 51.5s34 21.5 56 21.5s40.833 -7.16699 56.5 -21.5s23.5 -31.5 23.5 -51.5v-5c0 -20.667 -7.83301 -38.167 -23.5 -52.5
s-34.5 -21.5 -56.5 -21.5z" />
    <glyph glyph-name="quotedbl" unicode="&#x22;" horiz-adv-x="357" 
d="M37 586v114h111v-114l-15 -168h-81zM209 586v114h111v-114l-14 -168h-82z" />
    <glyph glyph-name="numbersign" unicode="#" horiz-adv-x="799" 
d="M134 167h-109v108h143l51 160h-109v108h143l50 157h129l-49 -157h153l50 157h129l-50 -157h109v-108h-144l-50 -160h109v-108h-144l-53 -167h-129l53 167h-153l-54 -167h-129zM450 275l51 160h-154l-50 -160h153z" />
    <glyph glyph-name="dollar" unicode="$" horiz-adv-x="587" 
d="M237 22c-40.667 5.33301 -79.001 15.6689 -115.001 31.002s-67.333 34.666 -94 57.999l63 99c13.333 -11.333 28.5 -21.833 45.5 -31.5s35 -17.834 54 -24.501s38.5 -11.834 58.5 -15.501s39.667 -5.5 59 -5.5c36.667 0 65.167 5.83301 85.5 17.5s30.5 28.167 30.5 49.5
c0 13.333 -3.66699 25 -11 35s-17.5 18.667 -30.5 26s-28.667 14.166 -47 20.499s-38.833 12.5 -61.5 18.5c-40.667 11.333 -75.334 23.333 -104.001 36s-52.167 26.667 -70.5 42s-31.666 32.333 -39.999 51s-12.5 39.667 -12.5 63c0 24 4.33301 46.333 13 67
s20.834 39 36.501 55s34.667 29.333 57 40s46.833 18.334 73.5 23.001v98h109v-96c36.667 -4 71.667 -12.333 105 -25s62.666 -29.667 87.999 -51l-56 -97c-26 19.333 -56 34.5 -90 45.5s-68 16.5 -102 16.5c-33.333 0 -59.333 -6 -78 -18s-28 -28 -28 -48
c0 -22 12.333 -39.5 37 -52.5s61 -26.167 109 -39.5c42.667 -11.333 79 -23.333 109 -36s54.333 -27 73 -43s32.334 -33.667 41.001 -53s13 -41.333 13 -66c0 -26 -5 -50.167 -15 -72.5s-24.333 -41.833 -43 -58.5s-41 -30.167 -67 -40.5s-54.667 -17.166 -86 -20.499v-95
h-109v97z" />
    <glyph glyph-name="percent" unicode="%" horiz-adv-x="815" 
d="M196 336c-23.333 0 -44.666 4.33301 -63.999 13s-36 20.834 -50 36.501s-24.833 34.334 -32.5 56.001s-11.5 45.5 -11.5 71.5v18c0 26 3.83301 49.833 11.5 71.5s18.5 40.334 32.5 56.001s30.667 27.834 50 36.501s40.666 13 63.999 13h12
c23.333 0 44.666 -4.33301 63.999 -13s36 -20.834 50 -36.501s24.833 -34.334 32.5 -56.001s11.5 -45.5 11.5 -71.5v-18c0 -26 -3.83301 -49.833 -11.5 -71.5s-18.5 -40.334 -32.5 -56.001s-30.667 -27.834 -50 -36.501s-40.666 -13 -63.999 -13h-12zM603 702h137l-528 -702
h-137zM204 432c18.667 0 33.667 7.66699 45 23s17 35.666 17 60.999v12c0 25.333 -5.66699 45.666 -17 60.999s-26.333 23 -45 23h-4c-18.667 0 -33.667 -7.66699 -45 -23s-17 -35.666 -17 -60.999v-12c0 -25.333 5.66699 -45.666 17 -60.999s26.333 -23 45 -23h4zM607 -8
c-23.333 0 -44.666 4.33301 -63.999 13s-36 20.834 -50 36.501s-24.833 34.334 -32.5 56.001s-11.5 45.5 -11.5 71.5v18c0 26 3.83301 49.833 11.5 71.5s18.5 40.334 32.5 56.001s30.667 27.834 50 36.501s40.666 13 63.999 13h13c23.333 0 44.666 -4.33301 63.999 -13
s35.833 -20.834 49.5 -36.501s24.334 -34.334 32.001 -56.001s11.5 -45.5 11.5 -71.5v-18c0 -26 -3.83301 -49.833 -11.5 -71.5s-18.334 -40.334 -32.001 -56.001s-30.167 -27.834 -49.5 -36.501s-40.666 -13 -63.999 -13h-13zM615 88c18.667 0 33.834 7.66699 45.501 23
s17.5 35.666 17.5 60.999v12c0 25.333 -5.83301 45.666 -17.5 60.999s-26.834 23 -45.501 23h-3c-18.667 0 -33.834 -7.66699 -45.501 -23s-17.5 -35.666 -17.5 -60.999v-12c0 -25.333 5.83301 -45.666 17.5 -60.999s26.834 -23 45.501 -23h3z" />
    <glyph glyph-name="ampersand" unicode="&#x26;" horiz-adv-x="741" 
d="M296 -11c-37.333 0 -71.168 4.66504 -101.501 13.998s-56.166 22.5 -77.499 39.5s-37.833 37.667 -49.5 62s-17.5 51.5 -17.5 81.5c0 22.667 3.66699 44.5 11 65.5s17.666 40.333 30.999 58s29 33.5 47 47.5s37.667 25.333 59 34l-37 45
c-10 12.667 -17.667 24.667 -23 36s-9.16602 22.5 -11.499 33.5s-3.5 23.167 -3.5 36.5c0 25.333 4.66699 48.5 14 69.5s22.5 38.833 39.5 53.5s37.333 26 61 34s49.834 12 78.501 12c28 0 53.667 -3.83301 77 -11.5s43.166 -18.5 59.499 -32.5s29 -31 38 -51
s13.5 -42.333 13.5 -67c0 -36.667 -12.333 -71.167 -37 -103.5s-57 -58.5 -97 -78.5l132 -150c8 17.333 14.667 36.333 20 57s8 42.334 8 65.001v37h107v-59c0 -34 -5.16699 -67.333 -15.5 -100s-23.5 -61 -39.5 -85l117 -132h-152l-47 52
c-28 -19.333 -59 -34.666 -93 -45.999s-71 -17 -111 -17zM305.998 438.998c33.333 20 56.333 37.667 69 53s19 33.666 19 54.999c0 20.667 -6.66699 37 -20 49s-31.333 18 -54 18c-24.667 0 -44.167 -6.16699 -58.5 -18.5s-21.5 -28.5 -21.5 -48.5
c0 -19.333 6.5 -37.166 19.5 -53.499s28.5 -34.5 46.5 -54.5zM266.998 312.998c-32 -12 -56.499 -28 -73.499 -48s-25.5 -43.333 -25.5 -70c0 -32 11.833 -57.5 35.5 -76.5s56.5 -28.5 98.5 -28.5c24.667 0 47.667 3.5 69 10.5s40.666 16.833 57.999 29.5z" />
    <glyph glyph-name="quotesingle" unicode="'" horiz-adv-x="195" 
d="M42 586v114h111v-114l-15 -168h-81z" />
    <glyph glyph-name="parenleft" unicode="(" horiz-adv-x="293" 
d="M192 -176c-47.333 62 -83.499 132.669 -108.499 212.002s-37.5 159.333 -37.5 240c0 40.667 3.33301 81.5 10 122.5s16.167 81.167 28.5 120.5s27.666 77.166 45.999 113.499s38.833 69.833 61.5 100.5l83 -46c-33.333 -60.667 -58.5 -126 -75.5 -196
s-25.5 -141.333 -25.5 -214c0 -72 8.5 -142.833 25.5 -212.5s42.167 -134.834 75.5 -195.501z" />
    <glyph glyph-name="parenright" unicode=")" horiz-adv-x="293" 
d="M18 -131c33.333 60.667 58.5 125.833 75.5 195.5s25.5 140.5 25.5 212.5c0 72.667 -8.5 144 -25.5 214s-42.167 135.333 -75.5 196l83 46c23.333 -30.667 44 -64.167 62 -100.5s33.167 -74.166 45.5 -113.499s21.833 -79.5 28.5 -120.5s10 -81.833 10 -122.5
c0 -40 -3.16699 -80.333 -9.5 -121s-15.833 -80.334 -28.5 -119.001s-28 -76 -46 -112s-38.667 -69.333 -62 -100z" />
    <glyph glyph-name="asterisk" unicode="*" horiz-adv-x="450" 
d="M183 415l4 24l-19 -16l-89 -51l-43 72l90 52l23 9l-23 8l-90 53l43 72l88 -51l20 -17l-4 25v104h84v-103l-4 -26l20 17l88 51l43 -72l-89 -52l-24 -9l24 -9l89 -52l-43 -72l-89 51l-19 17l4 -26v-103h-84v104z" />
    <glyph glyph-name="plus" unicode="+" horiz-adv-x="592" 
d="M243 273h-197v104h197v206h105v-206h198v-104h-198v-206h-105v206z" />
    <glyph glyph-name="comma" unicode="," horiz-adv-x="247" 
d="M84 139h127l-97 -270h-98z" />
    <glyph glyph-name="hyphen" unicode="-" horiz-adv-x="450" 
d="M65 328h320v-103h-320v103z" />
    <glyph glyph-name="period" unicode="." horiz-adv-x="239" 
d="M119 -12c-22 0 -40.667 7.16699 -56 21.5s-23 31.833 -23 52.5v5c0 20 7.66699 37.167 23 51.5s34 21.5 56 21.5s40.833 -7.16699 56.5 -21.5s23.5 -31.5 23.5 -51.5v-5c0 -20.667 -7.83301 -38.167 -23.5 -52.5s-34.5 -21.5 -56.5 -21.5z" />
    <glyph glyph-name="slash" unicode="/" horiz-adv-x="323" 
d="M183 720h120l-163 -831h-119z" />
    <glyph glyph-name="zero" unicode="0" horiz-adv-x="628" 
d="M314 -11c-42 0 -80 8.5 -114 25.5s-63 41.167 -87 72.5s-42.5 69.166 -55.5 113.499s-19.5 94.166 -19.5 149.499s6.5 105.166 19.5 149.499s31.5 82.166 55.5 113.499s53 55.5 87 72.5s72 25.5 114 25.5s80 -8.5 114 -25.5s63 -41.167 87 -72.5
s42.5 -69.166 55.5 -113.499s19.5 -94.166 19.5 -149.499s-6.5 -105.166 -19.5 -149.499s-31.5 -82.166 -55.5 -113.499s-53 -55.5 -87 -72.5s-72 -25.5 -114 -25.5zM314 105c47.333 0 83.5 21.167 108.5 63.5s37.5 102.833 37.5 181.5s-12.5 139.167 -37.5 181.5
s-61.167 63.5 -108.5 63.5s-83.666 -21.167 -108.999 -63.5s-38 -102.833 -38 -181.5s12.667 -139.167 38 -181.5s61.666 -63.5 108.999 -63.5z" />
    <glyph glyph-name="one" unicode="1" horiz-adv-x="396" 
d="M314 700v-700h-125v490c-21.333 -17.333 -45.833 -30.666 -73.5 -39.999s-57.5 -14 -89.5 -14v103c24.667 1.33301 47.5 6.16602 68.5 14.499s39 19.5 54 33.5s26.667 30.667 35 50s12.5 40.333 12.5 63h118z" />
    <glyph glyph-name="two" unicode="2" horiz-adv-x="546" 
d="M32 99c19.333 12 40.999 26.665 64.999 43.998s48.667 36.333 74 57s50.166 42.834 74.499 66.501s46 48.167 65 73.5s34.333 50.833 46 76.5s17.5 50.834 17.5 75.501c0 32 -9.16699 57.5 -27.5 76.5s-43.166 28.5 -74.499 28.5c-32 0 -58.833 -10.833 -80.5 -32.5
s-36.167 -55.5 -43.5 -101.5l-122 27c5.33301 34.667 14.833 65.667 28.5 93s31.334 50.5 53.001 69.5s46.5 33.667 74.5 44s58.333 15.5 91 15.5c32 0 62 -5 90 -15s52.333 -24.167 73 -42.5s37 -40.5 49 -66.5s18 -55.333 18 -88c0 -40 -8.83301 -78.667 -26.5 -116
s-40 -72.5 -67 -105.5s-57 -63.5 -90 -91.5s-64.833 -52.667 -95.5 -74h296v-113h-488v99z" />
    <glyph glyph-name="three" unicode="3" horiz-adv-x="589" 
d="M284 -10c-30 0 -58.667 3.83105 -86 11.498s-52.333 18.834 -75 33.501s-42.167 32.834 -58.5 54.501s-28.5 46.5 -36.5 74.5l114 31c12 -29.333 29.667 -51.666 53 -66.999s53 -23 89 -23c40.667 0 73.167 11.833 97.5 35.5s36.5 55.834 36.5 96.501
c0 38 -10.833 67.5 -32.5 88.5s-52.167 31.5 -91.5 31.5c-18 0 -35.333 -2.16699 -52 -6.5s-31.667 -10.833 -45 -19.5l-41 74l195 181h-289v114h444v-97l-170 -155h9c29.333 -0.666992 56.333 -6.33398 81 -17.001s46 -25.334 64 -44.001s32 -41 42 -67s15 -55 15 -87
c0 -37.333 -6.83301 -71 -20.5 -101s-32.167 -55.5 -55.5 -76.5s-51 -37.167 -83 -48.5s-66.667 -17 -104 -17z" />
    <glyph glyph-name="four" unicode="4" horiz-adv-x="579" 
d="M348 130h-332v98l278 472h175v-463h86v-107h-86v-130h-121v130zM348 237v342h-11l-197 -332v-10h208z" />
    <glyph glyph-name="five" unicode="5" horiz-adv-x="581" 
d="M289 -10c-30 0 -58.832 3.66602 -86.499 10.999s-52.667 18.333 -75 33s-41.833 32.834 -58.5 54.501s-29.334 46.834 -38.001 75.501l118 30c11.333 -29.333 29 -51.5 53 -66.5s53 -22.5 87 -22.5c44 0 77.333 11.833 100 35.5s34 55.5 34 95.5
c0 40.667 -11.5 71.167 -34.5 91.5s-52.833 30.5 -89.5 30.5c-27.333 0 -52.5 -5 -75.5 -15s-43.5 -24 -61.5 -42l-99 32l41 367h400v-114h-302l-20 -172c42 30 91 45 147 45c33.333 0 63.5 -5 90.5 -15s50.167 -24.333 69.5 -43s34.333 -41.667 45 -69s16 -58 16 -92
c0 -36.667 -6.16699 -70.334 -18.5 -101.001s-30 -57 -53 -79s-50.5 -39.167 -82.5 -51.5s-67.667 -18.5 -107 -18.5z" />
    <glyph glyph-name="six" unicode="6" horiz-adv-x="614" 
d="M440 514c-24 58.667 -64.001 87.999 -120.001 87.999c-48 0 -85.667 -19.667 -113 -59s-41.666 -94.333 -42.999 -165c-0.666992 -2 -1 -5 -1 -9c22 28.667 49.667 50.167 83 64.5s67.333 21.5 102 21.5c31.333 0 60.833 -5 88.5 -15s52.167 -24.667 73.5 -44
s38.166 -42.833 50.499 -70.5s18.5 -59.5 18.5 -95.5c0 -35.333 -6.5 -67.833 -19.5 -97.5s-31 -55.167 -54 -76.5s-50.667 -37.833 -83 -49.5s-67.833 -17.5 -106.5 -17.5c-88.667 0 -157.167 30.333 -205.5 91s-72.5 148 -72.5 262c0 57.333 6.5 108.833 19.5 154.5
s31.5 84.334 55.5 116.001s53.333 56 88 73s74 25.5 118 25.5c58.667 0 108.834 -14.667 150.501 -44s71.167 -70.333 88.5 -123zM171.999 235.999c9.33301 -44 25.833 -77.334 49.5 -100.001s54.834 -34 93.501 -34c40.667 0 73.834 12.333 99.501 37
s38.5 56.334 38.5 95.001c0 38 -11.833 67.833 -35.5 89.5s-54.167 32.5 -91.5 32.5c-16 0 -32.167 -2.16699 -48.5 -6.5s-31.333 -10.5 -45 -18.5s-25.834 -17.833 -36.501 -29.5s-18.667 -25.167 -24 -40.5c-0.666992 -4 -0.833984 -8.16699 -0.500977 -12.5
s0.5 -8.5 0.5 -12.5z" />
    <glyph glyph-name="seven" unicode="7" horiz-adv-x="488" 
d="M336 574v10h-318v116h454v-98l-249 -602h-139z" />
    <glyph glyph-name="eight" unicode="8" horiz-adv-x="596" 
d="M298 -11c-40.667 0 -77.167 4.83398 -109.5 14.501s-60 23.5 -83 41.5s-40.667 39.667 -53 65s-18.5 53.333 -18.5 84c0 42 11.167 78.333 33.5 109s53.833 54 94.5 70c-32 15.333 -56.5 36.166 -73.5 62.499s-25.5 57.166 -25.5 92.499c0 28 5.5 53.333 16.5 76
s26.667 42 47 58s45 28.167 74 36.5s61.5 12.5 97.5 12.5c72.667 0 130.167 -16.333 172.5 -49s63.5 -77.334 63.5 -134.001c0 -35.333 -8.66699 -66.166 -26 -92.499s-42 -47.166 -74 -62.499c40.667 -16 72.167 -39.333 94.5 -70s33.5 -67 33.5 -109
c0 -30.667 -6.16699 -58.667 -18.5 -84s-30 -47 -53 -65s-50.667 -31.833 -83 -41.5s-68.833 -14.5 -109.5 -14.5zM298 419.001c36.667 0 65 8 85 24s30 38.667 30 68s-10 51.833 -30 67.5s-48.333 23.5 -85 23.5c-36 0 -64 -7.83301 -84 -23.5s-30 -38.167 -30 -67.5
s10 -52 30 -68s48 -24 84 -24zM298 102.001c44.667 0 79.167 9.5 103.5 28.5s36.5 45.5 36.5 79.5s-12.167 60.333 -36.5 79s-58.833 28 -103.5 28s-79.167 -9.33301 -103.5 -28s-36.5 -45 -36.5 -79s12.167 -60.5 36.5 -79.5s58.833 -28.5 103.5 -28.5z" />
    <glyph glyph-name="nine" unicode="9" horiz-adv-x="614" 
d="M174.027 186.031c23.998 -58.6631 63.9951 -87.9912 119.992 -87.9912c47.9971 0 85.6611 19.665 112.992 58.9961s41.6631 94.3281 42.9961 164.991c0.666992 1.99902 1 4.99902 1 8.99902c-21.999 -28.665 -49.6641 -50.1641 -82.9951 -64.4971
s-67.3291 -21.499 -101.993 -21.499c-31.3311 0 -60.8291 5 -88.4941 15c-27.665 9.99902 -52.1631 24.665 -73.4951 43.9971s-38.1641 42.8301 -50.4971 70.4951s-18.499 59.4961 -18.499 95.4932c0 35.3311 6.5 67.8291 19.499 97.4941s30.998 55.1641 53.9971 76.4961
c22.998 21.332 50.6631 37.8311 82.9941 49.4961c32.3311 11.666 67.8291 17.499 106.494 17.499c88.6611 0 157.157 -30.3311 205.488 -90.9941c48.3301 -60.6631 72.4951 -147.991 72.4951 -261.984c0 -57.3291 -6.49902 -108.826 -19.498 -154.49
s-31.498 -84.3281 -55.4971 -115.993s-53.3301 -55.9971 -87.9941 -72.9961c-34.665 -16.999 -73.9961 -25.499 -117.993 -25.499c-58.6631 0 -108.827 14.666 -150.491 43.998c-41.6641 29.3311 -71.1621 70.3281 -88.4941 122.991zM442.011 464.018
c-9.33301 43.9971 -25.833 77.3281 -49.498 99.9932s-54.8301 33.998 -93.4941 33.998c-40.6641 0 -73.8291 -12.332 -99.4941 -36.9971s-38.498 -56.3301 -38.498 -94.9941c0 -37.998 11.833 -67.8301 35.498 -89.4951s54.1631 -32.498 91.4941 -32.498
c15.999 0 32.165 2.16699 48.4971 6.5c16.333 4.33301 31.332 10.499 44.998 18.499c13.665 7.99902 25.8311 17.832 36.4971 29.498s18.666 25.165 23.999 40.4971c0.666992 4 0.833984 8.16699 0.500977 12.5s-0.5 8.49902 -0.5 12.499z" />
    <glyph glyph-name="colon" unicode=":" horiz-adv-x="239" 
d="M119 -12c-22 0 -40.667 7.16699 -56 21.5s-23 31.833 -23 52.5v5c0 20 7.66699 37.167 23 51.5s34 21.5 56 21.5s40.833 -7.16699 56.5 -21.5s23.5 -31.5 23.5 -51.5v-5c0 -20.667 -7.83301 -38.167 -23.5 -52.5s-34.5 -21.5 -56.5 -21.5zM119 306
c-22 0 -40.667 7.16699 -56 21.5s-23 31.833 -23 52.5v5c0 20 7.66699 37.167 23 51.5s34 21.5 56 21.5s40.833 -7.16699 56.5 -21.5s23.5 -31.5 23.5 -51.5v-5c0 -20.667 -7.83301 -38.167 -23.5 -52.5s-34.5 -21.5 -56.5 -21.5z" />
    <glyph glyph-name="semicolon" unicode=";" horiz-adv-x="254" 
d="M135 307c-22 0 -40.667 7.16699 -56 21.5s-23 31.833 -23 52.5v5c0 20 7.66699 37.167 23 51.5s34 21.5 56 21.5c21.333 0 40 -7.16699 56 -21.5s24 -31.5 24 -51.5v-5c0 -10 -2.16699 -19.5 -6.5 -28.5s-10.166 -16.833 -17.499 -23.5s-15.833 -12 -25.5 -16
s-19.834 -6 -30.501 -6zM84 139h127l-97 -270h-98z" />
    <glyph glyph-name="less" unicode="&#x3c;" horiz-adv-x="560" 
d="M42 278v94l455 225v-117l-329 -156l329 -156v-117z" />
    <glyph glyph-name="equal" unicode="=" horiz-adv-x="582" 
d="M51 467h480v-100h-480v100zM51 284h480v-101h-480v101z" />
    <glyph glyph-name="greater" unicode="&#x3e;" horiz-adv-x="560" 
d="M63 168l328 156l-328 156v117l455 -225v-94l-455 -227v117z" />
    <glyph glyph-name="question" unicode="?" horiz-adv-x="517" 
d="M196 220c0 24 1.33301 45.001 4 63.001s7.33398 34.333 14.001 49s16 28.667 28 42s27 28 45 44c10 8 19.5 16 28.5 24s17 16.333 24 25s12.667 17.834 17 27.501s6.5 20.5 6.5 32.5c0 25.333 -9.16699 44.5 -27.5 57.5s-41.833 19.5 -70.5 19.5
c-36.667 0 -66.334 -10.167 -89.001 -30.5s-35.667 -45.833 -39 -76.5l-113 18c2.66699 29.333 10.5 56.5 23.5 81.5s30.5 46.667 52.5 65s47.833 32.666 77.5 42.999s62.167 15.5 97.5 15.5c32 0 61.333 -4.33301 88 -13s49.667 -20.834 69 -36.501s34.5 -34.5 45.5 -56.5
s16.5 -46.333 16.5 -73c0 -34.667 -7.83301 -64 -23.5 -88s-39.5 -49 -71.5 -75c-12.667 -10 -24.5 -19.833 -35.5 -29.5s-20.667 -20 -29 -31s-15 -23 -20 -36s-7.5 -28.167 -7.5 -45.5v-16h-111zM255 -11.999c-22 0 -40.5 7.16699 -55.5 21.5s-22.5 31.833 -22.5 52.5v5
c0 20 7.5 37.167 22.5 51.5s33.5 21.5 55.5 21.5s41 -7.16699 57 -21.5s24 -31.5 24 -51.5v-5c0 -20.667 -8 -38.167 -24 -52.5s-35 -21.5 -57 -21.5z" />
    <glyph glyph-name="at" unicode="@" horiz-adv-x="997" 
d="M499 -191c-64 0 -124.002 11.6689 -180.002 35.002s-104.667 55.5 -146 96.5s-73.833 89 -97.5 144s-35.5 113.833 -35.5 176.5c0 63.333 12 122.5 36 177.5s57 102.667 99 143s91.5 72.166 148.5 95.499s118.167 35 183.5 35c64 0 123.5 -11.333 178.5 -34
s102.667 -53.834 143 -93.501s71.833 -86.667 94.5 -141s34 -113.166 34 -176.499c0 -39.333 -4.5 -74.666 -13.5 -105.999s-22 -58 -39 -80s-37.333 -39 -61 -51s-50.167 -18 -79.5 -18c-32 0 -59.5 6.83301 -82.5 20.5s-40.167 33.167 -51.5 58.5
c-19.333 -25.333 -42.5 -44.833 -69.5 -58.5s-57.5 -20.5 -91.5 -20.5h-4c-30 0 -57.833 5.83301 -83.5 17.5s-47.834 27.667 -66.501 48s-33.167 44.666 -43.5 72.999s-15.5 59.5 -15.5 93.5v25c0 34 5.16699 65.167 15.5 93.5s24.833 52.666 43.5 72.999
s40.667 36.333 66 48s53 17.5 83 17.5h4c31.333 0 60.166 -6.16699 86.499 -18.5s49.166 -29.5 68.499 -51.5c2.66699 10.667 5.5 21.334 8.5 32.001s6.16699 20.667 9.5 30h83v-303c0 -25.333 4 -45.833 12 -61.5s21.667 -23.5 41 -23.5c26 0 46.5 14.333 61.5 43
s22.5 67 22.5 115c0 52 -8.66699 99.667 -26 143s-41.666 80.666 -72.999 111.999s-68.666 55.833 -111.999 73.5s-90.666 26.5 -141.999 26.5c-52.667 0 -101.5 -9.16699 -146.5 -27.5s-84.167 -43.5 -117.5 -75.5s-59.5 -69.667 -78.5 -113s-28.5 -90.333 -28.5 -141
c0 -50 9.33301 -96.833 28 -140.5s44.334 -81.5 77.001 -113.5s71.334 -57.333 116.001 -76s92.667 -28 144 -28c38 0 74.167 5.16699 108.5 15.5s66.166 25.833 95.499 46.5l45 -82c-37.333 -24.667 -77.166 -43.167 -119.499 -55.5s-86.5 -18.5 -132.5 -18.5z
M491.998 105.002c34 0 61.332 13.167 81.999 39.5s31 60.5 31 102.5v18c0 42 -10.5 76.167 -31.5 102.5s-48.5 39.5 -82.5 39.5h-2c-34 0 -62 -13.167 -84 -39.5s-33 -60.5 -33 -102.5v-18c0 -20.667 3 -39.667 9 -57s14.167 -32.333 24.5 -45s22.833 -22.5 37.5 -29.5
s30.334 -10.5 47.001 -10.5h2z" />
    <glyph glyph-name="A" unicode="A" horiz-adv-x="638" 
d="M233 700h172l236 -700h-140l-51 165h-262l-51 -165h-140zM418 273l-95 296h-8l-95 -296h198z" />
    <glyph glyph-name="B" unicode="B" horiz-adv-x="637" 
d="M83 700h243c34.667 0 66.334 -4 95.001 -12s53.167 -19.5 73.5 -34.5s36.166 -33.167 47.499 -54.5s17 -45 17 -71v-12c0 -30 -6.66699 -57 -20 -81s-34.666 -44.667 -63.999 -62c38.667 -16.667 68.167 -39.5 88.5 -68.5s30.5 -62.833 30.5 -101.5v-12
c0 -29.333 -5.66699 -55.833 -17 -79.5s-27.333 -43.667 -48 -60s-45.834 -29 -75.501 -38s-62.5 -13.5 -98.5 -13.5h-272v700zM324 406c33.333 0 59.667 7.83301 79 23.5s29 37.167 29 64.5v10c0 25.333 -9.16699 45.5 -27.5 60.5s-44.5 22.5 -78.5 22.5h-117v-181h115z
M348.001 113c36 0 64.333 8.00098 85 24.001s31 38.333 31 67v10c0 29.333 -10.5 52.166 -31.5 68.499s-49.5 24.5 -85.5 24.5h-138v-194h139z" />
    <glyph glyph-name="C" unicode="C" horiz-adv-x="671" 
d="M371 -11c-49.333 0 -94.332 8.49902 -134.999 25.499s-75.5 41 -104.5 72s-51.5 68.167 -67.5 111.5s-24 91 -24 143v19c0 51.333 8.16699 98.5 24.5 141.5s39 80 68 111s63.667 55.167 104 72.5s84.5 26 132.5 26h7c56 0 107.667 -13.167 155 -39.5
s85 -63.166 113 -110.499l-100 -71c-17.333 32 -39.833 57.167 -67.5 75.5s-60.167 27.5 -97.5 27.5h-9c-28.667 0 -55 -5.5 -79 -16.5s-44.5 -26.667 -61.5 -47s-30.167 -44.833 -39.5 -73.5s-14 -60.667 -14 -96v-20c0 -35.333 4.66699 -67.333 14 -96
s22.666 -53.167 39.999 -73.5s38 -36 62 -47s50.667 -16.5 80 -16.5h10c37.333 0 70 9.33301 98 28s50.667 43.667 68 75l97 -72c-28 -47.333 -65.167 -84 -111.5 -110s-97.833 -39 -154.5 -39h-8z" />
    <glyph glyph-name="D" unicode="D" horiz-adv-x="701" 
d="M83 700l220 -0.00195312c54 0 103 -8 147 -24s81.667 -38.667 113 -68s55.5 -64.5 72.5 -105.5s25.5 -86.833 25.5 -137.5v-20c0 -51.333 -8.5 -98.166 -25.5 -140.499s-41.167 -78.666 -72.5 -108.999s-69 -53.833 -113 -70.5s-93 -25 -147 -25h-220v700zM304 115.998
c69.333 0 123.333 20.5 162 61.5s58 97.5 58 169.5v19c0 68 -19.333 121.333 -58 160s-92.667 58 -162 58h-91v-468h91z" />
    <glyph glyph-name="E" unicode="E" horiz-adv-x="559" 
d="M82 700h412v-116h-281v-175h261v-110h-261v-183h291v-116h-422v700z" />
    <glyph glyph-name="F" unicode="F" horiz-adv-x="526" 
d="M82 700h397v-116h-266v-192h246v-110h-246v-282h-131v700z" />
    <glyph glyph-name="G" unicode="G" horiz-adv-x="725" 
d="M352 -10c-47.333 0 -90.168 8.33496 -128.501 25.002s-71.166 40.334 -98.499 71.001s-48.333 67.5 -63 110.5s-22 90.833 -22 143.5v19c0 52 8.16699 99.667 24.5 143s39 80.5 68 111.5s63.667 55 104 72s84.833 25.5 133.5 25.5h12c55.333 0 106.833 -13.5 154.5 -40.5
s86.167 -64.833 115.5 -113.5l-105 -67c-18 34 -40.833 60 -68.5 78s-59.834 27 -96.501 27h-10c-29.333 0 -56.166 -5.66699 -80.499 -17s-45 -27.333 -62 -48s-30.167 -45.334 -39.5 -74.001s-14 -60.667 -14 -96v-21c0 -35.333 4.66699 -67.333 14 -96
s22.666 -53.167 39.999 -73.5s38.333 -36 63 -47s52.334 -16.5 83.001 -16.5h10c23.333 0 45 3.66699 65 11s37.333 17.333 52 30s26 27.667 34 45s12 35.666 12 54.999v15h-156v110h277v-372h-95c-4 8 -7.5 19.5 -10.5 34.5s-5.16699 29.5 -6.5 43.5
c-8.66699 -12.667 -20 -24.334 -34 -35.001s-29.5 -20 -46.5 -28s-35.333 -14.167 -55 -18.5s-39.5 -6.5 -59.5 -6.5h-11z" />
    <glyph glyph-name="H" unicode="H" horiz-adv-x="700" 
d="M83 700h130v-285h274v285h131v-700h-131v299h-274v-299h-130v700z" />
    <glyph glyph-name="I" unicode="I" horiz-adv-x="296" 
d="M82 700h131v-700h-131v700z" />
    <glyph glyph-name="J" unicode="J" horiz-adv-x="396" 
d="M130 -10c-17.333 0 -34.165 1.49902 -50.498 4.49902s-31.5 7.5 -45.5 13.5v123c9.33301 -6 19.666 -11.167 30.999 -15.5s24 -6.5 38 -6.5c31.333 0 53.833 8.83301 67.5 26.5s20.5 41.5 20.5 71.5v493h131v-506c0 -65.333 -16.333 -115.666 -49 -150.999
s-80.334 -53 -143.001 -53z" />
    <glyph glyph-name="K" unicode="K" horiz-adv-x="643" 
d="M82 700h132v-298h6l244 298h152l-276 -322l300 -378h-161l-259 337h-6v-337h-132v700z" />
    <glyph glyph-name="L" unicode="L" horiz-adv-x="510" 
d="M82 700h131v-584h263v-116h-394v700z" />
    <glyph glyph-name="M" unicode="M" horiz-adv-x="863" 
d="M83 700h186l159 -437h7l158 437h188v-700h-128v542h-7l-164 -447h-101l-163 447h-7v-542h-128v700z" />
    <glyph glyph-name="N" unicode="N" horiz-adv-x="717" 
d="M82 700h147l274 -497h4v497h127v-700h-131l-287 521h-6v-521h-128v700z" />
    <glyph glyph-name="O" unicode="O" horiz-adv-x="756" 
d="M40 360c0 53.333 8.16699 101.5 24.5 144.5s39.166 80 68.499 111s64.333 54.833 105 71.5s85.334 25 134.001 25h12c48.667 0 93.334 -8.33301 134.001 -25s75.667 -40.5 105 -71.5s52.166 -68 68.499 -111s24.5 -91.167 24.5 -144.5v-20
c0 -52.667 -8.16699 -100.667 -24.5 -144s-39.166 -80.5 -68.499 -111.5s-64.333 -54.833 -105 -71.5s-85.334 -25 -134.001 -25h-12c-48.667 0 -93.334 8.5 -134.001 25.5s-75.667 41 -105 72s-52.166 68 -68.499 111s-24.5 90.833 -24.5 143.5v20zM176 340
c0 -36 5 -68.5 15 -97.5s23.667 -53.667 41 -74s38 -36 62 -47s50.333 -16.5 79 -16.5h10c28.667 0 55 5.5 79 16.5s44.833 26.667 62.5 47s31.334 45 41.001 74s14.5 61.5 14.5 97.5v20c0 36 -4.83301 68.5 -14.5 97.5s-23.334 53.667 -41.001 74s-38.5 36 -62.5 47
s-50.333 16.5 -79 16.5h-10c-28.667 0 -55 -5.5 -79 -16.5s-44.667 -26.667 -62 -47s-31 -45 -41 -74s-15 -61.5 -15 -97.5v-20z" />
    <glyph glyph-name="P" unicode="P" horiz-adv-x="606" 
d="M82 700l236.001 0.00292969c38 0 72.333 -5.16699 103 -15.5s57 -25.333 79 -45s39 -43.334 51 -71.001s18 -58.834 18 -93.501v-13c0 -34.667 -6 -66.167 -18 -94.5s-28.833 -52.333 -50.5 -72s-47.834 -34.834 -78.501 -45.501s-65 -16 -103 -16h-106v-234h-131v700z
M306.001 342.003c40.667 0 72.833 10.333 96.5 31s35.5 49.667 35.5 87v13c0 36 -11.5 63.667 -34.5 83s-54.5 29 -94.5 29h-99v-243h96z" />
    <glyph glyph-name="Q" unicode="Q" horiz-adv-x="756" 
d="M559 -155c-15.333 -4 -32.001 -7.16992 -50.001 -9.50293s-34.667 -3.5 -50 -3.5c-99.333 0 -149 49 -149 147v15c-40 6.66699 -76.667 19.5 -110 38.5s-61.833 43.5 -85.5 73.5s-42 64.833 -55 104.5s-19.5 82.834 -19.5 129.501v20c0 52.667 8.16699 100.667 24.5 144
s39.166 80.333 68.499 111s64.333 54.5 105 71.5s85.334 25.5 134.001 25.5h12c48.667 0 93.334 -8.33301 134.001 -25s75.667 -40.5 105 -71.5s52.166 -68 68.499 -111s24.5 -91.167 24.5 -144.5v-20c0 -48.667 -7 -93.5 -21 -134.5s-33.833 -76.833 -59.5 -107.5
s-56.167 -55.167 -91.5 -73.5s-74.666 -29.5 -117.999 -33.5l1 -10c1.33301 -17.333 6.5 -29.666 15.5 -36.999s22.167 -11 39.5 -11c10.667 0 23.667 0.833008 39 2.5s28 3.83398 38 6.50098v-97zM175.999 339.997c0 -36 5 -68.5 15 -97.5s23.667 -53.667 41 -74
s38 -36 62 -47s50.333 -16.5 79 -16.5h10c28.667 0 55 5.5 79 16.5s44.833 26.667 62.5 47s31.334 45 41.001 74s14.5 61.5 14.5 97.5v20c0 36 -4.83301 68.5 -14.5 97.5s-23.334 53.667 -41.001 74s-38.5 36 -62.5 47s-50.333 16.5 -79 16.5h-10
c-28.667 0 -55 -5.5 -79 -16.5s-44.667 -26.667 -62 -47s-31 -45 -41 -74s-15 -61.5 -15 -97.5v-20z" />
    <glyph glyph-name="R" unicode="R" horiz-adv-x="642" 
d="M82 700h252.001c76.667 0 136.5 -19.167 179.5 -57.5s64.5 -90.833 64.5 -157.5v-10c0 -46 -10.833 -86 -32.5 -120s-51.834 -58.667 -90.501 -74l171 -281h-155l-144 255h-114v-255h-131v700zM315.001 358c43.333 0 76.167 10 98.5 30s33.5 47.333 33.5 82v10
c0 34 -11.333 60.5 -34 79.5s-55 28.5 -97 28.5h-106v-230h105z" />
    <glyph glyph-name="S" unicode="S" horiz-adv-x="578" 
d="M295 -11c-49.333 0 -97.501 8.66406 -144.501 25.9971s-87.833 41 -122.5 71l73 104c26.667 -26.667 58.334 -46.667 95.001 -60s72 -20 106 -20c37.333 0 65.666 7 84.999 21s29 34.333 29 61c0 20 -5.5 36.167 -16.5 48.5s-26 22.833 -45 31.5
s-41.667 16.834 -68 24.501s-55.166 16.834 -86.499 27.501c-20.667 7.33301 -40.167 16 -58.5 26s-34.5 22.333 -48.5 37s-25 32.334 -33 53.001s-12 45.334 -12 74.001c0 29.333 5.66699 56 17 80s27.166 44.833 47.499 62.5s44.5 31.334 72.5 41.001s58.667 14.5 92 14.5
c47.333 0 91.333 -7.5 132 -22.5s78.334 -36.5 113.001 -64.5l-71 -103c-24 23.333 -52 40.666 -84 51.999s-62 17 -90 17c-32.667 0 -57.5 -7 -74.5 -21s-25.5 -32.667 -25.5 -56c0 -16 4.33301 -29.5 13 -40.5s20.5 -20.333 35.5 -28s32.667 -14.5 53 -20.5l66.5 -20
c24.667 -7.33301 49.167 -16 73.5 -26s46 -22.833 65 -38.5s34.5 -34.834 46.5 -57.501s18 -50.667 18 -84c0 -32 -5.83301 -61 -17.5 -87s-28.5 -48 -50.5 -66s-48.5 -32 -79.5 -42s-66.167 -15 -105.5 -15z" />
    <glyph glyph-name="T" unicode="T" horiz-adv-x="532" 
d="M201 584h-181v116h492v-116h-181v-584h-130v584z" />
    <glyph glyph-name="U" unicode="U" horiz-adv-x="699" 
d="M350 -12c-88 0 -156 23 -204 69s-72 111.667 -72 197v446h131v-438c0 -50 13 -88 39 -114s61.333 -39 106 -39s79.667 13 105 39s38 64 38 114v438h131v-446c0 -87.333 -24.167 -153.5 -72.5 -198.5s-115.5 -67.5 -201.5 -67.5z" />
    <glyph glyph-name="V" unicode="V" horiz-adv-x="619" 
d="M6 700h139l161 -563h9l160 563h138l-217 -700h-172z" />
    <glyph glyph-name="W" unicode="W" horiz-adv-x="913" 
d="M20 700h134l102 -551h6l136 551h111l137 -551h6l107 551h134l-154 -700h-164l-119 476h-5l-119 -476h-164z" />
    <glyph glyph-name="X" unicode="X" horiz-adv-x="620" 
d="M220 360v5l-197 335h151l132 -244h8l135 244h148l-197 -335v-4l211 -361h-151l-146 273h-8l-145 -273h-152z" />
    <glyph glyph-name="Y" unicode="Y" horiz-adv-x="600" 
d="M235 274l-237 426h150l149 -299h7l149 299h150l-237 -426v-274h-131v274z" />
    <glyph glyph-name="Z" unicode="Z" horiz-adv-x="564" 
d="M32 99l331 479v6h-310v116h470v-100l-328 -475v-9h337v-116h-500v99z" />
    <glyph glyph-name="bracketleft" unicode="[" horiz-adv-x="344" 
d="M70 720h242v-105h-125v-666h125v-105h-242v876z" />
    <glyph glyph-name="backslash" unicode="\" horiz-adv-x="315" 
d="M23 720h110l159 -831h-108z" />
    <glyph glyph-name="bracketright" unicode="]" horiz-adv-x="343" 
d="M32 -51h122v666h-122v105h241v-876h-241v105z" />
    <glyph glyph-name="asciicircum" unicode="^" horiz-adv-x="539" 
d="M219 700h100l192 -359h-116l-116 228h-20l-116 -228h-115z" />
    <glyph glyph-name="underscore" unicode="_" horiz-adv-x="475" 
d="M18 -50h440v-89h-440v89z" />
    <glyph glyph-name="grave" unicode="`" horiz-adv-x="239" 
d="M30 732h114l56 -154h-95z" />
    <glyph glyph-name="a" unicode="a" horiz-adv-x="558" 
d="M210 -10c-25.333 0 -48.6719 3.66602 -70.0049 10.999s-39.666 17.666 -54.999 30.999s-27.166 29.5 -35.499 48.5s-12.5 40.167 -12.5 63.5v9c0 56.667 24 98.834 72 126.501s122 41.5 222 41.5h41v23c0 26 -8.16699 46.5 -24.5 61.5s-40.5 22.5 -72.5 22.5h-5
c-25.333 0 -51.5 -4.33301 -78.5 -13s-53.167 -21.667 -78.5 -39l-51 88c32 20.667 66.333 37 103 49s74.334 18 113.001 18h9c63.333 0 113 -16.667 149 -50s54 -79.666 54 -138.999v-235c0 -18 1.83301 -36 5.5 -54s7.83398 -35.667 12.501 -53h-118
c-2.66699 7.33301 -5.16699 16.5 -7.5 27.5s-4.16602 21.833 -5.49902 32.5c-22 -22.667 -47.333 -40 -76 -52s-59 -18 -91 -18zM235.994 89.999c26.667 0 51.668 5.66699 75.001 17s43.666 27 60.999 47v87h-30c-64.667 0 -111.667 -6.5 -141 -19.5s-44 -33.5 -44 -61.5v-5
c0 -19.333 7.33301 -35 22 -47s33.667 -18 57 -18z" />
    <glyph glyph-name="b" unicode="b" horiz-adv-x="623" 
d="M348 -9c-34 0 -65.1689 6.16113 -93.502 18.4941s-52.5 29.5 -72.5 51.5c-1.33301 -10.667 -3.16602 -21.667 -5.49902 -33s-5.16602 -20.666 -8.49902 -27.999h-98v720h124v-251c19.333 19.333 42 34.166 68 44.499s54.667 15.5 86 15.5h9
c34 0 65.167 -6.16699 93.5 -18.5s52.5 -29.666 72.5 -51.999s35.667 -49.166 47 -80.499s17 -65.666 17 -102.999v-30c0 -37.333 -5.66699 -71.666 -17 -102.999s-27 -58.166 -47 -80.499s-44.167 -39.666 -72.5 -51.999s-59.5 -18.5 -93.5 -18.5h-9zM329.998 89.9941
c38.667 0 69.667 14.5 93 43.5s35 67.833 35 116.5v24c0 47.333 -11.667 85.166 -35 113.499s-54.333 42.5 -93 42.5h-8c-38.667 0 -69.667 -14.167 -93 -42.5s-35 -66.166 -35 -113.499v-24c0 -48 11.5 -86.667 34.5 -116s54.167 -44 93.5 -44h8z" />
    <glyph glyph-name="c" unicode="c" horiz-adv-x="532" 
d="M288 -8c-37.333 0 -71.498 6.33301 -102.498 19s-57.5 30.167 -79.5 52.5s-39.167 49.166 -51.5 80.499s-18.5 65.666 -18.5 102.999v28c0 37.333 6.16699 71.333 18.5 102s29.666 57.334 51.999 80.001s48.666 40.167 78.999 52.5s63.5 18.5 99.5 18.5h8
c45.333 0 86.5 -10.167 123.5 -30.5s67.833 -50.166 92.5 -89.499l-90 -60c-29.333 53.333 -70.333 80 -123 80h-8c-38 0 -68 -13.833 -90 -41.5s-33 -66.167 -33 -115.5v-22c0 -48 11.667 -86 35 -114s54.333 -42 93 -42h9c49.333 0 89 27 119 81l90 -64
c-25.333 -38.667 -55.833 -68 -91.5 -88s-76.5 -30 -122.5 -30h-9z" />
    <glyph glyph-name="d" unicode="d" horiz-adv-x="623" 
d="M267 -9c-34 0 -65.1689 6.17285 -93.502 18.5059s-52.666 29.666 -72.999 51.999s-36.166 49.166 -47.499 80.499s-17 65.666 -17 102.999v30c0 37.333 5.66699 71.666 17 102.999s27.166 58.166 47.499 80.499s44.666 39.666 72.999 51.999s59.5 18.5 93.5 18.5h8
c31.333 0 60 -5.16699 86 -15.5s48.667 -25.166 68 -44.499v251h124v-720h-98c-3.33301 7.33301 -6.16602 16.666 -8.49902 27.999s-4.16602 22.333 -5.49902 33c-20 -22 -44.167 -39.167 -72.5 -51.5s-59.5 -18.5 -93.5 -18.5h-8zM301.998 90.0059
c38.667 0 69.667 14.667 93 44s35 68 35 116v24c0 47.333 -11.833 85.166 -35.5 113.499s-54.5 42.5 -92.5 42.5h-9c-38.667 0 -69.667 -14.167 -93 -42.5s-35 -66.166 -35 -113.499v-24c0 -48.667 11.667 -87.5 35 -116.5s54.333 -43.5 93 -43.5h9z" />
    <glyph glyph-name="e" unicode="e" horiz-adv-x="565" 
d="M291 -9c-38 0 -72.6709 6.16895 -104.004 18.502s-58.166 29.666 -80.499 51.999s-39.666 49.333 -51.999 81s-18.5 66.5 -18.5 104.5v20c0 38.667 6.16699 74.167 18.5 106.5s29.5 60 51.5 83s48.5 40.833 79.5 53.5s65.167 19 102.5 19h10
c34.667 0 66.334 -5.83301 95.001 -17.5s53.334 -28 74.001 -49s36.667 -46.333 48 -76s17 -62.167 17 -97.5v-67h-373v-1c3.33301 -38.667 17.5 -69.334 42.5 -92.001s57.5 -34 97.5 -34h10c31.333 0 58.5 6.33301 81.5 19s42.167 28.667 57.5 48l68 -75
c-24.667 -30 -55.667 -53.5 -93 -70.5s-77 -25.5 -119 -25.5h-13zM412.996 305.002l-0.000976562 3c-1.33301 38 -12.666 68.167 -33.999 90.5s-49 33.5 -83 33.5h-9c-34 0 -62 -11.167 -84 -33.5s-36 -53.5 -42 -93.5h252z" />
    <glyph glyph-name="f" unicode="f" horiz-adv-x="358" 
d="M85 418l-63 0.000976562v80c9.33301 3.33301 19.666 6.33301 30.999 9s22 4.66699 32 6v34c0 54 13 96 39 126s62 45 108 45c16.667 0 35.334 -1.83301 56.001 -5.5s38 -8.83398 52 -15.501v-97c-12.667 6 -25.167 10.333 -37.5 13s-24.5 4 -36.5 4
c-21.333 0 -37 -5.83301 -47 -17.5s-15 -32.167 -15 -61.5v-23h131v-97h-126v-418h-124v418z" />
    <glyph glyph-name="g" unicode="g" horiz-adv-x="544" 
d="M35 345c0 27.333 5.49902 52.167 16.499 74.5s26.167 41.666 45.5 57.999s42.5 29 69.5 38s56.5 13.5 88.5 13.5h25c33.333 0 64 -5 92 -15c10 28.667 21.667 52.334 35 71.001h110l-63 -123c14.667 -15.333 26 -32.833 34 -52.5s12 -41.167 12 -64.5v-12
c0 -26.667 -5.5 -51.334 -16.5 -74.001s-26.333 -42.167 -46 -58.5s-42.834 -29 -69.501 -38s-56 -13.5 -88 -13.5h-11c-11.333 0 -22.666 1 -33.999 3v-54c7.33301 0.666992 14.5 1 21.5 1h23.5h13c34 0 65 -3.5 93 -10.5s52 -17 72 -30s35.5 -28.667 46.5 -47
s16.5 -38.833 16.5 -61.5v-9c0 -22.667 -5.66699 -43.167 -17 -61.5s-27 -34 -47 -47s-44 -23.167 -72 -30.5s-59 -11 -93 -11h-33c-34 0 -65 3.5 -93 10.5s-52 17 -72 30s-35.667 28.833 -47 47.5s-17 39.334 -17 62.001v12c0 30 9.33301 56.167 28 78.5
s44.334 39.833 77.001 52.5v92c-30.667 16 -55 37.5 -73 64.5s-27 57.833 -27 92.5v12zM157.999 329.001c0 -28 9.83301 -50.167 29.5 -66.5s44.167 -24.5 73.5 -24.5h13c30 0 54.667 8.33301 74 25s29 38.667 29 66v15c0 27.333 -9.66699 49.166 -29 65.499
s-44 24.5 -74 24.5h-13c-29.333 0 -53.833 -8.16699 -73.5 -24.5s-29.5 -38.166 -29.5 -65.499v-15zM154.999 -52.999c0 -19.333 9.33301 -34.668 28 -46.001s45.667 -17 81 -17h24c36 0 63.667 5.83301 83 17.5s29 26.834 29 45.501v8c0 18.667 -9.66699 33.834 -29 45.501
s-47 17.5 -83 17.5h-24c-35.333 0 -62.333 -5.83301 -81 -17.5s-28 -26.834 -28 -45.501v-8z" />
    <glyph glyph-name="h" unicode="h" horiz-adv-x="606" 
d="M70 720h124v-264c22 23.333 48 41.5 78 54.5s62.333 19.5 97 19.5c56.667 0 100.167 -17.167 130.5 -51.5s45.5 -82.833 45.5 -145.5v-333h-124v307c0 76.667 -33 115 -99 115c-40 0 -71.333 -11.833 -94 -35.5s-34 -56.5 -34 -98.5v-288h-124v720z" />
    <glyph glyph-name="i" unicode="i" horiz-adv-x="264" 
d="M131 601c-21.333 0 -38.666 6.16699 -51.999 18.5s-20 28.166 -20 47.499c0 20 6.66699 36.333 20 49s30.666 19 51.999 19c22 0 39.833 -6.33301 53.5 -19s20.5 -29 20.5 -49c0 -19.333 -6.83301 -35.166 -20.5 -47.499s-31.5 -18.5 -53.5 -18.5zM70 520h124v-520h-124
v520z" />
    <glyph glyph-name="j" unicode="j" horiz-adv-x="279" 
d="M146 601c-22 0 -39.833 6.16699 -53.5 18.5s-20.5 28.166 -20.5 47.499c0 20 6.83301 36.333 20.5 49s31.5 19 53.5 19c21.333 0 39 -6.33301 53 -19s21 -29 21 -49c0 -19.333 -7 -35.166 -21 -47.499s-31.667 -18.5 -53 -18.5zM59 -204
c-14.667 0 -30.6689 1.33203 -48.002 3.99902s-33.666 7.33398 -48.999 14.001v103c8.66699 -3.33301 17.334 -6 26.001 -8s18 -3 28 -3c23.333 0 40.5 5.66699 51.5 17s16.5 32 16.5 62v535h124v-555c0 -54.667 -13 -96.5 -39 -125.5s-62.667 -43.5 -110 -43.5z" />
    <glyph glyph-name="k" unicode="k" horiz-adv-x="544" 
d="M70 720h124v-419h8l191 219h139l-219 -241l226 -279h-149l-188 246h-8v-246h-124v720z" />
    <glyph glyph-name="l" unicode="l" horiz-adv-x="264" 
d="M70 720h124v-720h-124v720z" />
    <glyph glyph-name="m" unicode="m" horiz-adv-x="890" 
d="M71 520l97.998 -0.00292969c2.66699 -8.66699 5.33398 -19.167 8.00098 -31.5s4.66699 -24.166 6 -35.499c20 24 43.667 42.833 71 56.5s57 20.5 89 20.5h5c36 0 65.833 -7.5 89.5 -22.5s41.834 -36.5 54.501 -64.5c20 27.333 44.5 48.666 73.5 63.999s60.833 23 95.5 23
h5c52.667 0 93 -16.333 121 -49s42 -80 42 -142v-339h-124v317c0 36.667 -6.66699 63.334 -20 80.001s-34 25 -62 25h-4c-32.667 0 -58.667 -10.667 -78 -32s-29 -52.666 -29 -93.999v-296h-124v317c0 36 -6.83301 62.5 -20.5 79.5s-34.5 25.5 -62.5 25.5h-4
c-32.667 0 -58.5 -10.667 -77.5 -32s-28.5 -52.666 -28.5 -93.999v-296h-124v520z" />
    <glyph glyph-name="n" unicode="n" horiz-adv-x="607" 
d="M71 520h98.001c3.33301 -10 6.33301 -22 9 -36s4.66699 -26.667 6 -38c21.333 26 47.5 46.5 78.5 61.5s64.5 22.5 100.5 22.5h6c57.333 0 101.166 -17 131.499 -51s45.5 -82.667 45.5 -146v-333h-124v307c0 76.667 -31.667 115 -95 115h-6c-38 0 -68.5 -12.5 -91.5 -37.5
s-34.5 -58.5 -34.5 -100.5v-284h-124v520z" />
    <glyph glyph-name="o" unicode="o" horiz-adv-x="593" 
d="M292 -9c-38 0 -72.667 6.16699 -104 18.5s-58.166 29.833 -80.499 52.5s-39.833 49.5 -52.5 80.5s-19 65.167 -19 102.5v30c0 37.333 6.33301 71.5 19 102.5s30.167 57.833 52.5 80.5s49.166 40.167 80.499 52.5s66 18.5 104 18.5h10c38 0 72.667 -6.16699 104 -18.5
s58.166 -29.833 80.499 -52.5s39.833 -49.5 52.5 -80.5s19 -65.167 19 -102.5v-30c0 -37.333 -6.33301 -71.5 -19 -102.5s-30.167 -57.833 -52.5 -80.5s-49.166 -40.167 -80.499 -52.5s-66 -18.5 -104 -18.5h-10zM301 90c39.333 0 70.5 14.667 93.5 44s34.5 68 34.5 116v24
c0 47.333 -11.667 85.166 -35 113.499s-54.333 42.5 -93 42.5h-8c-38.667 0 -69.667 -14.167 -93 -42.5s-35 -66.166 -35 -113.499v-24c0 -48 11.5 -86.667 34.5 -116s54.167 -44 93.5 -44h8z" />
    <glyph glyph-name="p" unicode="p" horiz-adv-x="623" 
d="M71 520l98.001 -0.00390625c2.66699 -7.33301 5.16699 -16.833 7.5 -28.5s4.16602 -22.834 5.49902 -33.501c20.667 22.667 45.167 40.167 73.5 52.5s59.5 18.5 93.5 18.5h8c34 0 65.167 -6.16699 93.5 -18.5s52.666 -29.666 72.999 -51.999s36 -49.166 47 -80.499
s16.5 -65.666 16.5 -102.999v-30c0 -37.333 -5.5 -71.666 -16.5 -102.999s-26.667 -58.166 -47 -80.499s-44.666 -39.666 -72.999 -51.999s-59.5 -18.5 -93.5 -18.5h-8c-31.333 0 -60 5.16699 -86 15.5s-48.667 25.166 -68 44.499v-251h-124v720zM331.001 89.9961
c38 0 68.833 14.5 92.5 43.5s35.5 67.833 35.5 116.5v24c0 47.333 -11.833 85.166 -35.5 113.499s-54.5 42.5 -92.5 42.5h-9c-38.667 0 -69.667 -14.167 -93 -42.5s-35 -66.166 -35 -113.499v-24c0 -48.667 11.667 -87.5 35 -116.5s54.333 -43.5 93 -43.5h9z" />
    <glyph glyph-name="q" unicode="q" horiz-adv-x="623" 
d="M429 51c-19.333 -19.333 -41.998 -34.1621 -67.998 -44.4951s-54.667 -15.5 -86 -15.5h-9c-34 0 -65.167 6.16699 -93.5 18.5s-52.5 29.666 -72.5 51.999s-35.667 49.166 -47 80.499s-17 65.666 -17 102.999v30c0 37.333 5.66699 71.666 17 102.999s27 58.166 47 80.499
s44.167 39.666 72.5 51.999s59.5 18.5 93.5 18.5h9c34 0 65 -6.16699 93 -18.5s52.333 -29.833 73 -52.5c1.33301 10.667 3.16602 21.834 5.49902 33.501s5.16602 21.167 8.49902 28.5h98v-720h-124v251zM301.002 90.0039c39.333 0 70.5 14.667 93.5 44s34.5 68 34.5 116v24
c0 47.333 -11.667 85.166 -35 113.499s-54.333 42.5 -93 42.5h-8c-38.667 0 -69.667 -14.167 -93 -42.5s-35 -66.166 -35 -113.499v-24c0 -48.667 11.667 -87.5 35 -116.5s54.333 -43.5 93 -43.5h8z" />
    <glyph glyph-name="r" unicode="r" horiz-adv-x="374" 
d="M70 520h97c3.33301 -9.33301 6.5 -20.5 9.5 -33.5s5.16699 -25.167 6.5 -36.5c18.667 22 41.167 39.167 67.5 51.5s55.833 18.5 88.5 18.5h13v-119c-4.66699 1.33301 -10.667 2.33301 -18 3s-14 1 -20 1c-80 0 -120 -43.333 -120 -130v-275h-124v520z" />
    <glyph glyph-name="s" unicode="s" horiz-adv-x="484" 
d="M259 -10c-92.667 0 -170.669 25.001 -234.002 75.001l62 89c22.667 -19.333 49 -34.5 79 -45.5s60 -16.5 90 -16.5c54.667 0 82 19 82 57c0 12 -3.33301 21.667 -10 29s-16.5 13.5 -29.5 18.5s-28.667 10 -47 15s-39.166 11.167 -62.499 18.5
c-18 5.33301 -35.667 11.333 -53 18s-32.666 15.334 -45.999 26.001s-24.166 24 -32.499 40s-12.5 36 -12.5 60c0 48 16.667 86 50 114s79.333 42 138 42c37.333 0 73.333 -5.83301 108 -17.5s65.667 -27.167 93 -46.5l-59 -88c-20 15.333 -43 27.666 -69 36.999
s-51.667 14 -77 14c-47.333 0 -71 -17 -71 -51c0 -10.667 3.33301 -19.667 10 -27s15.5 -13.333 26.5 -18s23.833 -8.83398 38.5 -12.501l46 -11.5c20.667 -4.66699 41.667 -10.5 63 -17.5s40.5 -16.333 57.5 -28s30.833 -26.5 41.5 -44.5s16 -40.667 16 -68
c0 -50 -17.833 -89.333 -53.5 -118s-83.834 -43 -144.501 -43z" />
    <glyph glyph-name="t" unicode="t" horiz-adv-x="385" 
d="M237 -5c-46.667 0 -83.168 12.6699 -109.501 38.0029s-39.5 65.333 -39.5 120v267h-69v84c10 3.33301 21.167 6.33301 33.5 9s24.166 4.66699 35.499 6v121l123 15v-135h143v-100h-144v-243c0 -28 5.33301 -47.5 16 -58.5s26.334 -16.5 47.001 -16.5
c6 0 12.833 0.333008 20.5 1s15.5 1.5 23.5 2.5s15.833 2.16699 23.5 3.5s13.834 2.66602 18.501 3.99902v-98c-8 -3.33301 -17.167 -6.33301 -27.5 -9s-21 -4.83398 -32 -6.50098s-21.833 -2.83398 -32.5 -3.50098s-20.667 -1 -30 -1z" />
    <glyph glyph-name="u" unicode="u" 
d="M236 -10c-57.333 0 -100.835 17.002 -130.502 51.002s-44.5 82.667 -44.5 146v333h124v-307c0 -38 7.33301 -66.667 22 -86s38.334 -29 71.001 -29h4c38 0 68.333 12.5 91 37.5s34 58.5 34 100.5v284h124v-520h-98c-3.33301 9.33301 -6.5 21.166 -9.5 35.499
s-4.83301 27.166 -5.5 38.499c-21.333 -26 -47.166 -46.5 -77.499 -61.5s-63.5 -22.5 -99.5 -22.5h-5z" />
    <glyph glyph-name="v" unicode="v" horiz-adv-x="540" 
d="M13 520h131l122 -406h10l121 406h131l-180 -520h-156z" />
    <glyph glyph-name="w" unicode="w" horiz-adv-x="790" 
d="M20 520h125l75 -386h10l107 386h114l107 -387h10l76 387h126l-118 -520h-151l-104 362h-4l-105 -362h-150z" />
    <glyph glyph-name="x" unicode="x" horiz-adv-x="528" 
d="M185 266v4l-165 250h141l105 -177h4l102 177h137l-164 -250v-4l171 -266h-140l-110 191h-5l-111 -191h-138z" />
    <glyph glyph-name="y" unicode="y" horiz-adv-x="535" 
d="M147 -201c-14 0 -29.666 1.33301 -46.999 4s-33 7.66699 -47 15v106c24 -12.667 48 -19 72 -19c20.667 0 39.667 6.16699 57 18.5s31.666 30.5 42.999 54.5l-219 542h131l148 -399h7l115 399h125l-178 -546c-17.333 -54 -42.833 -96.667 -76.5 -128
s-77.167 -47 -130.5 -47z" />
    <glyph glyph-name="z" unicode="z" horiz-adv-x="485" 
d="M27 97l271 318v5h-253v100h400v-97l-271 -318v-5h283v-100h-430v97z" />
    <glyph glyph-name="braceleft" unicode="{" horiz-adv-x="378" 
d="M230 -150c-34.667 0 -63 10.333 -85 31s-33 49 -33 85v200c0 46 -26.667 69 -80 69v100c53.333 0 80 23 80 69v200c0 36 11 64.333 33 85s50.333 31 85 31h116v-105h-56c-41.333 0 -62 -21 -62 -63v-174c0 -28 -6.83301 -49.5 -20.5 -64.5s-34.5 -22.5 -62.5 -22.5v-12
c27.333 0 48 -7.5 62 -22.5s21 -36.5 21 -64.5v-175c0 -41.333 20.667 -62 62 -62h56v-105h-116z" />
    <glyph glyph-name="bar" unicode="|" horiz-adv-x="261" 
d="M72 720h117v-910h-117v910z" />
    <glyph glyph-name="braceright" unicode="}" horiz-adv-x="378" 
d="M32 -45h55c41.333 0 62 20.667 62 62v175c0 28 7.16699 49.5 21.5 64.5s34.833 22.5 61.5 22.5v12c-27.333 0 -48 7.5 -62 22.5s-21 36.5 -21 64.5v174c0 42 -20.667 63 -62 63h-55v105h115c35.333 0 64 -10.333 86 -31s33 -49 33 -85v-200c0 -46 26.667 -69 80 -69v-100
c-53.333 0 -80 -23 -80 -69v-200c0 -36 -11 -64.333 -33 -85s-50.667 -31 -86 -31h-115v105z" />
    <glyph glyph-name="asciitilde" unicode="~" horiz-adv-x="560" 
d="M383 250c-20.667 0 -39.6689 3.00098 -57.002 9.00098s-34 12.833 -50 20.5s-32 14.5 -48 20.5s-32.667 9 -50 9c-35.333 0 -63 -15 -83 -45l-55 72c15.333 21.333 34.833 38.166 58.5 50.499s49.5 18.5 77.5 18.5c21.333 0 40.833 -3 58.5 -9s34.5 -12.833 50.5 -20.5
s31.5 -14.5 46.5 -20.5s30.5 -9 46.5 -9c18.667 0 35.5 4.33301 50.5 13s26.833 20.667 35.5 36l56 -71c-17.333 -23.333 -37.666 -41.5 -60.999 -54.5s-48.666 -19.5 -75.999 -19.5z" />
    <glyph glyph-name="exclamdown" unicode="&#xa1;" horiz-adv-x="276" 
d="M138 378c-21.333 0 -40 7.16699 -56 21.5s-24 31.166 -24 50.499v5c0 10 2.16699 19.5 6.5 28.5s10.166 16.833 17.499 23.5s15.833 12 25.5 16s19.834 6 30.501 6c22 0 40.667 -7.16699 56 -21.5s23 -31.833 23 -52.5v-5c0 -19.333 -7.66699 -36.166 -23 -50.499
s-34 -21.5 -56 -21.5zM70 52l15 246h105l16 -246v-242h-136v242z" />
    <glyph glyph-name="cent" unicode="&#xa2;" horiz-adv-x="521" 
d="M133 -95l30.002 117.001c-40 19.333 -71.167 49.5 -93.5 90.5s-33.5 89.833 -33.5 146.5v4c0 38 5.33301 72.667 16 104s25.667 58.5 45 81.5s42.666 41.333 69.999 55s57.666 21.5 90.999 23.5c1.33301 0 3 0.166992 5 0.5s3.66699 0.5 5 0.5h9l32 120l105 -26l-30 -115
c44.667 -18.667 80.667 -50.667 108 -96l-85 -63c-11.333 23.333 -26.833 41.166 -46.5 53.499s-42.167 18.5 -67.5 18.5h-2c-39.333 0 -70.833 -14.167 -94.5 -42.5s-35.5 -66.5 -35.5 -114.5v-4c0 -24 3.16699 -45.667 9.5 -65s15.333 -36 27 -50s25.667 -24.833 42 -32.5
s34.5 -11.5 54.5 -11.5h3c25.333 0 48 6.5 68 19.5s36.667 31.5 50 55.5l85 -67c-24 -38 -54.5 -66.833 -91.5 -86.5s-77.5 -29.5 -121.5 -29.5h-8h-3h-8l-30 -114z" />
    <glyph glyph-name="sterling" unicode="&#xa3;" horiz-adv-x="508" 
d="M32 98c6 2.66699 13.002 5 21.002 7s16 3.66699 24 5v193h-41v93h41v102c0 32 5 61 15 87s24 48.333 42 67s39.667 33.167 65 43.5s53.666 15.5 84.999 15.5c43.333 0 81.666 -10.167 114.999 -30.5s60.333 -50.833 81 -91.5l-99 -60
c-15.333 44.667 -44.666 67 -87.999 67c-26.667 0 -48.334 -8.5 -65.001 -25.5s-25 -40.833 -25 -71.5v-103h178v-93h-178v-188h290v-115h-461v98z" />
    <glyph glyph-name="currency" unicode="&#xa4;" horiz-adv-x="560" 
d="M353 178c-20.667 -10 -44.667 -15.001 -72 -15.001c-28.667 0 -53.667 5.33301 -75 16l-67 -67l-72 72l68 68c-11.333 21.333 -17 46 -17 74c0 13.333 1.33301 25.833 4 37.5s6.66699 22.834 12 33.501l-74 73l75 75l73 -73c10.667 4.66699 22.167 8.33398 34.5 11.001
s25.166 4 38.499 4c28.667 0 53.334 -5 74.001 -15l66 66l72 -72l-66 -66c11.333 -21.333 17 -46 17 -74c0 -26.667 -5.33301 -51.334 -16 -74.001l72 -72l-75 -75zM282 249.999c21.333 0 38.666 6.83301 51.999 20.5s20 32.167 20 55.5c0 22 -6.66699 39.833 -20 53.5
s-30.666 20.5 -51.999 20.5c-22 0 -39.833 -6.66699 -53.5 -20s-20.5 -31.333 -20.5 -54c0 -23.333 6.83301 -41.833 20.5 -55.5s31.5 -20.5 53.5 -20.5z" />
    <glyph glyph-name="yen" unicode="&#xa5;" horiz-adv-x="600" 
d="M48 239h187v35l-20 37h-167v94h114l-164 295h150l149 -299h7l149 299h150l-164 -295h114v-94h-166l-21 -37v-35h187v-93h-187v-146h-131v146h-187v93z" />
    <glyph glyph-name="brokenbar" unicode="&#xa6;" horiz-adv-x="253" 
d="M72 720h109v-380h-109v380zM72 200h109v-390h-109v390z" />
    <glyph glyph-name="section" unicode="&#xa7;" horiz-adv-x="526" 
d="M254 711c41.333 0 78.4961 -5.66797 111.496 -17.001s62.833 -27.666 89.5 -48.999l-59 -88c-17.333 16 -37.166 28.833 -59.499 38.5s-48.166 14.5 -77.499 14.5c-25.333 0 -46.666 -6.66699 -63.999 -20s-26 -31 -26 -53c0 -24 10.5 -42.667 31.5 -56
s53.833 -25.666 98.5 -36.999c23.333 -6 46.833 -13.167 70.5 -21.5s44.834 -19.333 63.501 -33s33.834 -30.5 45.501 -50.5s17.5 -44.667 17.5 -74c0 -34 -9 -64.167 -27 -90.5s-42.667 -47.5 -74 -63.5c22 -14.667 39.5 -32.5 52.5 -53.5s19.5 -46.833 19.5 -77.5
c0 -28.667 -5.33301 -54 -16 -76s-25.167 -40.5 -43.5 -55.5s-39.666 -26.5 -63.999 -34.5s-49.833 -12 -76.5 -12c-42 0 -79.667 5.66699 -113 17s-63.333 27.666 -90 48.999l59 88c16.667 -16 36.5 -28.667 59.5 -38s49.5 -14 79.5 -14c26 0 48 6.66699 66 20
s27 30.666 27 51.999c0 24.667 -10.667 43.5 -32 56.5s-54 25.167 -98 36.5c-23.333 6 -46.833 13.333 -70.5 22s-44.834 19.834 -63.501 33.501s-33.834 30.5 -45.501 50.5s-17.5 44.333 -17.5 73c0 34 9 64.333 27 91s42.667 47.667 74 63
c-22 14.667 -39.667 32.5 -53 53.5s-20 47.167 -20 78.5c0 28.667 5.33301 54 16 76s25.167 40.5 43.5 55.5s39.5 26.333 63.5 34s49 11.5 75 11.5zM296.996 150.999c26 7.33301 47.001 18.665 63.001 33.998s24 34.666 24 57.999c0 16.667 -3.16699 30.834 -9.5 42.501
s-15 21.667 -26 30s-24.333 15.333 -40 21s-32.834 11.167 -51.501 16.5l-31 9c-25.333 -7.33301 -46 -18.666 -62 -33.999s-24 -34.666 -24 -57.999c0 -16 3 -29.833 9 -41.5s14.333 -21.5 25 -29.5s23.5 -14.833 38.5 -20.5s31.167 -11.167 48.5 -16.5
c6 -2 12 -3.83301 18 -5.5s12 -3.5 18 -5.5z" />
    <glyph glyph-name="dieresis" unicode="&#xa8;" horiz-adv-x="422" 
d="M314 606c-19.333 0 -34.833 5.66699 -46.5 17s-17.5 26 -17.5 44s5.83301 32.833 17.5 44.5s27.167 17.5 46.5 17.5s35.333 -5.83301 48 -17.5s19 -26.5 19 -44.5s-6.33301 -32.667 -19 -44s-28.667 -17 -48 -17zM106 606c-19.333 0 -35.166 5.66699 -47.499 17
s-18.5 26 -18.5 44s6.16699 32.833 18.5 44.5s28.166 17.5 47.499 17.5c18 0 33.333 -5.83301 46 -17.5s19 -26.5 19 -44.5s-6.33301 -32.667 -19 -44s-28 -17 -46 -17z" />
    <glyph glyph-name="copyright" unicode="&#xa9;" horiz-adv-x="800" 
d="M400 -10c-52 0 -99.999 9.00098 -143.999 27.001s-82 43 -114 75s-57 70 -75 114s-27 92 -27 144c0 51.333 9.16699 98.833 27.5 142.5s43.666 81.667 75.999 114s70.5 57.666 114.5 75.999s91.333 27.5 142 27.5c52 0 100 -9 144 -27s82 -43 114 -75s57 -70 75 -114
s27 -92 27 -144s-9 -100 -27 -144s-43 -82 -75 -114s-70 -57 -114 -75s-92 -27 -144 -27zM400.001 85.001c38 0 73.333 6.66699 106 20s60.667 31.666 84 54.999s41.666 51.333 54.999 84s20 68 20 106s-6.66699 73.333 -20 106s-31.666 60.667 -54.999 84
s-51.333 41.666 -84 54.999s-68 20 -106 20s-73.333 -6.66699 -106 -20s-60.667 -31.666 -84 -54.999s-41.666 -51.333 -54.999 -84s-20 -68 -20 -106s6.66699 -73.333 20 -106s31.666 -60.667 54.999 -84s51.333 -41.666 84 -54.999s68 -20 106 -20zM400.001 168.001
c-26.667 0 -51.1641 4.66797 -73.4971 14.001s-41.5 22.166 -57.5 38.499s-28.5 36 -37.5 59s-13.5 48.167 -13.5 75.5s4.33301 52.5 13 75.5s21 42.667 37 59s35 29 57 38s46.333 13.5 73 13.5c33.333 0 63.666 -7 90.999 -21s48.666 -33.333 63.999 -58l-75 -50
c-13.333 28.667 -37 43 -71 43c-26.667 0 -48 -9 -64 -27s-24 -42.667 -24 -74c0 -30.667 7.83301 -55 23.5 -73s36.834 -27 63.501 -27c17.333 0 33.166 4.16699 47.499 12.5s25.166 19.833 32.499 34.5l74 -53c-17.333 -25.333 -39.833 -45 -67.5 -59s-58.5 -21 -92.5 -21
z" />
    <glyph glyph-name="ordfeminine" unicode="&#xaa;" horiz-adv-x="269" 
d="M100 449c-24 0 -43.3359 6.66797 -58.0029 20.001s-22 31.333 -22 54v3c0 27.333 11.833 47.833 35.5 61.5s57.834 20.5 102.501 20.5h11c0 21.333 -12.667 32 -38 32h-1c-11.333 0 -23.166 -2.16699 -35.499 -6.5s-24.166 -10.5 -35.499 -18.5l-28 58
c35.333 21.333 71.333 32 108 32h3c30.667 0 55.334 -8.33301 74.001 -25s28 -39 28 -67v-98c0 -22 3 -42.667 9 -62h-76c-2.66699 7.33301 -4.33398 14.666 -5.00098 21.999c-10.667 -9.33301 -22 -16 -34 -20s-24.667 -6 -38 -6zM126.997 510.001c17.333 0 31.333 6 42 18
v28h-4c-44.667 0 -67 -8.33301 -67 -25v-2c0 -12.667 9.66699 -19 29 -19zM35.9971 398.001h212v-78h-212v78z" />
    <glyph glyph-name="guillemotleft" unicode="&#xab;" horiz-adv-x="611" 
d="M279 270v8l155 200h130l-154 -199v-10l154 -199h-130zM48 270v8l155 200h130l-154 -199v-10l154 -199h-130z" />
    <glyph glyph-name="registered" unicode="&#xae;" horiz-adv-x="800" 
d="M400 -10c-52 0 -99.999 9.00098 -143.999 27.001s-82 43 -114 75s-57 70 -75 114s-27 92 -27 144c0 51.333 9.16699 98.833 27.5 142.5s43.666 81.667 75.999 114s70.5 57.666 114.5 75.999s91.333 27.5 142 27.5c52 0 100 -9 144 -27s82 -43 114 -75s57 -70 75 -114
s27 -92 27 -144s-9 -100 -27 -144s-43 -82 -75 -114s-70 -57 -114 -75s-92 -27 -144 -27zM400.001 85.001c38 0 73.333 6.66699 106 20s60.667 31.666 84 54.999s41.666 51.333 54.999 84s20 68 20 106s-6.66699 73.333 -20 106s-31.666 60.667 -54.999 84
s-51.333 41.666 -84 54.999s-68 20 -106 20s-73.333 -6.66699 -106 -20s-60.667 -31.666 -84 -54.999s-41.666 -51.333 -54.999 -84s-20 -68 -20 -106s6.66699 -73.333 20 -106s31.666 -60.667 54.999 -84s51.333 -41.666 84 -54.999s68 -20 106 -20zM265.001 530.001h147
c38 0 68 -10.667 90 -32s33 -50 33 -86c0 -22 -4 -41.333 -12 -58s-19.333 -30 -34 -40l73 -133h-95l-58 113h-58v-113h-86v349zM403.001 371.001c29.333 0 44 13.333 44 40c0 26 -14.667 39 -44 39h-52v-79h52z" />
    <glyph glyph-name="macron" unicode="&#xaf;" horiz-adv-x="368" 
d="M40 714h288v-92h-288v92z" />
    <glyph glyph-name="degree" unicode="&#xb0;" horiz-adv-x="387" 
d="M194 399c-22.667 0 -43.5 3.66699 -62.5 11s-35.333 17.833 -49 31.5s-24.167 30 -31.5 49s-11 39.833 -11 62.5c0 47.333 14.167 85 42.5 113s65.5 42 111.5 42s83 -14 111 -42s42 -65.667 42 -113c0 -46 -14 -83.167 -42 -111.5s-65 -42.5 -111 -42.5zM194 486
c19.333 0 34.666 6.16699 45.999 18.5s17 28.5 17 48.5c0 20.667 -5.66699 37 -17 49s-26.666 18 -45.999 18s-34.833 -6 -46.5 -18s-17.5 -28.333 -17.5 -49c0 -20 5.83301 -36.167 17.5 -48.5s27.167 -18.5 46.5 -18.5z" />
    <glyph glyph-name="plusminus" unicode="&#xb1;" horiz-adv-x="606" 
d="M250 315h-197v104h197v184h105v-184h198v-104h-198v-174h-105v174zM553 103v-103h-500v103h500z" />
    <glyph glyph-name="twosuperior" unicode="&#xb2;" horiz-adv-x="353" 
d="M22 374c29.333 15.333 56.335 31.666 81.002 48.999s45.834 34.666 63.501 51.999s31.5 34.333 41.5 51s15 32.334 15 47.001c0 15.333 -4.83301 27.5 -14.5 36.5s-22.167 13.5 -37.5 13.5c-16.667 0 -30.834 -5.5 -42.501 -16.5s-18.834 -25.833 -21.501 -44.5l-90 19
c5.33301 39.333 22.166 70.333 50.499 93s63.5 34 105.5 34c43.333 0 77.833 -11.167 103.5 -33.5s38.5 -52.166 38.5 -89.499c0 -34 -11.5 -68 -34.5 -102s-53.5 -65 -91.5 -93h144v-84h-311v68z" />
    <glyph glyph-name="threesuperior" unicode="&#xb3;" horiz-adv-x="358" 
d="M181 298c-39.333 0 -73.498 8.16699 -102.498 24.5s-50.833 39.5 -65.5 69.5l76 45c7.33301 -16.667 18.666 -29.667 33.999 -39s33.333 -14 54 -14s37.5 5 50.5 15s19.5 23.333 19.5 40s-6.33301 30 -19 40s-29.334 15 -50.001 15c-21.333 0 -40 -4.33301 -56 -13
l-35 47l104 88h-152v84h274v-68l-86 -77c34.667 -3.33301 62.167 -16 82.5 -38s30.5 -50.333 30.5 -85c0 -40.667 -14.5 -73.167 -43.5 -97.5s-67.5 -36.5 -115.5 -36.5z" />
    <glyph glyph-name="acute" unicode="&#xb4;" horiz-adv-x="240" 
d="M39 579l57 155h113l-75 -155h-95z" />
    <glyph glyph-name="paragraph" unicode="&#xb6;" horiz-adv-x="566" 
d="M269 253c-34.667 0 -66.334 5.33301 -95.001 16s-53.167 25.834 -73.5 45.501s-36 43.334 -47 71.001s-16.5 58.5 -16.5 92.5c0 33.333 6 63.666 18 90.999s28.833 50.666 50.5 69.999s47.834 34.333 78.501 45s64.667 16 102 16h197v-109h-94v-731h-120v393z" />
    <glyph glyph-name="periodcentered" unicode="&#xb7;" horiz-adv-x="210" 
d="M104 228c-21.333 0 -38.833 6.16699 -52.5 18.5s-20.5 28.5 -20.5 48.5s6.83301 36.333 20.5 49s31.167 19 52.5 19c22 0 40 -6.33301 54 -19s21 -29 21 -49s-7 -36.167 -21 -48.5s-32 -18.5 -54 -18.5z" />
    <glyph glyph-name="cedilla" unicode="&#xb8;" horiz-adv-x="223" 
d="M90 -179c-16 0 -32.6631 2 -49.9961 6l9 67c3.33301 -1.33301 7.16602 -2.66602 11.499 -3.99902s8.83301 -2 13.5 -2c11.333 0 19.5 2.33301 24.5 7s7.5 10 7.5 16c0 8 -3.33301 15 -10 21s-18 9 -34 9l24 60h71l-14 -31c15.333 -6 27.5 -14.5 36.5 -25.5
s13.5 -24.833 13.5 -41.5c0 -10 -2.33301 -19.833 -7 -29.5s-11.334 -18.334 -20.001 -26.001s-19.334 -14 -32.001 -19s-27.334 -7.5 -44.001 -7.5z" />
    <glyph glyph-name="onesuperior" unicode="&#xb9;" horiz-adv-x="281" 
d="M26 595c36 0 65 9.66992 87 29.0029s33 44.666 33 75.999h90v-394h-95v232c-16 -10.667 -33.833 -18.834 -53.5 -24.501s-40.167 -7.83398 -61.5 -6.50098v88z" />
    <glyph glyph-name="ordmasculine" unicode="&#xba;" horiz-adv-x="319" 
d="M151 432c-39.333 0 -71 12.333 -95 37s-36 57 -36 97v6c0 40 12 72.167 36 96.5s55.667 36.5 95 36.5h12c38.667 0 70 -12.167 94 -36.5s36 -56.5 36 -96.5v-6c0 -40 -12 -72.333 -36 -97s-55.333 -37 -94 -37h-12zM161 505c15.333 0 28 5.33301 38 16s15 25.667 15 45v6
c0 18.667 -5 33.334 -15 44.001s-22.667 16 -38 16h-5c-17.333 0 -31.166 -5.33301 -41.499 -16s-15.5 -25.334 -15.5 -44.001v-6c0 -19.333 5.16699 -34.333 15.5 -45s24.166 -16 41.499 -16h5zM38 384h238v-78h-238v78z" />
    <glyph glyph-name="guillemotright" unicode="&#xbb;" horiz-adv-x="611" 
d="M432 269v10l-153 199h130l154 -200v-8l-154 -200h-130zM201 269v10l-153 199h130l154 -200v-8l-154 -200h-130z" />
    <glyph glyph-name="onequarter" unicode="&#xbc;" horiz-adv-x="750" 
d="M110 561c-20 -10 -41.666 -15 -64.999 -15h-15v75l14 1c21.333 1.33301 38.166 8 50.499 20s18.5 27 18.5 45v13h88v-366h-91v227zM548.001 700h129l-528 -700h-129zM367.001 119l150 241h110v-225h43v-78h-43v-62h-89v62h-171v62zM538.001 135v110l-66 -110h66z" />
    <glyph glyph-name="onehalf" unicode="&#xbd;" horiz-adv-x="773" 
d="M110 561c-20 -10 -41.666 -15 -64.999 -15h-15v75l14 1c21.333 1.33301 38.166 8 50.499 20s18.5 27 18.5 45v13h88v-366h-91v227zM548.001 700h129l-528 -700h-129zM430.001 66l6 3.99902c16 10 33.5 22 52.5 36s36.667 29.167 53 45.5s30 33.166 41 50.499
s16.5 34 16.5 50c0 11.333 -3.16699 20.333 -9.5 27s-15.166 10 -26.499 10c-14 0 -24.5 -5.5 -31.5 -16.5s-11.833 -23.167 -14.5 -36.5l-2 -15l-90 20l2 11c2 14.667 6.33301 29.167 13 43.5s15.667 27 27 38s25 20 41 27s34.667 10.5 56 10.5c20 0 38 -3.16699 54 -9.5
s29.5 -14.666 40.5 -24.999s19.333 -22.5 25 -36.5s8.5 -29 8.5 -45c0 -17.333 -3.16699 -34.166 -9.5 -50.499s-14.833 -31.833 -25.5 -46.5s-22.834 -28.5 -36.501 -41.5s-27.5 -25.167 -41.5 -36.5h122v-81h-271v67z" />
    <glyph glyph-name="threequarters" unicode="&#xbe;" horiz-adv-x="809" 
d="M177 329c-35.333 0 -65.833 8.49902 -91.5 25.499s-42.167 39.833 -49.5 68.5l-3 12l84 20l5 -11c5.33301 -11.333 11.833 -19.833 19.5 -25.5s18.167 -8.5 31.5 -8.5c17.333 0 30.833 4.66699 40.5 14s14.5 22 14.5 38c0 30.667 -16.333 46 -49 46
c-10.667 0 -19.5 -1.16699 -26.5 -3.5s-14.833 -6.16602 -23.5 -11.499l-33 53l79 73h-123v81h249v-66l-70 -61c14 -2 26.5 -6.66699 37.5 -14s20.333 -16.166 28 -26.499s13.5 -21.833 17.5 -34.5s6 -25.334 6 -38.001c0 -18 -3.16699 -34.833 -9.5 -50.5
s-15.666 -29.5 -27.999 -41.5s-27.333 -21.5 -45 -28.5s-37.834 -10.5 -60.501 -10.5zM607 699.999h129l-528 -700h-129zM426 118.999l150 241h110v-225h43v-78h-43v-62h-89v62h-171v62zM597 134.999v110l-66 -110h66z" />
    <glyph glyph-name="questiondown" unicode="&#xbf;" horiz-adv-x="516" 
d="M261 378c-21.333 0 -40 7.16797 -56 21.501s-24 31.166 -24 50.499v5c0 20.667 7.83301 38.167 23.5 52.5s34.5 21.5 56.5 21.5s40.667 -7.16699 56 -21.5s23 -31.833 23 -52.5v-5c0 -20 -7.66699 -37 -23 -51s-34 -21 -56 -21zM241 -201.999
c-32 0 -61.334 4.33301 -88.001 13s-49.667 20.834 -69 36.501s-34.5 34.5 -45.5 56.5s-16.5 46.333 -16.5 73c0 17.333 2 33.166 6 47.499s10 27.833 18 40.5s17.833 25.167 29.5 37.5s25.5 24.833 41.5 37.5c12.667 10 24.5 19.833 35.5 29.5s20.667 20 29 31s15 23 20 36
s7.5 27.833 7.5 44.5v17h111c0.666992 -2.66699 1 -7.16699 1 -13.5v-14.5c0 -20 -2.33301 -38 -7 -54s-11.167 -30.667 -19.5 -44s-18 -25.833 -29 -37.5s-23.167 -23.167 -36.5 -34.5c-10 -8 -19.5 -16 -28.5 -24s-17 -16.167 -24 -24.5s-12.667 -17.5 -17 -27.5
s-6.5 -21 -6.5 -33c0 -25.333 9.16699 -44.333 27.5 -57s41.833 -19 70.5 -19c36.667 0 66.334 10.167 89.001 30.5s35.667 45.833 39 76.5l113 -18c-2 -29.333 -9.66699 -56.5 -23 -81.5s-31 -46.833 -53 -65.5s-47.833 -33.167 -77.5 -43.5s-62.167 -15.5 -97.5 -15.5z
" />
    <glyph glyph-name="Agrave" unicode="&#xc0;" horiz-adv-x="638" 
d="M233 700h172l236 -700h-140l-51 165h-262l-51 -165h-140zM418 273l-95 296h-8l-95 -296h198zM193 906h121l56 -147h-104z" />
    <glyph glyph-name="Aacute" unicode="&#xc1;" horiz-adv-x="638" 
d="M233 700h172l236 -700h-140l-51 165h-262l-51 -165h-140zM418 273l-95 296h-8l-95 -296h198zM365 763h-97l53 147h119z" />
    <glyph glyph-name="Acircumflex" unicode="&#xc2;" horiz-adv-x="638" 
d="M233 700h172l236 -700h-140l-51 165h-262l-51 -165h-140zM418 273l-95 296h-8l-95 -296h198zM249 900h140l117 -126h-119l-59 57h-18l-59 -57h-119z" />
    <glyph glyph-name="Atilde" unicode="&#xc3;" horiz-adv-x="638" 
d="M233 700h172l236 -700h-140l-51 165h-262l-51 -165h-140zM418 273l-95 296h-8l-95 -296h198zM122 839c12.667 22 29.4951 39.166 50.4951 51.499s43.833 18.5 68.5 18.5c14.667 0 28.834 -2.33301 42.501 -7s29.167 -10.667 46.5 -18c12.667 -6 25 -11.167 37 -15.5
s24.667 -6.5 38 -6.5c30 0 52.667 12 68 36l41 -58c-13.333 -22 -30.166 -39.167 -50.499 -51.5s-42.166 -18.5 -65.499 -18.5c-14.667 0 -29 2.33301 -43 7s-30.333 11.334 -49 20.001c-13.333 6 -26 11 -38 15s-23.667 6 -35 6c-15.333 0 -29.166 -3.33301 -41.499 -10
s-22.166 -15.667 -29.499 -27z" />
    <glyph glyph-name="Adieresis" unicode="&#xc4;" horiz-adv-x="636" 
d="M218 765c-19.333 0 -35 5.5 -47 16.5s-18 25.5 -18 43.5s6 33 18 45s27.667 18 47 18c18.667 0 34.334 -6 47.001 -18s19 -27 19 -45s-6.33301 -32.5 -19 -43.5s-28.334 -16.5 -47.001 -16.5zM415 765c-19.333 0 -34.833 5.5 -46.5 16.5s-17.5 25.5 -17.5 43.5
s5.83301 33 17.5 45s27.167 18 46.5 18s35.333 -6 48 -18s19 -27 19 -45s-6.33301 -32.5 -19 -43.5s-28.667 -16.5 -48 -16.5zM232 700h172l236 -700h-140l-51 165h-262l-51 -165h-140zM417 273l-95 296h-8l-95 -296h198z" />
    <glyph glyph-name="Aring" unicode="&#xc5;" horiz-adv-x="638" 
d="M233 700h172l236 -700h-140l-51 165h-262l-51 -165h-140zM418 273l-95 296h-8l-95 -296h198zM319 744c-30 0 -54.667 8.66699 -74 26s-29 39 -29 65c0 28 9.66699 50.833 29 68.5s44 26.5 74 26.5s54.5 -8.83301 73.5 -26.5s28.5 -40.5 28.5 -68.5
c0 -26 -9.5 -47.667 -28.5 -65s-43.5 -26 -73.5 -26zM319 799c11.333 0 20.666 3.5 27.999 10.5s11 15.833 11 26.5c0 11.333 -3.66699 20.666 -11 27.999s-16.666 11 -27.999 11c-12 0 -21.667 -3.66699 -29 -11s-11 -16.666 -11 -27.999c0 -10.667 3.66699 -19.5 11 -26.5
s17 -10.5 29 -10.5z" />
    <glyph glyph-name="AE" unicode="&#xc6;" horiz-adv-x="833" 
d="M245 700h523v-116h-267v-175h247v-110h-247v-183h277v-116h-402v165h-182l-56 -165h-141zM376 273v311h-43l-105 -311h148z" />
    <glyph glyph-name="Ccedilla" unicode="&#xc7;" horiz-adv-x="671" 
d="M371 -11c-49.333 0 -94.332 8.49902 -134.999 25.499s-75.5 41 -104.5 72s-51.5 68.167 -67.5 111.5s-24 91 -24 143v19c0 51.333 8.16699 98.5 24.5 141.5s39 80 68 111s63.667 55.167 104 72.5s84.5 26 132.5 26h7c56 0 107.667 -13.167 155 -39.5
s85 -63.166 113 -110.499l-100 -71c-17.333 32 -39.833 57.167 -67.5 75.5s-60.167 27.5 -97.5 27.5h-9c-28.667 0 -55 -5.5 -79 -16.5s-44.5 -26.667 -61.5 -47s-30.167 -44.833 -39.5 -73.5s-14 -60.667 -14 -96v-20c0 -35.333 4.66699 -67.333 14 -96
s22.666 -53.167 39.999 -73.5s38 -36 62 -47s50.667 -16.5 80 -16.5h10c37.333 0 70 9.33301 98 28s50.667 43.667 68 75l97 -72c-28 -47.333 -65.167 -84 -111.5 -110s-97.833 -39 -154.5 -39h-8zM328.001 -179.001c-16 0 -32.6631 2 -49.9961 6l9 67
c3.33301 -1.33301 7.16602 -2.66602 11.499 -3.99902s8.83301 -2 13.5 -2c11.333 0 19.5 2.33301 24.5 7s7.5 10 7.5 16c0 8 -3.33301 15 -10 21s-18 9 -34 9l24 60h71l-14 -31c15.333 -6 27.5 -14.5 36.5 -25.5s13.5 -24.833 13.5 -41.5c0 -10 -2.33301 -19.833 -7 -29.5
s-11.334 -18.334 -20.001 -26.001s-19.334 -14 -32.001 -19s-27.334 -7.5 -44.001 -7.5z" />
    <glyph glyph-name="Egrave" unicode="&#xc8;" horiz-adv-x="559" 
d="M82 700h412v-116h-281v-175h261v-110h-261v-183h291v-116h-422v700zM168 906h121l56 -147h-104z" />
    <glyph glyph-name="Eacute" unicode="&#xc9;" horiz-adv-x="559" 
d="M82 700h412v-116h-281v-175h261v-110h-261v-183h291v-116h-422v700zM340 763h-97l53 147h119z" />
    <glyph glyph-name="Ecircumflex" unicode="&#xca;" horiz-adv-x="559" 
d="M82 700h412v-116h-281v-175h261v-110h-261v-183h291v-116h-422v700zM224 900h140l117 -126h-119l-59 57h-18l-59 -57h-119z" />
    <glyph glyph-name="Edieresis" unicode="&#xcb;" horiz-adv-x="559" 
d="M82 700h412v-116h-281v-175h261v-110h-261v-183h291v-116h-422v700zM208 765c-17.333 0 -31.833 5.5 -43.5 16.5s-17.5 25.833 -17.5 44.5s5.83301 34 17.5 46s26.167 18 43.5 18s32 -6 44 -18s18 -27.333 18 -46s-6 -33.5 -18 -44.5s-26.667 -16.5 -44 -16.5zM377 765
c-17.333 0 -31.666 5.5 -42.999 16.5s-17 25.833 -17 44.5s5.66699 34 17 46s25.666 18 42.999 18c18 0 33 -6 45 -18s18 -27.333 18 -46s-6 -33.5 -18 -44.5s-27 -16.5 -45 -16.5z" />
    <glyph glyph-name="Igrave" unicode="&#xcc;" horiz-adv-x="296" 
d="M82 700h131v-700h-131v700zM22 906h121l56 -147h-104z" />
    <glyph glyph-name="Iacute" unicode="&#xcd;" horiz-adv-x="296" 
d="M82 700h131v-700h-131v700zM194 763h-97l53 147h119z" />
    <glyph glyph-name="Icircumflex" unicode="&#xce;" horiz-adv-x="296" 
d="M82 700h131v-700h-131v700zM78 900h140l117 -126h-119l-59 57h-18l-59 -57h-119z" />
    <glyph glyph-name="Idieresis" unicode="&#xcf;" horiz-adv-x="296" 
d="M82 700h131v-700h-131v700zM62 765c-17.333 0 -31.833 5.5 -43.5 16.5s-17.5 25.833 -17.5 44.5s5.83301 34 17.5 46s26.167 18 43.5 18s32 -6 44 -18s18 -27.333 18 -46s-6 -33.5 -18 -44.5s-26.667 -16.5 -44 -16.5zM231 765c-17.333 0 -31.666 5.5 -42.999 16.5
s-17 25.833 -17 44.5s5.66699 34 17 46s25.666 18 42.999 18c18 0 33 -6 45 -18s18 -27.333 18 -46s-6 -33.5 -18 -44.5s-27 -16.5 -45 -16.5z" />
    <glyph glyph-name="Eth" unicode="&#xd0;" horiz-adv-x="713" 
d="M95 299l-68 -0.00195312v116h68v285h220c54 0 103 -8 147 -24s81.833 -38.667 113.5 -68s56 -64.5 73 -105.5s25.5 -86.833 25.5 -137.5v-20c0 -51.333 -8.5 -98.166 -25.5 -140.499s-41.333 -78.666 -73 -108.999s-69.5 -53.833 -113.5 -70.5s-93 -25 -147 -25h-220v299
zM316 115.998c70 0 124.167 20.5 162.5 61.5s57.5 97.5 57.5 169.5v19c0 68 -19.333 121.333 -58 160s-92.667 58 -162 58h-90v-169h141v-116h-141v-183h90z" />
    <glyph glyph-name="Ntilde" unicode="&#xd1;" horiz-adv-x="717" 
d="M82 700h147l274 -497h4v497h127v-700h-131l-287 521h-6v-521h-128v700zM162 838c12.667 22 29.4951 39.166 50.4951 51.499s43.833 18.5 68.5 18.5c14.667 0 28.834 -2.33301 42.501 -7s29.167 -10.667 46.5 -18c12.667 -6 25 -11.167 37 -15.5s24.667 -6.5 38 -6.5
c30 0 52.667 12 68 36l41 -58c-13.333 -22 -30.166 -39.167 -50.499 -51.5s-42.166 -18.5 -65.499 -18.5c-14.667 0 -29 2.33301 -43 7s-30.333 11.334 -49 20.001c-13.333 6 -26 11 -38 15s-23.667 6 -35 6c-15.333 0 -29.166 -3.33301 -41.499 -10
s-22.166 -15.667 -29.499 -27z" />
    <glyph glyph-name="Ograve" unicode="&#xd2;" horiz-adv-x="756" 
d="M40 360c0 53.333 8.16699 101.5 24.5 144.5s39.166 80 68.499 111s64.333 54.833 105 71.5s85.334 25 134.001 25h12c48.667 0 93.334 -8.33301 134.001 -25s75.667 -40.5 105 -71.5s52.166 -68 68.499 -111s24.5 -91.167 24.5 -144.5v-20
c0 -52.667 -8.16699 -100.667 -24.5 -144s-39.166 -80.5 -68.499 -111.5s-64.333 -54.833 -105 -71.5s-85.334 -25 -134.001 -25h-12c-48.667 0 -93.334 8.5 -134.001 25.5s-75.667 41 -105 72s-52.166 68 -68.499 111s-24.5 90.833 -24.5 143.5v20zM176 340
c0 -36 5 -68.5 15 -97.5s23.667 -53.667 41 -74s38 -36 62 -47s50.333 -16.5 79 -16.5h10c28.667 0 55 5.5 79 16.5s44.833 26.667 62.5 47s31.334 45 41.001 74s14.5 61.5 14.5 97.5v20c0 36 -4.83301 68.5 -14.5 97.5s-23.334 53.667 -41.001 74s-38.5 36 -62.5 47
s-50.333 16.5 -79 16.5h-10c-28.667 0 -55 -5.5 -79 -16.5s-44.667 -26.667 -62 -47s-31 -45 -41 -74s-15 -61.5 -15 -97.5v-20zM251 906h121l56 -147h-104z" />
    <glyph glyph-name="Oacute" unicode="&#xd3;" horiz-adv-x="756" 
d="M40 360c0 53.333 8.16699 101.5 24.5 144.5s39.166 80 68.499 111s64.333 54.833 105 71.5s85.334 25 134.001 25h12c48.667 0 93.334 -8.33301 134.001 -25s75.667 -40.5 105 -71.5s52.166 -68 68.499 -111s24.5 -91.167 24.5 -144.5v-20
c0 -52.667 -8.16699 -100.667 -24.5 -144s-39.166 -80.5 -68.499 -111.5s-64.333 -54.833 -105 -71.5s-85.334 -25 -134.001 -25h-12c-48.667 0 -93.334 8.5 -134.001 25.5s-75.667 41 -105 72s-52.166 68 -68.499 111s-24.5 90.833 -24.5 143.5v20zM176 340
c0 -36 5 -68.5 15 -97.5s23.667 -53.667 41 -74s38 -36 62 -47s50.333 -16.5 79 -16.5h10c28.667 0 55 5.5 79 16.5s44.833 26.667 62.5 47s31.334 45 41.001 74s14.5 61.5 14.5 97.5v20c0 36 -4.83301 68.5 -14.5 97.5s-23.334 53.667 -41.001 74s-38.5 36 -62.5 47
s-50.333 16.5 -79 16.5h-10c-28.667 0 -55 -5.5 -79 -16.5s-44.667 -26.667 -62 -47s-31 -45 -41 -74s-15 -61.5 -15 -97.5v-20zM424 763h-97l53 147h119z" />
    <glyph glyph-name="Ocircumflex" unicode="&#xd4;" horiz-adv-x="756" 
d="M40 360c0 53.333 8.16699 101.5 24.5 144.5s39.166 80 68.499 111s64.333 54.833 105 71.5s85.334 25 134.001 25h12c48.667 0 93.334 -8.33301 134.001 -25s75.667 -40.5 105 -71.5s52.166 -68 68.499 -111s24.5 -91.167 24.5 -144.5v-20
c0 -52.667 -8.16699 -100.667 -24.5 -144s-39.166 -80.5 -68.499 -111.5s-64.333 -54.833 -105 -71.5s-85.334 -25 -134.001 -25h-12c-48.667 0 -93.334 8.5 -134.001 25.5s-75.667 41 -105 72s-52.166 68 -68.499 111s-24.5 90.833 -24.5 143.5v20zM176 340
c0 -36 5 -68.5 15 -97.5s23.667 -53.667 41 -74s38 -36 62 -47s50.333 -16.5 79 -16.5h10c28.667 0 55 5.5 79 16.5s44.833 26.667 62.5 47s31.334 45 41.001 74s14.5 61.5 14.5 97.5v20c0 36 -4.83301 68.5 -14.5 97.5s-23.334 53.667 -41.001 74s-38.5 36 -62.5 47
s-50.333 16.5 -79 16.5h-10c-28.667 0 -55 -5.5 -79 -16.5s-44.667 -26.667 -62 -47s-31 -45 -41 -74s-15 -61.5 -15 -97.5v-20zM308 900h140l117 -126h-119l-59 57h-18l-59 -57h-119z" />
    <glyph glyph-name="Otilde" unicode="&#xd5;" horiz-adv-x="756" 
d="M40 360c0 53.333 8.16699 101.5 24.5 144.5s39.166 80 68.499 111s64.333 54.833 105 71.5s85.334 25 134.001 25h12c48.667 0 93.334 -8.33301 134.001 -25s75.667 -40.5 105 -71.5s52.166 -68 68.499 -111s24.5 -91.167 24.5 -144.5v-20
c0 -52.667 -8.16699 -100.667 -24.5 -144s-39.166 -80.5 -68.499 -111.5s-64.333 -54.833 -105 -71.5s-85.334 -25 -134.001 -25h-12c-48.667 0 -93.334 8.5 -134.001 25.5s-75.667 41 -105 72s-52.166 68 -68.499 111s-24.5 90.833 -24.5 143.5v20zM176 340
c0 -36 5 -68.5 15 -97.5s23.667 -53.667 41 -74s38 -36 62 -47s50.333 -16.5 79 -16.5h10c28.667 0 55 5.5 79 16.5s44.833 26.667 62.5 47s31.334 45 41.001 74s14.5 61.5 14.5 97.5v20c0 36 -4.83301 68.5 -14.5 97.5s-23.334 53.667 -41.001 74s-38.5 36 -62.5 47
s-50.333 16.5 -79 16.5h-10c-28.667 0 -55 -5.5 -79 -16.5s-44.667 -26.667 -62 -47s-31 -45 -41 -74s-15 -61.5 -15 -97.5v-20zM181 839c12.667 22 29.4951 39.166 50.4951 51.499s43.833 18.5 68.5 18.5c14.667 0 28.834 -2.33301 42.501 -7s29.167 -10.667 46.5 -18
c12.667 -6 25 -11.167 37 -15.5s24.667 -6.5 38 -6.5c30 0 52.667 12 68 36l41 -58c-13.333 -22 -30.166 -39.167 -50.499 -51.5s-42.166 -18.5 -65.499 -18.5c-14.667 0 -29 2.33301 -43 7s-30.333 11.334 -49 20.001c-13.333 6 -26 11 -38 15s-23.667 6 -35 6
c-15.333 0 -29.166 -3.33301 -41.499 -10s-22.166 -15.667 -29.499 -27z" />
    <glyph glyph-name="Odieresis" unicode="&#xd6;" horiz-adv-x="756" 
d="M279 765c-19.333 0 -35 5.5 -47 16.5s-18 25.5 -18 43.5s6 33 18 45s27.667 18 47 18c18.667 0 34.334 -6 47.001 -18s19 -27 19 -45s-6.33301 -32.5 -19 -43.5s-28.334 -16.5 -47.001 -16.5zM476 765c-19.333 0 -35 5.5 -47 16.5s-18 25.5 -18 43.5s6 33 18 45
s27.667 18 47 18s35.166 -6 47.499 -18s18.5 -27 18.5 -45s-6.16699 -32.5 -18.5 -43.5s-28.166 -16.5 -47.499 -16.5zM40 360c0 53.333 8.16699 101.5 24.5 144.5s39.166 80 68.499 111s64.333 54.833 105 71.5s85.334 25 134.001 25h12
c48.667 0 93.334 -8.33301 134.001 -25s75.667 -40.5 105 -71.5s52.166 -68 68.499 -111s24.5 -91.167 24.5 -144.5v-20c0 -52.667 -8.16699 -100.667 -24.5 -144s-39.166 -80.5 -68.499 -111.5s-64.333 -54.833 -105 -71.5s-85.334 -25 -134.001 -25h-12
c-48.667 0 -93.334 8.5 -134.001 25.5s-75.667 41 -105 72s-52.166 68 -68.499 111s-24.5 90.833 -24.5 143.5v20zM176 340c0 -36 5 -68.5 15 -97.5s23.667 -53.667 41 -74s38 -36 62 -47s50.333 -16.5 79 -16.5h10c28.667 0 55 5.5 79 16.5s44.833 26.667 62.5 47
s31.334 45 41.001 74s14.5 61.5 14.5 97.5v20c0 36 -4.83301 68.5 -14.5 97.5s-23.334 53.667 -41.001 74s-38.5 36 -62.5 47s-50.333 16.5 -79 16.5h-10c-28.667 0 -55 -5.5 -79 -16.5s-44.667 -26.667 -62 -47s-31 -45 -41 -74s-15 -61.5 -15 -97.5v-20z" />
    <glyph glyph-name="multiply" unicode="&#xd7;" horiz-adv-x="518" 
d="M46 184l141 141l-141 141l73 72l140 -141l141 141l72 -72l-140 -141l140 -141l-72 -72l-141 141l-140 -141z" />
    <glyph glyph-name="Oslash" unicode="&#xd8;" horiz-adv-x="756" 
d="M156 64c-36.667 31.333 -65.167 70.333 -85.5 117s-30.5 99.667 -30.5 159v20c0 53.333 8.16699 101.5 24.5 144.5s39 80 68 111s64 54.833 105 71.5s85.833 25 134.5 25h12c50.667 0 97.667 -9.33301 141 -28l30 51h103l-58 -98c36 -31.333 64.333 -70.333 85 -117
s31 -100 31 -160v-20c0 -52.667 -8.16699 -100.667 -24.5 -144s-39.166 -80.5 -68.499 -111.5s-64.333 -54.833 -105 -71.5s-85.334 -25 -134.001 -25h-12c-50.667 0 -97.667 9.33301 -141 28l-30 -52h-104zM172 340c0 -35.333 4.5 -67.333 13.5 -96
s21.833 -53.334 38.5 -74.001l246 412c-13.333 6.66699 -27.166 11.834 -41.499 15.501s-29.5 5.5 -45.5 5.5h-10c-28.667 0 -55.334 -5.66699 -80.001 -17s-46 -27.5 -64 -48.5s-32 -46.333 -42 -76s-15 -63.167 -15 -100.5v-21zM285 118
c13.333 -6.66699 27.334 -11.8311 42.001 -15.498s30 -5.5 46 -5.5h10c29.333 0 56.166 5.66699 80.499 17s45.333 27.666 63 48.999s31.5 47 41.5 77s15 63.333 15 100v21c0 69.333 -17 125.666 -51 168.999z" />
    <glyph glyph-name="Ugrave" unicode="&#xd9;" horiz-adv-x="699" 
d="M350 -12c-88 0 -156 23 -204 69s-72 111.667 -72 197v446h131v-438c0 -50 13 -88 39 -114s61.333 -39 106 -39s79.667 13 105 39s38 64 38 114v438h131v-446c0 -87.333 -24.167 -153.5 -72.5 -198.5s-115.5 -67.5 -201.5 -67.5zM224 906h121l56 -147h-104z" />
    <glyph glyph-name="Uacute" unicode="&#xda;" horiz-adv-x="699" 
d="M350 -12c-88 0 -156 23 -204 69s-72 111.667 -72 197v446h131v-438c0 -50 13 -88 39 -114s61.333 -39 106 -39s79.667 13 105 39s38 64 38 114v438h131v-446c0 -87.333 -24.167 -153.5 -72.5 -198.5s-115.5 -67.5 -201.5 -67.5zM396 763h-97l53 147h119z" />
    <glyph glyph-name="Ucircumflex" unicode="&#xdb;" horiz-adv-x="699" 
d="M350 -12c-88 0 -156 23 -204 69s-72 111.667 -72 197v446h131v-438c0 -50 13 -88 39 -114s61.333 -39 106 -39s79.667 13 105 39s38 64 38 114v438h131v-446c0 -87.333 -24.167 -153.5 -72.5 -198.5s-115.5 -67.5 -201.5 -67.5zM280 900h140l117 -126h-119l-59 57h-18
l-59 -57h-119z" />
    <glyph glyph-name="Udieresis" unicode="&#xdc;" horiz-adv-x="693" 
d="M247 765c-18.667 0 -34 5.5 -46 16.5s-18 25.5 -18 43.5s6 33 18 45s27.333 18 46 18c19.333 0 35.333 -6 48 -18s19 -27 19 -45s-6.33301 -32.5 -19 -43.5s-28.667 -16.5 -48 -16.5zM445 765c-19.333 0 -35 5.5 -47 16.5s-18 25.5 -18 43.5s6 33 18 45s27.667 18 47 18
s35.166 -6 47.499 -18s18.5 -27 18.5 -45s-6.16699 -32.5 -18.5 -43.5s-28.166 -16.5 -47.499 -16.5zM347 -12c-88 0 -155.833 23 -203.5 69s-71.5 111.667 -71.5 197v446h130v-438c0 -50 13 -88 39 -114s61.667 -39 107 -39c44 0 78.833 13 104.5 39s38.5 64 38.5 114v438
h130v-446c0 -87.333 -24.167 -153.5 -72.5 -198.5s-115.5 -67.5 -201.5 -67.5z" />
    <glyph glyph-name="Yacute" unicode="&#xdd;" horiz-adv-x="600" 
d="M235 274l-237 426h150l149 -299h7l149 299h150l-237 -426v-274h-131v274zM347 763h-97l53 147h119z" />
    <glyph glyph-name="Thorn" unicode="&#xde;" horiz-adv-x="606" 
d="M82 700l131.001 -0.000976562v-96h105c38 0 72.5 -5.33301 103.5 -16s57.5 -26 79.5 -46s38.833 -44.167 50.5 -72.5s17.5 -59.833 17.5 -94.5v-6c0 -34.667 -6 -66.167 -18 -94.5s-28.833 -52.666 -50.5 -72.999s-47.834 -36 -78.501 -47s-65 -16.5 -103 -16.5h-106
v-138h-131v700zM305.001 248.999c41.333 0 73.833 10.667 97.5 32s35.5 51 35.5 89v6c0 36 -11.667 64.333 -35 85s-55 31 -95 31h-98v-243h95z" />
    <glyph glyph-name="germandbls" unicode="&#xdf;" horiz-adv-x="588" 
d="M355 -10c-19.333 0 -39.3311 1.99902 -59.998 5.99902s-37.334 9 -50.001 15v97c7.33301 -3.33301 18.166 -6 32.499 -8s27.166 -3 38.499 -3c35.333 0 63.5 10.5 84.5 31.5s31.5 49.167 31.5 84.5c0 36 -10.5 64.833 -31.5 86.5s-48.5 32.5 -82.5 32.5h-56v86h48
c26 0 47 9.5 63 28.5s24 42.5 24 70.5c0 30 -9.16699 54.167 -27.5 72.5s-42.5 27.5 -72.5 27.5c-32.667 0 -58.834 -10.5 -78.501 -31.5s-29.5 -48.5 -29.5 -82.5v-503h-124v508c0 31.333 5.5 60 16.5 86s26.667 48.167 47 66.5s44.833 32.5 73.5 42.5s60.334 15 95.001 15
c33.333 0 63.666 -4.5 90.999 -13.5s50.833 -21.667 70.5 -38s34.834 -36.166 45.501 -59.499s16 -49 16 -77c0 -30 -6.16699 -57.333 -18.5 -82s-29.166 -45 -50.499 -61c33.333 -17.333 59.333 -42.5 78 -75.5s28 -71.5 28 -115.5c0 -30.667 -4.83301 -58.667 -14.5 -84
s-23.167 -47 -40.5 -65s-38.5 -32 -63.5 -42s-52.833 -15 -83.5 -15z" />
    <glyph glyph-name="agrave" unicode="&#xe0;" horiz-adv-x="558" 
d="M210 -10c-25.333 0 -48.6719 3.66602 -70.0049 10.999s-39.666 17.666 -54.999 30.999s-27.166 29.5 -35.499 48.5s-12.5 40.167 -12.5 63.5v9c0 56.667 24 98.834 72 126.501s122 41.5 222 41.5h41v23c0 26 -8.16699 46.5 -24.5 61.5s-40.5 22.5 -72.5 22.5h-5
c-25.333 0 -51.5 -4.33301 -78.5 -13s-53.167 -21.667 -78.5 -39l-51 88c32 20.667 66.333 37 103 49s74.334 18 113.001 18h9c63.333 0 113 -16.667 149 -50s54 -79.666 54 -138.999v-235c0 -18 1.83301 -36 5.5 -54s7.83398 -35.667 12.501 -53h-118
c-2.66699 7.33301 -5.16699 16.5 -7.5 27.5s-4.16602 21.833 -5.49902 32.5c-22 -22.667 -47.333 -40 -76 -52s-59 -18 -91 -18zM235.994 89.999c26.667 0 51.668 5.66699 75.001 17s43.666 27 60.999 47v87h-30c-64.667 0 -111.667 -6.5 -141 -19.5s-44 -33.5 -44 -61.5v-5
c0 -19.333 7.33301 -35 22 -47s33.667 -18 57 -18zM158.995 734.999h114l56 -154h-95z" />
    <glyph glyph-name="aacute" unicode="&#xe1;" horiz-adv-x="558" 
d="M210 -10c-25.333 0 -48.6719 3.66602 -70.0049 10.999s-39.666 17.666 -54.999 30.999s-27.166 29.5 -35.499 48.5s-12.5 40.167 -12.5 63.5v9c0 56.667 24 98.834 72 126.501s122 41.5 222 41.5h41v23c0 26 -8.16699 46.5 -24.5 61.5s-40.5 22.5 -72.5 22.5h-5
c-25.333 0 -51.5 -4.33301 -78.5 -13s-53.167 -21.667 -78.5 -39l-51 88c32 20.667 66.333 37 103 49s74.334 18 113.001 18h9c63.333 0 113 -16.667 149 -50s54 -79.666 54 -138.999v-235c0 -18 1.83301 -36 5.5 -54s7.83398 -35.667 12.501 -53h-118
c-2.66699 7.33301 -5.16699 16.5 -7.5 27.5s-4.16602 21.833 -5.49902 32.5c-22 -22.667 -47.333 -40 -76 -52s-59 -18 -91 -18zM235.994 89.999c26.667 0 51.668 5.66699 75.001 17s43.666 27 60.999 47v87h-30c-64.667 0 -111.667 -6.5 -141 -19.5s-44 -33.5 -44 -61.5v-5
c0 -19.333 7.33301 -35 22 -47s33.667 -18 57 -18zM225.995 578.999l57 155h113l-75 -155h-95z" />
    <glyph glyph-name="acircumflex" unicode="&#xe2;" horiz-adv-x="558" 
d="M210 -10c-25.333 0 -48.6719 3.66602 -70.0049 10.999s-39.666 17.666 -54.999 30.999s-27.166 29.5 -35.499 48.5s-12.5 40.167 -12.5 63.5v9c0 56.667 24 98.834 72 126.501s122 41.5 222 41.5h41v23c0 26 -8.16699 46.5 -24.5 61.5s-40.5 22.5 -72.5 22.5h-5
c-25.333 0 -51.5 -4.33301 -78.5 -13s-53.167 -21.667 -78.5 -39l-51 88c32 20.667 66.333 37 103 49s74.334 18 113.001 18h9c63.333 0 113 -16.667 149 -50s54 -79.666 54 -138.999v-235c0 -18 1.83301 -36 5.5 -54s7.83398 -35.667 12.501 -53h-118
c-2.66699 7.33301 -5.16699 16.5 -7.5 27.5s-4.16602 21.833 -5.49902 32.5c-22 -22.667 -47.333 -40 -76 -52s-59 -18 -91 -18zM235.994 89.999c26.667 0 51.668 5.66699 75.001 17s43.666 27 60.999 47v87h-30c-64.667 0 -111.667 -6.5 -141 -19.5s-44 -33.5 -44 -61.5v-5
c0 -19.333 7.33301 -35 22 -47s33.667 -18 57 -18zM349.995 591.999l-62 59h-18l-62 -59h-117l118 128h140l118 -128h-117z" />
    <glyph glyph-name="atilde" unicode="&#xe3;" horiz-adv-x="558" 
d="M210 -10c-25.333 0 -48.6719 3.66602 -70.0049 10.999s-39.666 17.666 -54.999 30.999s-27.166 29.5 -35.499 48.5s-12.5 40.167 -12.5 63.5v9c0 56.667 24 98.834 72 126.501s122 41.5 222 41.5h41v23c0 26 -8.16699 46.5 -24.5 61.5s-40.5 22.5 -72.5 22.5h-5
c-25.333 0 -51.5 -4.33301 -78.5 -13s-53.167 -21.667 -78.5 -39l-51 88c32 20.667 66.333 37 103 49s74.334 18 113.001 18h9c63.333 0 113 -16.667 149 -50s54 -79.666 54 -138.999v-235c0 -18 1.83301 -36 5.5 -54s7.83398 -35.667 12.501 -53h-118
c-2.66699 7.33301 -5.16699 16.5 -7.5 27.5s-4.16602 21.833 -5.49902 32.5c-22 -22.667 -47.333 -40 -76 -52s-59 -18 -91 -18zM235.994 89.999c26.667 0 51.668 5.66699 75.001 17s43.666 27 60.999 47v87h-30c-64.667 0 -111.667 -6.5 -141 -19.5s-44 -33.5 -44 -61.5v-5
c0 -19.333 7.33301 -35 22 -47s33.667 -18 57 -18zM80.9951 659.999c12.667 22.667 29.5 40.001 50.5 52.001s43.5 18 67.5 18c15.333 0 29.833 -2.33301 43.5 -7s29.167 -10.667 46.5 -18c12 -6 24 -11.167 36 -15.5s24.667 -6.5 38 -6.5
c15.333 0 28.666 3.16699 39.999 9.5s20.666 15.166 27.999 26.499l42 -57c-13.333 -22.667 -30.333 -40 -51 -52s-42.667 -18 -66 -18c-14 0 -28 2.33301 -42 7s-30.333 11 -49 19c-13.333 6 -26 11 -38 15s-23.667 6 -35 6c-15.333 0 -29.166 -3.33301 -41.499 -10
s-22.166 -15.667 -29.499 -27z" />
    <glyph glyph-name="adieresis" unicode="&#xe4;" horiz-adv-x="558" 
d="M210 -10c-25.333 0 -48.6719 3.66602 -70.0049 10.999s-39.666 17.666 -54.999 30.999s-27.166 29.5 -35.499 48.5s-12.5 40.167 -12.5 63.5v9c0 56.667 24 98.834 72 126.501s122 41.5 222 41.5h41v23c0 26 -8.16699 46.5 -24.5 61.5s-40.5 22.5 -72.5 22.5h-5
c-25.333 0 -51.5 -4.33301 -78.5 -13s-53.167 -21.667 -78.5 -39l-51 88c32 20.667 66.333 37 103 49s74.334 18 113.001 18h9c63.333 0 113 -16.667 149 -50s54 -79.666 54 -138.999v-235c0 -18 1.83301 -36 5.5 -54s7.83398 -35.667 12.501 -53h-118
c-2.66699 7.33301 -5.16699 16.5 -7.5 27.5s-4.16602 21.833 -5.49902 32.5c-22 -22.667 -47.333 -40 -76 -52s-59 -18 -91 -18zM235.994 89.999c26.667 0 51.668 5.66699 75.001 17s43.666 27 60.999 47v87h-30c-64.667 0 -111.667 -6.5 -141 -19.5s-44 -33.5 -44 -61.5v-5
c0 -19.333 7.33301 -35 22 -47s33.667 -18 57 -18zM380.995 608.999c-19.333 0 -34.833 5.66699 -46.5 17s-17.5 26 -17.5 44s5.83301 32.833 17.5 44.5s27.167 17.5 46.5 17.5s35.333 -5.83301 48 -17.5s19 -26.5 19 -44.5s-6.33301 -32.667 -19 -44s-28.667 -17 -48 -17z
M172.995 608.999c-19.333 0 -35.166 5.66699 -47.499 17s-18.5 26 -18.5 44s6.16699 32.833 18.5 44.5s28.166 17.5 47.499 17.5c18 0 33.333 -5.83301 46 -17.5s19 -26.5 19 -44.5s-6.33301 -32.667 -19 -44s-28 -17 -46 -17z" />
    <glyph glyph-name="aring" unicode="&#xe5;" horiz-adv-x="558" 
d="M210 -10c-25.333 0 -48.6719 3.66602 -70.0049 10.999s-39.666 17.666 -54.999 30.999s-27.166 29.5 -35.499 48.5s-12.5 40.167 -12.5 63.5v9c0 56.667 24 98.834 72 126.501s122 41.5 222 41.5h41v23c0 26 -8.16699 46.5 -24.5 61.5s-40.5 22.5 -72.5 22.5h-5
c-25.333 0 -51.5 -4.33301 -78.5 -13s-53.167 -21.667 -78.5 -39l-51 88c32 20.667 66.333 37 103 49s74.334 18 113.001 18h9c63.333 0 113 -16.667 149 -50s54 -79.666 54 -138.999v-235c0 -18 1.83301 -36 5.5 -54s7.83398 -35.667 12.501 -53h-118
c-2.66699 7.33301 -5.16699 16.5 -7.5 27.5s-4.16602 21.833 -5.49902 32.5c-22 -22.667 -47.333 -40 -76 -52s-59 -18 -91 -18zM235.994 89.999c26.667 0 51.668 5.66699 75.001 17s43.666 27 60.999 47v87h-30c-64.667 0 -111.667 -6.5 -141 -19.5s-44 -33.5 -44 -61.5v-5
c0 -19.333 7.33301 -35 22 -47s33.667 -18 57 -18zM278.995 575.999c-30 0 -54.5 8.66699 -73.5 26s-28.5 39 -28.5 65c0 28 9.5 50.833 28.5 68.5s43.5 26.5 73.5 26.5c29.333 0 53.333 -8.83301 72 -26.5s28 -40.5 28 -68.5c0 -26 -9.33301 -47.667 -28 -65
s-42.667 -26 -72 -26zM277.995 630.999c11.333 0 20.666 3.5 27.999 10.5s11 15.833 11 26.5c0 11.333 -3.66699 20.666 -11 27.999s-16.666 11 -27.999 11s-20.666 -3.66699 -27.999 -11s-11 -16.666 -11 -27.999c0 -10.667 3.66699 -19.5 11 -26.5
s16.666 -10.5 27.999 -10.5z" />
    <glyph glyph-name="ae" unicode="&#xe6;" horiz-adv-x="879" 
d="M208 -9c-24.667 0 -47.501 3.66992 -68.501 11.0029s-39.167 17.666 -54.5 30.999s-27.166 29.5 -35.499 48.5s-12.5 39.833 -12.5 62.5c0 110 96.333 165 289 165h38v15.5c0 7 -0.333008 12.167 -1 15.5c-1.33301 28 -9.66602 49.5 -24.999 64.5s-38.333 22.5 -69 22.5
c-25.333 0 -51.5 -4.5 -78.5 -13.5s-52.833 -22.167 -77.5 -39.5l-51 89c32.667 21.333 67.167 37.666 103.5 48.999s73.166 17 110.499 17c34 0 64.5 -5.83301 91.5 -17.5s49.167 -29.167 66.5 -52.5c21.333 21.333 46.666 38.333 75.999 51s61.333 19 96 19h6
c34 0 65.333 -6 94 -18s53.334 -28.5 74.001 -49.5s36.834 -46.167 48.501 -75.5s17.5 -61.333 17.5 -96v-68h-368c4.66699 -38 19.334 -68.667 44.001 -92s56 -35 94 -35h4c28 0 54.667 6.16699 80 18.5s46 28.5 62 48.5l68 -75
c-24.667 -28.667 -56.334 -51.834 -95.001 -69.501s-78.334 -26.5 -119.001 -26.5h-9c-41.333 0 -78.5 7.66699 -111.5 23s-60.5 37 -82.5 65c-30 -30.667 -62.5 -53 -97.5 -67s-70.833 -21 -107.5 -21zM726.999 305.003v2c-2 38 -13.667 68.333 -35 91s-49 34 -83 34h-3
c-33.333 0 -60.833 -11.333 -82.5 -34s-35.5 -53.667 -41.5 -93h245zM369.999 157.003c-4 10.667 -6.99902 22.499 -8.99902 35.499s-3 25.167 -3 36.5h-21c-62 0 -107.5 -6.5 -136.5 -19.5s-43.5 -32.5 -43.5 -58.5c0 -18 7.16699 -32.5 21.5 -43.5
s34.166 -16.5 59.499 -16.5s49.833 5.83301 73.5 17.5s43.167 27.834 58.5 48.501z" />
    <glyph glyph-name="ccedilla" unicode="&#xe7;" horiz-adv-x="532" 
d="M288 -8c-37.333 0 -71.498 6.33301 -102.498 19s-57.5 30.167 -79.5 52.5s-39.167 49.166 -51.5 80.499s-18.5 65.666 -18.5 102.999v28c0 37.333 6.16699 71.333 18.5 102s29.666 57.334 51.999 80.001s48.666 40.167 78.999 52.5s63.5 18.5 99.5 18.5h8
c45.333 0 86.5 -10.167 123.5 -30.5s67.833 -50.166 92.5 -89.499l-90 -60c-29.333 53.333 -70.333 80 -123 80h-8c-38 0 -68 -13.833 -90 -41.5s-33 -66.167 -33 -115.5v-22c0 -48 11.667 -86 35 -114s54.333 -42 93 -42h9c49.333 0 89 27 119 81l90 -64
c-25.333 -38.667 -55.833 -68 -91.5 -88s-76.5 -30 -122.5 -30h-9zM250.002 -179c-16 0 -32.6631 2 -49.9961 6l9 67c3.33301 -1.33301 7.16602 -2.66602 11.499 -3.99902s8.83301 -2 13.5 -2c11.333 0 19.5 2.33301 24.5 7s7.5 10 7.5 16c0 8 -3.33301 15 -10 21
s-18 9 -34 9l24 60h71l-14 -31c15.333 -6 27.5 -14.5 36.5 -25.5s13.5 -24.833 13.5 -41.5c0 -10 -2.33301 -19.833 -7 -29.5s-11.334 -18.334 -20.001 -26.001s-19.334 -14 -32.001 -19s-27.334 -7.5 -44.001 -7.5z" />
    <glyph glyph-name="egrave" unicode="&#xe8;" horiz-adv-x="565" 
d="M291 -9c-38 0 -72.6709 6.16895 -104.004 18.502s-58.166 29.666 -80.499 51.999s-39.666 49.333 -51.999 81s-18.5 66.5 -18.5 104.5v20c0 38.667 6.16699 74.167 18.5 106.5s29.5 60 51.5 83s48.5 40.833 79.5 53.5s65.167 19 102.5 19h10
c34.667 0 66.334 -5.83301 95.001 -17.5s53.334 -28 74.001 -49s36.667 -46.333 48 -76s17 -62.167 17 -97.5v-67h-373v-1c3.33301 -38.667 17.5 -69.334 42.5 -92.001s57.5 -34 97.5 -34h10c31.333 0 58.5 6.33301 81.5 19s42.167 28.667 57.5 48l68 -75
c-24.667 -30 -55.667 -53.5 -93 -70.5s-77 -25.5 -119 -25.5h-13zM412.996 305.002l-0.000976562 3c-1.33301 38 -12.666 68.167 -33.999 90.5s-49 33.5 -83 33.5h-9c-34 0 -62 -11.167 -84 -33.5s-36 -53.5 -42 -93.5h252zM172.995 735.002h114l56 -154h-95z" />
    <glyph glyph-name="eacute" unicode="&#xe9;" horiz-adv-x="565" 
d="M291 -9c-38 0 -72.6709 6.16895 -104.004 18.502s-58.166 29.666 -80.499 51.999s-39.666 49.333 -51.999 81s-18.5 66.5 -18.5 104.5v20c0 38.667 6.16699 74.167 18.5 106.5s29.5 60 51.5 83s48.5 40.833 79.5 53.5s65.167 19 102.5 19h10
c34.667 0 66.334 -5.83301 95.001 -17.5s53.334 -28 74.001 -49s36.667 -46.333 48 -76s17 -62.167 17 -97.5v-67h-373v-1c3.33301 -38.667 17.5 -69.334 42.5 -92.001s57.5 -34 97.5 -34h10c31.333 0 58.5 6.33301 81.5 19s42.167 28.667 57.5 48l68 -75
c-24.667 -30 -55.667 -53.5 -93 -70.5s-77 -25.5 -119 -25.5h-13zM412.996 305.002l-0.000976562 3c-1.33301 38 -12.666 68.167 -33.999 90.5s-49 33.5 -83 33.5h-9c-34 0 -62 -11.167 -84 -33.5s-36 -53.5 -42 -93.5h252zM240.995 579.002l57 155h113l-75 -155h-95z" />
    <glyph glyph-name="ecircumflex" unicode="&#xea;" horiz-adv-x="565" 
d="M291 -9c-38 0 -72.6709 6.16895 -104.004 18.502s-58.166 29.666 -80.499 51.999s-39.666 49.333 -51.999 81s-18.5 66.5 -18.5 104.5v20c0 38.667 6.16699 74.167 18.5 106.5s29.5 60 51.5 83s48.5 40.833 79.5 53.5s65.167 19 102.5 19h10
c34.667 0 66.334 -5.83301 95.001 -17.5s53.334 -28 74.001 -49s36.667 -46.333 48 -76s17 -62.167 17 -97.5v-67h-373v-1c3.33301 -38.667 17.5 -69.334 42.5 -92.001s57.5 -34 97.5 -34h10c31.333 0 58.5 6.33301 81.5 19s42.167 28.667 57.5 48l68 -75
c-24.667 -30 -55.667 -53.5 -93 -70.5s-77 -25.5 -119 -25.5h-13zM412.996 305.002l-0.000976562 3c-1.33301 38 -12.666 68.167 -33.999 90.5s-49 33.5 -83 33.5h-9c-34 0 -62 -11.167 -84 -33.5s-36 -53.5 -42 -93.5h252zM363.995 592.002l-62 59h-18l-62 -59h-117
l118 128h140l118 -128h-117z" />
    <glyph glyph-name="edieresis" unicode="&#xeb;" horiz-adv-x="565" 
d="M291 -9c-38 0 -72.6709 6.16895 -104.004 18.502s-58.166 29.666 -80.499 51.999s-39.666 49.333 -51.999 81s-18.5 66.5 -18.5 104.5v20c0 38.667 6.16699 74.167 18.5 106.5s29.5 60 51.5 83s48.5 40.833 79.5 53.5s65.167 19 102.5 19h10
c34.667 0 66.334 -5.83301 95.001 -17.5s53.334 -28 74.001 -49s36.667 -46.333 48 -76s17 -62.167 17 -97.5v-67h-373v-1c3.33301 -38.667 17.5 -69.334 42.5 -92.001s57.5 -34 97.5 -34h10c31.333 0 58.5 6.33301 81.5 19s42.167 28.667 57.5 48l68 -75
c-24.667 -30 -55.667 -53.5 -93 -70.5s-77 -25.5 -119 -25.5h-13zM412.996 305.002l-0.000976562 3c-1.33301 38 -12.666 68.167 -33.999 90.5s-49 33.5 -83 33.5h-9c-34 0 -62 -11.167 -84 -33.5s-36 -53.5 -42 -93.5h252zM395.995 609.002
c-19.333 0 -34.833 5.66699 -46.5 17s-17.5 26 -17.5 44s5.83301 32.833 17.5 44.5s27.167 17.5 46.5 17.5s35.333 -5.83301 48 -17.5s19 -26.5 19 -44.5s-6.33301 -32.667 -19 -44s-28.667 -17 -48 -17zM187.995 609.002c-19.333 0 -35.166 5.66699 -47.499 17
s-18.5 26 -18.5 44s6.16699 32.833 18.5 44.5s28.166 17.5 47.499 17.5c18 0 33.333 -5.83301 46 -17.5s19 -26.5 19 -44.5s-6.33301 -32.667 -19 -44s-28 -17 -46 -17z" />
    <glyph glyph-name="igrave" unicode="&#xec;" horiz-adv-x="264" 
d="M70 520h124v-520h-124v520zM12 732h114l56 -154h-95z" />
    <glyph glyph-name="iacute" unicode="&#xed;" horiz-adv-x="264" 
d="M70 520h124v-520h-124v520zM80 576l57 155h113l-75 -155h-95z" />
    <glyph glyph-name="icircumflex" unicode="&#xee;" horiz-adv-x="264" 
d="M187 592l-46 59h-18l-45 -59h-115l102 128h135l102 -128h-115zM70 520h124v-520h-124v520z" />
    <glyph glyph-name="idieresis" unicode="&#xef;" horiz-adv-x="264" 
d="M209 606c-17.333 0 -31.666 5.66699 -42.999 17s-17 26 -17 44c0 18.667 5.66699 33.667 17 45s25.666 17 42.999 17s31.666 -5.66699 42.999 -17s17 -26.333 17 -45c0 -18 -5.66699 -32.667 -17 -44s-25.666 -17 -42.999 -17zM55 606
c-17.333 0 -31.666 5.66699 -42.999 17s-17 26 -17 44c0 18.667 5.66699 33.667 17 45s25.666 17 42.999 17s31.666 -5.66699 42.999 -17s17 -26.333 17 -45c0 -18 -5.66699 -32.667 -17 -44s-25.666 -17 -42.999 -17zM70 520h124v-520h-124v520z" />
    <glyph glyph-name="eth" unicode="&#xf0;" horiz-adv-x="586" 
d="M136 588l100.999 51.0039c-25.333 18.667 -55 35.667 -89 51l55 67c23.333 -10.667 45.333 -21.834 66 -33.501s40.667 -24.167 60 -37.5l116 59l35 -64l-88 -45c50 -46 89 -99 117 -159s42 -127.333 42 -202v-14c0 -40.667 -6.16699 -77.667 -18.5 -111
s-29.833 -61.666 -52.5 -84.999s-49.5 -41.5 -80.5 -54.5s-65.167 -19.5 -102.5 -19.5h-7c-37.333 0 -71.5 6.33301 -102.5 19s-57.833 30.167 -80.5 52.5s-40.167 49.166 -52.5 80.499s-18.5 65.666 -18.5 102.999v13c0 37.333 6 71.666 18 102.999s28.5 58.333 49.5 81
s45.5 40.167 73.5 52.5s58 18.5 90 18.5h7c20 0 39.333 -3 58 -9s36.334 -14.333 53.001 -25c-10.667 19.333 -23 38.166 -37 56.499s-30 35.833 -48 52.5l-129 -66zM295.999 89.0039c38 0 68.833 14.667 92.5 44s35.5 68 35.5 116v8c0 48.667 -11.833 87.667 -35.5 117
s-54.5 44 -92.5 44h-4c-38 0 -68.667 -14.667 -92 -44s-35 -68.333 -35 -117v-8c0 -48 11.667 -86.667 35 -116s54 -44 92 -44h4z" />
    <glyph glyph-name="ntilde" unicode="&#xf1;" horiz-adv-x="607" 
d="M71 520h98.001c3.33301 -10 6.33301 -22 9 -36s4.66699 -26.667 6 -38c21.333 26 47.5 46.5 78.5 61.5s64.5 22.5 100.5 22.5h6c57.333 0 101.166 -17 131.499 -51s45.5 -82.667 45.5 -146v-333h-124v307c0 76.667 -31.667 115 -95 115h-6c-38 0 -68.5 -12.5 -91.5 -37.5
s-34.5 -58.5 -34.5 -100.5v-284h-124v520zM108.001 660c12.667 22.667 29.5 40.001 50.5 52.001s43.5 18 67.5 18c15.333 0 29.833 -2.33301 43.5 -7s29.167 -10.667 46.5 -18c12 -6 24 -11.167 36 -15.5s24.667 -6.5 38 -6.5c15.333 0 28.666 3.16699 39.999 9.5
s20.666 15.166 27.999 26.499l42 -57c-13.333 -22.667 -30.333 -40 -51 -52s-42.667 -18 -66 -18c-14 0 -28 2.33301 -42 7s-30.333 11 -49 19c-13.333 6 -26 11 -38 15s-23.667 6 -35 6c-15.333 0 -29.166 -3.33301 -41.499 -10s-22.166 -15.667 -29.499 -27z" />
    <glyph glyph-name="ograve" unicode="&#xf2;" horiz-adv-x="593" 
d="M292 -9c-38 0 -72.667 6.16699 -104 18.5s-58.166 29.833 -80.499 52.5s-39.833 49.5 -52.5 80.5s-19 65.167 -19 102.5v30c0 37.333 6.33301 71.5 19 102.5s30.167 57.833 52.5 80.5s49.166 40.167 80.499 52.5s66 18.5 104 18.5h10c38 0 72.667 -6.16699 104 -18.5
s58.166 -29.833 80.499 -52.5s39.833 -49.5 52.5 -80.5s19 -65.167 19 -102.5v-30c0 -37.333 -6.33301 -71.5 -19 -102.5s-30.167 -57.833 -52.5 -80.5s-49.166 -40.167 -80.499 -52.5s-66 -18.5 -104 -18.5h-10zM301 90c39.333 0 70.5 14.667 93.5 44s34.5 68 34.5 116v24
c0 47.333 -11.667 85.166 -35 113.499s-54.333 42.5 -93 42.5h-8c-38.667 0 -69.667 -14.167 -93 -42.5s-35 -66.166 -35 -113.499v-24c0 -48 11.5 -86.667 34.5 -116s54.167 -44 93.5 -44h8zM177 735h114l56 -154h-95z" />
    <glyph glyph-name="oacute" unicode="&#xf3;" horiz-adv-x="593" 
d="M292 -9c-38 0 -72.667 6.16699 -104 18.5s-58.166 29.833 -80.499 52.5s-39.833 49.5 -52.5 80.5s-19 65.167 -19 102.5v30c0 37.333 6.33301 71.5 19 102.5s30.167 57.833 52.5 80.5s49.166 40.167 80.499 52.5s66 18.5 104 18.5h10c38 0 72.667 -6.16699 104 -18.5
s58.166 -29.833 80.499 -52.5s39.833 -49.5 52.5 -80.5s19 -65.167 19 -102.5v-30c0 -37.333 -6.33301 -71.5 -19 -102.5s-30.167 -57.833 -52.5 -80.5s-49.166 -40.167 -80.499 -52.5s-66 -18.5 -104 -18.5h-10zM301 90c39.333 0 70.5 14.667 93.5 44s34.5 68 34.5 116v24
c0 47.333 -11.667 85.166 -35 113.499s-54.333 42.5 -93 42.5h-8c-38.667 0 -69.667 -14.167 -93 -42.5s-35 -66.166 -35 -113.499v-24c0 -48 11.5 -86.667 34.5 -116s54.167 -44 93.5 -44h8zM244 579l57 155h113l-75 -155h-95z" />
    <glyph glyph-name="ocircumflex" unicode="&#xf4;" horiz-adv-x="593" 
d="M292 -9c-38 0 -72.667 6.16699 -104 18.5s-58.166 29.833 -80.499 52.5s-39.833 49.5 -52.5 80.5s-19 65.167 -19 102.5v30c0 37.333 6.33301 71.5 19 102.5s30.167 57.833 52.5 80.5s49.166 40.167 80.499 52.5s66 18.5 104 18.5h10c38 0 72.667 -6.16699 104 -18.5
s58.166 -29.833 80.499 -52.5s39.833 -49.5 52.5 -80.5s19 -65.167 19 -102.5v-30c0 -37.333 -6.33301 -71.5 -19 -102.5s-30.167 -57.833 -52.5 -80.5s-49.166 -40.167 -80.499 -52.5s-66 -18.5 -104 -18.5h-10zM301 90c39.333 0 70.5 14.667 93.5 44s34.5 68 34.5 116v24
c0 47.333 -11.667 85.166 -35 113.499s-54.333 42.5 -93 42.5h-8c-38.667 0 -69.667 -14.167 -93 -42.5s-35 -66.166 -35 -113.499v-24c0 -48 11.5 -86.667 34.5 -116s54.167 -44 93.5 -44h8zM367 592l-62 59h-18l-62 -59h-117l118 128h140l118 -128h-117z" />
    <glyph glyph-name="otilde" unicode="&#xf5;" horiz-adv-x="593" 
d="M292 -9c-38 0 -72.667 6.16699 -104 18.5s-58.166 29.833 -80.499 52.5s-39.833 49.5 -52.5 80.5s-19 65.167 -19 102.5v30c0 37.333 6.33301 71.5 19 102.5s30.167 57.833 52.5 80.5s49.166 40.167 80.499 52.5s66 18.5 104 18.5h10c38 0 72.667 -6.16699 104 -18.5
s58.166 -29.833 80.499 -52.5s39.833 -49.5 52.5 -80.5s19 -65.167 19 -102.5v-30c0 -37.333 -6.33301 -71.5 -19 -102.5s-30.167 -57.833 -52.5 -80.5s-49.166 -40.167 -80.499 -52.5s-66 -18.5 -104 -18.5h-10zM301 90c39.333 0 70.5 14.667 93.5 44s34.5 68 34.5 116v24
c0 47.333 -11.667 85.166 -35 113.499s-54.333 42.5 -93 42.5h-8c-38.667 0 -69.667 -14.167 -93 -42.5s-35 -66.166 -35 -113.499v-24c0 -48 11.5 -86.667 34.5 -116s54.167 -44 93.5 -44h8zM99 660c12.667 22.667 29.5 40.001 50.5 52.001s43.5 18 67.5 18
c15.333 0 29.833 -2.33301 43.5 -7s29.167 -10.667 46.5 -18c12 -6 24 -11.167 36 -15.5s24.667 -6.5 38 -6.5c15.333 0 28.666 3.16699 39.999 9.5s20.666 15.166 27.999 26.499l42 -57c-13.333 -22.667 -30.333 -40 -51 -52s-42.667 -18 -66 -18c-14 0 -28 2.33301 -42 7
s-30.333 11 -49 19c-13.333 6 -26 11 -38 15s-23.667 6 -35 6c-15.333 0 -29.166 -3.33301 -41.499 -10s-22.166 -15.667 -29.499 -27z" />
    <glyph glyph-name="odieresis" unicode="&#xf6;" horiz-adv-x="593" 
d="M292 -9c-38 0 -72.667 6.16699 -104 18.5s-58.166 29.833 -80.499 52.5s-39.833 49.5 -52.5 80.5s-19 65.167 -19 102.5v30c0 37.333 6.33301 71.5 19 102.5s30.167 57.833 52.5 80.5s49.166 40.167 80.499 52.5s66 18.5 104 18.5h10c38 0 72.667 -6.16699 104 -18.5
s58.166 -29.833 80.499 -52.5s39.833 -49.5 52.5 -80.5s19 -65.167 19 -102.5v-30c0 -37.333 -6.33301 -71.5 -19 -102.5s-30.167 -57.833 -52.5 -80.5s-49.166 -40.167 -80.499 -52.5s-66 -18.5 -104 -18.5h-10zM301 90c39.333 0 70.5 14.667 93.5 44s34.5 68 34.5 116v24
c0 47.333 -11.667 85.166 -35 113.499s-54.333 42.5 -93 42.5h-8c-38.667 0 -69.667 -14.167 -93 -42.5s-35 -66.166 -35 -113.499v-24c0 -48 11.5 -86.667 34.5 -116s54.167 -44 93.5 -44h8zM399 609c-19.333 0 -34.833 5.66699 -46.5 17s-17.5 26 -17.5 44
s5.83301 32.833 17.5 44.5s27.167 17.5 46.5 17.5s35.333 -5.83301 48 -17.5s19 -26.5 19 -44.5s-6.33301 -32.667 -19 -44s-28.667 -17 -48 -17zM191 609c-19.333 0 -35.166 5.66699 -47.499 17s-18.5 26 -18.5 44s6.16699 32.833 18.5 44.5s28.166 17.5 47.499 17.5
c18 0 33.333 -5.83301 46 -17.5s19 -26.5 19 -44.5s-6.33301 -32.667 -19 -44s-28 -17 -46 -17z" />
    <glyph glyph-name="divide" unicode="&#xf7;" horiz-adv-x="592" 
d="M295 440c-20.667 0 -38 6.83301 -52 20.5s-21 30.167 -21 49.5v4c0 19.333 7 35.5 21 48.5s31.333 19.5 52 19.5c20 0 37.333 -6.5 52 -19.5s22 -29.167 22 -48.5v-4c0 -19.333 -7.33301 -35.833 -22 -49.5s-32 -20.5 -52 -20.5zM46 377h500v-104h-500v104zM295 67
c-20.667 0 -38 6.83301 -52 20.5s-21 30.167 -21 49.5v4c0 19.333 7 35.666 21 48.999s31.333 20 52 20c20 0 37.5 -6.66699 52.5 -20s22.5 -29.666 22.5 -48.999v-4c0 -19.333 -7.5 -35.833 -22.5 -49.5s-32.5 -20.5 -52.5 -20.5z" />
    <glyph glyph-name="oslash" unicode="&#xf8;" horiz-adv-x="593" 
d="M123 47c-28 23.333 -49.499 51.667 -64.499 85s-22.5 71 -22.5 113v30c0 37.333 6.33301 71.5 19 102.5s30.167 57.833 52.5 80.5s49.166 40.167 80.499 52.5s66 18.5 104 18.5h10c34 0 65.333 -5 94 -15l27 46h98l-50 -88c27.333 -22.667 48.666 -50.667 63.999 -84
s23 -71 23 -113v-30c0 -37.333 -6.33301 -71.5 -19 -102.5s-30.167 -57.833 -52.5 -80.5s-49.166 -40.167 -80.499 -52.5s-66 -18.5 -104 -18.5h-10c-34 0 -65 5 -93 15l-29 -48h-98zM353.001 424.001c-8 3.33301 -16.332 5.83398 -24.999 7.50098s-17.667 2.5 -27 2.5h-10
c-40.667 0 -73.334 -14.667 -98.001 -44s-37 -68 -37 -116v-24c0 -44.667 10.333 -81.334 31 -110.001zM301.002 86.002c41.333 0 74.166 15.001 98.499 45.001s36.5 69.667 36.5 119v24c0 43.333 -9.66699 78.666 -29 105.999l-166 -284
c16.667 -6.66699 33.334 -10 50.001 -10h10z" />
    <glyph glyph-name="ugrave" unicode="&#xf9;" 
d="M236 -10c-57.333 0 -100.835 17.002 -130.502 51.002s-44.5 82.667 -44.5 146v333h124v-307c0 -38 7.33301 -66.667 22 -86s38.334 -29 71.001 -29h4c38 0 68.333 12.5 91 37.5s34 58.5 34 100.5v284h124v-520h-98c-3.33301 9.33301 -6.5 21.166 -9.5 35.499
s-4.83301 27.166 -5.5 38.499c-21.333 -26 -47.166 -46.5 -77.499 -61.5s-63.5 -22.5 -99.5 -22.5h-5zM174.998 735.002h114l56 -154h-95z" />
    <glyph glyph-name="uacute" unicode="&#xfa;" 
d="M236 -10c-57.333 0 -100.835 17.002 -130.502 51.002s-44.5 82.667 -44.5 146v333h124v-307c0 -38 7.33301 -66.667 22 -86s38.334 -29 71.001 -29h4c38 0 68.333 12.5 91 37.5s34 58.5 34 100.5v284h124v-520h-98c-3.33301 9.33301 -6.5 21.166 -9.5 35.499
s-4.83301 27.166 -5.5 38.499c-21.333 -26 -47.166 -46.5 -77.499 -61.5s-63.5 -22.5 -99.5 -22.5h-5zM242.998 579.002l57 155h113l-75 -155h-95z" />
    <glyph glyph-name="ucircumflex" unicode="&#xfb;" 
d="M236 -10c-57.333 0 -100.835 17.002 -130.502 51.002s-44.5 82.667 -44.5 146v333h124v-307c0 -38 7.33301 -66.667 22 -86s38.334 -29 71.001 -29h4c38 0 68.333 12.5 91 37.5s34 58.5 34 100.5v284h124v-520h-98c-3.33301 9.33301 -6.5 21.166 -9.5 35.499
s-4.83301 27.166 -5.5 38.499c-21.333 -26 -47.166 -46.5 -77.499 -61.5s-63.5 -22.5 -99.5 -22.5h-5zM365.998 592.002l-62 59h-18l-62 -59h-117l118 128h140l118 -128h-117z" />
    <glyph glyph-name="udieresis" unicode="&#xfc;" 
d="M236 -10c-57.333 0 -100.835 17.002 -130.502 51.002s-44.5 82.667 -44.5 146v333h124v-307c0 -38 7.33301 -66.667 22 -86s38.334 -29 71.001 -29h4c38 0 68.333 12.5 91 37.5s34 58.5 34 100.5v284h124v-520h-98c-3.33301 9.33301 -6.5 21.166 -9.5 35.499
s-4.83301 27.166 -5.5 38.499c-21.333 -26 -47.166 -46.5 -77.499 -61.5s-63.5 -22.5 -99.5 -22.5h-5zM397.998 609.002c-19.333 0 -34.833 5.66699 -46.5 17s-17.5 26 -17.5 44s5.83301 32.833 17.5 44.5s27.167 17.5 46.5 17.5s35.333 -5.83301 48 -17.5
s19 -26.5 19 -44.5s-6.33301 -32.667 -19 -44s-28.667 -17 -48 -17zM189.998 609.002c-19.333 0 -35.166 5.66699 -47.499 17s-18.5 26 -18.5 44s6.16699 32.833 18.5 44.5s28.166 17.5 47.499 17.5c18 0 33.333 -5.83301 46 -17.5s19 -26.5 19 -44.5
s-6.33301 -32.667 -19 -44s-28 -17 -46 -17z" />
    <glyph glyph-name="yacute" unicode="&#xfd;" horiz-adv-x="535" 
d="M147 -201c-14 0 -29.666 1.33301 -46.999 4s-33 7.66699 -47 15v106c24 -12.667 48 -19 72 -19c20.667 0 39.667 6.16699 57 18.5s31.666 30.5 42.999 54.5l-219 542h131l148 -399h7l115 399h125l-178 -546c-17.333 -54 -42.833 -96.667 -76.5 -128
s-77.167 -47 -130.5 -47zM220.001 579l57 155h113l-75 -155h-95z" />
    <glyph glyph-name="thorn" unicode="&#xfe;" horiz-adv-x="635" 
d="M70 720h124v-256c20.667 20.667 44.667 36.667 72 48s57 17 89 17h7c34 0 65.5 -6.5 94.5 -19.5s54 -30.833 75 -53.5s37.5 -49.5 49.5 -80.5s18 -64.5 18 -100.5v-30c0 -36 -6 -69.5 -18 -100.5s-28.5 -57.833 -49.5 -80.5s-46 -40.5 -75 -53.5s-60.5 -19.5 -94.5 -19.5
h-7c-32 0 -61.667 5.66699 -89 17s-51.333 27.333 -72 48v-246h-124v910zM336 96c40.667 0 73.167 14.167 97.5 42.5s36.5 65.166 36.5 110.499v22c0 45.333 -12.167 82.166 -36.5 110.499s-56.833 42.5 -97.5 42.5h-7c-40.667 0 -73.334 -14.167 -98.001 -42.5
s-37 -65.166 -37 -110.499v-22c0 -45.333 12.333 -82.166 37 -110.499s57.334 -42.5 98.001 -42.5h7z" />
    <glyph glyph-name="ydieresis" unicode="&#xff;" horiz-adv-x="535" 
d="M147 -201c-14 0 -29.666 1.33301 -46.999 4s-33 7.66699 -47 15v106c24 -12.667 48 -19 72 -19c20.667 0 39.667 6.16699 57 18.5s31.666 30.5 42.999 54.5l-219 542h131l148 -399h7l115 399h125l-178 -546c-17.333 -54 -42.833 -96.667 -76.5 -128
s-77.167 -47 -130.5 -47zM375.001 609c-19.333 0 -34.833 5.66699 -46.5 17s-17.5 26 -17.5 44s5.83301 32.833 17.5 44.5s27.167 17.5 46.5 17.5s35.333 -5.83301 48 -17.5s19 -26.5 19 -44.5s-6.33301 -32.667 -19 -44s-28.667 -17 -48 -17zM167.001 609
c-19.333 0 -35.166 5.66699 -47.499 17s-18.5 26 -18.5 44s6.16699 32.833 18.5 44.5s28.166 17.5 47.499 17.5c18 0 33.333 -5.83301 46 -17.5s19 -26.5 19 -44.5s-6.33301 -32.667 -19 -44s-28 -17 -46 -17z" />
    <glyph glyph-name="Amacron" unicode="&#x100;" horiz-adv-x="638" 
d="M233 700h172l236 -700h-140l-51 165h-262l-51 -165h-140zM418 273l-95 296h-8l-95 -296h198zM175 887h288v-88h-288v88z" />
    <glyph glyph-name="amacron" unicode="&#x101;" horiz-adv-x="558" 
d="M210 -10c-25.333 0 -48.6719 3.66602 -70.0049 10.999s-39.666 17.666 -54.999 30.999s-27.166 29.5 -35.499 48.5s-12.5 40.167 -12.5 63.5v9c0 56.667 24 98.834 72 126.501s122 41.5 222 41.5h41v23c0 26 -8.16699 46.5 -24.5 61.5s-40.5 22.5 -72.5 22.5h-5
c-25.333 0 -51.5 -4.33301 -78.5 -13s-53.167 -21.667 -78.5 -39l-51 88c32 20.667 66.333 37 103 49s74.334 18 113.001 18h9c63.333 0 113 -16.667 149 -50s54 -79.666 54 -138.999v-235c0 -18 1.83301 -36 5.5 -54s7.83398 -35.667 12.501 -53h-118
c-2.66699 7.33301 -5.16699 16.5 -7.5 27.5s-4.16602 21.833 -5.49902 32.5c-22 -22.667 -47.333 -40 -76 -52s-59 -18 -91 -18zM235.994 89.999c26.667 0 51.668 5.66699 75.001 17s43.666 27 60.999 47v87h-30c-64.667 0 -111.667 -6.5 -141 -19.5s-44 -33.5 -44 -61.5v-5
c0 -19.333 7.33301 -35 22 -47s33.667 -18 57 -18zM134.995 716.999h288v-92h-288v92z" />
    <glyph glyph-name="Abreve" unicode="&#x102;" horiz-adv-x="638" 
d="M233 700h172l236 -700h-140l-51 165h-262l-51 -165h-140zM418 273l-95 296h-8l-95 -296h198zM257 900c0 -18.667 5.50195 -33.502 16.502 -44.502s26.167 -16.5 45.5 -16.5s34.5 5.5 45.5 16.5s16.5 25.833 16.5 44.5h103c0 -43.333 -14.833 -78.166 -44.5 -104.499
s-69.834 -39.5 -120.501 -39.5c-24.667 0 -47.167 3.5 -67.5 10.5s-37.833 16.833 -52.5 29.5s-25.834 27.834 -33.501 45.501s-11.5 37.167 -11.5 58.5h103z" />
    <glyph glyph-name="abreve" unicode="&#x103;" horiz-adv-x="558" 
d="M210 -10c-25.333 0 -48.6719 3.66602 -70.0049 10.999s-39.666 17.666 -54.999 30.999s-27.166 29.5 -35.499 48.5s-12.5 40.167 -12.5 63.5v9c0 56.667 24 98.834 72 126.501s122 41.5 222 41.5h41v23c0 26 -8.16699 46.5 -24.5 61.5s-40.5 22.5 -72.5 22.5h-5
c-25.333 0 -51.5 -4.33301 -78.5 -13s-53.167 -21.667 -78.5 -39l-51 88c32 20.667 66.333 37 103 49s74.334 18 113.001 18h9c63.333 0 113 -16.667 149 -50s54 -79.666 54 -138.999v-235c0 -18 1.83301 -36 5.5 -54s7.83398 -35.667 12.501 -53h-118
c-2.66699 7.33301 -5.16699 16.5 -7.5 27.5s-4.16602 21.833 -5.49902 32.5c-22 -22.667 -47.333 -40 -76 -52s-59 -18 -91 -18zM235.994 89.999c26.667 0 51.668 5.66699 75.001 17s43.666 27 60.999 47v87h-30c-64.667 0 -111.667 -6.5 -141 -19.5s-44 -33.5 -44 -61.5v-5
c0 -19.333 7.33301 -35 22 -47s33.667 -18 57 -18zM215.995 719.999c0 -18.667 5.50098 -33.498 16.501 -44.498s26.167 -16.5 45.5 -16.5s34.333 5.5 45 16.5s16 25.833 16 44.5h104c0 -21.333 -3.83301 -40.833 -11.5 -58.5s-18.834 -32.834 -33.501 -45.501
s-32 -22.5 -52 -29.5s-42.667 -10.5 -68 -10.5c-50.667 0 -91 13.167 -121 39.5s-45 61.166 -45 104.499h104z" />
    <glyph glyph-name="Aogonek" unicode="&#x104;" horiz-adv-x="638" 
d="M233 700h172l236 -700h-140l-51 165h-262l-51 -165h-140zM418 273l-95 296h-8l-95 -296h198zM599 -179c-28 0 -50.1689 6.99902 -66.502 20.999s-24.5 33.667 -24.5 59c0 24.667 7.83301 48.834 23.5 72.501s36.834 44.5 63.501 62.5l46 -36
c-17.333 -17.333 -29.666 -32.166 -36.999 -44.499s-11 -24.833 -11 -37.5c0 -20 8.66699 -30 26 -30c3.33301 0 7 0.666992 11 2s7.66699 2.66602 11 3.99902v-67c-14 -4 -28 -6 -42 -6z" />
    <glyph glyph-name="aogonek" unicode="&#x105;" horiz-adv-x="558" 
d="M210 -10c-25.333 0 -48.6719 3.66602 -70.0049 10.999s-39.666 17.666 -54.999 30.999s-27.166 29.5 -35.499 48.5s-12.5 40.167 -12.5 63.5v9c0 56.667 24 98.834 72 126.501s122 41.5 222 41.5h41v23c0 26 -8.16699 46.5 -24.5 61.5s-40.5 22.5 -72.5 22.5h-5
c-25.333 0 -51.5 -4.33301 -78.5 -13s-53.167 -21.667 -78.5 -39l-51 88c32 20.667 66.333 37 103 49s74.334 18 113.001 18h9c63.333 0 113 -16.667 149 -50s54 -79.666 54 -138.999v-235c0 -18 1.83301 -36 5.5 -54s7.83398 -35.667 12.501 -53h-118
c-2.66699 7.33301 -5.16699 16.5 -7.5 27.5s-4.16602 21.833 -5.49902 32.5c-22 -22.667 -47.333 -40 -76 -52s-59 -18 -91 -18zM235.994 89.999c26.667 0 51.668 5.66699 75.001 17s43.666 27 60.999 47v87h-30c-64.667 0 -111.667 -6.5 -141 -19.5s-44 -33.5 -44 -61.5v-5
c0 -19.333 7.33301 -35 22 -47s33.667 -18 57 -18zM465.995 -179.001c-28 0 -50.1689 6.99902 -66.502 20.999s-24.5 33.667 -24.5 59c0 24.667 7.83301 48.834 23.5 72.501s36.834 44.5 63.501 62.5l46 -36c-17.333 -17.333 -29.666 -32.166 -36.999 -44.499
s-11 -24.833 -11 -37.5c0 -20 8.66699 -30 26 -30c3.33301 0 7 0.666992 11 2s7.66699 2.66602 11 3.99902v-67c-14 -4 -28 -6 -42 -6z" />
    <glyph glyph-name="Cacute" unicode="&#x106;" horiz-adv-x="671" 
d="M371 -11c-49.333 0 -94.332 8.49902 -134.999 25.499s-75.5 41 -104.5 72s-51.5 68.167 -67.5 111.5s-24 91 -24 143v19c0 51.333 8.16699 98.5 24.5 141.5s39 80 68 111s63.667 55.167 104 72.5s84.5 26 132.5 26h7c56 0 107.667 -13.167 155 -39.5
s85 -63.166 113 -110.499l-100 -71c-17.333 32 -39.833 57.167 -67.5 75.5s-60.167 27.5 -97.5 27.5h-9c-28.667 0 -55 -5.5 -79 -16.5s-44.5 -26.667 -61.5 -47s-30.167 -44.833 -39.5 -73.5s-14 -60.667 -14 -96v-20c0 -35.333 4.66699 -67.333 14 -96
s22.666 -53.167 39.999 -73.5s38 -36 62 -47s50.667 -16.5 80 -16.5h10c37.333 0 70 9.33301 98 28s50.667 43.667 68 75l97 -72c-28 -47.333 -65.167 -84 -111.5 -110s-97.833 -39 -154.5 -39h-8zM419.001 762.999h-97l53 147h119z" />
    <glyph glyph-name="cacute" unicode="&#x107;" horiz-adv-x="532" 
d="M288 -8c-37.333 0 -71.498 6.33301 -102.498 19s-57.5 30.167 -79.5 52.5s-39.167 49.166 -51.5 80.499s-18.5 65.666 -18.5 102.999v28c0 37.333 6.16699 71.333 18.5 102s29.666 57.334 51.999 80.001s48.666 40.167 78.999 52.5s63.5 18.5 99.5 18.5h8
c45.333 0 86.5 -10.167 123.5 -30.5s67.833 -50.166 92.5 -89.499l-90 -60c-29.333 53.333 -70.333 80 -123 80h-8c-38 0 -68 -13.833 -90 -41.5s-33 -66.167 -33 -115.5v-22c0 -48 11.667 -86 35 -114s54.333 -42 93 -42h9c49.333 0 89 27 119 81l90 -64
c-25.333 -38.667 -55.833 -68 -91.5 -88s-76.5 -30 -122.5 -30h-9zM238.002 579l57 155h113l-75 -155h-95z" />
    <glyph glyph-name="Ccircumflex" unicode="&#x108;" horiz-adv-x="671" 
d="M371 -11c-49.333 0 -94.332 8.49902 -134.999 25.499s-75.5 41 -104.5 72s-51.5 68.167 -67.5 111.5s-24 91 -24 143v19c0 51.333 8.16699 98.5 24.5 141.5s39 80 68 111s63.667 55.167 104 72.5s84.5 26 132.5 26h7c56 0 107.667 -13.167 155 -39.5
s85 -63.166 113 -110.499l-100 -71c-17.333 32 -39.833 57.167 -67.5 75.5s-60.167 27.5 -97.5 27.5h-9c-28.667 0 -55 -5.5 -79 -16.5s-44.5 -26.667 -61.5 -47s-30.167 -44.833 -39.5 -73.5s-14 -60.667 -14 -96v-20c0 -35.333 4.66699 -67.333 14 -96
s22.666 -53.167 39.999 -73.5s38 -36 62 -47s50.667 -16.5 80 -16.5h10c37.333 0 70 9.33301 98 28s50.667 43.667 68 75l97 -72c-28 -47.333 -65.167 -84 -111.5 -110s-97.833 -39 -154.5 -39h-8zM303.001 899.999h140l117 -126h-119l-59 57h-18l-59 -57h-119z" />
    <glyph glyph-name="ccircumflex" unicode="&#x109;" horiz-adv-x="532" 
d="M288 -8c-37.333 0 -71.498 6.33301 -102.498 19s-57.5 30.167 -79.5 52.5s-39.167 49.166 -51.5 80.499s-18.5 65.666 -18.5 102.999v28c0 37.333 6.16699 71.333 18.5 102s29.666 57.334 51.999 80.001s48.666 40.167 78.999 52.5s63.5 18.5 99.5 18.5h8
c45.333 0 86.5 -10.167 123.5 -30.5s67.833 -50.166 92.5 -89.499l-90 -60c-29.333 53.333 -70.333 80 -123 80h-8c-38 0 -68 -13.833 -90 -41.5s-33 -66.167 -33 -115.5v-22c0 -48 11.667 -86 35 -114s54.333 -42 93 -42h9c49.333 0 89 27 119 81l90 -64
c-25.333 -38.667 -55.833 -68 -91.5 -88s-76.5 -30 -122.5 -30h-9zM361.002 592l-62 59h-18l-62 -59h-117l118 128h140l118 -128h-117z" />
    <glyph glyph-name="Cdotaccent" unicode="&#x10a;" horiz-adv-x="671" 
d="M371 -11c-49.333 0 -94.332 8.49902 -134.999 25.499s-75.5 41 -104.5 72s-51.5 68.167 -67.5 111.5s-24 91 -24 143v19c0 51.333 8.16699 98.5 24.5 141.5s39 80 68 111s63.667 55.167 104 72.5s84.5 26 132.5 26h7c56 0 107.667 -13.167 155 -39.5
s85 -63.166 113 -110.499l-100 -71c-17.333 32 -39.833 57.167 -67.5 75.5s-60.167 27.5 -97.5 27.5h-9c-28.667 0 -55 -5.5 -79 -16.5s-44.5 -26.667 -61.5 -47s-30.167 -44.833 -39.5 -73.5s-14 -60.667 -14 -96v-20c0 -35.333 4.66699 -67.333 14 -96
s22.666 -53.167 39.999 -73.5s38 -36 62 -47s50.667 -16.5 80 -16.5h10c37.333 0 70 9.33301 98 28s50.667 43.667 68 75l97 -72c-28 -47.333 -65.167 -84 -111.5 -110s-97.833 -39 -154.5 -39h-8zM373.001 775.999c-21.333 0 -38.833 6.16699 -52.5 18.5
s-20.5 28.166 -20.5 47.499s6.83301 35.333 20.5 48s31.167 19 52.5 19s39 -6.33301 53 -19s21 -28.667 21 -48s-7 -35.166 -21 -47.499s-31.667 -18.5 -53 -18.5z" />
    <glyph glyph-name="cdotaccent" unicode="&#x10b;" horiz-adv-x="532" 
d="M288 -8c-37.333 0 -71.498 6.33301 -102.498 19s-57.5 30.167 -79.5 52.5s-39.167 49.166 -51.5 80.499s-18.5 65.666 -18.5 102.999v28c0 37.333 6.16699 71.333 18.5 102s29.666 57.334 51.999 80.001s48.666 40.167 78.999 52.5s63.5 18.5 99.5 18.5h8
c45.333 0 86.5 -10.167 123.5 -30.5s67.833 -50.166 92.5 -89.499l-90 -60c-29.333 53.333 -70.333 80 -123 80h-8c-38 0 -68 -13.833 -90 -41.5s-33 -66.167 -33 -115.5v-22c0 -48 11.667 -86 35 -114s54.333 -42 93 -42h9c49.333 0 89 27 119 81l90 -64
c-25.333 -38.667 -55.833 -68 -91.5 -88s-76.5 -30 -122.5 -30h-9zM290.002 604c-21.333 0 -38.833 6.16699 -52.5 18.5s-20.5 28.166 -20.5 47.499c0 20 6.83301 36.333 20.5 49s31.167 19 52.5 19c22 0 40.167 -6.33301 54.5 -19s21.5 -29 21.5 -49
c0 -19.333 -7.16699 -35.166 -21.5 -47.499s-32.5 -18.5 -54.5 -18.5z" />
    <glyph glyph-name="Ccaron" unicode="&#x10c;" horiz-adv-x="671" 
d="M371 -11c-49.333 0 -94.332 8.49902 -134.999 25.499s-75.5 41 -104.5 72s-51.5 68.167 -67.5 111.5s-24 91 -24 143v19c0 51.333 8.16699 98.5 24.5 141.5s39 80 68 111s63.667 55.167 104 72.5s84.5 26 132.5 26h7c56 0 107.667 -13.167 155 -39.5
s85 -63.166 113 -110.499l-100 -71c-17.333 32 -39.833 57.167 -67.5 75.5s-60.167 27.5 -97.5 27.5h-9c-28.667 0 -55 -5.5 -79 -16.5s-44.5 -26.667 -61.5 -47s-30.167 -44.833 -39.5 -73.5s-14 -60.667 -14 -96v-20c0 -35.333 4.66699 -67.333 14 -96
s22.666 -53.167 39.999 -73.5s38 -36 62 -47s50.667 -16.5 80 -16.5h10c37.333 0 70 9.33301 98 28s50.667 43.667 68 75l97 -72c-28 -47.333 -65.167 -84 -111.5 -110s-97.833 -39 -154.5 -39h-8zM187.001 899.999h119l59 -57h18l59 57h119l-117 -126h-140z" />
    <glyph glyph-name="ccaron" unicode="&#x10d;" horiz-adv-x="532" 
d="M288 -8c-37.333 0 -71.498 6.33301 -102.498 19s-57.5 30.167 -79.5 52.5s-39.167 49.166 -51.5 80.499s-18.5 65.666 -18.5 102.999v28c0 37.333 6.16699 71.333 18.5 102s29.666 57.334 51.999 80.001s48.666 40.167 78.999 52.5s63.5 18.5 99.5 18.5h8
c45.333 0 86.5 -10.167 123.5 -30.5s67.833 -50.166 92.5 -89.499l-90 -60c-29.333 53.333 -70.333 80 -123 80h-8c-38 0 -68 -13.833 -90 -41.5s-33 -66.167 -33 -115.5v-22c0 -48 11.667 -86 35 -114s54.333 -42 93 -42h9c49.333 0 89 27 119 81l90 -64
c-25.333 -38.667 -55.833 -68 -91.5 -88s-76.5 -30 -122.5 -30h-9zM93.002 720h117l62 -59h18l62 59h117l-118 -128h-140z" />
    <glyph glyph-name="Dcaron" unicode="&#x10e;" horiz-adv-x="701" 
d="M83 700l220 -0.00195312c54 0 103 -8 147 -24s81.667 -38.667 113 -68s55.5 -64.5 72.5 -105.5s25.5 -86.833 25.5 -137.5v-20c0 -51.333 -8.5 -98.166 -25.5 -140.499s-41.167 -78.666 -72.5 -108.999s-69 -53.833 -113 -70.5s-93 -25 -147 -25h-220v700zM304 115.998
c69.333 0 123.333 20.5 162 61.5s58 97.5 58 169.5v19c0 68 -19.333 121.333 -58 160s-92.667 58 -162 58h-91v-468h91zM154 896.998h119l59 -57h18l59 57h119l-117 -126h-140z" />
    <glyph glyph-name="dcaron" unicode="&#x10f;" horiz-adv-x="659" 
d="M267 -9c-34 0 -65.1689 6.17285 -93.502 18.5059s-52.666 29.666 -72.999 51.999s-36.166 49.166 -47.499 80.499s-17 65.666 -17 102.999v30c0 37.333 5.66699 71.666 17 102.999s27.166 58.166 47.499 80.499s44.666 39.666 72.999 51.999s59.5 18.5 93.5 18.5h8
c31.333 0 60 -5.16699 86 -15.5s48.667 -25.166 68 -44.499v251h124v-720h-98c-3.33301 7.33301 -6.16602 16.666 -8.49902 27.999s-4.16602 22.333 -5.49902 33c-20 -22 -44.167 -39.167 -72.5 -51.5s-59.5 -18.5 -93.5 -18.5h-8zM301.998 90.0059
c38.667 0 69.667 14.667 93 44s35 68 35 116v24c0 47.333 -11.833 85.166 -35.5 113.499s-54.5 42.5 -92.5 42.5h-9c-38.667 0 -69.667 -14.167 -93 -42.5s-35 -66.166 -35 -113.499v-24c0 -48.667 11.667 -87.5 35 -116.5s54.333 -43.5 93 -43.5h9zM628.998 720.006h107
l-37 -166h-80z" />
    <glyph glyph-name="Dcroat" unicode="&#x110;" horiz-adv-x="713" 
d="M95 299l-68 -0.00195312v116h68v285h220c54 0 103 -8 147 -24s81.833 -38.667 113.5 -68s56 -64.5 73 -105.5s25.5 -86.833 25.5 -137.5v-20c0 -51.333 -8.5 -98.166 -25.5 -140.499s-41.333 -78.666 -73 -108.999s-69.5 -53.833 -113.5 -70.5s-93 -25 -147 -25h-220v299
zM316 115.998c70 0 124.167 20.5 162.5 61.5s57.5 97.5 57.5 169.5v19c0 68 -19.333 121.333 -58 160s-92.667 58 -162 58h-90v-169h141v-116h-141v-183h90z" />
    <glyph glyph-name="dcroat" unicode="&#x111;" horiz-adv-x="619" 
d="M266 -9c-34 0 -65.166 6.17383 -93.499 18.5068s-52.5 29.666 -72.5 51.999s-35.667 49.166 -47 80.499s-17 65.666 -17 102.999v30c0 37.333 5.66699 71.666 17 102.999s27 58.166 47 80.499s44.167 39.666 72.5 51.999s59.5 18.5 93.5 18.5h9
c32 0 61.167 -5.33301 87.5 -16s49.166 -25.667 68.499 -45v117h-143v85h143v50h122v-50h57v-85h-57v-585h-99c-3.33301 7.33301 -6 16.666 -8 27.999s-3.66699 22.333 -5 33c-20.667 -22 -45.167 -39.167 -73.5 -51.5s-59.5 -18.5 -93.5 -18.5h-8zM301.001 96.0068
c39.333 0 70.5 14 93.5 42s34.5 65 34.5 111v22c0 46 -11.667 83 -35 111s-54.333 42 -93 42h-9c-38.667 0 -69.5 -14 -92.5 -42s-34.5 -65 -34.5 -111v-22c0 -46 11.5 -83 34.5 -111s53.833 -42 92.5 -42h9z" />
    <glyph glyph-name="Emacron" unicode="&#x112;" horiz-adv-x="559" 
d="M82 700h412v-116h-281v-175h261v-110h-261v-183h291v-116h-422v700zM150 887h288v-88h-288v88z" />
    <glyph glyph-name="emacron" unicode="&#x113;" horiz-adv-x="565" 
d="M291 -9c-38 0 -72.6709 6.16895 -104.004 18.502s-58.166 29.666 -80.499 51.999s-39.666 49.333 -51.999 81s-18.5 66.5 -18.5 104.5v20c0 38.667 6.16699 74.167 18.5 106.5s29.5 60 51.5 83s48.5 40.833 79.5 53.5s65.167 19 102.5 19h10
c34.667 0 66.334 -5.83301 95.001 -17.5s53.334 -28 74.001 -49s36.667 -46.333 48 -76s17 -62.167 17 -97.5v-67h-373v-1c3.33301 -38.667 17.5 -69.334 42.5 -92.001s57.5 -34 97.5 -34h10c31.333 0 58.5 6.33301 81.5 19s42.167 28.667 57.5 48l68 -75
c-24.667 -30 -55.667 -53.5 -93 -70.5s-77 -25.5 -119 -25.5h-13zM412.996 305.002l-0.000976562 3c-1.33301 38 -12.666 68.167 -33.999 90.5s-49 33.5 -83 33.5h-9c-34 0 -62 -11.167 -84 -33.5s-36 -53.5 -42 -93.5h252zM149.995 717.002h288v-92h-288v92z" />
    <glyph glyph-name="Ebreve" unicode="&#x114;" horiz-adv-x="559" 
d="M82 700h412v-116h-281v-175h261v-110h-261v-183h291v-116h-422v700zM232 900c0 -18.667 5.50195 -33.502 16.502 -44.502s26.167 -16.5 45.5 -16.5s34.5 5.5 45.5 16.5s16.5 25.833 16.5 44.5h103c0 -43.333 -14.833 -78.166 -44.5 -104.499
s-69.834 -39.5 -120.501 -39.5c-24.667 0 -47.167 3.5 -67.5 10.5s-37.833 16.833 -52.5 29.5s-25.834 27.834 -33.501 45.501s-11.5 37.167 -11.5 58.5h103z" />
    <glyph glyph-name="ebreve" unicode="&#x115;" horiz-adv-x="565" 
d="M291 -9c-38 0 -72.6709 6.16895 -104.004 18.502s-58.166 29.666 -80.499 51.999s-39.666 49.333 -51.999 81s-18.5 66.5 -18.5 104.5v20c0 38.667 6.16699 74.167 18.5 106.5s29.5 60 51.5 83s48.5 40.833 79.5 53.5s65.167 19 102.5 19h10
c34.667 0 66.334 -5.83301 95.001 -17.5s53.334 -28 74.001 -49s36.667 -46.333 48 -76s17 -62.167 17 -97.5v-67h-373v-1c3.33301 -38.667 17.5 -69.334 42.5 -92.001s57.5 -34 97.5 -34h10c31.333 0 58.5 6.33301 81.5 19s42.167 28.667 57.5 48l68 -75
c-24.667 -30 -55.667 -53.5 -93 -70.5s-77 -25.5 -119 -25.5h-13zM412.996 305.002l-0.000976562 3c-1.33301 38 -12.666 68.167 -33.999 90.5s-49 33.5 -83 33.5h-9c-34 0 -62 -11.167 -84 -33.5s-36 -53.5 -42 -93.5h252zM230.995 720.002
c0 -18.667 5.50098 -33.498 16.501 -44.498s26.167 -16.5 45.5 -16.5s34.333 5.5 45 16.5s16 25.833 16 44.5h104c0 -21.333 -3.83301 -40.833 -11.5 -58.5s-18.834 -32.834 -33.501 -45.501s-32 -22.5 -52 -29.5s-42.667 -10.5 -68 -10.5c-50.667 0 -91 13.167 -121 39.5
s-45 61.166 -45 104.499h104z" />
    <glyph glyph-name="Edotaccent" unicode="&#x116;" horiz-adv-x="559" 
d="M82 700h412v-116h-281v-175h261v-110h-261v-183h291v-116h-422v700zM294 776c-21.333 0 -38.833 6.16699 -52.5 18.5s-20.5 28.166 -20.5 47.499s6.83301 35.333 20.5 48s31.167 19 52.5 19s39 -6.33301 53 -19s21 -28.667 21 -48s-7 -35.166 -21 -47.499
s-31.667 -18.5 -53 -18.5z" />
    <glyph glyph-name="edotaccent" unicode="&#x117;" horiz-adv-x="565" 
d="M291 -9c-38 0 -72.6709 6.16895 -104.004 18.502s-58.166 29.666 -80.499 51.999s-39.666 49.333 -51.999 81s-18.5 66.5 -18.5 104.5v20c0 38.667 6.16699 74.167 18.5 106.5s29.5 60 51.5 83s48.5 40.833 79.5 53.5s65.167 19 102.5 19h10
c34.667 0 66.334 -5.83301 95.001 -17.5s53.334 -28 74.001 -49s36.667 -46.333 48 -76s17 -62.167 17 -97.5v-67h-373v-1c3.33301 -38.667 17.5 -69.334 42.5 -92.001s57.5 -34 97.5 -34h10c31.333 0 58.5 6.33301 81.5 19s42.167 28.667 57.5 48l68 -75
c-24.667 -30 -55.667 -53.5 -93 -70.5s-77 -25.5 -119 -25.5h-13zM412.996 305.002l-0.000976562 3c-1.33301 38 -12.666 68.167 -33.999 90.5s-49 33.5 -83 33.5h-9c-34 0 -62 -11.167 -84 -33.5s-36 -53.5 -42 -93.5h252zM292.995 604.002
c-21.333 0 -38.833 6.16699 -52.5 18.5s-20.5 28.166 -20.5 47.499c0 20 6.83301 36.333 20.5 49s31.167 19 52.5 19c22 0 40.167 -6.33301 54.5 -19s21.5 -29 21.5 -49c0 -19.333 -7.16699 -35.166 -21.5 -47.499s-32.5 -18.5 -54.5 -18.5z" />
    <glyph glyph-name="Eogonek" unicode="&#x118;" horiz-adv-x="559" 
d="M82 700h412v-116h-281v-175h261v-110h-261v-183h291v-116h-422v700zM462 -179c-28 0 -50.1689 6.99902 -66.502 20.999s-24.5 33.667 -24.5 59c0 24.667 7.83301 48.834 23.5 72.501s36.834 44.5 63.501 62.5l46 -36c-17.333 -17.333 -29.666 -32.166 -36.999 -44.499
s-11 -24.833 -11 -37.5c0 -20 8.66699 -30 26 -30c3.33301 0 7 0.666992 11 2s7.66699 2.66602 11 3.99902v-67c-14 -4 -28 -6 -42 -6z" />
    <glyph glyph-name="eogonek" unicode="&#x119;" horiz-adv-x="565" 
d="M516 87c-16 -19.333 -34.6689 -36.001 -56.002 -50.001s-44 -24.667 -68 -32c-20 -8 -37.167 -19.167 -51.5 -33.5s-21.5 -31.166 -21.5 -50.499c0 -22 8.66699 -33 26 -33c4 0 8 0.666992 12 2s7.66699 2.66602 11 3.99902v-67c-14 -4 -28 -6 -42 -6
c-28 0 -50.167 7 -66.5 21s-24.5 33.667 -24.5 59c0 15.333 3.33301 30.5 10 45.5s16 29.833 28 44.5c-36 2 -68.5 9.5 -97.5 22.5s-53.833 30.667 -74.5 53s-36.667 48.833 -48 79.5s-17 64.334 -17 101.001v20c0 38.667 6.16699 74.167 18.5 106.5s29.5 60 51.5 83
s48.5 40.833 79.5 53.5s65.167 19 102.5 19h10c34.667 0 66.334 -5.83301 95.001 -17.5s53.334 -28 74.001 -49s36.667 -46.333 48 -76s17 -62.167 17 -97.5v-67h-373c3.33301 -39.333 17.5 -70.333 42.5 -93s57.5 -34 97.5 -34h10c31.333 0 58.5 6.33301 81.5 19
s42.167 28.667 57.5 48zM412.998 304.999l-0.000976562 3c-1.33301 38 -12.666 68.167 -33.999 90.5s-49 33.5 -83 33.5h-9c-34 0 -62 -11.167 -84 -33.5s-36 -53.5 -42 -93.5h252z" />
    <glyph glyph-name="Ecaron" unicode="&#x11a;" horiz-adv-x="559" 
d="M82 700h412v-116h-281v-175h261v-110h-261v-183h291v-116h-422v700zM107 900h119l59 -57h18l59 57h119l-117 -126h-140z" />
    <glyph glyph-name="ecaron" unicode="&#x11b;" horiz-adv-x="565" 
d="M291 -9c-38 0 -72.6709 6.16895 -104.004 18.502s-58.166 29.666 -80.499 51.999s-39.666 49.333 -51.999 81s-18.5 66.5 -18.5 104.5v20c0 38.667 6.16699 74.167 18.5 106.5s29.5 60 51.5 83s48.5 40.833 79.5 53.5s65.167 19 102.5 19h10
c34.667 0 66.334 -5.83301 95.001 -17.5s53.334 -28 74.001 -49s36.667 -46.333 48 -76s17 -62.167 17 -97.5v-67h-373v-1c3.33301 -38.667 17.5 -69.334 42.5 -92.001s57.5 -34 97.5 -34h10c31.333 0 58.5 6.33301 81.5 19s42.167 28.667 57.5 48l68 -75
c-24.667 -30 -55.667 -53.5 -93 -70.5s-77 -25.5 -119 -25.5h-13zM412.996 305.002l-0.000976562 3c-1.33301 38 -12.666 68.167 -33.999 90.5s-49 33.5 -83 33.5h-9c-34 0 -62 -11.167 -84 -33.5s-36 -53.5 -42 -93.5h252zM99.9951 720.002h117l62 -59h18l62 59h117
l-118 -128h-140z" />
    <glyph glyph-name="Gcircumflex" unicode="&#x11c;" horiz-adv-x="725" 
d="M352 -10c-47.333 0 -90.168 8.33496 -128.501 25.002s-71.166 40.334 -98.499 71.001s-48.333 67.5 -63 110.5s-22 90.833 -22 143.5v19c0 52 8.16699 99.667 24.5 143s39 80.5 68 111.5s63.667 55 104 72s84.833 25.5 133.5 25.5h12c55.333 0 106.833 -13.5 154.5 -40.5
s86.167 -64.833 115.5 -113.5l-105 -67c-18 34 -40.833 60 -68.5 78s-59.834 27 -96.501 27h-10c-29.333 0 -56.166 -5.66699 -80.499 -17s-45 -27.333 -62 -48s-30.167 -45.334 -39.5 -74.001s-14 -60.667 -14 -96v-21c0 -35.333 4.66699 -67.333 14 -96
s22.666 -53.167 39.999 -73.5s38.333 -36 63 -47s52.334 -16.5 83.001 -16.5h10c23.333 0 45 3.66699 65 11s37.333 17.333 52 30s26 27.667 34 45s12 35.666 12 54.999v15h-156v110h277v-372h-95c-4 8 -7.5 19.5 -10.5 34.5s-5.16699 29.5 -6.5 43.5
c-8.66699 -12.667 -20 -24.334 -34 -35.001s-29.5 -20 -46.5 -28s-35.333 -14.167 -55 -18.5s-39.5 -6.5 -59.5 -6.5h-11zM312.998 900.002h140l117 -126h-119l-59 57h-18l-59 -57h-119z" />
    <glyph glyph-name="gcircumflex" unicode="&#x11d;" horiz-adv-x="542" 
d="M335 596l-58 55h-18l-59 -55h-118l116 124h140l115 -124h-118zM35 345c0 27.333 5.5 52.1689 16.5 74.502s26.167 41.666 45.5 57.999s42.5 29 69.5 38s56.5 13.5 88.5 13.5h25c38 0 73 -6.66699 105 -20c8.66699 24 18.667 44.333 30 61h113l-63 -121
c11.333 -14.667 20 -30.667 26 -48s9 -36 9 -56v-12c0 -26.667 -5.5 -51.334 -16.5 -74.001s-26.333 -42.167 -46 -58.5s-42.834 -29 -69.501 -38s-56 -13.5 -88 -13.5h-25h-10c-3.33301 0 -6.66602 0.333008 -9.99902 1v-51h23h35c34 0 65 -3.5 93 -10.5s52 -17 72 -30
s35.5 -28.667 46.5 -47s16.5 -38.833 16.5 -61.5v-9c0 -22.667 -5.66699 -43.167 -17 -61.5s-27 -34 -47 -47s-44 -23.167 -72 -30.5s-59 -11 -93 -11h-33c-34 0 -65 3.5 -93 10.5s-52 17 -72 30s-35.667 28.833 -47 47.5s-17 39.334 -17 62.001v12
c0 29.333 9.5 55.166 28.5 77.499s44.5 39.5 76.5 51.5v94c-30.667 16 -55 37.5 -73 64.5s-27 57.833 -27 92.5v12zM158 329.003c0 -28 9.83301 -50.167 29.5 -66.5s44.167 -24.5 73.5 -24.5h13c30 0 54.667 8.33301 74 25s29 38.667 29 66v15
c0 27.333 -9.66699 49.166 -29 65.499s-44 24.5 -74 24.5h-13c-29.333 0 -53.833 -8.16699 -73.5 -24.5s-29.5 -38.166 -29.5 -65.499v-15zM155 -52.9971c0 -19.333 9.33301 -34.668 28 -46.001s45.667 -17 81 -17h24c36 0 63.667 5.83301 83 17.5s29 26.834 29 45.501v8
c0 18.667 -9.66699 33.834 -29 45.501s-47 17.5 -83 17.5h-24c-35.333 0 -62.333 -5.83301 -81 -17.5s-28 -26.834 -28 -45.501v-8z" />
    <glyph glyph-name="Gbreve" unicode="&#x11e;" horiz-adv-x="725" 
d="M352 -10c-47.333 0 -90.168 8.33496 -128.501 25.002s-71.166 40.334 -98.499 71.001s-48.333 67.5 -63 110.5s-22 90.833 -22 143.5v19c0 52 8.16699 99.667 24.5 143s39 80.5 68 111.5s63.667 55 104 72s84.833 25.5 133.5 25.5h12c55.333 0 106.833 -13.5 154.5 -40.5
s86.167 -64.833 115.5 -113.5l-105 -67c-18 34 -40.833 60 -68.5 78s-59.834 27 -96.501 27h-10c-29.333 0 -56.166 -5.66699 -80.499 -17s-45 -27.333 -62 -48s-30.167 -45.334 -39.5 -74.001s-14 -60.667 -14 -96v-21c0 -35.333 4.66699 -67.333 14 -96
s22.666 -53.167 39.999 -73.5s38.333 -36 63 -47s52.334 -16.5 83.001 -16.5h10c23.333 0 45 3.66699 65 11s37.333 17.333 52 30s26 27.667 34 45s12 35.666 12 54.999v15h-156v110h277v-372h-95c-4 8 -7.5 19.5 -10.5 34.5s-5.16699 29.5 -6.5 43.5
c-8.66699 -12.667 -20 -24.334 -34 -35.001s-29.5 -20 -46.5 -28s-35.333 -14.167 -55 -18.5s-39.5 -6.5 -59.5 -6.5h-11zM320.998 900.002c0 -18.667 5.50195 -33.502 16.502 -44.502s26.167 -16.5 45.5 -16.5s34.5 5.5 45.5 16.5s16.5 25.833 16.5 44.5h103
c0 -43.333 -14.833 -78.166 -44.5 -104.499s-69.834 -39.5 -120.501 -39.5c-24.667 0 -47.167 3.5 -67.5 10.5s-37.833 16.833 -52.5 29.5s-25.834 27.834 -33.501 45.501s-11.5 37.167 -11.5 58.5h103z" />
    <glyph glyph-name="gbreve" unicode="&#x11f;" horiz-adv-x="542" 
d="M209 720c0 -17.333 5.33301 -31.333 16 -42s25 -16 43 -16s32.333 5.33301 43 16s16 24.667 16 42h103c0 -42 -14.5 -76 -43.5 -102s-68.5 -39 -118.5 -39s-89.5 13 -118.5 39s-43.5 60 -43.5 102h103zM35 345c0 27.333 5.5 52.168 16.5 74.501
s26.167 41.666 45.5 57.999s42.5 29 69.5 38s56.5 13.5 88.5 13.5h25c38 0 73 -6.66699 105 -20c4 12 8.5 23.333 13.5 34s10.833 20.334 17.5 29.001h113l-64 -123c11.333 -14.667 20 -30.667 26 -48s9 -36 9 -56v-12c0 -26.667 -5.5 -51.334 -16.5 -74.001
s-26.333 -42.167 -46 -58.5s-42.834 -29 -69.501 -38s-56 -13.5 -88 -13.5h-25h-10c-3.33301 0 -6.66602 0.333008 -9.99902 1v-51h23h35c34 0 65 -3.5 93 -10.5s52 -17 72 -30s35.5 -28.667 46.5 -47s16.5 -38.833 16.5 -61.5v-9c0 -22.667 -5.66699 -43.167 -17 -61.5
s-27 -34 -47 -47s-44 -23.167 -72 -30.5s-59 -11 -93 -11h-33c-34 0 -65 3.5 -93 10.5s-52 17 -72 30s-35.667 28.833 -47 47.5s-17 39.334 -17 62.001v12c0 29.333 9.5 55.166 28.5 77.499s44.5 39.5 76.5 51.5v94c-30.667 16 -55 37.5 -73 64.5s-27 57.833 -27 92.5v12z
M158 329.002c0 -28 9.83301 -50.167 29.5 -66.5s44.167 -24.5 73.5 -24.5h13c30 0 54.667 8.33301 74 25s29 38.667 29 66v15c0 27.333 -9.66699 49.166 -29 65.499s-44 24.5 -74 24.5h-13c-29.333 0 -53.833 -8.16699 -73.5 -24.5s-29.5 -38.166 -29.5 -65.499v-15z
M155 -52.998c0 -19.333 9.33301 -34.668 28 -46.001s45.667 -17 81 -17h24c36 0 63.667 5.83301 83 17.5s29 26.834 29 45.501v8c0 18.667 -9.66699 33.834 -29 45.501s-47 17.5 -83 17.5h-24c-35.333 0 -62.333 -5.83301 -81 -17.5s-28 -26.834 -28 -45.501v-8z" />
    <glyph glyph-name="Gdotaccent" unicode="&#x120;" horiz-adv-x="725" 
d="M352 -10c-47.333 0 -90.168 8.33496 -128.501 25.002s-71.166 40.334 -98.499 71.001s-48.333 67.5 -63 110.5s-22 90.833 -22 143.5v19c0 52 8.16699 99.667 24.5 143s39 80.5 68 111.5s63.667 55 104 72s84.833 25.5 133.5 25.5h12c55.333 0 106.833 -13.5 154.5 -40.5
s86.167 -64.833 115.5 -113.5l-105 -67c-18 34 -40.833 60 -68.5 78s-59.834 27 -96.501 27h-10c-29.333 0 -56.166 -5.66699 -80.499 -17s-45 -27.333 -62 -48s-30.167 -45.334 -39.5 -74.001s-14 -60.667 -14 -96v-21c0 -35.333 4.66699 -67.333 14 -96
s22.666 -53.167 39.999 -73.5s38.333 -36 63 -47s52.334 -16.5 83.001 -16.5h10c23.333 0 45 3.66699 65 11s37.333 17.333 52 30s26 27.667 34 45s12 35.666 12 54.999v15h-156v110h277v-372h-95c-4 8 -7.5 19.5 -10.5 34.5s-5.16699 29.5 -6.5 43.5
c-8.66699 -12.667 -20 -24.334 -34 -35.001s-29.5 -20 -46.5 -28s-35.333 -14.167 -55 -18.5s-39.5 -6.5 -59.5 -6.5h-11zM381.998 776.002c-21.333 0 -38.833 6.16699 -52.5 18.5s-20.5 28.166 -20.5 47.499s6.83301 35.333 20.5 48s31.167 19 52.5 19s39 -6.33301 53 -19
s21 -28.667 21 -48s-7 -35.166 -21 -47.499s-31.667 -18.5 -53 -18.5z" />
    <glyph glyph-name="gdotaccent" unicode="&#x121;" horiz-adv-x="542" 
d="M268 603c-22 0 -39.833 6.16699 -53.5 18.5s-20.5 28.5 -20.5 48.5c0 19.333 6.83301 35.5 20.5 48.5s31.5 19.5 53.5 19.5c21.333 0 39 -6.5 53 -19.5s21 -29.167 21 -48.5c0 -20 -7 -36.167 -21 -48.5s-31.667 -18.5 -53 -18.5zM35 345
c0 27.333 5.5 52.168 16.5 74.501s26.167 41.666 45.5 57.999s42.5 29 69.5 38s56.5 13.5 88.5 13.5h25c38 0 73 -6.66699 105 -20c4 12 8.5 23.333 13.5 34s10.833 20.334 17.5 29.001h113l-64 -123c11.333 -14.667 20 -30.667 26 -48s9 -36 9 -56v-12
c0 -26.667 -5.5 -51.334 -16.5 -74.001s-26.333 -42.167 -46 -58.5s-42.834 -29 -69.501 -38s-56 -13.5 -88 -13.5h-25h-10c-3.33301 0 -6.66602 0.333008 -9.99902 1v-51h23h35c34 0 65 -3.5 93 -10.5s52 -17 72 -30s35.5 -28.667 46.5 -47s16.5 -38.833 16.5 -61.5v-9
c0 -22.667 -5.66699 -43.167 -17 -61.5s-27 -34 -47 -47s-44 -23.167 -72 -30.5s-59 -11 -93 -11h-33c-34 0 -65 3.5 -93 10.5s-52 17 -72 30s-35.667 28.833 -47 47.5s-17 39.334 -17 62.001v12c0 29.333 9.5 55.166 28.5 77.499s44.5 39.5 76.5 51.5v94
c-30.667 16 -55 37.5 -73 64.5s-27 57.833 -27 92.5v12zM158 329.002c0 -28 9.83301 -50.167 29.5 -66.5s44.167 -24.5 73.5 -24.5h13c30 0 54.667 8.33301 74 25s29 38.667 29 66v15c0 27.333 -9.66699 49.166 -29 65.499s-44 24.5 -74 24.5h-13
c-29.333 0 -53.833 -8.16699 -73.5 -24.5s-29.5 -38.166 -29.5 -65.499v-15zM155 -52.998c0 -19.333 9.33301 -34.668 28 -46.001s45.667 -17 81 -17h24c36 0 63.667 5.83301 83 17.5s29 26.834 29 45.501v8c0 18.667 -9.66699 33.834 -29 45.501s-47 17.5 -83 17.5h-24
c-35.333 0 -62.333 -5.83301 -81 -17.5s-28 -26.834 -28 -45.501v-8z" />
    <glyph glyph-name="uni0122" unicode="&#x122;" horiz-adv-x="725" 
d="M352 -10c-47.333 0 -90.168 8.33496 -128.501 25.002s-71.166 40.334 -98.499 71.001s-48.333 67.5 -63 110.5s-22 90.833 -22 143.5v19c0 52 8.16699 99.667 24.5 143s39 80.5 68 111.5s63.667 55 104 72s84.833 25.5 133.5 25.5h12c55.333 0 106.833 -13.5 154.5 -40.5
s86.167 -64.833 115.5 -113.5l-105 -67c-18 34 -40.833 60 -68.5 78s-59.834 27 -96.501 27h-10c-29.333 0 -56.166 -5.66699 -80.499 -17s-45 -27.333 -62 -48s-30.167 -45.334 -39.5 -74.001s-14 -60.667 -14 -96v-21c0 -35.333 4.66699 -67.333 14 -96
s22.666 -53.167 39.999 -73.5s38.333 -36 63 -47s52.334 -16.5 83.001 -16.5h10c23.333 0 45 3.66699 65 11s37.333 17.333 52 30s26 27.667 34 45s12 35.666 12 54.999v15h-156v110h277v-372h-95c-4 8 -7.5 19.5 -10.5 34.5s-5.16699 29.5 -6.5 43.5
c-8.66699 -12.667 -20 -24.334 -34 -35.001s-29.5 -20 -46.5 -28s-35.333 -14.167 -55 -18.5s-39.5 -6.5 -59.5 -6.5h-11zM315.998 -44.998h107l-64 -151h-80z" />
    <glyph glyph-name="uni0123" unicode="&#x123;" horiz-adv-x="542" 
d="M315 715c-10.667 -5.33301 -19.001 -12.334 -25.001 -21.001s-9 -17.334 -9 -26.001c13.333 -1.33301 23.833 -6.66602 31.5 -15.999s11.5 -20.666 11.5 -33.999c0 -14.667 -5 -27.167 -15 -37.5s-24 -15.5 -42 -15.5c-19.333 0 -34.666 6.33301 -45.999 19
s-17 28.667 -17 48c0 20.667 6.33301 42 19 64s30.667 39.667 54 53zM34.999 344.999c0 27.333 5.5 52.168 16.5 74.501s26.167 41.666 45.5 57.999s42.5 29 69.5 38s56.5 13.5 88.5 13.5h25c38 0 73 -6.66699 105 -20c4 12 8.5 23.333 13.5 34s10.833 20.334 17.5 29.001
h113l-64 -123c11.333 -14.667 20 -30.667 26 -48s9 -36 9 -56v-12c0 -26.667 -5.5 -51.334 -16.5 -74.001s-26.333 -42.167 -46 -58.5s-42.834 -29 -69.501 -38s-56 -13.5 -88 -13.5h-25h-10c-3.33301 0 -6.66602 0.333008 -9.99902 1v-51h23h35c34 0 65 -3.5 93 -10.5
s52 -17 72 -30s35.5 -28.667 46.5 -47s16.5 -38.833 16.5 -61.5v-9c0 -22.667 -5.66699 -43.167 -17 -61.5s-27 -34 -47 -47s-44 -23.167 -72 -30.5s-59 -11 -93 -11h-33c-34 0 -65 3.5 -93 10.5s-52 17 -72 30s-35.667 28.833 -47 47.5s-17 39.334 -17 62.001v12
c0 29.333 9.5 55.166 28.5 77.499s44.5 39.5 76.5 51.5v94c-30.667 16 -55 37.5 -73 64.5s-27 57.833 -27 92.5v12zM157.999 329.001c0 -28 9.83301 -50.167 29.5 -66.5s44.167 -24.5 73.5 -24.5h13c30 0 54.667 8.33301 74 25s29 38.667 29 66v15
c0 27.333 -9.66699 49.166 -29 65.499s-44 24.5 -74 24.5h-13c-29.333 0 -53.833 -8.16699 -73.5 -24.5s-29.5 -38.166 -29.5 -65.499v-15zM154.999 -52.999c0 -19.333 9.33301 -34.668 28 -46.001s45.667 -17 81 -17h24c36 0 63.667 5.83301 83 17.5s29 26.834 29 45.501v8
c0 18.667 -9.66699 33.834 -29 45.501s-47 17.5 -83 17.5h-24c-35.333 0 -62.333 -5.83301 -81 -17.5s-28 -26.834 -28 -45.501v-8z" />
    <glyph glyph-name="Hcircumflex" unicode="&#x124;" horiz-adv-x="700" 
d="M83 700h130v-285h274v285h131v-700h-131v299h-274v-299h-130v700zM280 897h140l117 -126h-119l-59 57h-18l-59 -57h-119z" />
    <glyph glyph-name="hcircumflex" unicode="&#x125;" horiz-adv-x="606" 
d="M194 772l-52 59h-18l-52 -59h-116l108 128h138l108 -128h-116zM70 720h124v-264c22 23.333 48 41.5 78 54.5s62.333 19.5 97 19.5c56.667 0 100.167 -17.167 130.5 -51.5s45.5 -82.833 45.5 -145.5v-333h-124v307c0 76.667 -33 115 -99 115
c-40 0 -71.333 -11.833 -94 -35.5s-34 -56.5 -34 -98.5v-288h-124v720z" />
    <glyph glyph-name="Hbar" unicode="&#x126;" horiz-adv-x="700" 
d="M83 700h130v-93h274v93h131v-700h-131v299h-274v-299h-130v700zM487 415v100h-274v-100h274z" />
    <glyph glyph-name="hbar" unicode="&#x127;" horiz-adv-x="609" 
d="M72 583h-62.999v85h63v52h124v-52h141v-85h-141v-131c21.333 21.333 46.166 38 74.499 50s59.5 18 93.5 18h2c59.333 0 104.333 -17 135 -51s46 -82.667 46 -146v-323h-124v297c0 39.333 -7.66699 68.333 -23 87s-40 28 -74 28h-3c-38.667 0 -69.5 -11 -92.5 -33
s-34.5 -54.667 -34.5 -98v-281h-124v583z" />
    <glyph glyph-name="Itilde" unicode="&#x128;" horiz-adv-x="296" 
d="M82 700h131v-700h-131v700zM-49 839c12.667 22 29.4951 39.166 50.4951 51.499s43.833 18.5 68.5 18.5c14.667 0 28.834 -2.33301 42.501 -7s29.167 -10.667 46.5 -18c12.667 -6 25 -11.167 37 -15.5s24.667 -6.5 38 -6.5c30 0 52.667 12 68 36l41 -58
c-13.333 -22 -30.166 -39.167 -50.499 -51.5s-42.166 -18.5 -65.499 -18.5c-14.667 0 -29 2.33301 -43 7s-30.333 11.334 -49 20.001c-13.333 6 -26 11 -38 15s-23.667 6 -35 6c-15.333 0 -29.166 -3.33301 -41.499 -10s-22.166 -15.667 -29.499 -27z" />
    <glyph glyph-name="itilde" unicode="&#x129;" horiz-adv-x="264" 
d="M209 596c-15.333 0 -29.3359 2 -42.0029 6s-24.667 8.66699 -36 14c-11.333 4.66699 -22.166 8.66699 -32.499 12s-21.166 5 -32.499 5c-13.333 0 -25.666 -3 -36.999 -9s-20 -14.667 -26 -26l-51 65c12 18 27.167 31.667 45.5 41s38.5 14 60.5 14
c15.333 0 29.666 -2 42.999 -6s25.666 -8.66699 36.999 -14c10.667 -4.66699 20.834 -8.66699 30.501 -12s19.834 -5 30.501 -5c27.333 0 48 11.667 62 35l51 -64c-12 -18 -26.833 -31.833 -44.5 -41.5s-37.167 -14.5 -58.5 -14.5zM69.9971 520h124v-520h-124v520z" />
    <glyph glyph-name="Imacron" unicode="&#x12a;" horiz-adv-x="296" 
d="M82 700h131v-700h-131v700zM4 887h288v-88h-288v88z" />
    <glyph glyph-name="imacron" unicode="&#x12b;" horiz-adv-x="269" 
d="M5 708h259v-92h-259v92zM73 520h124v-520h-124v520z" />
    <glyph glyph-name="Ibreve" unicode="&#x12c;" horiz-adv-x="296" 
d="M82 700h131v-700h-131v700zM86 900c0 -18.667 5.50195 -33.502 16.502 -44.502s26.167 -16.5 45.5 -16.5s34.5 5.5 45.5 16.5s16.5 25.833 16.5 44.5h103c0 -43.333 -14.833 -78.166 -44.5 -104.499s-69.834 -39.5 -120.501 -39.5c-24.667 0 -47.167 3.5 -67.5 10.5
s-37.833 16.833 -52.5 29.5s-25.834 27.834 -33.501 45.501s-11.5 37.167 -11.5 58.5h103z" />
    <glyph glyph-name="ibreve" unicode="&#x12d;" horiz-adv-x="268" 
d="M134 662c15.333 0 27.333 5.33203 36 15.999s13 24.667 13 42h103c0 -42 -13.667 -76 -41 -102s-64.333 -39 -111 -39c-23.333 0 -44.333 3.33301 -63 10s-34.667 16.334 -48 29.001s-23.5 27.667 -30.5 45s-10.5 36.333 -10.5 57h102c0 -17.333 4.5 -31.333 13.5 -42
s21.167 -16 36.5 -16zM72 519.999h124v-520h-124v520z" />
    <glyph glyph-name="Iogonek" unicode="&#x12e;" horiz-adv-x="296" 
d="M82 700h131v-700h-131v700zM171 -179c-28 0 -50.1689 6.99902 -66.502 20.999s-24.5 33.667 -24.5 59c0 24.667 7.83301 48.834 23.5 72.501s36.834 44.5 63.501 62.5l46 -36c-17.333 -17.333 -29.666 -32.166 -36.999 -44.499s-11 -24.833 -11 -37.5
c0 -20 8.66699 -30 26 -30c3.33301 0 7 0.666992 11 2s7.66699 2.66602 11 3.99902v-67c-14 -4 -28 -6 -42 -6z" />
    <glyph glyph-name="iogonek" unicode="&#x12f;" horiz-adv-x="264" 
d="M131 601c-21.333 0 -38.666 6.16699 -51.999 18.5s-20 28.166 -20 47.499c0 20 6.66699 36.333 20 49s30.666 19 51.999 19c22 0 39.833 -6.33301 53.5 -19s20.5 -29 20.5 -49c0 -19.333 -6.83301 -35.166 -20.5 -47.499s-31.5 -18.5 -53.5 -18.5zM70 520h124v-520h-124
v520zM152 -179c-28 0 -50.1689 6.99902 -66.502 20.999s-24.5 33.667 -24.5 59c0 24.667 7.83301 48.834 23.5 72.501s36.834 44.5 63.501 62.5l46 -36c-17.333 -17.333 -29.666 -32.166 -36.999 -44.499s-11 -24.833 -11 -37.5c0 -20 8.66699 -30 26 -30
c3.33301 0 7 0.666992 11 2s7.66699 2.66602 11 3.99902v-67c-14 -4 -28 -6 -42 -6z" />
    <glyph glyph-name="Idotaccent" unicode="&#x130;" horiz-adv-x="296" 
d="M82 700h131v-700h-131v700zM148 776c-21.333 0 -38.833 6.16699 -52.5 18.5s-20.5 28.166 -20.5 47.499s6.83301 35.333 20.5 48s31.167 19 52.5 19s39 -6.33301 53 -19s21 -28.667 21 -48s-7 -35.166 -21 -47.499s-31.667 -18.5 -53 -18.5z" />
    <glyph glyph-name="dotlessi" unicode="&#x131;" horiz-adv-x="264" 
d="M70 520h124v-520h-124v520z" />
    <glyph glyph-name="IJ" unicode="&#x132;" horiz-adv-x="636" 
d="M387 -10c-36.667 0 -68.998 5.99902 -96.998 17.999v123c9.33301 -6 19.666 -11.167 30.999 -15.5s23.666 -6.5 36.999 -6.5c30 0 51.833 8.83301 65.5 26.5s20.5 41.5 20.5 71.5v493h130v-506c0 -65.333 -16 -115.666 -48 -150.999s-78.333 -53 -139 -53z
M82.002 699.999h130v-700h-130v700z" />
    <glyph glyph-name="ij" unicode="&#x133;" horiz-adv-x="544" 
d="M132 601c-21.333 0 -38.833 6.16699 -52.5 18.5s-20.5 28.166 -20.5 47.499c0 20 6.83301 36.333 20.5 49s31.167 19 52.5 19c22 0 40.167 -6.33301 54.5 -19s21.5 -29 21.5 -49c0 -19.333 -7.16699 -35.166 -21.5 -47.499s-32.5 -18.5 -54.5 -18.5zM409 601
c-21.333 0 -38.833 6.16699 -52.5 18.5s-20.5 28.166 -20.5 47.499c0 20 6.83301 36.333 20.5 49s31.167 19 52.5 19c22 0 40.167 -6.33301 54.5 -19s21.5 -29 21.5 -49c0 -19.333 -7.16699 -35.166 -21.5 -47.499s-32.5 -18.5 -54.5 -18.5zM326 -197
c-15.333 0 -31.833 1.33203 -49.5 3.99902s-34.167 7.33398 -49.5 14.001v104c17.333 -8 35.333 -12 54 -12c23.333 0 40.333 5.66699 51 17s16 32 16 62v528h124v-548c0 -54.667 -12.833 -96.5 -38.5 -125.5s-61.5 -43.5 -107.5 -43.5zM71 519.999h124v-520h-124v520z" />
    <glyph glyph-name="Jcircumflex" unicode="&#x134;" horiz-adv-x="396" 
d="M130 -10c-17.333 0 -34.165 1.49902 -50.498 4.49902s-31.5 7.5 -45.5 13.5v123c9.33301 -6 19.666 -11.167 30.999 -15.5s24 -6.5 38 -6.5c31.333 0 53.833 8.83301 67.5 26.5s20.5 41.5 20.5 71.5v493h131v-506c0 -65.333 -16.333 -115.666 -49 -150.999
s-80.334 -53 -143.001 -53zM186.001 897.999h140l117 -126h-119l-59 57h-18l-59 -57h-119z" />
    <glyph glyph-name="jcircumflex" unicode="&#x135;" horiz-adv-x="278" 
d="M198 592l-46 59h-18l-46 -59h-114l102 128h134l102 -128h-114zM61 -197c-15.333 0 -31.833 1.33203 -49.5 3.99902s-34.167 7.33398 -49.5 14.001v104c16 -8 34 -12 54 -12c23.333 0 40.333 5.66699 51 17s16 32 16 62v528h124v-548
c0 -54.667 -12.833 -96.5 -38.5 -125.5s-61.5 -43.5 -107.5 -43.5z" />
    <glyph glyph-name="uni0136" unicode="&#x136;" horiz-adv-x="643" 
d="M82 700h132v-298h6l244 298h152l-276 -322l300 -378h-161l-259 337h-6v-337h-132v700zM291 -38h107l-64 -151h-80z" />
    <glyph glyph-name="uni0137" unicode="&#x137;" horiz-adv-x="544" 
d="M70 720h124v-419h8l191 219h139l-219 -241l226 -279h-149l-188 246h-8v-246h-124v720zM237 -38h107l-64 -151h-80z" />
    <glyph glyph-name="kgreenlandic" unicode="&#x138;" horiz-adv-x="544" 
d="M70 520h124v-219h8l191 219h139l-219 -241l226 -279h-149l-188 246h-8v-246h-124v520z" />
    <glyph glyph-name="Lacute" unicode="&#x139;" horiz-adv-x="510" 
d="M82 700h131v-584h263v-116h-394v700zM194 760h-97l53 147h119z" />
    <glyph glyph-name="lacute" unicode="&#x13a;" horiz-adv-x="264" 
d="M70 720h124v-720h-124v720zM178 762h-97l53 147h119z" />
    <glyph glyph-name="uni013B" unicode="&#x13b;" horiz-adv-x="510" 
d="M82 700h131v-584h263v-116h-394v700zM230 -38h107l-64 -151h-80z" />
    <glyph glyph-name="uni013C" unicode="&#x13c;" horiz-adv-x="264" 
d="M70 720h124v-720h-124v720zM82 -38h107l-64 -151h-80z" />
    <glyph glyph-name="Lcaron" unicode="&#x13d;" horiz-adv-x="510" 
d="M82 700h131v-584h263v-116h-394v700zM316 700h107l-37 -166h-80z" />
    <glyph glyph-name="lcaron" unicode="&#x13e;" horiz-adv-x="300" 
d="M70 720h124v-720h-124v720zM270 720h107l-37 -166h-80z" />
    <glyph glyph-name="Ldot" unicode="&#x13f;" horiz-adv-x="523" 
d="M82 700h131v-584h263v-116h-394v700zM385 301c-21.333 0 -38.833 6.16699 -52.5 18.5s-20.5 28.5 -20.5 48.5s6.83301 36.333 20.5 49s31.167 19 52.5 19c22 0 40.167 -6.33301 54.5 -19s21.5 -29 21.5 -49s-7.16699 -36.167 -21.5 -48.5s-32.5 -18.5 -54.5 -18.5z" />
    <glyph glyph-name="ldot" unicode="&#x140;" horiz-adv-x="403" 
d="M67 720h124v-720h-124v720zM327 301c-21.333 0 -38.833 6.16699 -52.5 18.5s-20.5 28.5 -20.5 48.5s6.83301 36.333 20.5 49s31.167 19 52.5 19c22 0 40.167 -6.33301 54.5 -19s21.5 -29 21.5 -49s-7.16699 -36.167 -21.5 -48.5s-32.5 -18.5 -54.5 -18.5z" />
    <glyph glyph-name="Lslash" unicode="&#x141;" horiz-adv-x="520" 
d="M18 372l75 27v301h131v-253l136 49v-103l-136 -49v-228h263v-116h-394v297l-75 -28v103z" />
    <glyph glyph-name="lslash" unicode="&#x142;" horiz-adv-x="346" 
d="M30 352l81 42v326h124v-262l81 41v-97l-81 -41v-361h-124v297l-81 -42v97z" />
    <glyph glyph-name="Nacute" unicode="&#x143;" horiz-adv-x="717" 
d="M82 700h147l274 -497h4v497h127v-700h-131l-287 521h-6v-521h-128v700zM404 762h-97l53 147h119z" />
    <glyph glyph-name="nacute" unicode="&#x144;" horiz-adv-x="607" 
d="M71 520h98.001c3.33301 -10 6.33301 -22 9 -36s4.66699 -26.667 6 -38c21.333 26 47.5 46.5 78.5 61.5s64.5 22.5 100.5 22.5h6c57.333 0 101.166 -17 131.499 -51s45.5 -82.667 45.5 -146v-333h-124v307c0 76.667 -31.667 115 -95 115h-6c-38 0 -68.5 -12.5 -91.5 -37.5
s-34.5 -58.5 -34.5 -100.5v-284h-124v520zM254.001 579l57 155h113l-75 -155h-95z" />
    <glyph glyph-name="uni0145" unicode="&#x145;" horiz-adv-x="717" 
d="M82 700h147l274 -497h4v497h127v-700h-131l-287 521h-6v-521h-128v700zM309 -38h107l-64 -151h-80z" />
    <glyph glyph-name="uni0146" unicode="&#x146;" horiz-adv-x="607" 
d="M71 520h98.001c3.33301 -10 6.33301 -22 9 -36s4.66699 -26.667 6 -38c21.333 26 47.5 46.5 78.5 61.5s64.5 22.5 100.5 22.5h6c57.333 0 101.166 -17 131.499 -51s45.5 -82.667 45.5 -146v-333h-124v307c0 76.667 -31.667 115 -95 115h-6c-38 0 -68.5 -12.5 -91.5 -37.5
s-34.5 -58.5 -34.5 -100.5v-284h-124v520zM258.001 -38h107l-64 -151h-80z" />
    <glyph glyph-name="Ncaron" unicode="&#x147;" horiz-adv-x="717" 
d="M82 700h147l274 -497h4v497h127v-700h-131l-287 521h-6v-521h-128v700zM172 899h119l59 -57h18l59 57h119l-117 -126h-140z" />
    <glyph glyph-name="ncaron" unicode="&#x148;" horiz-adv-x="607" 
d="M71 520h98.001c3.33301 -10 6.33301 -22 9 -36s4.66699 -26.667 6 -38c21.333 26 47.5 46.5 78.5 61.5s64.5 22.5 100.5 22.5h6c57.333 0 101.166 -17 131.499 -51s45.5 -82.667 45.5 -146v-333h-124v307c0 76.667 -31.667 115 -95 115h-6c-38 0 -68.5 -12.5 -91.5 -37.5
s-34.5 -58.5 -34.5 -100.5v-284h-124v520zM118.001 720h117l62 -59h18l62 59h117l-118 -128h-140z" />
    <glyph glyph-name="napostrophe" unicode="&#x149;" horiz-adv-x="719" 
d="M183 520h98.001c3.33301 -10 6.33301 -22 9 -36s4.66699 -26.667 6 -38c21.333 26 47.5 46.5 78.5 61.5s64.5 22.5 100.5 22.5h6c57.333 0 101.166 -17 131.499 -51s45.5 -82.667 45.5 -146v-333h-124v307c0 76.667 -31.667 115 -95 115h-6
c-38 0 -68.5 -12.5 -91.5 -37.5s-34.5 -58.5 -34.5 -100.5v-284h-124v520zM90.001 700h121l-110 -281h-97z" />
    <glyph glyph-name="Eng" unicode="&#x14a;" horiz-adv-x="727" 
d="M458 -197c-36 0 -68.334 5.66699 -97.001 17v125c18.667 -14.667 41.334 -22 68.001 -22c27.333 0 47.5 7 60.5 21s20.833 33.333 23.5 58l-294 496h-7v-498h-130v700h147l278 -471h7v471h131v-700c0 -63.333 -16.167 -112 -48.5 -146s-78.5 -51 -138.5 -51z" />
    <glyph glyph-name="eng" unicode="&#x14b;" horiz-adv-x="616" 
d="M398 -197c-15.333 0 -31.6689 1.33203 -49.002 3.99902s-33.666 7.33398 -48.999 14.001v104c16 -8 34 -12 54 -12c23.333 0 40.5 5.66699 51.5 17s16.5 32 16.5 62v315c0 38 -7.66699 66.667 -23 86s-39.666 29 -72.999 29h-5c-38 0 -68.5 -12.5 -91.5 -37.5
s-34.5 -58.5 -34.5 -100.5v-284h-124v520h98c3.33301 -10 6.33301 -22 9 -36s4.66699 -26.667 6 -38c21.333 26 47.5 46.5 78.5 61.5s64.5 22.5 100.5 22.5h5c58 0 102.167 -17 132.5 -51s45.5 -82.667 45.5 -146v-361c0 -54.667 -13.167 -96.5 -39.5 -125.5
s-62.5 -43.5 -108.5 -43.5z" />
    <glyph glyph-name="Omacron" unicode="&#x14c;" horiz-adv-x="756" 
d="M40 360c0 53.333 8.16699 101.5 24.5 144.5s39.166 80 68.499 111s64.333 54.833 105 71.5s85.334 25 134.001 25h12c48.667 0 93.334 -8.33301 134.001 -25s75.667 -40.5 105 -71.5s52.166 -68 68.499 -111s24.5 -91.167 24.5 -144.5v-20
c0 -52.667 -8.16699 -100.667 -24.5 -144s-39.166 -80.5 -68.499 -111.5s-64.333 -54.833 -105 -71.5s-85.334 -25 -134.001 -25h-12c-48.667 0 -93.334 8.5 -134.001 25.5s-75.667 41 -105 72s-52.166 68 -68.499 111s-24.5 90.833 -24.5 143.5v20zM176 340
c0 -36 5 -68.5 15 -97.5s23.667 -53.667 41 -74s38 -36 62 -47s50.333 -16.5 79 -16.5h10c28.667 0 55 5.5 79 16.5s44.833 26.667 62.5 47s31.334 45 41.001 74s14.5 61.5 14.5 97.5v20c0 36 -4.83301 68.5 -14.5 97.5s-23.334 53.667 -41.001 74s-38.5 36 -62.5 47
s-50.333 16.5 -79 16.5h-10c-28.667 0 -55 -5.5 -79 -16.5s-44.667 -26.667 -62 -47s-31 -45 -41 -74s-15 -61.5 -15 -97.5v-20zM234 887h288v-88h-288v88z" />
    <glyph glyph-name="omacron" unicode="&#x14d;" horiz-adv-x="593" 
d="M292 -9c-38 0 -72.667 6.16699 -104 18.5s-58.166 29.833 -80.499 52.5s-39.833 49.5 -52.5 80.5s-19 65.167 -19 102.5v30c0 37.333 6.33301 71.5 19 102.5s30.167 57.833 52.5 80.5s49.166 40.167 80.499 52.5s66 18.5 104 18.5h10c38 0 72.667 -6.16699 104 -18.5
s58.166 -29.833 80.499 -52.5s39.833 -49.5 52.5 -80.5s19 -65.167 19 -102.5v-30c0 -37.333 -6.33301 -71.5 -19 -102.5s-30.167 -57.833 -52.5 -80.5s-49.166 -40.167 -80.499 -52.5s-66 -18.5 -104 -18.5h-10zM301 90c39.333 0 70.5 14.667 93.5 44s34.5 68 34.5 116v24
c0 47.333 -11.667 85.166 -35 113.499s-54.333 42.5 -93 42.5h-8c-38.667 0 -69.667 -14.167 -93 -42.5s-35 -66.166 -35 -113.499v-24c0 -48 11.5 -86.667 34.5 -116s54.167 -44 93.5 -44h8zM153 717h288v-92h-288v92z" />
    <glyph glyph-name="Obreve" unicode="&#x14e;" horiz-adv-x="756" 
d="M40 360c0 53.333 8.16699 101.5 24.5 144.5s39.166 80 68.499 111s64.333 54.833 105 71.5s85.334 25 134.001 25h12c48.667 0 93.334 -8.33301 134.001 -25s75.667 -40.5 105 -71.5s52.166 -68 68.499 -111s24.5 -91.167 24.5 -144.5v-20
c0 -52.667 -8.16699 -100.667 -24.5 -144s-39.166 -80.5 -68.499 -111.5s-64.333 -54.833 -105 -71.5s-85.334 -25 -134.001 -25h-12c-48.667 0 -93.334 8.5 -134.001 25.5s-75.667 41 -105 72s-52.166 68 -68.499 111s-24.5 90.833 -24.5 143.5v20zM176 340
c0 -36 5 -68.5 15 -97.5s23.667 -53.667 41 -74s38 -36 62 -47s50.333 -16.5 79 -16.5h10c28.667 0 55 5.5 79 16.5s44.833 26.667 62.5 47s31.334 45 41.001 74s14.5 61.5 14.5 97.5v20c0 36 -4.83301 68.5 -14.5 97.5s-23.334 53.667 -41.001 74s-38.5 36 -62.5 47
s-50.333 16.5 -79 16.5h-10c-28.667 0 -55 -5.5 -79 -16.5s-44.667 -26.667 -62 -47s-31 -45 -41 -74s-15 -61.5 -15 -97.5v-20zM316 900c0 -18.667 5.50195 -33.502 16.502 -44.502s26.167 -16.5 45.5 -16.5s34.5 5.5 45.5 16.5s16.5 25.833 16.5 44.5h103
c0 -43.333 -14.833 -78.166 -44.5 -104.499s-69.834 -39.5 -120.501 -39.5c-24.667 0 -47.167 3.5 -67.5 10.5s-37.833 16.833 -52.5 29.5s-25.834 27.834 -33.501 45.501s-11.5 37.167 -11.5 58.5h103z" />
    <glyph glyph-name="obreve" unicode="&#x14f;" horiz-adv-x="593" 
d="M292 -9c-38 0 -72.667 6.16699 -104 18.5s-58.166 29.833 -80.499 52.5s-39.833 49.5 -52.5 80.5s-19 65.167 -19 102.5v30c0 37.333 6.33301 71.5 19 102.5s30.167 57.833 52.5 80.5s49.166 40.167 80.499 52.5s66 18.5 104 18.5h10c38 0 72.667 -6.16699 104 -18.5
s58.166 -29.833 80.499 -52.5s39.833 -49.5 52.5 -80.5s19 -65.167 19 -102.5v-30c0 -37.333 -6.33301 -71.5 -19 -102.5s-30.167 -57.833 -52.5 -80.5s-49.166 -40.167 -80.499 -52.5s-66 -18.5 -104 -18.5h-10zM301 90c39.333 0 70.5 14.667 93.5 44s34.5 68 34.5 116v24
c0 47.333 -11.667 85.166 -35 113.499s-54.333 42.5 -93 42.5h-8c-38.667 0 -69.667 -14.167 -93 -42.5s-35 -66.166 -35 -113.499v-24c0 -48 11.5 -86.667 34.5 -116s54.167 -44 93.5 -44h8zM234 720c0 -18.667 5.50098 -33.498 16.501 -44.498s26.167 -16.5 45.5 -16.5
s34.333 5.5 45 16.5s16 25.833 16 44.5h104c0 -21.333 -3.83301 -40.833 -11.5 -58.5s-18.834 -32.834 -33.501 -45.501s-32 -22.5 -52 -29.5s-42.667 -10.5 -68 -10.5c-50.667 0 -91 13.167 -121 39.5s-45 61.166 -45 104.499h104z" />
    <glyph glyph-name="Ohungarumlaut" unicode="&#x150;" horiz-adv-x="756" 
d="M40 360c0 53.333 8.16699 101.5 24.5 144.5s39.166 80 68.499 111s64.333 54.833 105 71.5s85.334 25 134.001 25h12c48.667 0 93.334 -8.33301 134.001 -25s75.667 -40.5 105 -71.5s52.166 -68 68.499 -111s24.5 -91.167 24.5 -144.5v-20
c0 -52.667 -8.16699 -100.667 -24.5 -144s-39.166 -80.5 -68.499 -111.5s-64.333 -54.833 -105 -71.5s-85.334 -25 -134.001 -25h-12c-48.667 0 -93.334 8.5 -134.001 25.5s-75.667 41 -105 72s-52.166 68 -68.499 111s-24.5 90.833 -24.5 143.5v20zM176 340
c0 -36 5 -68.5 15 -97.5s23.667 -53.667 41 -74s38 -36 62 -47s50.333 -16.5 79 -16.5h10c28.667 0 55 5.5 79 16.5s44.833 26.667 62.5 47s31.334 45 41.001 74s14.5 61.5 14.5 97.5v20c0 36 -4.83301 68.5 -14.5 97.5s-23.334 53.667 -41.001 74s-38.5 36 -62.5 47
s-50.333 16.5 -79 16.5h-10c-28.667 0 -55 -5.5 -79 -16.5s-44.667 -26.667 -62 -47s-31 -45 -41 -74s-15 -61.5 -15 -97.5v-20zM242 759l52 147h119l-71 -147h-100zM410 759l53 147h119l-71 -147h-101z" />
    <glyph glyph-name="ohungarumlaut" unicode="&#x151;" horiz-adv-x="593" 
d="M292 -9c-38 0 -72.667 6.16699 -104 18.5s-58.166 29.833 -80.499 52.5s-39.833 49.5 -52.5 80.5s-19 65.167 -19 102.5v30c0 37.333 6.33301 71.5 19 102.5s30.167 57.833 52.5 80.5s49.166 40.167 80.499 52.5s66 18.5 104 18.5h10c38 0 72.667 -6.16699 104 -18.5
s58.166 -29.833 80.499 -52.5s39.833 -49.5 52.5 -80.5s19 -65.167 19 -102.5v-30c0 -37.333 -6.33301 -71.5 -19 -102.5s-30.167 -57.833 -52.5 -80.5s-49.166 -40.167 -80.499 -52.5s-66 -18.5 -104 -18.5h-10zM301 90c39.333 0 70.5 14.667 93.5 44s34.5 68 34.5 116v24
c0 47.333 -11.667 85.166 -35 113.499s-54.333 42.5 -93 42.5h-8c-38.667 0 -69.667 -14.167 -93 -42.5s-35 -66.166 -35 -113.499v-24c0 -48 11.5 -86.667 34.5 -116s54.167 -44 93.5 -44h8zM213 735h113l-65 -154h-95zM378 735h113l-65 -154h-95z" />
    <glyph glyph-name="OE" unicode="&#x152;" horiz-adv-x="944" 
d="M879 700l-0.00195312 -112h-265v-179h245v-110h-245v-187h275v-112h-402c-30 -8 -62 -12 -96 -12h-12c-49.333 0 -94.833 8.5 -136.5 25.5s-77.5 41 -107.5 72s-53.333 68 -70 111s-25 90.833 -25 143.5v20c0 53.333 8.33301 101.5 25 144.5s39.834 80 69.501 111
s65.334 54.833 107.001 71.5s87.5 25 137.5 25h12c35.333 0 67.333 -4.33301 96 -13v1h392zM486.998 563c-25.333 21.333 -57.666 32 -96.999 32h-10c-29.333 0 -56.5 -5.5 -81.5 -16.5s-46.5 -26.667 -64.5 -47s-32.167 -45 -42.5 -74s-15.5 -61.5 -15.5 -97.5v-20
c0 -36 5.16699 -68.5 15.5 -97.5s24.5 -53.667 42.5 -74s39.5 -36 64.5 -47s52.167 -16.5 81.5 -16.5h10c39.333 0 71.666 9.33301 96.999 28v430z" />
    <glyph glyph-name="oe" unicode="&#x153;" horiz-adv-x="954" 
d="M686 -9c-40.667 0 -77.332 7.99902 -109.999 23.999s-59.667 38 -81 66c-22.667 -28 -50.667 -50 -84 -66s-71 -24 -113 -24h-7c-37.333 0 -71.666 6.16699 -102.999 18.5s-58.166 29.833 -80.499 52.5s-39.833 49.5 -52.5 80.5s-19 65.167 -19 102.5v30
c0 37.333 6.33301 71.5 19 102.5s30.167 57.833 52.5 80.5s49.166 40.167 80.499 52.5s65.666 18.5 102.999 18.5h7c42 0 80.167 -8.16699 114.5 -24.5s62.5 -39.166 84.5 -68.499c21.333 29.333 48 52.166 80 68.499s68 24.5 108 24.5h6c34 0 65 -6 93 -18
s52.167 -28.5 72.5 -49.5s36.166 -46.167 47.499 -75.5s17 -61.666 17 -96.999v-67h-367c4 -38 18.5 -68.667 43.5 -92s56.5 -35 94.5 -35h3c30 0 57.333 6.33301 82 19s44.667 28.667 60 48l68 -75c-24 -30 -55.167 -53.5 -93.5 -70.5s-77.5 -25.5 -117.5 -25.5h-8z
M803.002 304.999v3c-2 38 -13.833 68.167 -35.5 90.5s-49.167 33.5 -82.5 33.5h-3c-32.667 0 -60.167 -11.333 -82.5 -34s-36.5 -53.667 -42.5 -93h246zM300.002 89.999c19.333 0 37.166 3.83301 53.499 11.5s30.333 18.5 42 32.5s20.667 30.833 27 50.5s9.5 41.5 9.5 65.5
v24c0 47.333 -12.167 85.166 -36.5 113.499s-56.166 42.5 -95.499 42.5h-4c-38.667 0 -70.334 -14.167 -95.001 -42.5s-37 -66.166 -37 -113.499v-24c0 -24 3.33301 -45.833 10 -65.5s15.834 -36.5 27.501 -50.5s25.5 -24.833 41.5 -32.5s33.667 -11.5 53 -11.5h4z" />
    <glyph glyph-name="Racute" unicode="&#x154;" horiz-adv-x="642" 
d="M82 700h252.001c76.667 0 136.5 -19.167 179.5 -57.5s64.5 -90.833 64.5 -157.5v-10c0 -46 -10.833 -86 -32.5 -120s-51.834 -58.667 -90.501 -74l171 -281h-155l-144 255h-114v-255h-131v700zM315.001 358c43.333 0 76.167 10 98.5 30s33.5 47.333 33.5 82v10
c0 34 -11.333 60.5 -34 79.5s-55 28.5 -97 28.5h-106v-230h105zM360.002 763h-97l53 147h119z" />
    <glyph glyph-name="racute" unicode="&#x155;" horiz-adv-x="374" 
d="M70 520h97c3.33301 -9.33301 6.5 -20.5 9.5 -33.5s5.16699 -25.167 6.5 -36.5c18.667 22 41.167 39.167 67.5 51.5s55.833 18.5 88.5 18.5h13v-119c-4.66699 1.33301 -10.667 2.33301 -18 3s-14 1 -20 1c-80 0 -120 -43.333 -120 -130v-275h-124v520zM166 578l57 155h113
l-75 -155h-95z" />
    <glyph glyph-name="uni0156" unicode="&#x156;" horiz-adv-x="642" 
d="M82 700h252.001c76.667 0 136.5 -19.167 179.5 -57.5s64.5 -90.833 64.5 -157.5v-10c0 -46 -10.833 -86 -32.5 -120s-51.834 -58.667 -90.501 -74l171 -281h-155l-144 255h-114v-255h-131v700zM315.001 358c43.333 0 76.167 10 98.5 30s33.5 47.333 33.5 82v10
c0 34 -11.333 60.5 -34 79.5s-55 28.5 -97 28.5h-106v-230h105zM285.002 -38h107l-64 -151h-80z" />
    <glyph glyph-name="uni0157" unicode="&#x157;" horiz-adv-x="374" 
d="M70 520h97c3.33301 -9.33301 6.5 -20.5 9.5 -33.5s5.16699 -25.167 6.5 -36.5c18.667 22 41.167 39.167 67.5 51.5s55.833 18.5 88.5 18.5h13v-119c-4.66699 1.33301 -10.667 2.33301 -18 3s-14 1 -20 1c-80 0 -120 -43.333 -120 -130v-275h-124v520zM82 -38h107
l-64 -151h-80z" />
    <glyph glyph-name="Rcaron" unicode="&#x158;" horiz-adv-x="642" 
d="M82 700h252.001c76.667 0 136.5 -19.167 179.5 -57.5s64.5 -90.833 64.5 -157.5v-10c0 -46 -10.833 -86 -32.5 -120s-51.834 -58.667 -90.501 -74l171 -281h-155l-144 255h-114v-255h-131v700zM315.001 358c43.333 0 76.167 10 98.5 30s33.5 47.333 33.5 82v10
c0 34 -11.333 60.5 -34 79.5s-55 28.5 -97 28.5h-106v-230h105zM127.002 900h119l59 -57h18l59 57h119l-117 -126h-140z" />
    <glyph glyph-name="rcaron" unicode="&#x159;" horiz-adv-x="374" 
d="M70 520h97c3.33301 -9.33301 6.5 -20.5 9.5 -33.5s5.16699 -25.167 6.5 -36.5c18.667 22 41.167 39.167 67.5 51.5s55.833 18.5 88.5 18.5h13v-119c-4.66699 1.33301 -10.667 2.33301 -18 3s-14 1 -20 1c-80 0 -120 -43.333 -120 -130v-275h-124v520zM16 720h117l62 -59
h18l62 59h117l-118 -128h-140z" />
    <glyph glyph-name="Sacute" unicode="&#x15a;" horiz-adv-x="578" 
d="M295 -11c-49.333 0 -97.501 8.66406 -144.501 25.9971s-87.833 41 -122.5 71l73 104c26.667 -26.667 58.334 -46.667 95.001 -60s72 -20 106 -20c37.333 0 65.666 7 84.999 21s29 34.333 29 61c0 20 -5.5 36.167 -16.5 48.5s-26 22.833 -45 31.5
s-41.667 16.834 -68 24.501s-55.166 16.834 -86.499 27.501c-20.667 7.33301 -40.167 16 -58.5 26s-34.5 22.333 -48.5 37s-25 32.334 -33 53.001s-12 45.334 -12 74.001c0 29.333 5.66699 56 17 80s27.166 44.833 47.499 62.5s44.5 31.334 72.5 41.001s58.667 14.5 92 14.5
c47.333 0 91.333 -7.5 132 -22.5s78.334 -36.5 113.001 -64.5l-71 -103c-24 23.333 -52 40.666 -84 51.999s-62 17 -90 17c-32.667 0 -57.5 -7 -74.5 -21s-25.5 -32.667 -25.5 -56c0 -16 4.33301 -29.5 13 -40.5s20.5 -20.333 35.5 -28s32.667 -14.5 53 -20.5l66.5 -20
c24.667 -7.33301 49.167 -16 73.5 -26s46 -22.833 65 -38.5s34.5 -34.834 46.5 -57.501s18 -50.667 18 -84c0 -32 -5.83301 -61 -17.5 -87s-28.5 -48 -50.5 -66s-48.5 -32 -79.5 -42s-66.167 -15 -105.5 -15zM332.999 762.997h-97l53 147h119z" />
    <glyph glyph-name="sacute" unicode="&#x15b;" horiz-adv-x="484" 
d="M259 -10c-92.667 0 -170.669 25.001 -234.002 75.001l62 89c22.667 -19.333 49 -34.5 79 -45.5s60 -16.5 90 -16.5c54.667 0 82 19 82 57c0 12 -3.33301 21.667 -10 29s-16.5 13.5 -29.5 18.5s-28.667 10 -47 15s-39.166 11.167 -62.499 18.5
c-18 5.33301 -35.667 11.333 -53 18s-32.666 15.334 -45.999 26.001s-24.166 24 -32.499 40s-12.5 36 -12.5 60c0 48 16.667 86 50 114s79.333 42 138 42c37.333 0 73.333 -5.83301 108 -17.5s65.667 -27.167 93 -46.5l-59 -88c-20 15.333 -43 27.666 -69 36.999
s-51.667 14 -77 14c-47.333 0 -71 -17 -71 -51c0 -10.667 3.33301 -19.667 10 -27s15.5 -13.333 26.5 -18s23.833 -8.83398 38.5 -12.501l46 -11.5c20.667 -4.66699 41.667 -10.5 63 -17.5s40.5 -16.333 57.5 -28s30.833 -26.5 41.5 -44.5s16 -40.667 16 -68
c0 -50 -17.833 -89.333 -53.5 -118s-83.834 -43 -144.501 -43zM184.998 579.001l57 155h113l-75 -155h-95z" />
    <glyph glyph-name="Scircumflex" unicode="&#x15c;" horiz-adv-x="578" 
d="M295 -11c-49.333 0 -97.501 8.66406 -144.501 25.9971s-87.833 41 -122.5 71l73 104c26.667 -26.667 58.334 -46.667 95.001 -60s72 -20 106 -20c37.333 0 65.666 7 84.999 21s29 34.333 29 61c0 20 -5.5 36.167 -16.5 48.5s-26 22.833 -45 31.5
s-41.667 16.834 -68 24.501s-55.166 16.834 -86.499 27.501c-20.667 7.33301 -40.167 16 -58.5 26s-34.5 22.333 -48.5 37s-25 32.334 -33 53.001s-12 45.334 -12 74.001c0 29.333 5.66699 56 17 80s27.166 44.833 47.499 62.5s44.5 31.334 72.5 41.001s58.667 14.5 92 14.5
c47.333 0 91.333 -7.5 132 -22.5s78.334 -36.5 113.001 -64.5l-71 -103c-24 23.333 -52 40.666 -84 51.999s-62 17 -90 17c-32.667 0 -57.5 -7 -74.5 -21s-25.5 -32.667 -25.5 -56c0 -16 4.33301 -29.5 13 -40.5s20.5 -20.333 35.5 -28s32.667 -14.5 53 -20.5l66.5 -20
c24.667 -7.33301 49.167 -16 73.5 -26s46 -22.833 65 -38.5s34.5 -34.834 46.5 -57.501s18 -50.667 18 -84c0 -32 -5.83301 -61 -17.5 -87s-28.5 -48 -50.5 -66s-48.5 -32 -79.5 -42s-66.167 -15 -105.5 -15zM216.999 899.997h140l117 -126h-119l-59 57h-18l-59 -57h-119z
" />
    <glyph glyph-name="scircumflex" unicode="&#x15d;" horiz-adv-x="484" 
d="M259 -10c-92.667 0 -170.669 25.001 -234.002 75.001l62 89c22.667 -19.333 49 -34.5 79 -45.5s60 -16.5 90 -16.5c54.667 0 82 19 82 57c0 12 -3.33301 21.667 -10 29s-16.5 13.5 -29.5 18.5s-28.667 10 -47 15s-39.166 11.167 -62.499 18.5
c-18 5.33301 -35.667 11.333 -53 18s-32.666 15.334 -45.999 26.001s-24.166 24 -32.499 40s-12.5 36 -12.5 60c0 48 16.667 86 50 114s79.333 42 138 42c37.333 0 73.333 -5.83301 108 -17.5s65.667 -27.167 93 -46.5l-59 -88c-20 15.333 -43 27.666 -69 36.999
s-51.667 14 -77 14c-47.333 0 -71 -17 -71 -51c0 -10.667 3.33301 -19.667 10 -27s15.5 -13.333 26.5 -18s23.833 -8.83398 38.5 -12.501l46 -11.5c20.667 -4.66699 41.667 -10.5 63 -17.5s40.5 -16.333 57.5 -28s30.833 -26.5 41.5 -44.5s16 -40.667 16 -68
c0 -50 -17.833 -89.333 -53.5 -118s-83.834 -43 -144.501 -43zM307.998 592.001l-62 59h-18l-62 -59h-117l118 128h140l118 -128h-117z" />
    <glyph glyph-name="Scedilla" unicode="&#x15e;" horiz-adv-x="578" 
d="M295 -11c-49.333 0 -97.501 8.66406 -144.501 25.9971s-87.833 41 -122.5 71l73 104c26.667 -26.667 58.334 -46.667 95.001 -60s72 -20 106 -20c37.333 0 65.666 7 84.999 21s29 34.333 29 61c0 20 -5.5 36.167 -16.5 48.5s-26 22.833 -45 31.5
s-41.667 16.834 -68 24.501s-55.166 16.834 -86.499 27.501c-20.667 7.33301 -40.167 16 -58.5 26s-34.5 22.333 -48.5 37s-25 32.334 -33 53.001s-12 45.334 -12 74.001c0 29.333 5.66699 56 17 80s27.166 44.833 47.499 62.5s44.5 31.334 72.5 41.001s58.667 14.5 92 14.5
c47.333 0 91.333 -7.5 132 -22.5s78.334 -36.5 113.001 -64.5l-71 -103c-24 23.333 -52 40.666 -84 51.999s-62 17 -90 17c-32.667 0 -57.5 -7 -74.5 -21s-25.5 -32.667 -25.5 -56c0 -16 4.33301 -29.5 13 -40.5s20.5 -20.333 35.5 -28s32.667 -14.5 53 -20.5l66.5 -20
c24.667 -7.33301 49.167 -16 73.5 -26s46 -22.833 65 -38.5s34.5 -34.834 46.5 -57.501s18 -50.667 18 -84c0 -32 -5.83301 -61 -17.5 -87s-28.5 -48 -50.5 -66s-48.5 -32 -79.5 -42s-66.167 -15 -105.5 -15zM253.999 -179.003c-16 0 -32.6631 2 -49.9961 6l9 67
c3.33301 -1.33301 7.16602 -2.66602 11.499 -3.99902s8.83301 -2 13.5 -2c11.333 0 19.5 2.33301 24.5 7s7.5 10 7.5 16c0 8 -3.33301 15 -10 21s-18 9 -34 9l24 60h71l-14 -31c15.333 -6 27.5 -14.5 36.5 -25.5s13.5 -24.833 13.5 -41.5c0 -10 -2.33301 -19.833 -7 -29.5
s-11.334 -18.334 -20.001 -26.001s-19.334 -14 -32.001 -19s-27.334 -7.5 -44.001 -7.5z" />
    <glyph glyph-name="scedilla" unicode="&#x15f;" horiz-adv-x="484" 
d="M259 -10c-92.667 0 -170.669 25.001 -234.002 75.001l62 89c22.667 -19.333 49 -34.5 79 -45.5s60 -16.5 90 -16.5c54.667 0 82 19 82 57c0 12 -3.33301 21.667 -10 29s-16.5 13.5 -29.5 18.5s-28.667 10 -47 15s-39.166 11.167 -62.499 18.5
c-18 5.33301 -35.667 11.333 -53 18s-32.666 15.334 -45.999 26.001s-24.166 24 -32.499 40s-12.5 36 -12.5 60c0 48 16.667 86 50 114s79.333 42 138 42c37.333 0 73.333 -5.83301 108 -17.5s65.667 -27.167 93 -46.5l-59 -88c-20 15.333 -43 27.666 -69 36.999
s-51.667 14 -77 14c-47.333 0 -71 -17 -71 -51c0 -10.667 3.33301 -19.667 10 -27s15.5 -13.333 26.5 -18s23.833 -8.83398 38.5 -12.501l46 -11.5c20.667 -4.66699 41.667 -10.5 63 -17.5s40.5 -16.333 57.5 -28s30.833 -26.5 41.5 -44.5s16 -40.667 16 -68
c0 -50 -17.833 -89.333 -53.5 -118s-83.834 -43 -144.501 -43zM214.998 -178.999c-16 0 -32.6631 2 -49.9961 6l9 67c3.33301 -1.33301 7.16602 -2.66602 11.499 -3.99902s8.83301 -2 13.5 -2c11.333 0 19.5 2.33301 24.5 7s7.5 10 7.5 16c0 8 -3.33301 15 -10 21
s-18 9 -34 9l24 60h71l-14 -31c15.333 -6 27.5 -14.5 36.5 -25.5s13.5 -24.833 13.5 -41.5c0 -10 -2.33301 -19.833 -7 -29.5s-11.334 -18.334 -20.001 -26.001s-19.334 -14 -32.001 -19s-27.334 -7.5 -44.001 -7.5z" />
    <glyph glyph-name="Scaron" unicode="&#x160;" horiz-adv-x="578" 
d="M295 -11c-49.333 0 -97.501 8.66406 -144.501 25.9971s-87.833 41 -122.5 71l73 104c26.667 -26.667 58.334 -46.667 95.001 -60s72 -20 106 -20c37.333 0 65.666 7 84.999 21s29 34.333 29 61c0 20 -5.5 36.167 -16.5 48.5s-26 22.833 -45 31.5
s-41.667 16.834 -68 24.501s-55.166 16.834 -86.499 27.501c-20.667 7.33301 -40.167 16 -58.5 26s-34.5 22.333 -48.5 37s-25 32.334 -33 53.001s-12 45.334 -12 74.001c0 29.333 5.66699 56 17 80s27.166 44.833 47.499 62.5s44.5 31.334 72.5 41.001s58.667 14.5 92 14.5
c47.333 0 91.333 -7.5 132 -22.5s78.334 -36.5 113.001 -64.5l-71 -103c-24 23.333 -52 40.666 -84 51.999s-62 17 -90 17c-32.667 0 -57.5 -7 -74.5 -21s-25.5 -32.667 -25.5 -56c0 -16 4.33301 -29.5 13 -40.5s20.5 -20.333 35.5 -28s32.667 -14.5 53 -20.5l66.5 -20
c24.667 -7.33301 49.167 -16 73.5 -26s46 -22.833 65 -38.5s34.5 -34.834 46.5 -57.501s18 -50.667 18 -84c0 -32 -5.83301 -61 -17.5 -87s-28.5 -48 -50.5 -66s-48.5 -32 -79.5 -42s-66.167 -15 -105.5 -15zM100.999 899.997h119l59 -57h18l59 57h119l-117 -126h-140z" />
    <glyph glyph-name="scaron" unicode="&#x161;" horiz-adv-x="484" 
d="M259 -10c-92.667 0 -170.669 25.001 -234.002 75.001l62 89c22.667 -19.333 49 -34.5 79 -45.5s60 -16.5 90 -16.5c54.667 0 82 19 82 57c0 12 -3.33301 21.667 -10 29s-16.5 13.5 -29.5 18.5s-28.667 10 -47 15s-39.166 11.167 -62.499 18.5
c-18 5.33301 -35.667 11.333 -53 18s-32.666 15.334 -45.999 26.001s-24.166 24 -32.499 40s-12.5 36 -12.5 60c0 48 16.667 86 50 114s79.333 42 138 42c37.333 0 73.333 -5.83301 108 -17.5s65.667 -27.167 93 -46.5l-59 -88c-20 15.333 -43 27.666 -69 36.999
s-51.667 14 -77 14c-47.333 0 -71 -17 -71 -51c0 -10.667 3.33301 -19.667 10 -27s15.5 -13.333 26.5 -18s23.833 -8.83398 38.5 -12.501l46 -11.5c20.667 -4.66699 41.667 -10.5 63 -17.5s40.5 -16.333 57.5 -28s30.833 -26.5 41.5 -44.5s16 -40.667 16 -68
c0 -50 -17.833 -89.333 -53.5 -118s-83.834 -43 -144.501 -43zM50.998 720.001h117l62 -59h18l62 59h117l-118 -128h-140z" />
    <glyph glyph-name="uni0162" unicode="&#x162;" horiz-adv-x="532" 
d="M201 584h-181v116h492v-116h-181v-584h-130v584zM231 -179c-16 0 -32.6631 2 -49.9961 6l9 67c3.33301 -1.33301 7.16602 -2.66602 11.499 -3.99902s8.83301 -2 13.5 -2c11.333 0 19.5 2.33301 24.5 7s7.5 10 7.5 16c0 8 -3.33301 15 -10 21s-18 9 -34 9l24 60h71
l-14 -31c15.333 -6 27.5 -14.5 36.5 -25.5s13.5 -24.833 13.5 -41.5c0 -10 -2.33301 -19.833 -7 -29.5s-11.334 -18.334 -20.001 -26.001s-19.334 -14 -32.001 -19s-27.334 -7.5 -44.001 -7.5z" />
    <glyph glyph-name="uni0163" unicode="&#x163;" horiz-adv-x="385" 
d="M237 -5c-46.667 0 -83.168 12.6699 -109.501 38.0029s-39.5 65.333 -39.5 120v267h-69v84c10 3.33301 21.167 6.33301 33.5 9s24.166 4.66699 35.499 6v121l123 15v-135h143v-100h-144v-243c0 -28 5.33301 -47.5 16 -58.5s26.334 -16.5 47.001 -16.5
c6 0 12.833 0.333008 20.5 1s15.5 1.5 23.5 2.5s15.833 2.16699 23.5 3.5s13.834 2.66602 18.501 3.99902v-98c-8 -3.33301 -17.167 -6.33301 -27.5 -9s-21 -4.83398 -32 -6.50098s-21.833 -2.83398 -32.5 -3.50098s-20.667 -1 -30 -1zM193.999 -178.997
c-16 0 -32.6631 2 -49.9961 6l9 67c3.33301 -1.33301 7.16602 -2.66602 11.499 -3.99902s8.83301 -2 13.5 -2c11.333 0 19.5 2.33301 24.5 7s7.5 10 7.5 16c0 8 -3.33301 15 -10 21s-18 9 -34 9l24 60h71l-14 -31c15.333 -6 27.5 -14.5 36.5 -25.5s13.5 -24.833 13.5 -41.5
c0 -10 -2.33301 -19.833 -7 -29.5s-11.334 -18.334 -20.001 -26.001s-19.334 -14 -32.001 -19s-27.334 -7.5 -44.001 -7.5z" />
    <glyph glyph-name="Tcaron" unicode="&#x164;" horiz-adv-x="532" 
d="M201 584h-181v116h492v-116h-181v-584h-130v584zM80 900h119l59 -57h18l59 57h119l-117 -126h-140z" />
    <glyph glyph-name="tcaron" unicode="&#x165;" horiz-adv-x="395" 
d="M237 -5c-46.667 0 -83.168 12.6699 -109.501 38.0029s-39.5 65.333 -39.5 120v267h-69v84c10 3.33301 21.167 6.33301 33.5 9s24.166 4.66699 35.499 6v121l123 15v-135h143v-100h-144v-243c0 -28 5.33301 -47.5 16 -58.5s26.334 -16.5 47.001 -16.5
c6 0 12.833 0.333008 20.5 1s15.5 1.5 23.5 2.5s15.833 2.16699 23.5 3.5s13.834 2.66602 18.501 3.99902v-98c-8 -3.33301 -17.167 -6.33301 -27.5 -9s-21 -4.83398 -32 -6.50098s-21.833 -2.83398 -32.5 -3.50098s-20.667 -1 -30 -1zM306.999 722.003h107l-37 -166h-80z
" />
    <glyph glyph-name="Tbar" unicode="&#x166;" horiz-adv-x="532" 
d="M95 398h106v186h-181v116h492v-116h-181v-186h106v-92h-106v-306h-130v306h-106v92z" />
    <glyph glyph-name="tbar" unicode="&#x167;" horiz-adv-x="386" 
d="M26 329l58.999 0.00292969v91h-69v84c10 3.33301 21.167 6.33301 33.5 9s24.166 4.66699 35.499 6v121l123 15v-135h143v-100h-144v-91h124v-87h-124v-65c0 -28 5.33301 -47.5 16 -58.5s26.334 -16.5 47.001 -16.5c6 0 12.833 0.333008 20.5 1s15.5 1.5 23.5 2.5
s15.833 2.16699 23.5 3.5s13.834 2.66602 18.501 3.99902v-98c-8 -3.33301 -17.167 -6.33301 -27.5 -9s-21 -4.83398 -32 -6.50098s-21.833 -2.83398 -32.5 -3.50098s-20.667 -1 -30 -1c-46.667 0 -83.167 12.667 -109.5 38s-39.5 65.333 -39.5 120v89h-59v87z" />
    <glyph glyph-name="Utilde" unicode="&#x168;" horiz-adv-x="699" 
d="M350 -12c-88 0 -156 23 -204 69s-72 111.667 -72 197v446h131v-438c0 -50 13 -88 39 -114s61.333 -39 106 -39s79.667 13 105 39s38 64 38 114v438h131v-446c0 -87.333 -24.167 -153.5 -72.5 -198.5s-115.5 -67.5 -201.5 -67.5zM153 839
c12.667 22 29.4951 39.166 50.4951 51.499s43.833 18.5 68.5 18.5c14.667 0 28.834 -2.33301 42.501 -7s29.167 -10.667 46.5 -18c12.667 -6 25 -11.167 37 -15.5s24.667 -6.5 38 -6.5c30 0 52.667 12 68 36l41 -58c-13.333 -22 -30.166 -39.167 -50.499 -51.5
s-42.166 -18.5 -65.499 -18.5c-14.667 0 -29 2.33301 -43 7s-30.333 11.334 -49 20.001c-13.333 6 -26 11 -38 15s-23.667 6 -35 6c-15.333 0 -29.166 -3.33301 -41.499 -10s-22.166 -15.667 -29.499 -27z" />
    <glyph glyph-name="utilde" unicode="&#x169;" 
d="M236 -10c-57.333 0 -100.835 17.002 -130.502 51.002s-44.5 82.667 -44.5 146v333h124v-307c0 -38 7.33301 -66.667 22 -86s38.334 -29 71.001 -29h4c38 0 68.333 12.5 91 37.5s34 58.5 34 100.5v284h124v-520h-98c-3.33301 9.33301 -6.5 21.166 -9.5 35.499
s-4.83301 27.166 -5.5 38.499c-21.333 -26 -47.166 -46.5 -77.499 -61.5s-63.5 -22.5 -99.5 -22.5h-5zM97.998 660.002c12.667 22.667 29.5 40.001 50.5 52.001s43.5 18 67.5 18c15.333 0 29.833 -2.33301 43.5 -7s29.167 -10.667 46.5 -18c12 -6 24 -11.167 36 -15.5
s24.667 -6.5 38 -6.5c15.333 0 28.666 3.16699 39.999 9.5s20.666 15.166 27.999 26.499l42 -57c-13.333 -22.667 -30.333 -40 -51 -52s-42.667 -18 -66 -18c-14 0 -28 2.33301 -42 7s-30.333 11 -49 19c-13.333 6 -26 11 -38 15s-23.667 6 -35 6
c-15.333 0 -29.166 -3.33301 -41.499 -10s-22.166 -15.667 -29.499 -27z" />
    <glyph glyph-name="Umacron" unicode="&#x16a;" horiz-adv-x="699" 
d="M350 -12c-88 0 -156 23 -204 69s-72 111.667 -72 197v446h131v-438c0 -50 13 -88 39 -114s61.333 -39 106 -39s79.667 13 105 39s38 64 38 114v438h131v-446c0 -87.333 -24.167 -153.5 -72.5 -198.5s-115.5 -67.5 -201.5 -67.5zM206 887h288v-88h-288v88z" />
    <glyph glyph-name="umacron" unicode="&#x16b;" 
d="M236 -10c-57.333 0 -100.835 17.002 -130.502 51.002s-44.5 82.667 -44.5 146v333h124v-307c0 -38 7.33301 -66.667 22 -86s38.334 -29 71.001 -29h4c38 0 68.333 12.5 91 37.5s34 58.5 34 100.5v284h124v-520h-98c-3.33301 9.33301 -6.5 21.166 -9.5 35.499
s-4.83301 27.166 -5.5 38.499c-21.333 -26 -47.166 -46.5 -77.499 -61.5s-63.5 -22.5 -99.5 -22.5h-5zM151.998 717.002h288v-92h-288v92z" />
    <glyph glyph-name="Ubreve" unicode="&#x16c;" horiz-adv-x="699" 
d="M350 -12c-88 0 -156 23 -204 69s-72 111.667 -72 197v446h131v-438c0 -50 13 -88 39 -114s61.333 -39 106 -39s79.667 13 105 39s38 64 38 114v438h131v-446c0 -87.333 -24.167 -153.5 -72.5 -198.5s-115.5 -67.5 -201.5 -67.5zM288 900
c0 -18.667 5.50195 -33.502 16.502 -44.502s26.167 -16.5 45.5 -16.5s34.5 5.5 45.5 16.5s16.5 25.833 16.5 44.5h103c0 -43.333 -14.833 -78.166 -44.5 -104.499s-69.834 -39.5 -120.501 -39.5c-24.667 0 -47.167 3.5 -67.5 10.5s-37.833 16.833 -52.5 29.5
s-25.834 27.834 -33.501 45.501s-11.5 37.167 -11.5 58.5h103z" />
    <glyph glyph-name="ubreve" unicode="&#x16d;" 
d="M236 -10c-57.333 0 -100.835 17.002 -130.502 51.002s-44.5 82.667 -44.5 146v333h124v-307c0 -38 7.33301 -66.667 22 -86s38.334 -29 71.001 -29h4c38 0 68.333 12.5 91 37.5s34 58.5 34 100.5v284h124v-520h-98c-3.33301 9.33301 -6.5 21.166 -9.5 35.499
s-4.83301 27.166 -5.5 38.499c-21.333 -26 -47.166 -46.5 -77.499 -61.5s-63.5 -22.5 -99.5 -22.5h-5zM232.998 720.002c0 -18.667 5.50098 -33.498 16.501 -44.498s26.167 -16.5 45.5 -16.5s34.333 5.5 45 16.5s16 25.833 16 44.5h104
c0 -21.333 -3.83301 -40.833 -11.5 -58.5s-18.834 -32.834 -33.501 -45.501s-32 -22.5 -52 -29.5s-42.667 -10.5 -68 -10.5c-50.667 0 -91 13.167 -121 39.5s-45 61.166 -45 104.499h104z" />
    <glyph glyph-name="Uring" unicode="&#x16e;" horiz-adv-x="699" 
d="M350 -12c-88 0 -156 23 -204 69s-72 111.667 -72 197v446h131v-438c0 -50 13 -88 39 -114s61.333 -39 106 -39s79.667 13 105 39s38 64 38 114v438h131v-446c0 -87.333 -24.167 -153.5 -72.5 -198.5s-115.5 -67.5 -201.5 -67.5zM350 744c-30 0 -54.667 8.66699 -74 26
s-29 39 -29 65c0 28 9.66699 50.833 29 68.5s44 26.5 74 26.5s54.5 -8.83301 73.5 -26.5s28.5 -40.5 28.5 -68.5c0 -26 -9.5 -47.667 -28.5 -65s-43.5 -26 -73.5 -26zM350 799c11.333 0 20.666 3.5 27.999 10.5s11 15.833 11 26.5c0 11.333 -3.66699 20.666 -11 27.999
s-16.666 11 -27.999 11c-12 0 -21.667 -3.66699 -29 -11s-11 -16.666 -11 -27.999c0 -10.667 3.66699 -19.5 11 -26.5s17 -10.5 29 -10.5z" />
    <glyph glyph-name="uring" unicode="&#x16f;" 
d="M236 -10c-57.333 0 -100.835 17.002 -130.502 51.002s-44.5 82.667 -44.5 146v333h124v-307c0 -38 7.33301 -66.667 22 -86s38.334 -29 71.001 -29h4c38 0 68.333 12.5 91 37.5s34 58.5 34 100.5v284h124v-520h-98c-3.33301 9.33301 -6.5 21.166 -9.5 35.499
s-4.83301 27.166 -5.5 38.499c-21.333 -26 -47.166 -46.5 -77.499 -61.5s-63.5 -22.5 -99.5 -22.5h-5zM295.998 576.002c-30 0 -54.5 8.66699 -73.5 26s-28.5 39 -28.5 65c0 28 9.5 50.833 28.5 68.5s43.5 26.5 73.5 26.5c29.333 0 53.333 -8.83301 72 -26.5
s28 -40.5 28 -68.5c0 -26 -9.33301 -47.667 -28 -65s-42.667 -26 -72 -26zM294.998 631.002c11.333 0 20.666 3.5 27.999 10.5s11 15.833 11 26.5c0 11.333 -3.66699 20.666 -11 27.999s-16.666 11 -27.999 11s-20.666 -3.66699 -27.999 -11s-11 -16.666 -11 -27.999
c0 -10.667 3.66699 -19.5 11 -26.5s16.666 -10.5 27.999 -10.5z" />
    <glyph glyph-name="Uhungarumlaut" unicode="&#x170;" horiz-adv-x="699" 
d="M350 -12c-88 0 -156 23 -204 69s-72 111.667 -72 197v446h131v-438c0 -50 13 -88 39 -114s61.333 -39 106 -39s79.667 13 105 39s38 64 38 114v438h131v-446c0 -87.333 -24.167 -153.5 -72.5 -198.5s-115.5 -67.5 -201.5 -67.5zM214 759l52 147h119l-71 -147h-100z
M382 759l53 147h119l-71 -147h-101z" />
    <glyph glyph-name="uhungarumlaut" unicode="&#x171;" 
d="M236 -10c-57.333 0 -100.835 17.002 -130.502 51.002s-44.5 82.667 -44.5 146v333h124v-307c0 -38 7.33301 -66.667 22 -86s38.334 -29 71.001 -29h4c38 0 68.333 12.5 91 37.5s34 58.5 34 100.5v284h124v-520h-98c-3.33301 9.33301 -6.5 21.166 -9.5 35.499
s-4.83301 27.166 -5.5 38.499c-21.333 -26 -47.166 -46.5 -77.499 -61.5s-63.5 -22.5 -99.5 -22.5h-5zM211.998 735.002h113l-65 -154h-95zM376.998 735.002h113l-65 -154h-95z" />
    <glyph glyph-name="Uogonek" unicode="&#x172;" horiz-adv-x="699" 
d="M420 -173c-14 -4 -28 -5.99805 -42 -5.99805c-28 0 -50.167 6.83301 -66.5 20.5s-24.5 32.834 -24.5 57.501c0 30 13 60 39 90c-80.667 4.66699 -142.834 29.667 -186.501 75s-65.5 108.666 -65.5 189.999v446h131v-438c0 -50 13 -88 39 -114s61.333 -39 106 -39
s79.667 13 105 39s38 64 38 114v438h131v-446c0 -70 -15.667 -126.333 -47 -169s-75.666 -71.334 -132.999 -86.001c-20 -7.33301 -37.167 -17.5 -51.5 -30.5s-21.5 -29.167 -21.5 -48.5c0 -21.333 8.66699 -32 26 -32c4 0 8 0.666992 12 2s7.66699 2.66602 11 3.99902v-67z
" />
    <glyph glyph-name="uogonek" unicode="&#x173;" 
d="M236 -10c-57.333 0 -100.835 17.002 -130.502 51.002s-44.5 82.667 -44.5 146v333h124v-307c0 -38 7.33301 -66.667 22 -86s38.334 -29 71.001 -29h4c38 0 68.333 12.5 91 37.5s34 58.5 34 100.5v284h124v-520h-98c-3.33301 9.33301 -6.5 21.166 -9.5 35.499
s-4.83301 27.166 -5.5 38.499c-21.333 -26 -47.166 -46.5 -77.499 -61.5s-63.5 -22.5 -99.5 -22.5h-5zM487.998 -178.998c-28 0 -50.1689 6.99902 -66.502 20.999s-24.5 33.667 -24.5 59c0 24.667 7.83301 48.834 23.5 72.501s36.834 44.5 63.501 62.5l46 -36
c-17.333 -17.333 -29.666 -32.166 -36.999 -44.499s-11 -24.833 -11 -37.5c0 -20 8.66699 -30 26 -30c3.33301 0 7 0.666992 11 2s7.66699 2.66602 11 3.99902v-67c-14 -4 -28 -6 -42 -6z" />
    <glyph glyph-name="Wcircumflex" unicode="&#x174;" horiz-adv-x="913" 
d="M20 700h134l102 -551h6l136 551h111l137 -551h6l107 551h134l-154 -700h-164l-119 476h-5l-119 -476h-164zM384 900h140l117 -126h-119l-59 57h-18l-59 -57h-119z" />
    <glyph glyph-name="wcircumflex" unicode="&#x175;" horiz-adv-x="790" 
d="M20 520h125l75 -386h10l107 386h114l107 -387h10l76 387h126l-118 -520h-151l-104 362h-4l-105 -362h-150zM465 592l-62 59h-18l-62 -59h-117l118 128h140l118 -128h-117z" />
    <glyph glyph-name="Ycircumflex" unicode="&#x176;" horiz-adv-x="600" 
d="M235 274l-237 426h150l149 -299h7l149 299h150l-237 -426v-274h-131v274zM231 900h140l117 -126h-119l-59 57h-18l-59 -57h-119z" />
    <glyph glyph-name="ycircumflex" unicode="&#x177;" horiz-adv-x="535" 
d="M147 -201c-14 0 -29.666 1.33301 -46.999 4s-33 7.66699 -47 15v106c24 -12.667 48 -19 72 -19c20.667 0 39.667 6.16699 57 18.5s31.666 30.5 42.999 54.5l-219 542h131l148 -399h7l115 399h125l-178 -546c-17.333 -54 -42.833 -96.667 -76.5 -128
s-77.167 -47 -130.5 -47zM343.001 592l-62 59h-18l-62 -59h-117l118 128h140l118 -128h-117z" />
    <glyph glyph-name="Ydieresis" unicode="&#x178;" horiz-adv-x="600" 
d="M235 274l-237 426h150l149 -299h7l149 299h150l-237 -426v-274h-131v274zM215 765c-17.333 0 -31.833 5.5 -43.5 16.5s-17.5 25.833 -17.5 44.5s5.83301 34 17.5 46s26.167 18 43.5 18s32 -6 44 -18s18 -27.333 18 -46s-6 -33.5 -18 -44.5s-26.667 -16.5 -44 -16.5z
M384 765c-17.333 0 -31.666 5.5 -42.999 16.5s-17 25.833 -17 44.5s5.66699 34 17 46s25.666 18 42.999 18c18 0 33 -6 45 -18s18 -27.333 18 -46s-6 -33.5 -18 -44.5s-27 -16.5 -45 -16.5z" />
    <glyph glyph-name="Zacute" unicode="&#x179;" horiz-adv-x="564" 
d="M32 99l331 479v6h-310v116h470v-100l-328 -475v-9h337v-116h-500v99zM329 760h-97l53 147h119z" />
    <glyph glyph-name="zacute" unicode="&#x17a;" horiz-adv-x="485" 
d="M27 97l271 318v5h-253v100h400v-97l-271 -318v-5h283v-100h-430v97zM190 579l57 155h113l-75 -155h-95z" />
    <glyph glyph-name="Zdotaccent" unicode="&#x17b;" horiz-adv-x="564" 
d="M32 99l331 479v6h-310v116h470v-100l-328 -475v-9h337v-116h-500v99zM282 773c-21.333 0 -38.833 6.16699 -52.5 18.5s-20.5 28.166 -20.5 47.499s6.83301 35.333 20.5 48s31.167 19 52.5 19s39 -6.33301 53 -19s21 -28.667 21 -48s-7 -35.166 -21 -47.499
s-31.667 -18.5 -53 -18.5z" />
    <glyph glyph-name="zdotaccent" unicode="&#x17c;" horiz-adv-x="485" 
d="M27 97l271 318v5h-253v100h400v-97l-271 -318v-5h283v-100h-430v97zM242 604c-21.333 0 -38.833 6.16699 -52.5 18.5s-20.5 28.166 -20.5 47.499c0 20 6.83301 36.333 20.5 49s31.167 19 52.5 19c22 0 40.167 -6.33301 54.5 -19s21.5 -29 21.5 -49
c0 -19.333 -7.16699 -35.166 -21.5 -47.499s-32.5 -18.5 -54.5 -18.5z" />
    <glyph glyph-name="Zcaron" unicode="&#x17d;" horiz-adv-x="564" 
d="M32 99l331 479v6h-310v116h470v-100l-328 -475v-9h337v-116h-500v99zM96 897h119l59 -57h18l59 57h119l-117 -126h-140z" />
    <glyph glyph-name="zcaron" unicode="&#x17e;" horiz-adv-x="485" 
d="M27 97l271 318v5h-253v100h400v-97l-271 -318v-5h283v-100h-430v97zM54 720h117l62 -59h18l62 59h117l-118 -128h-140z" />
    <glyph glyph-name="longs" unicode="&#x17f;" horiz-adv-x="287" 
d="M71 547c0 54 12.832 96.001 38.499 126.001s61.5 45 107.5 45c16.667 0 35.334 -1.83301 56.001 -5.5s38.334 -8.83398 53.001 -15.501v-97c-12 6 -24 10.333 -36 13s-23.667 4 -35 4c-20.667 0 -35.834 -5.83301 -45.501 -17.5s-14.5 -32.167 -14.5 -61.5v-538h-124v547
z" />
    <glyph glyph-name="uni018F" unicode="&#x18f;" horiz-adv-x="718" 
d="M544 401c-4 29.333 -11.332 55.832 -21.999 79.499s-24.334 44 -41.001 61s-36.167 30.167 -58.5 39.5s-46.833 14 -73.5 14h-11c-39.333 0 -73.833 -9.16699 -103.5 -27.5s-54.5 -43.5 -74.5 -75.5l-96 74c32 44 71.833 79.167 119.5 105.5s101.5 39.5 161.5 39.5h8
c46 0 88.833 -8.66699 128.5 -26s74 -41.5 103 -72.5s51.833 -68 68.5 -111s25 -90.167 25 -141.5v-19c0 -52 -7.83301 -99.667 -23.5 -143s-37.5 -80.5 -65.5 -111.5s-61.5 -55 -100.5 -72s-82.167 -25.5 -129.5 -25.5h-8c-47.333 0 -90.5 8.5 -129.5 25.5
s-72.5 40.833 -100.5 71.5s-49.833 67.334 -65.5 110.001s-23.5 90 -23.5 142v63h512zM167.001 300.999c5.33301 -61.333 24.332 -109.833 56.999 -145.5s75 -53.5 127 -53.5h11c52 0 94.333 17.833 127 53.5s51.334 84.167 56.001 145.5h-378z" />
    <glyph glyph-name="florin" unicode="&#x192;" horiz-adv-x="358" 
d="M62 -197c-15.333 0 -31.832 1.33301 -49.499 4s-33.834 7.33398 -48.501 14.001v104c16 -8 34 -12 54 -12c23.333 0 40.333 5.66699 51 17s16 32 16 62v426h-63v80c9.33301 3.33301 19.666 6.33301 30.999 9s22 4.66699 32 6v34c0 54 13 96 39 126s62 45 108 45
c16.667 0 35.334 -1.83301 56.001 -5.5s38 -8.83398 52 -15.501v-97c-12.667 6 -25.167 10.333 -37.5 13s-24.5 4 -36.5 4c-21.333 0 -37 -5.83301 -47 -17.5s-15 -31.5 -15 -59.5v-25h131v-97h-126v-448c0 -54 -13 -95.333 -39 -124s-62 -43 -108 -43z" />
    <glyph glyph-name="uni01CD" unicode="&#x1cd;" horiz-adv-x="638" 
d="M233 700h172l236 -700h-140l-51 165h-262l-51 -165h-140zM418 273l-95 296h-8l-95 -296h198zM133 900h119l59 -57h18l59 57h119l-117 -126h-140z" />
    <glyph glyph-name="uni01CE" unicode="&#x1ce;" horiz-adv-x="558" 
d="M210 -10c-25.333 0 -48.6719 3.66602 -70.0049 10.999s-39.666 17.666 -54.999 30.999s-27.166 29.5 -35.499 48.5s-12.5 40.167 -12.5 63.5v9c0 56.667 24 98.834 72 126.501s122 41.5 222 41.5h41v23c0 26 -8.16699 46.5 -24.5 61.5s-40.5 22.5 -72.5 22.5h-5
c-25.333 0 -51.5 -4.33301 -78.5 -13s-53.167 -21.667 -78.5 -39l-51 88c32 20.667 66.333 37 103 49s74.334 18 113.001 18h9c63.333 0 113 -16.667 149 -50s54 -79.666 54 -138.999v-235c0 -18 1.83301 -36 5.5 -54s7.83398 -35.667 12.501 -53h-118
c-2.66699 7.33301 -5.16699 16.5 -7.5 27.5s-4.16602 21.833 -5.49902 32.5c-22 -22.667 -47.333 -40 -76 -52s-59 -18 -91 -18zM235.994 89.999c26.667 0 51.668 5.66699 75.001 17s43.666 27 60.999 47v87h-30c-64.667 0 -111.667 -6.5 -141 -19.5s-44 -33.5 -44 -61.5v-5
c0 -19.333 7.33301 -35 22 -47s33.667 -18 57 -18zM92.9951 719.999h117l62 -59h18l62 59h117l-118 -128h-140z" />
    <glyph glyph-name="uni01DD" unicode="&#x1dd;" horiz-adv-x="565" 
d="M274 529c38 0 72.6709 -6.16895 104.004 -18.502s58.166 -29.666 80.499 -51.999s39.666 -49.333 51.999 -81s18.5 -66.5 18.5 -104.5v-20c0 -38.667 -6.16699 -74.167 -18.5 -106.5s-29.5 -60 -51.5 -83s-48.5 -40.833 -79.5 -53.5s-65.167 -19 -102.5 -19h-10
c-34.667 0 -66.334 5.83301 -95.001 17.5s-53.334 28 -74.001 49s-36.667 46.333 -48 76s-17 62.167 -17 97.5v67h373v1c-3.33301 38.667 -17.5 69.334 -42.5 92.001s-57.5 34 -97.5 34h-10c-31.333 0 -58.5 -6.33301 -81.5 -19s-42.167 -28.667 -57.5 -48l-68 75
c24.667 30 55.667 53.5 93 70.5s77 25.5 119 25.5h13zM152.004 214.998l0.000976562 -3c1.33301 -38 12.666 -68.167 33.999 -90.5s49 -33.5 83 -33.5h9c34 0 62 11.167 84 33.5s36 53.5 42 93.5h-252z" />
    <glyph glyph-name="uni01F4" unicode="&#x1f4;" horiz-adv-x="725" 
d="M329 756l55 146h122l-78 -156zM352 -10c-47.333 0 -90.1709 8.33203 -128.504 24.999s-71.166 40.334 -98.499 71.001s-48.333 67.5 -63 110.5s-22 90.833 -22 143.5v19c0 52 8.16699 99.667 24.5 143s39 80.5 68 111.5s63.833 55 104.5 72s85.334 25.5 134.001 25.5h11
c56 0 107.667 -13.5 155 -40.5s85.666 -64.833 114.999 -113.5l-105 -67c-18 32.667 -40.667 57.667 -68 75s-59.333 26 -96 26h-10c-29.333 0 -56.166 -5.5 -80.499 -16.5s-45.166 -26.667 -62.499 -47s-30.666 -44.666 -39.999 -72.999s-14 -59.833 -14 -94.5v-20
c0 -34.667 4.66699 -66.167 14 -94.5s22.666 -52.5 39.999 -72.5s38.333 -35.5 63 -46.5s52.334 -16.5 83.001 -16.5h10c23.333 0 45 3.5 65 10.5s37.333 16.667 52 29s26 26.833 34 43.5s12 34.667 12 54v15h-156v110h277v-372h-95c-4 8 -7.5 19.5 -10.5 34.5
s-5.16699 29.5 -6.5 43.5c-8.66699 -12.667 -20 -24.334 -34 -35.001s-29.5 -20 -46.5 -28s-35.333 -14.167 -55 -18.5s-39.5 -6.5 -59.5 -6.5h-11z" />
    <glyph glyph-name="uni01F5" unicode="&#x1f5;" horiz-adv-x="542" 
d="M211 580l56 155h114l-76 -155h-94zM35 345c0 27.333 5.5 52.168 16.5 74.501s26.167 41.666 45.5 57.999s42.5 29 69.5 38s56.5 13.5 88.5 13.5h25c38 0 73 -6.66699 105 -20c4 12 8.5 23.333 13.5 34s10.833 20.334 17.5 29.001h113l-64 -123
c11.333 -14.667 20 -30.667 26 -48s9 -36 9 -56v-12c0 -26.667 -5.5 -51.334 -16.5 -74.001s-26.333 -42.167 -46 -58.5s-42.834 -29 -69.501 -38s-56 -13.5 -88 -13.5h-25h-10c-3.33301 0 -6.66602 0.333008 -9.99902 1v-51h23h35c34 0 65 -3.5 93 -10.5s52 -17 72 -30
s35.5 -28.667 46.5 -47s16.5 -38.833 16.5 -61.5v-9c0 -22.667 -5.66699 -43.167 -17 -61.5s-27 -34 -47 -47s-44 -23.167 -72 -30.5s-59 -11 -93 -11h-33c-34 0 -65 3.5 -93 10.5s-52 17 -72 30s-35.667 28.833 -47 47.5s-17 39.334 -17 62.001v12
c0 29.333 9.5 55.166 28.5 77.499s44.5 39.5 76.5 51.5v94c-30.667 16 -55 37.5 -73 64.5s-27 57.833 -27 92.5v12zM158 329.002c0 -28 9.83301 -50.167 29.5 -66.5s44.167 -24.5 73.5 -24.5h13c30 0 54.667 8.33301 74 25s29 38.667 29 66v15
c0 27.333 -9.66699 49.166 -29 65.499s-44 24.5 -74 24.5h-13c-29.333 0 -53.833 -8.16699 -73.5 -24.5s-29.5 -38.166 -29.5 -65.499v-15zM155 -52.998c0 -19.333 9.33301 -34.668 28 -46.001s45.667 -17 81 -17h24c36 0 63.667 5.83301 83 17.5s29 26.834 29 45.501v8
c0 18.667 -9.66699 33.834 -29 45.501s-47 17.5 -83 17.5h-24c-35.333 0 -62.333 -5.83301 -81 -17.5s-28 -26.834 -28 -45.501v-8z" />
    <glyph glyph-name="AEacute" unicode="&#x1fc;" horiz-adv-x="833" 
d="M245 700h523v-116h-267v-175h247v-110h-247v-183h277v-116h-402v165h-182l-56 -165h-141zM376 273v311h-43l-105 -311h148zM485 743h-97l53 147h119z" />
    <glyph glyph-name="aeacute" unicode="&#x1fd;" horiz-adv-x="879" 
d="M208 -9c-24.667 0 -47.501 3.66992 -68.501 11.0029s-39.167 17.666 -54.5 30.999s-27.166 29.5 -35.499 48.5s-12.5 39.833 -12.5 62.5c0 110 96.333 165 289 165h38v15.5c0 7 -0.333008 12.167 -1 15.5c-1.33301 28 -9.66602 49.5 -24.999 64.5s-38.333 22.5 -69 22.5
c-25.333 0 -51.5 -4.5 -78.5 -13.5s-52.833 -22.167 -77.5 -39.5l-51 89c32.667 21.333 67.167 37.666 103.5 48.999s73.166 17 110.499 17c34 0 64.5 -5.83301 91.5 -17.5s49.167 -29.167 66.5 -52.5c21.333 21.333 46.666 38.333 75.999 51s61.333 19 96 19h6
c34 0 65.333 -6 94 -18s53.334 -28.5 74.001 -49.5s36.834 -46.167 48.501 -75.5s17.5 -61.333 17.5 -96v-68h-368c4.66699 -38 19.334 -68.667 44.001 -92s56 -35 94 -35h4c28 0 54.667 6.16699 80 18.5s46 28.5 62 48.5l68 -75
c-24.667 -28.667 -56.334 -51.834 -95.001 -69.501s-78.334 -26.5 -119.001 -26.5h-9c-41.333 0 -78.5 7.66699 -111.5 23s-60.5 37 -82.5 65c-30 -30.667 -62.5 -53 -97.5 -67s-70.833 -21 -107.5 -21zM726.999 305.003v2c-2 38 -13.667 68.333 -35 91s-49 34 -83 34h-3
c-33.333 0 -60.833 -11.333 -82.5 -34s-35.5 -53.667 -41.5 -93h245zM369.999 157.003c-4 10.667 -6.99902 22.499 -8.99902 35.499s-3 25.167 -3 36.5h-21c-62 0 -107.5 -6.5 -136.5 -19.5s-43.5 -32.5 -43.5 -58.5c0 -18 7.16699 -32.5 21.5 -43.5
s34.166 -16.5 59.499 -16.5s49.833 5.83301 73.5 17.5s43.167 27.834 58.5 48.501zM392 559.002l57 155h113l-75 -155h-95z" />
    <glyph glyph-name="Oslashacute" unicode="&#x1fe;" horiz-adv-x="756" 
d="M156 64c-36.667 31.333 -65.167 70.333 -85.5 117s-30.5 99.667 -30.5 159v20c0 53.333 8.16699 101.5 24.5 144.5s39 80 68 111s64 54.833 105 71.5s85.833 25 134.5 25h12c50.667 0 97.667 -9.33301 141 -28l30 51h103l-58 -98c36 -31.333 64.333 -70.333 85 -117
s31 -100 31 -160v-20c0 -52.667 -8.16699 -100.667 -24.5 -144s-39.166 -80.5 -68.499 -111.5s-64.333 -54.833 -105 -71.5s-85.334 -25 -134.001 -25h-12c-50.667 0 -97.667 9.33301 -141 28l-30 -52h-104zM172 340c0 -35.333 4.5 -67.333 13.5 -96
s21.833 -53.334 38.5 -74.001l246 412c-13.333 6.66699 -27.166 11.834 -41.499 15.501s-29.5 5.5 -45.5 5.5h-10c-28.667 0 -55.334 -5.66699 -80.001 -17s-46 -27.5 -64 -48.5s-32 -46.333 -42 -76s-15 -63.167 -15 -100.5v-21zM285 118
c13.333 -6.66699 27.334 -11.8311 42.001 -15.498s30 -5.5 46 -5.5h10c29.333 0 56.166 5.66699 80.499 17s45.333 27.666 63 48.999s31.5 47 41.5 77s15 63.333 15 100v21c0 69.333 -17 125.666 -51 168.999zM426.001 760.003h-97l53 147h119z" />
    <glyph glyph-name="oslashacute" unicode="&#x1ff;" horiz-adv-x="593" 
d="M123 47c-28 23.333 -49.499 51.667 -64.499 85s-22.5 71 -22.5 113v30c0 37.333 6.33301 71.5 19 102.5s30.167 57.833 52.5 80.5s49.166 40.167 80.499 52.5s66 18.5 104 18.5h10c34 0 65.333 -5 94 -15l27 46h98l-50 -88c27.333 -22.667 48.666 -50.667 63.999 -84
s23 -71 23 -113v-30c0 -37.333 -6.33301 -71.5 -19 -102.5s-30.167 -57.833 -52.5 -80.5s-49.166 -40.167 -80.499 -52.5s-66 -18.5 -104 -18.5h-10c-34 0 -65 5 -93 15l-29 -48h-98zM353.001 424.001c-8 3.33301 -16.332 5.83398 -24.999 7.50098s-17.667 2.5 -27 2.5h-10
c-40.667 0 -73.334 -14.667 -98.001 -44s-37 -68 -37 -116v-24c0 -44.667 10.333 -81.334 31 -110.001zM301.002 86.002c41.333 0 74.166 15.001 98.499 45.001s36.5 69.667 36.5 119v24c0 43.333 -9.66699 78.666 -29 105.999l-166 -284
c16.667 -6.66699 33.334 -10 50.001 -10h10zM244.002 577.003l57 155h113l-75 -155h-95z" />
    <glyph glyph-name="uni0218" unicode="&#x218;" horiz-adv-x="578" 
d="M295 -11c-49.333 0 -97.501 8.66406 -144.501 25.9971s-87.833 41 -122.5 71l73 104c26.667 -26.667 58.334 -46.667 95.001 -60s72 -20 106 -20c37.333 0 65.666 7 84.999 21s29 34.333 29 61c0 20 -5.5 36.167 -16.5 48.5s-26 22.833 -45 31.5
s-41.667 16.834 -68 24.501s-55.166 16.834 -86.499 27.501c-20.667 7.33301 -40.167 16 -58.5 26s-34.5 22.333 -48.5 37s-25 32.334 -33 53.001s-12 45.334 -12 74.001c0 29.333 5.66699 56 17 80s27.166 44.833 47.499 62.5s44.5 31.334 72.5 41.001s58.667 14.5 92 14.5
c47.333 0 91.333 -7.5 132 -22.5s78.334 -36.5 113.001 -64.5l-71 -103c-24 23.333 -52 40.666 -84 51.999s-62 17 -90 17c-32.667 0 -57.5 -7 -74.5 -21s-25.5 -32.667 -25.5 -56c0 -16 4.33301 -29.5 13 -40.5s20.5 -20.333 35.5 -28s32.667 -14.5 53 -20.5l66.5 -20
c24.667 -7.33301 49.167 -16 73.5 -26s46 -22.833 65 -38.5s34.5 -34.834 46.5 -57.501s18 -50.667 18 -84c0 -32 -5.83301 -61 -17.5 -87s-28.5 -48 -50.5 -66s-48.5 -32 -79.5 -42s-66.167 -15 -105.5 -15zM243.999 -38.0029h107l-64 -151h-80z" />
    <glyph glyph-name="uni0219" unicode="&#x219;" horiz-adv-x="484" 
d="M259 -10c-92.667 0 -170.669 25.001 -234.002 75.001l62 89c22.667 -19.333 49 -34.5 79 -45.5s60 -16.5 90 -16.5c54.667 0 82 19 82 57c0 12 -3.33301 21.667 -10 29s-16.5 13.5 -29.5 18.5s-28.667 10 -47 15s-39.166 11.167 -62.499 18.5
c-18 5.33301 -35.667 11.333 -53 18s-32.666 15.334 -45.999 26.001s-24.166 24 -32.499 40s-12.5 36 -12.5 60c0 48 16.667 86 50 114s79.333 42 138 42c37.333 0 73.333 -5.83301 108 -17.5s65.667 -27.167 93 -46.5l-59 -88c-20 15.333 -43 27.666 -69 36.999
s-51.667 14 -77 14c-47.333 0 -71 -17 -71 -51c0 -10.667 3.33301 -19.667 10 -27s15.5 -13.333 26.5 -18s23.833 -8.83398 38.5 -12.501l46 -11.5c20.667 -4.66699 41.667 -10.5 63 -17.5s40.5 -16.333 57.5 -28s30.833 -26.5 41.5 -44.5s16 -40.667 16 -68
c0 -50 -17.833 -89.333 -53.5 -118s-83.834 -43 -144.501 -43zM200.998 -37.999h107l-64 -151h-80z" />
    <glyph glyph-name="uni021A" unicode="&#x21a;" horiz-adv-x="532" 
d="M201 584h-181v116h492v-116h-181v-584h-130v584zM216 -38h107l-64 -151h-80z" />
    <glyph glyph-name="uni021B" unicode="&#x21b;" horiz-adv-x="385" 
d="M237 -5c-46.667 0 -83.168 12.6699 -109.501 38.0029s-39.5 65.333 -39.5 120v267h-69v84c10 3.33301 21.167 6.33301 33.5 9s24.166 4.66699 35.499 6v121l123 15v-135h143v-100h-144v-243c0 -28 5.33301 -47.5 16 -58.5s26.334 -16.5 47.001 -16.5
c6 0 12.833 0.333008 20.5 1s15.5 1.5 23.5 2.5s15.833 2.16699 23.5 3.5s13.834 2.66602 18.501 3.99902v-98c-8 -3.33301 -17.167 -6.33301 -27.5 -9s-21 -4.83398 -32 -6.50098s-21.833 -2.83398 -32.5 -3.50098s-20.667 -1 -30 -1zM183.999 -37.9971h107l-64 -151h-80z
" />
    <glyph glyph-name="uni0237" unicode="&#x237;" horiz-adv-x="278" 
d="M61 -197c-15.333 0 -31.833 1.33203 -49.5 3.99902s-34.167 7.33398 -49.5 14.001v104c16 -8 34 -12 54 -12c23.333 0 40.333 5.66699 51 17s16 32 16 62v528h124v-548c0 -54.667 -12.833 -96.5 -38.5 -125.5s-61.5 -43.5 -107.5 -43.5z" />
    <glyph glyph-name="circumflex" unicode="&#x2c6;" horiz-adv-x="392" 
d="M267 592l-62 59h-18l-62 -59h-117l118 128h140l118 -128h-117z" />
    <glyph glyph-name="caron" unicode="&#x2c7;" horiz-adv-x="392" 
d="M8 720h117l62 -59h18l62 59h117l-118 -128h-140z" />
    <glyph glyph-name="breve" unicode="&#x2d8;" horiz-adv-x="353" 
d="M115 720c0 -18.667 5.50098 -33.498 16.501 -44.498s26.167 -16.5 45.5 -16.5s34.333 5.5 45 16.5s16 25.833 16 44.5h104c0 -21.333 -3.83301 -40.833 -11.5 -58.5s-18.834 -32.834 -33.501 -45.501s-32 -22.5 -52 -29.5s-42.667 -10.5 -68 -10.5
c-50.667 0 -91 13.167 -121 39.5s-45 61.166 -45 104.499h104z" />
    <glyph glyph-name="dotaccent" unicode="&#x2d9;" horiz-adv-x="265" 
d="M131 601c-21.333 0 -38.833 6.16699 -52.5 18.5s-20.5 28.166 -20.5 47.499c0 20 6.83301 36.333 20.5 49s31.167 19 52.5 19c22 0 40.167 -6.33301 54.5 -19s21.5 -29 21.5 -49c0 -19.333 -7.16699 -35.166 -21.5 -47.499s-32.5 -18.5 -54.5 -18.5z" />
    <glyph glyph-name="ring" unicode="&#x2da;" horiz-adv-x="231" 
d="M116 573c-30 0 -54.5 8.66699 -73.5 26s-28.5 39 -28.5 65c0 28 9.5 50.833 28.5 68.5s43.5 26.5 73.5 26.5c29.333 0 53.333 -8.83301 72 -26.5s28 -40.5 28 -68.5c0 -26 -9.33301 -47.667 -28 -65s-42.667 -26 -72 -26zM115 628c11.333 0 20.666 3.5 27.999 10.5
s11 15.833 11 26.5c0 11.333 -3.66699 20.666 -11 27.999s-16.666 11 -27.999 11s-20.666 -3.66699 -27.999 -11s-11 -16.666 -11 -27.999c0 -10.667 3.66699 -19.5 11 -26.5s16.666 -10.5 27.999 -10.5z" />
    <glyph glyph-name="ogonek" unicode="&#x2db;" horiz-adv-x="208" 
d="M125 -179c-28 0 -50.1689 6.99902 -66.502 20.999s-24.5 33.667 -24.5 59c0 24.667 7.83301 48.834 23.5 72.501s36.834 44.5 63.501 62.5l46 -36c-17.333 -17.333 -29.666 -32.166 -36.999 -44.499s-11 -24.833 -11 -37.5c0 -20 8.66699 -30 26 -30
c3.33301 0 7 0.666992 11 2s7.66699 2.66602 11 3.99902v-67c-14 -4 -28 -6 -42 -6z" />
    <glyph glyph-name="tilde" unicode="&#x2dc;" horiz-adv-x="436" 
d="M23 659c12.667 22.667 29.5 40.001 50.5 52.001s43.5 18 67.5 18c15.333 0 29.833 -2.33301 43.5 -7s29.167 -10.667 46.5 -18c12 -6 24 -11.167 36 -15.5s24.667 -6.5 38 -6.5c15.333 0 28.666 3.16699 39.999 9.5s20.666 15.166 27.999 26.499l42 -57
c-13.333 -22.667 -30.333 -40 -51 -52s-42.667 -18 -66 -18c-14 0 -28 2.33301 -42 7s-30.333 11 -49 19c-13.333 6 -26 11 -38 15s-23.667 6 -35 6c-15.333 0 -29.166 -3.33301 -41.499 -10s-22.166 -15.667 -29.499 -27z" />
    <glyph glyph-name="hungarumlaut" unicode="&#x2dd;" horiz-adv-x="495" 
d="M86 732h113l-65 -154h-95zM251 732h113l-65 -154h-95z" />
    <glyph glyph-name="uni0326" unicode="&#x326;" horiz-adv-x="169" 
d="M40 -38h107l-64 -151h-80z" />
    </font>
</defs>
</svg>
