<svg xmlns="http://www.w3.org/2000/svg">
<defs>
<font id="MacPawFixelText-Light" horiz-adv-x="598" >
  <font-face 
    font-family="MacPaw Fixel Text Light"
    font-weight="300"
    font-stretch="semi-condensed"
    units-per-em="1000"
    panose-1="0 0 0 0 0 0 0 0 0 0"
    ascent="800"
    descent="-200"
    x-height="520"
    cap-height="700"
    bbox="-60 -203.001 1133 925"
    underline-thickness="50"
    underline-position="-75"
    unicode-range="U+000D-U+FB04"
  />
<missing-glyph horiz-adv-x="713" 
d="M198 619c-9.33301 -0.666992 -16.9971 1.33496 -22.9971 6.00195s-9.33301 10.667 -10 18c-1.33301 8 0.666992 14.667 6 20s12.666 8.66602 21.999 9.99902c10.667 1.33301 20.167 -0.333984 28.5 -5.00098s13.166 -10.667 14.499 -18
c0.666992 -7.33301 -2.83301 -14 -10.5 -20s-16.834 -9.66699 -27.501 -11zM121.003 427.002c-13.333 -1.33301 -25.498 1.3291 -36.498 7.99609s-16.833 14.667 -17.5 24c0 4.66699 1.16699 9.33398 3.5 14.001l7.5 15c2.66699 5.33301 5.16699 11.333 7.5 18
s3.16602 14 2.49902 22s-2.66699 15 -6 21s-7 11.333 -11 16s-7.66699 9.16699 -11 13.5s-5 8.83301 -5 13.5c-0.666992 8.66699 3.66602 17 12.999 25s19.666 12.667 30.999 14s23 -1.66699 35 -9s22.333 -17.666 31 -30.999c5.33301 -8 10.333 -14 15 -18l13 -11
c4 -3.33301 7.5 -6.66602 10.5 -9.99902s4.83301 -8.33301 5.5 -15s-0.166016 -12 -2.49902 -16s-5.33301 -8.16699 -9 -12.5l-12 -14.5c-4.33301 -5.33301 -8.5 -12.666 -12.5 -21.999c-12 -28 -29.333 -43 -52 -45zM253.005 550.997
c-11.333 -1.33301 -20.833 0.670898 -28.5 6.00391s-11.834 12.666 -12.501 21.999c-1.33301 9.33301 1.5 17.166 8.5 23.499s16.167 10.166 27.5 11.499c12.667 1.33301 24.167 -0.833984 34.5 -6.50098s16.166 -12.5 17.499 -20.5
c0.666992 -8.66699 -3.66602 -16.5 -12.999 -23.5s-20.666 -11.167 -33.999 -12.5zM260.005 470.001c-11.333 -1.33301 -20.668 0.667969 -28.001 6.00098s-11.333 12.666 -12 21.999c-1.33301 9.33301 1.33398 17 8.00098 23s15.667 9.66699 27 11

<glyph glyph-name="arrowleft" unicode="&#x3c;&#x2d;" horiz-adv-x="622" 
d="M47 328v12l198 199l36 -37l-149 -143h453v-49h-453l149 -144l-36 -36z" />
    <glyph glyph-name="arrowup" unicode="&#x2f;&#x7c;\" horiz-adv-x="476" 
d="M232 603.003h12l199 -197.988l-37 -35.9971l-143 148.99v-452.972h-49v452.972l-144 -148.99l-36 35.9971z" />
    <glyph glyph-name="arrowright" unicode="&#x2d;&#x3e;" horiz-adv-x="622" 
d="M575.003 328v12l-197.988 199l-35.9971 -37l148.99 -143h-452.972v-49h452.972l-148.99 -144l35.9971 -36z" />
    <glyph glyph-name="arrowdown" unicode="\&#x7c;&#x2f;" horiz-adv-x="476" 
d="M232 65.0342h12l199 197.976l-37 35.9961l-143 -148.982v452.945h-49v-452.945l-144 148.982l-36 -35.9961z" />
    <glyph glyph-name="uni2646" unicode="TRIDENT" horiz-adv-x="793" 
d="M420 406c0 -26.667 3.16504 -50.001 9.49805 -70.001s14.333 -38 24 -54s20 -31 31 -45s21.167 -28 30.5 -42c15.333 6.66699 28.166 13.834 38.499 21.501s15.5 18.167 15.5 31.5c0 16.667 -7.66699 29.667 -23 39s-35.666 14 -60.999 14v1
c0 38.667 3.83301 74.334 11.5 107.001s19.834 63.167 36.501 91.5s38 54.833 64 79.5s57 48.667 93 72v-652h-158c-21.333 -47.333 -58.666 -90.666 -111.999 -129.999v-60h-47v60c-53.333 40.667 -90.666 84 -111.999 130h-158v652c36.667 -23.333 68 -47.333 94 -72
s47.167 -51.167 63.5 -79.5s28.333 -58.833 36 -91.5s11.5 -68.334 11.5 -107.001v-1c-25.333 0 -45.5 -4.66699 -60.5 -14s-22.5 -22.333 -22.5 -39c0 -13.333 5 -23.833 15 -31.5s22.667 -14.834 38 -21.501l31.5 42c11 14 21.167 29 30.5 45s17.166 34 23.499 54
s9.5 43.333 9.5 70v314h47v-314zM642.998 46.999l-0.00195312 512.999c-34.667 -30 -60.334 -62.167 -77.001 -96.5s-27.667 -76.166 -33 -125.499c25.333 -3.33301 45.333 -12.833 60 -28.5s22 -35.834 22 -60.501c0 -13.333 -2.16699 -24.666 -6.5 -33.999
s-10.166 -17.5 -17.499 -24.5s-15.666 -13.167 -24.999 -18.5s-19.333 -10.333 -30 -15c4.66699 -10 8.33398 -20.833 11.001 -32.5s4 -24.5 4 -38.5c0 -14.667 -1.33301 -27.667 -4 -39h96zM245.996 46.998c-1.33301 6.66699 -2.33594 13.1689 -3.00293 19.502
s-1 12.833 -1 19.5c0 14 1.33301 26.833 4 38.5s6.33398 22.5 11.001 32.5c-10.667 4.66699 -20.667 9.66699 -30 15s-17.666 11.5 -24.999 18.5s-13.166 15.167 -17.499 24.5s-6.5 20.666 -6.5 33.999c0 24.667 7.33301 44.667 22 60s34.667 25 60 29
c-4.66699 49.333 -15.5 91.166 -32.5 125.499s-42.833 66.5 -77.5 96.5v-513h96zM321.993 176c14 -7.33301 27.6689 -15.666 41.002 -24.999s24.666 -22 33.999 -38c9.33301 16 20.5 28.667 33.5 38s26.833 17.666 41.5 24.999c-12 17.333 -24.833 34.833 -38.5 52.5
s-25.834 38.167 -36.501 61.5c-10.667 -23.333 -23 -43.833 -37 -61.5s-26.667 -35.167 -38 -52.5zM498.995 47c3.33301 14.667 5 27.667 5 39c0 17.333 -3.33301 34.333 -10 51c-18 -8.66699 -33.833 -19.667 -47.5 -33s-22.167 -32.333 -25.5 -57h78zM371.995 47
c-2.66699 24.667 -11 43.668 -25 57.001s-29.667 24.666 -47 33.999c-7.33301 -16.667 -11 -34 -11 -52c0 -12.667 2 -25.667 6 -39h77zM372.995 0.000976562l-58 0.000976562c18 -30 45.333 -59.333 82 -88c35.333 27.333 62.333 56.666 81 87.999h-58v-32h-47v32z" />
    <glyph glyph-name="uniE01A" unicode="MACPAWLOGO" horiz-adv-x="751" 
d="M333 654c-4.66699 -3.33301 -9.99902 -5 -15.999 -5c-8 0 -14 3.33301 -18 10c-7.33301 13.333 -3.33301 24.333 12 33c5.33301 3.33301 12 5 20 5c4 0 7.83301 -0.5 11.5 -1.5s6.16699 -3.16699 7.5 -6.5c3.33301 -5.33301 3.16602 -11.5 -0.500977 -18.5
s-9.16699 -12.5 -16.5 -16.5zM397.001 620c-6 -3.33301 -12.333 -5.00195 -19 -5.00195c-8.66699 0 -15.667 4 -21 12c-4 6.66699 -4.66699 13.334 -2 20.001s8 12.334 16 17.001c7.33301 4.66699 15.333 7 24 7c10 0 17 -3.33301 21 -10c3.33301 -6 3 -13 -1 -21
s-10 -14.667 -18 -20zM375.001 -0.00195312c-44.667 0 -86.9971 8.5 -126.997 25.5s-74.667 40.333 -104 70s-52.666 64.334 -69.999 104.001s-26 82.167 -26 127.5c0 33.333 4.83301 65.333 14.5 96s23.167 59.167 40.5 85.5s38.5 49.833 63.5 70.5
s52.833 37.334 83.5 50.001c10 4.66699 21.333 7 34 7c18 0 34.667 -5 50 -15s26.666 -23.667 33.999 -41s9.16602 -34.833 5.49902 -52.5s-11.834 -32.834 -24.501 -45.501c-4 -4 -8.33301 -7.5 -13 -10.5s-10.334 -6.16699 -17.001 -9.5
c-0.666992 -0.666992 -2.33398 -1.66699 -5.00098 -3l-10 -5c-23.333 -12 -41.666 -29.833 -54.999 -53.5s-20 -48.167 -20 -73.5c0 -20 3.83301 -39 11.5 -57s18 -33.5 31 -46.5s28.5 -23.333 46.5 -31s37 -11.5 57 -11.5c17.333 0 34 3 50 9s30.167 14.167 42.5 24.5
s23 22.5 32 36.5s15.167 29.333 18.5 46c1.33301 5.33301 2 10.333 2 15s0.333008 9.66699 1 15c2 25.333 10.667 46.666 26 63.999s36.666 26 63.999 26c25.333 0 46.833 -8.66699 64.5 -26s26.5 -38.666 26.5 -63.999c0 -45.333 -8.66699 -87.833 -26 -127.5
s-40.666 -74.334 -69.999 -104.001s-63.833 -53 -103.5 -70s-82.167 -25.5 -127.5 -25.5zM431.004 560.998c-6.66699 -4 -13 -6.00098 -19 -6.00098c-8.66699 0 -15.667 4 -21 12c-4 7.33301 -4.66699 14.333 -2 21s8 12.334 16 17.001c7.33301 4 15 6 23 6
c10.667 0 18 -3 22 -9c3.33301 -6 3 -13.167 -1 -21.5s-10 -14.833 -18 -19.5zM425.004 494.997c-4.66699 -3.33301 -10.333 -5 -17 -5c-8 0 -14 3.33301 -18 10c-3.33301 6 -3.83301 12 -1.5 18s7.16602 11 14.499 15c5.33301 3.33301 12 5 20 5
c9.33301 0 15.333 -2.66699 18 -8c3.33301 -5.33301 3.33301 -11.5 0 -18.5s-8.66602 -12.5 -15.999 -16.5z" />
    <glyph glyph-name="f_f" unicode="ff" horiz-adv-x="584" 
d="M88 467h-62v38c9.33301 3.33301 19.5 6 30.5 8s21.5 3.66699 31.5 5v44c0 49.333 12 87.833 36 115.5s56.667 41.5 98 41.5c15.333 0 31.333 -1.83301 48 -5.5s31 -9.16699 43 -16.5l-3 -50c-24.667 12 -51 18 -79 18s-49.5 -8.66699 -64.5 -26s-22.5 -44 -22.5 -80v-39
h197v42c0 49.333 12 87.833 36 115.5s56.667 41.5 98 41.5c15.333 0 31.333 -1.83301 48 -5.5s31 -9.16699 43 -16.5l-3 -50c-24.667 12 -51 18 -79 18s-49.5 -8.66699 -64.5 -26s-22.5 -44 -22.5 -80v-39h154v-53h-154v-467h-56v467h-197v-467h-56v467z" />
    <glyph glyph-name="fi" unicode="fi" horiz-adv-x="487" 
d="M88 467h-62v38c9.33301 3.33301 19.5 6 30.5 8s21.5 3.66699 31.5 5v44c0 49.333 11.833 87.833 35.5 115.5s55.834 41.5 96.501 41.5c15.333 0 31.166 -1.83301 47.499 -5.5s30.5 -9.16699 42.5 -16.5l-3 -50c-24.667 12 -50.667 18 -78 18s-48.333 -8.66699 -63 -26
s-22 -44 -22 -80v-39h255v-520h-56v467h-199v-467h-56v467zM371 630c-11.333 0 -20.833 3.83301 -28.5 11.5s-11.5 17.167 -11.5 28.5s3.83301 21 11.5 29s17.167 12 28.5 12s20.833 -4 28.5 -12s11.5 -17.667 11.5 -29s-3.83301 -20.833 -11.5 -28.5
s-17.167 -11.5 -28.5 -11.5z" />
    <glyph glyph-name="fl" unicode="fl" horiz-adv-x="488" 
d="M344 636c-13.333 7.33301 -29.333 14.002 -48 20.002s-39.667 9 -63 9c-28 0 -49.833 -8.66699 -65.5 -26s-23.5 -44 -23.5 -80v-39h155v-53h-155v-467h-56v467h-62v38c9.33301 3.33301 19.5 6.16602 30.5 8.49902s21.5 4.16602 31.5 5.49902v43
c0 49.333 12.5 87.833 37.5 115.5s58.833 41.5 101.5 41.5c34 0 66.5 -5.66699 97.5 -17s56.167 -23 75.5 -35v-667h-56v636z" />
    <glyph glyph-name="f_f_i" unicode="ffi" horiz-adv-x="740" 
d="M596 467h-198.999v-467h-56v467h-197v-467h-56v467h-62v38c9.33301 3.33301 19.5 6 30.5 8s21.5 3.66699 31.5 5v44c0 49.333 12 87.833 36 115.5s56.667 41.5 98 41.5c15.333 0 31.333 -1.83301 48 -5.5s31 -9.16699 43 -16.5l-3 -50c-24.667 12 -51 18 -79 18
s-49.5 -8.66699 -64.5 -26s-22.5 -44 -22.5 -80v-39h197v42c0 49.333 11.833 87.833 35.5 115.5s55.834 41.5 96.501 41.5c15.333 0 31.166 -1.83301 47.499 -5.5s30.166 -9.16699 41.499 -16.5l-2 -50c-26 12 -52 18 -78 18c-56.667 0 -85 -35.333 -85 -106v-39h255v-520
h-56v467zM624.001 630c-11.333 0 -20.666 3.83301 -27.999 11.5s-11 17.167 -11 28.5s3.66699 21 11 29s16.666 12 27.999 12s20.833 -4 28.5 -12s11.5 -17.667 11.5 -29s-3.83301 -20.833 -11.5 -28.5s-17.167 -11.5 -28.5 -11.5z" />
    <glyph glyph-name="f_f_l" unicode="ffl" horiz-adv-x="741" 
d="M88 467h-62v38c9.33301 3.33301 19.5 6 30.5 8s21.5 3.66699 31.5 5v44c0 49.333 12 87.833 36 115.5s56.667 41.5 98 41.5c15.333 0 31.333 -1.83301 48 -5.5s31 -9.16699 43 -16.5l-3 -50c-24.667 12 -51 18 -79 18s-49.5 -8.66699 -64.5 -26s-22.5 -44 -22.5 -80v-39
h197v42c0 49.333 12.5 87.833 37.5 115.5s58.833 41.5 101.5 41.5c34 0 66.333 -5.66699 97 -17s55.667 -23 75 -35v-667h-56v636c-12.667 7.33301 -28.5 14 -47.5 20s-39.833 9 -62.5 9c-28.667 0 -50.667 -8.66699 -66 -26s-23 -44 -23 -80v-39h154v-53h-154v-467h-56v467
h-197v-467h-56v467z" />
    <glyph glyph-name="uniE000" unicode="&#x457;&#x457;" horiz-adv-x="465" 
d="M48 632c-10.667 0 -19.5 3.5 -26.5 10.5s-10.5 16.167 -10.5 27.5s3.5 20.666 10.5 27.999s15.833 11 26.5 11s19.667 -3.66699 27 -11s11 -16.666 11 -27.999s-3.66699 -20.5 -11 -27.5s-16.333 -10.5 -27 -10.5zM233 632c-10.667 0 -19.667 3.5 -27 10.5
s-11 16.167 -11 27.5s3.66699 20.666 11 27.999s16.333 11 27 11s19.5 -3.66699 26.5 -11s10.5 -16.666 10.5 -27.999s-3.5 -20.5 -10.5 -27.5s-15.833 -10.5 -26.5 -10.5zM417 632c-10.667 0 -19.667 3.5 -27 10.5s-11 16.167 -11 27.5s3.66699 20.666 11 27.999
s16.333 11 27 11s19.5 -3.66699 26.5 -11s10.5 -16.666 10.5 -27.999s-3.5 -20.5 -10.5 -27.5s-15.833 -10.5 -26.5 -10.5zM88 520h56v-520h-56v520zM321 520h56v-520h-56v520z" />
    <glyph glyph-name=".notdef" horiz-adv-x="713" 
d="M198 619c-9.33301 -0.666992 -16.9971 1.33496 -22.9971 6.00195s-9.33301 10.667 -10 18c-1.33301 8 0.666992 14.667 6 20s12.666 8.66602 21.999 9.99902c10.667 1.33301 20.167 -0.333984 28.5 -5.00098s13.166 -10.667 14.499 -18
c0.666992 -7.33301 -2.83301 -14 -10.5 -20s-16.834 -9.66699 -27.501 -11zM121.003 427.002c-13.333 -1.33301 -25.498 1.3291 -36.498 7.99609s-16.833 14.667 -17.5 24c0 4.66699 1.16699 9.33398 3.5 14.001l7.5 15c2.66699 5.33301 5.16699 11.333 7.5 18
s3.16602 14 2.49902 22s-2.66699 15 -6 21s-7 11.333 -11 16s-7.66699 9.16699 -11 13.5s-5 8.83301 -5 13.5c-0.666992 8.66699 3.66602 17 12.999 25s19.666 12.667 30.999 14s23 -1.66699 35 -9s22.333 -17.666 31 -30.999c5.33301 -8 10.333 -14 15 -18l13 -11
c4 -3.33301 7.5 -6.66602 10.5 -9.99902s4.83301 -8.33301 5.5 -15s-0.166016 -12 -2.49902 -16s-5.33301 -8.16699 -9 -12.5l-12 -14.5c-4.33301 -5.33301 -8.5 -12.666 -12.5 -21.999c-12 -28 -29.333 -43 -52 -45zM253.005 550.997
c-11.333 -1.33301 -20.833 0.670898 -28.5 6.00391s-11.834 12.666 -12.501 21.999c-1.33301 9.33301 1.5 17.166 8.5 23.499s16.167 10.166 27.5 11.499c12.667 1.33301 24.167 -0.833984 34.5 -6.50098s16.166 -12.5 17.499 -20.5
c0.666992 -8.66699 -3.66602 -16.5 -12.999 -23.5s-20.666 -11.167 -33.999 -12.5zM260.005 470.001c-11.333 -1.33301 -20.668 0.667969 -28.001 6.00098s-11.333 12.666 -12 21.999c-1.33301 9.33301 1.33398 17 8.00098 23s15.667 9.66699 27 11
c12.667 1.33301 24 -0.666992 34 -6s15.333 -12.333 16 -21c1.33301 -8 -2.66699 -15.5 -12 -22.5s-20.333 -11.167 -33 -12.5zM217.003 401.002c-9.33301 -0.666992 -17 1.33496 -23 6.00195s-9.33301 11 -10 19c-1.33301 7.33301 0.833984 13.666 6.50098 18.999
s13.167 8.66602 22.5 9.99902c10.667 1.33301 20.167 -0.5 28.5 -5.5s12.833 -11.167 13.5 -18.5s-2.83301 -13.833 -10.5 -19.5s-16.834 -9.16699 -27.501 -10.5zM563.003 245.004c-9.33301 1.33301 -16.6689 4.66797 -22.002 10.001s-7.66602 11.666 -6.99902 18.999
c0.666992 8 4 14.333 10 19s13.667 6.66699 23 6c10.667 -1.33301 19.834 -4.83301 27.501 -10.5s11.167 -12.167 10.5 -19.5s-5.16699 -13.5 -13.5 -18.5s-17.833 -6.83301 -28.5 -5.5zM450 70.0059c-12 1.33301 -22.668 5.83398 -32.001 13.501
s-13.666 15.834 -12.999 24.501c0 4.66699 1.66699 9.16699 5 13.5l11 14c4 5 7.66699 10.5 11 16.5s5.33301 13 6 21s-0.166016 15.333 -2.49902 22s-5 12.667 -8 18s-5.66699 10.333 -8 15s-3.16602 9.33398 -2.49902 14.001c1.33301 8.66699 7.16602 16.167 17.499 22.5
s22.166 9.16602 35.499 8.49902c22.667 -0.666992 40.667 -15.334 54 -44.001c4 -9.33301 8.16699 -16.666 12.5 -21.999l12 -14.5c3.66699 -4.33301 6.5 -8.5 8.5 -12.5s2.66699 -9.33301 2 -16s-2.16699 -11.834 -4.5 -15.501s-5.5 -7.33398 -9.5 -11.001
s-8.5 -7.5 -13.5 -11.5s-10.167 -9.66699 -15.5 -17c-9.33301 -12.667 -19.833 -22.667 -31.5 -30s-23.167 -10.333 -34.5 -9zM604.999 169.007c-11.333 1.33301 -20.3359 5.00098 -27.0029 11.001s-9.66699 13.667 -9 23c1.33301 9.33301 5.83301 16.666 13.5 21.999
s17.167 7.33301 28.5 6c12.667 -1.33301 23.834 -5.5 33.501 -12.5s13.834 -14.833 12.501 -23.5c-0.666992 -8 -6.16699 -14.667 -16.5 -20s-22.166 -7.33301 -35.499 -6zM597.996 87.0078c-11.333 1.33301 -20.3311 5.16992 -26.998 11.5029
s-9.33398 14.166 -8.00098 23.499s5.5 16.666 12.5 21.999s16.167 7.33301 27.5 6c12.667 -1.33301 23.667 -5.5 33 -12.5s13.666 -14.833 12.999 -23.5c-1.33301 -8 -7 -14.833 -17 -20.5s-21.333 -7.83398 -34 -6.50098zM543.998 27.0117
c-9.33301 1.33301 -16.668 4.66895 -22.001 10.002s-7.66602 12 -6.99902 20s4.16699 14.167 10.5 18.5s14.166 6.16602 23.499 5.49902c10.667 -1.33301 19.834 -5 27.501 -11s10.834 -12.667 9.50098 -20c-0.666992 -7.33301 -5.33398 -13.333 -14.001 -18
s-18 -6.33398 -28 -5.00098z" />
    <glyph glyph-name=".null" horiz-adv-x="0" 
 />
    <glyph glyph-name=".null" horiz-adv-x="0" 
 />
    <glyph glyph-name="uni000D" unicode="&#xd;" horiz-adv-x="250" 
 />
    <glyph glyph-name="space" unicode=" " horiz-adv-x="277" 
 />
    <glyph glyph-name="exclam" unicode="!" horiz-adv-x="257" 
d="M97 454v246h63v-246l-8 -262h-47zM128 -7c-12.667 0 -23.167 4.16699 -31.5 12.5s-12.5 18.5 -12.5 30.5v3c0 11.333 4.16699 21.166 12.5 29.499s18.833 12.5 31.5 12.5s23.5 -4.16699 32.5 -12.5s13.5 -18.166 13.5 -29.499v-3c0 -12 -4.5 -22.167 -13.5 -30.5
s-19.833 -12.5 -32.5 -12.5z" />
    <glyph glyph-name="quotedbl" unicode="&#x22;" horiz-adv-x="328" 
d="M63 594v106h56v-106l-7 -139h-41zM209 594v106h56v-106l-7 -139h-42z" />
    <glyph glyph-name="numbersign" unicode="#" horiz-adv-x="788" 
d="M171 194h-131v57h149l67 208h-131v57h149l58 184h63l-58 -184h219l58 184h63l-58 -184h129v-57h-148l-66 -208h129v-57h-147l-62 -194h-63l62 194h-219l-62 -194h-63zM471 251l66 208h-219l-66 -208h219z" />
    <glyph glyph-name="dollar" unicode="$" horiz-adv-x="566" 
d="M253 22c-42 4.66699 -81.165 15.5039 -117.498 32.5039s-67.166 39.167 -92.499 66.5l38 45c25.333 -26.667 57.166 -47.834 95.499 -63.501s78.166 -23.5 119.499 -23.5c50 0 89.833 10.5 119.5 31.5s44.5 49.5 44.5 85.5c0 22 -5.33301 40.5 -16 55.5
s-24.834 27.833 -42.501 38.5s-37.834 19.667 -60.501 27s-46 14.333 -70 21c-34 9.33301 -64 19.333 -90 30s-47.833 22.834 -65.5 36.501s-31 29.167 -40 46.5s-13.5 37.666 -13.5 60.999c0 22.667 4.33301 43.5 13 62.5s21 35.667 37 50s35.167 26.166 57.5 35.499
s46.833 15.333 73.5 18v97h56v-96c38.667 -3.33301 75 -12 109 -26s63 -33.667 87 -59l-37 -46c-21.333 23.333 -48.5 41.333 -81.5 54s-68.5 19 -106.5 19c-44 0 -79.5 -9.66699 -106.5 -29s-40.5 -44.666 -40.5 -75.999c0 -16 3.66699 -29.833 11 -41.5
s18.333 -22.334 33 -32.001s33 -18.5 55 -26.5s47.333 -16.333 76 -25c36 -10.667 68 -21.834 96 -33.501s51.5 -24.834 70.5 -39.501s33.333 -31.5 43 -50.5s14.5 -41.167 14.5 -66.5s-5.16699 -48.833 -15.5 -70.5s-24.833 -40.334 -43.5 -56.001
s-41.167 -28.167 -67.5 -37.5s-55.166 -14.666 -86.499 -15.999v-96h-56v97z" />
    <glyph glyph-name="percent" unicode="%" horiz-adv-x="810" 
d="M208 339c-23.333 0 -44.5 4.33301 -63.5 13s-35.333 20.834 -49 36.501s-24.334 34.334 -32.001 56.001s-11.5 45.5 -11.5 71.5v14c0 26 3.83301 49.833 11.5 71.5s18.334 40.334 32.001 56.001s30 27.834 49 36.501s40.167 13 63.5 13h2
c23.333 0 44.5 -4.33301 63.5 -13s35.333 -20.834 49 -36.501s24.334 -34.334 32.001 -56.001s11.5 -45.5 11.5 -71.5v-14c0 -26 -3.83301 -49.833 -11.5 -71.5s-18.334 -40.334 -32.001 -56.001s-30 -27.834 -49 -36.501s-40.167 -13 -63.5 -13h-2zM637 700h73l-536 -700
h-73zM210 392c30 0 54.167 11.5 72.5 34.5s27.5 52.833 27.5 89.5v14c0 36.667 -9.16699 66.5 -27.5 89.5s-42.5 34.5 -72.5 34.5h-2c-30 0 -54.167 -11.5 -72.5 -34.5s-27.5 -52.833 -27.5 -89.5v-14c0 -36.667 9.16699 -66.5 27.5 -89.5s42.5 -34.5 72.5 -34.5h2zM600 -7
c-23.333 0 -44.5 4.33301 -63.5 13s-35.333 20.834 -49 36.501s-24.334 34.334 -32.001 56.001s-11.5 45.5 -11.5 71.5v14c0 26 3.83301 49.833 11.5 71.5s18.334 40.334 32.001 56.001s30 27.834 49 36.501s40.167 13 63.5 13h2c23.333 0 44.666 -4.33301 63.999 -13
s35.833 -20.834 49.5 -36.501s24.334 -34.334 32.001 -56.001s11.5 -45.5 11.5 -71.5v-14c0 -26 -3.83301 -49.833 -11.5 -71.5s-18.334 -40.334 -32.001 -56.001s-30.167 -27.834 -49.5 -36.501s-40.666 -13 -63.999 -13h-2zM602 46c30 0 54.333 11.5 73 34.5
s28 52.833 28 89.5v14c0 36.667 -9.33301 66.5 -28 89.5s-43 34.5 -73 34.5h-2c-30 0 -54.167 -11.5 -72.5 -34.5s-27.5 -52.833 -27.5 -89.5v-14c0 -36.667 9.16699 -66.5 27.5 -89.5s42.5 -34.5 72.5 -34.5h2z" />
    <glyph glyph-name="ampersand" unicode="&#x26;" horiz-adv-x="709" 
d="M287 -8c-35.333 0 -67.499 4.5 -96.499 13.5s-53.667 22 -74 39s-36 37.333 -47 61s-16.5 50.167 -16.5 79.5c0 25.333 4.5 48.666 13.5 69.999s21 40.333 36 57s32.333 31.167 52 43.5s40.5 22.5 62.5 30.5l-38 42.5c-11.333 12.333 -21 24.666 -29 36.999
s-14 25.166 -18 38.499s-6 28.666 -6 45.999c0 24 4.33301 45.667 13 65s20.834 35.833 36.501 49.5s34.5 24.334 56.5 32.001s46.333 11.5 73 11.5c26 0 49.667 -3.66699 71 -11s39.666 -17.833 54.999 -31.5s27.166 -30.167 35.499 -49.5s12.5 -40.666 12.5 -63.999
c0 -39.333 -14.5 -74.833 -43.5 -106.5s-69.833 -57.5 -122.5 -77.5l189 -205c13.333 22 24.166 47.333 32.499 76s12.5 59.334 12.5 92.001v45h58v-57c0 -36.667 -5.66699 -72.667 -17 -108s-25.666 -65.666 -42.999 -90.999l109 -120h-83l-69 74
c-28 -25.333 -59.833 -45.333 -95.5 -60s-75.5 -22 -119.5 -22zM275.001 409c26.667 11.333 48.999 22.166 66.999 32.499s32.333 21 43 32s18.334 22.333 23.001 34s7 24.834 7 39.501c0 31.333 -9.83301 56.166 -29.5 74.499s-46.5 27.5 -80.5 27.5s-61.667 -9 -83 -27
s-32 -42 -32 -72c-0.666992 -23.333 7 -45.666 23 -66.999s36.667 -46 62 -74zM255 344c-42 -15.333 -75.666 -35.166 -100.999 -59.499s-38 -56.5 -38 -96.5c0 -42.667 15.167 -76.334 45.5 -101.001s72.166 -37 125.499 -37c36 0 68.833 5.83301 98.5 17.5
s55.5 28.167 77.5 49.5z" />
    <glyph glyph-name="quotesingle" unicode="'" horiz-adv-x="183" 
d="M63 594v106h56v-106l-7 -139h-41z" />
    <glyph glyph-name="parenleft" unicode="(" horiz-adv-x="290" 
d="M218 -165c-22 28.667 -41.835 60.502 -59.502 95.502s-32.667 71.833 -45 110.5s-22 78 -29 118s-10.5 79 -10.5 117c0 38.667 3.33301 78.167 10 118.5s16.334 79.666 29.001 117.999s27.834 75.166 45.501 110.499s37.5 67.333 59.5 96l39 -22
c-18.667 -29.333 -35.5 -61 -50.5 -95s-27.667 -69 -38 -105s-18.166 -72.667 -23.499 -110s-8 -74 -8 -110s2.66699 -72.667 8 -110s13.166 -74 23.499 -110s23 -71 38 -105s31.833 -65.667 50.5 -95z" />
    <glyph glyph-name="parenright" unicode=")" horiz-adv-x="290" 
d="M33 -143c18.667 29.333 35.501 60.998 50.501 94.998s27.667 69 38 105s18.166 72.667 23.499 110s8 74 8 110s-2.66699 72.667 -8 110s-13.166 74 -23.499 110s-22.833 71 -37.5 105s-31.334 65.667 -50.001 95l38 22c22 -28.667 42 -60.667 60 -96
s33.167 -72.166 45.5 -110.499s22 -77.666 29 -117.999s10.5 -79.833 10.5 -118.5c0 -38 -3.5 -77 -10.5 -117s-16.667 -79.333 -29 -118s-27.5 -75.5 -45.5 -110.5s-38 -66.833 -60 -95.5z" />
    <glyph glyph-name="asterisk" unicode="*" horiz-adv-x="450" 
d="M201 437l5 45l-38 -27l-88 -51l-24 42l89 51l42 19l-42 18l-89 52l24 41l88 -51l38 -27l-5 45v101h48v-100l-5 -46l38 27l88 51l24 -42l-88 -50l-42 -20l42 -19l88 -51l-24 -41l-88 51l-38 27l5 -46v-100h-48v101z" />
    <glyph glyph-name="plus" unicode="+" horiz-adv-x="590" 
d="M268 299h-215v52h215v222h54v-222h215v-52h-215v-222h-54v222z" />
    <glyph glyph-name="comma" unicode="," horiz-adv-x="208" 
d="M86 92h73l-80 -214h-48z" />
    <glyph glyph-name="hyphen" unicode="-" horiz-adv-x="450" 
d="M68 335h314v-52h-314v52z" />
    <glyph glyph-name="period" unicode="." horiz-adv-x="209" 
d="M104 -7c-12.667 0 -23.334 4.33301 -32.001 13s-13 19.334 -13 32.001v2c0 12 4.33301 22.333 13 31s19.334 13 32.001 13s23.5 -4.33301 32.5 -13s13.5 -19 13.5 -31v-2c0 -12.667 -4.5 -23.334 -13.5 -32.001s-19.833 -13 -32.5 -13z" />
    <glyph glyph-name="slash" unicode="/" horiz-adv-x="302" 
d="M206 720h58l-169 -831h-57z" />
    <glyph glyph-name="zero" unicode="0" horiz-adv-x="619" 
d="M309 -7c-39.333 0 -74.832 8.33301 -106.499 25s-58.667 40.5 -81 71.5s-39.5 68.5 -51.5 112.5s-18 93.333 -18 148s6 104 18 148s29.167 81.5 51.5 112.5s49.333 54.833 81 71.5s67.167 25 106.5 25s75 -8.33301 107 -25s59.167 -40.5 81.5 -71.5
s39.5 -68.5 51.5 -112.5s18 -93.333 18 -148c0 -54 -6 -103 -18 -147s-29.333 -81.5 -52 -112.5s-49.834 -55 -81.501 -72s-67.167 -25.5 -106.5 -25.5zM309.001 51c30.667 0 57.999 6.83203 81.999 20.499s44.333 33.334 61 59.001s29.5 57 38.5 94s13.5 78.833 13.5 125.5
c0 94 -17.167 167.333 -51.5 220s-82.166 79 -143.499 79s-109.166 -26.333 -143.499 -79s-51.5 -126 -51.5 -220s17.167 -167.333 51.5 -220s82.166 -79 143.499 -79z" />
    <glyph glyph-name="one" unicode="1" horiz-adv-x="378" 
d="M275 700l-0.00195312 -699.998h-60v565c-21.333 -27.333 -48.166 -48.833 -80.499 -64.5s-66.166 -23.834 -101.499 -24.501v55c24 1.33301 47 6.66602 69 15.999s41.333 21.5 58 36.5s30 32.5 40 52.5s15 41.333 15 64h60z" />
    <glyph glyph-name="two" unicode="2" horiz-adv-x="549" 
d="M48 56c42 28 83.334 58 124.001 90s78 64.333 112 97c47.333 44.667 82.833 88.167 106.5 130.5s35.5 84.5 35.5 126.5c0 44.667 -13.833 80.834 -41.5 108.501s-63.834 41.5 -108.501 41.5c-46 0 -84.5 -15 -115.5 -45s-51.833 -72 -62.5 -126l-55 17
c5.33301 33.333 14.833 63 28.5 89s30.667 48.167 51 66.5s43.5 32.333 69.5 42s54.333 14.5 85 14.5c31.333 0 60 -5 86 -15s48.333 -23.833 67 -41.5s33 -39 43 -64s15 -52.5 15 -82.5c0 -30.667 -5.16699 -60.667 -15.5 -90s-24.333 -57.833 -42 -85.5
s-38 -54.334 -61 -80.001s-47.167 -50 -72.5 -73s-51 -44.5 -77 -64.5l-74 -55h360v-57h-458v56z" />
    <glyph glyph-name="three" unicode="3" horiz-adv-x="599" 
d="M287 -8c-30 0 -58.334 3.83105 -85.001 11.498s-50.667 18.5 -72 32.5s-39.5 31 -54.5 51s-26.167 42.333 -33.5 67l56 17c15.333 -40 39.5 -70.167 72.5 -90.5s72.5 -30.5 118.5 -30.5c28 0 53.333 4.33301 76 13s42 20.834 58 36.501s28.333 34.667 37 57
s13 46.833 13 73.5c0 50 -14.5 89 -43.5 117s-69.5 42 -121.5 42c-39.333 0 -76 -8.66699 -110 -26l-23 43l247 237h-346v57h424v-54l-217 -211c5.33301 2 12.5 3.5 21.5 4.5s16.167 1.5 21.5 1.5c30 0.666992 57.833 -4 83.5 -14s47.834 -24.333 66.501 -43
s33.334 -41.167 44.001 -67.5s16 -56.166 16 -89.499c0 -34.667 -6 -66.5 -18 -95.5s-28.833 -53.833 -50.5 -74.5s-47.834 -36.667 -78.501 -48s-64.667 -17 -102 -17z" />
    <glyph glyph-name="four" unicode="4" horiz-adv-x="575" 
d="M381 153h-356v61l317 486h99v-490h99v-57h-99v-153h-60v153zM381 210v434h-9l-280 -427v-7h289z" />
    <glyph glyph-name="five" unicode="5" horiz-adv-x="579" 
d="M291 -8c-60 0 -111.502 14.3311 -154.502 42.998s-71.833 68.334 -86.5 119.001l57 17c14 -40 37.5 -70.167 70.5 -90.5s71.5 -30.5 115.5 -30.5c58.667 0 103.834 16.5 135.501 49.5s47.5 75.833 47.5 128.5c0 52 -15.167 92.833 -45.5 122.5s-71.5 44.5 -123.5 44.5
c-34.667 0 -66.667 -6.5 -96 -19.5s-54.666 -31.167 -75.999 -54.5l-55 16l42 363h371v-57h-319l-31 -252c22.667 19.333 48.834 34.333 78.501 45s61.5 16 95.5 16c33.333 0 63.666 -5.16699 90.999 -15.5s50.666 -25 69.999 -44s34.333 -42.167 45 -69.5
s16 -57.666 16 -90.999c0 -35.333 -6 -67.833 -18 -97.5s-28.833 -55 -50.5 -76s-47.667 -37.333 -78 -49s-64.166 -17.5 -101.499 -17.5z" />
    <glyph glyph-name="six" unicode="6" horiz-adv-x="615" 
d="M484 531c-13.333 38 -34.333 67.167 -63 87.5s-62 30.5 -100 30.5c-32 0 -60.833 -7.16699 -86.5 -21.5s-47.334 -34.833 -65.001 -61.5s-31.334 -58.834 -41.001 -96.501s-14.5 -79.834 -14.5 -126.501c0 -10.667 1 -21 3 -31c16.667 43.333 44.334 77 83.001 101
s82 36 130 36c30.667 0 60 -5 88 -15s52.667 -24.5 74 -43.5s38.333 -42.5 51 -70.5s19 -60 19 -96c0 -34 -6 -65.167 -18 -93.5s-28.833 -52.666 -50.5 -72.999s-47.5 -36.166 -77.5 -47.499s-63 -17 -99 -17c-84 0 -148.833 30.167 -194.5 90.5s-68.5 145.833 -68.5 256.5
c0 56.667 6.16699 107.667 18.5 153s30 83.833 53 115.5s50.833 56 83.5 73s69.667 25.5 111 25.5c53.333 0 99.333 -14 138 -42s66.334 -67 83.001 -117zM129 213c13.333 -53.333 35.666 -93.667 66.999 -121s71 -41 119 -41c27.333 0 52.333 4.33301 75 13
s42 20.667 58 36s28.5 33.666 37.5 54.999s13.5 45 13.5 71c0 25.333 -4.16699 48.166 -12.5 68.499s-20 37.666 -35 51.999s-33.167 25.5 -54.5 33.5s-44.666 12 -69.999 12c-26.667 0 -52 -4.16699 -76 -12.5s-45 -20.166 -63 -35.499s-32.333 -34.166 -43 -56.499
s-16 -47.166 -16 -74.499z" />
    <glyph glyph-name="seven" unicode="7" horiz-adv-x="479" 
d="M389 635v8h-366v57h432v-57l-289 -643h-68z" />
    <glyph glyph-name="eight" unicode="8" horiz-adv-x="606" 
d="M303 -8c-38 0 -72.3311 4.66699 -102.998 14s-57 22.666 -79 39.999s-38.833 38.333 -50.5 63s-17.5 52 -17.5 82c0 44.667 12.833 82.834 38.5 114.501s61.167 54.167 106.5 67.5c-36 13.333 -64.167 33.666 -84.5 60.999s-30.5 60 -30.5 98
c0 27.333 5.16699 51.833 15.5 73.5s25 40 44 55s42.167 26.667 69.5 35s57.666 12.5 90.999 12.5s63.666 -4.16699 90.999 -12.5s50.5 -20 69.5 -35s33.667 -33.333 44 -55s15.5 -46.167 15.5 -73.5c0 -38 -10.167 -70.667 -30.5 -98s-48.5 -47.666 -84.5 -60.999
c45.333 -13.333 80.833 -35.833 106.5 -67.5s38.5 -69.834 38.5 -114.501c0 -30 -5.83301 -57.333 -17.5 -82s-28.5 -45.667 -50.5 -63s-48.333 -30.666 -79 -39.999s-65 -14 -103 -14zM303.002 398c48.667 0 87 11.167 115 33.5s42 53.166 42 92.499
s-13.833 70.166 -41.5 92.499s-66.167 33.5 -115.5 33.5c-48.667 0 -87 -11.167 -115 -33.5s-42 -53.166 -42 -92.499s14 -70.166 42 -92.499s66.333 -33.5 115 -33.5zM303.002 51c58.667 0 104.5 12.833 137.5 38.5s49.5 61.167 49.5 106.5s-16.5 81 -49.5 107
s-78.833 39 -137.5 39s-104.667 -13 -138 -39s-50 -61.667 -50 -107c0 -46 16.667 -81.667 50 -107s79.333 -38 138 -38z" />
    <glyph glyph-name="nine" unicode="9" horiz-adv-x="615" 
d="M131.029 169.032c13.333 -37.9971 34.3359 -67.1592 63.001 -87.4912s61.9961 -30.498 99.9932 -30.498c31.998 0 60.8301 7.16602 86.4951 21.498c25.665 14.333 47.3301 34.832 64.9961 61.4971c17.665 26.665 31.3311 58.8301 40.9971 96.4941
c9.66602 37.665 14.499 79.8291 14.499 126.492c0 10.666 -1 20.999 -3 30.999c-16.665 -43.3311 -44.3301 -76.9961 -82.9951 -100.995c-38.6641 -23.999 -81.9941 -35.998 -129.991 -35.998c-30.665 0 -59.9971 5 -87.9961 14.999
c-27.998 9.99902 -52.6631 24.498 -73.9951 43.4971s-38.3311 42.498 -50.9971 70.4961s-18.999 59.9961 -18.999 95.9941c0 33.998 6 65.1631 17.999 93.4941c11.999 28.332 28.8311 52.6641 50.4961 72.9961s47.4971 36.1641 77.4951 47.4971
s62.9961 16.999 98.9941 16.999c83.9951 0 148.824 -30.165 194.488 -90.4951c45.6631 -60.3291 68.4951 -145.824 68.4951 -256.484c0 -56.6631 -6.16602 -107.66 -18.499 -152.991c-12.332 -45.3311 -29.9971 -83.8291 -52.9961 -115.494
s-50.8311 -55.9971 -83.4961 -72.9961s-69.6631 -25.499 -110.994 -25.499c-53.3301 0 -99.3271 13.999 -137.991 41.998c-38.665 27.998 -66.3301 66.9951 -82.9951 116.992zM486.012 487.016c-13.333 53.3301 -35.665 93.6602 -66.9961 120.992
c-31.3311 27.3311 -70.9951 40.9971 -118.992 40.9971c-27.332 0 -52.3311 -4.33301 -74.9961 -12.999s-41.9971 -20.665 -57.9961 -35.998c-15.999 -15.332 -28.498 -33.6641 -37.498 -54.9961c-8.99902 -21.332 -13.499 -44.9971 -13.499 -70.9961
c0 -25.332 4.16602 -48.1641 12.499 -68.4961s19.999 -37.6641 34.998 -51.9961c14.999 -14.333 33.165 -25.499 54.4971 -33.498c21.332 -8 44.6641 -12 69.9951 -12c26.665 0 51.9971 4.16699 75.9961 12.5c23.998 8.33301 44.9971 20.166 62.9961 35.499
c17.999 15.332 32.3311 34.1641 42.9971 56.4961s15.999 47.1641 15.999 74.4951z" />
    <glyph glyph-name="colon" unicode=":" horiz-adv-x="209" 
d="M104 -7c-12.667 0 -23.334 4.33301 -32.001 13s-13 19.334 -13 32.001v2c0 12 4.33301 22.333 13 31s19.334 13 32.001 13s23.5 -4.33301 32.5 -13s13.5 -19 13.5 -31v-2c0 -12.667 -4.5 -23.334 -13.5 -32.001s-19.833 -13 -32.5 -13zM104 362
c-12.667 0 -23.334 4.33301 -32.001 13s-13 19.334 -13 32.001v2c0 12 4.33301 22.333 13 31s19.334 13 32.001 13s23.5 -4.33301 32.5 -13s13.5 -19 13.5 -31v-2c0 -12.667 -4.5 -23.334 -13.5 -32.001s-19.833 -13 -32.5 -13z" />
    <glyph glyph-name="semicolon" unicode=";" horiz-adv-x="218" 
d="M113 362c-12.667 0 -23.334 4.33301 -32.001 13s-13 19.334 -13 32.001v2c0 12 4.33301 22.333 13 31s19.334 13 32.001 13c13.333 0 24.333 -4.33301 33 -13s13 -19 13 -31v-2c0 -12.667 -4.33301 -23.334 -13 -32.001s-19.667 -13 -33 -13zM86 92h73l-80 -214h-48z" />
    <glyph glyph-name="less" unicode="&#x3c;" horiz-adv-x="563" 
d="M52 297v56l438 220v-61l-376 -185v-5l376 -185v-61z" />
    <glyph glyph-name="equal" unicode="=" horiz-adv-x="563" 
d="M60 425h443v-48h-443v48zM60 274h443v-48h-443v48z" />
    <glyph glyph-name="greater" unicode="&#x3e;" horiz-adv-x="563" 
d="M73 137l376 185v5l-376 185v61l439 -220v-56l-439 -221v61z" />
    <glyph glyph-name="question" unicode="?" horiz-adv-x="498" 
d="M216 192c-0.666992 1.33301 -1.00391 3.33301 -1.00391 6v8c0 24.667 2.83301 46.5 8.5 65.5s13.5 36.167 23.5 51.5s21.667 29.666 35 42.999s27.666 26.333 42.999 39l32.5 29c10.333 9.33301 19.5 19.333 27.5 30s14.333 22.5 19 35.5s7 27.5 7 43.5
c0 38.667 -13.167 68 -39.5 88s-60.5 30 -102.5 30c-24 0 -46.167 -3.66699 -66.5 -11s-38.166 -17.333 -53.499 -30s-28.166 -27.667 -38.499 -45s-17.5 -36.333 -21.5 -57l-57 9c5.33301 26.667 14.833 51.5 28.5 74.5s31 42.833 52 59.5s45 29.834 72 39.501
s56.5 14.5 88.5 14.5c28.667 0 55 -4 79 -12s44.833 -19.333 62.5 -34s31.334 -32.5 41.001 -53.5s14.5 -44.167 14.5 -69.5c0 -20 -2.5 -37.833 -7.5 -53.5s-11.833 -30 -20.5 -43s-19 -25.167 -31 -36.5s-25 -23 -39 -35c-16.667 -14 -31.167 -27.333 -43.5 -40
s-22.666 -25.5 -30.999 -38.5s-14.666 -27 -18.999 -42s-6.5 -32.167 -6.5 -51.5v-14h-56zM244.996 -7c-12.667 0 -23.334 4.16699 -32.001 12.5s-13 18.5 -13 30.5v3c0 11.333 4.33301 21.166 13 29.499s19.334 12.5 32.001 12.5s23.334 -4.16699 32.001 -12.5
s13 -18.166 13 -29.499v-3c0 -12 -4.33301 -22.167 -13 -30.5s-19.334 -12.5 -32.001 -12.5z" />
    <glyph glyph-name="at" unicode="@" horiz-adv-x="987" 
d="M492 -188c-62 0 -120.005 11.6641 -174.005 34.9971s-101 55.333 -141 96s-71.5 88.334 -94.5 143.001s-34.5 113 -34.5 175s11.833 120.333 35.5 175s55.834 102.334 96.501 143.001s88.5 72.667 143.5 96s113.833 35 176.5 35c62 0 119.833 -11.333 173.5 -34
s100.167 -54 139.5 -94s70.166 -87.333 92.499 -142s33.5 -113.667 33.5 -177c0 -37.333 -4 -71.166 -12 -101.499s-19.167 -56.166 -33.5 -77.499s-31.666 -37.833 -51.999 -49.5s-42.833 -17.5 -67.5 -17.5c-30.667 0 -56.334 9 -77.001 27s-34.667 42.333 -42 73
c-17.333 -32 -41 -56.833 -71 -74.5s-64.667 -26.5 -104 -26.5h-4c-30.667 0 -58.667 5.66699 -84 17s-47.166 27.166 -65.499 47.499s-32.5 44.833 -42.5 73.5s-15 60 -15 94v17c0 34 5 65.167 15 93.5s24.167 52.666 42.5 72.999s40.333 36.166 66 47.499
s53.834 17 84.501 17h3c36.667 0 69.834 -8.16699 99.501 -24.5s53.167 -39.166 70.5 -68.499c1.33301 17.333 2.83301 33.5 4.5 48.5s3.83398 27.167 6.50098 36.5h43v-313c0 -29.333 5.5 -53.833 16.5 -73.5s28.833 -29.5 53.5 -29.5c32 0 57.5 17.167 76.5 51.5
s28.5 79.833 28.5 136.5c0 56 -9.66699 107.667 -29 155s-45.833 88.5 -79.5 123.5s-73.667 62.333 -120 82s-96.5 29.5 -150.5 29.5c-54.667 0 -105.834 -10 -153.501 -30s-89.167 -47.5 -124.5 -82.5s-63.166 -76.167 -83.499 -123.5s-30.5 -98.333 -30.5 -153
c0 -54 10 -104.5 30 -151.5s47.333 -88.167 82 -123.5s75.334 -63.166 122.001 -83.499s96.667 -30.5 150 -30.5c38.667 0 76.5 5.66699 113.5 17s72.167 28 105.5 50l28 -54c-76 -48.667 -158.333 -73 -247 -73zM486.995 71.9971c22.667 0 43.502 3.99902 62.502 11.999
s35.167 19.5 48.5 34.5s23.833 32.833 31.5 53.5s11.5 43.667 11.5 69v30c0 25.333 -3.83301 48.333 -11.5 69s-18.334 38.334 -32.001 53.001s-30 26.167 -49 34.5s-39.833 12.5 -62.5 12.5h-2c-22.667 0 -43.667 -4.33301 -63 -13s-35.833 -20.667 -49.5 -36
s-24.334 -33.833 -32.001 -55.5s-11.5 -45.5 -11.5 -71.5v-15c0 -26 3.83301 -50 11.5 -72s18.334 -40.667 32.001 -56s30.167 -27.333 49.5 -36s40.666 -13 63.999 -13h2z" />
    <glyph glyph-name="A" unicode="A" horiz-adv-x="616" 
d="M264 700h89l255 -700h-65l-76 211h-318l-75 -211h-66zM447 268l-136 378h-6l-135 -378h277z" />
    <glyph glyph-name="B" unicode="B" horiz-adv-x="626" 
d="M103 700l200 -0.000976562c34 0 64.667 -4.16699 92 -12.5s50.833 -20.166 70.5 -35.499s34.667 -33.833 45 -55.5s15.5 -46.167 15.5 -73.5v-7c0 -32.667 -7 -61.5 -21 -86.5s-34 -45.167 -60 -60.5c38 -14.667 67.667 -36.5 89 -65.5s32 -63.833 32 -104.5v-6
c0 -29.333 -5.5 -55.833 -16.5 -79.5s-26.667 -44 -47 -61s-44.833 -30 -73.5 -39s-60.667 -13.5 -96 -13.5h-230v700zM330 387.999c42 0 74.667 11 98 33s35 52 35 90v5c0 40 -13.5 71.167 -40.5 93.5s-65.167 33.5 -114.5 33.5h-145v-255h167zM331 56.999
c54 0 96.167 12.168 126.5 36.501s45.5 57.5 45.5 99.5v6c0 41.333 -14.167 73.666 -42.5 96.999s-66.833 35 -115.5 35h-182v-274h168z" />
    <glyph glyph-name="C" unicode="C" horiz-adv-x="656" 
d="M361 -8c-47.333 0 -90.165 8.33008 -128.498 24.9971s-71.166 40.334 -98.499 71.001s-48.5 67.5 -63.5 110.5s-22.5 90.5 -22.5 142.5v19c0 52 7.66699 99.333 23 142s36.833 79.334 64.5 110.001s60.5 54.5 98.5 71.5s80 25.5 126 25.5h7
c26.667 0 52.667 -3.5 78 -10.5s49 -16.833 71 -29.5s41.833 -28 59.5 -46s32.5 -38 44.5 -60l-52 -32c-19.333 37.333 -46.333 66.666 -81 87.999s-75.334 32 -122.001 32h-5c-37.333 0 -71.333 -7 -102 -21s-56.834 -33.667 -78.501 -59s-38.5 -55.833 -50.5 -91.5
s-18 -75.167 -18 -118.5v-22c0 -43.333 6 -82.666 18 -117.999s29 -65.666 51 -90.999s48.333 -45 79 -59s65 -21 103 -21h5c46.667 0 88.167 11 124.5 33s64.166 51 83.499 87l49 -32c-24 -45.333 -59 -81 -105 -107s-96.333 -39 -151 -39h-7z" />
    <glyph glyph-name="D" unicode="D" horiz-adv-x="696" 
d="M103 700l199 0.00292969c52 0 99.167 -7.83301 141.5 -23.5s78.666 -38 108.999 -67s53.833 -63.833 70.5 -104.5s25 -86 25 -136v-20c0 -52.667 -8.33301 -100.334 -25 -143.001s-40.167 -79.334 -70.5 -110.001s-66.666 -54.334 -108.999 -71.001s-89.5 -25 -141.5 -25
h-199v700zM302 57.0029c43.333 0 82.3311 6.83398 116.998 20.501s64.334 33.167 89.001 58.5s43.5 56.166 56.5 92.499s19.5 77.166 19.5 122.499v20c0 42 -6.66699 79.667 -20 113s-32.166 61.833 -56.499 85.5s-53.833 41.834 -88.5 54.501s-73.667 19 -117 19h-139v-586
h139z" />
    <glyph glyph-name="E" unicode="E" horiz-adv-x="557" 
d="M103 700h383v-57h-323v-255h303v-57h-303v-274h333v-57h-393v700z" />
    <glyph glyph-name="F" unicode="F" horiz-adv-x="517" 
d="M103 700h363v-57h-303v-272h283v-57h-283v-314h-60v700z" />
    <glyph glyph-name="G" unicode="G" horiz-adv-x="711" 
d="M361 -8c-47.333 0 -90.1689 8.33203 -128.502 24.999s-71.166 40.334 -98.499 71.001s-48.5 67.5 -63.5 110.5s-22.5 90.5 -22.5 142.5v19c0 52 7.66699 99.333 23 142s36.833 79.334 64.5 110.001s60.5 54.5 98.5 71.5s80 25.5 126 25.5h7
c26.667 0 52.667 -3.5 78 -10.5s49 -16.833 71 -29.5s41.833 -28 59.5 -46s32.5 -38 44.5 -60l-52 -32c-19.333 37.333 -46.333 66.666 -81 87.999s-75.334 32 -122.001 32h-5c-37.333 0 -71.333 -7 -102 -21s-56.834 -33.667 -78.501 -59s-38.5 -55.833 -50.5 -91.5
s-18 -75.167 -18 -118.5v-22c0 -43.333 6 -82.666 18 -117.999s29 -65.666 51 -90.999s48.5 -45 79.5 -59s65.5 -21 103.5 -21h4c32.667 0 62.334 5.16699 89.001 15.5s49.667 24.666 69 42.999s34.333 40.5 45 66.5s16 54.333 16 85v36h-203v57h262v-353h-45
c-2.66699 12 -5.16699 27.833 -7.5 47.5s-4.16602 39.167 -5.49902 58.5c-21.333 -34.667 -51.666 -62.334 -90.999 -83.001s-83.333 -31 -132 -31h-3z" />
    <glyph glyph-name="H" unicode="H" horiz-adv-x="692" 
d="M103 700h60v-312h366v312h60v-700h-60v331h-366v-331h-60v700z" />
    <glyph glyph-name="I" unicode="I" horiz-adv-x="267" 
d="M103 700h60v-700h-60v700z" />
    <glyph glyph-name="J" unicode="J" horiz-adv-x="398" 
d="M132 -4c-32.667 0 -62.333 6.33301 -89 19v60c11.333 -7.33301 23.833 -13 37.5 -17s28.167 -6 43.5 -6c42 0 72.5 11.833 91.5 35.5s28.5 56.5 28.5 98.5v514h60v-511c0 -60 -14.167 -107.167 -42.5 -141.5s-71.5 -51.5 -129.5 -51.5z" />
    <glyph glyph-name="K" unicode="K" horiz-adv-x="619" 
d="M103 700h60v-314h10l323 314h79l-338 -324l374 -376h-85l-353 356h-10v-356h-60v700z" />
    <glyph glyph-name="L" unicode="L" horiz-adv-x="511" 
d="M103 700h60v-643h304v-57h-364v700z" />
    <glyph glyph-name="M" unicode="M" horiz-adv-x="850" 
d="M103 700h94l225 -518h6l224 518h95v-700h-60v627h-6l-225 -520h-62l-225 520h-6v-627h-60v700z" />
    <glyph glyph-name="N" unicode="N" horiz-adv-x="700" 
d="M103 700h75l353 -604h6v604h60v-700h-71l-354 606h-9v-606h-60v700z" />
    <glyph glyph-name="O" unicode="O" horiz-adv-x="745" 
d="M48 359c0 52.667 8 100.5 24 143.5s38.167 79.667 66.5 110s62.166 53.833 101.499 70.5s82.333 25 129 25h7c46.667 0 89.667 -8.33301 129 -25s73.166 -40.167 101.499 -70.5s50.333 -67 66 -110s23.5 -90.833 23.5 -143.5v-18c0 -52.667 -7.83301 -100.5 -23.5 -143.5
s-37.667 -79.667 -66 -110s-62.166 -53.833 -101.499 -70.5s-82.333 -25 -129 -25h-7c-46.667 0 -89.667 8.33301 -129 25s-73.166 40.167 -101.499 70.5s-50.5 67 -66.5 110s-24 90.833 -24 143.5v18zM111 340c0 -43.333 6.49902 -82.666 19.499 -117.999
s31 -65.666 54 -90.999s50.333 -45 82 -59s66.167 -21 103.5 -21h4c38 0 72.833 7 104.5 21s59 33.667 82 59s41 55.666 54 90.999s19.5 74.666 19.5 117.999v20c0 43.333 -6.5 82.666 -19.5 117.999s-31 65.666 -54 90.999s-50.333 45 -82 59s-66.167 21 -103.5 21h-6
c-37.333 0 -71.666 -7 -102.999 -21s-58.5 -33.667 -81.5 -59s-41 -55.666 -54 -90.999s-19.5 -74.666 -19.5 -117.999v-20z" />
    <glyph glyph-name="P" unicode="P" horiz-adv-x="591" 
d="M103 700l200 -0.00195312c36 0 68.667 -5 98 -15s54.5 -24.167 75.5 -42.5s37.333 -40.666 49 -66.999s17.5 -56.166 17.5 -89.499v-12c0 -32.667 -5.66699 -62 -17 -88s-27.5 -48.167 -48.5 -66.5s-46 -32.5 -75 -42.5s-61.5 -15 -97.5 -15h-142v-262h-60v700z
M303 318.998c55.333 0 98.668 13.5 130.001 40.5s47 64.833 47 113.5v12c0 50 -15.833 88.833 -47.5 116.5s-74.834 41.5 -129.501 41.5h-140v-324h140z" />
    <glyph glyph-name="Q" unicode="Q" horiz-adv-x="745" 
d="M542 -145c-12 -3.33301 -25.6621 -5.66992 -40.9951 -7.00293s-28.333 -2 -39 -2c-42 0 -73.167 10.5 -93.5 31.5s-30.5 53.833 -30.5 98.5v18c-42.667 3.33301 -81.834 14 -117.501 32s-66.167 42 -91.5 72s-45.166 65.5 -59.499 106.5s-21.5 86.5 -21.5 136.5v18
c0 52.667 8 100.5 24 143.5s38.167 79.667 66.5 110s62.166 53.833 101.499 70.5s82.333 25 129 25h7c46.667 0 89.667 -8.33301 129 -25s73.166 -40.167 101.499 -70.5s50.333 -67 66 -110s23.5 -90.833 23.5 -143.5v-18c0 -50.667 -7.33301 -97.167 -22 -139.5
s-35.334 -78.666 -62.001 -108.999s-58.5 -54.166 -95.5 -71.499s-77.833 -26.666 -122.5 -27.999v-16c0.666992 -27.333 7.16699 -47 19.5 -59s30.5 -18 54.5 -18c9.33301 0 21.166 0.833008 35.499 2.5s27.166 4.16699 38.499 7.5v-55zM111.005 339.996
c0 -43.333 6.5 -82.666 19.5 -117.999s31 -65.666 54 -90.999s50.333 -45 82 -59s66.167 -21 103.5 -21h5c37.333 0 71.833 7 103.5 21s59 33.667 82 59s41 55.666 54 90.999s19.5 74.666 19.5 117.999v20c0 43.333 -6.5 82.666 -19.5 117.999s-31 65.666 -54 90.999
s-50.333 45 -82 59s-66.167 21 -103.5 21h-5c-37.333 0 -71.833 -7 -103.5 -21s-59 -33.667 -82 -59s-41 -55.666 -54 -90.999s-19.5 -74.666 -19.5 -117.999v-20z" />
    <glyph glyph-name="R" unicode="R" horiz-adv-x="627" 
d="M103 700h212c74 0 131.833 -18.333 173.5 -55s62.5 -87.334 62.5 -152.001v-10c0 -49.333 -13 -90.666 -39 -123.999s-63 -56.333 -111 -69l203 -290h-77l-190 278h-174v-278h-60v700zM313 335c57.333 0 101 13 131 39s45 62 45 108v10c0 48 -15.167 85.167 -45.5 111.5
s-73.833 39.5 -130.5 39.5h-150v-308h150z" />
    <glyph glyph-name="S" unicode="S" horiz-adv-x="566" 
d="M293 -9c-46.667 0 -92.502 9 -137.502 27s-82.5 42.333 -112.5 73l38 46c26 -28 58.333 -49.667 97 -65s77.667 -23 117 -23c51.333 0 91.666 11.833 120.999 35.5s44 56.834 44 99.501c0 27.333 -6.5 49.666 -19.5 66.999s-30.167 31.833 -51.5 43.5
s-45.333 21.5 -72 29.5l-81 25c-23.333 7.33301 -45.5 15.666 -66.5 24.999s-39.5 20.833 -55.5 34.5s-28.667 30.167 -38 49.5s-14 43 -14 71c0 27.333 5 52 15 74s24.333 41 43 57s41.334 28.333 68.001 37s56.334 13 89.001 13c42 0 82.333 -7.66699 121 -23
s71 -36.333 97 -63l-37 -46c-23.333 24 -51.166 42.167 -83.499 54.5s-65.833 18.5 -100.5 18.5c-46.667 0 -83.5 -10.833 -110.5 -32.5s-40.5 -50.167 -40.5 -85.5c0 -22 4.83301 -40.333 14.5 -55s22.667 -27.167 39 -37.5s35.333 -19.333 57 -27s44.5 -15.167 68.5 -22.5
c26.667 -8 53.167 -16.833 79.5 -26.5s49.833 -22 70.5 -37s37.5 -33.667 50.5 -56s19.5 -50.166 19.5 -83.499c0 -30 -5.33301 -57.167 -16 -81.5s-26 -45 -46 -62s-44 -30.167 -72 -39.5s-59.667 -14 -95 -14z" />
    <glyph glyph-name="T" unicode="T" horiz-adv-x="502" 
d="M221 643h-198v57h456v-57h-198v-643h-60v643z" />
    <glyph glyph-name="U" unicode="U" horiz-adv-x="695" 
d="M348 -7c-81.333 0 -144.168 21.833 -188.501 65.5s-66.5 106.5 -66.5 188.5v453h60v-447c0 -66 16.833 -116 50.5 -150s81.834 -51 144.501 -51s110.667 17 144 51s50 84 50 150v447h60v-453c0 -82 -22.167 -144.833 -66.5 -188.5s-106.833 -65.5 -187.5 -65.5z" />
    <glyph glyph-name="V" unicode="V" horiz-adv-x="580" 
d="M13 700h64l209 -630h10l206 630h65l-235 -700h-83z" />
    <glyph glyph-name="W" unicode="W" horiz-adv-x="900" 
d="M37 700h63l140 -634h5l169 634h65l169 -634h5l147 634h63l-167 -700h-86l-161 597h-5l-161 -597h-86z" />
    <glyph glyph-name="X" unicode="X" horiz-adv-x="574" 
d="M244 362v2l-208 336h73l175 -289h6l179 289h69l-209 -336v-2l229 -362h-73l-195 315h-6l-197 -315h-71z" />
    <glyph glyph-name="Y" unicode="Y" horiz-adv-x="558" 
d="M249 281l-241 419h69l198 -351h8l198 351h69l-241 -419v-281h-60v281z" />
    <glyph glyph-name="Z" unicode="Z" horiz-adv-x="561" 
d="M48 54l378 583v6h-357v57h432v-53l-377 -582v-8h389v-57h-465v54z" />
    <glyph glyph-name="bracketleft" unicode="[" horiz-adv-x="297" 
d="M88 720h165v-53h-109v-770h109v-53h-165v876z" />
    <glyph glyph-name="backslash" unicode="\" horiz-adv-x="309" 
d="M37 720h58l177 -831h-57z" />
    <glyph glyph-name="bracketright" unicode="]" horiz-adv-x="297" 
d="M43 -103h109v770h-109v53h165v-876h-165v53z" />
    <glyph glyph-name="asciicircum" unicode="^" horiz-adv-x="546" 
d="M238 700h67l194 -354h-61l-156 288h-20l-154 -288h-61z" />
    <glyph glyph-name="underscore" unicode="_" horiz-adv-x="433" 
d="M0 -62h433v-52h-433v52z" />
    <glyph glyph-name="grave" unicode="`" horiz-adv-x="185" 
d="M33 720h61l53 -133h-48z" />
    <glyph glyph-name="a" unicode="a" horiz-adv-x="550" 
d="M226 -7c-26 0 -49.6709 3.66699 -71.0039 11s-39.666 17.833 -54.999 31.5s-27.166 30 -35.499 49s-12.5 39.833 -12.5 62.5v5c0 56.667 25.167 98.5 75.5 125.5s127.166 40.5 230.499 40.5h51v46c0 34 -11.167 60.333 -33.5 79s-53.833 28 -94.5 28h-5
c-28 0 -56.5 -5 -85.5 -15s-56.5 -24.333 -82.5 -43l-28 46c32.667 21.333 65.334 38.166 98.001 50.499s66.667 18.5 102 18.5h4c58 0 102.667 -14.333 134 -43s47 -68 47 -118v-275c0 -14.667 1.83301 -30.5 5.5 -47.5s7.83398 -31.833 12.501 -44.5h-57
c-3.33301 8.66699 -6.5 19.334 -9.5 32.001s-5.16699 25 -6.5 37c-27.333 -24.667 -56.666 -43.5 -87.999 -56.5s-63.333 -19.5 -96 -19.5zM228.996 49c34.667 0 67.334 7.33203 98.001 21.999s58 35.334 82 62.001v133h-39c-92 0 -158.5 -8.83301 -199.5 -26.5
s-61.5 -47.167 -61.5 -88.5v-4c0 -29.333 11.167 -53 33.5 -71s51.166 -27 86.499 -27z" />
    <glyph glyph-name="b" unicode="b" horiz-adv-x="620" 
d="M329 -6c-40.667 0 -76.834 8.66309 -108.501 25.9961s-57.167 41.666 -76.5 72.999v-3c-1.33301 -16.667 -2.83301 -33.334 -4.5 -50.001s-4.16699 -30 -7.5 -40h-44v720h56v-292c19.333 30.667 44.833 54.667 76.5 72s67.834 26 108.501 26h7
c34.667 0 66.334 -6.16699 95.001 -18.5s53.167 -29.666 73.5 -51.999s36.166 -49.166 47.499 -80.499s17 -65.666 17 -102.999v-24c0 -37.333 -5.66699 -71.666 -17 -102.999s-27.166 -58.166 -47.499 -80.499s-44.833 -39.666 -73.5 -51.999s-60.334 -18.5 -95.001 -18.5
h-7zM331 49.9961c27.333 0 52 4.83301 74 14.5s40.667 23.334 56 41.001s27.333 38.667 36 63s13 51.166 13 80.499v22c0 29.333 -4.33301 56.333 -13 81s-20.667 45.667 -36 63s-34 30.833 -56 40.5s-46.667 14.5 -74 14.5h-7c-26.667 0 -51.167 -4.83301 -73.5 -14.5
s-41.333 -23.167 -57 -40.5s-27.834 -38.333 -36.501 -63s-13 -51.667 -13 -81v-22c0 -29.333 4.33301 -56.166 13 -80.499s20.834 -45.333 36.501 -63s34.5 -31.334 56.5 -41.001s46.667 -14.5 74 -14.5h7z" />
    <glyph glyph-name="c" unicode="c" horiz-adv-x="548" 
d="M291 -6c-35.333 0 -67.6641 6.16699 -96.9971 18.5s-54.5 29.666 -75.5 51.999s-37.333 49 -49 80s-17.5 65.5 -17.5 103.5v24c0 38 5.83301 72.5 17.5 103.5s28.167 57.667 49.5 80s46.666 39.666 75.999 51.999s61.666 18.5 96.999 18.5h7c44 0 84 -11.167 120 -33.5
s64.667 -54.5 86 -96.5l-45 -25c-17.333 33.333 -39.833 58.333 -67.5 75s-59.167 25 -94.5 25h-8c-26.667 0 -51.167 -4.83301 -73.5 -14.5s-41.333 -23.167 -57 -40.5s-27.834 -38.166 -36.501 -62.499s-13 -51.5 -13 -81.5v-24c0 -30 4.33301 -57.167 13 -81.5
s21 -45.166 37 -62.499s35.167 -30.833 57.5 -40.5s47.166 -14.5 74.499 -14.5h9c33.333 0 63.666 8.16699 90.999 24.5s50 40.5 68 72.5l47 -25c-23.333 -40.667 -53.166 -72 -89.499 -94s-76.166 -33 -119.499 -33h-7z" />
    <glyph glyph-name="d" unicode="d" horiz-adv-x="620" 
d="M284 -6c-34 0 -65.3311 6.17285 -93.998 18.5059s-53.167 29.666 -73.5 51.999s-36.166 49.166 -47.499 80.499s-17 65.666 -17 102.999v24c0 37.333 5.66699 71.666 17 102.999s27.166 58.166 47.499 80.499s44.833 39.666 73.5 51.999s60 18.5 94 18.5h8
c40.667 0 76.667 -8.66699 108 -26s56.666 -41.333 75.999 -72v292h56v-720h-43c-3.33301 11.333 -6 25.166 -8 41.499s-3.33301 32.5 -4 48.5v3c-19.333 -31.333 -44.833 -55.666 -76.5 -72.999s-67.834 -26 -108.501 -26h-8zM297.002 50.0059c27.333 0 52 4.83301 74 14.5
s40.667 23.334 56 41.001s27.333 38.667 36 63s13 51.166 13 80.499v22c0 29.333 -4.33301 56.333 -13 81s-20.667 45.667 -36 63s-34 30.833 -56 40.5s-46.667 14.5 -74 14.5h-7c-26.667 0 -51.167 -4.83301 -73.5 -14.5s-41.333 -23.167 -57 -40.5
s-27.834 -38.333 -36.501 -63s-13 -51.667 -13 -81v-22c0 -29.333 4.33301 -56.166 13 -80.499s20.834 -45.333 36.501 -63s34.667 -31.334 57 -41.001s46.833 -14.5 73.5 -14.5h7z" />
    <glyph glyph-name="e" unicode="e" horiz-adv-x="571" 
d="M292 -6c-36 0 -68.832 6.16797 -98.499 18.501s-55 29.5 -76 51.5s-37.333 48.333 -49 79s-17.5 64.334 -17.5 101.001v20c0 39.333 5.83301 75 17.5 107s28 59.5 49 82.5s46.333 40.833 76 53.5s62.5 19 98.5 19h7c33.333 0 63.5 -5.83301 90.5 -17.5
s50.167 -28.167 69.5 -49.5s34.333 -46.833 45 -76.5s16 -62.834 16 -99.501v-47h-409v-2c2 -56 19.5 -100.667 52.5 -134s76.5 -50 130.5 -50h9c36 0 67.167 7.66699 93.5 23s48.166 35.666 65.499 60.999l45 -29c-25.333 -36 -55.5 -63.5 -90.5 -82.5
s-74.5 -28.5 -118.5 -28.5h-6zM464.001 289.001l-0.00195312 3c-1.33301 54 -17.166 97.167 -47.499 129.5s-70.166 48.5 -119.499 48.5h-9c-50.667 0 -91.667 -16.333 -123 -49s-49.333 -76.667 -54 -132h353z" />
    <glyph glyph-name="f" unicode="f" horiz-adv-x="331" 
d="M88 467h-62v38c9.33301 3.33301 19.5 6 30.5 8s21.5 3.66699 31.5 5v44c0 49.333 12 87.833 36 115.5s56.667 41.5 98 41.5c15.333 0 31.333 -1.83301 48 -5.5s31 -9.16699 43 -16.5l-3 -50c-24.667 12 -51 18 -79 18s-49.5 -8.66699 -64.5 -26s-22.5 -44 -22.5 -80v-39
h155v-53h-155v-467h-56v467z" />
    <glyph glyph-name="g" unicode="g" horiz-adv-x="529" 
d="M52 348c0 26 5.00098 49.999 15.001 71.999s23.833 40.833 41.5 56.5s39 27.834 64 36.501s52.5 13 82.5 13h11c48.667 0 90.667 -11.333 126 -34c11.333 27.333 25 53.333 41 78h57l-60 -112c26 -30 39 -66.667 39 -110v-14c0 -26 -5 -50 -15 -72
s-23.833 -40.833 -41.5 -56.5s-39 -27.834 -64 -36.501s-52.5 -13 -82.5 -13h-11c-22.667 0 -43.667 3 -63 9v-78c10.667 2 21.667 3.66699 33 5s23.666 2 36.999 2h12c66.667 0 119.667 -12.833 159 -38.5s59 -61.167 59 -106.5v-9c0 -44 -19.667 -78.833 -59 -104.5
s-92.333 -38.5 -159 -38.5h-12c-67.333 0 -120.5 12.667 -159.5 38s-58.5 60.333 -58.5 105v9c0 29.333 8.33301 54.5 25 75.5s39.667 37.167 69 48.5v112c-27.333 15.333 -48.5 35.833 -63.5 61.5s-22.5 54.834 -22.5 87.501v14zM110.001 334.999
c0 -38 13.5 -68.498 40.5 -91.498s62.167 -34.5 105.5 -34.5h9c44 0 79.333 11.667 106 35s40 53.666 40 90.999v12c0 37.333 -13.333 67.666 -40 90.999s-62 35 -106 35h-9c-43.333 0 -78.5 -11.5 -105.5 -34.5s-40.5 -53.5 -40.5 -91.5v-12zM102.001 -57.999
c0 -30 14 -52.999 42 -68.999s67.667 -24 119 -24h10c51.333 0 91 8.16699 119 24.5s42 39.166 42 68.499v6c0 29.333 -14 52.333 -42 69s-67.667 25 -119 25h-10c-50.667 0 -90.167 -8.33301 -118.5 -25s-42.5 -39.667 -42.5 -69v-6z" />
    <glyph glyph-name="h" unicode="h" horiz-adv-x="593" 
d="M88 720l55.999 -0.000976562v-289c20.667 30 47.5 53.5 80.5 70.5s70.167 25.5 111.5 25.5c58 0 102.333 -16.5 133 -49.5s46 -80.833 46 -143.5v-334h-56v325c0 48 -11.667 84.333 -35 109s-57.666 37 -102.999 37c-26 0 -50 -4.16699 -72 -12.5
s-40.667 -20.166 -56 -35.499s-27.333 -33.5 -36 -54.5s-13 -44.5 -13 -70.5v-298h-56v720z" />
    <glyph glyph-name="i" unicode="i" horiz-adv-x="233" 
d="M117 628c-12 0 -21.833 3.83301 -29.5 11.5s-11.5 17.5 -11.5 29.5c0 11.333 3.83301 21.166 11.5 29.499s17.5 12.5 29.5 12.5c11.333 0 20.833 -4.16699 28.5 -12.5s11.5 -18.166 11.5 -29.499c0 -12 -3.83301 -21.833 -11.5 -29.5s-17.167 -11.5 -28.5 -11.5zM88 520
h56v-520h-56v520z" />
    <glyph glyph-name="j" unicode="j" horiz-adv-x="257" 
d="M141 630c-11.333 0 -20.833 3.83301 -28.5 11.5s-11.5 17.167 -11.5 28.5s3.83301 21 11.5 29s17.167 12 28.5 12s21 -4 29 -12s12 -17.667 12 -29s-4 -20.833 -12 -28.5s-17.667 -11.5 -29 -11.5zM44 -197c-11.333 0 -24.5 1.16797 -39.5 3.50098
s-28.167 6.16602 -39.5 11.499v52c18 -8 38 -12 60 -12c30 0 52.167 7.83301 66.5 23.5s21.5 43.5 21.5 83.5v555h56v-569c0 -48.667 -11.333 -85.5 -34 -110.5s-53 -37.5 -91 -37.5z" />
    <glyph glyph-name="k" unicode="k" horiz-adv-x="504" 
d="M88 720h56v-430h6l252 230h73l-267 -244l284 -276h-78l-263 260h-7v-260h-56v720z" />
    <glyph glyph-name="l" unicode="l" horiz-adv-x="233" 
d="M88 720h56v-720h-56v720z" />
    <glyph glyph-name="m" unicode="m" horiz-adv-x="876" 
d="M88 520l43.999 0.00292969c2 -8 4 -18.833 6 -32.5s3.66699 -28.167 5 -43.5c17.333 26 39.833 46.333 67.5 61s59.167 22 94.5 22h6c76.667 0 125.667 -33.667 147 -101c17.333 32 41 56.833 71 74.5s64.667 26.5 104 26.5h6c52 0 91.5 -15.833 118.5 -47.5
s40.5 -77.834 40.5 -138.501v-341h-56v333c0 45.333 -9.33301 79.666 -28 102.999s-47 35 -85 35h-7c-45.333 0 -81.833 -14.167 -109.5 -42.5s-41.5 -67.833 -41.5 -118.5v-310h-56v333c0 45.333 -9.5 79.666 -28.5 102.999s-47.5 35 -85.5 35h-7
c-45.333 0 -81.666 -14.167 -108.999 -42.5s-41 -67.833 -41 -118.5v-310h-56v520z" />
    <glyph glyph-name="n" unicode="n" horiz-adv-x="593" 
d="M88 520h44.001c2.66699 -10 5 -22.5 7 -37.5s3.66699 -30.833 5 -47.5c19.333 28.667 45 51.167 77 67.5s68 24.5 108 24.5h6c59.333 0 104.166 -16.5 134.499 -49.5s45.5 -80.833 45.5 -143.5v-334h-56v325c0 47.333 -11 83.5 -33 108.5s-55.667 37.5 -101 37.5h-5
c-26 0 -49.833 -4 -71.5 -12s-40.167 -19.333 -55.5 -34s-27.333 -32.667 -36 -54s-13 -45 -13 -71v-300h-56v520z" />
    <glyph glyph-name="o" unicode="o" horiz-adv-x="586" 
d="M289 -6c-34.667 0 -66.667 6.16699 -96 18.5s-54.333 29.666 -75 51.999s-36.834 49.166 -48.501 80.499s-17.5 65.666 -17.5 102.999v24c0 37.333 5.83301 71.666 17.5 102.999s27.834 58.166 48.501 80.499s45.667 39.666 75 51.999s61.333 18.5 96 18.5h8
c35.333 0 67.5 -6.16699 96.5 -18.5s54 -29.666 75 -51.999s37.333 -49.166 49 -80.499s17.5 -65.666 17.5 -102.999v-24c0 -37.333 -5.83301 -71.666 -17.5 -102.999s-28 -58.166 -49 -80.499s-46 -39.666 -75 -51.999s-61.167 -18.5 -96.5 -18.5h-8zM297 50
c27.333 0 52 4.83301 74 14.5s40.667 23.334 56 41.001s27.333 38.667 36 63s13 51.166 13 80.499v22c0 29.333 -4.33301 56.333 -13 81s-20.667 45.667 -36 63s-34 30.833 -56 40.5s-46.667 14.5 -74 14.5h-7c-26.667 0 -51.167 -4.83301 -73.5 -14.5
s-41.333 -23.167 -57 -40.5s-27.834 -38.333 -36.501 -63s-13 -51.667 -13 -81v-22c0 -29.333 4.33301 -56.166 13 -80.499s20.834 -45.333 36.501 -63s34.5 -31.334 56.5 -41.001s46.667 -14.5 74 -14.5h7z" />
    <glyph glyph-name="p" unicode="p" horiz-adv-x="620" 
d="M88 520l44 -0.00683594c2.66699 -10.667 5 -24.667 7 -42s3.66699 -34.666 5 -51.999c19.333 31.333 44.833 55.833 76.5 73.5s67.834 26.5 108.501 26.5h7c34.667 0 66.334 -6.16699 95.001 -18.5s53.167 -29.666 73.5 -51.999s36.166 -49.166 47.499 -80.499
s17 -65.666 17 -102.999v-24c0 -37.333 -5.66699 -71.666 -17 -102.999s-27.166 -58.166 -47.499 -80.499s-44.833 -39.666 -73.5 -51.999s-60.334 -18.5 -95.001 -18.5h-7c-40.667 0 -76.834 8.66699 -108.501 26s-57.167 41.333 -76.5 72v-292h-56v720zM331 49.9932
c27.333 0 52 4.83301 74 14.5s40.667 23.334 56 41.001s27.333 38.667 36 63s13 51.166 13 80.499v22c0 29.333 -4.33301 56.333 -13 81s-20.667 45.667 -36 63s-34 30.833 -56 40.5s-46.667 14.5 -74 14.5h-7c-27.333 0 -52 -4.83301 -74 -14.5
s-40.833 -23.167 -56.5 -40.5s-27.834 -38.333 -36.501 -63s-13 -51.667 -13 -81v-22c0 -29.333 4.33301 -56.166 13 -80.499s20.834 -45.333 36.501 -63s34.667 -31.334 57 -41.001s46.833 -14.5 73.5 -14.5h7z" />
    <glyph glyph-name="q" unicode="q" horiz-adv-x="620" 
d="M476 92c-19.333 -30.667 -44.832 -54.6611 -76.499 -71.9941s-67.834 -26 -108.501 -26h-7c-34.667 0 -66.167 6.16699 -94.5 18.5s-52.833 29.666 -73.5 51.999s-36.667 49.166 -48 80.499s-17 65.666 -17 102.999v24c0 37.333 5.66699 71.666 17 102.999
s27.333 58.166 48 80.499s45.167 39.666 73.5 51.999s59.833 18.5 94.5 18.5h7c40.667 0 77 -8.83301 109 -26.5s57.667 -42.167 77 -73.5c0.666992 18 2.16699 35.667 4.5 53s4.83301 31 7.5 41h43v-720h-56v292zM297.001 50.0059c27.333 0 52.001 4.83301 74.001 14.5
s40.667 23.334 56 41.001s27.333 38.667 36 63s13 51.166 13 80.499v22c0 29.333 -4.33301 56.333 -13 81s-20.834 45.667 -36.501 63s-34.5 30.833 -56.5 40.5s-46.333 14.5 -73 14.5h-8c-26.667 0 -51 -4.83301 -73 -14.5s-40.833 -23.167 -56.5 -40.5
s-27.834 -38.333 -36.501 -63s-13 -51.667 -13 -81v-22c0 -29.333 4.33301 -56.166 13 -80.499s20.834 -45.333 36.501 -63s34.5 -31.334 56.5 -41.001s46.333 -14.5 73 -14.5h8z" />
    <glyph glyph-name="r" unicode="r" horiz-adv-x="359" 
d="M88 520l42 -0.000976562c3.33301 -10.667 6 -23.667 8 -39s3.66699 -30.666 5 -45.999c17.333 26.667 40.5 47.5 69.5 62.5s60.833 22.5 95.5 22.5h13v-58c-2.66699 0.666992 -6.83398 1.16699 -12.501 1.5s-10.5 0.5 -14.5 0.5c-45.333 0 -81.666 -14.667 -108.999 -44
s-41 -72.333 -41 -129v-291h-56v520z" />
    <glyph glyph-name="s" unicode="s" horiz-adv-x="483" 
d="M253 -7c-40.667 0 -80.002 7 -118.002 21s-69.667 33 -95 57l33 42c54 -44 114.333 -66 181 -66c40 0 71.5 8.16699 94.5 24.5s34.5 39.166 34.5 68.499c0 16.667 -4 30.5 -12 41.5s-18.833 20.333 -32.5 28s-29.167 13.834 -46.5 18.501s-35.333 9 -54 13
c-21.333 4.66699 -42.666 9.83398 -63.999 15.501s-40.5 13.667 -57.5 24s-30.667 23.666 -41 39.999s-15.5 37.166 -15.5 62.499c0 22 4.16699 41.833 12.5 59.5s20 32.667 35 45s33.167 22 54.5 29s45 10.5 71 10.5c34 0 67.333 -5.66699 100 -17s61.667 -26 87 -44
l-28 -46c-25.333 16.667 -51.5 29.5 -78.5 38.5s-54.5 13.5 -82.5 13.5c-34.667 0 -62.167 -7.5 -82.5 -22.5s-30.5 -35.5 -30.5 -61.5c0 -15.333 3.83301 -28 11.5 -38s17.667 -18.333 30 -25s26.833 -12.167 43.5 -16.5s34 -8.5 52 -12.5
c22 -4.66699 44.167 -10.167 66.5 -16.5s42.333 -15 60 -26s32.167 -25 43.5 -42s17 -38.833 17 -65.5c0 -47.333 -17.167 -84.666 -51.5 -111.999s-80.166 -41 -137.499 -41z" />
    <glyph glyph-name="t" unicode="t" horiz-adv-x="367" 
d="M230 -3c-85.333 0 -128.001 44.667 -128.001 134v336h-73v39c9.33301 3.33301 21 6.33301 35 9s26.667 4.33398 38 5.00098v120l56 8v-128h163v-53h-163v-326c0 -32.667 7 -55.834 21 -69.501s34.333 -20.5 61 -20.5c6 0 13.167 0.333008 21.5 1s16.833 1.5 25.5 2.5
s16.834 2.33301 24.501 4s14.5 3.5 20.5 5.5v-51c-12 -5.33301 -28 -9.33301 -48 -12s-38 -4 -54 -4z" />
    <glyph glyph-name="u" unicode="u" horiz-adv-x="589" 
d="M257 -7c-59.333 0 -103.998 16.667 -133.998 50s-45 81.333 -45 144v333h56v-324c0 -48 10.667 -84.5 32 -109.5s54.333 -37.5 99 -37.5h6c25.333 0 48.666 4 69.999 12s39.666 19.333 54.999 34s27.333 32.334 36 53.001s13 44 13 70v302h56v-520h-44
c-2.66699 10.667 -5 23.667 -7 39s-3.66699 30.666 -5 45.999c-19.333 -28.667 -44.833 -51.167 -76.5 -67.5s-67.5 -24.5 -107.5 -24.5h-4z" />
    <glyph glyph-name="v" unicode="v" horiz-adv-x="541" 
d="M28 520h62l175 -458h10l176 458h61l-203 -520h-77z" />
    <glyph glyph-name="w" unicode="w" horiz-adv-x="778" 
d="M30 520h59l117 -456h10l139 456h67l139 -457h10l117 457h60l-135 -520h-87l-134 443h-6l-135 -443h-86z" />
    <glyph glyph-name="x" unicode="x" horiz-adv-x="497" 
d="M211 265v4l-174 251h70l142 -211h5l138 211h68l-174 -252v-3l184 -265h-70l-150 224h-4l-151 -224h-68z" />
    <glyph glyph-name="y" unicode="y" horiz-adv-x="515" 
d="M131 -196c-10.667 0 -22.666 1.33301 -35.999 4s-25.333 7.66699 -36 15v52c22.667 -11.333 43.667 -17 63 -17c26.667 0 50.5 10 71.5 30s39.167 49.333 54.5 88l-230 544h64l191 -461h7l162 461h60l-194 -548c-18.667 -52 -41.834 -93 -69.501 -123
s-63.5 -45 -107.5 -45z" />
    <glyph glyph-name="z" unicode="z" horiz-adv-x="485" 
d="M38 61l326 400v6h-302v53h371v-61l-327 -400v-6h341v-53h-409v61z" />
    <glyph glyph-name="braceleft" unicode="{" horiz-adv-x="344" 
d="M224 -144c-30.667 0 -55.167 9.33398 -73.5 28.001s-27.5 44 -27.5 76v229c0 43.333 -24.333 65 -73 65h-7v68h7c48.667 0 73 21.333 73 64v229c0 32 9.16699 57.5 27.5 76.5s42.833 28.5 73.5 28.5h77v-54h-60c-18.667 0 -33.667 -5.5 -45 -16.5s-17 -25.5 -17 -43.5
v-230c0 -55.333 -27.333 -83 -82 -83v-10c54.667 0 82 -28 82 -84v-230c0 -18.667 5.66699 -33.334 17 -44.001s26.333 -16 45 -16h60v-53h-77z" />
    <glyph glyph-name="bar" unicode="|" horiz-adv-x="243" 
d="M93 720h56v-910h-56v910z" />
    <glyph glyph-name="braceright" unicode="}" horiz-adv-x="344" 
d="M43 -91l60 -0.000976562c18.667 0 33.667 5.33301 45 16s17 25.334 17 44.001v230c0 56 27.333 84 82 84v10c-54.667 0 -82 27.667 -82 83v230c0 18 -5.66699 32.5 -17 43.5s-26.333 16.5 -45 16.5h-60v54h77c30.667 0 55.167 -9.5 73.5 -28.5s27.5 -44.5 27.5 -76.5
v-229c0 -42.667 24.333 -64 73 -64h7v-68h-7c-48.667 0 -73 -21.667 -73 -65v-229c0 -32 -9.16699 -57.333 -27.5 -76s-42.833 -28 -73.5 -28h-77v53z" />
    <glyph glyph-name="asciitilde" unicode="~" horiz-adv-x="560" 
d="M382 270c-21.333 0 -40.999 3.33301 -58.999 10s-35.5 14.167 -52.5 22.5s-33.833 15.833 -50.5 22.5s-34.334 10 -53.001 10c-33.333 0 -62 -14.333 -86 -43l-34 39c15.333 17.333 33.833 30.833 55.5 40.5s44.834 14.5 69.501 14.5c22 0 42.167 -3.33301 60.5 -10
s35.833 -14 52.5 -22s33 -15.333 49 -22s32.667 -10 50 -10c18 0 35.333 4.33301 52 13s31 20.667 43 36l34 -38c-38.667 -42 -82.334 -63 -131.001 -63z" />
    <glyph glyph-name="exclamdown" unicode="&#xa1;" horiz-adv-x="257" 
d="M129 438c-12.667 0 -23.334 4.16699 -32.001 12.5s-13 18.166 -13 29.499v2c0 12 4.33301 22.333 13 31s19.334 13 32.001 13s23.334 -4.33301 32.001 -13s13 -19 13 -31v-2c0 -11.333 -4.33301 -21.166 -13 -29.499s-19.334 -12.5 -32.001 -12.5zM98 65l7 262h48l7 -262
v-255h-62v255z" />
    <glyph glyph-name="cent" unicode="&#xa2;" horiz-adv-x="547" 
d="M179 -112l31.998 119.999c-48 16.667 -86.667 46.667 -116 90s-44 95.666 -44 156.999v10c0 37.333 5.5 71.833 16.5 103.5s27 59.167 48 82.5s46.667 41.666 77 54.999s64.5 20 102.5 20h10.5c3.66699 0 7.5 -0.333008 11.5 -1l32 124l55 -15l-33 -122
c56.667 -18.667 100.334 -57 131.001 -115l-47 -26c-17.333 32.667 -40 57.667 -68 75s-59.333 26 -94 26h-2c-26.667 0 -51.167 -5 -73.5 -15s-41.5 -24.167 -57.5 -42.5s-28.333 -40.166 -37 -65.499s-13 -53.333 -13 -84v-10c0 -30 4.66699 -57.667 14 -83
s22.333 -47.166 39 -65.499s36.5 -32.666 59.5 -42.999s47.833 -15.5 74.5 -15.5h2c34 0 64.667 8.33301 92 25s50 41 68 73l46 -28c-23.333 -40 -52.666 -70.667 -87.999 -92s-75 -32 -119 -32h-5c-4.66699 0 -9.16699 0.166992 -13.5 0.5s-8.83301 0.833008 -13.5 1.5
l-33 -122z" />
    <glyph glyph-name="sterling" unicode="&#xa3;" horiz-adv-x="498" 
d="M36 43c7.33301 3.33301 15.833 5.83398 25.5 7.50098s19.167 3.16699 28.5 4.5v267h-45v56h45v124c0 31.333 4.5 59.666 13.5 84.999s21.833 46.833 38.5 64.5s36.834 31.334 60.501 41.001s50.167 14.5 79.5 14.5c46 0 85 -11.833 117 -35.5s53.667 -56.834 65 -99.501
l-55 -21c-8.66699 32 -24 56.333 -46 73s-49 25 -81 25c-40.667 0 -72.834 -13.167 -96.501 -39.5s-35.5 -61.833 -35.5 -106.5v-125h227v-56h-227v-265h340v-57h-454v43z" />
    <glyph glyph-name="currency" unicode="&#xa4;" horiz-adv-x="560" 
d="M368 199c-25.333 -16 -54.333 -23.999 -87 -23.999c-35.333 0 -65.333 8.33301 -90 25l-64 -64l-36 37l64 64c-8 12 -14.333 25.5 -19 40.5s-7 31.167 -7 48.5s2.33301 33.166 7 47.499s10.667 27.5 18 39.5l-68 68l38 38l68 -68c12 7.33301 25.5 13.333 40.5 18
s31.167 7 48.5 7c34 0 63.333 -8.33301 88 -25l63 63l37 -36l-64 -64c17.333 -24.667 26 -54 26 -88s-8.33301 -63.667 -25 -89l68 -68l-38 -38zM281 226.001c28.667 0 51.667 9.16699 69 27.5s26 42.5 26 72.5s-8.66699 53.833 -26 71.5s-40.333 26.5 -69 26.5
c-30 0 -53.667 -8.83301 -71 -26.5s-26 -41.5 -26 -71.5s8.66699 -54.167 26 -72.5s41 -27.5 71 -27.5z" />
    <glyph glyph-name="yen" unicode="&#xa5;" horiz-adv-x="558" 
d="M51 239h198v42l-29 51h-169v56h136l-179 312h69l198 -351h8l198 351h69l-179 -312h136v-56h-169l-29 -51v-42h198v-56h-198v-183h-60v183h-198v56z" />
    <glyph glyph-name="brokenbar" unicode="&#xa6;" horiz-adv-x="243" 
d="M93 720h56v-380h-56v380zM93 200h56v-390h-56v390z" />
    <glyph glyph-name="section" unicode="&#xa7;" horiz-adv-x="517" 
d="M254 709c37.333 0 70.166 -5.49316 98.499 -16.4932s54.166 -26.167 77.499 -45.5l-28 -46c-20.667 17.333 -42.334 30.5 -65.001 39.5s-50 13.5 -82 13.5c-16 0 -31.5 -2.33301 -46.5 -7s-28 -11.334 -39 -20.001s-19.833 -19.334 -26.5 -32.001s-10 -27 -10 -43
c0 -27.333 10.5 -50.333 31.5 -69s58.167 -35.334 111.5 -50.001c27.333 -7.33301 53 -15.833 77 -25.5s45 -21.334 63 -35.001s32.167 -30 42.5 -49s15.5 -41.833 15.5 -68.5c0 -37.333 -11.667 -69.5 -35 -96.5s-54.333 -46.833 -93 -59.5c32 -14.667 56.5 -33 73.5 -55
s25.5 -49 25.5 -81c0 -26 -5 -49 -15 -69s-23.5 -36.667 -40.5 -50s-36.5 -23.5 -58.5 -30.5s-45 -10.5 -69 -10.5c-38.667 0 -73.167 5.5 -103.5 16.5s-57.5 26.167 -81.5 45.5l28 46c21.333 -17.333 44.333 -30.5 69 -39.5s53.667 -13.5 87 -13.5
c17.333 0 33.5 2.16699 48.5 6.5s28.333 10.666 40 18.999s20.834 18.666 27.501 30.999s10 26.5 10 42.5c0 27.333 -10.5 50.333 -31.5 69s-58.833 35.334 -113.5 50.001c-27.333 8 -53 16.667 -77 26s-45 20.666 -63 33.999s-32.333 29.666 -43 48.999s-16 42.333 -16 69
c0 38 11.333 70.5 34 97.5s52.667 47.167 90 60.5c-29.333 14.667 -52 32.667 -68 54s-24 48 -24 80c0 26 5 49.167 15 69.5s23.333 37.333 40 51s35.834 24.167 57.501 31.5s43.834 11 66.501 11zM288 122.007c38 6.66699 68.6689 20.166 92.002 40.499s35 46.5 35 78.5
c0 22 -4.5 40.5 -13.5 55.5s-20.833 27.833 -35.5 38.5s-31.334 19.334 -50.001 26.001s-38 12.667 -58 18l-36 10c-36 -7.33301 -65 -21.333 -87 -42s-33 -47 -33 -79c0 -20 3.66699 -37 11 -51s17.5 -26.333 30.5 -37s28.667 -19.667 47 -27s38.166 -14 59.499 -20
l18.5 -6c6.33301 -2 12.833 -3.66699 19.5 -5z" />
    <glyph glyph-name="dieresis" unicode="&#xa8;" horiz-adv-x="363" 
d="M267 631c-11.333 0 -20.666 3.66699 -27.999 11s-11 16.666 -11 27.999s3.66699 20.833 11 28.5s16.666 11.5 27.999 11.5s21 -3.83301 29 -11.5s12 -17.167 12 -28.5s-4 -20.666 -12 -27.999s-17.667 -11 -29 -11zM94 631c-11.333 0 -20.666 3.66699 -27.999 11
s-11 16.666 -11 27.999s3.66699 20.833 11 28.5s16.666 11.5 27.999 11.5s21 -3.83301 29 -11.5s12 -17.167 12 -28.5s-4 -20.666 -12 -27.999s-17.667 -11 -29 -11z" />
    <glyph glyph-name="copyright" unicode="&#xa9;" horiz-adv-x="817" 
d="M408 -10c-52 0 -99.999 9.00098 -143.999 27.001s-82 43 -114 75s-57 70 -75 114s-27 92 -27 144c0 51.333 9.16699 98.833 27.5 142.5s43.666 81.667 75.999 114s70.5 57.666 114.5 75.999s91.333 27.5 142 27.5c52 0 100 -9 144 -27s82 -43 114 -75s57 -70 75 -114
s27 -92 27 -144s-9 -100 -27 -144s-43 -82 -75 -114s-70 -57 -114 -75s-92 -27 -144 -27zM408.001 50.001c43.333 0 83.333 7.5 120 22.5s68.334 35.833 95.001 62.5s47.5 58.334 62.5 95.001s22.5 76.667 22.5 120s-7.5 83.333 -22.5 120s-35.833 68.334 -62.5 95.001
s-58.334 47.5 -95.001 62.5s-76.667 22.5 -120 22.5s-83.333 -7.5 -120 -22.5s-68.334 -35.833 -95.001 -62.5s-47.5 -58.334 -62.5 -95.001s-22.5 -76.667 -22.5 -120s7.5 -83.333 22.5 -120s35.833 -68.334 62.5 -95.001s58.334 -47.5 95.001 -62.5
s76.667 -22.5 120 -22.5zM403.001 169.001c-26 0 -49.8301 4.49902 -71.4971 13.499s-40 21.5 -55 37.5s-26.667 35.333 -35 58s-12.5 47.667 -12.5 75c0 28 4.33301 53.333 13 76s20.667 42.167 36 58.5s34 29 56 38s46 13.5 72 13.5c32 0 61 -6.5 87 -19.5
s46.667 -31.833 62 -56.5l-46 -32c-20.667 36 -53.334 54 -98.001 54c-36.667 0 -66.334 -12.167 -89.001 -36.5s-34 -56.166 -34 -95.499s11.167 -70.833 33.5 -94.5s51.5 -35.5 87.5 -35.5c23.333 0 44.666 5.16699 63.999 15.5s34.333 24.833 45 43.5l46 -31
c-17.333 -26 -40 -46.167 -68 -60.5s-59 -21.5 -93 -21.5z" />
    <glyph glyph-name="ordfeminine" unicode="&#xaa;" horiz-adv-x="251" 
d="M100 449c-24.667 0 -44.499 7.00098 -59.499 21.001s-22.5 32.667 -22.5 56c0 26.667 12 47.167 36 61.5s58.667 21.5 104 21.5h18v7c0 30 -16.333 45 -49 45c-12.667 0 -25.334 -2.33301 -38.001 -7s-25.334 -11.334 -38.001 -20.001l-19 39c33.333 21.333 66 32 98 32
c28 0 50.667 -7.5 68 -22.5s26 -34.5 26 -58.5v-113c0 -9.33301 0.833008 -19.333 2.5 -30s3.83398 -20 6.50098 -28h-49l-6 25c-23.333 -19.333 -49.333 -29 -78 -29zM114.001 495.001c22.667 0 43.333 8 62 24v49h-13c-63.333 -0.666992 -95 -13.667 -95 -39
c0 -22.667 15.333 -34 46 -34zM30 389.001h201v-47h-201v47z" />
    <glyph glyph-name="guillemotleft" unicode="&#xab;" horiz-adv-x="578" 
d="M264 268v12l179 198h62l-180 -199v-10l180 -199h-62zM63 268v12l179 198h62l-180 -199v-10l180 -199h-62z" />
    <glyph glyph-name="registered" unicode="&#xae;" horiz-adv-x="817" 
d="M408 -10c-52 0 -99.999 9.00098 -143.999 27.001s-82 43 -114 75s-57 70 -75 114s-27 92 -27 144c0 51.333 9.16699 98.833 27.5 142.5s43.666 81.667 75.999 114s70.5 57.666 114.5 75.999s91.333 27.5 142 27.5c52 0 100 -9 144 -27s82 -43 114 -75s57 -70 75 -114
s27 -92 27 -144s-9 -100 -27 -144s-43 -82 -75 -114s-70 -57 -114 -75s-92 -27 -144 -27zM408.001 50.001c43.333 0 83.333 7.5 120 22.5s68.334 35.833 95.001 62.5s47.5 58.334 62.5 95.001s22.5 76.667 22.5 120s-7.5 83.333 -22.5 120s-35.833 68.334 -62.5 95.001
s-58.334 47.5 -95.001 62.5s-76.667 22.5 -120 22.5s-83.333 -7.5 -120 -22.5s-68.334 -35.833 -95.001 -62.5s-47.5 -58.334 -62.5 -95.001s-22.5 -76.667 -22.5 -120s7.5 -83.333 22.5 -120s35.833 -68.334 62.5 -95.001s58.334 -47.5 95.001 -62.5
s76.667 -22.5 120 -22.5zM278.001 532.001h139c38.667 0 69.167 -10.167 91.5 -30.5s33.5 -47.5 33.5 -81.5c0 -24 -5.66699 -44.667 -17 -62s-27 -30 -47 -38l95 -144h-63l-85 132h-93v-132h-54v356zM412.001 359.001c22.667 0 40.166 5.16797 52.499 15.501
s18.5 25.166 18.5 44.499s-6.16699 34.333 -18.5 45s-30.166 16 -53.499 16h-79v-121h80z" />
    <glyph glyph-name="macron" unicode="&#xaf;" horiz-adv-x="329" 
d="M40 692h249v-49h-249v49z" />
    <glyph glyph-name="degree" unicode="&#xb0;" horiz-adv-x="387" 
d="M194 403c-45.333 0 -81.5 13.833 -108.5 41.5s-40.5 64.5 -40.5 110.5s13.5 82.833 40.5 110.5s63.167 41.5 108.5 41.5c44.667 0 80.5 -13.833 107.5 -41.5s40.5 -64.5 40.5 -110.5s-13.5 -82.833 -40.5 -110.5s-62.833 -41.5 -107.5 -41.5zM194 454
c28.667 0 51.5 9.16699 68.5 27.5s25.5 42.833 25.5 73.5s-8.5 55 -25.5 73s-39.833 27 -68.5 27c-29.333 0 -52.333 -9 -69 -27s-25 -42.333 -25 -73s8.33301 -55.167 25 -73.5s39.667 -27.5 69 -27.5z" />
    <glyph glyph-name="plusminus" unicode="&#xb1;" horiz-adv-x="597" 
d="M272 309h-215v52h215v215h53v-215h215v-52h-215v-205h-53v205zM540 55v-52h-483v52h483z" />
    <glyph glyph-name="twosuperior" unicode="&#xb2;" horiz-adv-x="345" 
d="M30 349c34 17.333 64.6699 35.668 92.0029 55.001s50.666 39 69.999 59s34.166 40 44.499 60s15.5 39.333 15.5 58c0 23.333 -7.33301 42.166 -22 56.499s-33.667 21.5 -57 21.5c-25.333 0 -47 -8 -65 -24s-29.333 -37 -34 -63l-47 13
c5.33301 36.667 21.666 66 48.999 88s60 33 98 33c38.667 0 69.667 -11 93 -33s35 -51 35 -87c0 -41.333 -15.667 -82.333 -47 -123s-74 -77 -128 -109h191v-48h-288v43z" />
    <glyph glyph-name="threesuperior" unicode="&#xb3;" horiz-adv-x="348" 
d="M174 300c-36 0 -67.833 8.16699 -95.5 24.5s-48.167 38.833 -61.5 67.5l44 21c8 -20.667 22.167 -37 42.5 -49s43.833 -18 70.5 -18c30 0 54 7.83301 72 23.5s27 36.167 27 61.5c0 24.667 -8.5 44.5 -25.5 59.5s-39.5 22.5 -67.5 22.5c-22.667 0 -43 -5 -61 -15l-27 31
l136 123h-185v48h255v-43l-113 -100c2 0 4 0.166992 6 0.5s4 0.5 6 0.5c38 0 68.5 -11.333 91.5 -34s34.5 -52.667 34.5 -90c0 -40.667 -13.667 -73.167 -41 -97.5s-63.333 -36.5 -108 -36.5z" />
    <glyph glyph-name="acute" unicode="&#xb4;" horiz-adv-x="185" 
d="M38 587l56 133h61l-70 -133h-47z" />
    <glyph glyph-name="paragraph" unicode="&#xb6;" horiz-adv-x="512" 
d="M268 282c-32.667 0 -62.668 5 -90.001 15s-50.5 24.167 -69.5 42.5s-33.833 40.5 -44.5 66.5s-16 54.667 -16 86s6 59.833 18 85.5s28.833 47.5 50.5 65.5s47.834 32 78.501 42s64.667 15 102 15h111v-55h-83v-792h-57v429z" />
    <glyph glyph-name="periodcentered" unicode="&#xb7;" horiz-adv-x="154" 
d="M76 255c-11.333 0 -20.666 3.83301 -27.999 11.5s-11 17.167 -11 28.5s3.66699 21 11 29s16.666 12 27.999 12s21 -4 29 -12s12 -17.667 12 -29s-4 -20.833 -12 -28.5s-17.667 -11.5 -29 -11.5z" />
    <glyph glyph-name="cedilla" unicode="&#xb8;" horiz-adv-x="181" 
d="M75 -168c-13.333 0 -27.333 1.66797 -42 5.00098l6 40c11.333 -4 22.666 -6 33.999 -6c12.667 0 22.334 2.83301 29.001 8.5s10 13.167 10 22.5c0 12.667 -4.83301 22.167 -14.5 28.5s-22.167 10.166 -37.5 11.499l23 59h41l-18 -41c14.667 -4.66699 27 -11.5 37 -20.5
s15 -22.167 15 -39.5s-7.33301 -33 -22 -47s-35 -21 -61 -21z" />
    <glyph glyph-name="onesuperior" unicode="&#xb9;" horiz-adv-x="248" 
d="M32 589c34.667 1.33301 62.668 12.333 84.001 33s32 46.667 32 78h48v-394h-50v282c-14 -14.667 -30.833 -26 -50.5 -34s-40.834 -12.667 -63.501 -14v49z" />
    <glyph glyph-name="ordmasculine" unicode="&#xba;" horiz-adv-x="300" 
d="M144 443c-36.667 0 -66 11.832 -88 35.499s-33 54.834 -33 93.501v7c0 38 11 68.5 33 91.5s51.333 34.5 88 34.5h7c36 0 64.833 -11.5 86.5 -34.5s32.5 -53.5 32.5 -91.5v-8c0 -38 -10.833 -68.833 -32.5 -92.5s-50.5 -35.5 -86.5 -35.5h-7zM151 488.999
c20.667 0 37.333 7.5 50 22.5s19 35.167 19 60.5v7c0 24.667 -6.33301 44.334 -19 59.001s-29.667 22 -51 22h-3c-22.667 0 -40.667 -7.33301 -54 -22s-20 -34.334 -20 -59.001v-7c0 -25.333 6.66699 -45.5 20 -60.5s31.333 -22.5 54 -22.5h4zM38.999 382.999h217v-47h-217
v47z" />
    <glyph glyph-name="guillemotright" unicode="&#xbb;" horiz-adv-x="578" 
d="M454 269v10l-180 199h63l178 -198v-12l-178 -198h-63zM253 269v10l-180 199h63l178 -198v-12l-178 -198h-63z" />
    <glyph glyph-name="onequarter" unicode="&#xbc;" horiz-adv-x="732" 
d="M122 599c-10.667 -9.33301 -22.668 -16.5 -36.001 -21.5s-27 -7.5 -41 -7.5h-12v47l11 1c20.667 1.33301 38.834 8.83301 54.501 22.5s23.5 30.167 23.5 49.5v10h53v-363h-53v262zM571.999 700h74l-537 -700h-73zM373.999 113l162 247h67v-239h49v-50h-49v-74h-53v74
h-176v42zM549.999 121v169l-114 -169h114z" />
    <glyph glyph-name="onehalf" unicode="&#xbd;" horiz-adv-x="753" 
d="M122 599c-10.667 -9.33301 -22.667 -16.502 -36 -21.502s-27 -7.5 -41 -7.5h-12v47l11 1c10 0.666992 19.833 2.83398 29.5 6.50098s18 8.83398 25 15.501s12.667 14.167 17 22.5s6.5 17.5 6.5 27.5v10h53v-363h-53v262zM574 699.998h73l-536 -700h-74zM424 42.998
l4.99512 3.00293c17.333 11.333 36.5 24.833 57.5 40.5s40.833 32.667 59.5 51s34.167 37.5 46.5 57.5s18.5 40 18.5 60c0 18.667 -5.66699 33.667 -17 45s-26.666 17 -45.999 17c-21.333 0 -38.333 -7 -51 -21s-21 -31.667 -25 -53l-2 -13l-50 15l2 9
c2.66699 15.333 7.33398 29.833 14.001 43.5s15.167 25.667 25.5 36s22.833 18.5 37.5 24.5s31.334 9 50.001 9c35.333 0 63.333 -10.333 84 -31s31 -47.334 31 -80.001c0 -20.667 -4.66699 -40.834 -14 -60.501s-21.166 -38.334 -35.499 -56.001
s-30.166 -34.167 -47.499 -49.5s-34 -29.333 -50 -42h156v-49h-249v44z" />
    <glyph glyph-name="threequarters" unicode="&#xbe;" horiz-adv-x="797" 
d="M178 335c-30.667 0 -58.334 7.33203 -83.001 21.999s-41.334 35.667 -50.001 63l-3 9l48 15l4 -9c7.33301 -15.333 17.833 -27.666 31.5 -36.999s30.5 -14 50.5 -14c25.333 0 45.333 7 60 21s22 32.667 22 56c0 44.667 -24.333 67 -73 67
c-11.333 0 -21.666 -1.33301 -30.999 -4s-18.666 -6.66699 -27.999 -12l-21 36l109 103h-153v49h233v-40l-95 -88c33.333 0 60.666 -10.167 81.999 -30.5s32 -47.5 32 -81.5c0 -36.667 -12.167 -66.667 -36.5 -90s-57.166 -35 -98.499 -35zM637 699.999h73l-536 -700h-73z
M439 112.999l161 247h67v-239h50v-50h-50v-74h-52v74h-176v42zM615 120.999v169l-114 -169h114z" />
    <glyph glyph-name="questiondown" unicode="&#xbf;" horiz-adv-x="498" 
d="M253 438c-12.667 0 -23.5 4.16699 -32.5 12.5s-13.5 18.166 -13.5 29.499v2c0 12 4.5 22.333 13.5 31s19.833 13 32.5 13s23.334 -4.33301 32.001 -13s13 -19 13 -31v-2c0 -11.333 -4.33301 -21.166 -13 -29.499s-19.334 -12.5 -32.001 -12.5zM225 -197
c-28.667 0 -55.002 4 -79.002 12s-44.667 19.333 -62 34s-31 32.334 -41 53.001s-15 43.667 -15 69c0 20 2.33301 37.833 7 53.5s11.334 30 20.001 43s19 25.333 31 37s25 23.5 39 35.5c14.667 12 28 24 40 36s22.5 24.667 31.5 38s16 28 21 44s7.5 34.333 7.5 55v14h57
c0.666992 -2.66699 1 -7.33398 1 -14.001c0 -26.667 -3.33301 -50 -10 -70s-15.167 -37.667 -25.5 -53s-22.166 -29.166 -35.499 -41.499l-40 -35.5c-11.333 -9.33301 -22.166 -18.833 -32.499 -28.5s-19.333 -20 -27 -31s-13.834 -23 -18.501 -36s-7 -27.5 -7 -43.5
c0 -38 13.167 -67 39.5 -87s60.5 -30 102.5 -30c24 0 46 3.66699 66 11s37.833 17.333 53.5 30s28.5 27.667 38.5 45s17 36.333 21 57l57 -9c-4.66699 -26.667 -14 -51.5 -28 -74.5s-31.333 -42.833 -52 -59.5s-44.5 -29.834 -71.5 -39.501s-56.5 -14.5 -88.5 -14.5z" />
    <glyph glyph-name="Agrave" unicode="&#xc0;" horiz-adv-x="616" 
d="M264 700h89l255 -700h-65l-76 211h-318l-75 -211h-66zM447 268l-136 378h-6l-135 -378h277zM219 900h62l47 -136h-47z" />
    <glyph glyph-name="Aacute" unicode="&#xc1;" horiz-adv-x="616" 
d="M264 700h89l255 -700h-65l-76 211h-318l-75 -211h-66zM447 268l-136 378h-6l-135 -378h277zM329 766h-47l47 136h62z" />
    <glyph glyph-name="Acircumflex" unicode="&#xc2;" horiz-adv-x="616" 
d="M264 700h89l255 -700h-65l-76 211h-318l-75 -211h-66zM447 268l-136 378h-6l-135 -378h277zM271 900h74l130 -121h-70l-88 78h-18l-87 -78h-71z" />
    <glyph glyph-name="Atilde" unicode="&#xc3;" horiz-adv-x="616" 
d="M264 700h89l255 -700h-65l-76 211h-318l-75 -211h-66zM447 268l-136 378h-6l-135 -378h277zM138 833c11.333 17.333 25.3311 30.668 41.998 40.001s34.667 14 54 14c13.333 0 26.5 -2.33301 39.5 -7s27.833 -11 44.5 -19c11.333 -6 22.5 -11 33.5 -15s22.167 -6 33.5 -6
c14 0 26.667 3.16699 38 9.5s20.666 15.166 27.999 26.499l25 -33c-10.667 -17.333 -24.167 -30.5 -40.5 -39.5s-33.833 -13.5 -52.5 -13.5c-14 0 -27.667 2.5 -41 7.5s-26.666 10.833 -39.999 17.5s-25.666 12 -36.999 16s-22.666 6 -33.999 6
c-13.333 0 -26.333 -3.33301 -39 -10s-22.667 -15.667 -30 -27z" />
    <glyph glyph-name="Adieresis" unicode="&#xc4;" horiz-adv-x="613" 
d="M219 785c-8.66699 2.66699 -15.1699 7.5 -19.5029 14.5s-5.16602 15.167 -2.49902 24.5c2.66699 8.66699 7.66699 15.334 15 20.001s15.333 5.66699 24 3s15.334 -7.66699 20.001 -15s5.66699 -15.333 3 -24s-7.66699 -15.334 -15 -20.001s-15.666 -5.66699 -24.999 -3z
M375.997 785c-9.33301 2.66699 -16.166 7.5 -20.499 14.5s-5.16602 15.167 -2.49902 24.5c2.66699 8.66699 7.66699 15.334 15 20.001s15.333 5.66699 24 3c9.33301 -2.66699 16.166 -7.66699 20.499 -15s5.16602 -15.333 2.49902 -24s-7.66699 -15.334 -15 -20.001
s-15.333 -5.66699 -24 -3zM261.997 700h89l255 -700h-65l-76 211h-318l-75 -211h-66zM444.997 268l-136 378h-6l-135 -378h277z" />
    <glyph glyph-name="Aring" unicode="&#xc5;" horiz-adv-x="616" 
d="M264 700h89l255 -700h-65l-76 211h-318l-75 -211h-66zM447 268l-136 378h-6l-135 -378h277zM307 763c-24 0 -43.667 7.5 -59 22.5s-23 34.167 -23 57.5s7.66699 42.833 23 58.5s35 23.5 59 23.5s43.833 -7.83301 59.5 -23.5s23.5 -35.167 23.5 -58.5
s-7.83301 -42.5 -23.5 -57.5s-35.5 -22.5 -59.5 -22.5zM307 797c13.333 0 24.333 4.33301 33 13s13 19.667 13 33s-4.33301 24.5 -13 33.5s-19.667 13.5 -33 13.5s-24.166 -4.5 -32.499 -13.5s-12.5 -20.167 -12.5 -33.5s4.16699 -24.333 12.5 -33s19.166 -13 32.499 -13z
" />
    <glyph glyph-name="AE" unicode="&#xc6;" horiz-adv-x="815" 
d="M298 700h446v-57h-303v-255h283v-57h-283v-274h313v-57h-373v211h-220l-87 -211h-66zM381 268v375h-42l-156 -375h198z" />
    <glyph glyph-name="Ccedilla" unicode="&#xc7;" horiz-adv-x="656" 
d="M361 -8c-47.333 0 -90.165 8.33008 -128.498 24.9971s-71.166 40.334 -98.499 71.001s-48.5 67.5 -63.5 110.5s-22.5 90.5 -22.5 142.5v19c0 52 7.66699 99.333 23 142s36.833 79.334 64.5 110.001s60.5 54.5 98.5 71.5s80 25.5 126 25.5h7
c26.667 0 52.667 -3.5 78 -10.5s49 -16.833 71 -29.5s41.833 -28 59.5 -46s32.5 -38 44.5 -60l-52 -32c-19.333 37.333 -46.333 66.666 -81 87.999s-75.334 32 -122.001 32h-5c-37.333 0 -71.333 -7 -102 -21s-56.834 -33.667 -78.501 -59s-38.5 -55.833 -50.5 -91.5
s-18 -75.167 -18 -118.5v-22c0 -43.333 6 -82.666 18 -117.999s29 -65.666 51 -90.999s48.333 -45 79 -59s65 -21 103 -21h5c46.667 0 88.167 11 124.5 33s64.166 51 83.499 87l49 -32c-24 -45.333 -59 -81 -105 -107s-96.333 -39 -151 -39h-7zM329.001 -168.003
c-13.333 0 -27.333 1.66797 -42 5.00098l6 40c11.333 -4 22.666 -6 33.999 -6c12.667 0 22.334 2.83301 29.001 8.5s10 13.167 10 22.5c0 12.667 -4.83301 22.167 -14.5 28.5s-22.167 10.166 -37.5 11.499l23 59h41l-18 -41c14.667 -4.66699 27 -11.5 37 -20.5
s15 -22.167 15 -39.5s-7.33301 -33 -22 -47s-35 -21 -61 -21z" />
    <glyph glyph-name="Egrave" unicode="&#xc8;" horiz-adv-x="557" 
d="M103 700h383v-57h-323v-255h303v-57h-303v-274h333v-57h-393v700zM211 900h62l47 -136h-47z" />
    <glyph glyph-name="Eacute" unicode="&#xc9;" horiz-adv-x="557" 
d="M103 700h383v-57h-323v-255h303v-57h-303v-274h333v-57h-393v700zM321 766h-47l47 136h62z" />
    <glyph glyph-name="Ecircumflex" unicode="&#xca;" horiz-adv-x="557" 
d="M103 700h383v-57h-323v-255h303v-57h-303v-274h333v-57h-393v700zM263 900h74l130 -121h-70l-88 78h-18l-87 -78h-71z" />
    <glyph glyph-name="Edieresis" unicode="&#xcb;" horiz-adv-x="557" 
d="M103 700h383v-57h-323v-255h303v-57h-303v-274h333v-57h-393v700zM220 788c-9.33301 2.66699 -16.166 7.5 -20.499 14.5s-5.16602 15.167 -2.49902 24.5c2.66699 8.66699 7.66699 15.334 15 20.001s15.333 5.66699 24 3c9.33301 -2.66699 16.166 -7.66699 20.499 -15
s5.16602 -15.333 2.49902 -24s-7.66699 -15.334 -15 -20.001s-15.333 -5.66699 -24 -3zM363 788c-9.33301 2.66699 -16.166 7.5 -20.499 14.5s-5.16602 15.167 -2.49902 24.5c2.66699 8.66699 7.66699 15.334 15 20.001s15.333 5.66699 24 3
c9.33301 -2.66699 16.166 -7.66699 20.499 -15s5.16602 -15.333 2.49902 -24s-7.66699 -15.334 -15 -20.001s-15.333 -5.66699 -24 -3z" />
    <glyph glyph-name="Igrave" unicode="&#xcc;" horiz-adv-x="267" 
d="M103 700h60v-700h-60v700zM45 900h62l47 -136h-47z" />
    <glyph glyph-name="Iacute" unicode="&#xcd;" horiz-adv-x="267" 
d="M103 700h60v-700h-60v700zM155 766h-47l47 136h62z" />
    <glyph glyph-name="Icircumflex" unicode="&#xce;" horiz-adv-x="267" 
d="M103 700h60v-700h-60v700zM96 900h74l130 -121h-70l-88 78h-18l-87 -78h-71z" />
    <glyph glyph-name="Idieresis" unicode="&#xcf;" horiz-adv-x="267" 
d="M103 700h60v-700h-60v700zM53 788c-9.33301 2.66699 -16.166 7.5 -20.499 14.5s-5.16602 15.167 -2.49902 24.5c2.66699 8.66699 7.66699 15.334 15 20.001s15.333 5.66699 24 3c9.33301 -2.66699 16.166 -7.66699 20.499 -15s5.16602 -15.333 2.49902 -24
s-7.66699 -15.334 -15 -20.001s-15.333 -5.66699 -24 -3zM196 788c-9.33301 2.66699 -16.166 7.5 -20.499 14.5s-5.16602 15.167 -2.49902 24.5c2.66699 8.66699 7.66699 15.334 15 20.001s15.333 5.66699 24 3c9.33301 -2.66699 16.166 -7.66699 20.499 -15
s5.16602 -15.333 2.49902 -24s-7.66699 -15.334 -15 -20.001s-15.333 -5.66699 -24 -3z" />
    <glyph glyph-name="Eth" unicode="&#xd0;" horiz-adv-x="703" 
d="M110 331l-77 0.00292969v57h77v312h199c51.333 0 98.166 -7.83301 140.499 -23.5s78.666 -38 108.999 -67s53.833 -63.833 70.5 -104.5s25 -86 25 -136v-20c0 -52.667 -8.33301 -100.334 -25 -143.001s-40.167 -79.334 -70.5 -110.001s-66.666 -54.334 -108.999 -71.001
s-89.166 -25 -140.499 -25h-199v331zM309 57.0029c43.333 0 82.332 6.83398 116.999 20.501s64.167 33.167 88.5 58.5s43 56.166 56 92.499s19.5 77.166 19.5 122.499v20c0 42 -6.5 79.667 -19.5 113s-31.833 61.833 -56.5 85.5s-54.167 41.834 -88.5 54.501
s-73.166 19 -116.499 19h-139v-255h188v-57h-188v-274h139z" />
    <glyph glyph-name="Ntilde" unicode="&#xd1;" horiz-adv-x="700" 
d="M103 700h75l353 -604h6v604h60v-700h-71l-354 606h-9v-606h-60v700zM180 833c11.333 17.333 25.3311 30.668 41.998 40.001s34.667 14 54 14c13.333 0 26.5 -2.33301 39.5 -7s27.833 -11 44.5 -19c11.333 -6 22.5 -11 33.5 -15s22.167 -6 33.5 -6
c14 0 26.667 3.16699 38 9.5s20.666 15.166 27.999 26.499l25 -33c-10.667 -17.333 -24.167 -30.5 -40.5 -39.5s-33.833 -13.5 -52.5 -13.5c-14 0 -27.667 2.5 -41 7.5s-26.666 10.833 -39.999 17.5s-25.666 12 -36.999 16s-22.666 6 -33.999 6
c-13.333 0 -26.333 -3.33301 -39 -10s-22.667 -15.667 -30 -27z" />
    <glyph glyph-name="Ograve" unicode="&#xd2;" horiz-adv-x="745" 
d="M48 359c0 52.667 8 100.5 24 143.5s38.167 79.667 66.5 110s62.166 53.833 101.499 70.5s82.333 25 129 25h7c46.667 0 89.667 -8.33301 129 -25s73.166 -40.167 101.499 -70.5s50.333 -67 66 -110s23.5 -90.833 23.5 -143.5v-18c0 -52.667 -7.83301 -100.5 -23.5 -143.5
s-37.667 -79.667 -66 -110s-62.166 -53.833 -101.499 -70.5s-82.333 -25 -129 -25h-7c-46.667 0 -89.667 8.33301 -129 25s-73.166 40.167 -101.499 70.5s-50.5 67 -66.5 110s-24 90.833 -24 143.5v18zM111 340c0 -43.333 6.49902 -82.666 19.499 -117.999
s31 -65.666 54 -90.999s50.333 -45 82 -59s66.167 -21 103.5 -21h4c38 0 72.833 7 104.5 21s59 33.667 82 59s41 55.666 54 90.999s19.5 74.666 19.5 117.999v20c0 43.333 -6.5 82.666 -19.5 117.999s-31 65.666 -54 90.999s-50.333 45 -82 59s-66.167 21 -103.5 21h-6
c-37.333 0 -71.666 -7 -102.999 -21s-58.5 -33.667 -81.5 -59s-41 -55.666 -54 -90.999s-19.5 -74.666 -19.5 -117.999v-20zM283.999 900h62l47 -136h-47z" />
    <glyph glyph-name="Oacute" unicode="&#xd3;" horiz-adv-x="745" 
d="M48 359c0 52.667 8 100.5 24 143.5s38.167 79.667 66.5 110s62.166 53.833 101.499 70.5s82.333 25 129 25h7c46.667 0 89.667 -8.33301 129 -25s73.166 -40.167 101.499 -70.5s50.333 -67 66 -110s23.5 -90.833 23.5 -143.5v-18c0 -52.667 -7.83301 -100.5 -23.5 -143.5
s-37.667 -79.667 -66 -110s-62.166 -53.833 -101.499 -70.5s-82.333 -25 -129 -25h-7c-46.667 0 -89.667 8.33301 -129 25s-73.166 40.167 -101.499 70.5s-50.5 67 -66.5 110s-24 90.833 -24 143.5v18zM111 340c0 -43.333 6.49902 -82.666 19.499 -117.999
s31 -65.666 54 -90.999s50.333 -45 82 -59s66.167 -21 103.5 -21h4c38 0 72.833 7 104.5 21s59 33.667 82 59s41 55.666 54 90.999s19.5 74.666 19.5 117.999v20c0 43.333 -6.5 82.666 -19.5 117.999s-31 65.666 -54 90.999s-50.333 45 -82 59s-66.167 21 -103.5 21h-6
c-37.333 0 -71.666 -7 -102.999 -21s-58.5 -33.667 -81.5 -59s-41 -55.666 -54 -90.999s-19.5 -74.666 -19.5 -117.999v-20zM393.999 766h-47l47 136h62z" />
    <glyph glyph-name="Ocircumflex" unicode="&#xd4;" horiz-adv-x="745" 
d="M48 359c0 52.667 8 100.5 24 143.5s38.167 79.667 66.5 110s62.166 53.833 101.499 70.5s82.333 25 129 25h7c46.667 0 89.667 -8.33301 129 -25s73.166 -40.167 101.499 -70.5s50.333 -67 66 -110s23.5 -90.833 23.5 -143.5v-18c0 -52.667 -7.83301 -100.5 -23.5 -143.5
s-37.667 -79.667 -66 -110s-62.166 -53.833 -101.499 -70.5s-82.333 -25 -129 -25h-7c-46.667 0 -89.667 8.33301 -129 25s-73.166 40.167 -101.499 70.5s-50.5 67 -66.5 110s-24 90.833 -24 143.5v18zM111 340c0 -43.333 6.49902 -82.666 19.499 -117.999
s31 -65.666 54 -90.999s50.333 -45 82 -59s66.167 -21 103.5 -21h4c38 0 72.833 7 104.5 21s59 33.667 82 59s41 55.666 54 90.999s19.5 74.666 19.5 117.999v20c0 43.333 -6.5 82.666 -19.5 117.999s-31 65.666 -54 90.999s-50.333 45 -82 59s-66.167 21 -103.5 21h-6
c-37.333 0 -71.666 -7 -102.999 -21s-58.5 -33.667 -81.5 -59s-41 -55.666 -54 -90.999s-19.5 -74.666 -19.5 -117.999v-20zM334.999 900h74l130 -121h-70l-88 78h-18l-87 -78h-71z" />
    <glyph glyph-name="Otilde" unicode="&#xd5;" horiz-adv-x="745" 
d="M48 359c0 52.667 8 100.5 24 143.5s38.167 79.667 66.5 110s62.166 53.833 101.499 70.5s82.333 25 129 25h7c46.667 0 89.667 -8.33301 129 -25s73.166 -40.167 101.499 -70.5s50.333 -67 66 -110s23.5 -90.833 23.5 -143.5v-18c0 -52.667 -7.83301 -100.5 -23.5 -143.5
s-37.667 -79.667 -66 -110s-62.166 -53.833 -101.499 -70.5s-82.333 -25 -129 -25h-7c-46.667 0 -89.667 8.33301 -129 25s-73.166 40.167 -101.499 70.5s-50.5 67 -66.5 110s-24 90.833 -24 143.5v18zM111 340c0 -43.333 6.49902 -82.666 19.499 -117.999
s31 -65.666 54 -90.999s50.333 -45 82 -59s66.167 -21 103.5 -21h4c38 0 72.833 7 104.5 21s59 33.667 82 59s41 55.666 54 90.999s19.5 74.666 19.5 117.999v20c0 43.333 -6.5 82.666 -19.5 117.999s-31 65.666 -54 90.999s-50.333 45 -82 59s-66.167 21 -103.5 21h-6
c-37.333 0 -71.666 -7 -102.999 -21s-58.5 -33.667 -81.5 -59s-41 -55.666 -54 -90.999s-19.5 -74.666 -19.5 -117.999v-20zM202.999 833c11.333 17.333 25.3311 30.668 41.998 40.001s34.667 14 54 14c13.333 0 26.5 -2.33301 39.5 -7s27.833 -11 44.5 -19
c11.333 -6 22.5 -11 33.5 -15s22.167 -6 33.5 -6c14 0 26.667 3.16699 38 9.5s20.666 15.166 27.999 26.499l25 -33c-10.667 -17.333 -24.167 -30.5 -40.5 -39.5s-33.833 -13.5 -52.5 -13.5c-14 0 -27.667 2.5 -41 7.5s-26.666 10.833 -39.999 17.5s-25.666 12 -36.999 16
s-22.666 6 -33.999 6c-13.333 0 -26.333 -3.33301 -39 -10s-22.667 -15.667 -30 -27z" />
    <glyph glyph-name="Odieresis" unicode="&#xd6;" horiz-adv-x="745" 
d="M293 777c-11.333 0 -20.5 3.66699 -27.5 11s-10.5 16.666 -10.5 27.999s3.5 20.666 10.5 27.999s16.167 11 27.5 11s20.666 -3.66699 27.999 -11s11 -16.666 11 -27.999s-3.66699 -20.666 -11 -27.999s-16.666 -11 -27.999 -11zM451 777
c-11.333 0 -20.5 3.66699 -27.5 11s-10.5 16.666 -10.5 27.999s3.5 20.666 10.5 27.999s16.167 11 27.5 11s20.666 -3.66699 27.999 -11s11 -16.666 11 -27.999s-3.66699 -20.666 -11 -27.999s-16.666 -11 -27.999 -11zM48 359c0 52.667 8 100.5 24 143.5
s38.167 79.667 66.5 110s62.166 53.833 101.499 70.5s82.333 25 129 25h7c46.667 0 89.667 -8.33301 129 -25s73.166 -40.167 101.499 -70.5s50.333 -67 66 -110s23.5 -90.833 23.5 -143.5v-18c0 -52.667 -7.83301 -100.5 -23.5 -143.5s-37.667 -79.667 -66 -110
s-62.166 -53.833 -101.499 -70.5s-82.333 -25 -129 -25h-7c-46.667 0 -89.667 8.33301 -129 25s-73.166 40.167 -101.499 70.5s-50.5 67 -66.5 110s-24 90.833 -24 143.5v18zM111 340c0 -43.333 6.49902 -82.666 19.499 -117.999s31 -65.666 54 -90.999s50.333 -45 82 -59
s66.167 -21 103.5 -21h4c38 0 72.833 7 104.5 21s59 33.667 82 59s41 55.666 54 90.999s19.5 74.666 19.5 117.999v20c0 43.333 -6.5 82.666 -19.5 117.999s-31 65.666 -54 90.999s-50.333 45 -82 59s-66.167 21 -103.5 21h-6c-37.333 0 -71.666 -7 -102.999 -21
s-58.5 -33.667 -81.5 -59s-41 -55.666 -54 -90.999s-19.5 -74.666 -19.5 -117.999v-20z" />
    <glyph glyph-name="multiply" unicode="&#xd7;" horiz-adv-x="485" 
d="M53 172l153 153l-153 152l37 37l152 -153l153 153l36 -37l-152 -152l152 -153l-36 -36l-153 152l-152 -152z" />
    <glyph glyph-name="Oslash" unicode="&#xd8;" horiz-adv-x="745" 
d="M165 62c-36.667 30.667 -65.333 69.498 -86 116.498s-31 101.167 -31 162.5v18c0 52.667 8 100.5 24 143.5s38.167 79.667 66.5 110s62.166 53.833 101.499 70.5s82.333 25 129 25h7c30.667 0 59.667 -3.66699 87 -11s52.666 -17.666 75.999 -30.999l42 69h58l-60 -96
c36.667 -30.667 65.334 -69.667 86.001 -117s31 -101.666 31 -162.999v-18c0 -52.667 -7.83301 -100.5 -23.5 -143.5s-37.667 -79.667 -66 -110s-62.166 -53.833 -101.499 -70.5s-82.333 -25 -129 -25h-7c-30.667 0 -59.5 3.5 -86.5 10.5s-52.167 17.167 -75.5 30.5l-42 -69
h-60zM111.001 339.998c0 -48 7.66602 -91.1699 22.999 -129.503s37 -70.166 65 -95.499l308 499c-38.667 23.333 -82.667 35 -132 35h-6c-37.333 0 -71.666 -7 -102.999 -21s-58.5 -33.667 -81.5 -59s-41 -55.666 -54 -90.999s-19.5 -74.666 -19.5 -117.999v-20z
M239 84.9951c39.333 -22.667 83 -33.998 131 -33.998h4c38 0 72.833 7 104.5 21s59 33.667 82 59s41 55.666 54 90.999s19.5 74.666 19.5 117.999v20c0 48 -7.66699 91 -23 129s-37 69.667 -65 95z" />
    <glyph glyph-name="Ugrave" unicode="&#xd9;" horiz-adv-x="695" 
d="M348 -7c-81.333 0 -144.168 21.833 -188.501 65.5s-66.5 106.5 -66.5 188.5v453h60v-447c0 -66 16.833 -116 50.5 -150s81.834 -51 144.501 -51s110.667 17 144 51s50 84 50 150v447h60v-453c0 -82 -22.167 -144.833 -66.5 -188.5s-106.833 -65.5 -187.5 -65.5z
M258.998 900h62l47 -136h-47z" />
    <glyph glyph-name="Uacute" unicode="&#xda;" horiz-adv-x="695" 
d="M348 -7c-81.333 0 -144.168 21.833 -188.501 65.5s-66.5 106.5 -66.5 188.5v453h60v-447c0 -66 16.833 -116 50.5 -150s81.834 -51 144.501 -51s110.667 17 144 51s50 84 50 150v447h60v-453c0 -82 -22.167 -144.833 -66.5 -188.5s-106.833 -65.5 -187.5 -65.5z
M368.998 766h-47l47 136h62z" />
    <glyph glyph-name="Ucircumflex" unicode="&#xdb;" horiz-adv-x="695" 
d="M348 -7c-81.333 0 -144.168 21.833 -188.501 65.5s-66.5 106.5 -66.5 188.5v453h60v-447c0 -66 16.833 -116 50.5 -150s81.834 -51 144.501 -51s110.667 17 144 51s50 84 50 150v447h60v-453c0 -82 -22.167 -144.833 -66.5 -188.5s-106.833 -65.5 -187.5 -65.5z
M310.998 900h74l130 -121h-70l-88 78h-18l-87 -78h-71z" />
    <glyph glyph-name="Udieresis" unicode="&#xdc;" horiz-adv-x="695" 
d="M261 785c-8.66699 2.66699 -15.167 7.5 -19.5 14.5s-5.16602 15.167 -2.49902 24.5c2.66699 8.66699 7.5 15.334 14.5 20.001s15.167 5.66699 24.5 3c8.66699 -2.66699 15.334 -7.66699 20.001 -15s5.66699 -15.333 3 -24s-7.83398 -15.334 -15.501 -20.001
s-15.834 -5.66699 -24.501 -3zM417 785c-8.66699 2.66699 -15.1699 7.5 -19.5029 14.5s-5.16602 15.167 -2.49902 24.5c2.66699 8.66699 7.66699 15.334 15 20.001s15.333 5.66699 24 3s15.334 -7.66699 20.001 -15s5.66699 -15.333 3 -24s-7.66699 -15.334 -15 -20.001
s-15.666 -5.66699 -24.999 -3zM347.997 -7c-81.333 0 -144.168 21.833 -188.501 65.5s-66.5 106.5 -66.5 188.5v453h60v-447c0 -66 16.833 -116 50.5 -150s81.834 -51 144.501 -51s110.667 17 144 51s50 84 50 150v447h60v-453c0 -82 -22.167 -144.833 -66.5 -188.5
s-106.833 -65.5 -187.5 -65.5z" />
    <glyph glyph-name="Yacute" unicode="&#xdd;" horiz-adv-x="558" 
d="M249 281l-241 419h69l198 -351h8l198 351h69l-241 -419v-281h-60v281zM300 766h-47l47 136h62z" />
    <glyph glyph-name="Thorn" unicode="&#xde;" horiz-adv-x="588" 
d="M103 700l59.999 0.00292969v-110h137c36 0 68.833 -5.16699 98.5 -15.5s54.834 -24.833 75.501 -43.5s36.667 -41.334 48 -68.001s17 -56.667 17 -90v-2c0 -32.667 -5.66699 -62.334 -17 -89.001s-27.333 -49.334 -48 -68.001s-45.667 -33.167 -75 -43.5
s-62 -15.5 -98 -15.5h-138v-155h-60v700zM299.999 212.003c54.667 0 97.834 14.167 129.501 42.5s47.5 66.833 47.5 115.5v2c0 50 -15.833 89.333 -47.5 118s-74.834 43 -129.501 43h-137v-321h137z" />
    <glyph glyph-name="germandbls" unicode="&#xdf;" horiz-adv-x="562" 
d="M322 -6c-18 0 -36.835 1.5 -56.502 4.5s-35.5 6.83301 -47.5 11.5v51c10.667 -4 25.167 -7.16699 43.5 -9.5s34.5 -3.5 48.5 -3.5c48 0 86 13.833 114 41.5s42 65.167 42 112.5c0 24 -3.83301 45.667 -11.5 65s-18.5 36 -32.5 50s-30.833 24.833 -50.5 32.5
s-41.5 11.5 -65.5 11.5h-63v53h57c36.667 0 66.334 11.5 89.001 34.5s34 52.5 34 88.5c0 38 -12.333 68.667 -37 92s-57.667 35 -99 35c-22 0 -42 -3.66699 -60 -11s-33.5 -17.5 -46.5 -30.5s-23.167 -28.833 -30.5 -47.5s-11 -39 -11 -61v-514h-56v515
c0 30.667 5 58.5 15 83.5s24 46.5 42 64.5s39.667 31.833 65 41.5s53.333 14.5 84 14.5c28.667 0 54.834 -4.16699 78.501 -12.5s43.834 -20.166 60.501 -35.499s29.667 -33.833 39 -55.5s14 -45.5 14 -71.5c0 -34 -7.5 -64 -22.5 -90s-35.167 -46 -60.5 -60
c39.333 -15.333 70.166 -40 92.499 -74s33.5 -75 33.5 -123c0 -30.667 -4.83301 -58.5 -14.5 -83.5s-23.167 -46.333 -40.5 -64s-38.5 -31.334 -63.5 -41.001s-52.833 -14.5 -83.5 -14.5z" />
    <glyph glyph-name="agrave" unicode="&#xe0;" horiz-adv-x="550" 
d="M226 -7c-26 0 -49.6709 3.66699 -71.0039 11s-39.666 17.833 -54.999 31.5s-27.166 30 -35.499 49s-12.5 39.833 -12.5 62.5v5c0 56.667 25.167 98.5 75.5 125.5s127.166 40.5 230.499 40.5h51v46c0 34 -11.167 60.333 -33.5 79s-53.833 28 -94.5 28h-5
c-28 0 -56.5 -5 -85.5 -15s-56.5 -24.333 -82.5 -43l-28 46c32.667 21.333 65.334 38.166 98.001 50.499s66.667 18.5 102 18.5h4c58 0 102.667 -14.333 134 -43s47 -68 47 -118v-275c0 -14.667 1.83301 -30.5 5.5 -47.5s7.83398 -31.833 12.501 -44.5h-57
c-3.33301 8.66699 -6.5 19.334 -9.5 32.001s-5.16699 25 -6.5 37c-27.333 -24.667 -56.666 -43.5 -87.999 -56.5s-63.333 -19.5 -96 -19.5zM228.996 49c34.667 0 67.334 7.33203 98.001 21.999s58 35.334 82 62.001v133h-39c-92 0 -158.5 -8.83301 -199.5 -26.5
s-61.5 -47.167 -61.5 -88.5v-4c0 -29.333 11.167 -53 33.5 -71s51.166 -27 86.499 -27zM186.996 722.999h61l53 -133h-48z" />
    <glyph glyph-name="aacute" unicode="&#xe1;" horiz-adv-x="550" 
d="M226 -7c-26 0 -49.6709 3.66699 -71.0039 11s-39.666 17.833 -54.999 31.5s-27.166 30 -35.499 49s-12.5 39.833 -12.5 62.5v5c0 56.667 25.167 98.5 75.5 125.5s127.166 40.5 230.499 40.5h51v46c0 34 -11.167 60.333 -33.5 79s-53.833 28 -94.5 28h-5
c-28 0 -56.5 -5 -85.5 -15s-56.5 -24.333 -82.5 -43l-28 46c32.667 21.333 65.334 38.166 98.001 50.499s66.667 18.5 102 18.5h4c58 0 102.667 -14.333 134 -43s47 -68 47 -118v-275c0 -14.667 1.83301 -30.5 5.5 -47.5s7.83398 -31.833 12.501 -44.5h-57
c-3.33301 8.66699 -6.5 19.334 -9.5 32.001s-5.16699 25 -6.5 37c-27.333 -24.667 -56.666 -43.5 -87.999 -56.5s-63.333 -19.5 -96 -19.5zM228.996 49c34.667 0 67.334 7.33203 98.001 21.999s58 35.334 82 62.001v133h-39c-92 0 -158.5 -8.83301 -199.5 -26.5
s-61.5 -47.167 -61.5 -88.5v-4c0 -29.333 11.167 -53 33.5 -71s51.166 -27 86.499 -27zM254.996 586.999l56 133h61l-70 -133h-47z" />
    <glyph glyph-name="acircumflex" unicode="&#xe2;" horiz-adv-x="550" 
d="M226 -7c-26 0 -49.6709 3.66699 -71.0039 11s-39.666 17.833 -54.999 31.5s-27.166 30 -35.499 49s-12.5 39.833 -12.5 62.5v5c0 56.667 25.167 98.5 75.5 125.5s127.166 40.5 230.499 40.5h51v46c0 34 -11.167 60.333 -33.5 79s-53.833 28 -94.5 28h-5
c-28 0 -56.5 -5 -85.5 -15s-56.5 -24.333 -82.5 -43l-28 46c32.667 21.333 65.334 38.166 98.001 50.499s66.667 18.5 102 18.5h4c58 0 102.667 -14.333 134 -43s47 -68 47 -118v-275c0 -14.667 1.83301 -30.5 5.5 -47.5s7.83398 -31.833 12.501 -44.5h-57
c-3.33301 8.66699 -6.5 19.334 -9.5 32.001s-5.16699 25 -6.5 37c-27.333 -24.667 -56.666 -43.5 -87.999 -56.5s-63.333 -19.5 -96 -19.5zM228.996 49c34.667 0 67.334 7.33203 98.001 21.999s58 35.334 82 62.001v133h-39c-92 0 -158.5 -8.83301 -199.5 -26.5
s-61.5 -47.167 -61.5 -88.5v-4c0 -29.333 11.167 -53 33.5 -71s51.166 -27 86.499 -27zM375.996 598.999l-88 78h-18l-87 -78h-71l130 121h74l130 -121h-70z" />
    <glyph glyph-name="atilde" unicode="&#xe3;" horiz-adv-x="550" 
d="M226 -7c-26 0 -49.6709 3.66699 -71.0039 11s-39.666 17.833 -54.999 31.5s-27.166 30 -35.499 49s-12.5 39.833 -12.5 62.5v5c0 56.667 25.167 98.5 75.5 125.5s127.166 40.5 230.499 40.5h51v46c0 34 -11.167 60.333 -33.5 79s-53.833 28 -94.5 28h-5
c-28 0 -56.5 -5 -85.5 -15s-56.5 -24.333 -82.5 -43l-28 46c32.667 21.333 65.334 38.166 98.001 50.499s66.667 18.5 102 18.5h4c58 0 102.667 -14.333 134 -43s47 -68 47 -118v-275c0 -14.667 1.83301 -30.5 5.5 -47.5s7.83398 -31.833 12.501 -44.5h-57
c-3.33301 8.66699 -6.5 19.334 -9.5 32.001s-5.16699 25 -6.5 37c-27.333 -24.667 -56.666 -43.5 -87.999 -56.5s-63.333 -19.5 -96 -19.5zM228.996 49c34.667 0 67.334 7.33203 98.001 21.999s58 35.334 82 62.001v133h-39c-92 0 -158.5 -8.83301 -199.5 -26.5
s-61.5 -47.167 -61.5 -88.5v-4c0 -29.333 11.167 -53 33.5 -71s51.166 -27 86.499 -27zM108.996 655.999c11.333 17.333 25.3311 30.498 41.998 39.498s34.667 13.5 54 13.5c14 0 27.5 -2.33301 40.5 -7s27.5 -11 43.5 -19c12 -5.33301 23.5 -10.166 34.5 -14.499
s22.167 -6.5 33.5 -6.5c14 0 26.667 3.33301 38 10s20.333 15.667 27 27l26 -33c-10.667 -17.333 -24.334 -30.666 -41.001 -39.999s-34 -14 -52 -14c-14.667 0 -28.667 2.66699 -42 8s-26.333 11 -39 17c-13.333 6.66699 -25.666 12.167 -36.999 16.5
s-22.666 6.5 -33.999 6.5c-14 0 -27.167 -3.33301 -39.5 -10s-22.166 -15.667 -29.499 -27z" />
    <glyph glyph-name="adieresis" unicode="&#xe4;" horiz-adv-x="550" 
d="M226 -7c-26 0 -49.6709 3.66699 -71.0039 11s-39.666 17.833 -54.999 31.5s-27.166 30 -35.499 49s-12.5 39.833 -12.5 62.5v5c0 56.667 25.167 98.5 75.5 125.5s127.166 40.5 230.499 40.5h51v46c0 34 -11.167 60.333 -33.5 79s-53.833 28 -94.5 28h-5
c-28 0 -56.5 -5 -85.5 -15s-56.5 -24.333 -82.5 -43l-28 46c32.667 21.333 65.334 38.166 98.001 50.499s66.667 18.5 102 18.5h4c58 0 102.667 -14.333 134 -43s47 -68 47 -118v-275c0 -14.667 1.83301 -30.5 5.5 -47.5s7.83398 -31.833 12.501 -44.5h-57
c-3.33301 8.66699 -6.5 19.334 -9.5 32.001s-5.16699 25 -6.5 37c-27.333 -24.667 -56.666 -43.5 -87.999 -56.5s-63.333 -19.5 -96 -19.5zM228.996 49c34.667 0 67.334 7.33203 98.001 21.999s58 35.334 82 62.001v133h-39c-92 0 -158.5 -8.83301 -199.5 -26.5
s-61.5 -47.167 -61.5 -88.5v-4c0 -29.333 11.167 -53 33.5 -71s51.166 -27 86.499 -27zM363.996 633.999c-11.333 0 -20.666 3.66699 -27.999 11s-11 16.666 -11 27.999s3.66699 20.833 11 28.5s16.666 11.5 27.999 11.5s21 -3.83301 29 -11.5s12 -17.167 12 -28.5
s-4 -20.666 -12 -27.999s-17.667 -11 -29 -11zM190.996 633.999c-11.333 0 -20.666 3.66699 -27.999 11s-11 16.666 -11 27.999s3.66699 20.833 11 28.5s16.666 11.5 27.999 11.5s21 -3.83301 29 -11.5s12 -17.167 12 -28.5s-4 -20.666 -12 -27.999s-17.667 -11 -29 -11z
" />
    <glyph glyph-name="aring" unicode="&#xe5;" horiz-adv-x="550" 
d="M226 -7c-26 0 -49.6709 3.66699 -71.0039 11s-39.666 17.833 -54.999 31.5s-27.166 30 -35.499 49s-12.5 39.833 -12.5 62.5v5c0 56.667 25.167 98.5 75.5 125.5s127.166 40.5 230.499 40.5h51v46c0 34 -11.167 60.333 -33.5 79s-53.833 28 -94.5 28h-5
c-28 0 -56.5 -5 -85.5 -15s-56.5 -24.333 -82.5 -43l-28 46c32.667 21.333 65.334 38.166 98.001 50.499s66.667 18.5 102 18.5h4c58 0 102.667 -14.333 134 -43s47 -68 47 -118v-275c0 -14.667 1.83301 -30.5 5.5 -47.5s7.83398 -31.833 12.501 -44.5h-57
c-3.33301 8.66699 -6.5 19.334 -9.5 32.001s-5.16699 25 -6.5 37c-27.333 -24.667 -56.666 -43.5 -87.999 -56.5s-63.333 -19.5 -96 -19.5zM228.996 49c34.667 0 67.334 7.33203 98.001 21.999s58 35.334 82 62.001v133h-39c-92 0 -158.5 -8.83301 -199.5 -26.5
s-61.5 -47.167 -61.5 -88.5v-4c0 -29.333 11.167 -53 33.5 -71s51.166 -27 86.499 -27zM278.996 585.999c-23.333 0 -42.5 7.5 -57.5 22.5s-22.5 34.167 -22.5 57.5s7.5 42.833 22.5 58.5s34.167 23.5 57.5 23.5s42.833 -7.83301 58.5 -23.5s23.5 -35.167 23.5 -58.5
s-7.83301 -42.5 -23.5 -57.5s-35.167 -22.5 -58.5 -22.5zM278.996 619.999c13.333 0 24.333 4.33301 33 13s13 19.667 13 33s-4.33301 24.5 -13 33.5s-19.667 13.5 -33 13.5s-24.166 -4.5 -32.499 -13.5s-12.5 -20.167 -12.5 -33.5s4.16699 -24.333 12.5 -33
s19.166 -13 32.499 -13z" />
    <glyph glyph-name="ae" unicode="&#xe6;" horiz-adv-x="905" 
d="M223 -6c-25.333 0 -48.4961 3.66406 -69.4961 10.9971s-39 17.5 -54 30.5s-26.667 28.5 -35 46.5s-12.5 38 -12.5 60c0 54 24.333 93 73 117s123.667 36 225 36h45c0 3.33301 0.166992 6.83301 0.5 10.5s0.833008 6.16699 1.5 7.5v38c0 38 -10 67.167 -30 87.5
s-49 30.5 -87 30.5c-29.333 0 -59.333 -5.16699 -90 -15.5s-58 -24.166 -82 -41.499l-28 46c32 22 65.167 38.833 99.5 50.5s68.5 17.5 102.5 17.5c42 0 76.5 -8.83301 103.5 -26.5s45.5 -42.5 55.5 -74.5c20.667 31.333 47.167 56 79.5 74s68.833 27 109.5 27
c33.333 0 63.666 -5.83301 90.999 -17.5s50.666 -28 69.999 -49s34.5 -46.333 45.5 -76s16.5 -62.167 16.5 -97.5v-45h-401v-7c1.33301 -27.333 6.66602 -52.333 15.999 -75s21.833 -42 37.5 -58s34.167 -28.5 55.5 -37.5s44.666 -13.5 69.999 -13.5
c32.667 0 63.667 7.33301 93 22s53.333 35.334 72 62.001l44 -30c-25.333 -34.667 -56.333 -61.667 -93 -81s-76.667 -29 -120 -29c-42 0 -79.5 9 -112.5 27s-59.833 43 -80.5 75c-24.667 -31.333 -56 -56.166 -94 -74.499s-77 -27.5 -117 -27.5zM798.004 291.997
l0.000976562 1.99902c-0.666992 26 -5.5 49.833 -14.5 71.5s-21 40.334 -36 56.001s-32.833 27.667 -53.5 36s-43 12.5 -67 12.5s-46 -4.33301 -66 -13s-37.5 -20.667 -52.5 -36s-27.333 -34 -37 -56s-15.834 -46.333 -18.501 -73h345zM410.005 141.996
c-7.33301 15.333 -12.165 31.832 -14.498 49.499s-3.5 35.167 -3.5 52.5h-30c-44.667 0 -82.834 -1.66699 -114.501 -5s-57.834 -9 -78.501 -17s-35.834 -18.667 -45.501 -32s-14.5 -29.666 -14.5 -48.999c0 -28 10.833 -50.167 32.5 -66.5s50.834 -24.5 87.501 -24.5
c36 0 70.333 8.33301 103 25s58.667 39 78 67z" />
    <glyph glyph-name="ccedilla" unicode="&#xe7;" horiz-adv-x="548" 
d="M291 -6c-35.333 0 -67.6641 6.16699 -96.9971 18.5s-54.5 29.666 -75.5 51.999s-37.333 49 -49 80s-17.5 65.5 -17.5 103.5v24c0 38 5.83301 72.5 17.5 103.5s28.167 57.667 49.5 80s46.666 39.666 75.999 51.999s61.666 18.5 96.999 18.5h7c44 0 84 -11.167 120 -33.5
s64.667 -54.5 86 -96.5l-45 -25c-17.333 33.333 -39.833 58.333 -67.5 75s-59.167 25 -94.5 25h-8c-26.667 0 -51.167 -4.83301 -73.5 -14.5s-41.333 -23.167 -57 -40.5s-27.834 -38.166 -36.501 -62.499s-13 -51.5 -13 -81.5v-24c0 -30 4.33301 -57.167 13 -81.5
s21 -45.166 37 -62.499s35.167 -30.833 57.5 -40.5s47.166 -14.5 74.499 -14.5h9c33.333 0 63.666 8.16699 90.999 24.5s50 40.5 68 72.5l47 -25c-23.333 -40.667 -53.166 -72 -89.499 -94s-76.166 -33 -119.499 -33h-7zM259.002 -168
c-13.333 0 -27.333 1.66797 -42 5.00098l6 40c11.333 -4 22.666 -6 33.999 -6c12.667 0 22.334 2.83301 29.001 8.5s10 13.167 10 22.5c0 12.667 -4.83301 22.167 -14.5 28.5s-22.167 10.166 -37.5 11.499l23 59h41l-18 -41c14.667 -4.66699 27 -11.5 37 -20.5
s15 -22.167 15 -39.5s-7.33301 -33 -22 -47s-35 -21 -61 -21z" />
    <glyph glyph-name="egrave" unicode="&#xe8;" horiz-adv-x="571" 
d="M292 -6c-36 0 -68.832 6.16797 -98.499 18.501s-55 29.5 -76 51.5s-37.333 48.333 -49 79s-17.5 64.334 -17.5 101.001v20c0 39.333 5.83301 75 17.5 107s28 59.5 49 82.5s46.333 40.833 76 53.5s62.5 19 98.5 19h7c33.333 0 63.5 -5.83301 90.5 -17.5
s50.167 -28.167 69.5 -49.5s34.333 -46.833 45 -76.5s16 -62.834 16 -99.501v-47h-409v-2c2 -56 19.5 -100.667 52.5 -134s76.5 -50 130.5 -50h9c36 0 67.167 7.66699 93.5 23s48.166 35.666 65.499 60.999l45 -29c-25.333 -36 -55.5 -63.5 -90.5 -82.5
s-74.5 -28.5 -118.5 -28.5h-6zM464.001 289.001l-0.00195312 3c-1.33301 54 -17.166 97.167 -47.499 129.5s-70.166 48.5 -119.499 48.5h-9c-50.667 0 -91.667 -16.333 -123 -49s-49.333 -76.667 -54 -132h353zM201.999 723.001h61l53 -133h-48z" />
    <glyph glyph-name="eacute" unicode="&#xe9;" horiz-adv-x="571" 
d="M292 -6c-36 0 -68.832 6.16797 -98.499 18.501s-55 29.5 -76 51.5s-37.333 48.333 -49 79s-17.5 64.334 -17.5 101.001v20c0 39.333 5.83301 75 17.5 107s28 59.5 49 82.5s46.333 40.833 76 53.5s62.5 19 98.5 19h7c33.333 0 63.5 -5.83301 90.5 -17.5
s50.167 -28.167 69.5 -49.5s34.333 -46.833 45 -76.5s16 -62.834 16 -99.501v-47h-409v-2c2 -56 19.5 -100.667 52.5 -134s76.5 -50 130.5 -50h9c36 0 67.167 7.66699 93.5 23s48.166 35.666 65.499 60.999l45 -29c-25.333 -36 -55.5 -63.5 -90.5 -82.5
s-74.5 -28.5 -118.5 -28.5h-6zM464.001 289.001l-0.00195312 3c-1.33301 54 -17.166 97.167 -47.499 129.5s-70.166 48.5 -119.499 48.5h-9c-50.667 0 -91.667 -16.333 -123 -49s-49.333 -76.667 -54 -132h353zM269.999 587.001l56 133h61l-70 -133h-47z" />
    <glyph glyph-name="ecircumflex" unicode="&#xea;" horiz-adv-x="571" 
d="M292 -6c-36 0 -68.832 6.16797 -98.499 18.501s-55 29.5 -76 51.5s-37.333 48.333 -49 79s-17.5 64.334 -17.5 101.001v20c0 39.333 5.83301 75 17.5 107s28 59.5 49 82.5s46.333 40.833 76 53.5s62.5 19 98.5 19h7c33.333 0 63.5 -5.83301 90.5 -17.5
s50.167 -28.167 69.5 -49.5s34.333 -46.833 45 -76.5s16 -62.834 16 -99.501v-47h-409v-2c2 -56 19.5 -100.667 52.5 -134s76.5 -50 130.5 -50h9c36 0 67.167 7.66699 93.5 23s48.166 35.666 65.499 60.999l45 -29c-25.333 -36 -55.5 -63.5 -90.5 -82.5
s-74.5 -28.5 -118.5 -28.5h-6zM464.001 289.001l-0.00195312 3c-1.33301 54 -17.166 97.167 -47.499 129.5s-70.166 48.5 -119.499 48.5h-9c-50.667 0 -91.667 -16.333 -123 -49s-49.333 -76.667 -54 -132h353zM390.999 599.001l-88 78h-18l-87 -78h-71l130 121h74l130 -121
h-70z" />
    <glyph glyph-name="edieresis" unicode="&#xeb;" horiz-adv-x="571" 
d="M292 -6c-36 0 -68.832 6.16797 -98.499 18.501s-55 29.5 -76 51.5s-37.333 48.333 -49 79s-17.5 64.334 -17.5 101.001v20c0 39.333 5.83301 75 17.5 107s28 59.5 49 82.5s46.333 40.833 76 53.5s62.5 19 98.5 19h7c33.333 0 63.5 -5.83301 90.5 -17.5
s50.167 -28.167 69.5 -49.5s34.333 -46.833 45 -76.5s16 -62.834 16 -99.501v-47h-409v-2c2 -56 19.5 -100.667 52.5 -134s76.5 -50 130.5 -50h9c36 0 67.167 7.66699 93.5 23s48.166 35.666 65.499 60.999l45 -29c-25.333 -36 -55.5 -63.5 -90.5 -82.5
s-74.5 -28.5 -118.5 -28.5h-6zM464.001 289.001l-0.00195312 3c-1.33301 54 -17.166 97.167 -47.499 129.5s-70.166 48.5 -119.499 48.5h-9c-50.667 0 -91.667 -16.333 -123 -49s-49.333 -76.667 -54 -132h353zM378.999 634.001c-11.333 0 -20.666 3.66699 -27.999 11
s-11 16.666 -11 27.999s3.66699 20.833 11 28.5s16.666 11.5 27.999 11.5s21 -3.83301 29 -11.5s12 -17.167 12 -28.5s-4 -20.666 -12 -27.999s-17.667 -11 -29 -11zM205.999 634.001c-11.333 0 -20.666 3.66699 -27.999 11s-11 16.666 -11 27.999s3.66699 20.833 11 28.5
s16.666 11.5 27.999 11.5s21 -3.83301 29 -11.5s12 -17.167 12 -28.5s-4 -20.666 -12 -27.999s-17.667 -11 -29 -11z" />
    <glyph glyph-name="igrave" unicode="&#xec;" horiz-adv-x="233" 
d="M88 520h56v-520h-56v520zM24 720h61l53 -133h-48z" />
    <glyph glyph-name="iacute" unicode="&#xed;" horiz-adv-x="233" 
d="M88 520h56v-520h-56v520zM92 584l56 133h61l-70 -133h-47z" />
    <glyph glyph-name="icircumflex" unicode="&#xee;" horiz-adv-x="233" 
d="M196 599l-71 78h-18l-71 -78h-68l113 121h70l114 -121h-69zM88 520h56v-520h-56v520z" />
    <glyph glyph-name="idieresis" unicode="&#xef;" horiz-adv-x="233" 
d="M183 632c-10.667 0 -19.5 3.5 -26.5 10.5s-10.5 16.167 -10.5 27.5s3.5 20.666 10.5 27.999s15.833 11 26.5 11s19.667 -3.66699 27 -11s11 -16.666 11 -27.999s-3.66699 -20.5 -11 -27.5s-16.333 -10.5 -27 -10.5zM49 632c-10.667 0 -19.5 3.5 -26.5 10.5
s-10.5 16.167 -10.5 27.5s3.5 20.666 10.5 27.999s15.833 11 26.5 11s19.667 -3.66699 27 -11s11 -16.666 11 -27.999s-3.66699 -20.5 -11 -27.5s-16.333 -10.5 -27 -10.5zM88 520h56v-520h-56v520z" />
    <glyph glyph-name="eth" unicode="&#xf0;" horiz-adv-x="583" 
d="M150 601l122 61.9961c-26 18.667 -55.333 37.334 -88 56.001l30 38c19.333 -10.667 38 -21.667 56 -33s35.333 -23.666 52 -36.999l115 58l22 -38l-100 -51c53.333 -48 95.333 -103.833 126 -167.5s46 -135.834 46 -216.501v-10c0 -40.667 -5.66699 -77.5 -17 -110.5
s-27.333 -61.167 -48 -84.5s-45.667 -41.333 -75 -54s-61.666 -19 -96.999 -19h-5c-35.333 0 -67.666 6.33301 -96.999 19s-54.5 30.334 -75.5 53.001s-37.167 50.167 -48.5 82.5s-17 67.833 -17 106.5v10c0 39.333 5.83301 75 17.5 107s27.834 59.333 48.501 82
s45.167 40.334 73.5 53.001s59.166 19 92.499 19h4c27.333 0 53.666 -5.16699 78.999 -15.5s47.666 -23.166 66.999 -38.499c-15.333 30 -33 58.333 -53 85s-43.333 51.667 -70 75l-139 -70zM293 48.9961c27.333 0 52.001 4.99902 74.001 14.999s40.833 24 56.5 42
s27.834 39.667 36.501 65s13 53.666 13 84.999v8c0 35.333 -4.83301 66 -14.5 92s-22.834 47.5 -39.501 64.5s-35.834 29.667 -57.501 38s-44.5 12.5 -68.5 12.5h-3c-27.333 0 -52 -5 -74 -15s-40.833 -24 -56.5 -42s-27.834 -39.667 -36.501 -65s-13 -53.666 -13 -84.999
v-8c0 -31.333 4.33301 -59.666 13 -84.999s20.834 -47 36.501 -65s34.5 -32 56.5 -42s46.667 -15 74 -15h3z" />
    <glyph glyph-name="ntilde" unicode="&#xf1;" horiz-adv-x="593" 
d="M88 520h44.001c2.66699 -10 5 -22.5 7 -37.5s3.66699 -30.833 5 -47.5c19.333 28.667 45 51.167 77 67.5s68 24.5 108 24.5h6c59.333 0 104.166 -16.5 134.499 -49.5s45.5 -80.833 45.5 -143.5v-334h-56v325c0 47.333 -11 83.5 -33 108.5s-55.667 37.5 -101 37.5h-5
c-26 0 -49.833 -4 -71.5 -12s-40.167 -19.333 -55.5 -34s-27.333 -32.667 -36 -54s-13 -45 -13 -71v-300h-56v520zM133.001 656c11.333 17.333 25.3311 30.498 41.998 39.498s34.667 13.5 54 13.5c14 0 27.5 -2.33301 40.5 -7s27.5 -11 43.5 -19
c12 -5.33301 23.5 -10.166 34.5 -14.499s22.167 -6.5 33.5 -6.5c14 0 26.667 3.33301 38 10s20.333 15.667 27 27l26 -33c-10.667 -17.333 -24.334 -30.666 -41.001 -39.999s-34 -14 -52 -14c-14.667 0 -28.667 2.66699 -42 8s-26.333 11 -39 17
c-13.333 6.66699 -25.666 12.167 -36.999 16.5s-22.666 6.5 -33.999 6.5c-14 0 -27.167 -3.33301 -39.5 -10s-22.166 -15.667 -29.499 -27z" />
    <glyph glyph-name="ograve" unicode="&#xf2;" horiz-adv-x="586" 
d="M289 -6c-34.667 0 -66.667 6.16699 -96 18.5s-54.333 29.666 -75 51.999s-36.834 49.166 -48.501 80.499s-17.5 65.666 -17.5 102.999v24c0 37.333 5.83301 71.666 17.5 102.999s27.834 58.166 48.501 80.499s45.667 39.666 75 51.999s61.333 18.5 96 18.5h8
c35.333 0 67.5 -6.16699 96.5 -18.5s54 -29.666 75 -51.999s37.333 -49.166 49 -80.499s17.5 -65.666 17.5 -102.999v-24c0 -37.333 -5.83301 -71.666 -17.5 -102.999s-28 -58.166 -49 -80.499s-46 -39.666 -75 -51.999s-61.167 -18.5 -96.5 -18.5h-8zM297 50
c27.333 0 52 4.83301 74 14.5s40.667 23.334 56 41.001s27.333 38.667 36 63s13 51.166 13 80.499v22c0 29.333 -4.33301 56.333 -13 81s-20.667 45.667 -36 63s-34 30.833 -56 40.5s-46.667 14.5 -74 14.5h-7c-26.667 0 -51.167 -4.83301 -73.5 -14.5
s-41.333 -23.167 -57 -40.5s-27.834 -38.333 -36.501 -63s-13 -51.667 -13 -81v-22c0 -29.333 4.33301 -56.166 13 -80.499s20.834 -45.333 36.501 -63s34.5 -31.334 56.5 -41.001s46.667 -14.5 74 -14.5h7zM201 723h61l53 -133h-48z" />
    <glyph glyph-name="oacute" unicode="&#xf3;" horiz-adv-x="586" 
d="M289 -6c-34.667 0 -66.667 6.16699 -96 18.5s-54.333 29.666 -75 51.999s-36.834 49.166 -48.501 80.499s-17.5 65.666 -17.5 102.999v24c0 37.333 5.83301 71.666 17.5 102.999s27.834 58.166 48.501 80.499s45.667 39.666 75 51.999s61.333 18.5 96 18.5h8
c35.333 0 67.5 -6.16699 96.5 -18.5s54 -29.666 75 -51.999s37.333 -49.166 49 -80.499s17.5 -65.666 17.5 -102.999v-24c0 -37.333 -5.83301 -71.666 -17.5 -102.999s-28 -58.166 -49 -80.499s-46 -39.666 -75 -51.999s-61.167 -18.5 -96.5 -18.5h-8zM297 50
c27.333 0 52 4.83301 74 14.5s40.667 23.334 56 41.001s27.333 38.667 36 63s13 51.166 13 80.499v22c0 29.333 -4.33301 56.333 -13 81s-20.667 45.667 -36 63s-34 30.833 -56 40.5s-46.667 14.5 -74 14.5h-7c-26.667 0 -51.167 -4.83301 -73.5 -14.5
s-41.333 -23.167 -57 -40.5s-27.834 -38.333 -36.501 -63s-13 -51.667 -13 -81v-22c0 -29.333 4.33301 -56.166 13 -80.499s20.834 -45.333 36.501 -63s34.5 -31.334 56.5 -41.001s46.667 -14.5 74 -14.5h7zM269 587l56 133h61l-70 -133h-47z" />
    <glyph glyph-name="ocircumflex" unicode="&#xf4;" horiz-adv-x="586" 
d="M289 -6c-34.667 0 -66.667 6.16699 -96 18.5s-54.333 29.666 -75 51.999s-36.834 49.166 -48.501 80.499s-17.5 65.666 -17.5 102.999v24c0 37.333 5.83301 71.666 17.5 102.999s27.834 58.166 48.501 80.499s45.667 39.666 75 51.999s61.333 18.5 96 18.5h8
c35.333 0 67.5 -6.16699 96.5 -18.5s54 -29.666 75 -51.999s37.333 -49.166 49 -80.499s17.5 -65.666 17.5 -102.999v-24c0 -37.333 -5.83301 -71.666 -17.5 -102.999s-28 -58.166 -49 -80.499s-46 -39.666 -75 -51.999s-61.167 -18.5 -96.5 -18.5h-8zM297 50
c27.333 0 52 4.83301 74 14.5s40.667 23.334 56 41.001s27.333 38.667 36 63s13 51.166 13 80.499v22c0 29.333 -4.33301 56.333 -13 81s-20.667 45.667 -36 63s-34 30.833 -56 40.5s-46.667 14.5 -74 14.5h-7c-26.667 0 -51.167 -4.83301 -73.5 -14.5
s-41.333 -23.167 -57 -40.5s-27.834 -38.333 -36.501 -63s-13 -51.667 -13 -81v-22c0 -29.333 4.33301 -56.166 13 -80.499s20.834 -45.333 36.501 -63s34.5 -31.334 56.5 -41.001s46.667 -14.5 74 -14.5h7zM390 599l-88 78h-18l-87 -78h-71l130 121h74l130 -121h-70z" />
    <glyph glyph-name="otilde" unicode="&#xf5;" horiz-adv-x="586" 
d="M289 -6c-34.667 0 -66.667 6.16699 -96 18.5s-54.333 29.666 -75 51.999s-36.834 49.166 -48.501 80.499s-17.5 65.666 -17.5 102.999v24c0 37.333 5.83301 71.666 17.5 102.999s27.834 58.166 48.501 80.499s45.667 39.666 75 51.999s61.333 18.5 96 18.5h8
c35.333 0 67.5 -6.16699 96.5 -18.5s54 -29.666 75 -51.999s37.333 -49.166 49 -80.499s17.5 -65.666 17.5 -102.999v-24c0 -37.333 -5.83301 -71.666 -17.5 -102.999s-28 -58.166 -49 -80.499s-46 -39.666 -75 -51.999s-61.167 -18.5 -96.5 -18.5h-8zM297 50
c27.333 0 52 4.83301 74 14.5s40.667 23.334 56 41.001s27.333 38.667 36 63s13 51.166 13 80.499v22c0 29.333 -4.33301 56.333 -13 81s-20.667 45.667 -36 63s-34 30.833 -56 40.5s-46.667 14.5 -74 14.5h-7c-26.667 0 -51.167 -4.83301 -73.5 -14.5
s-41.333 -23.167 -57 -40.5s-27.834 -38.333 -36.501 -63s-13 -51.667 -13 -81v-22c0 -29.333 4.33301 -56.166 13 -80.499s20.834 -45.333 36.501 -63s34.5 -31.334 56.5 -41.001s46.667 -14.5 74 -14.5h7zM123 656c11.333 17.333 25.3311 30.498 41.998 39.498
s34.667 13.5 54 13.5c14 0 27.5 -2.33301 40.5 -7s27.5 -11 43.5 -19c12 -5.33301 23.5 -10.166 34.5 -14.499s22.167 -6.5 33.5 -6.5c14 0 26.667 3.33301 38 10s20.333 15.667 27 27l26 -33c-10.667 -17.333 -24.334 -30.666 -41.001 -39.999s-34 -14 -52 -14
c-14.667 0 -28.667 2.66699 -42 8s-26.333 11 -39 17c-13.333 6.66699 -25.666 12.167 -36.999 16.5s-22.666 6.5 -33.999 6.5c-14 0 -27.167 -3.33301 -39.5 -10s-22.166 -15.667 -29.499 -27z" />
    <glyph glyph-name="odieresis" unicode="&#xf6;" horiz-adv-x="586" 
d="M289 -6c-34.667 0 -66.667 6.16699 -96 18.5s-54.333 29.666 -75 51.999s-36.834 49.166 -48.501 80.499s-17.5 65.666 -17.5 102.999v24c0 37.333 5.83301 71.666 17.5 102.999s27.834 58.166 48.501 80.499s45.667 39.666 75 51.999s61.333 18.5 96 18.5h8
c35.333 0 67.5 -6.16699 96.5 -18.5s54 -29.666 75 -51.999s37.333 -49.166 49 -80.499s17.5 -65.666 17.5 -102.999v-24c0 -37.333 -5.83301 -71.666 -17.5 -102.999s-28 -58.166 -49 -80.499s-46 -39.666 -75 -51.999s-61.167 -18.5 -96.5 -18.5h-8zM297 50
c27.333 0 52 4.83301 74 14.5s40.667 23.334 56 41.001s27.333 38.667 36 63s13 51.166 13 80.499v22c0 29.333 -4.33301 56.333 -13 81s-20.667 45.667 -36 63s-34 30.833 -56 40.5s-46.667 14.5 -74 14.5h-7c-26.667 0 -51.167 -4.83301 -73.5 -14.5
s-41.333 -23.167 -57 -40.5s-27.834 -38.333 -36.501 -63s-13 -51.667 -13 -81v-22c0 -29.333 4.33301 -56.166 13 -80.499s20.834 -45.333 36.501 -63s34.5 -31.334 56.5 -41.001s46.667 -14.5 74 -14.5h7zM378 634c-11.333 0 -20.666 3.66699 -27.999 11
s-11 16.666 -11 27.999s3.66699 20.833 11 28.5s16.666 11.5 27.999 11.5s21 -3.83301 29 -11.5s12 -17.167 12 -28.5s-4 -20.666 -12 -27.999s-17.667 -11 -29 -11zM205 634c-11.333 0 -20.666 3.66699 -27.999 11s-11 16.666 -11 27.999s3.66699 20.833 11 28.5
s16.666 11.5 27.999 11.5s21 -3.83301 29 -11.5s12 -17.167 12 -28.5s-4 -20.666 -12 -27.999s-17.667 -11 -29 -11z" />
    <glyph glyph-name="divide" unicode="&#xf7;" horiz-adv-x="590" 
d="M294 452c-13.333 0 -24.666 4.33301 -33.999 13s-14 19.667 -14 33v3c0 12.667 4.66699 23.334 14 32.001s20.666 13 33.999 13s25 -4.33301 35 -13s15 -19.334 15 -32.001v-3c0 -13.333 -5 -24.333 -15 -33s-21.667 -13 -35 -13zM53 351h484v-52h-484v52zM294 104
c-13.333 0 -24.666 4.33301 -33.999 13s-14 19.667 -14 33v3c0 12.667 4.66699 23.5 14 32.5s20.666 13.5 33.999 13.5s25 -4.5 35 -13.5s15 -19.833 15 -32.5v-3c0 -13.333 -5 -24.333 -15 -33s-21.667 -13 -35 -13z" />
    <glyph glyph-name="oslash" unicode="&#xf8;" horiz-adv-x="586" 
d="M376 453c-24 11.333 -50.332 17 -78.999 17h-8c-26.667 0 -51 -4.83301 -73 -14.5s-40.833 -23.167 -56.5 -40.5s-27.834 -38.333 -36.501 -63s-13 -51.667 -13 -81v-22c0 -34 5.5 -64.5 16.5 -91.5s26.5 -49.167 46.5 -66.5zM297.001 50c27.333 0 52 4.83398 74 14.501
s40.667 23.334 56 41.001s27.333 38.667 36 63s13 51.166 13 80.499v22c0 34 -5.5 64.167 -16.5 90.5s-26.167 48.166 -45.5 65.499l-203 -360c24 -11.333 50 -17 78 -17h8zM289.001 -5.99902c-19.333 0 -37.501 1.83301 -54.501 5.5s-33.167 9.16699 -48.5 16.5l-33 -58
h-58l47 84c-28.667 22.667 -51 51.667 -67 87s-24 75 -24 119v24c0 37.333 5.83301 71.666 17.5 102.999s28 58.166 49 80.499s46 39.666 75 51.999s61.167 18.5 96.5 18.5h8c36.667 0 71.334 -7.33301 104.001 -22l32 56h58l-47 -83c28.667 -22 51 -50.667 67 -86
s24 -75 24 -119v-24c0 -37.333 -5.83301 -71.666 -17.5 -102.999s-28 -58.166 -49 -80.499s-46 -39.666 -75 -51.999s-61.167 -18.5 -96.5 -18.5h-8z" />
    <glyph glyph-name="ugrave" unicode="&#xf9;" horiz-adv-x="589" 
d="M257 -7c-59.333 0 -103.998 16.667 -133.998 50s-45 81.333 -45 144v333h56v-324c0 -48 10.667 -84.5 32 -109.5s54.333 -37.5 99 -37.5h6c25.333 0 48.666 4 69.999 12s39.666 19.333 54.999 34s27.333 32.334 36 53.001s13 44 13 70v302h56v-520h-44
c-2.66699 10.667 -5 23.667 -7 39s-3.66699 30.666 -5 45.999c-19.333 -28.667 -44.833 -51.167 -76.5 -67.5s-67.5 -24.5 -107.5 -24.5h-4zM199.002 723h61l53 -133h-48z" />
    <glyph glyph-name="uacute" unicode="&#xfa;" horiz-adv-x="589" 
d="M257 -7c-59.333 0 -103.998 16.667 -133.998 50s-45 81.333 -45 144v333h56v-324c0 -48 10.667 -84.5 32 -109.5s54.333 -37.5 99 -37.5h6c25.333 0 48.666 4 69.999 12s39.666 19.333 54.999 34s27.333 32.334 36 53.001s13 44 13 70v302h56v-520h-44
c-2.66699 10.667 -5 23.667 -7 39s-3.66699 30.666 -5 45.999c-19.333 -28.667 -44.833 -51.167 -76.5 -67.5s-67.5 -24.5 -107.5 -24.5h-4zM267.002 587l56 133h61l-70 -133h-47z" />
    <glyph glyph-name="ucircumflex" unicode="&#xfb;" horiz-adv-x="589" 
d="M257 -7c-59.333 0 -103.998 16.667 -133.998 50s-45 81.333 -45 144v333h56v-324c0 -48 10.667 -84.5 32 -109.5s54.333 -37.5 99 -37.5h6c25.333 0 48.666 4 69.999 12s39.666 19.333 54.999 34s27.333 32.334 36 53.001s13 44 13 70v302h56v-520h-44
c-2.66699 10.667 -5 23.667 -7 39s-3.66699 30.666 -5 45.999c-19.333 -28.667 -44.833 -51.167 -76.5 -67.5s-67.5 -24.5 -107.5 -24.5h-4zM388.002 599l-88 78h-18l-87 -78h-71l130 121h74l130 -121h-70z" />
    <glyph glyph-name="udieresis" unicode="&#xfc;" horiz-adv-x="589" 
d="M257 -7c-59.333 0 -103.998 16.667 -133.998 50s-45 81.333 -45 144v333h56v-324c0 -48 10.667 -84.5 32 -109.5s54.333 -37.5 99 -37.5h6c25.333 0 48.666 4 69.999 12s39.666 19.333 54.999 34s27.333 32.334 36 53.001s13 44 13 70v302h56v-520h-44
c-2.66699 10.667 -5 23.667 -7 39s-3.66699 30.666 -5 45.999c-19.333 -28.667 -44.833 -51.167 -76.5 -67.5s-67.5 -24.5 -107.5 -24.5h-4zM376.002 634c-11.333 0 -20.666 3.66699 -27.999 11s-11 16.666 -11 27.999s3.66699 20.833 11 28.5s16.666 11.5 27.999 11.5
s21 -3.83301 29 -11.5s12 -17.167 12 -28.5s-4 -20.666 -12 -27.999s-17.667 -11 -29 -11zM203.002 634c-11.333 0 -20.666 3.66699 -27.999 11s-11 16.666 -11 27.999s3.66699 20.833 11 28.5s16.666 11.5 27.999 11.5s21 -3.83301 29 -11.5s12 -17.167 12 -28.5
s-4 -20.666 -12 -27.999s-17.667 -11 -29 -11z" />
    <glyph glyph-name="yacute" unicode="&#xfd;" horiz-adv-x="515" 
d="M131 -196c-10.667 0 -22.666 1.33301 -35.999 4s-25.333 7.66699 -36 15v52c22.667 -11.333 43.667 -17 63 -17c26.667 0 50.5 10 71.5 30s39.167 49.333 54.5 88l-230 544h64l191 -461h7l162 461h60l-194 -548c-18.667 -52 -41.834 -93 -69.501 -123
s-63.5 -45 -107.5 -45zM239.001 587l56 133h61l-70 -133h-47z" />
    <glyph glyph-name="thorn" unicode="&#xfe;" horiz-adv-x="633" 
d="M88 720l56.001 -0.000976562v-298c20 32.667 46.667 58.167 80 76.5s71.666 27.5 114.999 27.5h2c35.333 0 67.666 -6.33301 96.999 -19s54.666 -30.167 75.999 -52.5s38 -49 50 -80s18 -65.167 18 -102.5v-24c0 -36.667 -6 -70.667 -18 -102
s-28.667 -58.166 -50 -80.499s-46.666 -39.833 -75.999 -52.5s-61.666 -19 -96.999 -19h-3c-42.667 0 -80.667 9.33301 -114 28s-60 44 -80 76v-288h-56v910zM336.001 49.999c28 0 53.5 4.83301 76.5 14.5s42.667 23.334 59 41.001s29 38.667 38 63s13.5 51.166 13.5 80.499
v22c0 29.333 -4.5 56.333 -13.5 81s-21.667 45.667 -38 63s-36 30.833 -59 40.5s-48.5 14.5 -76.5 14.5h-3c-28.667 0 -54.5 -4.83301 -77.5 -14.5s-42.833 -23.167 -59.5 -40.5s-29.5 -38.333 -38.5 -63s-13.5 -51.667 -13.5 -81v-22c0 -29.333 4.5 -56.166 13.5 -80.499
s21.833 -45.333 38.5 -63s36.5 -31.334 59.5 -41.001s48.833 -14.5 77.5 -14.5h3z" />
    <glyph glyph-name="ydieresis" unicode="&#xff;" horiz-adv-x="515" 
d="M131 -196c-10.667 0 -22.666 1.33301 -35.999 4s-25.333 7.66699 -36 15v52c22.667 -11.333 43.667 -17 63 -17c26.667 0 50.5 10 71.5 30s39.167 49.333 54.5 88l-230 544h64l191 -461h7l162 461h60l-194 -548c-18.667 -52 -41.834 -93 -69.501 -123
s-63.5 -45 -107.5 -45zM348.001 634c-11.333 0 -20.666 3.66699 -27.999 11s-11 16.666 -11 27.999s3.66699 20.833 11 28.5s16.666 11.5 27.999 11.5s21 -3.83301 29 -11.5s12 -17.167 12 -28.5s-4 -20.666 -12 -27.999s-17.667 -11 -29 -11zM175.001 634
c-11.333 0 -20.666 3.66699 -27.999 11s-11 16.666 -11 27.999s3.66699 20.833 11 28.5s16.666 11.5 27.999 11.5s21 -3.83301 29 -11.5s12 -17.167 12 -28.5s-4 -20.666 -12 -27.999s-17.667 -11 -29 -11z" />
    <glyph glyph-name="Amacron" unicode="&#x100;" horiz-adv-x="616" 
d="M264 700h89l255 -700h-65l-76 211h-318l-75 -211h-66zM447 268l-136 378h-6l-135 -378h277zM184 875h248v-49h-248v49z" />
    <glyph glyph-name="amacron" unicode="&#x101;" horiz-adv-x="550" 
d="M226 -7c-26 0 -49.6709 3.66699 -71.0039 11s-39.666 17.833 -54.999 31.5s-27.166 30 -35.499 49s-12.5 39.833 -12.5 62.5v5c0 56.667 25.167 98.5 75.5 125.5s127.166 40.5 230.499 40.5h51v46c0 34 -11.167 60.333 -33.5 79s-53.833 28 -94.5 28h-5
c-28 0 -56.5 -5 -85.5 -15s-56.5 -24.333 -82.5 -43l-28 46c32.667 21.333 65.334 38.166 98.001 50.499s66.667 18.5 102 18.5h4c58 0 102.667 -14.333 134 -43s47 -68 47 -118v-275c0 -14.667 1.83301 -30.5 5.5 -47.5s7.83398 -31.833 12.501 -44.5h-57
c-3.33301 8.66699 -6.5 19.334 -9.5 32.001s-5.16699 25 -6.5 37c-27.333 -24.667 -56.666 -43.5 -87.999 -56.5s-63.333 -19.5 -96 -19.5zM228.996 49c34.667 0 67.334 7.33203 98.001 21.999s58 35.334 82 62.001v133h-39c-92 0 -158.5 -8.83301 -199.5 -26.5
s-61.5 -47.167 -61.5 -88.5v-4c0 -29.333 11.167 -53 33.5 -71s51.166 -27 86.499 -27zM154.996 694.999h249v-49h-249v49z" />
    <glyph glyph-name="Abreve" unicode="&#x102;" horiz-adv-x="616" 
d="M264 700h89l255 -700h-65l-76 211h-318l-75 -211h-66zM447 268l-136 378h-6l-135 -378h277zM217 898c0 -26.667 8.33398 -48 25.001 -64s39 -24 67 -24s50.333 8 67 24s25 37.333 25 64h55c0 -40.667 -13.333 -73.167 -40 -97.5s-62.334 -36.5 -107.001 -36.5
c-44 0 -79.5 12.167 -106.5 36.5s-40.5 56.833 -40.5 97.5h55z" />
    <glyph glyph-name="abreve" unicode="&#x103;" horiz-adv-x="550" 
d="M226 -7c-26 0 -49.6709 3.66699 -71.0039 11s-39.666 17.833 -54.999 31.5s-27.166 30 -35.499 49s-12.5 39.833 -12.5 62.5v5c0 56.667 25.167 98.5 75.5 125.5s127.166 40.5 230.499 40.5h51v46c0 34 -11.167 60.333 -33.5 79s-53.833 28 -94.5 28h-5
c-28 0 -56.5 -5 -85.5 -15s-56.5 -24.333 -82.5 -43l-28 46c32.667 21.333 65.334 38.166 98.001 50.499s66.667 18.5 102 18.5h4c58 0 102.667 -14.333 134 -43s47 -68 47 -118v-275c0 -14.667 1.83301 -30.5 5.5 -47.5s7.83398 -31.833 12.501 -44.5h-57
c-3.33301 8.66699 -6.5 19.334 -9.5 32.001s-5.16699 25 -6.5 37c-27.333 -24.667 -56.666 -43.5 -87.999 -56.5s-63.333 -19.5 -96 -19.5zM228.996 49c34.667 0 67.334 7.33203 98.001 21.999s58 35.334 82 62.001v133h-39c-92 0 -158.5 -8.83301 -199.5 -26.5
s-61.5 -47.167 -61.5 -88.5v-4c0 -29.333 11.167 -53 33.5 -71s51.166 -27 86.499 -27zM186.996 720.999c0 -27.333 8.50098 -49 25.501 -65s39.5 -24 67.5 -24s50.333 8 67 24s25 37.667 25 65h54c0 -40.667 -13.167 -73.334 -39.5 -98.001s-61.833 -37 -106.5 -37
s-80.334 12.333 -107.001 37s-40 57.334 -40 98.001h54z" />
    <glyph glyph-name="Aogonek" unicode="&#x104;" horiz-adv-x="616" 
d="M264 700h89l255 -700h-65l-76 211h-318l-75 -211h-66zM447 268l-136 378h-6l-135 -378h277zM572 -168c-22.667 0 -40.498 6 -53.498 18s-19.5 28.333 -19.5 49c0 21.333 7.16699 42.5 21.5 63.5s34.166 41.167 59.499 60.5l28 -23c-22.667 -19.333 -38.667 -36 -48 -50
s-14 -28 -14 -42c0 -24.667 11 -37 33 -37c5.33301 0 10.166 0.666992 14.499 2l13.5 4v-40c-11.333 -3.33301 -23 -5 -35 -5z" />
    <glyph glyph-name="aogonek" unicode="&#x105;" horiz-adv-x="550" 
d="M226 -7c-26 0 -49.6709 3.66699 -71.0039 11s-39.666 17.833 -54.999 31.5s-27.166 30 -35.499 49s-12.5 39.833 -12.5 62.5v5c0 56.667 25.167 98.5 75.5 125.5s127.166 40.5 230.499 40.5h51v46c0 34 -11.167 60.333 -33.5 79s-53.833 28 -94.5 28h-5
c-28 0 -56.5 -5 -85.5 -15s-56.5 -24.333 -82.5 -43l-28 46c32.667 21.333 65.334 38.166 98.001 50.499s66.667 18.5 102 18.5h4c58 0 102.667 -14.333 134 -43s47 -68 47 -118v-275c0 -14.667 1.83301 -30.5 5.5 -47.5s7.83398 -31.833 12.501 -44.5h-57
c-3.33301 8.66699 -6.5 19.334 -9.5 32.001s-5.16699 25 -6.5 37c-27.333 -24.667 -56.666 -43.5 -87.999 -56.5s-63.333 -19.5 -96 -19.5zM228.996 49c34.667 0 67.334 7.33203 98.001 21.999s58 35.334 82 62.001v133h-39c-92 0 -158.5 -8.83301 -199.5 -26.5
s-61.5 -47.167 -61.5 -88.5v-4c0 -29.333 11.167 -53 33.5 -71s51.166 -27 86.499 -27zM446.996 -168.001c-22.667 0 -40.498 6 -53.498 18s-19.5 28.333 -19.5 49c0 21.333 7.16699 42.5 21.5 63.5s34.166 41.167 59.499 60.5l28 -23c-22.667 -19.333 -38.667 -36 -48 -50
s-14 -28 -14 -42c0 -24.667 11 -37 33 -37c5.33301 0 10.166 0.666992 14.499 2l13.5 4v-40c-11.333 -3.33301 -23 -5 -35 -5z" />
    <glyph glyph-name="Cacute" unicode="&#x106;" horiz-adv-x="656" 
d="M361 -8c-47.333 0 -90.165 8.33008 -128.498 24.9971s-71.166 40.334 -98.499 71.001s-48.5 67.5 -63.5 110.5s-22.5 90.5 -22.5 142.5v19c0 52 7.66699 99.333 23 142s36.833 79.334 64.5 110.001s60.5 54.5 98.5 71.5s80 25.5 126 25.5h7
c26.667 0 52.667 -3.5 78 -10.5s49 -16.833 71 -29.5s41.833 -28 59.5 -46s32.5 -38 44.5 -60l-52 -32c-19.333 37.333 -46.333 66.666 -81 87.999s-75.334 32 -122.001 32h-5c-37.333 0 -71.333 -7 -102 -21s-56.834 -33.667 -78.501 -59s-38.5 -55.833 -50.5 -91.5
s-18 -75.167 -18 -118.5v-22c0 -43.333 6 -82.666 18 -117.999s29 -65.666 51 -90.999s48.333 -45 79 -59s65 -21 103 -21h5c46.667 0 88.167 11 124.5 33s64.166 51 83.499 87l49 -32c-24 -45.333 -59 -81 -105 -107s-96.333 -39 -151 -39h-7zM384.001 765.997h-47l47 136
h62z" />
    <glyph glyph-name="cacute" unicode="&#x107;" horiz-adv-x="548" 
d="M291 -6c-35.333 0 -67.6641 6.16699 -96.9971 18.5s-54.5 29.666 -75.5 51.999s-37.333 49 -49 80s-17.5 65.5 -17.5 103.5v24c0 38 5.83301 72.5 17.5 103.5s28.167 57.667 49.5 80s46.666 39.666 75.999 51.999s61.666 18.5 96.999 18.5h7c44 0 84 -11.167 120 -33.5
s64.667 -54.5 86 -96.5l-45 -25c-17.333 33.333 -39.833 58.333 -67.5 75s-59.167 25 -94.5 25h-8c-26.667 0 -51.167 -4.83301 -73.5 -14.5s-41.333 -23.167 -57 -40.5s-27.834 -38.166 -36.501 -62.499s-13 -51.5 -13 -81.5v-24c0 -30 4.33301 -57.167 13 -81.5
s21 -45.166 37 -62.499s35.167 -30.833 57.5 -40.5s47.166 -14.5 74.499 -14.5h9c33.333 0 63.666 8.16699 90.999 24.5s50 40.5 68 72.5l47 -25c-23.333 -40.667 -53.166 -72 -89.499 -94s-76.166 -33 -119.499 -33h-7zM273.002 587l56 133h61l-70 -133h-47z" />
    <glyph glyph-name="Ccircumflex" unicode="&#x108;" horiz-adv-x="656" 
d="M361 -8c-47.333 0 -90.165 8.33008 -128.498 24.9971s-71.166 40.334 -98.499 71.001s-48.5 67.5 -63.5 110.5s-22.5 90.5 -22.5 142.5v19c0 52 7.66699 99.333 23 142s36.833 79.334 64.5 110.001s60.5 54.5 98.5 71.5s80 25.5 126 25.5h7
c26.667 0 52.667 -3.5 78 -10.5s49 -16.833 71 -29.5s41.833 -28 59.5 -46s32.5 -38 44.5 -60l-52 -32c-19.333 37.333 -46.333 66.666 -81 87.999s-75.334 32 -122.001 32h-5c-37.333 0 -71.333 -7 -102 -21s-56.834 -33.667 -78.501 -59s-38.5 -55.833 -50.5 -91.5
s-18 -75.167 -18 -118.5v-22c0 -43.333 6 -82.666 18 -117.999s29 -65.666 51 -90.999s48.333 -45 79 -59s65 -21 103 -21h5c46.667 0 88.167 11 124.5 33s64.166 51 83.499 87l49 -32c-24 -45.333 -59 -81 -105 -107s-96.333 -39 -151 -39h-7zM325.001 899.997h74l130 -121
h-70l-88 78h-18l-87 -78h-71z" />
    <glyph glyph-name="ccircumflex" unicode="&#x109;" horiz-adv-x="548" 
d="M291 -6c-35.333 0 -67.6641 6.16699 -96.9971 18.5s-54.5 29.666 -75.5 51.999s-37.333 49 -49 80s-17.5 65.5 -17.5 103.5v24c0 38 5.83301 72.5 17.5 103.5s28.167 57.667 49.5 80s46.666 39.666 75.999 51.999s61.666 18.5 96.999 18.5h7c44 0 84 -11.167 120 -33.5
s64.667 -54.5 86 -96.5l-45 -25c-17.333 33.333 -39.833 58.333 -67.5 75s-59.167 25 -94.5 25h-8c-26.667 0 -51.167 -4.83301 -73.5 -14.5s-41.333 -23.167 -57 -40.5s-27.834 -38.166 -36.501 -62.499s-13 -51.5 -13 -81.5v-24c0 -30 4.33301 -57.167 13 -81.5
s21 -45.166 37 -62.499s35.167 -30.833 57.5 -40.5s47.166 -14.5 74.499 -14.5h9c33.333 0 63.666 8.16699 90.999 24.5s50 40.5 68 72.5l47 -25c-23.333 -40.667 -53.166 -72 -89.499 -94s-76.166 -33 -119.499 -33h-7zM394.002 599l-88 78h-18l-87 -78h-71l130 121h74
l130 -121h-70z" />
    <glyph glyph-name="Cdotaccent" unicode="&#x10a;" horiz-adv-x="656" 
d="M361 -8c-47.333 0 -90.165 8.33008 -128.498 24.9971s-71.166 40.334 -98.499 71.001s-48.5 67.5 -63.5 110.5s-22.5 90.5 -22.5 142.5v19c0 52 7.66699 99.333 23 142s36.833 79.334 64.5 110.001s60.5 54.5 98.5 71.5s80 25.5 126 25.5h7
c26.667 0 52.667 -3.5 78 -10.5s49 -16.833 71 -29.5s41.833 -28 59.5 -46s32.5 -38 44.5 -60l-52 -32c-19.333 37.333 -46.333 66.666 -81 87.999s-75.334 32 -122.001 32h-5c-37.333 0 -71.333 -7 -102 -21s-56.834 -33.667 -78.501 -59s-38.5 -55.833 -50.5 -91.5
s-18 -75.167 -18 -118.5v-22c0 -43.333 6 -82.666 18 -117.999s29 -65.666 51 -90.999s48.333 -45 79 -59s65 -21 103 -21h5c46.667 0 88.167 11 124.5 33s64.166 51 83.499 87l49 -32c-24 -45.333 -59 -81 -105 -107s-96.333 -39 -151 -39h-7zM363.001 794.997
c-11.333 0 -20.833 4 -28.5 12s-11.5 17.667 -11.5 29c0 12 3.83301 22 11.5 30s17.167 12 28.5 12s21 -4 29 -12s12 -18 12 -30c0 -11.333 -4 -21 -12 -29s-17.667 -12 -29 -12z" />
    <glyph glyph-name="cdotaccent" unicode="&#x10b;" horiz-adv-x="548" 
d="M291 -6c-35.333 0 -67.6641 6.16699 -96.9971 18.5s-54.5 29.666 -75.5 51.999s-37.333 49 -49 80s-17.5 65.5 -17.5 103.5v24c0 38 5.83301 72.5 17.5 103.5s28.167 57.667 49.5 80s46.666 39.666 75.999 51.999s61.666 18.5 96.999 18.5h7c44 0 84 -11.167 120 -33.5
s64.667 -54.5 86 -96.5l-45 -25c-17.333 33.333 -39.833 58.333 -67.5 75s-59.167 25 -94.5 25h-8c-26.667 0 -51.167 -4.83301 -73.5 -14.5s-41.333 -23.167 -57 -40.5s-27.834 -38.166 -36.501 -62.499s-13 -51.5 -13 -81.5v-24c0 -30 4.33301 -57.167 13 -81.5
s21 -45.166 37 -62.499s35.167 -30.833 57.5 -40.5s47.166 -14.5 74.499 -14.5h9c33.333 0 63.666 8.16699 90.999 24.5s50 40.5 68 72.5l47 -25c-23.333 -40.667 -53.166 -72 -89.499 -94s-76.166 -33 -119.499 -33h-7zM297.002 633c-11.333 0 -20.833 3.83301 -28.5 11.5
s-11.5 17.167 -11.5 28.5s3.83301 21 11.5 29s17.167 12 28.5 12s21 -4 29 -12s12 -17.667 12 -29s-4 -20.833 -12 -28.5s-17.667 -11.5 -29 -11.5z" />
    <glyph glyph-name="Ccaron" unicode="&#x10c;" horiz-adv-x="656" 
d="M361 -8c-47.333 0 -90.165 8.33008 -128.498 24.9971s-71.166 40.334 -98.499 71.001s-48.5 67.5 -63.5 110.5s-22.5 90.5 -22.5 142.5v19c0 52 7.66699 99.333 23 142s36.833 79.334 64.5 110.001s60.5 54.5 98.5 71.5s80 25.5 126 25.5h7
c26.667 0 52.667 -3.5 78 -10.5s49 -16.833 71 -29.5s41.833 -28 59.5 -46s32.5 -38 44.5 -60l-52 -32c-19.333 37.333 -46.333 66.666 -81 87.999s-75.334 32 -122.001 32h-5c-37.333 0 -71.333 -7 -102 -21s-56.834 -33.667 -78.501 -59s-38.5 -55.833 -50.5 -91.5
s-18 -75.167 -18 -118.5v-22c0 -43.333 6 -82.666 18 -117.999s29 -65.666 51 -90.999s48.333 -45 79 -59s65 -21 103 -21h5c46.667 0 88.167 11 124.5 33s64.166 51 83.499 87l49 -32c-24 -45.333 -59 -81 -105 -107s-96.333 -39 -151 -39h-7zM196.001 897.997h71l87 -78
h18l88 78h70l-130 -121h-74z" />
    <glyph glyph-name="ccaron" unicode="&#x10d;" horiz-adv-x="548" 
d="M291 -6c-35.333 0 -67.6641 6.16699 -96.9971 18.5s-54.5 29.666 -75.5 51.999s-37.333 49 -49 80s-17.5 65.5 -17.5 103.5v24c0 38 5.83301 72.5 17.5 103.5s28.167 57.667 49.5 80s46.666 39.666 75.999 51.999s61.666 18.5 96.999 18.5h7c44 0 84 -11.167 120 -33.5
s64.667 -54.5 86 -96.5l-45 -25c-17.333 33.333 -39.833 58.333 -67.5 75s-59.167 25 -94.5 25h-8c-26.667 0 -51.167 -4.83301 -73.5 -14.5s-41.333 -23.167 -57 -40.5s-27.834 -38.166 -36.501 -62.499s-13 -51.5 -13 -81.5v-24c0 -30 4.33301 -57.167 13 -81.5
s21 -45.166 37 -62.499s35.167 -30.833 57.5 -40.5s47.166 -14.5 74.499 -14.5h9c33.333 0 63.666 8.16699 90.999 24.5s50 40.5 68 72.5l47 -25c-23.333 -40.667 -53.166 -72 -89.499 -94s-76.166 -33 -119.499 -33h-7zM130.002 720h71l87 -78h18l88 78h70l-130 -121h-74z
" />
    <glyph glyph-name="Dcaron" unicode="&#x10e;" horiz-adv-x="696" 
d="M103 700l199 0.00292969c52 0 99.167 -7.83301 141.5 -23.5s78.666 -38 108.999 -67s53.833 -63.833 70.5 -104.5s25 -86 25 -136v-20c0 -52.667 -8.33301 -100.334 -25 -143.001s-40.167 -79.334 -70.5 -110.001s-66.666 -54.334 -108.999 -71.001s-89.5 -25 -141.5 -25
h-199v700zM302 57.0029c43.333 0 82.3311 6.83398 116.998 20.501s64.334 33.167 89.001 58.5s43.5 56.166 56.5 92.499s19.5 77.166 19.5 122.499v20c0 42 -6.66699 79.667 -20 113s-32.166 61.833 -56.499 85.5s-53.833 41.834 -88.5 54.501s-73.667 19 -117 19h-139v-586
h139zM174.998 896.004h71l87 -78h18l88 78h70l-130 -121h-74z" />
    <glyph glyph-name="dcaron" unicode="&#x10f;" horiz-adv-x="644" 
d="M284 -6c-34 0 -65.3311 6.17285 -93.998 18.5059s-53.167 29.666 -73.5 51.999s-36.166 49.166 -47.499 80.499s-17 65.666 -17 102.999v24c0 37.333 5.66699 71.666 17 102.999s27.166 58.166 47.499 80.499s44.833 39.666 73.5 51.999s60 18.5 94 18.5h8
c40.667 0 76.667 -8.66699 108 -26s56.666 -41.333 75.999 -72v292h56v-720h-43c-3.33301 11.333 -6 25.166 -8 41.499s-3.33301 32.5 -4 48.5v3c-19.333 -31.333 -44.833 -55.666 -76.5 -72.999s-67.834 -26 -108.501 -26h-8zM297.002 50.0059c27.333 0 52 4.83301 74 14.5
s40.667 23.334 56 41.001s27.333 38.667 36 63s13 51.166 13 80.499v22c0 29.333 -4.33301 56.333 -13 81s-20.667 45.667 -36 63s-34 30.833 -56 40.5s-46.667 14.5 -74 14.5h-7c-26.667 0 -51.167 -4.83301 -73.5 -14.5s-41.333 -23.167 -57 -40.5
s-27.834 -38.333 -36.501 -63s-13 -51.667 -13 -81v-22c0 -29.333 4.33301 -56.166 13 -80.499s20.834 -45.333 36.501 -63s34.667 -31.334 57 -41.001s46.833 -14.5 73.5 -14.5h7zM627.002 720.006h58l-33 -157h-41z" />
    <glyph glyph-name="Dcroat" unicode="&#x110;" horiz-adv-x="703" 
d="M110 331l-77 0.00292969v57h77v312h199c51.333 0 98.166 -7.83301 140.499 -23.5s78.666 -38 108.999 -67s53.833 -63.833 70.5 -104.5s25 -86 25 -136v-20c0 -52.667 -8.33301 -100.334 -25 -143.001s-40.167 -79.334 -70.5 -110.001s-66.666 -54.334 -108.999 -71.001
s-89.166 -25 -140.499 -25h-199v331zM309 57.0029c43.333 0 82.332 6.83398 116.999 20.501s64.167 33.167 88.5 58.5s43 56.166 56 92.499s19.5 77.166 19.5 122.499v20c0 42 -6.5 79.667 -19.5 113s-31.833 61.833 -56.5 85.5s-54.167 41.834 -88.5 54.501
s-73.166 19 -116.499 19h-139v-255h188v-57h-188v-274h139z" />
    <glyph glyph-name="dcroat" unicode="&#x111;" horiz-adv-x="614" 
d="M284 -6c-34.667 0 -66.168 6.17285 -94.501 18.5059s-52.833 29.666 -73.5 51.999s-36.667 49.166 -48 80.499s-17 65.666 -17 102.999v24c0 37.333 5.66699 71.666 17 102.999s27.333 58.166 48 80.499s45.167 39.666 73.5 51.999s59.833 18.5 94.5 18.5h7
c40.667 0 76.834 -8.66699 108.501 -26s57.167 -41.333 76.5 -72v185h-177v46h177v61h56v-61h63v-46h-63v-613h-44c-2.66699 11.333 -5 25.166 -7 41.499s-3.33301 32.5 -4 48.5v3c-19.333 -31.333 -45 -55.666 -77 -72.999s-68.333 -26 -109 -26h-7zM296.999 50.0059
c27.333 0 52.001 4.83301 74.001 14.5s40.667 23.334 56 41.001s27.333 38.667 36 63s13 51.166 13 80.499v22c0 29.333 -4.33301 56.333 -13 81s-20.834 45.667 -36.501 63s-34.5 30.833 -56.5 40.5s-46.333 14.5 -73 14.5h-8c-26.667 0 -51 -4.83301 -73 -14.5
s-40.833 -23.167 -56.5 -40.5s-27.834 -38.333 -36.501 -63s-13 -51.667 -13 -81v-22c0 -29.333 4.33301 -56.166 13 -80.499s20.834 -45.333 36.501 -63s34.5 -31.334 56.5 -41.001s46.333 -14.5 73 -14.5h8z" />
    <glyph glyph-name="Emacron" unicode="&#x112;" horiz-adv-x="557" 
d="M103 700h383v-57h-323v-255h303v-57h-303v-274h333v-57h-393v700zM176 875h248v-49h-248v49z" />
    <glyph glyph-name="emacron" unicode="&#x113;" horiz-adv-x="571" 
d="M292 -6c-36 0 -68.832 6.16797 -98.499 18.501s-55 29.5 -76 51.5s-37.333 48.333 -49 79s-17.5 64.334 -17.5 101.001v20c0 39.333 5.83301 75 17.5 107s28 59.5 49 82.5s46.333 40.833 76 53.5s62.5 19 98.5 19h7c33.333 0 63.5 -5.83301 90.5 -17.5
s50.167 -28.167 69.5 -49.5s34.333 -46.833 45 -76.5s16 -62.834 16 -99.501v-47h-409v-2c2 -56 19.5 -100.667 52.5 -134s76.5 -50 130.5 -50h9c36 0 67.167 7.66699 93.5 23s48.166 35.666 65.499 60.999l45 -29c-25.333 -36 -55.5 -63.5 -90.5 -82.5
s-74.5 -28.5 -118.5 -28.5h-6zM464.001 289.001l-0.00195312 3c-1.33301 54 -17.166 97.167 -47.499 129.5s-70.166 48.5 -119.499 48.5h-9c-50.667 0 -91.667 -16.333 -123 -49s-49.333 -76.667 -54 -132h353zM169.999 695.001h249v-49h-249v49z" />
    <glyph glyph-name="Ebreve" unicode="&#x114;" horiz-adv-x="557" 
d="M103 700h383v-57h-323v-255h303v-57h-303v-274h333v-57h-393v700zM209 898c0 -26.667 8.33398 -48 25.001 -64s39 -24 67 -24s50.333 8 67 24s25 37.333 25 64h55c0 -40.667 -13.333 -73.167 -40 -97.5s-62.334 -36.5 -107.001 -36.5c-44 0 -79.5 12.167 -106.5 36.5
s-40.5 56.833 -40.5 97.5h55z" />
    <glyph glyph-name="ebreve" unicode="&#x115;" horiz-adv-x="571" 
d="M292 -6c-36 0 -68.832 6.16797 -98.499 18.501s-55 29.5 -76 51.5s-37.333 48.333 -49 79s-17.5 64.334 -17.5 101.001v20c0 39.333 5.83301 75 17.5 107s28 59.5 49 82.5s46.333 40.833 76 53.5s62.5 19 98.5 19h7c33.333 0 63.5 -5.83301 90.5 -17.5
s50.167 -28.167 69.5 -49.5s34.333 -46.833 45 -76.5s16 -62.834 16 -99.501v-47h-409v-2c2 -56 19.5 -100.667 52.5 -134s76.5 -50 130.5 -50h9c36 0 67.167 7.66699 93.5 23s48.166 35.666 65.499 60.999l45 -29c-25.333 -36 -55.5 -63.5 -90.5 -82.5
s-74.5 -28.5 -118.5 -28.5h-6zM464.001 289.001l-0.00195312 3c-1.33301 54 -17.166 97.167 -47.499 129.5s-70.166 48.5 -119.499 48.5h-9c-50.667 0 -91.667 -16.333 -123 -49s-49.333 -76.667 -54 -132h353zM200.999 721.001c0 -27.333 8.50098 -49 25.501 -65
s39.5 -24 67.5 -24s50.333 8 67 24s25 37.667 25 65h54c0 -40.667 -13.167 -73.334 -39.5 -98.001s-61.833 -37 -106.5 -37s-80.334 12.333 -107.001 37s-40 57.334 -40 98.001h54z" />
    <glyph glyph-name="Edotaccent" unicode="&#x116;" horiz-adv-x="557" 
d="M103 700h383v-57h-323v-255h303v-57h-303v-274h333v-57h-393v700zM300 795c-11.333 0 -20.833 4 -28.5 12s-11.5 17.667 -11.5 29c0 12 3.83301 22 11.5 30s17.167 12 28.5 12s21 -4 29 -12s12 -18 12 -30c0 -11.333 -4 -21 -12 -29s-17.667 -12 -29 -12z" />
    <glyph glyph-name="edotaccent" unicode="&#x117;" horiz-adv-x="571" 
d="M292 -6c-36 0 -68.832 6.16797 -98.499 18.501s-55 29.5 -76 51.5s-37.333 48.333 -49 79s-17.5 64.334 -17.5 101.001v20c0 39.333 5.83301 75 17.5 107s28 59.5 49 82.5s46.333 40.833 76 53.5s62.5 19 98.5 19h7c33.333 0 63.5 -5.83301 90.5 -17.5
s50.167 -28.167 69.5 -49.5s34.333 -46.833 45 -76.5s16 -62.834 16 -99.501v-47h-409v-2c2 -56 19.5 -100.667 52.5 -134s76.5 -50 130.5 -50h9c36 0 67.167 7.66699 93.5 23s48.166 35.666 65.499 60.999l45 -29c-25.333 -36 -55.5 -63.5 -90.5 -82.5
s-74.5 -28.5 -118.5 -28.5h-6zM464.001 289.001l-0.00195312 3c-1.33301 54 -17.166 97.167 -47.499 129.5s-70.166 48.5 -119.499 48.5h-9c-50.667 0 -91.667 -16.333 -123 -49s-49.333 -76.667 -54 -132h353zM293.999 633.001c-11.333 0 -20.833 3.83301 -28.5 11.5
s-11.5 17.167 -11.5 28.5s3.83301 21 11.5 29s17.167 12 28.5 12s21 -4 29 -12s12 -17.667 12 -29s-4 -20.833 -12 -28.5s-17.667 -11.5 -29 -11.5z" />
    <glyph glyph-name="Eogonek" unicode="&#x118;" horiz-adv-x="557" 
d="M103 700h383v-57h-323v-255h303v-57h-303v-274h333v-57h-393v700zM459 -168c-22.667 0 -40.498 6 -53.498 18s-19.5 28.333 -19.5 49c0 21.333 7.16699 42.5 21.5 63.5s34.166 41.167 59.499 60.5l28 -23c-22.667 -19.333 -38.667 -36 -48 -50s-14 -28 -14 -42
c0 -24.667 11 -37 33 -37c5.33301 0 10.166 0.666992 14.499 2l13.5 4v-40c-11.333 -3.33301 -23 -5 -35 -5z" />
    <glyph glyph-name="eogonek" unicode="&#x119;" horiz-adv-x="571" 
d="M507 105c-18.667 -25.333 -39.499 -46.666 -62.499 -63.999s-48.5 -30 -76.5 -38c-22 -9.33301 -41.167 -22.5 -57.5 -39.5s-24.5 -35.833 -24.5 -56.5c0 -24 11.333 -36 34 -36c8 0 17.333 2 28 6v-40c-12 -3.33301 -24 -5 -36 -5c-22 0 -39.5 6 -52.5 18
s-19.5 28.333 -19.5 49c0 15.333 4.16699 31.333 12.5 48s20.166 32.334 35.499 47.001c-35.333 0.666992 -67.666 7.16699 -96.999 19.5s-54.333 29.5 -75 51.5s-36.667 48.167 -48 78.5s-17 63.833 -17 100.5v20c0 39.333 5.83301 75 17.5 107s28 59.5 49 82.5
s46.333 40.833 76 53.5s62.5 19 98.5 19h7c33.333 0 63.5 -5.83301 90.5 -17.5s50.167 -28.167 69.5 -49.5s34.333 -46.833 45 -76.5s16 -62.834 16 -99.501v-47h-409v-2c2 -56 19.5 -100.667 52.5 -134s76.5 -50 130.5 -50h9c36 0 67.167 7.66699 93.5 23
s48.166 35.666 65.499 60.999zM464.001 289l-0.00195312 3c-1.33301 54 -17.166 97.167 -47.499 129.5s-70.166 48.5 -119.499 48.5h-9c-50.667 0 -91.667 -16.333 -123 -49s-49.333 -76.667 -54 -132h353z" />
    <glyph glyph-name="Ecaron" unicode="&#x11a;" horiz-adv-x="557" 
d="M103 700h383v-57h-323v-255h303v-57h-303v-274h333v-57h-393v700zM133 898h71l87 -78h18l88 78h70l-130 -121h-74z" />
    <glyph glyph-name="ecaron" unicode="&#x11b;" horiz-adv-x="571" 
d="M292 -6c-36 0 -68.832 6.16797 -98.499 18.501s-55 29.5 -76 51.5s-37.333 48.333 -49 79s-17.5 64.334 -17.5 101.001v20c0 39.333 5.83301 75 17.5 107s28 59.5 49 82.5s46.333 40.833 76 53.5s62.5 19 98.5 19h7c33.333 0 63.5 -5.83301 90.5 -17.5
s50.167 -28.167 69.5 -49.5s34.333 -46.833 45 -76.5s16 -62.834 16 -99.501v-47h-409v-2c2 -56 19.5 -100.667 52.5 -134s76.5 -50 130.5 -50h9c36 0 67.167 7.66699 93.5 23s48.166 35.666 65.499 60.999l45 -29c-25.333 -36 -55.5 -63.5 -90.5 -82.5
s-74.5 -28.5 -118.5 -28.5h-6zM464.001 289.001l-0.00195312 3c-1.33301 54 -17.166 97.167 -47.499 129.5s-70.166 48.5 -119.499 48.5h-9c-50.667 0 -91.667 -16.333 -123 -49s-49.333 -76.667 -54 -132h353zM126.999 720.001h71l87 -78h18l88 78h70l-130 -121h-74z" />
    <glyph glyph-name="Gcircumflex" unicode="&#x11c;" horiz-adv-x="711" 
d="M361 -8c-47.333 0 -90.1689 8.33203 -128.502 24.999s-71.166 40.334 -98.499 71.001s-48.5 67.5 -63.5 110.5s-22.5 90.5 -22.5 142.5v19c0 52 7.66699 99.333 23 142s36.833 79.334 64.5 110.001s60.5 54.5 98.5 71.5s80 25.5 126 25.5h7
c26.667 0 52.667 -3.5 78 -10.5s49 -16.833 71 -29.5s41.833 -28 59.5 -46s32.5 -38 44.5 -60l-52 -32c-19.333 37.333 -46.333 66.666 -81 87.999s-75.334 32 -122.001 32h-5c-37.333 0 -71.333 -7 -102 -21s-56.834 -33.667 -78.501 -59s-38.5 -55.833 -50.5 -91.5
s-18 -75.167 -18 -118.5v-22c0 -43.333 6 -82.666 18 -117.999s29 -65.666 51 -90.999s48.5 -45 79.5 -59s65.5 -21 103.5 -21h4c32.667 0 62.334 5.16699 89.001 15.5s49.667 24.666 69 42.999s34.333 40.5 45 66.5s16 54.333 16 85v36h-203v57h262v-353h-45
c-2.66699 12 -5.16699 27.833 -7.5 47.5s-4.16602 39.167 -5.49902 58.5c-21.333 -34.667 -51.666 -62.334 -90.999 -83.001s-83.333 -31 -132 -31h-3zM328.997 899.999h74l130 -121h-70l-88 78h-18l-87 -78h-71z" />
    <glyph glyph-name="gcircumflex" unicode="&#x11d;" horiz-adv-x="527" 
d="M358 599l-88 78h-18l-87 -78h-71l130 121h74l130 -121h-70zM52 348c0 26 5 50.002 15 72.002s23.833 40.833 41.5 56.5s39 27.834 64 36.501s52.5 13 82.5 13h11c48.667 0 90.667 -11.333 126 -34c11.333 27.333 25 53.333 41 78h57l-60 -112c26 -30 39 -66.667 39 -110
v-14c0 -26 -5 -50 -15 -72s-23.833 -40.833 -41.5 -56.5s-39 -27.834 -64 -36.501s-52.5 -13 -82.5 -13h-11c-20.667 0 -41.667 2.66699 -63 8v-76c22 4 45.333 6 70 6h12c66.667 0 119.667 -12.833 159 -38.5s59 -61.167 59 -106.5v-9c0 -44 -19.667 -78.833 -59 -104.5
s-92.333 -38.5 -159 -38.5h-12c-67.333 0 -120.5 12.667 -159.5 38s-58.5 60.333 -58.5 105v9c0 28.667 8.16699 53.5 24.5 74.5s39.5 37.5 69.5 49.5v112c-26.667 15.333 -47.667 35.666 -63 60.999s-23 54.666 -23 87.999v14zM110 335.002
c0 -38 13.5 -68.498 40.5 -91.498s62.167 -34.5 105.5 -34.5h9c44 0 79.333 11.667 106 35s40 53.666 40 90.999v12c0 37.333 -13.333 67.666 -40 90.999s-62 35 -106 35h-9c-43.333 0 -78.5 -11.5 -105.5 -34.5s-40.5 -53.5 -40.5 -91.5v-12zM102 -57.9961
c0 -30 14 -52.999 42 -68.999s67.667 -24 119 -24h10c51.333 0 91 8.16699 119 24.5s42 39.166 42 68.499v6c0 29.333 -14 52.333 -42 69s-67.667 25 -119 25h-10c-50.667 0 -90.167 -8.33301 -118.5 -25s-42.5 -39.667 -42.5 -69v-6z" />
    <glyph glyph-name="Gbreve" unicode="&#x11e;" horiz-adv-x="711" 
d="M361 -8c-47.333 0 -90.1689 8.33203 -128.502 24.999s-71.166 40.334 -98.499 71.001s-48.5 67.5 -63.5 110.5s-22.5 90.5 -22.5 142.5v19c0 52 7.66699 99.333 23 142s36.833 79.334 64.5 110.001s60.5 54.5 98.5 71.5s80 25.5 126 25.5h7
c26.667 0 52.667 -3.5 78 -10.5s49 -16.833 71 -29.5s41.833 -28 59.5 -46s32.5 -38 44.5 -60l-52 -32c-19.333 37.333 -46.333 66.666 -81 87.999s-75.334 32 -122.001 32h-5c-37.333 0 -71.333 -7 -102 -21s-56.834 -33.667 -78.501 -59s-38.5 -55.833 -50.5 -91.5
s-18 -75.167 -18 -118.5v-22c0 -43.333 6 -82.666 18 -117.999s29 -65.666 51 -90.999s48.5 -45 79.5 -59s65.5 -21 103.5 -21h4c32.667 0 62.334 5.16699 89.001 15.5s49.667 24.666 69 42.999s34.333 40.5 45 66.5s16 54.333 16 85v36h-203v57h262v-353h-45
c-2.66699 12 -5.16699 27.833 -7.5 47.5s-4.16602 39.167 -5.49902 58.5c-21.333 -34.667 -51.666 -62.334 -90.999 -83.001s-83.333 -31 -132 -31h-3zM274.997 897.999c0 -26.667 8.33398 -48 25.001 -64s39 -24 67 -24s50.333 8 67 24s25 37.333 25 64h55
c0 -40.667 -13.333 -73.167 -40 -97.5s-62.334 -36.5 -107.001 -36.5c-44 0 -79.5 12.167 -106.5 36.5s-40.5 56.833 -40.5 97.5h55z" />
    <glyph glyph-name="gbreve" unicode="&#x11f;" horiz-adv-x="527" 
d="M172 720c0 -26 8 -46.667 24 -62s37.667 -23 65 -23c26.667 0 48.167 7.66699 64.5 23s24.5 36 24.5 62h54c0 -40 -12.833 -71.833 -38.5 -95.5s-60.5 -35.5 -104.5 -35.5c-43.333 0 -78 11.833 -104 35.5s-39 55.5 -39 95.5h54zM52 348c0 26 5 50.002 15 72.002
s23.833 40.833 41.5 56.5s39 27.834 64 36.501s52.5 13 82.5 13h11c48.667 0 90.667 -11.333 126 -34c11.333 27.333 25 53.333 41 78h57l-60 -112c26 -30 39 -66.667 39 -110v-14c0 -26 -5 -50 -15 -72s-23.833 -40.833 -41.5 -56.5s-39 -27.834 -64 -36.501
s-52.5 -13 -82.5 -13h-11c-20.667 0 -41.667 2.66699 -63 8v-76c22 4 45.333 6 70 6h12c66.667 0 119.667 -12.833 159 -38.5s59 -61.167 59 -106.5v-9c0 -44 -19.667 -78.833 -59 -104.5s-92.333 -38.5 -159 -38.5h-12c-67.333 0 -120.5 12.667 -159.5 38
s-58.5 60.333 -58.5 105v9c0 28.667 8.16699 53.5 24.5 74.5s39.5 37.5 69.5 49.5v112c-26.667 15.333 -47.667 35.666 -63 60.999s-23 54.666 -23 87.999v14zM110 335.002c0 -38 13.5 -68.498 40.5 -91.498s62.167 -34.5 105.5 -34.5h9c44 0 79.333 11.667 106 35
s40 53.666 40 90.999v12c0 37.333 -13.333 67.666 -40 90.999s-62 35 -106 35h-9c-43.333 0 -78.5 -11.5 -105.5 -34.5s-40.5 -53.5 -40.5 -91.5v-12zM102 -57.9961c0 -30 14 -52.999 42 -68.999s67.667 -24 119 -24h10c51.333 0 91 8.16699 119 24.5s42 39.166 42 68.499v6
c0 29.333 -14 52.333 -42 69s-67.667 25 -119 25h-10c-50.667 0 -90.167 -8.33301 -118.5 -25s-42.5 -39.667 -42.5 -69v-6z" />
    <glyph glyph-name="Gdotaccent" unicode="&#x120;" horiz-adv-x="711" 
d="M361 -8c-47.333 0 -90.1689 8.33203 -128.502 24.999s-71.166 40.334 -98.499 71.001s-48.5 67.5 -63.5 110.5s-22.5 90.5 -22.5 142.5v19c0 52 7.66699 99.333 23 142s36.833 79.334 64.5 110.001s60.5 54.5 98.5 71.5s80 25.5 126 25.5h7
c26.667 0 52.667 -3.5 78 -10.5s49 -16.833 71 -29.5s41.833 -28 59.5 -46s32.5 -38 44.5 -60l-52 -32c-19.333 37.333 -46.333 66.666 -81 87.999s-75.334 32 -122.001 32h-5c-37.333 0 -71.333 -7 -102 -21s-56.834 -33.667 -78.501 -59s-38.5 -55.833 -50.5 -91.5
s-18 -75.167 -18 -118.5v-22c0 -43.333 6 -82.666 18 -117.999s29 -65.666 51 -90.999s48.5 -45 79.5 -59s65.5 -21 103.5 -21h4c32.667 0 62.334 5.16699 89.001 15.5s49.667 24.666 69 42.999s34.333 40.5 45 66.5s16 54.333 16 85v36h-203v57h262v-353h-45
c-2.66699 12 -5.16699 27.833 -7.5 47.5s-4.16602 39.167 -5.49902 58.5c-21.333 -34.667 -51.666 -62.334 -90.999 -83.001s-83.333 -31 -132 -31h-3zM366.997 794.999c-11.333 0 -20.833 4 -28.5 12s-11.5 17.667 -11.5 29c0 12 3.83301 22 11.5 30s17.167 12 28.5 12
s21 -4 29 -12s12 -18 12 -30c0 -11.333 -4 -21 -12 -29s-17.667 -12 -29 -12z" />
    <glyph glyph-name="gdotaccent" unicode="&#x121;" horiz-adv-x="527" 
d="M261 630c-11.333 0 -20.833 3.83301 -28.5 11.5s-11.5 17.167 -11.5 28.5s3.83301 21 11.5 29s17.167 12 28.5 12s20.833 -4 28.5 -12s11.5 -17.667 11.5 -29s-3.83301 -20.833 -11.5 -28.5s-17.167 -11.5 -28.5 -11.5zM52 348c0 26 5 50.002 15 72.002
s23.833 40.833 41.5 56.5s39 27.834 64 36.501s52.5 13 82.5 13h11c48.667 0 90.667 -11.333 126 -34c11.333 27.333 25 53.333 41 78h57l-60 -112c26 -30 39 -66.667 39 -110v-14c0 -26 -5 -50 -15 -72s-23.833 -40.833 -41.5 -56.5s-39 -27.834 -64 -36.501
s-52.5 -13 -82.5 -13h-11c-20.667 0 -41.667 2.66699 -63 8v-76c22 4 45.333 6 70 6h12c66.667 0 119.667 -12.833 159 -38.5s59 -61.167 59 -106.5v-9c0 -44 -19.667 -78.833 -59 -104.5s-92.333 -38.5 -159 -38.5h-12c-67.333 0 -120.5 12.667 -159.5 38
s-58.5 60.333 -58.5 105v9c0 28.667 8.16699 53.5 24.5 74.5s39.5 37.5 69.5 49.5v112c-26.667 15.333 -47.667 35.666 -63 60.999s-23 54.666 -23 87.999v14zM110 335.002c0 -38 13.5 -68.498 40.5 -91.498s62.167 -34.5 105.5 -34.5h9c44 0 79.333 11.667 106 35
s40 53.666 40 90.999v12c0 37.333 -13.333 67.666 -40 90.999s-62 35 -106 35h-9c-43.333 0 -78.5 -11.5 -105.5 -34.5s-40.5 -53.5 -40.5 -91.5v-12zM102 -57.9961c0 -30 14 -52.999 42 -68.999s67.667 -24 119 -24h10c51.333 0 91 8.16699 119 24.5s42 39.166 42 68.499v6
c0 29.333 -14 52.333 -42 69s-67.667 25 -119 25h-10c-50.667 0 -90.167 -8.33301 -118.5 -25s-42.5 -39.667 -42.5 -69v-6z" />
    <glyph glyph-name="uni0122" unicode="&#x122;" horiz-adv-x="711" 
d="M361 -8c-47.333 0 -90.1689 8.33203 -128.502 24.999s-71.166 40.334 -98.499 71.001s-48.5 67.5 -63.5 110.5s-22.5 90.5 -22.5 142.5v19c0 52 7.66699 99.333 23 142s36.833 79.334 64.5 110.001s60.5 54.5 98.5 71.5s80 25.5 126 25.5h7
c26.667 0 52.667 -3.5 78 -10.5s49 -16.833 71 -29.5s41.833 -28 59.5 -46s32.5 -38 44.5 -60l-52 -32c-19.333 37.333 -46.333 66.666 -81 87.999s-75.334 32 -122.001 32h-5c-37.333 0 -71.333 -7 -102 -21s-56.834 -33.667 -78.501 -59s-38.5 -55.833 -50.5 -91.5
s-18 -75.167 -18 -118.5v-22c0 -43.333 6 -82.666 18 -117.999s29 -65.666 51 -90.999s48.5 -45 79.5 -59s65.5 -21 103.5 -21h4c32.667 0 62.334 5.16699 89.001 15.5s49.667 24.666 69 42.999s34.333 40.5 45 66.5s16 54.333 16 85v36h-203v57h262v-353h-45
c-2.66699 12 -5.16699 27.833 -7.5 47.5s-4.16602 39.167 -5.49902 58.5c-21.333 -34.667 -51.666 -62.334 -90.999 -83.001s-83.333 -31 -132 -31h-3zM338.997 -36.001h55l-57 -140h-38z" />
    <glyph glyph-name="uni0123" unicode="&#x123;" horiz-adv-x="527" 
d="M295 705c-12 -7.33301 -21 -15.999 -27 -25.999s-8.33301 -20.333 -7 -31c11.333 0 20.333 -3.33301 27 -10s10 -15.334 10 -26.001c0 -11.333 -3.5 -20.5 -10.5 -27.5s-15.833 -10.5 -26.5 -10.5c-12.667 0 -23 5.16699 -31 15.5s-12 23.166 -12 38.499
c0 18.667 5.16699 36.834 15.5 54.501s23.833 32.167 40.5 43.5zM52 348.001c0 26 5 50.002 15 72.002s23.833 40.833 41.5 56.5s39 27.834 64 36.501s52.5 13 82.5 13h11c48.667 0 90.667 -11.333 126 -34c11.333 27.333 25 53.333 41 78h57l-60 -112
c26 -30 39 -66.667 39 -110v-14c0 -26 -5 -50 -15 -72s-23.833 -40.833 -41.5 -56.5s-39 -27.834 -64 -36.501s-52.5 -13 -82.5 -13h-11c-20.667 0 -41.667 2.66699 -63 8v-76c22 4 45.333 6 70 6h12c66.667 0 119.667 -12.833 159 -38.5s59 -61.167 59 -106.5v-9
c0 -44 -19.667 -78.833 -59 -104.5s-92.333 -38.5 -159 -38.5h-12c-67.333 0 -120.5 12.667 -159.5 38s-58.5 60.333 -58.5 105v9c0 28.667 8.16699 53.5 24.5 74.5s39.5 37.5 69.5 49.5v112c-26.667 15.333 -47.667 35.666 -63 60.999s-23 54.666 -23 87.999v14z
M110 335.003c0 -38 13.5 -68.498 40.5 -91.498s62.167 -34.5 105.5 -34.5h9c44 0 79.333 11.667 106 35s40 53.666 40 90.999v12c0 37.333 -13.333 67.666 -40 90.999s-62 35 -106 35h-9c-43.333 0 -78.5 -11.5 -105.5 -34.5s-40.5 -53.5 -40.5 -91.5v-12zM102 -57.9951
c0 -30 14 -52.999 42 -68.999s67.667 -24 119 -24h10c51.333 0 91 8.16699 119 24.5s42 39.166 42 68.499v6c0 29.333 -14 52.333 -42 69s-67.667 25 -119 25h-10c-50.667 0 -90.167 -8.33301 -118.5 -25s-42.5 -39.667 -42.5 -69v-6z" />
    <glyph glyph-name="Hcircumflex" unicode="&#x124;" horiz-adv-x="692" 
d="M103 700h60v-312h366v312h60v-700h-60v331h-366v-331h-60v700zM309 897h74l130 -121h-70l-88 78h-18l-87 -78h-71z" />
    <glyph glyph-name="hcircumflex" unicode="&#x125;" horiz-adv-x="593" 
d="M204 777l-78 79h-18l-78 -79h-70l120 121h74l120 -121h-70zM88 720l55.999 -0.000976562v-289c20.667 30 47.5 53.5 80.5 70.5s70.167 25.5 111.5 25.5c58 0 102.333 -16.5 133 -49.5s46 -80.833 46 -143.5v-334h-56v325c0 48 -11.667 84.333 -35 109
s-57.666 37 -102.999 37c-26 0 -50 -4.16699 -72 -12.5s-40.667 -20.166 -56 -35.499s-27.333 -33.5 -36 -54.5s-13 -44.5 -13 -70.5v-298h-56v720z" />
    <glyph glyph-name="Hbar" unicode="&#x126;" horiz-adv-x="692" 
d="M103 700h60v-129h366v129h60v-700h-60v331h-366v-331h-60v700zM529 388v134h-366v-134h366z" />
    <glyph glyph-name="hbar" unicode="&#x127;" 
d="M88 613h-70.002v46h70v61h56v-61h177v-46h-177v-190c19.333 29.333 45.333 52.5 78 69.5s69.334 25.5 110.001 25.5h2c62 0 108.333 -16.5 139 -49.5s46 -80.833 46 -143.5v-325h-56v316c0 46.667 -11.167 82.667 -33.5 108s-57.166 38 -104.499 38h-2
c-26 0 -50 -4.16699 -72 -12.5s-41 -20 -57 -35s-28.333 -33.167 -37 -54.5s-13 -45.333 -13 -72v-288h-56v613z" />
    <glyph glyph-name="Itilde" unicode="&#x128;" horiz-adv-x="267" 
d="M103 700h60v-700h-60v700zM-36 833c11.333 17.333 25.3311 30.668 41.998 40.001s34.667 14 54 14c13.333 0 26.5 -2.33301 39.5 -7s27.833 -11 44.5 -19c11.333 -6 22.5 -11 33.5 -15s22.167 -6 33.5 -6c14 0 26.667 3.16699 38 9.5s20.666 15.166 27.999 26.499l25 -33
c-10.667 -17.333 -24.167 -30.5 -40.5 -39.5s-33.833 -13.5 -52.5 -13.5c-14 0 -27.667 2.5 -41 7.5s-26.666 10.833 -39.999 17.5s-25.666 12 -36.999 16s-22.666 6 -33.999 6c-13.333 0 -26.333 -3.33301 -39 -10s-22.667 -15.667 -30 -27z" />
    <glyph glyph-name="itilde" unicode="&#x129;" horiz-adv-x="233" 
d="M186 617c-12 0 -23.8291 2.16699 -35.4961 6.5s-23.167 9.16602 -34.5 14.499c-10.667 4.66699 -21 8.83398 -31 12.501s-20.333 5.5 -31 5.5c-11.333 0 -22.333 -3 -33 -9s-19.334 -14.333 -26.001 -25l-30 33c9.33301 14.667 21.333 26 36 34s30.667 12 48 12
c11.333 0 22.666 -1.83301 33.999 -5.5s23.666 -8.5 36.999 -14.5c10.667 -5.33301 20.834 -9.83301 30.501 -13.5s19.167 -5.5 28.5 -5.5c11.333 0 22.166 3 32.499 9s19.166 14.333 26.499 25l30 -33c-10 -14.667 -22.167 -26 -36.5 -34s-29.5 -12 -45.5 -12zM88.0039 520
h56v-520h-56v520z" />
    <glyph glyph-name="Imacron" unicode="&#x12a;" horiz-adv-x="267" 
d="M103 700h60v-700h-60v700zM9 875h248v-49h-248v49z" />
    <glyph glyph-name="imacron" unicode="&#x12b;" horiz-adv-x="242" 
d="M5 692h232v-49h-232v49zM93 520h56v-520h-56v520z" />
    <glyph glyph-name="Ibreve" unicode="&#x12c;" horiz-adv-x="267" 
d="M103 700h60v-700h-60v700zM42 898c0 -26.667 8.33398 -48 25.001 -64s39 -24 67 -24s50.333 8 67 24s25 37.333 25 64h55c0 -40.667 -13.333 -73.167 -40 -97.5s-62.334 -36.5 -107.001 -36.5c-44 0 -79.5 12.167 -106.5 36.5s-40.5 56.833 -40.5 97.5h55z" />
    <glyph glyph-name="ibreve" unicode="&#x12d;" horiz-adv-x="233" 
d="M116 635c24 0 43.168 7.66699 57.501 23s21.5 36 21.5 62h54c0 -40 -12 -71.833 -36 -95.5s-56.333 -35.5 -97 -35.5c-40 0 -72.167 11.833 -96.5 35.5s-36.5 55.5 -36.5 95.5h55c0 -26 7.16699 -46.667 21.5 -62s33.166 -23 56.499 -23zM88.001 520h56v-520h-56v520z
" />
    <glyph glyph-name="Iogonek" unicode="&#x12e;" horiz-adv-x="267" 
d="M103 700h60v-700h-60v700zM127 -168c-22.667 0 -40.498 6 -53.498 18s-19.5 28.333 -19.5 49c0 21.333 7.16699 42.5 21.5 63.5s34.166 41.167 59.499 60.5l28 -23c-22.667 -19.333 -38.667 -36 -48 -50s-14 -28 -14 -42c0 -24.667 11 -37 33 -37
c5.33301 0 10.166 0.666992 14.499 2l13.5 4v-40c-11.333 -3.33301 -23 -5 -35 -5z" />
    <glyph glyph-name="iogonek" unicode="&#x12f;" horiz-adv-x="233" 
d="M117 628c-12 0 -21.833 3.83301 -29.5 11.5s-11.5 17.5 -11.5 29.5c0 11.333 3.83301 21.166 11.5 29.499s17.5 12.5 29.5 12.5c11.333 0 20.833 -4.16699 28.5 -12.5s11.5 -18.166 11.5 -29.499c0 -12 -3.83301 -21.833 -11.5 -29.5s-17.167 -11.5 -28.5 -11.5zM88 520
h56v-520h-56v520zM108 -168c-22.667 0 -40.498 6 -53.498 18s-19.5 28.333 -19.5 49c0 21.333 7.16699 42.5 21.5 63.5s34.166 41.167 59.499 60.5l28 -23c-22.667 -19.333 -38.667 -36 -48 -50s-14 -28 -14 -42c0 -24.667 11 -37 33 -37
c5.33301 0 10.166 0.666992 14.499 2l13.5 4v-40c-11.333 -3.33301 -23 -5 -35 -5z" />
    <glyph glyph-name="Idotaccent" unicode="&#x130;" horiz-adv-x="267" 
d="M103 700h60v-700h-60v700zM133 795c-11.333 0 -20.833 4 -28.5 12s-11.5 17.667 -11.5 29c0 12 3.83301 22 11.5 30s17.167 12 28.5 12s21 -4 29 -12s12 -18 12 -30c0 -11.333 -4 -21 -12 -29s-17.667 -12 -29 -12z" />
    <glyph glyph-name="dotlessi" unicode="&#x131;" horiz-adv-x="233" 
d="M88 520h56v-520h-56v520z" />
    <glyph glyph-name="IJ" unicode="&#x132;" horiz-adv-x="613" 
d="M358 -4c-34 0 -63.665 6.33301 -88.998 19v60c11.333 -7.33301 23.666 -13 36.999 -17s27.666 -6 42.999 -6c42 0 72.667 11.833 92 35.5s29 56.5 29 98.5v514h60v-511c0 -60 -14.167 -107.167 -42.5 -141.5s-71.5 -51.5 -129.5 -51.5zM103.002 700h60v-700h-60v700z" />
    <glyph glyph-name="ij" unicode="&#x133;" horiz-adv-x="503" 
d="M116 630c-11.333 0 -20.833 3.83301 -28.5 11.5s-11.5 17.167 -11.5 28.5s3.83301 21 11.5 29s17.167 12 28.5 12s21 -4 29 -12s12 -17.667 12 -29s-4 -20.833 -12 -28.5s-17.667 -11.5 -29 -11.5zM387 630c-11.333 0 -20.833 3.83301 -28.5 11.5
s-11.5 17.167 -11.5 28.5s3.83301 21 11.5 29s17.167 12 28.5 12s20.833 -4 28.5 -12s11.5 -17.667 11.5 -29s-3.83301 -20.833 -11.5 -28.5s-17.167 -11.5 -28.5 -11.5zM290 -197c-11.333 0 -24.5 1.16797 -39.5 3.50098s-28.167 6.16602 -39.5 11.499v52
c17.333 -8 37.333 -12 60 -12c29.333 0 51.333 7.83301 66 23.5s22 43.5 22 83.5v555h56v-569c0 -48.667 -11.333 -85.5 -34 -110.5s-53 -37.5 -91 -37.5zM88 520.001h56v-520h-56v520z" />
    <glyph glyph-name="Jcircumflex" unicode="&#x134;" horiz-adv-x="398" 
d="M132 -4c-32.667 0 -62.333 6.33301 -89 19v60c11.333 -7.33301 23.833 -13 37.5 -17s28.167 -6 43.5 -6c42 0 72.5 11.833 91.5 35.5s28.5 56.5 28.5 98.5v514h60v-511c0 -60 -14.167 -107.167 -42.5 -141.5s-71.5 -51.5 -129.5 -51.5zM237.001 897h74l130 -121h-70
l-88 78h-18l-87 -78h-71z" />
    <glyph glyph-name="jcircumflex" unicode="&#x135;" horiz-adv-x="267" 
d="M228 599l-71 78h-18l-71 -78h-68l113 121h70l114 -121h-69zM54 -197c-11.333 0 -24.5 1.16797 -39.5 3.50098s-28.167 6.16602 -39.5 11.499v52c18 -8 38 -12 60 -12c30 0 52.167 7.83301 66.5 23.5s21.5 43.5 21.5 83.5v555h56v-569c0 -48.667 -11.333 -85.5 -34 -110.5
s-53 -37.5 -91 -37.5z" />
    <glyph glyph-name="uni0136" unicode="&#x136;" horiz-adv-x="619" 
d="M103 700h60v-314h10l323 314h79l-338 -324l374 -376h-85l-353 356h-10v-356h-60v700zM311 -34h55l-57 -140h-38z" />
    <glyph glyph-name="uni0137" unicode="&#x137;" horiz-adv-x="504" 
d="M88 720h56v-430h6l252 230h73l-267 -244l284 -276h-78l-263 260h-7v-260h-56v720zM240 -34h55l-57 -140h-38z" />
    <glyph glyph-name="kgreenlandic" unicode="&#x138;" horiz-adv-x="504" 
d="M88 520h56v-230h6l252 230h73l-267 -244l284 -276h-78l-263 260h-7v-260h-56v520z" />
    <glyph glyph-name="Lacute" unicode="&#x139;" horiz-adv-x="511" 
d="M103 700h60v-643h304v-57h-364v700zM155 763h-47l47 136h62z" />
    <glyph glyph-name="lacute" unicode="&#x13a;" horiz-adv-x="233" 
d="M88 720h56v-720h-56v720zM138 763h-47l47 136h62z" />
    <glyph glyph-name="uni013B" unicode="&#x13b;" horiz-adv-x="511" 
d="M103 700h60v-643h304v-57h-364v700zM258 -34h55l-57 -140h-38z" />
    <glyph glyph-name="uni013C" unicode="&#x13c;" horiz-adv-x="233" 
d="M88 720h56v-720h-56v720zM89 -34h55l-57 -140h-38z" />
    <glyph glyph-name="Lcaron" unicode="&#x13d;" horiz-adv-x="511" 
d="M103 700h60v-643h304v-57h-364v700zM295 700h58l-33 -157h-41z" />
    <glyph glyph-name="lcaron" unicode="&#x13e;" horiz-adv-x="256" 
d="M88 720h56v-720h-56v720zM240 720h58l-33 -157h-41z" />
    <glyph glyph-name="Ldot" unicode="&#x13f;" horiz-adv-x="511" 
d="M103 700h60v-643h304v-57h-364v700zM371 325c-11.333 0 -20.833 3.66699 -28.5 11s-11.5 16.666 -11.5 27.999s3.83301 21 11.5 29s17.167 12 28.5 12s21 -4 29 -12s12 -17.667 12 -29s-4 -20.666 -12 -27.999s-17.667 -11 -29 -11z" />
    <glyph glyph-name="ldot" unicode="&#x140;" horiz-adv-x="299" 
d="M88 720h56v-720h-56v720zM262 325c-11.333 0 -20.833 3.66699 -28.5 11s-11.5 16.666 -11.5 27.999s3.83301 21 11.5 29s17.167 12 28.5 12s20.833 -4 28.5 -12s11.5 -17.667 11.5 -29s-3.83301 -20.666 -11.5 -27.999s-17.167 -11 -28.5 -11z" />
    <glyph glyph-name="Lslash" unicode="&#x141;" horiz-adv-x="514" 
d="M23 353l84 30v317h60v-295l155 56v-57l-155 -56v-291h304v-57h-364v326l-84 -30v57z" />
    <glyph glyph-name="lslash" unicode="&#x142;" horiz-adv-x="315" 
d="M35 333l94 56v331h56v-298l94 56v-56l-94 -55v-367h-56v333l-94 -55v55z" />
    <glyph glyph-name="Nacute" unicode="&#x143;" horiz-adv-x="700" 
d="M103 700h75l353 -604h6v604h60v-700h-71l-354 606h-9v-606h-60v700zM371 766h-47l47 136h62z" />
    <glyph glyph-name="nacute" unicode="&#x144;" horiz-adv-x="593" 
d="M88 520h44.001c2.66699 -10 5 -22.5 7 -37.5s3.66699 -30.833 5 -47.5c19.333 28.667 45 51.167 77 67.5s68 24.5 108 24.5h6c59.333 0 104.166 -16.5 134.499 -49.5s45.5 -80.833 45.5 -143.5v-334h-56v325c0 47.333 -11 83.5 -33 108.5s-55.667 37.5 -101 37.5h-5
c-26 0 -49.833 -4 -71.5 -12s-40.167 -19.333 -55.5 -34s-27.333 -32.667 -36 -54s-13 -45 -13 -71v-300h-56v520zM279.001 587l56 133h61l-70 -133h-47z" />
    <glyph glyph-name="uni0145" unicode="&#x145;" horiz-adv-x="700" 
d="M103 700h75l353 -604h6v604h60v-700h-71l-354 606h-9v-606h-60v700zM323 -34h55l-57 -140h-38z" />
    <glyph glyph-name="uni0146" unicode="&#x146;" horiz-adv-x="593" 
d="M88 520h44.001c2.66699 -10 5 -22.5 7 -37.5s3.66699 -30.833 5 -47.5c19.333 28.667 45 51.167 77 67.5s68 24.5 108 24.5h6c59.333 0 104.166 -16.5 134.499 -49.5s45.5 -80.833 45.5 -143.5v-334h-56v325c0 47.333 -11 83.5 -33 108.5s-55.667 37.5 -101 37.5h-5
c-26 0 -49.833 -4 -71.5 -12s-40.167 -19.333 -55.5 -34s-27.333 -32.667 -36 -54s-13 -45 -13 -71v-300h-56v520zM277.001 -34h55l-57 -140h-38z" />
    <glyph glyph-name="Ncaron" unicode="&#x147;" horiz-adv-x="700" 
d="M103 700h75l353 -604h6v604h60v-700h-71l-354 606h-9v-606h-60v700zM183 898h71l87 -78h18l88 78h70l-130 -121h-74z" />
    <glyph glyph-name="ncaron" unicode="&#x148;" horiz-adv-x="593" 
d="M88 520h44.001c2.66699 -10 5 -22.5 7 -37.5s3.66699 -30.833 5 -47.5c19.333 28.667 45 51.167 77 67.5s68 24.5 108 24.5h6c59.333 0 104.166 -16.5 134.499 -49.5s45.5 -80.833 45.5 -143.5v-334h-56v325c0 47.333 -11 83.5 -33 108.5s-55.667 37.5 -101 37.5h-5
c-26 0 -49.833 -4 -71.5 -12s-40.167 -19.333 -55.5 -34s-27.333 -32.667 -36 -54s-13 -45 -13 -71v-300h-56v520zM136.001 720h71l87 -78h18l88 78h70l-130 -121h-74z" />
    <glyph glyph-name="napostrophe" unicode="&#x149;" horiz-adv-x="616" 
d="M111 520h44.001c2.66699 -10 5 -22.5 7 -37.5s3.66699 -30.833 5 -47.5c19.333 28.667 45 51.167 77 67.5s68 24.5 108 24.5h6c59.333 0 104.166 -16.5 134.499 -49.5s45.5 -80.833 45.5 -143.5v-334h-56v325c0 47.333 -11 83.5 -33 108.5s-55.667 37.5 -101 37.5h-5
c-26 0 -49.833 -4 -71.5 -12s-40.167 -19.333 -55.5 -34s-27.333 -32.667 -36 -54s-13 -45 -13 -71v-300h-56v520zM61.001 700h63l-97 -238h-48z" />
    <glyph glyph-name="Eng" unicode="&#x14a;" horiz-adv-x="719" 
d="M444 -196c-16.667 0 -32.667 1.83301 -48 5.5s-29 8.16699 -41 13.5v60c23.333 -14.667 50 -22 80 -22c40 0 69.667 10.333 89 31s30 50 32 88l-386 624h-7v-604h-60v700h76l372 -599h5v599h60v-706c0 -58.667 -14.333 -105 -43 -139s-71.667 -51 -129 -51z" />
    <glyph glyph-name="eng" unicode="&#x14b;" horiz-adv-x="603" 
d="M390 -197c-11.333 0 -24.5 1.16797 -39.5 3.50098s-28.167 6.16602 -39.5 11.499v52c17.333 -8 37.333 -12 60 -12c29.333 0 51.333 7.83301 66 23.5s22 43.5 22 83.5v360c0 47.333 -11 83.5 -33 108.5s-55.667 37.5 -101 37.5h-6c-26 0 -49.667 -4 -71 -12
s-39.666 -19.333 -54.999 -34s-27.333 -32.667 -36 -54s-13 -45 -13 -71v-300h-56v520h44c2.66699 -10 5 -22.5 7 -37.5s3.66699 -30.833 5 -47.5c19.333 28.667 45 51.167 77 67.5s68.333 24.5 109 24.5h5c59.333 0 104.166 -16.5 134.499 -49.5s45.5 -80.833 45.5 -143.5
v-383c0 -48.667 -11.333 -85.5 -34 -110.5s-53 -37.5 -91 -37.5z" />
    <glyph glyph-name="Omacron" unicode="&#x14c;" horiz-adv-x="745" 
d="M48 359c0 52.667 8 100.5 24 143.5s38.167 79.667 66.5 110s62.166 53.833 101.499 70.5s82.333 25 129 25h7c46.667 0 89.667 -8.33301 129 -25s73.166 -40.167 101.499 -70.5s50.333 -67 66 -110s23.5 -90.833 23.5 -143.5v-18c0 -52.667 -7.83301 -100.5 -23.5 -143.5
s-37.667 -79.667 -66 -110s-62.166 -53.833 -101.499 -70.5s-82.333 -25 -129 -25h-7c-46.667 0 -89.667 8.33301 -129 25s-73.166 40.167 -101.499 70.5s-50.5 67 -66.5 110s-24 90.833 -24 143.5v18zM111 340c0 -43.333 6.49902 -82.666 19.499 -117.999
s31 -65.666 54 -90.999s50.333 -45 82 -59s66.167 -21 103.5 -21h4c38 0 72.833 7 104.5 21s59 33.667 82 59s41 55.666 54 90.999s19.5 74.666 19.5 117.999v20c0 43.333 -6.5 82.666 -19.5 117.999s-31 65.666 -54 90.999s-50.333 45 -82 59s-66.167 21 -103.5 21h-6
c-37.333 0 -71.666 -7 -102.999 -21s-58.5 -33.667 -81.5 -59s-41 -55.666 -54 -90.999s-19.5 -74.666 -19.5 -117.999v-20zM248.999 875h248v-49h-248v49z" />
    <glyph glyph-name="omacron" unicode="&#x14d;" horiz-adv-x="586" 
d="M289 -6c-34.667 0 -66.667 6.16699 -96 18.5s-54.333 29.666 -75 51.999s-36.834 49.166 -48.501 80.499s-17.5 65.666 -17.5 102.999v24c0 37.333 5.83301 71.666 17.5 102.999s27.834 58.166 48.501 80.499s45.667 39.666 75 51.999s61.333 18.5 96 18.5h8
c35.333 0 67.5 -6.16699 96.5 -18.5s54 -29.666 75 -51.999s37.333 -49.166 49 -80.499s17.5 -65.666 17.5 -102.999v-24c0 -37.333 -5.83301 -71.666 -17.5 -102.999s-28 -58.166 -49 -80.499s-46 -39.666 -75 -51.999s-61.167 -18.5 -96.5 -18.5h-8zM297 50
c27.333 0 52 4.83301 74 14.5s40.667 23.334 56 41.001s27.333 38.667 36 63s13 51.166 13 80.499v22c0 29.333 -4.33301 56.333 -13 81s-20.667 45.667 -36 63s-34 30.833 -56 40.5s-46.667 14.5 -74 14.5h-7c-26.667 0 -51.167 -4.83301 -73.5 -14.5
s-41.333 -23.167 -57 -40.5s-27.834 -38.333 -36.501 -63s-13 -51.667 -13 -81v-22c0 -29.333 4.33301 -56.166 13 -80.499s20.834 -45.333 36.501 -63s34.5 -31.334 56.5 -41.001s46.667 -14.5 74 -14.5h7zM169 695h249v-49h-249v49z" />
    <glyph glyph-name="Obreve" unicode="&#x14e;" horiz-adv-x="745" 
d="M48 359c0 52.667 8 100.5 24 143.5s38.167 79.667 66.5 110s62.166 53.833 101.499 70.5s82.333 25 129 25h7c46.667 0 89.667 -8.33301 129 -25s73.166 -40.167 101.499 -70.5s50.333 -67 66 -110s23.5 -90.833 23.5 -143.5v-18c0 -52.667 -7.83301 -100.5 -23.5 -143.5
s-37.667 -79.667 -66 -110s-62.166 -53.833 -101.499 -70.5s-82.333 -25 -129 -25h-7c-46.667 0 -89.667 8.33301 -129 25s-73.166 40.167 -101.499 70.5s-50.5 67 -66.5 110s-24 90.833 -24 143.5v18zM111 340c0 -43.333 6.49902 -82.666 19.499 -117.999
s31 -65.666 54 -90.999s50.333 -45 82 -59s66.167 -21 103.5 -21h4c38 0 72.833 7 104.5 21s59 33.667 82 59s41 55.666 54 90.999s19.5 74.666 19.5 117.999v20c0 43.333 -6.5 82.666 -19.5 117.999s-31 65.666 -54 90.999s-50.333 45 -82 59s-66.167 21 -103.5 21h-6
c-37.333 0 -71.666 -7 -102.999 -21s-58.5 -33.667 -81.5 -59s-41 -55.666 -54 -90.999s-19.5 -74.666 -19.5 -117.999v-20zM280.999 898c0 -26.667 8.33398 -48 25.001 -64s39 -24 67 -24s50.333 8 67 24s25 37.333 25 64h55c0 -40.667 -13.333 -73.167 -40 -97.5
s-62.334 -36.5 -107.001 -36.5c-44 0 -79.5 12.167 -106.5 36.5s-40.5 56.833 -40.5 97.5h55z" />
    <glyph glyph-name="obreve" unicode="&#x14f;" horiz-adv-x="586" 
d="M289 -6c-34.667 0 -66.667 6.16699 -96 18.5s-54.333 29.666 -75 51.999s-36.834 49.166 -48.501 80.499s-17.5 65.666 -17.5 102.999v24c0 37.333 5.83301 71.666 17.5 102.999s27.834 58.166 48.501 80.499s45.667 39.666 75 51.999s61.333 18.5 96 18.5h8
c35.333 0 67.5 -6.16699 96.5 -18.5s54 -29.666 75 -51.999s37.333 -49.166 49 -80.499s17.5 -65.666 17.5 -102.999v-24c0 -37.333 -5.83301 -71.666 -17.5 -102.999s-28 -58.166 -49 -80.499s-46 -39.666 -75 -51.999s-61.167 -18.5 -96.5 -18.5h-8zM297 50
c27.333 0 52 4.83301 74 14.5s40.667 23.334 56 41.001s27.333 38.667 36 63s13 51.166 13 80.499v22c0 29.333 -4.33301 56.333 -13 81s-20.667 45.667 -36 63s-34 30.833 -56 40.5s-46.667 14.5 -74 14.5h-7c-26.667 0 -51.167 -4.83301 -73.5 -14.5
s-41.333 -23.167 -57 -40.5s-27.834 -38.333 -36.501 -63s-13 -51.667 -13 -81v-22c0 -29.333 4.33301 -56.166 13 -80.499s20.834 -45.333 36.501 -63s34.5 -31.334 56.5 -41.001s46.667 -14.5 74 -14.5h7zM200 721c0 -27.333 8.50098 -49 25.501 -65s39.5 -24 67.5 -24
s50.333 8 67 24s25 37.667 25 65h54c0 -40.667 -13.167 -73.334 -39.5 -98.001s-61.833 -37 -106.5 -37s-80.334 12.333 -107.001 37s-40 57.334 -40 98.001h54z" />
    <glyph glyph-name="Ohungarumlaut" unicode="&#x150;" horiz-adv-x="745" 
d="M48 359c0 52.667 8 100.5 24 143.5s38.167 79.667 66.5 110s62.166 53.833 101.499 70.5s82.333 25 129 25h7c46.667 0 89.667 -8.33301 129 -25s73.166 -40.167 101.499 -70.5s50.333 -67 66 -110s23.5 -90.833 23.5 -143.5v-18c0 -52.667 -7.83301 -100.5 -23.5 -143.5
s-37.667 -79.667 -66 -110s-62.166 -53.833 -101.499 -70.5s-82.333 -25 -129 -25h-7c-46.667 0 -89.667 8.33301 -129 25s-73.166 40.167 -101.499 70.5s-50.5 67 -66.5 110s-24 90.833 -24 143.5v18zM111 340c0 -43.333 6.49902 -82.666 19.499 -117.999
s31 -65.666 54 -90.999s50.333 -45 82 -59s66.167 -21 103.5 -21h4c38 0 72.833 7 104.5 21s59 33.667 82 59s41 55.666 54 90.999s19.5 74.666 19.5 117.999v20c0 43.333 -6.5 82.666 -19.5 117.999s-31 65.666 -54 90.999s-50.333 45 -82 59s-66.167 21 -103.5 21h-6
c-37.333 0 -71.666 -7 -102.999 -21s-58.5 -33.667 -81.5 -59s-41 -55.666 -54 -90.999s-19.5 -74.666 -19.5 -117.999v-20zM283.999 764l47 136h61l-61 -136h-47zM410.999 764l47 136h61l-61 -136h-47z" />
    <glyph glyph-name="ohungarumlaut" unicode="&#x151;" horiz-adv-x="586" 
d="M289 -6c-34.667 0 -66.667 6.16699 -96 18.5s-54.333 29.666 -75 51.999s-36.834 49.166 -48.501 80.499s-17.5 65.666 -17.5 102.999v24c0 37.333 5.83301 71.666 17.5 102.999s27.834 58.166 48.501 80.499s45.667 39.666 75 51.999s61.333 18.5 96 18.5h8
c35.333 0 67.5 -6.16699 96.5 -18.5s54 -29.666 75 -51.999s37.333 -49.166 49 -80.499s17.5 -65.666 17.5 -102.999v-24c0 -37.333 -5.83301 -71.666 -17.5 -102.999s-28 -58.166 -49 -80.499s-46 -39.666 -75 -51.999s-61.167 -18.5 -96.5 -18.5h-8zM297 50
c27.333 0 52 4.83301 74 14.5s40.667 23.334 56 41.001s27.333 38.667 36 63s13 51.166 13 80.499v22c0 29.333 -4.33301 56.333 -13 81s-20.667 45.667 -36 63s-34 30.833 -56 40.5s-46.667 14.5 -74 14.5h-7c-26.667 0 -51.167 -4.83301 -73.5 -14.5
s-41.333 -23.167 -57 -40.5s-27.834 -38.333 -36.501 -63s-13 -51.667 -13 -81v-22c0 -29.333 4.33301 -56.166 13 -80.499s20.834 -45.333 36.501 -63s34.5 -31.334 56.5 -41.001s46.667 -14.5 74 -14.5h7zM253 723h61l-60 -133h-47zM378 723h62l-60 -133h-48z" />
    <glyph glyph-name="OE" unicode="&#x152;" horiz-adv-x="889" 
d="M818 700v-57h-303v-255h283v-57h-283v-274h313v-57h-373c-24.667 -5.33301 -49.334 -8 -74.001 -8h-7c-47.333 0 -91 8.33301 -131 25s-74.5 40.167 -103.5 70.5s-51.5 67 -67.5 110s-24 90.833 -24 143.5v18c0 52.667 8 100.5 24 143.5s38.5 79.667 67.5 110
s63.5 53.833 103.5 70.5s83.667 25 131 25h7c24.667 0 49.334 -2.66699 74.001 -8h363zM455 638c-24 7.33301 -48.998 10.9961 -74.998 10.9961h-6c-38 0 -73 -7 -105 -21s-59.833 -33.667 -83.5 -59s-42 -55.666 -55 -90.999s-19.5 -74.666 -19.5 -117.999v-20
c0 -43.333 6.66699 -82.666 20 -117.999s31.666 -65.666 54.999 -90.999s51.166 -45 83.499 -59s67.833 -21 106.5 -21h5c25.333 0 50 3.66699 74 11v576z" />
    <glyph glyph-name="oe" unicode="&#x153;" horiz-adv-x="998" 
d="M719 -6c-48 0 -89.8271 11.8369 -125.494 35.5039s-62.5 55.5 -80.5 95.5c-19.333 -40 -47.5 -71.833 -84.5 -95.5s-79.833 -35.5 -128.5 -35.5h-5c-35.333 0 -68 6.33301 -98 19s-55.833 30.167 -77.5 52.5s-38.5 49.166 -50.5 80.499s-18 65.333 -18 102v24
c0 37.333 6 71.5 18 102.5s28.833 57.667 50.5 80s47.5 39.833 77.5 52.5s62.667 19 98 19h5c49.333 0 92.666 -12 129.999 -36s65.666 -56.667 84.999 -98c18.667 42 46 74.833 82 98.5s78 35.5 126 35.5h1c33.333 0 63.666 -5.83301 90.999 -17.5
s50.666 -28.334 69.999 -50.001s34.5 -47.334 45.5 -77.001s16.5 -62.5 16.5 -98.5v-47h-403v-2c1.33301 -27.333 6.66602 -52.333 15.999 -75s21.833 -42 37.5 -58s34.167 -28.5 55.5 -37.5s44.666 -13.5 69.999 -13.5h1c34 0 65.667 7.66699 95 23
s52.666 35.666 69.999 60.999l45 -29c-25.333 -36 -56.666 -63.5 -93.999 -82.5s-77.333 -28.5 -120 -28.5h-1zM298.006 50.0039c27.333 0 52.333 4.83301 75 14.5s42.167 23.334 58.5 41.001s29.166 38.667 38.499 63s14 51.166 14 80.499v22
c0 29.333 -4.66699 56.166 -14 80.499s-22.166 45.333 -38.499 63s-35.833 31.334 -58.5 41.001s-47.667 14.5 -75 14.5h-1c-27.333 0 -52.5 -4.83301 -75.5 -14.5s-42.667 -23.334 -59 -41.001s-29.166 -38.667 -38.499 -63s-14 -51.166 -14 -80.499v-22
c0 -29.333 4.66699 -56.166 14 -80.499s22.166 -45.333 38.499 -63s36 -31.334 59 -41.001s48.167 -14.5 75.5 -14.5h1zM891.006 289.004v2.99707c-0.666992 26.667 -5.5 50.834 -14.5 72.501s-21 40.334 -36 56.001s-32.667 27.834 -53 36.501s-42.5 13 -66.5 13h-1
c-49.333 0 -89.5 -16.5 -120.5 -49.5s-49.167 -76.833 -54.5 -131.5h346z" />
    <glyph glyph-name="Racute" unicode="&#x154;" horiz-adv-x="627" 
d="M103 700h212c74 0 131.833 -18.333 173.5 -55s62.5 -87.334 62.5 -152.001v-10c0 -49.333 -13 -90.666 -39 -123.999s-63 -56.333 -111 -69l203 -290h-77l-190 278h-174v-278h-60v700zM313 335c57.333 0 101 13 131 39s45 62 45 108v10c0 48 -15.167 85.167 -45.5 111.5
s-73.833 39.5 -130.5 39.5h-150v-308h150zM329 766h-47l47 136h62z" />
    <glyph glyph-name="racute" unicode="&#x155;" horiz-adv-x="359" 
d="M88 520l42 -0.000976562c3.33301 -10.667 6 -23.667 8 -39s3.66699 -30.666 5 -45.999c17.333 26.667 40.5 47.5 69.5 62.5s60.833 22.5 95.5 22.5h13v-58c-2.66699 0.666992 -6.83398 1.16699 -12.501 1.5s-10.5 0.5 -14.5 0.5c-45.333 0 -81.666 -14.667 -108.999 -44
s-41 -72.333 -41 -129v-291h-56v520zM181 586.999l56 133h61l-70 -133h-47z" />
    <glyph glyph-name="uni0156" unicode="&#x156;" horiz-adv-x="627" 
d="M103 700h212c74 0 131.833 -18.333 173.5 -55s62.5 -87.334 62.5 -152.001v-10c0 -49.333 -13 -90.666 -39 -123.999s-63 -56.333 -111 -69l203 -290h-77l-190 278h-174v-278h-60v700zM313 335c57.333 0 101 13 131 39s45 62 45 108v10c0 48 -15.167 85.167 -45.5 111.5
s-73.833 39.5 -130.5 39.5h-150v-308h150zM303 -34h55l-57 -140h-38z" />
    <glyph glyph-name="uni0157" unicode="&#x157;" horiz-adv-x="359" 
d="M88 520l42 -0.000976562c3.33301 -10.667 6 -23.667 8 -39s3.66699 -30.666 5 -45.999c17.333 26.667 40.5 47.5 69.5 62.5s60.833 22.5 95.5 22.5h13v-58c-2.66699 0.666992 -6.83398 1.16699 -12.501 1.5s-10.5 0.5 -14.5 0.5c-45.333 0 -81.666 -14.667 -108.999 -44
s-41 -72.333 -41 -129v-291h-56v520zM89 -34.001h55l-57 -140h-38z" />
    <glyph glyph-name="Rcaron" unicode="&#x158;" horiz-adv-x="627" 
d="M103 700h212c74 0 131.833 -18.333 173.5 -55s62.5 -87.334 62.5 -152.001v-10c0 -49.333 -13 -90.666 -39 -123.999s-63 -56.333 -111 -69l203 -290h-77l-190 278h-174v-278h-60v700zM313 335c57.333 0 101 13 131 39s45 62 45 108v10c0 48 -15.167 85.167 -45.5 111.5
s-73.833 39.5 -130.5 39.5h-150v-308h150zM141 898h71l87 -78h18l88 78h70l-130 -121h-74z" />
    <glyph glyph-name="rcaron" unicode="&#x159;" horiz-adv-x="359" 
d="M88 520l42 -0.000976562c3.33301 -10.667 6 -23.667 8 -39s3.66699 -30.666 5 -45.999c17.333 26.667 40.5 47.5 69.5 62.5s60.833 22.5 95.5 22.5h13v-58c-2.66699 0.666992 -6.83398 1.16699 -12.501 1.5s-10.5 0.5 -14.5 0.5c-45.333 0 -81.666 -14.667 -108.999 -44
s-41 -72.333 -41 -129v-291h-56v520zM38 719.999h71l87 -78h18l88 78h70l-130 -121h-74z" />
    <glyph glyph-name="Sacute" unicode="&#x15a;" horiz-adv-x="566" 
d="M293 -9c-46.667 0 -92.502 9 -137.502 27s-82.5 42.333 -112.5 73l38 46c26 -28 58.333 -49.667 97 -65s77.667 -23 117 -23c51.333 0 91.666 11.833 120.999 35.5s44 56.834 44 99.501c0 27.333 -6.5 49.666 -19.5 66.999s-30.167 31.833 -51.5 43.5
s-45.333 21.5 -72 29.5l-81 25c-23.333 7.33301 -45.5 15.666 -66.5 24.999s-39.5 20.833 -55.5 34.5s-28.667 30.167 -38 49.5s-14 43 -14 71c0 27.333 5 52 15 74s24.333 41 43 57s41.334 28.333 68.001 37s56.334 13 89.001 13c42 0 82.333 -7.66699 121 -23
s71 -36.333 97 -63l-37 -46c-23.333 24 -51.166 42.167 -83.499 54.5s-65.833 18.5 -100.5 18.5c-46.667 0 -83.5 -10.833 -110.5 -32.5s-40.5 -50.167 -40.5 -85.5c0 -22 4.83301 -40.333 14.5 -55s22.667 -27.167 39 -37.5s35.333 -19.333 57 -27s44.5 -15.167 68.5 -22.5
c26.667 -8 53.167 -16.833 79.5 -26.5s49.833 -22 70.5 -37s37.5 -33.667 50.5 -56s19.5 -50.166 19.5 -83.499c0 -30 -5.33301 -57.167 -16 -81.5s-26 -45 -46 -62s-44 -30.167 -72 -39.5s-59.667 -14 -95 -14zM302.998 766h-47l47 136h62z" />
    <glyph glyph-name="sacute" unicode="&#x15b;" horiz-adv-x="483" 
d="M253 -7c-40.667 0 -80.002 7 -118.002 21s-69.667 33 -95 57l33 42c54 -44 114.333 -66 181 -66c40 0 71.5 8.16699 94.5 24.5s34.5 39.166 34.5 68.499c0 16.667 -4 30.5 -12 41.5s-18.833 20.333 -32.5 28s-29.167 13.834 -46.5 18.501s-35.333 9 -54 13
c-21.333 4.66699 -42.666 9.83398 -63.999 15.501s-40.5 13.667 -57.5 24s-30.667 23.666 -41 39.999s-15.5 37.166 -15.5 62.499c0 22 4.16699 41.833 12.5 59.5s20 32.667 35 45s33.167 22 54.5 29s45 10.5 71 10.5c34 0 67.333 -5.66699 100 -17s61.667 -26 87 -44
l-28 -46c-25.333 16.667 -51.5 29.5 -78.5 38.5s-54.5 13.5 -82.5 13.5c-34.667 0 -62.167 -7.5 -82.5 -22.5s-30.5 -35.5 -30.5 -61.5c0 -15.333 3.83301 -28 11.5 -38s17.667 -18.333 30 -25s26.833 -12.167 43.5 -16.5s34 -8.5 52 -12.5
c22 -4.66699 44.167 -10.167 66.5 -16.5s42.333 -15 60 -26s32.167 -25 43.5 -42s17 -38.833 17 -65.5c0 -47.333 -17.167 -84.666 -51.5 -111.999s-80.166 -41 -137.499 -41zM212.998 587l56 133h61l-70 -133h-47z" />
    <glyph glyph-name="Scircumflex" unicode="&#x15c;" horiz-adv-x="566" 
d="M293 -9c-46.667 0 -92.502 9 -137.502 27s-82.5 42.333 -112.5 73l38 46c26 -28 58.333 -49.667 97 -65s77.667 -23 117 -23c51.333 0 91.666 11.833 120.999 35.5s44 56.834 44 99.501c0 27.333 -6.5 49.666 -19.5 66.999s-30.167 31.833 -51.5 43.5
s-45.333 21.5 -72 29.5l-81 25c-23.333 7.33301 -45.5 15.666 -66.5 24.999s-39.5 20.833 -55.5 34.5s-28.667 30.167 -38 49.5s-14 43 -14 71c0 27.333 5 52 15 74s24.333 41 43 57s41.334 28.333 68.001 37s56.334 13 89.001 13c42 0 82.333 -7.66699 121 -23
s71 -36.333 97 -63l-37 -46c-23.333 24 -51.166 42.167 -83.499 54.5s-65.833 18.5 -100.5 18.5c-46.667 0 -83.5 -10.833 -110.5 -32.5s-40.5 -50.167 -40.5 -85.5c0 -22 4.83301 -40.333 14.5 -55s22.667 -27.167 39 -37.5s35.333 -19.333 57 -27s44.5 -15.167 68.5 -22.5
c26.667 -8 53.167 -16.833 79.5 -26.5s49.833 -22 70.5 -37s37.5 -33.667 50.5 -56s19.5 -50.166 19.5 -83.499c0 -30 -5.33301 -57.167 -16 -81.5s-26 -45 -46 -62s-44 -30.167 -72 -39.5s-59.667 -14 -95 -14zM243.998 900h74l130 -121h-70l-88 78h-18l-87 -78h-71z" />
    <glyph glyph-name="scircumflex" unicode="&#x15d;" horiz-adv-x="483" 
d="M253 -7c-40.667 0 -80.002 7 -118.002 21s-69.667 33 -95 57l33 42c54 -44 114.333 -66 181 -66c40 0 71.5 8.16699 94.5 24.5s34.5 39.166 34.5 68.499c0 16.667 -4 30.5 -12 41.5s-18.833 20.333 -32.5 28s-29.167 13.834 -46.5 18.501s-35.333 9 -54 13
c-21.333 4.66699 -42.666 9.83398 -63.999 15.501s-40.5 13.667 -57.5 24s-30.667 23.666 -41 39.999s-15.5 37.166 -15.5 62.499c0 22 4.16699 41.833 12.5 59.5s20 32.667 35 45s33.167 22 54.5 29s45 10.5 71 10.5c34 0 67.333 -5.66699 100 -17s61.667 -26 87 -44
l-28 -46c-25.333 16.667 -51.5 29.5 -78.5 38.5s-54.5 13.5 -82.5 13.5c-34.667 0 -62.167 -7.5 -82.5 -22.5s-30.5 -35.5 -30.5 -61.5c0 -15.333 3.83301 -28 11.5 -38s17.667 -18.333 30 -25s26.833 -12.167 43.5 -16.5s34 -8.5 52 -12.5
c22 -4.66699 44.167 -10.167 66.5 -16.5s42.333 -15 60 -26s32.167 -25 43.5 -42s17 -38.833 17 -65.5c0 -47.333 -17.167 -84.666 -51.5 -111.999s-80.166 -41 -137.499 -41zM333.998 599l-88 78h-18l-87 -78h-71l130 121h74l130 -121h-70z" />
    <glyph glyph-name="Scedilla" unicode="&#x15e;" horiz-adv-x="566" 
d="M293 -9c-46.667 0 -92.502 9 -137.502 27s-82.5 42.333 -112.5 73l38 46c26 -28 58.333 -49.667 97 -65s77.667 -23 117 -23c51.333 0 91.666 11.833 120.999 35.5s44 56.834 44 99.501c0 27.333 -6.5 49.666 -19.5 66.999s-30.167 31.833 -51.5 43.5
s-45.333 21.5 -72 29.5l-81 25c-23.333 7.33301 -45.5 15.666 -66.5 24.999s-39.5 20.833 -55.5 34.5s-28.667 30.167 -38 49.5s-14 43 -14 71c0 27.333 5 52 15 74s24.333 41 43 57s41.334 28.333 68.001 37s56.334 13 89.001 13c42 0 82.333 -7.66699 121 -23
s71 -36.333 97 -63l-37 -46c-23.333 24 -51.166 42.167 -83.499 54.5s-65.833 18.5 -100.5 18.5c-46.667 0 -83.5 -10.833 -110.5 -32.5s-40.5 -50.167 -40.5 -85.5c0 -22 4.83301 -40.333 14.5 -55s22.667 -27.167 39 -37.5s35.333 -19.333 57 -27s44.5 -15.167 68.5 -22.5
c26.667 -8 53.167 -16.833 79.5 -26.5s49.833 -22 70.5 -37s37.5 -33.667 50.5 -56s19.5 -50.166 19.5 -83.499c0 -30 -5.33301 -57.167 -16 -81.5s-26 -45 -46 -62s-44 -30.167 -72 -39.5s-59.667 -14 -95 -14zM258.998 -168c-13.333 0 -27.333 1.66797 -42 5.00098l6 40
c11.333 -4 22.666 -6 33.999 -6c12.667 0 22.334 2.83301 29.001 8.5s10 13.167 10 22.5c0 12.667 -4.83301 22.167 -14.5 28.5s-22.167 10.166 -37.5 11.499l23 59h41l-18 -41c14.667 -4.66699 27 -11.5 37 -20.5s15 -22.167 15 -39.5s-7.33301 -33 -22 -47
s-35 -21 -61 -21z" />
    <glyph glyph-name="scedilla" unicode="&#x15f;" horiz-adv-x="483" 
d="M253 -7c-40.667 0 -80.002 7 -118.002 21s-69.667 33 -95 57l33 42c54 -44 114.333 -66 181 -66c40 0 71.5 8.16699 94.5 24.5s34.5 39.166 34.5 68.499c0 16.667 -4 30.5 -12 41.5s-18.833 20.333 -32.5 28s-29.167 13.834 -46.5 18.501s-35.333 9 -54 13
c-21.333 4.66699 -42.666 9.83398 -63.999 15.501s-40.5 13.667 -57.5 24s-30.667 23.666 -41 39.999s-15.5 37.166 -15.5 62.499c0 22 4.16699 41.833 12.5 59.5s20 32.667 35 45s33.167 22 54.5 29s45 10.5 71 10.5c34 0 67.333 -5.66699 100 -17s61.667 -26 87 -44
l-28 -46c-25.333 16.667 -51.5 29.5 -78.5 38.5s-54.5 13.5 -82.5 13.5c-34.667 0 -62.167 -7.5 -82.5 -22.5s-30.5 -35.5 -30.5 -61.5c0 -15.333 3.83301 -28 11.5 -38s17.667 -18.333 30 -25s26.833 -12.167 43.5 -16.5s34 -8.5 52 -12.5
c22 -4.66699 44.167 -10.167 66.5 -16.5s42.333 -15 60 -26s32.167 -25 43.5 -42s17 -38.833 17 -65.5c0 -47.333 -17.167 -84.666 -51.5 -111.999s-80.166 -41 -137.499 -41zM216.998 -168c-13.333 0 -27.333 1.66797 -42 5.00098l6 40c11.333 -4 22.666 -6 33.999 -6
c12.667 0 22.334 2.83301 29.001 8.5s10 13.167 10 22.5c0 12.667 -4.83301 22.167 -14.5 28.5s-22.167 10.166 -37.5 11.499l23 59h41l-18 -41c14.667 -4.66699 27 -11.5 37 -20.5s15 -22.167 15 -39.5s-7.33301 -33 -22 -47s-35 -21 -61 -21z" />
    <glyph glyph-name="Scaron" unicode="&#x160;" horiz-adv-x="566" 
d="M293 -9c-46.667 0 -92.502 9 -137.502 27s-82.5 42.333 -112.5 73l38 46c26 -28 58.333 -49.667 97 -65s77.667 -23 117 -23c51.333 0 91.666 11.833 120.999 35.5s44 56.834 44 99.501c0 27.333 -6.5 49.666 -19.5 66.999s-30.167 31.833 -51.5 43.5
s-45.333 21.5 -72 29.5l-81 25c-23.333 7.33301 -45.5 15.666 -66.5 24.999s-39.5 20.833 -55.5 34.5s-28.667 30.167 -38 49.5s-14 43 -14 71c0 27.333 5 52 15 74s24.333 41 43 57s41.334 28.333 68.001 37s56.334 13 89.001 13c42 0 82.333 -7.66699 121 -23
s71 -36.333 97 -63l-37 -46c-23.333 24 -51.166 42.167 -83.499 54.5s-65.833 18.5 -100.5 18.5c-46.667 0 -83.5 -10.833 -110.5 -32.5s-40.5 -50.167 -40.5 -85.5c0 -22 4.83301 -40.333 14.5 -55s22.667 -27.167 39 -37.5s35.333 -19.333 57 -27s44.5 -15.167 68.5 -22.5
c26.667 -8 53.167 -16.833 79.5 -26.5s49.833 -22 70.5 -37s37.5 -33.667 50.5 -56s19.5 -50.166 19.5 -83.499c0 -30 -5.33301 -57.167 -16 -81.5s-26 -45 -46 -62s-44 -30.167 -72 -39.5s-59.667 -14 -95 -14zM114.998 898h71l87 -78h18l88 78h70l-130 -121h-74z" />
    <glyph glyph-name="scaron" unicode="&#x161;" horiz-adv-x="483" 
d="M253 -7c-40.667 0 -80.002 7 -118.002 21s-69.667 33 -95 57l33 42c54 -44 114.333 -66 181 -66c40 0 71.5 8.16699 94.5 24.5s34.5 39.166 34.5 68.499c0 16.667 -4 30.5 -12 41.5s-18.833 20.333 -32.5 28s-29.167 13.834 -46.5 18.501s-35.333 9 -54 13
c-21.333 4.66699 -42.666 9.83398 -63.999 15.501s-40.5 13.667 -57.5 24s-30.667 23.666 -41 39.999s-15.5 37.166 -15.5 62.499c0 22 4.16699 41.833 12.5 59.5s20 32.667 35 45s33.167 22 54.5 29s45 10.5 71 10.5c34 0 67.333 -5.66699 100 -17s61.667 -26 87 -44
l-28 -46c-25.333 16.667 -51.5 29.5 -78.5 38.5s-54.5 13.5 -82.5 13.5c-34.667 0 -62.167 -7.5 -82.5 -22.5s-30.5 -35.5 -30.5 -61.5c0 -15.333 3.83301 -28 11.5 -38s17.667 -18.333 30 -25s26.833 -12.167 43.5 -16.5s34 -8.5 52 -12.5
c22 -4.66699 44.167 -10.167 66.5 -16.5s42.333 -15 60 -26s32.167 -25 43.5 -42s17 -38.833 17 -65.5c0 -47.333 -17.167 -84.666 -51.5 -111.999s-80.166 -41 -137.499 -41zM69.998 720h71l87 -78h18l88 78h70l-130 -121h-74z" />
    <glyph glyph-name="uni0162" unicode="&#x162;" horiz-adv-x="502" 
d="M221 643h-198v57h456v-57h-198v-643h-60v643zM222 -168c-13.333 0 -27.333 1.66797 -42 5.00098l6 40c11.333 -4 22.666 -6 33.999 -6c12.667 0 22.334 2.83301 29.001 8.5s10 13.167 10 22.5c0 12.667 -4.83301 22.167 -14.5 28.5s-22.167 10.166 -37.5 11.499l23 59h41
l-18 -41c14.667 -4.66699 27 -11.5 37 -20.5s15 -22.167 15 -39.5s-7.33301 -33 -22 -47s-35 -21 -61 -21z" />
    <glyph glyph-name="uni0163" unicode="&#x163;" horiz-adv-x="367" 
d="M230 -3c-85.333 0 -128.001 44.667 -128.001 134v336h-73v39c9.33301 3.33301 21 6.33301 35 9s26.667 4.33398 38 5.00098v120l56 8v-128h163v-53h-163v-326c0 -32.667 7 -55.834 21 -69.501s34.333 -20.5 61 -20.5c6 0 13.167 0.333008 21.5 1s16.833 1.5 25.5 2.5
s16.834 2.33301 24.501 4s14.5 3.5 20.5 5.5v-51c-12 -5.33301 -28 -9.33301 -48 -12s-38 -4 -54 -4zM188.999 -168c-13.333 0 -27.333 1.66797 -42 5.00098l6 40c11.333 -4 22.666 -6 33.999 -6c12.667 0 22.334 2.83301 29.001 8.5s10 13.167 10 22.5
c0 12.667 -4.83301 22.167 -14.5 28.5s-22.167 10.166 -37.5 11.499l23 59h41l-18 -41c14.667 -4.66699 27 -11.5 37 -20.5s15 -22.167 15 -39.5s-7.33301 -33 -22 -47s-35 -21 -61 -21z" />
    <glyph glyph-name="Tcaron" unicode="&#x164;" horiz-adv-x="502" 
d="M221 643h-198v57h456v-57h-198v-643h-60v643zM84 898h71l87 -78h18l88 78h70l-130 -121h-74z" />
    <glyph glyph-name="tcaron" unicode="&#x165;" horiz-adv-x="367" 
d="M230 -3c-85.333 0 -128.001 44.667 -128.001 134v336h-73v39c9.33301 3.33301 21 6.33301 35 9s26.667 4.33398 38 5.00098v120l56 8v-128h163v-53h-163v-326c0 -32.667 7 -55.834 21 -69.501s34.333 -20.5 61 -20.5c6 0 13.167 0.333008 21.5 1s16.833 1.5 25.5 2.5
s16.834 2.33301 24.501 4s14.5 3.5 20.5 5.5v-51c-12 -5.33301 -28 -9.33301 -48 -12s-38 -4 -54 -4zM296.999 720h58l-33 -157h-41z" />
    <glyph glyph-name="Tbar" unicode="&#x166;" horiz-adv-x="502" 
d="M107 384h114v259h-198v57h456v-57h-198v-259h114v-49h-114v-335h-60v335h-114v49z" />
    <glyph glyph-name="tbar" unicode="&#x167;" horiz-adv-x="371" 
d="M39 320h62.999v147h-73v39c9.33301 3.33301 21 6.33301 35 9s26.667 4.33398 38 5.00098v120l56 8v-128h163v-53h-163v-147h143v-48h-143v-131c0 -32.667 7 -55.834 21 -69.501s34.333 -20.5 61 -20.5c6 0 13.167 0.333008 21.5 1s16.833 1.5 25.5 2.5
s16.834 2.33301 24.501 4s14.5 3.5 20.5 5.5v-51c-12 -5.33301 -28 -9.33301 -48 -12s-38 -4 -54 -4c-85.333 0 -128 44.667 -128 134v141h-63v48z" />
    <glyph glyph-name="Utilde" unicode="&#x168;" horiz-adv-x="695" 
d="M348 -7c-81.333 0 -144.168 21.833 -188.501 65.5s-66.5 106.5 -66.5 188.5v453h60v-447c0 -66 16.833 -116 50.5 -150s81.834 -51 144.501 -51s110.667 17 144 51s50 84 50 150v447h60v-453c0 -82 -22.167 -144.833 -66.5 -188.5s-106.833 -65.5 -187.5 -65.5z
M177.998 833c11.333 17.333 25.3311 30.668 41.998 40.001s34.667 14 54 14c13.333 0 26.5 -2.33301 39.5 -7s27.833 -11 44.5 -19c11.333 -6 22.5 -11 33.5 -15s22.167 -6 33.5 -6c14 0 26.667 3.16699 38 9.5s20.666 15.166 27.999 26.499l25 -33
c-10.667 -17.333 -24.167 -30.5 -40.5 -39.5s-33.833 -13.5 -52.5 -13.5c-14 0 -27.667 2.5 -41 7.5s-26.666 10.833 -39.999 17.5s-25.666 12 -36.999 16s-22.666 6 -33.999 6c-13.333 0 -26.333 -3.33301 -39 -10s-22.667 -15.667 -30 -27z" />
    <glyph glyph-name="utilde" unicode="&#x169;" horiz-adv-x="589" 
d="M257 -7c-59.333 0 -103.998 16.667 -133.998 50s-45 81.333 -45 144v333h56v-324c0 -48 10.667 -84.5 32 -109.5s54.333 -37.5 99 -37.5h6c25.333 0 48.666 4 69.999 12s39.666 19.333 54.999 34s27.333 32.334 36 53.001s13 44 13 70v302h56v-520h-44
c-2.66699 10.667 -5 23.667 -7 39s-3.66699 30.666 -5 45.999c-19.333 -28.667 -44.833 -51.167 -76.5 -67.5s-67.5 -24.5 -107.5 -24.5h-4zM121.002 656c11.333 17.333 25.3311 30.498 41.998 39.498s34.667 13.5 54 13.5c14 0 27.5 -2.33301 40.5 -7s27.5 -11 43.5 -19
c12 -5.33301 23.5 -10.166 34.5 -14.499s22.167 -6.5 33.5 -6.5c14 0 26.667 3.33301 38 10s20.333 15.667 27 27l26 -33c-10.667 -17.333 -24.334 -30.666 -41.001 -39.999s-34 -14 -52 -14c-14.667 0 -28.667 2.66699 -42 8s-26.333 11 -39 17
c-13.333 6.66699 -25.666 12.167 -36.999 16.5s-22.666 6.5 -33.999 6.5c-14 0 -27.167 -3.33301 -39.5 -10s-22.166 -15.667 -29.499 -27z" />
    <glyph glyph-name="Umacron" unicode="&#x16a;" horiz-adv-x="695" 
d="M348 -7c-81.333 0 -144.168 21.833 -188.501 65.5s-66.5 106.5 -66.5 188.5v453h60v-447c0 -66 16.833 -116 50.5 -150s81.834 -51 144.501 -51s110.667 17 144 51s50 84 50 150v447h60v-453c0 -82 -22.167 -144.833 -66.5 -188.5s-106.833 -65.5 -187.5 -65.5z
M223.998 875h248v-49h-248v49z" />
    <glyph glyph-name="umacron" unicode="&#x16b;" horiz-adv-x="589" 
d="M257 -7c-59.333 0 -103.998 16.667 -133.998 50s-45 81.333 -45 144v333h56v-324c0 -48 10.667 -84.5 32 -109.5s54.333 -37.5 99 -37.5h6c25.333 0 48.666 4 69.999 12s39.666 19.333 54.999 34s27.333 32.334 36 53.001s13 44 13 70v302h56v-520h-44
c-2.66699 10.667 -5 23.667 -7 39s-3.66699 30.666 -5 45.999c-19.333 -28.667 -44.833 -51.167 -76.5 -67.5s-67.5 -24.5 -107.5 -24.5h-4zM167.002 695h249v-49h-249v49z" />
    <glyph glyph-name="Ubreve" unicode="&#x16c;" horiz-adv-x="695" 
d="M348 -7c-81.333 0 -144.168 21.833 -188.501 65.5s-66.5 106.5 -66.5 188.5v453h60v-447c0 -66 16.833 -116 50.5 -150s81.834 -51 144.501 -51s110.667 17 144 51s50 84 50 150v447h60v-453c0 -82 -22.167 -144.833 -66.5 -188.5s-106.833 -65.5 -187.5 -65.5z
M256.998 898c0 -26.667 8.33398 -48 25.001 -64s39 -24 67 -24s50.333 8 67 24s25 37.333 25 64h55c0 -40.667 -13.333 -73.167 -40 -97.5s-62.334 -36.5 -107.001 -36.5c-44 0 -79.5 12.167 -106.5 36.5s-40.5 56.833 -40.5 97.5h55z" />
    <glyph glyph-name="ubreve" unicode="&#x16d;" horiz-adv-x="589" 
d="M257 -7c-59.333 0 -103.998 16.667 -133.998 50s-45 81.333 -45 144v333h56v-324c0 -48 10.667 -84.5 32 -109.5s54.333 -37.5 99 -37.5h6c25.333 0 48.666 4 69.999 12s39.666 19.333 54.999 34s27.333 32.334 36 53.001s13 44 13 70v302h56v-520h-44
c-2.66699 10.667 -5 23.667 -7 39s-3.66699 30.666 -5 45.999c-19.333 -28.667 -44.833 -51.167 -76.5 -67.5s-67.5 -24.5 -107.5 -24.5h-4zM199.002 721c0 -27.333 8.50098 -49 25.501 -65s39.5 -24 67.5 -24s50.333 8 67 24s25 37.667 25 65h54
c0 -40.667 -13.167 -73.334 -39.5 -98.001s-61.833 -37 -106.5 -37s-80.334 12.333 -107.001 37s-40 57.334 -40 98.001h54z" />
    <glyph glyph-name="Uring" unicode="&#x16e;" horiz-adv-x="695" 
d="M348 -7c-81.333 0 -144.168 21.833 -188.501 65.5s-66.5 106.5 -66.5 188.5v453h60v-447c0 -66 16.833 -116 50.5 -150s81.834 -51 144.501 -51s110.667 17 144 51s50 84 50 150v447h60v-453c0 -82 -22.167 -144.833 -66.5 -188.5s-106.833 -65.5 -187.5 -65.5z
M346.998 763c-24 0 -43.667 7.5 -59 22.5s-23 34.167 -23 57.5s7.66699 42.833 23 58.5s35 23.5 59 23.5s43.833 -7.83301 59.5 -23.5s23.5 -35.167 23.5 -58.5s-7.83301 -42.5 -23.5 -57.5s-35.5 -22.5 -59.5 -22.5zM346.998 797c13.333 0 24.333 4.33301 33 13
s13 19.667 13 33s-4.33301 24.5 -13 33.5s-19.667 13.5 -33 13.5s-24.166 -4.5 -32.499 -13.5s-12.5 -20.167 -12.5 -33.5s4.16699 -24.333 12.5 -33s19.166 -13 32.499 -13z" />
    <glyph glyph-name="uring" unicode="&#x16f;" horiz-adv-x="589" 
d="M257 -7c-59.333 0 -103.998 16.667 -133.998 50s-45 81.333 -45 144v333h56v-324c0 -48 10.667 -84.5 32 -109.5s54.333 -37.5 99 -37.5h6c25.333 0 48.666 4 69.999 12s39.666 19.333 54.999 34s27.333 32.334 36 53.001s13 44 13 70v302h56v-520h-44
c-2.66699 10.667 -5 23.667 -7 39s-3.66699 30.666 -5 45.999c-19.333 -28.667 -44.833 -51.167 -76.5 -67.5s-67.5 -24.5 -107.5 -24.5h-4zM291.002 586c-23.333 0 -42.5 7.5 -57.5 22.5s-22.5 34.167 -22.5 57.5s7.5 42.833 22.5 58.5s34.167 23.5 57.5 23.5
s42.833 -7.83301 58.5 -23.5s23.5 -35.167 23.5 -58.5s-7.83301 -42.5 -23.5 -57.5s-35.167 -22.5 -58.5 -22.5zM291.002 620c13.333 0 24.333 4.33301 33 13s13 19.667 13 33s-4.33301 24.5 -13 33.5s-19.667 13.5 -33 13.5s-24.166 -4.5 -32.499 -13.5
s-12.5 -20.167 -12.5 -33.5s4.16699 -24.333 12.5 -33s19.166 -13 32.499 -13z" />
    <glyph glyph-name="Uhungarumlaut" unicode="&#x170;" horiz-adv-x="695" 
d="M348 -7c-81.333 0 -144.168 21.833 -188.501 65.5s-66.5 106.5 -66.5 188.5v453h60v-447c0 -66 16.833 -116 50.5 -150s81.834 -51 144.501 -51s110.667 17 144 51s50 84 50 150v447h60v-453c0 -82 -22.167 -144.833 -66.5 -188.5s-106.833 -65.5 -187.5 -65.5z
M258.998 764l47 136h61l-61 -136h-47zM385.998 764l47 136h61l-61 -136h-47z" />
    <glyph glyph-name="uhungarumlaut" unicode="&#x171;" horiz-adv-x="589" 
d="M257 -7c-59.333 0 -103.998 16.667 -133.998 50s-45 81.333 -45 144v333h56v-324c0 -48 10.667 -84.5 32 -109.5s54.333 -37.5 99 -37.5h6c25.333 0 48.666 4 69.999 12s39.666 19.333 54.999 34s27.333 32.334 36 53.001s13 44 13 70v302h56v-520h-44
c-2.66699 10.667 -5 23.667 -7 39s-3.66699 30.666 -5 45.999c-19.333 -28.667 -44.833 -51.167 -76.5 -67.5s-67.5 -24.5 -107.5 -24.5h-4zM252.002 723h61l-60 -133h-47zM377.002 723h62l-60 -133h-48z" />
    <glyph glyph-name="Uogonek" unicode="&#x172;" horiz-adv-x="695" 
d="M401 -163c-11.333 -3.33301 -23.001 -5.00098 -35.001 -5.00098c-22.667 0 -40.5 6 -53.5 18s-19.5 28 -19.5 48c0 32.667 16 64.334 48 95.001c-78.667 1.33301 -139.667 23.833 -183 67.5s-65 105.834 -65 186.501v453h60v-447c0 -66 16.833 -116 50.5 -150
s81.834 -51 144.501 -51s110.667 17 144 51s50 84 50 150v447h60v-453c0 -68.667 -15.5 -123.834 -46.5 -165.501s-75.5 -68.834 -133.5 -81.501c-22 -9.33301 -41.333 -22.166 -58 -38.499s-25 -34.833 -25 -55.5c0 -23.333 11.667 -35 35 -35c7.33301 0 16.333 2 27 6v-40
z" />
    <glyph glyph-name="uogonek" unicode="&#x173;" horiz-adv-x="589" 
d="M257 -7c-59.333 0 -103.998 16.667 -133.998 50s-45 81.333 -45 144v333h56v-324c0 -48 10.667 -84.5 32 -109.5s54.333 -37.5 99 -37.5h6c25.333 0 48.666 4 69.999 12s39.666 19.333 54.999 34s27.333 32.334 36 53.001s13 44 13 70v302h56v-520h-44
c-2.66699 10.667 -5 23.667 -7 39s-3.66699 30.666 -5 45.999c-19.333 -28.667 -44.833 -51.167 -76.5 -67.5s-67.5 -24.5 -107.5 -24.5h-4zM464.002 -168c-22.667 0 -40.498 6 -53.498 18s-19.5 28.333 -19.5 49c0 21.333 7.16699 42.5 21.5 63.5
s34.166 41.167 59.499 60.5l28 -23c-22.667 -19.333 -38.667 -36 -48 -50s-14 -28 -14 -42c0 -24.667 11 -37 33 -37c5.33301 0 10.166 0.666992 14.499 2l13.5 4v-40c-11.333 -3.33301 -23 -5 -35 -5z" />
    <glyph glyph-name="Wcircumflex" unicode="&#x174;" horiz-adv-x="900" 
d="M37 700h63l140 -634h5l169 634h65l169 -634h5l147 634h63l-167 -700h-86l-161 597h-5l-161 -597h-86zM409 900h74l130 -121h-70l-88 78h-18l-87 -78h-71z" />
    <glyph glyph-name="wcircumflex" unicode="&#x175;" horiz-adv-x="778" 
d="M30 520h59l117 -456h10l139 456h67l139 -457h10l117 457h60l-135 -520h-87l-134 443h-6l-135 -443h-86zM485 599l-88 78h-18l-87 -78h-71l130 121h74l130 -121h-70z" />
    <glyph glyph-name="Ycircumflex" unicode="&#x176;" horiz-adv-x="558" 
d="M249 281l-241 419h69l198 -351h8l198 351h69l-241 -419v-281h-60v281zM242 900h74l130 -121h-70l-88 78h-18l-87 -78h-71z" />
    <glyph glyph-name="ycircumflex" unicode="&#x177;" horiz-adv-x="515" 
d="M131 -196c-10.667 0 -22.666 1.33301 -35.999 4s-25.333 7.66699 -36 15v52c22.667 -11.333 43.667 -17 63 -17c26.667 0 50.5 10 71.5 30s39.167 49.333 54.5 88l-230 544h64l191 -461h7l162 461h60l-194 -548c-18.667 -52 -41.834 -93 -69.501 -123
s-63.5 -45 -107.5 -45zM360.001 599l-88 78h-18l-87 -78h-71l130 121h74l130 -121h-70z" />
    <glyph glyph-name="Ydieresis" unicode="&#x178;" horiz-adv-x="558" 
d="M249 281l-241 419h69l198 -351h8l198 351h69l-241 -419v-281h-60v281zM199 788c-9.33301 2.66699 -16.166 7.5 -20.499 14.5s-5.16602 15.167 -2.49902 24.5c2.66699 8.66699 7.66699 15.334 15 20.001s15.333 5.66699 24 3c9.33301 -2.66699 16.166 -7.66699 20.499 -15
s5.16602 -15.333 2.49902 -24s-7.66699 -15.334 -15 -20.001s-15.333 -5.66699 -24 -3zM342 788c-9.33301 2.66699 -16.166 7.5 -20.499 14.5s-5.16602 15.167 -2.49902 24.5c2.66699 8.66699 7.66699 15.334 15 20.001s15.333 5.66699 24 3
c9.33301 -2.66699 16.166 -7.66699 20.499 -15s5.16602 -15.333 2.49902 -24s-7.66699 -15.334 -15 -20.001s-15.333 -5.66699 -24 -3z" />
    <glyph glyph-name="Zacute" unicode="&#x179;" horiz-adv-x="561" 
d="M48 54l378 583v6h-357v57h432v-53l-377 -582v-8h389v-57h-465v54zM302 763h-47l47 136h62z" />
    <glyph glyph-name="zacute" unicode="&#x17a;" horiz-adv-x="485" 
d="M38 61l326 400v6h-302v53h371v-61l-327 -400v-6h341v-53h-409v61zM219 587l56 133h61l-70 -133h-47z" />
    <glyph glyph-name="Zdotaccent" unicode="&#x17b;" horiz-adv-x="561" 
d="M48 54l378 583v6h-357v57h432v-53l-377 -582v-8h389v-57h-465v54zM281 792c-11.333 0 -20.833 4 -28.5 12s-11.5 17.667 -11.5 29c0 12 3.83301 22 11.5 30s17.167 12 28.5 12s21 -4 29 -12s12 -18 12 -30c0 -11.333 -4 -21 -12 -29s-17.667 -12 -29 -12z" />
    <glyph glyph-name="zdotaccent" unicode="&#x17c;" horiz-adv-x="485" 
d="M38 61l326 400v6h-302v53h371v-61l-327 -400v-6h341v-53h-409v61zM243 633c-11.333 0 -20.833 3.83301 -28.5 11.5s-11.5 17.167 -11.5 28.5s3.83301 21 11.5 29s17.167 12 28.5 12s21 -4 29 -12s12 -17.667 12 -29s-4 -20.833 -12 -28.5s-17.667 -11.5 -29 -11.5z" />
    <glyph glyph-name="Zcaron" unicode="&#x17d;" horiz-adv-x="561" 
d="M48 54l378 583v6h-357v57h432v-53l-377 -582v-8h389v-57h-465v54zM114 895h71l87 -78h18l88 78h70l-130 -121h-74z" />
    <glyph glyph-name="zcaron" unicode="&#x17e;" horiz-adv-x="485" 
d="M38 61l326 400v6h-302v53h371v-61l-327 -400v-6h341v-53h-409v61zM76 720h71l87 -78h18l88 78h70l-130 -121h-74z" />
    <glyph glyph-name="longs" unicode="&#x17f;" horiz-adv-x="282" 
d="M88 562c0 49.333 12 87.833 36 115.5s57 41.5 99 41.5c15.333 0 31.333 -1.83301 48 -5.5s30.667 -9.16699 42 -16.5l-2 -50c-26 12 -52.333 18 -79 18c-28 0 -49.667 -8.66699 -65 -26s-23 -44 -23 -80v-559h-56v562z" />
    <glyph glyph-name="uni018F" unicode="&#x18f;" horiz-adv-x="692" 
d="M581 382c-2 40.667 -9.33203 77.5 -21.999 110.5s-30 61.333 -52 85s-48 41.834 -78 54.501s-63.333 19 -100 19h-6c-48 0 -89.667 -10.667 -125 -32s-63.333 -50.666 -84 -87.999l-52 32c12 21.333 27.167 40.833 45.5 58.5s38.666 33 60.999 46s46.333 23.167 72 30.5
s52.167 11 79.5 11h7c46 0 88.5 -8.5 127.5 -25.5s72.5 -40.833 100.5 -71.5s49.833 -67.334 65.5 -110.001s23.5 -90 23.5 -142v-19c0 -52 -7.16699 -99.5 -21.5 -142.5s-34.5 -79.833 -60.5 -110.5s-57.333 -54.334 -94 -71.001s-77.667 -25 -123 -25h-7
c-45.333 0 -86.5 8.5 -123.5 25.5s-68.5 40.833 -94.5 71.5s-46.167 67.667 -60.5 111s-21.5 91 -21.5 143v39h543zM101.001 325c1.33301 -41.333 7.99707 -78.833 19.9971 -112.5s28.333 -62.5 49 -86.5s45.167 -42.667 73.5 -56s59.833 -20 94.5 -20h6
c34.667 0 66.334 6.5 95.001 19.5s53.334 31.5 74.001 55.5s36.834 53 48.501 87s18.167 71.667 19.5 113h-480z" />
    <glyph glyph-name="florin" unicode="&#x192;" horiz-adv-x="331" 
d="M19 -197c-11.333 0 -24.5 1.16797 -39.5 3.50098s-28.167 6.16602 -39.5 11.499v52c18 -8 38 -12 60 -12c30 0 52.167 7.83301 66.5 23.5s21.5 43.5 21.5 83.5v502h-62v38c9.33301 3.33301 19.5 6 30.5 8s21.5 3.66699 31.5 5v44c0 49.333 12 87.833 36 115.5
s56.667 41.5 98 41.5c15.333 0 31.333 -1.83301 48 -5.5s31 -9.16699 43 -16.5l-3 -50c-24.667 12 -51 18 -79 18s-49.5 -8.66699 -64.5 -26s-22.5 -44 -22.5 -80v-39h155v-53h-155v-516c0 -48.667 -11.333 -85.5 -34 -110.5s-53 -37.5 -91 -37.5z" />
    <glyph glyph-name="uni01CD" unicode="&#x1cd;" horiz-adv-x="616" 
d="M264 700h89l255 -700h-65l-76 211h-318l-75 -211h-66zM447 268l-136 378h-6l-135 -378h277zM141 898h71l87 -78h18l88 78h70l-130 -121h-74z" />
    <glyph glyph-name="uni01CE" unicode="&#x1ce;" horiz-adv-x="550" 
d="M226 -7c-26 0 -49.6709 3.66699 -71.0039 11s-39.666 17.833 -54.999 31.5s-27.166 30 -35.499 49s-12.5 39.833 -12.5 62.5v5c0 56.667 25.167 98.5 75.5 125.5s127.166 40.5 230.499 40.5h51v46c0 34 -11.167 60.333 -33.5 79s-53.833 28 -94.5 28h-5
c-28 0 -56.5 -5 -85.5 -15s-56.5 -24.333 -82.5 -43l-28 46c32.667 21.333 65.334 38.166 98.001 50.499s66.667 18.5 102 18.5h4c58 0 102.667 -14.333 134 -43s47 -68 47 -118v-275c0 -14.667 1.83301 -30.5 5.5 -47.5s7.83398 -31.833 12.501 -44.5h-57
c-3.33301 8.66699 -6.5 19.334 -9.5 32.001s-5.16699 25 -6.5 37c-27.333 -24.667 -56.666 -43.5 -87.999 -56.5s-63.333 -19.5 -96 -19.5zM228.996 49c34.667 0 67.334 7.33203 98.001 21.999s58 35.334 82 62.001v133h-39c-92 0 -158.5 -8.83301 -199.5 -26.5
s-61.5 -47.167 -61.5 -88.5v-4c0 -29.333 11.167 -53 33.5 -71s51.166 -27 86.499 -27zM111.996 719.999h71l87 -78h18l88 78h70l-130 -121h-74z" />
    <glyph glyph-name="uni01DD" unicode="&#x1dd;" horiz-adv-x="571" 
d="M279 526c36 0 68.832 -6.00195 98.499 -18.002s55 -29 76 -51s37.333 -48.333 49 -79s17.5 -64.667 17.5 -102v-20c0 -39.333 -5.83301 -75 -17.5 -107s-28 -59.5 -49 -82.5s-46.333 -40.833 -76 -53.5s-62.5 -19 -98.5 -19h-7c-33.333 0 -63.5 5.83301 -90.5 17.5
s-50.167 28.167 -69.5 49.5s-34.333 46.833 -45 76.5s-16 62.834 -16 99.501v47h409v2c-2 56 -19.5 100.667 -52.5 134s-76.5 50 -130.5 50h-9c-36 0 -67.167 -7.66699 -93.5 -23s-48.166 -35.666 -65.499 -60.999l-45 29c25.333 36 55.5 63.5 90.5 82.5
s74.5 28.5 118.5 28.5h6zM106.999 230.998l0.00195312 -3c1.33301 -54 17.166 -97.167 47.499 -129.5s70.166 -48.5 119.499 -48.5h9c50.667 0 91.667 16.333 123 49s49.333 76.667 54 132h-353z" />
    <glyph glyph-name="uni01F4" unicode="&#x1f4;" horiz-adv-x="704" 
d="M342 767l46 133h62l-63 -138zM361 -8c-47.333 0 -90.1689 8.33203 -128.502 24.999s-71.166 40.334 -98.499 71.001s-48.5 67.5 -63.5 110.5s-22.5 90.5 -22.5 142.5v19c0 52 7.66699 99.333 23 142s36.833 79.334 64.5 110.001s60.5 54.5 98.5 71.5s80 25.5 126 25.5h7
c26.667 0 52.667 -3.5 78 -10.5s49 -16.833 71 -29.5s41.833 -28 59.5 -46s32.5 -38 44.5 -60l-52 -32c-19.333 37.333 -46.333 66.666 -81 87.999s-75.334 32 -122.001 32h-5c-37.333 0 -71.333 -7 -102 -21s-56.834 -33.667 -78.501 -59s-38.5 -55.833 -50.5 -91.5
s-18 -75.167 -18 -118.5v-22c0 -43.333 6 -82.666 18 -117.999s29 -65.666 51 -90.999s48.5 -45 79.5 -59s65.5 -21 103.5 -21h4c32.667 0 62.334 5.16699 89.001 15.5s49.667 24.666 69 42.999s34.333 40.5 45 66.5s16 54.333 16 85v36h-203v57h262v-353h-45
c-2.66699 12 -5.16699 27.833 -7.5 47.5s-4.16602 39.167 -5.49902 58.5c-21.333 -34.667 -51.666 -62.334 -90.999 -83.001s-83.333 -31 -132 -31h-3z" />
    <glyph glyph-name="uni01F5" unicode="&#x1f5;" horiz-adv-x="527" 
d="M238 587l56 133h61l-70 -133h-47zM52 348c0 26 5 50.002 15 72.002s23.833 40.833 41.5 56.5s39 27.834 64 36.501s52.5 13 82.5 13h11c48.667 0 90.667 -11.333 126 -34c11.333 27.333 25 53.333 41 78h57l-60 -112c26 -30 39 -66.667 39 -110v-14c0 -26 -5 -50 -15 -72
s-23.833 -40.833 -41.5 -56.5s-39 -27.834 -64 -36.501s-52.5 -13 -82.5 -13h-11c-20.667 0 -41.667 2.66699 -63 8v-76c22 4 45.333 6 70 6h12c66.667 0 119.667 -12.833 159 -38.5s59 -61.167 59 -106.5v-9c0 -44 -19.667 -78.833 -59 -104.5s-92.333 -38.5 -159 -38.5
h-12c-67.333 0 -120.5 12.667 -159.5 38s-58.5 60.333 -58.5 105v9c0 28.667 8.16699 53.5 24.5 74.5s39.5 37.5 69.5 49.5v112c-26.667 15.333 -47.667 35.666 -63 60.999s-23 54.666 -23 87.999v14zM110 335.002c0 -38 13.5 -68.498 40.5 -91.498
s62.167 -34.5 105.5 -34.5h9c44 0 79.333 11.667 106 35s40 53.666 40 90.999v12c0 37.333 -13.333 67.666 -40 90.999s-62 35 -106 35h-9c-43.333 0 -78.5 -11.5 -105.5 -34.5s-40.5 -53.5 -40.5 -91.5v-12zM102 -57.9961c0 -30 14 -52.999 42 -68.999s67.667 -24 119 -24
h10c51.333 0 91 8.16699 119 24.5s42 39.166 42 68.499v6c0 29.333 -14 52.333 -42 69s-67.667 25 -119 25h-10c-50.667 0 -90.167 -8.33301 -118.5 -25s-42.5 -39.667 -42.5 -69v-6z" />
    <glyph glyph-name="AEacute" unicode="&#x1fc;" horiz-adv-x="815" 
d="M298 700h446v-57h-303v-255h283v-57h-283v-274h313v-57h-373v211h-220l-87 -211h-66zM381 268v375h-42l-156 -375h198zM433 746h-47l47 136h62z" />
    </font>
</defs>
</svg>
